G75*
%MOIN*%
%OFA0B0*%
%FSLAX25Y25*%
%IPPOS*%
%LPD*%
%AMOC8*
5,1,8,0,0,1.08239X$1,22.5*
%
%ADD10C,0.00000*%
%ADD11OC8,0.07000*%
%ADD12C,0.23400*%
%ADD13C,0.08274*%
%ADD14C,0.06000*%
%ADD15C,0.12998*%
%ADD16R,0.05600X0.05600*%
%ADD17OC8,0.05600*%
%ADD18C,0.05600*%
%ADD19C,0.06400*%
%ADD20R,0.09061X0.02762*%
%ADD21C,0.10400*%
%ADD22OC8,0.10400*%
%ADD23C,0.07093*%
%ADD24R,0.07487X0.06699*%
%ADD25OC8,0.06700*%
%ADD26C,0.06700*%
%ADD27OC8,0.06000*%
%ADD28R,0.05518X0.06306*%
%ADD29R,0.06306X0.05518*%
%ADD30C,0.06000*%
%ADD31C,0.05600*%
%ADD32OC8,0.06337*%
%ADD33R,0.04337X0.05912*%
%ADD34R,0.04731X0.04337*%
%ADD35R,0.13786X0.07880*%
%ADD36R,0.02400X0.04400*%
%ADD37R,0.03600X0.02000*%
%ADD38C,0.00500*%
%ADD39R,0.04337X0.04731*%
%ADD40R,0.04140X0.04731*%
%ADD41R,0.06699X0.07487*%
%ADD42R,0.08400X0.08400*%
%ADD43C,0.08400*%
%ADD44R,0.09061X0.07487*%
D10*
X0003000Y0106000D02*
X0003000Y0420961D01*
X0396701Y0420961D01*
X0396701Y0106000D01*
X0003000Y0106000D01*
X0351701Y0191000D02*
X0351703Y0191158D01*
X0351709Y0191316D01*
X0351719Y0191474D01*
X0351733Y0191632D01*
X0351751Y0191789D01*
X0351772Y0191946D01*
X0351798Y0192102D01*
X0351828Y0192258D01*
X0351861Y0192413D01*
X0351899Y0192566D01*
X0351940Y0192719D01*
X0351985Y0192871D01*
X0352034Y0193022D01*
X0352087Y0193171D01*
X0352143Y0193319D01*
X0352203Y0193465D01*
X0352267Y0193610D01*
X0352335Y0193753D01*
X0352406Y0193895D01*
X0352480Y0194035D01*
X0352558Y0194172D01*
X0352640Y0194308D01*
X0352724Y0194442D01*
X0352813Y0194573D01*
X0352904Y0194702D01*
X0352999Y0194829D01*
X0353096Y0194954D01*
X0353197Y0195076D01*
X0353301Y0195195D01*
X0353408Y0195312D01*
X0353518Y0195426D01*
X0353631Y0195537D01*
X0353746Y0195646D01*
X0353864Y0195751D01*
X0353985Y0195853D01*
X0354108Y0195953D01*
X0354234Y0196049D01*
X0354362Y0196142D01*
X0354492Y0196232D01*
X0354625Y0196318D01*
X0354760Y0196402D01*
X0354896Y0196481D01*
X0355035Y0196558D01*
X0355176Y0196630D01*
X0355318Y0196700D01*
X0355462Y0196765D01*
X0355608Y0196827D01*
X0355755Y0196885D01*
X0355904Y0196940D01*
X0356054Y0196991D01*
X0356205Y0197038D01*
X0356357Y0197081D01*
X0356510Y0197120D01*
X0356665Y0197156D01*
X0356820Y0197187D01*
X0356976Y0197215D01*
X0357132Y0197239D01*
X0357289Y0197259D01*
X0357447Y0197275D01*
X0357604Y0197287D01*
X0357763Y0197295D01*
X0357921Y0197299D01*
X0358079Y0197299D01*
X0358237Y0197295D01*
X0358396Y0197287D01*
X0358553Y0197275D01*
X0358711Y0197259D01*
X0358868Y0197239D01*
X0359024Y0197215D01*
X0359180Y0197187D01*
X0359335Y0197156D01*
X0359490Y0197120D01*
X0359643Y0197081D01*
X0359795Y0197038D01*
X0359946Y0196991D01*
X0360096Y0196940D01*
X0360245Y0196885D01*
X0360392Y0196827D01*
X0360538Y0196765D01*
X0360682Y0196700D01*
X0360824Y0196630D01*
X0360965Y0196558D01*
X0361104Y0196481D01*
X0361240Y0196402D01*
X0361375Y0196318D01*
X0361508Y0196232D01*
X0361638Y0196142D01*
X0361766Y0196049D01*
X0361892Y0195953D01*
X0362015Y0195853D01*
X0362136Y0195751D01*
X0362254Y0195646D01*
X0362369Y0195537D01*
X0362482Y0195426D01*
X0362592Y0195312D01*
X0362699Y0195195D01*
X0362803Y0195076D01*
X0362904Y0194954D01*
X0363001Y0194829D01*
X0363096Y0194702D01*
X0363187Y0194573D01*
X0363276Y0194442D01*
X0363360Y0194308D01*
X0363442Y0194172D01*
X0363520Y0194035D01*
X0363594Y0193895D01*
X0363665Y0193753D01*
X0363733Y0193610D01*
X0363797Y0193465D01*
X0363857Y0193319D01*
X0363913Y0193171D01*
X0363966Y0193022D01*
X0364015Y0192871D01*
X0364060Y0192719D01*
X0364101Y0192566D01*
X0364139Y0192413D01*
X0364172Y0192258D01*
X0364202Y0192102D01*
X0364228Y0191946D01*
X0364249Y0191789D01*
X0364267Y0191632D01*
X0364281Y0191474D01*
X0364291Y0191316D01*
X0364297Y0191158D01*
X0364299Y0191000D01*
X0364297Y0190842D01*
X0364291Y0190684D01*
X0364281Y0190526D01*
X0364267Y0190368D01*
X0364249Y0190211D01*
X0364228Y0190054D01*
X0364202Y0189898D01*
X0364172Y0189742D01*
X0364139Y0189587D01*
X0364101Y0189434D01*
X0364060Y0189281D01*
X0364015Y0189129D01*
X0363966Y0188978D01*
X0363913Y0188829D01*
X0363857Y0188681D01*
X0363797Y0188535D01*
X0363733Y0188390D01*
X0363665Y0188247D01*
X0363594Y0188105D01*
X0363520Y0187965D01*
X0363442Y0187828D01*
X0363360Y0187692D01*
X0363276Y0187558D01*
X0363187Y0187427D01*
X0363096Y0187298D01*
X0363001Y0187171D01*
X0362904Y0187046D01*
X0362803Y0186924D01*
X0362699Y0186805D01*
X0362592Y0186688D01*
X0362482Y0186574D01*
X0362369Y0186463D01*
X0362254Y0186354D01*
X0362136Y0186249D01*
X0362015Y0186147D01*
X0361892Y0186047D01*
X0361766Y0185951D01*
X0361638Y0185858D01*
X0361508Y0185768D01*
X0361375Y0185682D01*
X0361240Y0185598D01*
X0361104Y0185519D01*
X0360965Y0185442D01*
X0360824Y0185370D01*
X0360682Y0185300D01*
X0360538Y0185235D01*
X0360392Y0185173D01*
X0360245Y0185115D01*
X0360096Y0185060D01*
X0359946Y0185009D01*
X0359795Y0184962D01*
X0359643Y0184919D01*
X0359490Y0184880D01*
X0359335Y0184844D01*
X0359180Y0184813D01*
X0359024Y0184785D01*
X0358868Y0184761D01*
X0358711Y0184741D01*
X0358553Y0184725D01*
X0358396Y0184713D01*
X0358237Y0184705D01*
X0358079Y0184701D01*
X0357921Y0184701D01*
X0357763Y0184705D01*
X0357604Y0184713D01*
X0357447Y0184725D01*
X0357289Y0184741D01*
X0357132Y0184761D01*
X0356976Y0184785D01*
X0356820Y0184813D01*
X0356665Y0184844D01*
X0356510Y0184880D01*
X0356357Y0184919D01*
X0356205Y0184962D01*
X0356054Y0185009D01*
X0355904Y0185060D01*
X0355755Y0185115D01*
X0355608Y0185173D01*
X0355462Y0185235D01*
X0355318Y0185300D01*
X0355176Y0185370D01*
X0355035Y0185442D01*
X0354896Y0185519D01*
X0354760Y0185598D01*
X0354625Y0185682D01*
X0354492Y0185768D01*
X0354362Y0185858D01*
X0354234Y0185951D01*
X0354108Y0186047D01*
X0353985Y0186147D01*
X0353864Y0186249D01*
X0353746Y0186354D01*
X0353631Y0186463D01*
X0353518Y0186574D01*
X0353408Y0186688D01*
X0353301Y0186805D01*
X0353197Y0186924D01*
X0353096Y0187046D01*
X0352999Y0187171D01*
X0352904Y0187298D01*
X0352813Y0187427D01*
X0352724Y0187558D01*
X0352640Y0187692D01*
X0352558Y0187828D01*
X0352480Y0187965D01*
X0352406Y0188105D01*
X0352335Y0188247D01*
X0352267Y0188390D01*
X0352203Y0188535D01*
X0352143Y0188681D01*
X0352087Y0188829D01*
X0352034Y0188978D01*
X0351985Y0189129D01*
X0351940Y0189281D01*
X0351899Y0189434D01*
X0351861Y0189587D01*
X0351828Y0189742D01*
X0351798Y0189898D01*
X0351772Y0190054D01*
X0351751Y0190211D01*
X0351733Y0190368D01*
X0351719Y0190526D01*
X0351709Y0190684D01*
X0351703Y0190842D01*
X0351701Y0191000D01*
X0351701Y0241000D02*
X0351703Y0241158D01*
X0351709Y0241316D01*
X0351719Y0241474D01*
X0351733Y0241632D01*
X0351751Y0241789D01*
X0351772Y0241946D01*
X0351798Y0242102D01*
X0351828Y0242258D01*
X0351861Y0242413D01*
X0351899Y0242566D01*
X0351940Y0242719D01*
X0351985Y0242871D01*
X0352034Y0243022D01*
X0352087Y0243171D01*
X0352143Y0243319D01*
X0352203Y0243465D01*
X0352267Y0243610D01*
X0352335Y0243753D01*
X0352406Y0243895D01*
X0352480Y0244035D01*
X0352558Y0244172D01*
X0352640Y0244308D01*
X0352724Y0244442D01*
X0352813Y0244573D01*
X0352904Y0244702D01*
X0352999Y0244829D01*
X0353096Y0244954D01*
X0353197Y0245076D01*
X0353301Y0245195D01*
X0353408Y0245312D01*
X0353518Y0245426D01*
X0353631Y0245537D01*
X0353746Y0245646D01*
X0353864Y0245751D01*
X0353985Y0245853D01*
X0354108Y0245953D01*
X0354234Y0246049D01*
X0354362Y0246142D01*
X0354492Y0246232D01*
X0354625Y0246318D01*
X0354760Y0246402D01*
X0354896Y0246481D01*
X0355035Y0246558D01*
X0355176Y0246630D01*
X0355318Y0246700D01*
X0355462Y0246765D01*
X0355608Y0246827D01*
X0355755Y0246885D01*
X0355904Y0246940D01*
X0356054Y0246991D01*
X0356205Y0247038D01*
X0356357Y0247081D01*
X0356510Y0247120D01*
X0356665Y0247156D01*
X0356820Y0247187D01*
X0356976Y0247215D01*
X0357132Y0247239D01*
X0357289Y0247259D01*
X0357447Y0247275D01*
X0357604Y0247287D01*
X0357763Y0247295D01*
X0357921Y0247299D01*
X0358079Y0247299D01*
X0358237Y0247295D01*
X0358396Y0247287D01*
X0358553Y0247275D01*
X0358711Y0247259D01*
X0358868Y0247239D01*
X0359024Y0247215D01*
X0359180Y0247187D01*
X0359335Y0247156D01*
X0359490Y0247120D01*
X0359643Y0247081D01*
X0359795Y0247038D01*
X0359946Y0246991D01*
X0360096Y0246940D01*
X0360245Y0246885D01*
X0360392Y0246827D01*
X0360538Y0246765D01*
X0360682Y0246700D01*
X0360824Y0246630D01*
X0360965Y0246558D01*
X0361104Y0246481D01*
X0361240Y0246402D01*
X0361375Y0246318D01*
X0361508Y0246232D01*
X0361638Y0246142D01*
X0361766Y0246049D01*
X0361892Y0245953D01*
X0362015Y0245853D01*
X0362136Y0245751D01*
X0362254Y0245646D01*
X0362369Y0245537D01*
X0362482Y0245426D01*
X0362592Y0245312D01*
X0362699Y0245195D01*
X0362803Y0245076D01*
X0362904Y0244954D01*
X0363001Y0244829D01*
X0363096Y0244702D01*
X0363187Y0244573D01*
X0363276Y0244442D01*
X0363360Y0244308D01*
X0363442Y0244172D01*
X0363520Y0244035D01*
X0363594Y0243895D01*
X0363665Y0243753D01*
X0363733Y0243610D01*
X0363797Y0243465D01*
X0363857Y0243319D01*
X0363913Y0243171D01*
X0363966Y0243022D01*
X0364015Y0242871D01*
X0364060Y0242719D01*
X0364101Y0242566D01*
X0364139Y0242413D01*
X0364172Y0242258D01*
X0364202Y0242102D01*
X0364228Y0241946D01*
X0364249Y0241789D01*
X0364267Y0241632D01*
X0364281Y0241474D01*
X0364291Y0241316D01*
X0364297Y0241158D01*
X0364299Y0241000D01*
X0364297Y0240842D01*
X0364291Y0240684D01*
X0364281Y0240526D01*
X0364267Y0240368D01*
X0364249Y0240211D01*
X0364228Y0240054D01*
X0364202Y0239898D01*
X0364172Y0239742D01*
X0364139Y0239587D01*
X0364101Y0239434D01*
X0364060Y0239281D01*
X0364015Y0239129D01*
X0363966Y0238978D01*
X0363913Y0238829D01*
X0363857Y0238681D01*
X0363797Y0238535D01*
X0363733Y0238390D01*
X0363665Y0238247D01*
X0363594Y0238105D01*
X0363520Y0237965D01*
X0363442Y0237828D01*
X0363360Y0237692D01*
X0363276Y0237558D01*
X0363187Y0237427D01*
X0363096Y0237298D01*
X0363001Y0237171D01*
X0362904Y0237046D01*
X0362803Y0236924D01*
X0362699Y0236805D01*
X0362592Y0236688D01*
X0362482Y0236574D01*
X0362369Y0236463D01*
X0362254Y0236354D01*
X0362136Y0236249D01*
X0362015Y0236147D01*
X0361892Y0236047D01*
X0361766Y0235951D01*
X0361638Y0235858D01*
X0361508Y0235768D01*
X0361375Y0235682D01*
X0361240Y0235598D01*
X0361104Y0235519D01*
X0360965Y0235442D01*
X0360824Y0235370D01*
X0360682Y0235300D01*
X0360538Y0235235D01*
X0360392Y0235173D01*
X0360245Y0235115D01*
X0360096Y0235060D01*
X0359946Y0235009D01*
X0359795Y0234962D01*
X0359643Y0234919D01*
X0359490Y0234880D01*
X0359335Y0234844D01*
X0359180Y0234813D01*
X0359024Y0234785D01*
X0358868Y0234761D01*
X0358711Y0234741D01*
X0358553Y0234725D01*
X0358396Y0234713D01*
X0358237Y0234705D01*
X0358079Y0234701D01*
X0357921Y0234701D01*
X0357763Y0234705D01*
X0357604Y0234713D01*
X0357447Y0234725D01*
X0357289Y0234741D01*
X0357132Y0234761D01*
X0356976Y0234785D01*
X0356820Y0234813D01*
X0356665Y0234844D01*
X0356510Y0234880D01*
X0356357Y0234919D01*
X0356205Y0234962D01*
X0356054Y0235009D01*
X0355904Y0235060D01*
X0355755Y0235115D01*
X0355608Y0235173D01*
X0355462Y0235235D01*
X0355318Y0235300D01*
X0355176Y0235370D01*
X0355035Y0235442D01*
X0354896Y0235519D01*
X0354760Y0235598D01*
X0354625Y0235682D01*
X0354492Y0235768D01*
X0354362Y0235858D01*
X0354234Y0235951D01*
X0354108Y0236047D01*
X0353985Y0236147D01*
X0353864Y0236249D01*
X0353746Y0236354D01*
X0353631Y0236463D01*
X0353518Y0236574D01*
X0353408Y0236688D01*
X0353301Y0236805D01*
X0353197Y0236924D01*
X0353096Y0237046D01*
X0352999Y0237171D01*
X0352904Y0237298D01*
X0352813Y0237427D01*
X0352724Y0237558D01*
X0352640Y0237692D01*
X0352558Y0237828D01*
X0352480Y0237965D01*
X0352406Y0238105D01*
X0352335Y0238247D01*
X0352267Y0238390D01*
X0352203Y0238535D01*
X0352143Y0238681D01*
X0352087Y0238829D01*
X0352034Y0238978D01*
X0351985Y0239129D01*
X0351940Y0239281D01*
X0351899Y0239434D01*
X0351861Y0239587D01*
X0351828Y0239742D01*
X0351798Y0239898D01*
X0351772Y0240054D01*
X0351751Y0240211D01*
X0351733Y0240368D01*
X0351719Y0240526D01*
X0351709Y0240684D01*
X0351703Y0240842D01*
X0351701Y0241000D01*
X0351701Y0261000D02*
X0351703Y0261158D01*
X0351709Y0261316D01*
X0351719Y0261474D01*
X0351733Y0261632D01*
X0351751Y0261789D01*
X0351772Y0261946D01*
X0351798Y0262102D01*
X0351828Y0262258D01*
X0351861Y0262413D01*
X0351899Y0262566D01*
X0351940Y0262719D01*
X0351985Y0262871D01*
X0352034Y0263022D01*
X0352087Y0263171D01*
X0352143Y0263319D01*
X0352203Y0263465D01*
X0352267Y0263610D01*
X0352335Y0263753D01*
X0352406Y0263895D01*
X0352480Y0264035D01*
X0352558Y0264172D01*
X0352640Y0264308D01*
X0352724Y0264442D01*
X0352813Y0264573D01*
X0352904Y0264702D01*
X0352999Y0264829D01*
X0353096Y0264954D01*
X0353197Y0265076D01*
X0353301Y0265195D01*
X0353408Y0265312D01*
X0353518Y0265426D01*
X0353631Y0265537D01*
X0353746Y0265646D01*
X0353864Y0265751D01*
X0353985Y0265853D01*
X0354108Y0265953D01*
X0354234Y0266049D01*
X0354362Y0266142D01*
X0354492Y0266232D01*
X0354625Y0266318D01*
X0354760Y0266402D01*
X0354896Y0266481D01*
X0355035Y0266558D01*
X0355176Y0266630D01*
X0355318Y0266700D01*
X0355462Y0266765D01*
X0355608Y0266827D01*
X0355755Y0266885D01*
X0355904Y0266940D01*
X0356054Y0266991D01*
X0356205Y0267038D01*
X0356357Y0267081D01*
X0356510Y0267120D01*
X0356665Y0267156D01*
X0356820Y0267187D01*
X0356976Y0267215D01*
X0357132Y0267239D01*
X0357289Y0267259D01*
X0357447Y0267275D01*
X0357604Y0267287D01*
X0357763Y0267295D01*
X0357921Y0267299D01*
X0358079Y0267299D01*
X0358237Y0267295D01*
X0358396Y0267287D01*
X0358553Y0267275D01*
X0358711Y0267259D01*
X0358868Y0267239D01*
X0359024Y0267215D01*
X0359180Y0267187D01*
X0359335Y0267156D01*
X0359490Y0267120D01*
X0359643Y0267081D01*
X0359795Y0267038D01*
X0359946Y0266991D01*
X0360096Y0266940D01*
X0360245Y0266885D01*
X0360392Y0266827D01*
X0360538Y0266765D01*
X0360682Y0266700D01*
X0360824Y0266630D01*
X0360965Y0266558D01*
X0361104Y0266481D01*
X0361240Y0266402D01*
X0361375Y0266318D01*
X0361508Y0266232D01*
X0361638Y0266142D01*
X0361766Y0266049D01*
X0361892Y0265953D01*
X0362015Y0265853D01*
X0362136Y0265751D01*
X0362254Y0265646D01*
X0362369Y0265537D01*
X0362482Y0265426D01*
X0362592Y0265312D01*
X0362699Y0265195D01*
X0362803Y0265076D01*
X0362904Y0264954D01*
X0363001Y0264829D01*
X0363096Y0264702D01*
X0363187Y0264573D01*
X0363276Y0264442D01*
X0363360Y0264308D01*
X0363442Y0264172D01*
X0363520Y0264035D01*
X0363594Y0263895D01*
X0363665Y0263753D01*
X0363733Y0263610D01*
X0363797Y0263465D01*
X0363857Y0263319D01*
X0363913Y0263171D01*
X0363966Y0263022D01*
X0364015Y0262871D01*
X0364060Y0262719D01*
X0364101Y0262566D01*
X0364139Y0262413D01*
X0364172Y0262258D01*
X0364202Y0262102D01*
X0364228Y0261946D01*
X0364249Y0261789D01*
X0364267Y0261632D01*
X0364281Y0261474D01*
X0364291Y0261316D01*
X0364297Y0261158D01*
X0364299Y0261000D01*
X0364297Y0260842D01*
X0364291Y0260684D01*
X0364281Y0260526D01*
X0364267Y0260368D01*
X0364249Y0260211D01*
X0364228Y0260054D01*
X0364202Y0259898D01*
X0364172Y0259742D01*
X0364139Y0259587D01*
X0364101Y0259434D01*
X0364060Y0259281D01*
X0364015Y0259129D01*
X0363966Y0258978D01*
X0363913Y0258829D01*
X0363857Y0258681D01*
X0363797Y0258535D01*
X0363733Y0258390D01*
X0363665Y0258247D01*
X0363594Y0258105D01*
X0363520Y0257965D01*
X0363442Y0257828D01*
X0363360Y0257692D01*
X0363276Y0257558D01*
X0363187Y0257427D01*
X0363096Y0257298D01*
X0363001Y0257171D01*
X0362904Y0257046D01*
X0362803Y0256924D01*
X0362699Y0256805D01*
X0362592Y0256688D01*
X0362482Y0256574D01*
X0362369Y0256463D01*
X0362254Y0256354D01*
X0362136Y0256249D01*
X0362015Y0256147D01*
X0361892Y0256047D01*
X0361766Y0255951D01*
X0361638Y0255858D01*
X0361508Y0255768D01*
X0361375Y0255682D01*
X0361240Y0255598D01*
X0361104Y0255519D01*
X0360965Y0255442D01*
X0360824Y0255370D01*
X0360682Y0255300D01*
X0360538Y0255235D01*
X0360392Y0255173D01*
X0360245Y0255115D01*
X0360096Y0255060D01*
X0359946Y0255009D01*
X0359795Y0254962D01*
X0359643Y0254919D01*
X0359490Y0254880D01*
X0359335Y0254844D01*
X0359180Y0254813D01*
X0359024Y0254785D01*
X0358868Y0254761D01*
X0358711Y0254741D01*
X0358553Y0254725D01*
X0358396Y0254713D01*
X0358237Y0254705D01*
X0358079Y0254701D01*
X0357921Y0254701D01*
X0357763Y0254705D01*
X0357604Y0254713D01*
X0357447Y0254725D01*
X0357289Y0254741D01*
X0357132Y0254761D01*
X0356976Y0254785D01*
X0356820Y0254813D01*
X0356665Y0254844D01*
X0356510Y0254880D01*
X0356357Y0254919D01*
X0356205Y0254962D01*
X0356054Y0255009D01*
X0355904Y0255060D01*
X0355755Y0255115D01*
X0355608Y0255173D01*
X0355462Y0255235D01*
X0355318Y0255300D01*
X0355176Y0255370D01*
X0355035Y0255442D01*
X0354896Y0255519D01*
X0354760Y0255598D01*
X0354625Y0255682D01*
X0354492Y0255768D01*
X0354362Y0255858D01*
X0354234Y0255951D01*
X0354108Y0256047D01*
X0353985Y0256147D01*
X0353864Y0256249D01*
X0353746Y0256354D01*
X0353631Y0256463D01*
X0353518Y0256574D01*
X0353408Y0256688D01*
X0353301Y0256805D01*
X0353197Y0256924D01*
X0353096Y0257046D01*
X0352999Y0257171D01*
X0352904Y0257298D01*
X0352813Y0257427D01*
X0352724Y0257558D01*
X0352640Y0257692D01*
X0352558Y0257828D01*
X0352480Y0257965D01*
X0352406Y0258105D01*
X0352335Y0258247D01*
X0352267Y0258390D01*
X0352203Y0258535D01*
X0352143Y0258681D01*
X0352087Y0258829D01*
X0352034Y0258978D01*
X0351985Y0259129D01*
X0351940Y0259281D01*
X0351899Y0259434D01*
X0351861Y0259587D01*
X0351828Y0259742D01*
X0351798Y0259898D01*
X0351772Y0260054D01*
X0351751Y0260211D01*
X0351733Y0260368D01*
X0351719Y0260526D01*
X0351709Y0260684D01*
X0351703Y0260842D01*
X0351701Y0261000D01*
X0351701Y0311000D02*
X0351703Y0311158D01*
X0351709Y0311316D01*
X0351719Y0311474D01*
X0351733Y0311632D01*
X0351751Y0311789D01*
X0351772Y0311946D01*
X0351798Y0312102D01*
X0351828Y0312258D01*
X0351861Y0312413D01*
X0351899Y0312566D01*
X0351940Y0312719D01*
X0351985Y0312871D01*
X0352034Y0313022D01*
X0352087Y0313171D01*
X0352143Y0313319D01*
X0352203Y0313465D01*
X0352267Y0313610D01*
X0352335Y0313753D01*
X0352406Y0313895D01*
X0352480Y0314035D01*
X0352558Y0314172D01*
X0352640Y0314308D01*
X0352724Y0314442D01*
X0352813Y0314573D01*
X0352904Y0314702D01*
X0352999Y0314829D01*
X0353096Y0314954D01*
X0353197Y0315076D01*
X0353301Y0315195D01*
X0353408Y0315312D01*
X0353518Y0315426D01*
X0353631Y0315537D01*
X0353746Y0315646D01*
X0353864Y0315751D01*
X0353985Y0315853D01*
X0354108Y0315953D01*
X0354234Y0316049D01*
X0354362Y0316142D01*
X0354492Y0316232D01*
X0354625Y0316318D01*
X0354760Y0316402D01*
X0354896Y0316481D01*
X0355035Y0316558D01*
X0355176Y0316630D01*
X0355318Y0316700D01*
X0355462Y0316765D01*
X0355608Y0316827D01*
X0355755Y0316885D01*
X0355904Y0316940D01*
X0356054Y0316991D01*
X0356205Y0317038D01*
X0356357Y0317081D01*
X0356510Y0317120D01*
X0356665Y0317156D01*
X0356820Y0317187D01*
X0356976Y0317215D01*
X0357132Y0317239D01*
X0357289Y0317259D01*
X0357447Y0317275D01*
X0357604Y0317287D01*
X0357763Y0317295D01*
X0357921Y0317299D01*
X0358079Y0317299D01*
X0358237Y0317295D01*
X0358396Y0317287D01*
X0358553Y0317275D01*
X0358711Y0317259D01*
X0358868Y0317239D01*
X0359024Y0317215D01*
X0359180Y0317187D01*
X0359335Y0317156D01*
X0359490Y0317120D01*
X0359643Y0317081D01*
X0359795Y0317038D01*
X0359946Y0316991D01*
X0360096Y0316940D01*
X0360245Y0316885D01*
X0360392Y0316827D01*
X0360538Y0316765D01*
X0360682Y0316700D01*
X0360824Y0316630D01*
X0360965Y0316558D01*
X0361104Y0316481D01*
X0361240Y0316402D01*
X0361375Y0316318D01*
X0361508Y0316232D01*
X0361638Y0316142D01*
X0361766Y0316049D01*
X0361892Y0315953D01*
X0362015Y0315853D01*
X0362136Y0315751D01*
X0362254Y0315646D01*
X0362369Y0315537D01*
X0362482Y0315426D01*
X0362592Y0315312D01*
X0362699Y0315195D01*
X0362803Y0315076D01*
X0362904Y0314954D01*
X0363001Y0314829D01*
X0363096Y0314702D01*
X0363187Y0314573D01*
X0363276Y0314442D01*
X0363360Y0314308D01*
X0363442Y0314172D01*
X0363520Y0314035D01*
X0363594Y0313895D01*
X0363665Y0313753D01*
X0363733Y0313610D01*
X0363797Y0313465D01*
X0363857Y0313319D01*
X0363913Y0313171D01*
X0363966Y0313022D01*
X0364015Y0312871D01*
X0364060Y0312719D01*
X0364101Y0312566D01*
X0364139Y0312413D01*
X0364172Y0312258D01*
X0364202Y0312102D01*
X0364228Y0311946D01*
X0364249Y0311789D01*
X0364267Y0311632D01*
X0364281Y0311474D01*
X0364291Y0311316D01*
X0364297Y0311158D01*
X0364299Y0311000D01*
X0364297Y0310842D01*
X0364291Y0310684D01*
X0364281Y0310526D01*
X0364267Y0310368D01*
X0364249Y0310211D01*
X0364228Y0310054D01*
X0364202Y0309898D01*
X0364172Y0309742D01*
X0364139Y0309587D01*
X0364101Y0309434D01*
X0364060Y0309281D01*
X0364015Y0309129D01*
X0363966Y0308978D01*
X0363913Y0308829D01*
X0363857Y0308681D01*
X0363797Y0308535D01*
X0363733Y0308390D01*
X0363665Y0308247D01*
X0363594Y0308105D01*
X0363520Y0307965D01*
X0363442Y0307828D01*
X0363360Y0307692D01*
X0363276Y0307558D01*
X0363187Y0307427D01*
X0363096Y0307298D01*
X0363001Y0307171D01*
X0362904Y0307046D01*
X0362803Y0306924D01*
X0362699Y0306805D01*
X0362592Y0306688D01*
X0362482Y0306574D01*
X0362369Y0306463D01*
X0362254Y0306354D01*
X0362136Y0306249D01*
X0362015Y0306147D01*
X0361892Y0306047D01*
X0361766Y0305951D01*
X0361638Y0305858D01*
X0361508Y0305768D01*
X0361375Y0305682D01*
X0361240Y0305598D01*
X0361104Y0305519D01*
X0360965Y0305442D01*
X0360824Y0305370D01*
X0360682Y0305300D01*
X0360538Y0305235D01*
X0360392Y0305173D01*
X0360245Y0305115D01*
X0360096Y0305060D01*
X0359946Y0305009D01*
X0359795Y0304962D01*
X0359643Y0304919D01*
X0359490Y0304880D01*
X0359335Y0304844D01*
X0359180Y0304813D01*
X0359024Y0304785D01*
X0358868Y0304761D01*
X0358711Y0304741D01*
X0358553Y0304725D01*
X0358396Y0304713D01*
X0358237Y0304705D01*
X0358079Y0304701D01*
X0357921Y0304701D01*
X0357763Y0304705D01*
X0357604Y0304713D01*
X0357447Y0304725D01*
X0357289Y0304741D01*
X0357132Y0304761D01*
X0356976Y0304785D01*
X0356820Y0304813D01*
X0356665Y0304844D01*
X0356510Y0304880D01*
X0356357Y0304919D01*
X0356205Y0304962D01*
X0356054Y0305009D01*
X0355904Y0305060D01*
X0355755Y0305115D01*
X0355608Y0305173D01*
X0355462Y0305235D01*
X0355318Y0305300D01*
X0355176Y0305370D01*
X0355035Y0305442D01*
X0354896Y0305519D01*
X0354760Y0305598D01*
X0354625Y0305682D01*
X0354492Y0305768D01*
X0354362Y0305858D01*
X0354234Y0305951D01*
X0354108Y0306047D01*
X0353985Y0306147D01*
X0353864Y0306249D01*
X0353746Y0306354D01*
X0353631Y0306463D01*
X0353518Y0306574D01*
X0353408Y0306688D01*
X0353301Y0306805D01*
X0353197Y0306924D01*
X0353096Y0307046D01*
X0352999Y0307171D01*
X0352904Y0307298D01*
X0352813Y0307427D01*
X0352724Y0307558D01*
X0352640Y0307692D01*
X0352558Y0307828D01*
X0352480Y0307965D01*
X0352406Y0308105D01*
X0352335Y0308247D01*
X0352267Y0308390D01*
X0352203Y0308535D01*
X0352143Y0308681D01*
X0352087Y0308829D01*
X0352034Y0308978D01*
X0351985Y0309129D01*
X0351940Y0309281D01*
X0351899Y0309434D01*
X0351861Y0309587D01*
X0351828Y0309742D01*
X0351798Y0309898D01*
X0351772Y0310054D01*
X0351751Y0310211D01*
X0351733Y0310368D01*
X0351719Y0310526D01*
X0351709Y0310684D01*
X0351703Y0310842D01*
X0351701Y0311000D01*
D11*
X0323000Y0311000D03*
X0323000Y0301000D03*
X0323000Y0291000D03*
X0323000Y0281000D03*
X0323000Y0271000D03*
X0323000Y0261000D03*
X0323000Y0251000D03*
X0323000Y0241000D03*
X0323000Y0231000D03*
X0323000Y0221000D03*
X0323000Y0211000D03*
X0313000Y0211000D03*
X0313000Y0221000D03*
X0313000Y0231000D03*
X0313000Y0241000D03*
X0313000Y0251000D03*
X0313000Y0261000D03*
X0313000Y0271000D03*
X0313000Y0281000D03*
X0313000Y0291000D03*
X0313000Y0301000D03*
X0313000Y0311000D03*
X0313000Y0321000D03*
X0313000Y0331000D03*
X0313000Y0341000D03*
X0313000Y0351000D03*
X0313000Y0361000D03*
X0313000Y0371000D03*
X0313000Y0381000D03*
X0313000Y0391000D03*
X0323000Y0391000D03*
X0323000Y0381000D03*
X0323000Y0371000D03*
X0323000Y0361000D03*
X0323000Y0351000D03*
X0323000Y0341000D03*
X0323000Y0331000D03*
X0323000Y0321000D03*
X0083000Y0321000D03*
X0083000Y0311000D03*
X0083000Y0301000D03*
X0083000Y0291000D03*
X0083000Y0281000D03*
X0083000Y0271000D03*
X0083000Y0261000D03*
X0083000Y0251000D03*
X0083000Y0241000D03*
X0083000Y0231000D03*
X0083000Y0221000D03*
X0083000Y0211000D03*
X0073000Y0211000D03*
X0073000Y0221000D03*
X0073000Y0231000D03*
X0073000Y0241000D03*
X0073000Y0251000D03*
X0073000Y0261000D03*
X0073000Y0271000D03*
X0073000Y0281000D03*
X0073000Y0291000D03*
X0073000Y0301000D03*
X0073000Y0311000D03*
X0073000Y0321000D03*
X0073000Y0331000D03*
X0073000Y0341000D03*
X0073000Y0351000D03*
X0073000Y0361000D03*
X0073000Y0371000D03*
X0073000Y0381000D03*
X0073000Y0391000D03*
X0083000Y0391000D03*
X0083000Y0381000D03*
X0083000Y0371000D03*
X0083000Y0361000D03*
X0083000Y0351000D03*
X0083000Y0341000D03*
X0083000Y0331000D03*
D12*
X0018000Y0406000D03*
X0018000Y0121000D03*
X0381000Y0121000D03*
X0381500Y0406000D03*
D13*
X0359437Y0174898D02*
X0351563Y0174898D01*
X0343295Y0159937D02*
X0343295Y0152063D01*
X0367311Y0152063D02*
X0367311Y0159937D01*
D14*
X0368000Y0202004D03*
X0368000Y0210035D03*
X0375008Y0206020D03*
X0375008Y0214051D03*
X0375008Y0221965D03*
X0368000Y0225980D03*
X0368000Y0217949D03*
X0375008Y0229996D03*
X0368000Y0272004D03*
X0375008Y0276020D03*
X0375008Y0284051D03*
X0368000Y0287949D03*
X0368000Y0280035D03*
X0375008Y0291965D03*
X0368000Y0295980D03*
X0375008Y0299996D03*
D15*
X0358000Y0311000D03*
X0358000Y0261000D03*
X0358000Y0241000D03*
X0358000Y0191000D03*
D16*
X0223000Y0136000D03*
X0128000Y0136000D03*
X0193000Y0410000D03*
D17*
X0183000Y0410000D03*
X0173000Y0410000D03*
X0163000Y0410000D03*
X0163000Y0380000D03*
X0173000Y0380000D03*
X0183000Y0380000D03*
X0193000Y0380000D03*
X0188000Y0166000D03*
X0198000Y0166000D03*
X0208000Y0166000D03*
X0223000Y0166000D03*
X0233000Y0166000D03*
X0243000Y0166000D03*
X0253000Y0166000D03*
X0263000Y0166000D03*
X0273000Y0166000D03*
X0283000Y0166000D03*
X0293000Y0166000D03*
X0303000Y0166000D03*
X0303000Y0136000D03*
X0293000Y0136000D03*
X0283000Y0136000D03*
X0273000Y0136000D03*
X0263000Y0136000D03*
X0253000Y0136000D03*
X0243000Y0136000D03*
X0233000Y0136000D03*
X0208000Y0136000D03*
X0198000Y0136000D03*
X0188000Y0136000D03*
X0178000Y0136000D03*
X0168000Y0136000D03*
X0158000Y0136000D03*
X0148000Y0136000D03*
X0138000Y0136000D03*
X0138000Y0166000D03*
X0128000Y0166000D03*
X0148000Y0166000D03*
X0158000Y0166000D03*
X0168000Y0166000D03*
X0178000Y0166000D03*
D18*
X0180600Y0191000D02*
X0175400Y0191000D01*
X0175400Y0201000D02*
X0180600Y0201000D01*
X0190400Y0201000D02*
X0195600Y0201000D01*
X0195600Y0211000D02*
X0190400Y0211000D01*
X0180600Y0211000D02*
X0175400Y0211000D01*
X0165600Y0211000D02*
X0160400Y0211000D01*
X0160400Y0201000D02*
X0165600Y0201000D01*
X0165600Y0221000D02*
X0160400Y0221000D01*
X0160400Y0231000D02*
X0165600Y0231000D01*
X0165600Y0241000D02*
X0160400Y0241000D01*
X0160400Y0251000D02*
X0165600Y0251000D01*
X0175400Y0251000D02*
X0180600Y0251000D01*
X0190400Y0251000D02*
X0195600Y0251000D01*
X0195600Y0241000D02*
X0190400Y0241000D01*
X0180600Y0241000D02*
X0175400Y0241000D01*
X0190400Y0231000D02*
X0195600Y0231000D01*
X0195600Y0221000D02*
X0190400Y0221000D01*
X0180600Y0221000D02*
X0175400Y0221000D01*
X0145600Y0221000D02*
X0140400Y0221000D01*
X0140400Y0211000D02*
X0145600Y0211000D01*
X0145600Y0201000D02*
X0140400Y0201000D01*
X0140400Y0191000D02*
X0145600Y0191000D01*
X0130600Y0201000D02*
X0125400Y0201000D01*
X0125400Y0211000D02*
X0130600Y0211000D01*
X0130600Y0221000D02*
X0125400Y0221000D01*
X0125400Y0231000D02*
X0130600Y0231000D01*
X0130600Y0241000D02*
X0125400Y0241000D01*
X0125400Y0251000D02*
X0130600Y0251000D01*
X0130600Y0261000D02*
X0125400Y0261000D01*
X0115600Y0261000D02*
X0110400Y0261000D01*
X0100600Y0261000D02*
X0095400Y0261000D01*
X0095400Y0251000D02*
X0100600Y0251000D01*
X0110400Y0251000D02*
X0115600Y0251000D01*
X0115600Y0241000D02*
X0110400Y0241000D01*
X0100600Y0241000D02*
X0095400Y0241000D01*
X0095400Y0231000D02*
X0100600Y0231000D01*
X0100600Y0221000D02*
X0095400Y0221000D01*
X0095400Y0211000D02*
X0100600Y0211000D01*
X0110400Y0211000D02*
X0115600Y0211000D01*
X0115600Y0201000D02*
X0110400Y0201000D01*
X0100600Y0201000D02*
X0095400Y0201000D01*
X0110400Y0191000D02*
X0115600Y0191000D01*
X0115600Y0221000D02*
X0110400Y0221000D01*
X0140400Y0241000D02*
X0145600Y0241000D01*
X0145600Y0251000D02*
X0140400Y0251000D01*
X0140400Y0261000D02*
X0145600Y0261000D01*
X0145600Y0271000D02*
X0140400Y0271000D01*
X0160400Y0261000D02*
X0165600Y0261000D01*
X0175400Y0261000D02*
X0180600Y0261000D01*
X0190400Y0261000D02*
X0195600Y0261000D01*
X0205400Y0261000D02*
X0210600Y0261000D01*
X0210600Y0251000D02*
X0205400Y0251000D01*
X0205400Y0241000D02*
X0210600Y0241000D01*
X0210600Y0221000D02*
X0205400Y0221000D01*
X0205400Y0211000D02*
X0210600Y0211000D01*
X0210600Y0201000D02*
X0205400Y0201000D01*
X0205400Y0191000D02*
X0210600Y0191000D01*
X0228000Y0183600D02*
X0228000Y0178400D01*
X0238000Y0178400D02*
X0238000Y0183600D01*
X0248000Y0183600D02*
X0248000Y0178400D01*
X0258000Y0178400D02*
X0258000Y0183600D01*
X0268000Y0183600D02*
X0268000Y0178400D01*
X0278000Y0178400D02*
X0278000Y0183600D01*
X0288000Y0183600D02*
X0288000Y0178400D01*
X0298000Y0178400D02*
X0298000Y0183600D01*
X0298000Y0208400D02*
X0298000Y0213600D01*
X0298000Y0223400D02*
X0298000Y0228600D01*
X0288000Y0228600D02*
X0288000Y0223400D01*
X0288000Y0213600D02*
X0288000Y0208400D01*
X0278000Y0208400D02*
X0278000Y0213600D01*
X0278000Y0223400D02*
X0278000Y0228600D01*
X0268000Y0228600D02*
X0268000Y0223400D01*
X0268000Y0213600D02*
X0268000Y0208400D01*
X0258000Y0208400D02*
X0258000Y0213600D01*
X0258000Y0223400D02*
X0258000Y0228600D01*
X0248000Y0228600D02*
X0248000Y0223400D01*
X0248000Y0213600D02*
X0248000Y0208400D01*
X0238000Y0208400D02*
X0238000Y0213600D01*
X0238000Y0223400D02*
X0238000Y0228600D01*
X0228000Y0228600D02*
X0228000Y0223400D01*
X0228000Y0213600D02*
X0228000Y0208400D01*
X0228000Y0253400D02*
X0228000Y0258600D01*
X0238000Y0258600D02*
X0238000Y0253400D01*
X0248000Y0253400D02*
X0248000Y0258600D01*
X0258000Y0258600D02*
X0258000Y0253400D01*
X0268000Y0253400D02*
X0268000Y0258600D01*
X0278000Y0258600D02*
X0278000Y0253400D01*
X0288000Y0253400D02*
X0288000Y0258600D01*
X0298000Y0258600D02*
X0298000Y0253400D01*
X0295400Y0296000D02*
X0300600Y0296000D01*
X0300600Y0306000D02*
X0295400Y0306000D01*
X0295400Y0316000D02*
X0300600Y0316000D01*
X0300600Y0326000D02*
X0295400Y0326000D01*
X0295400Y0336000D02*
X0300600Y0336000D01*
X0300600Y0346000D02*
X0295400Y0346000D01*
X0295400Y0356000D02*
X0300600Y0356000D01*
X0300600Y0366000D02*
X0295400Y0366000D01*
X0270600Y0366000D02*
X0265400Y0366000D01*
X0265400Y0356000D02*
X0270600Y0356000D01*
X0270600Y0346000D02*
X0265400Y0346000D01*
X0265400Y0336000D02*
X0270600Y0336000D01*
X0270600Y0326000D02*
X0265400Y0326000D01*
X0265400Y0316000D02*
X0270600Y0316000D01*
X0270600Y0306000D02*
X0265400Y0306000D01*
X0265400Y0296000D02*
X0270600Y0296000D01*
X0255600Y0296000D02*
X0250400Y0296000D01*
X0250400Y0306000D02*
X0255600Y0306000D01*
X0255600Y0316000D02*
X0250400Y0316000D01*
X0250400Y0326000D02*
X0255600Y0326000D01*
X0255600Y0336000D02*
X0250400Y0336000D01*
X0250400Y0346000D02*
X0255600Y0346000D01*
X0255600Y0356000D02*
X0250400Y0356000D01*
X0250400Y0366000D02*
X0255600Y0366000D01*
X0225600Y0366000D02*
X0220400Y0366000D01*
X0220400Y0356000D02*
X0225600Y0356000D01*
X0225600Y0346000D02*
X0220400Y0346000D01*
X0220400Y0336000D02*
X0225600Y0336000D01*
X0225600Y0326000D02*
X0220400Y0326000D01*
X0220400Y0316000D02*
X0225600Y0316000D01*
X0225600Y0306000D02*
X0220400Y0306000D01*
X0220400Y0296000D02*
X0225600Y0296000D01*
X0210600Y0296000D02*
X0205400Y0296000D01*
X0205400Y0286000D02*
X0210600Y0286000D01*
X0210600Y0271000D02*
X0205400Y0271000D01*
X0190600Y0296000D02*
X0185400Y0296000D01*
X0185400Y0306000D02*
X0190600Y0306000D01*
X0190600Y0316000D02*
X0185400Y0316000D01*
X0185400Y0326000D02*
X0190600Y0326000D01*
X0190600Y0336000D02*
X0185400Y0336000D01*
X0185400Y0346000D02*
X0190600Y0346000D01*
X0190600Y0356000D02*
X0185400Y0356000D01*
X0185400Y0366000D02*
X0190600Y0366000D01*
X0205400Y0366000D02*
X0210600Y0366000D01*
X0210600Y0356000D02*
X0205400Y0356000D01*
X0205400Y0346000D02*
X0210600Y0346000D01*
X0210600Y0336000D02*
X0205400Y0336000D01*
X0205400Y0326000D02*
X0210600Y0326000D01*
X0210600Y0316000D02*
X0205400Y0316000D01*
X0205400Y0306000D02*
X0210600Y0306000D01*
X0180600Y0271000D02*
X0175400Y0271000D01*
X0160600Y0296000D02*
X0155400Y0296000D01*
X0145600Y0296000D02*
X0140400Y0296000D01*
X0140400Y0306000D02*
X0145600Y0306000D01*
X0155400Y0306000D02*
X0160600Y0306000D01*
X0160600Y0316000D02*
X0155400Y0316000D01*
X0145600Y0316000D02*
X0140400Y0316000D01*
X0140400Y0326000D02*
X0145600Y0326000D01*
X0155400Y0326000D02*
X0160600Y0326000D01*
X0160600Y0336000D02*
X0155400Y0336000D01*
X0155400Y0346000D02*
X0160600Y0346000D01*
X0160600Y0356000D02*
X0155400Y0356000D01*
X0145600Y0356000D02*
X0140400Y0356000D01*
X0140400Y0346000D02*
X0145600Y0346000D01*
X0145600Y0336000D02*
X0140400Y0336000D01*
X0140400Y0366000D02*
X0145600Y0366000D01*
X0155400Y0366000D02*
X0160600Y0366000D01*
X0115600Y0366000D02*
X0110400Y0366000D01*
X0100600Y0366000D02*
X0095400Y0366000D01*
X0095400Y0356000D02*
X0100600Y0356000D01*
X0110400Y0356000D02*
X0115600Y0356000D01*
X0115600Y0346000D02*
X0110400Y0346000D01*
X0110400Y0336000D02*
X0115600Y0336000D01*
X0115600Y0326000D02*
X0110400Y0326000D01*
X0100600Y0326000D02*
X0095400Y0326000D01*
X0095400Y0316000D02*
X0100600Y0316000D01*
X0110400Y0316000D02*
X0115600Y0316000D01*
X0115600Y0306000D02*
X0110400Y0306000D01*
X0100600Y0306000D02*
X0095400Y0306000D01*
X0095400Y0296000D02*
X0100600Y0296000D01*
X0110400Y0296000D02*
X0115600Y0296000D01*
X0100600Y0286000D02*
X0095400Y0286000D01*
X0110400Y0271000D02*
X0115600Y0271000D01*
X0100600Y0336000D02*
X0095400Y0336000D01*
X0095400Y0346000D02*
X0100600Y0346000D01*
D19*
X0018705Y0343000D02*
X0012705Y0343000D01*
X0011705Y0333000D02*
X0017705Y0333000D01*
X0018705Y0323000D02*
X0012705Y0323000D01*
X0011705Y0313000D02*
X0017705Y0313000D01*
X0018705Y0299000D02*
X0012705Y0299000D01*
X0011705Y0289000D02*
X0017705Y0289000D01*
X0018705Y0279000D02*
X0012705Y0279000D01*
X0011705Y0269000D02*
X0017705Y0269000D01*
X0018705Y0259000D02*
X0012705Y0259000D01*
X0011705Y0249000D02*
X0017705Y0249000D01*
X0018705Y0239000D02*
X0012705Y0239000D01*
X0011705Y0229000D02*
X0017705Y0229000D01*
X0018705Y0214600D02*
X0012705Y0214600D01*
X0011705Y0204600D02*
X0017705Y0204600D01*
X0018705Y0194600D02*
X0012705Y0194600D01*
X0011705Y0184600D02*
X0017705Y0184600D01*
X0018705Y0174600D02*
X0012705Y0174600D01*
X0011705Y0164600D02*
X0017705Y0164600D01*
X0018705Y0154600D02*
X0012705Y0154600D01*
X0011705Y0144600D02*
X0017705Y0144600D01*
X0128000Y0121705D02*
X0128000Y0115705D01*
X0138000Y0114705D02*
X0138000Y0120705D01*
X0148000Y0121705D02*
X0148000Y0115705D01*
X0158000Y0114705D02*
X0158000Y0120705D01*
X0168000Y0121705D02*
X0168000Y0115705D01*
X0178000Y0114705D02*
X0178000Y0120705D01*
X0188000Y0121705D02*
X0188000Y0115705D01*
X0198000Y0114705D02*
X0198000Y0120705D01*
X0223000Y0121705D02*
X0223000Y0115705D01*
X0233000Y0114705D02*
X0233000Y0120705D01*
X0243000Y0121705D02*
X0243000Y0115705D01*
X0253000Y0114705D02*
X0253000Y0120705D01*
X0263000Y0121705D02*
X0263000Y0115705D01*
X0273000Y0114705D02*
X0273000Y0120705D01*
X0283000Y0121705D02*
X0283000Y0115705D01*
X0293000Y0114705D02*
X0293000Y0120705D01*
X0017705Y0353000D02*
X0011705Y0353000D01*
X0012705Y0363000D02*
X0018705Y0363000D01*
X0017705Y0373000D02*
X0011705Y0373000D01*
X0012705Y0383000D02*
X0018705Y0383000D01*
D20*
X0167764Y0387500D03*
X0167764Y0392500D03*
X0167764Y0397500D03*
X0167764Y0402500D03*
X0188236Y0402500D03*
X0188236Y0397500D03*
X0188236Y0392500D03*
X0188236Y0387500D03*
X0359364Y0347900D03*
X0359364Y0342900D03*
X0359364Y0337900D03*
X0359364Y0332900D03*
X0379836Y0332900D03*
X0379836Y0337900D03*
X0379836Y0342900D03*
X0379836Y0347900D03*
D21*
X0358000Y0391000D03*
D22*
X0358000Y0371000D03*
D23*
X0343500Y0356000D03*
X0343500Y0326000D03*
X0333000Y0146000D03*
X0333000Y0116000D03*
D24*
X0334000Y0347988D03*
X0334000Y0359012D03*
X0360200Y0403588D03*
X0360200Y0414612D03*
X0062500Y0416000D03*
X0062500Y0404976D03*
X0062500Y0133000D03*
X0062500Y0121976D03*
D25*
X0388000Y0371000D03*
D26*
X0388000Y0381000D03*
D27*
X0356000Y0125000D03*
X0356000Y0115000D03*
X0346000Y0115000D03*
X0346000Y0125000D03*
X0114500Y0144000D03*
X0114500Y0154000D03*
X0104500Y0154000D03*
X0104500Y0144000D03*
X0094500Y0144000D03*
X0094500Y0154000D03*
X0083000Y0132000D03*
X0083000Y0122000D03*
X0083000Y0112000D03*
X0073000Y0112000D03*
X0073000Y0122000D03*
X0073000Y0132000D03*
X0050000Y0132000D03*
X0050000Y0122000D03*
X0050000Y0112000D03*
X0040000Y0112000D03*
X0040000Y0122000D03*
X0040000Y0132000D03*
X0040000Y0396000D03*
X0040000Y0406000D03*
X0040000Y0416000D03*
X0050000Y0416000D03*
X0050000Y0406000D03*
X0050000Y0396000D03*
D28*
X0072260Y0404500D03*
X0079740Y0404500D03*
X0079740Y0412000D03*
X0072260Y0412000D03*
X0160260Y0271500D03*
X0167740Y0271500D03*
X0115240Y0166000D03*
X0107760Y0166000D03*
X0101240Y0166000D03*
X0093760Y0166000D03*
X0082240Y0166000D03*
X0074760Y0166000D03*
X0074760Y0157500D03*
X0082240Y0157500D03*
D29*
X0083000Y0149240D03*
X0083000Y0141760D03*
X0073000Y0141760D03*
X0073000Y0149240D03*
X0153000Y0263760D03*
X0153000Y0271240D03*
X0223000Y0273260D03*
X0223000Y0280740D03*
X0248000Y0274740D03*
X0248000Y0267260D03*
X0268000Y0267260D03*
X0268000Y0274740D03*
X0278000Y0274740D03*
X0278000Y0267260D03*
X0293000Y0267260D03*
X0293000Y0274740D03*
X0334000Y0370260D03*
X0334000Y0377740D03*
X0334000Y0388260D03*
X0334000Y0395740D03*
X0216500Y0401760D03*
X0216500Y0409240D03*
X0205500Y0409240D03*
X0205500Y0401760D03*
X0204000Y0389740D03*
X0204000Y0382260D03*
X0153000Y0395260D03*
X0153000Y0402740D03*
X0144000Y0402740D03*
X0144000Y0395260D03*
D30*
X0128000Y0383800D02*
X0128000Y0378200D01*
X0118000Y0378200D02*
X0118000Y0383800D01*
X0108000Y0383800D02*
X0108000Y0378200D01*
X0098000Y0378200D02*
X0098000Y0383800D01*
X0228000Y0383800D02*
X0228000Y0378200D01*
X0238000Y0378200D02*
X0238000Y0383800D01*
X0248000Y0383800D02*
X0248000Y0378200D01*
X0258000Y0378200D02*
X0258000Y0383800D01*
X0268000Y0383800D02*
X0268000Y0378200D01*
X0278000Y0378200D02*
X0278000Y0383800D01*
X0288000Y0383800D02*
X0288000Y0378200D01*
X0298000Y0378200D02*
X0298000Y0383800D01*
D31*
X0355000Y0355200D03*
X0365000Y0355200D03*
X0375000Y0355200D03*
X0385000Y0355200D03*
X0385000Y0325200D03*
X0375000Y0325200D03*
X0365000Y0325200D03*
X0355000Y0325200D03*
D32*
X0050000Y0328000D03*
X0050000Y0338000D03*
X0050000Y0348000D03*
X0050000Y0358000D03*
X0050000Y0368000D03*
X0040000Y0368000D03*
X0040000Y0358000D03*
X0040000Y0348000D03*
X0040000Y0338000D03*
X0040000Y0328000D03*
X0040000Y0284000D03*
X0040000Y0274000D03*
X0040000Y0264000D03*
X0040000Y0254000D03*
X0040000Y0244000D03*
X0050000Y0244000D03*
X0050000Y0254000D03*
X0050000Y0264000D03*
X0050000Y0274000D03*
X0050000Y0284000D03*
X0050000Y0200000D03*
X0050000Y0190000D03*
X0050000Y0180000D03*
X0050000Y0170000D03*
X0050000Y0160000D03*
X0040000Y0160000D03*
X0040000Y0170000D03*
X0040000Y0180000D03*
X0040000Y0190000D03*
X0040000Y0200000D03*
D33*
X0124260Y0153669D03*
X0131740Y0153669D03*
X0128000Y0162331D03*
X0144260Y0153669D03*
X0151740Y0153669D03*
X0148000Y0162331D03*
X0164260Y0153669D03*
X0171740Y0153669D03*
X0168000Y0162331D03*
X0184260Y0153669D03*
X0191740Y0153669D03*
X0188000Y0162331D03*
X0219260Y0153669D03*
X0226740Y0153669D03*
X0223000Y0162331D03*
X0239260Y0153669D03*
X0246740Y0153669D03*
X0243000Y0162331D03*
X0259260Y0153669D03*
X0266740Y0153669D03*
X0263000Y0162331D03*
X0279260Y0153669D03*
X0286740Y0153669D03*
X0283000Y0162331D03*
D34*
X0283000Y0146346D03*
X0283000Y0139654D03*
X0263000Y0139654D03*
X0263000Y0146346D03*
X0243000Y0146346D03*
X0243000Y0139654D03*
X0223000Y0139654D03*
X0223000Y0146346D03*
X0188000Y0146346D03*
X0188000Y0139654D03*
X0168000Y0139654D03*
X0168000Y0146346D03*
X0148000Y0146346D03*
X0148000Y0139654D03*
X0128000Y0139654D03*
X0128000Y0146346D03*
D35*
X0318000Y0133677D03*
X0318000Y0118323D03*
D36*
X0293000Y0197500D03*
X0149000Y0386000D03*
D37*
X0149000Y0381000D03*
X0293000Y0192500D03*
D38*
X0293000Y0191550D02*
X0292108Y0191631D01*
X0291245Y0191872D01*
X0290439Y0192264D01*
X0289718Y0192795D01*
X0289104Y0193447D01*
X0288617Y0194200D01*
X0288274Y0195027D01*
X0288086Y0195903D01*
X0288059Y0196799D01*
X0288194Y0197685D01*
X0288486Y0198531D01*
X0288926Y0199312D01*
X0289500Y0200000D01*
X0291000Y0198500D01*
X0290621Y0198029D01*
X0290350Y0197488D01*
X0290200Y0196903D01*
X0290179Y0196298D01*
X0290286Y0195703D01*
X0290518Y0195144D01*
X0290862Y0194648D01*
X0291305Y0194236D01*
X0291825Y0193927D01*
X0292399Y0193736D01*
X0293000Y0193672D01*
X0293601Y0193736D01*
X0294175Y0193927D01*
X0294695Y0194236D01*
X0295138Y0194648D01*
X0295482Y0195144D01*
X0295714Y0195703D01*
X0295821Y0196298D01*
X0295800Y0196903D01*
X0295650Y0197488D01*
X0295379Y0198029D01*
X0295000Y0198500D01*
X0296500Y0200000D01*
X0297074Y0199312D01*
X0297514Y0198531D01*
X0297806Y0197685D01*
X0297941Y0196799D01*
X0297914Y0195903D01*
X0297726Y0195027D01*
X0297383Y0194200D01*
X0296896Y0193447D01*
X0296282Y0192795D01*
X0295561Y0192264D01*
X0294755Y0191872D01*
X0293892Y0191631D01*
X0293000Y0191550D01*
X0291704Y0191744D02*
X0294296Y0191744D01*
X0295516Y0192242D02*
X0290484Y0192242D01*
X0289791Y0192741D02*
X0296209Y0192741D01*
X0296701Y0193239D02*
X0289299Y0193239D01*
X0288916Y0193738D02*
X0292393Y0193738D01*
X0292604Y0194850D02*
X0292230Y0194988D01*
X0291898Y0195210D01*
X0291627Y0195502D01*
X0291432Y0195851D01*
X0291324Y0196235D01*
X0291308Y0196633D01*
X0291386Y0197024D01*
X0291553Y0197387D01*
X0291800Y0197700D01*
X0292000Y0197700D01*
X0294000Y0197700D01*
X0294200Y0197700D01*
X0294447Y0197387D01*
X0294614Y0197024D01*
X0294692Y0196633D01*
X0294676Y0196235D01*
X0294568Y0195851D01*
X0294373Y0195502D01*
X0294102Y0195210D01*
X0293770Y0194988D01*
X0293396Y0194850D01*
X0293000Y0194803D01*
X0292604Y0194850D01*
X0291876Y0195234D02*
X0294124Y0195234D01*
X0294502Y0195732D02*
X0291499Y0195732D01*
X0291325Y0196231D02*
X0294675Y0196231D01*
X0294673Y0196729D02*
X0291327Y0196729D01*
X0291480Y0197228D02*
X0294520Y0197228D01*
X0295531Y0197726D02*
X0297792Y0197726D01*
X0297875Y0197228D02*
X0295717Y0197228D01*
X0295806Y0196729D02*
X0297939Y0196729D01*
X0297924Y0196231D02*
X0295809Y0196231D01*
X0295719Y0195732D02*
X0297877Y0195732D01*
X0297770Y0195234D02*
X0295519Y0195234D01*
X0295198Y0194735D02*
X0297605Y0194735D01*
X0297398Y0194237D02*
X0294696Y0194237D01*
X0293607Y0193738D02*
X0297084Y0193738D01*
X0297620Y0198225D02*
X0295222Y0198225D01*
X0295223Y0198723D02*
X0297406Y0198723D01*
X0297124Y0199222D02*
X0295722Y0199222D01*
X0296220Y0199720D02*
X0296733Y0199720D01*
X0290777Y0198723D02*
X0288594Y0198723D01*
X0288380Y0198225D02*
X0290778Y0198225D01*
X0290469Y0197726D02*
X0288208Y0197726D01*
X0288125Y0197228D02*
X0290283Y0197228D01*
X0290194Y0196729D02*
X0288061Y0196729D01*
X0288076Y0196231D02*
X0290191Y0196231D01*
X0290281Y0195732D02*
X0288123Y0195732D01*
X0288230Y0195234D02*
X0290481Y0195234D01*
X0290802Y0194735D02*
X0288395Y0194735D01*
X0288602Y0194237D02*
X0291304Y0194237D01*
X0290278Y0199222D02*
X0288876Y0199222D01*
X0289267Y0199720D02*
X0289780Y0199720D01*
X0152282Y0381295D02*
X0151561Y0380764D01*
X0150755Y0380372D01*
X0149892Y0380131D01*
X0149000Y0380050D01*
X0148108Y0380131D01*
X0147245Y0380372D01*
X0146439Y0380764D01*
X0145718Y0381295D01*
X0145104Y0381947D01*
X0144617Y0382700D01*
X0144274Y0383527D01*
X0144086Y0384403D01*
X0144059Y0385299D01*
X0144194Y0386185D01*
X0144486Y0387031D01*
X0144926Y0387812D01*
X0145500Y0388500D01*
X0147000Y0387000D01*
X0146621Y0386529D01*
X0146350Y0385988D01*
X0146200Y0385403D01*
X0146179Y0384798D01*
X0146286Y0384203D01*
X0146518Y0383644D01*
X0146862Y0383148D01*
X0147305Y0382736D01*
X0147825Y0382427D01*
X0148399Y0382236D01*
X0149000Y0382172D01*
X0149601Y0382236D01*
X0150175Y0382427D01*
X0150695Y0382736D01*
X0151138Y0383148D01*
X0151482Y0383644D01*
X0151714Y0384203D01*
X0151821Y0384798D01*
X0151800Y0385403D01*
X0151650Y0385988D01*
X0151379Y0386529D01*
X0151000Y0387000D01*
X0152500Y0388500D01*
X0153074Y0387812D01*
X0153514Y0387031D01*
X0153806Y0386185D01*
X0153941Y0385299D01*
X0153914Y0384403D01*
X0153726Y0383527D01*
X0153383Y0382700D01*
X0152896Y0381947D01*
X0152282Y0381295D01*
X0152124Y0381178D02*
X0145876Y0381178D01*
X0145358Y0381677D02*
X0152642Y0381677D01*
X0153044Y0382175D02*
X0149034Y0382175D01*
X0148966Y0382175D02*
X0144956Y0382175D01*
X0144634Y0382674D02*
X0147409Y0382674D01*
X0146845Y0383172D02*
X0144421Y0383172D01*
X0144244Y0383671D02*
X0146507Y0383671D01*
X0146300Y0384169D02*
X0144137Y0384169D01*
X0144078Y0384668D02*
X0146202Y0384668D01*
X0146192Y0385166D02*
X0144063Y0385166D01*
X0144115Y0385665D02*
X0146267Y0385665D01*
X0146437Y0386163D02*
X0144191Y0386163D01*
X0144359Y0386662D02*
X0146728Y0386662D01*
X0146840Y0387160D02*
X0144559Y0387160D01*
X0144840Y0387659D02*
X0146341Y0387659D01*
X0145843Y0388157D02*
X0145214Y0388157D01*
X0147771Y0386163D02*
X0150229Y0386163D01*
X0150200Y0386200D02*
X0150447Y0385887D01*
X0150614Y0385524D01*
X0150692Y0385133D01*
X0150676Y0384735D01*
X0150568Y0384351D01*
X0150373Y0384002D01*
X0150102Y0383710D01*
X0149770Y0383488D01*
X0149396Y0383350D01*
X0149000Y0383303D01*
X0148604Y0383350D01*
X0148230Y0383488D01*
X0147898Y0383710D01*
X0147627Y0384002D01*
X0147432Y0384351D01*
X0147324Y0384735D01*
X0147308Y0385133D01*
X0147386Y0385524D01*
X0147553Y0385887D01*
X0147800Y0386200D01*
X0148000Y0386200D01*
X0150000Y0386200D01*
X0150200Y0386200D01*
X0150549Y0385665D02*
X0147451Y0385665D01*
X0147315Y0385166D02*
X0150685Y0385166D01*
X0150657Y0384668D02*
X0147343Y0384668D01*
X0147534Y0384169D02*
X0150466Y0384169D01*
X0150044Y0383671D02*
X0147956Y0383671D01*
X0150591Y0382674D02*
X0153366Y0382674D01*
X0153579Y0383172D02*
X0151155Y0383172D01*
X0151493Y0383671D02*
X0153756Y0383671D01*
X0153863Y0384169D02*
X0151700Y0384169D01*
X0151798Y0384668D02*
X0153922Y0384668D01*
X0153937Y0385166D02*
X0151808Y0385166D01*
X0151733Y0385665D02*
X0153885Y0385665D01*
X0153809Y0386163D02*
X0151563Y0386163D01*
X0151272Y0386662D02*
X0153641Y0386662D01*
X0153441Y0387160D02*
X0151160Y0387160D01*
X0151659Y0387659D02*
X0153160Y0387659D01*
X0152786Y0388157D02*
X0152157Y0388157D01*
X0151387Y0380680D02*
X0146613Y0380680D01*
X0147929Y0380181D02*
X0150071Y0380181D01*
D39*
X0139346Y0366000D03*
X0132654Y0366000D03*
X0128346Y0366000D03*
X0128346Y0356000D03*
X0132654Y0356000D03*
X0139346Y0356000D03*
X0139346Y0346000D03*
X0132654Y0346000D03*
X0128346Y0346000D03*
X0128346Y0336000D03*
X0132654Y0336000D03*
X0139346Y0336000D03*
X0139346Y0326000D03*
X0132654Y0326000D03*
X0128346Y0326000D03*
X0128346Y0316000D03*
X0132654Y0316000D03*
X0139346Y0316000D03*
X0139346Y0306000D03*
X0132654Y0306000D03*
X0128346Y0306000D03*
X0128346Y0296000D03*
X0132654Y0296000D03*
X0139346Y0296000D03*
X0238346Y0296000D03*
X0242654Y0296000D03*
X0249346Y0296000D03*
X0249346Y0306000D03*
X0242654Y0306000D03*
X0238346Y0306000D03*
X0238346Y0316000D03*
X0242654Y0316000D03*
X0249346Y0316000D03*
X0249346Y0326000D03*
X0242654Y0326000D03*
X0238346Y0326000D03*
X0238346Y0336000D03*
X0242654Y0336000D03*
X0242654Y0346000D03*
X0238346Y0346000D03*
X0238346Y0356000D03*
X0242654Y0356000D03*
X0249346Y0356000D03*
X0249346Y0346000D03*
X0249346Y0336000D03*
X0249346Y0366000D03*
X0242654Y0366000D03*
X0238346Y0366000D03*
D40*
X0231752Y0366000D03*
X0231752Y0356000D03*
X0231752Y0346000D03*
X0231752Y0336000D03*
X0231752Y0326000D03*
X0231752Y0316000D03*
X0231752Y0306000D03*
X0231752Y0296000D03*
X0121752Y0296000D03*
X0121752Y0306000D03*
X0121752Y0316000D03*
X0121752Y0326000D03*
X0121752Y0336000D03*
X0121752Y0346000D03*
X0121752Y0356000D03*
X0121752Y0366000D03*
D41*
X0110512Y0230000D03*
X0099488Y0230000D03*
X0136488Y0230000D03*
X0147512Y0230000D03*
D42*
X0096800Y0120500D03*
D43*
X0111980Y0120500D03*
D44*
X0334000Y0119961D03*
X0334000Y0140039D03*
X0344000Y0330961D03*
X0344000Y0351039D03*
M02*
