G75*
%MOIN*%
%OFA0B0*%
%FSLAX25Y25*%
%IPPOS*%
%LPD*%
%AMOC8*
5,1,8,0,0,1.08239X$1,22.5*
%
%ADD10C,0.00000*%
D10*
X0003000Y0106000D02*
X0003000Y0420961D01*
X0396701Y0420961D01*
X0396701Y0106000D01*
X0003000Y0106000D01*
X0341327Y0149504D02*
X0341327Y0162496D01*
X0345264Y0162496D01*
X0345264Y0149504D01*
X0341327Y0149504D01*
X0349988Y0172929D02*
X0361012Y0172929D01*
X0361012Y0176866D01*
X0349988Y0176866D01*
X0349988Y0172929D01*
X0351701Y0191000D02*
X0351703Y0191158D01*
X0351709Y0191316D01*
X0351719Y0191474D01*
X0351733Y0191632D01*
X0351751Y0191789D01*
X0351772Y0191946D01*
X0351798Y0192102D01*
X0351828Y0192258D01*
X0351861Y0192413D01*
X0351899Y0192566D01*
X0351940Y0192719D01*
X0351985Y0192871D01*
X0352034Y0193022D01*
X0352087Y0193171D01*
X0352143Y0193319D01*
X0352203Y0193465D01*
X0352267Y0193610D01*
X0352335Y0193753D01*
X0352406Y0193895D01*
X0352480Y0194035D01*
X0352558Y0194172D01*
X0352640Y0194308D01*
X0352724Y0194442D01*
X0352813Y0194573D01*
X0352904Y0194702D01*
X0352999Y0194829D01*
X0353096Y0194954D01*
X0353197Y0195076D01*
X0353301Y0195195D01*
X0353408Y0195312D01*
X0353518Y0195426D01*
X0353631Y0195537D01*
X0353746Y0195646D01*
X0353864Y0195751D01*
X0353985Y0195853D01*
X0354108Y0195953D01*
X0354234Y0196049D01*
X0354362Y0196142D01*
X0354492Y0196232D01*
X0354625Y0196318D01*
X0354760Y0196402D01*
X0354896Y0196481D01*
X0355035Y0196558D01*
X0355176Y0196630D01*
X0355318Y0196700D01*
X0355462Y0196765D01*
X0355608Y0196827D01*
X0355755Y0196885D01*
X0355904Y0196940D01*
X0356054Y0196991D01*
X0356205Y0197038D01*
X0356357Y0197081D01*
X0356510Y0197120D01*
X0356665Y0197156D01*
X0356820Y0197187D01*
X0356976Y0197215D01*
X0357132Y0197239D01*
X0357289Y0197259D01*
X0357447Y0197275D01*
X0357604Y0197287D01*
X0357763Y0197295D01*
X0357921Y0197299D01*
X0358079Y0197299D01*
X0358237Y0197295D01*
X0358396Y0197287D01*
X0358553Y0197275D01*
X0358711Y0197259D01*
X0358868Y0197239D01*
X0359024Y0197215D01*
X0359180Y0197187D01*
X0359335Y0197156D01*
X0359490Y0197120D01*
X0359643Y0197081D01*
X0359795Y0197038D01*
X0359946Y0196991D01*
X0360096Y0196940D01*
X0360245Y0196885D01*
X0360392Y0196827D01*
X0360538Y0196765D01*
X0360682Y0196700D01*
X0360824Y0196630D01*
X0360965Y0196558D01*
X0361104Y0196481D01*
X0361240Y0196402D01*
X0361375Y0196318D01*
X0361508Y0196232D01*
X0361638Y0196142D01*
X0361766Y0196049D01*
X0361892Y0195953D01*
X0362015Y0195853D01*
X0362136Y0195751D01*
X0362254Y0195646D01*
X0362369Y0195537D01*
X0362482Y0195426D01*
X0362592Y0195312D01*
X0362699Y0195195D01*
X0362803Y0195076D01*
X0362904Y0194954D01*
X0363001Y0194829D01*
X0363096Y0194702D01*
X0363187Y0194573D01*
X0363276Y0194442D01*
X0363360Y0194308D01*
X0363442Y0194172D01*
X0363520Y0194035D01*
X0363594Y0193895D01*
X0363665Y0193753D01*
X0363733Y0193610D01*
X0363797Y0193465D01*
X0363857Y0193319D01*
X0363913Y0193171D01*
X0363966Y0193022D01*
X0364015Y0192871D01*
X0364060Y0192719D01*
X0364101Y0192566D01*
X0364139Y0192413D01*
X0364172Y0192258D01*
X0364202Y0192102D01*
X0364228Y0191946D01*
X0364249Y0191789D01*
X0364267Y0191632D01*
X0364281Y0191474D01*
X0364291Y0191316D01*
X0364297Y0191158D01*
X0364299Y0191000D01*
X0364297Y0190842D01*
X0364291Y0190684D01*
X0364281Y0190526D01*
X0364267Y0190368D01*
X0364249Y0190211D01*
X0364228Y0190054D01*
X0364202Y0189898D01*
X0364172Y0189742D01*
X0364139Y0189587D01*
X0364101Y0189434D01*
X0364060Y0189281D01*
X0364015Y0189129D01*
X0363966Y0188978D01*
X0363913Y0188829D01*
X0363857Y0188681D01*
X0363797Y0188535D01*
X0363733Y0188390D01*
X0363665Y0188247D01*
X0363594Y0188105D01*
X0363520Y0187965D01*
X0363442Y0187828D01*
X0363360Y0187692D01*
X0363276Y0187558D01*
X0363187Y0187427D01*
X0363096Y0187298D01*
X0363001Y0187171D01*
X0362904Y0187046D01*
X0362803Y0186924D01*
X0362699Y0186805D01*
X0362592Y0186688D01*
X0362482Y0186574D01*
X0362369Y0186463D01*
X0362254Y0186354D01*
X0362136Y0186249D01*
X0362015Y0186147D01*
X0361892Y0186047D01*
X0361766Y0185951D01*
X0361638Y0185858D01*
X0361508Y0185768D01*
X0361375Y0185682D01*
X0361240Y0185598D01*
X0361104Y0185519D01*
X0360965Y0185442D01*
X0360824Y0185370D01*
X0360682Y0185300D01*
X0360538Y0185235D01*
X0360392Y0185173D01*
X0360245Y0185115D01*
X0360096Y0185060D01*
X0359946Y0185009D01*
X0359795Y0184962D01*
X0359643Y0184919D01*
X0359490Y0184880D01*
X0359335Y0184844D01*
X0359180Y0184813D01*
X0359024Y0184785D01*
X0358868Y0184761D01*
X0358711Y0184741D01*
X0358553Y0184725D01*
X0358396Y0184713D01*
X0358237Y0184705D01*
X0358079Y0184701D01*
X0357921Y0184701D01*
X0357763Y0184705D01*
X0357604Y0184713D01*
X0357447Y0184725D01*
X0357289Y0184741D01*
X0357132Y0184761D01*
X0356976Y0184785D01*
X0356820Y0184813D01*
X0356665Y0184844D01*
X0356510Y0184880D01*
X0356357Y0184919D01*
X0356205Y0184962D01*
X0356054Y0185009D01*
X0355904Y0185060D01*
X0355755Y0185115D01*
X0355608Y0185173D01*
X0355462Y0185235D01*
X0355318Y0185300D01*
X0355176Y0185370D01*
X0355035Y0185442D01*
X0354896Y0185519D01*
X0354760Y0185598D01*
X0354625Y0185682D01*
X0354492Y0185768D01*
X0354362Y0185858D01*
X0354234Y0185951D01*
X0354108Y0186047D01*
X0353985Y0186147D01*
X0353864Y0186249D01*
X0353746Y0186354D01*
X0353631Y0186463D01*
X0353518Y0186574D01*
X0353408Y0186688D01*
X0353301Y0186805D01*
X0353197Y0186924D01*
X0353096Y0187046D01*
X0352999Y0187171D01*
X0352904Y0187298D01*
X0352813Y0187427D01*
X0352724Y0187558D01*
X0352640Y0187692D01*
X0352558Y0187828D01*
X0352480Y0187965D01*
X0352406Y0188105D01*
X0352335Y0188247D01*
X0352267Y0188390D01*
X0352203Y0188535D01*
X0352143Y0188681D01*
X0352087Y0188829D01*
X0352034Y0188978D01*
X0351985Y0189129D01*
X0351940Y0189281D01*
X0351899Y0189434D01*
X0351861Y0189587D01*
X0351828Y0189742D01*
X0351798Y0189898D01*
X0351772Y0190054D01*
X0351751Y0190211D01*
X0351733Y0190368D01*
X0351719Y0190526D01*
X0351709Y0190684D01*
X0351703Y0190842D01*
X0351701Y0191000D01*
X0365343Y0161512D02*
X0369280Y0161512D01*
X0369280Y0150488D01*
X0365343Y0150488D01*
X0365343Y0161512D01*
X0351701Y0241000D02*
X0351703Y0241158D01*
X0351709Y0241316D01*
X0351719Y0241474D01*
X0351733Y0241632D01*
X0351751Y0241789D01*
X0351772Y0241946D01*
X0351798Y0242102D01*
X0351828Y0242258D01*
X0351861Y0242413D01*
X0351899Y0242566D01*
X0351940Y0242719D01*
X0351985Y0242871D01*
X0352034Y0243022D01*
X0352087Y0243171D01*
X0352143Y0243319D01*
X0352203Y0243465D01*
X0352267Y0243610D01*
X0352335Y0243753D01*
X0352406Y0243895D01*
X0352480Y0244035D01*
X0352558Y0244172D01*
X0352640Y0244308D01*
X0352724Y0244442D01*
X0352813Y0244573D01*
X0352904Y0244702D01*
X0352999Y0244829D01*
X0353096Y0244954D01*
X0353197Y0245076D01*
X0353301Y0245195D01*
X0353408Y0245312D01*
X0353518Y0245426D01*
X0353631Y0245537D01*
X0353746Y0245646D01*
X0353864Y0245751D01*
X0353985Y0245853D01*
X0354108Y0245953D01*
X0354234Y0246049D01*
X0354362Y0246142D01*
X0354492Y0246232D01*
X0354625Y0246318D01*
X0354760Y0246402D01*
X0354896Y0246481D01*
X0355035Y0246558D01*
X0355176Y0246630D01*
X0355318Y0246700D01*
X0355462Y0246765D01*
X0355608Y0246827D01*
X0355755Y0246885D01*
X0355904Y0246940D01*
X0356054Y0246991D01*
X0356205Y0247038D01*
X0356357Y0247081D01*
X0356510Y0247120D01*
X0356665Y0247156D01*
X0356820Y0247187D01*
X0356976Y0247215D01*
X0357132Y0247239D01*
X0357289Y0247259D01*
X0357447Y0247275D01*
X0357604Y0247287D01*
X0357763Y0247295D01*
X0357921Y0247299D01*
X0358079Y0247299D01*
X0358237Y0247295D01*
X0358396Y0247287D01*
X0358553Y0247275D01*
X0358711Y0247259D01*
X0358868Y0247239D01*
X0359024Y0247215D01*
X0359180Y0247187D01*
X0359335Y0247156D01*
X0359490Y0247120D01*
X0359643Y0247081D01*
X0359795Y0247038D01*
X0359946Y0246991D01*
X0360096Y0246940D01*
X0360245Y0246885D01*
X0360392Y0246827D01*
X0360538Y0246765D01*
X0360682Y0246700D01*
X0360824Y0246630D01*
X0360965Y0246558D01*
X0361104Y0246481D01*
X0361240Y0246402D01*
X0361375Y0246318D01*
X0361508Y0246232D01*
X0361638Y0246142D01*
X0361766Y0246049D01*
X0361892Y0245953D01*
X0362015Y0245853D01*
X0362136Y0245751D01*
X0362254Y0245646D01*
X0362369Y0245537D01*
X0362482Y0245426D01*
X0362592Y0245312D01*
X0362699Y0245195D01*
X0362803Y0245076D01*
X0362904Y0244954D01*
X0363001Y0244829D01*
X0363096Y0244702D01*
X0363187Y0244573D01*
X0363276Y0244442D01*
X0363360Y0244308D01*
X0363442Y0244172D01*
X0363520Y0244035D01*
X0363594Y0243895D01*
X0363665Y0243753D01*
X0363733Y0243610D01*
X0363797Y0243465D01*
X0363857Y0243319D01*
X0363913Y0243171D01*
X0363966Y0243022D01*
X0364015Y0242871D01*
X0364060Y0242719D01*
X0364101Y0242566D01*
X0364139Y0242413D01*
X0364172Y0242258D01*
X0364202Y0242102D01*
X0364228Y0241946D01*
X0364249Y0241789D01*
X0364267Y0241632D01*
X0364281Y0241474D01*
X0364291Y0241316D01*
X0364297Y0241158D01*
X0364299Y0241000D01*
X0364297Y0240842D01*
X0364291Y0240684D01*
X0364281Y0240526D01*
X0364267Y0240368D01*
X0364249Y0240211D01*
X0364228Y0240054D01*
X0364202Y0239898D01*
X0364172Y0239742D01*
X0364139Y0239587D01*
X0364101Y0239434D01*
X0364060Y0239281D01*
X0364015Y0239129D01*
X0363966Y0238978D01*
X0363913Y0238829D01*
X0363857Y0238681D01*
X0363797Y0238535D01*
X0363733Y0238390D01*
X0363665Y0238247D01*
X0363594Y0238105D01*
X0363520Y0237965D01*
X0363442Y0237828D01*
X0363360Y0237692D01*
X0363276Y0237558D01*
X0363187Y0237427D01*
X0363096Y0237298D01*
X0363001Y0237171D01*
X0362904Y0237046D01*
X0362803Y0236924D01*
X0362699Y0236805D01*
X0362592Y0236688D01*
X0362482Y0236574D01*
X0362369Y0236463D01*
X0362254Y0236354D01*
X0362136Y0236249D01*
X0362015Y0236147D01*
X0361892Y0236047D01*
X0361766Y0235951D01*
X0361638Y0235858D01*
X0361508Y0235768D01*
X0361375Y0235682D01*
X0361240Y0235598D01*
X0361104Y0235519D01*
X0360965Y0235442D01*
X0360824Y0235370D01*
X0360682Y0235300D01*
X0360538Y0235235D01*
X0360392Y0235173D01*
X0360245Y0235115D01*
X0360096Y0235060D01*
X0359946Y0235009D01*
X0359795Y0234962D01*
X0359643Y0234919D01*
X0359490Y0234880D01*
X0359335Y0234844D01*
X0359180Y0234813D01*
X0359024Y0234785D01*
X0358868Y0234761D01*
X0358711Y0234741D01*
X0358553Y0234725D01*
X0358396Y0234713D01*
X0358237Y0234705D01*
X0358079Y0234701D01*
X0357921Y0234701D01*
X0357763Y0234705D01*
X0357604Y0234713D01*
X0357447Y0234725D01*
X0357289Y0234741D01*
X0357132Y0234761D01*
X0356976Y0234785D01*
X0356820Y0234813D01*
X0356665Y0234844D01*
X0356510Y0234880D01*
X0356357Y0234919D01*
X0356205Y0234962D01*
X0356054Y0235009D01*
X0355904Y0235060D01*
X0355755Y0235115D01*
X0355608Y0235173D01*
X0355462Y0235235D01*
X0355318Y0235300D01*
X0355176Y0235370D01*
X0355035Y0235442D01*
X0354896Y0235519D01*
X0354760Y0235598D01*
X0354625Y0235682D01*
X0354492Y0235768D01*
X0354362Y0235858D01*
X0354234Y0235951D01*
X0354108Y0236047D01*
X0353985Y0236147D01*
X0353864Y0236249D01*
X0353746Y0236354D01*
X0353631Y0236463D01*
X0353518Y0236574D01*
X0353408Y0236688D01*
X0353301Y0236805D01*
X0353197Y0236924D01*
X0353096Y0237046D01*
X0352999Y0237171D01*
X0352904Y0237298D01*
X0352813Y0237427D01*
X0352724Y0237558D01*
X0352640Y0237692D01*
X0352558Y0237828D01*
X0352480Y0237965D01*
X0352406Y0238105D01*
X0352335Y0238247D01*
X0352267Y0238390D01*
X0352203Y0238535D01*
X0352143Y0238681D01*
X0352087Y0238829D01*
X0352034Y0238978D01*
X0351985Y0239129D01*
X0351940Y0239281D01*
X0351899Y0239434D01*
X0351861Y0239587D01*
X0351828Y0239742D01*
X0351798Y0239898D01*
X0351772Y0240054D01*
X0351751Y0240211D01*
X0351733Y0240368D01*
X0351719Y0240526D01*
X0351709Y0240684D01*
X0351703Y0240842D01*
X0351701Y0241000D01*
X0351701Y0261000D02*
X0351703Y0261158D01*
X0351709Y0261316D01*
X0351719Y0261474D01*
X0351733Y0261632D01*
X0351751Y0261789D01*
X0351772Y0261946D01*
X0351798Y0262102D01*
X0351828Y0262258D01*
X0351861Y0262413D01*
X0351899Y0262566D01*
X0351940Y0262719D01*
X0351985Y0262871D01*
X0352034Y0263022D01*
X0352087Y0263171D01*
X0352143Y0263319D01*
X0352203Y0263465D01*
X0352267Y0263610D01*
X0352335Y0263753D01*
X0352406Y0263895D01*
X0352480Y0264035D01*
X0352558Y0264172D01*
X0352640Y0264308D01*
X0352724Y0264442D01*
X0352813Y0264573D01*
X0352904Y0264702D01*
X0352999Y0264829D01*
X0353096Y0264954D01*
X0353197Y0265076D01*
X0353301Y0265195D01*
X0353408Y0265312D01*
X0353518Y0265426D01*
X0353631Y0265537D01*
X0353746Y0265646D01*
X0353864Y0265751D01*
X0353985Y0265853D01*
X0354108Y0265953D01*
X0354234Y0266049D01*
X0354362Y0266142D01*
X0354492Y0266232D01*
X0354625Y0266318D01*
X0354760Y0266402D01*
X0354896Y0266481D01*
X0355035Y0266558D01*
X0355176Y0266630D01*
X0355318Y0266700D01*
X0355462Y0266765D01*
X0355608Y0266827D01*
X0355755Y0266885D01*
X0355904Y0266940D01*
X0356054Y0266991D01*
X0356205Y0267038D01*
X0356357Y0267081D01*
X0356510Y0267120D01*
X0356665Y0267156D01*
X0356820Y0267187D01*
X0356976Y0267215D01*
X0357132Y0267239D01*
X0357289Y0267259D01*
X0357447Y0267275D01*
X0357604Y0267287D01*
X0357763Y0267295D01*
X0357921Y0267299D01*
X0358079Y0267299D01*
X0358237Y0267295D01*
X0358396Y0267287D01*
X0358553Y0267275D01*
X0358711Y0267259D01*
X0358868Y0267239D01*
X0359024Y0267215D01*
X0359180Y0267187D01*
X0359335Y0267156D01*
X0359490Y0267120D01*
X0359643Y0267081D01*
X0359795Y0267038D01*
X0359946Y0266991D01*
X0360096Y0266940D01*
X0360245Y0266885D01*
X0360392Y0266827D01*
X0360538Y0266765D01*
X0360682Y0266700D01*
X0360824Y0266630D01*
X0360965Y0266558D01*
X0361104Y0266481D01*
X0361240Y0266402D01*
X0361375Y0266318D01*
X0361508Y0266232D01*
X0361638Y0266142D01*
X0361766Y0266049D01*
X0361892Y0265953D01*
X0362015Y0265853D01*
X0362136Y0265751D01*
X0362254Y0265646D01*
X0362369Y0265537D01*
X0362482Y0265426D01*
X0362592Y0265312D01*
X0362699Y0265195D01*
X0362803Y0265076D01*
X0362904Y0264954D01*
X0363001Y0264829D01*
X0363096Y0264702D01*
X0363187Y0264573D01*
X0363276Y0264442D01*
X0363360Y0264308D01*
X0363442Y0264172D01*
X0363520Y0264035D01*
X0363594Y0263895D01*
X0363665Y0263753D01*
X0363733Y0263610D01*
X0363797Y0263465D01*
X0363857Y0263319D01*
X0363913Y0263171D01*
X0363966Y0263022D01*
X0364015Y0262871D01*
X0364060Y0262719D01*
X0364101Y0262566D01*
X0364139Y0262413D01*
X0364172Y0262258D01*
X0364202Y0262102D01*
X0364228Y0261946D01*
X0364249Y0261789D01*
X0364267Y0261632D01*
X0364281Y0261474D01*
X0364291Y0261316D01*
X0364297Y0261158D01*
X0364299Y0261000D01*
X0364297Y0260842D01*
X0364291Y0260684D01*
X0364281Y0260526D01*
X0364267Y0260368D01*
X0364249Y0260211D01*
X0364228Y0260054D01*
X0364202Y0259898D01*
X0364172Y0259742D01*
X0364139Y0259587D01*
X0364101Y0259434D01*
X0364060Y0259281D01*
X0364015Y0259129D01*
X0363966Y0258978D01*
X0363913Y0258829D01*
X0363857Y0258681D01*
X0363797Y0258535D01*
X0363733Y0258390D01*
X0363665Y0258247D01*
X0363594Y0258105D01*
X0363520Y0257965D01*
X0363442Y0257828D01*
X0363360Y0257692D01*
X0363276Y0257558D01*
X0363187Y0257427D01*
X0363096Y0257298D01*
X0363001Y0257171D01*
X0362904Y0257046D01*
X0362803Y0256924D01*
X0362699Y0256805D01*
X0362592Y0256688D01*
X0362482Y0256574D01*
X0362369Y0256463D01*
X0362254Y0256354D01*
X0362136Y0256249D01*
X0362015Y0256147D01*
X0361892Y0256047D01*
X0361766Y0255951D01*
X0361638Y0255858D01*
X0361508Y0255768D01*
X0361375Y0255682D01*
X0361240Y0255598D01*
X0361104Y0255519D01*
X0360965Y0255442D01*
X0360824Y0255370D01*
X0360682Y0255300D01*
X0360538Y0255235D01*
X0360392Y0255173D01*
X0360245Y0255115D01*
X0360096Y0255060D01*
X0359946Y0255009D01*
X0359795Y0254962D01*
X0359643Y0254919D01*
X0359490Y0254880D01*
X0359335Y0254844D01*
X0359180Y0254813D01*
X0359024Y0254785D01*
X0358868Y0254761D01*
X0358711Y0254741D01*
X0358553Y0254725D01*
X0358396Y0254713D01*
X0358237Y0254705D01*
X0358079Y0254701D01*
X0357921Y0254701D01*
X0357763Y0254705D01*
X0357604Y0254713D01*
X0357447Y0254725D01*
X0357289Y0254741D01*
X0357132Y0254761D01*
X0356976Y0254785D01*
X0356820Y0254813D01*
X0356665Y0254844D01*
X0356510Y0254880D01*
X0356357Y0254919D01*
X0356205Y0254962D01*
X0356054Y0255009D01*
X0355904Y0255060D01*
X0355755Y0255115D01*
X0355608Y0255173D01*
X0355462Y0255235D01*
X0355318Y0255300D01*
X0355176Y0255370D01*
X0355035Y0255442D01*
X0354896Y0255519D01*
X0354760Y0255598D01*
X0354625Y0255682D01*
X0354492Y0255768D01*
X0354362Y0255858D01*
X0354234Y0255951D01*
X0354108Y0256047D01*
X0353985Y0256147D01*
X0353864Y0256249D01*
X0353746Y0256354D01*
X0353631Y0256463D01*
X0353518Y0256574D01*
X0353408Y0256688D01*
X0353301Y0256805D01*
X0353197Y0256924D01*
X0353096Y0257046D01*
X0352999Y0257171D01*
X0352904Y0257298D01*
X0352813Y0257427D01*
X0352724Y0257558D01*
X0352640Y0257692D01*
X0352558Y0257828D01*
X0352480Y0257965D01*
X0352406Y0258105D01*
X0352335Y0258247D01*
X0352267Y0258390D01*
X0352203Y0258535D01*
X0352143Y0258681D01*
X0352087Y0258829D01*
X0352034Y0258978D01*
X0351985Y0259129D01*
X0351940Y0259281D01*
X0351899Y0259434D01*
X0351861Y0259587D01*
X0351828Y0259742D01*
X0351798Y0259898D01*
X0351772Y0260054D01*
X0351751Y0260211D01*
X0351733Y0260368D01*
X0351719Y0260526D01*
X0351709Y0260684D01*
X0351703Y0260842D01*
X0351701Y0261000D01*
X0351701Y0311000D02*
X0351703Y0311158D01*
X0351709Y0311316D01*
X0351719Y0311474D01*
X0351733Y0311632D01*
X0351751Y0311789D01*
X0351772Y0311946D01*
X0351798Y0312102D01*
X0351828Y0312258D01*
X0351861Y0312413D01*
X0351899Y0312566D01*
X0351940Y0312719D01*
X0351985Y0312871D01*
X0352034Y0313022D01*
X0352087Y0313171D01*
X0352143Y0313319D01*
X0352203Y0313465D01*
X0352267Y0313610D01*
X0352335Y0313753D01*
X0352406Y0313895D01*
X0352480Y0314035D01*
X0352558Y0314172D01*
X0352640Y0314308D01*
X0352724Y0314442D01*
X0352813Y0314573D01*
X0352904Y0314702D01*
X0352999Y0314829D01*
X0353096Y0314954D01*
X0353197Y0315076D01*
X0353301Y0315195D01*
X0353408Y0315312D01*
X0353518Y0315426D01*
X0353631Y0315537D01*
X0353746Y0315646D01*
X0353864Y0315751D01*
X0353985Y0315853D01*
X0354108Y0315953D01*
X0354234Y0316049D01*
X0354362Y0316142D01*
X0354492Y0316232D01*
X0354625Y0316318D01*
X0354760Y0316402D01*
X0354896Y0316481D01*
X0355035Y0316558D01*
X0355176Y0316630D01*
X0355318Y0316700D01*
X0355462Y0316765D01*
X0355608Y0316827D01*
X0355755Y0316885D01*
X0355904Y0316940D01*
X0356054Y0316991D01*
X0356205Y0317038D01*
X0356357Y0317081D01*
X0356510Y0317120D01*
X0356665Y0317156D01*
X0356820Y0317187D01*
X0356976Y0317215D01*
X0357132Y0317239D01*
X0357289Y0317259D01*
X0357447Y0317275D01*
X0357604Y0317287D01*
X0357763Y0317295D01*
X0357921Y0317299D01*
X0358079Y0317299D01*
X0358237Y0317295D01*
X0358396Y0317287D01*
X0358553Y0317275D01*
X0358711Y0317259D01*
X0358868Y0317239D01*
X0359024Y0317215D01*
X0359180Y0317187D01*
X0359335Y0317156D01*
X0359490Y0317120D01*
X0359643Y0317081D01*
X0359795Y0317038D01*
X0359946Y0316991D01*
X0360096Y0316940D01*
X0360245Y0316885D01*
X0360392Y0316827D01*
X0360538Y0316765D01*
X0360682Y0316700D01*
X0360824Y0316630D01*
X0360965Y0316558D01*
X0361104Y0316481D01*
X0361240Y0316402D01*
X0361375Y0316318D01*
X0361508Y0316232D01*
X0361638Y0316142D01*
X0361766Y0316049D01*
X0361892Y0315953D01*
X0362015Y0315853D01*
X0362136Y0315751D01*
X0362254Y0315646D01*
X0362369Y0315537D01*
X0362482Y0315426D01*
X0362592Y0315312D01*
X0362699Y0315195D01*
X0362803Y0315076D01*
X0362904Y0314954D01*
X0363001Y0314829D01*
X0363096Y0314702D01*
X0363187Y0314573D01*
X0363276Y0314442D01*
X0363360Y0314308D01*
X0363442Y0314172D01*
X0363520Y0314035D01*
X0363594Y0313895D01*
X0363665Y0313753D01*
X0363733Y0313610D01*
X0363797Y0313465D01*
X0363857Y0313319D01*
X0363913Y0313171D01*
X0363966Y0313022D01*
X0364015Y0312871D01*
X0364060Y0312719D01*
X0364101Y0312566D01*
X0364139Y0312413D01*
X0364172Y0312258D01*
X0364202Y0312102D01*
X0364228Y0311946D01*
X0364249Y0311789D01*
X0364267Y0311632D01*
X0364281Y0311474D01*
X0364291Y0311316D01*
X0364297Y0311158D01*
X0364299Y0311000D01*
X0364297Y0310842D01*
X0364291Y0310684D01*
X0364281Y0310526D01*
X0364267Y0310368D01*
X0364249Y0310211D01*
X0364228Y0310054D01*
X0364202Y0309898D01*
X0364172Y0309742D01*
X0364139Y0309587D01*
X0364101Y0309434D01*
X0364060Y0309281D01*
X0364015Y0309129D01*
X0363966Y0308978D01*
X0363913Y0308829D01*
X0363857Y0308681D01*
X0363797Y0308535D01*
X0363733Y0308390D01*
X0363665Y0308247D01*
X0363594Y0308105D01*
X0363520Y0307965D01*
X0363442Y0307828D01*
X0363360Y0307692D01*
X0363276Y0307558D01*
X0363187Y0307427D01*
X0363096Y0307298D01*
X0363001Y0307171D01*
X0362904Y0307046D01*
X0362803Y0306924D01*
X0362699Y0306805D01*
X0362592Y0306688D01*
X0362482Y0306574D01*
X0362369Y0306463D01*
X0362254Y0306354D01*
X0362136Y0306249D01*
X0362015Y0306147D01*
X0361892Y0306047D01*
X0361766Y0305951D01*
X0361638Y0305858D01*
X0361508Y0305768D01*
X0361375Y0305682D01*
X0361240Y0305598D01*
X0361104Y0305519D01*
X0360965Y0305442D01*
X0360824Y0305370D01*
X0360682Y0305300D01*
X0360538Y0305235D01*
X0360392Y0305173D01*
X0360245Y0305115D01*
X0360096Y0305060D01*
X0359946Y0305009D01*
X0359795Y0304962D01*
X0359643Y0304919D01*
X0359490Y0304880D01*
X0359335Y0304844D01*
X0359180Y0304813D01*
X0359024Y0304785D01*
X0358868Y0304761D01*
X0358711Y0304741D01*
X0358553Y0304725D01*
X0358396Y0304713D01*
X0358237Y0304705D01*
X0358079Y0304701D01*
X0357921Y0304701D01*
X0357763Y0304705D01*
X0357604Y0304713D01*
X0357447Y0304725D01*
X0357289Y0304741D01*
X0357132Y0304761D01*
X0356976Y0304785D01*
X0356820Y0304813D01*
X0356665Y0304844D01*
X0356510Y0304880D01*
X0356357Y0304919D01*
X0356205Y0304962D01*
X0356054Y0305009D01*
X0355904Y0305060D01*
X0355755Y0305115D01*
X0355608Y0305173D01*
X0355462Y0305235D01*
X0355318Y0305300D01*
X0355176Y0305370D01*
X0355035Y0305442D01*
X0354896Y0305519D01*
X0354760Y0305598D01*
X0354625Y0305682D01*
X0354492Y0305768D01*
X0354362Y0305858D01*
X0354234Y0305951D01*
X0354108Y0306047D01*
X0353985Y0306147D01*
X0353864Y0306249D01*
X0353746Y0306354D01*
X0353631Y0306463D01*
X0353518Y0306574D01*
X0353408Y0306688D01*
X0353301Y0306805D01*
X0353197Y0306924D01*
X0353096Y0307046D01*
X0352999Y0307171D01*
X0352904Y0307298D01*
X0352813Y0307427D01*
X0352724Y0307558D01*
X0352640Y0307692D01*
X0352558Y0307828D01*
X0352480Y0307965D01*
X0352406Y0308105D01*
X0352335Y0308247D01*
X0352267Y0308390D01*
X0352203Y0308535D01*
X0352143Y0308681D01*
X0352087Y0308829D01*
X0352034Y0308978D01*
X0351985Y0309129D01*
X0351940Y0309281D01*
X0351899Y0309434D01*
X0351861Y0309587D01*
X0351828Y0309742D01*
X0351798Y0309898D01*
X0351772Y0310054D01*
X0351751Y0310211D01*
X0351733Y0310368D01*
X0351719Y0310526D01*
X0351709Y0310684D01*
X0351703Y0310842D01*
X0351701Y0311000D01*
M02*
