G75*
%MOIN*%
%OFA0B0*%
%FSLAX25Y25*%
%IPPOS*%
%LPD*%
%AMOC8*
5,1,8,0,0,1.08239X$1,22.5*
%
%ADD10C,0.00000*%
%ADD11OC8,0.07000*%
%ADD12C,0.23400*%
%ADD13C,0.08274*%
%ADD14C,0.06000*%
%ADD15C,0.12998*%
%ADD16R,0.05600X0.05600*%
%ADD17OC8,0.05600*%
%ADD18C,0.05600*%
%ADD19C,0.06400*%
%ADD20C,0.10400*%
%ADD21OC8,0.10400*%
%ADD22C,0.07093*%
%ADD23OC8,0.06700*%
%ADD24C,0.06700*%
%ADD25OC8,0.06000*%
%ADD26R,0.04400X0.02400*%
%ADD27R,0.02000X0.03600*%
%ADD28C,0.00500*%
%ADD29R,0.10400X0.05400*%
%ADD30R,0.02400X0.04400*%
%ADD31R,0.03600X0.02000*%
%ADD32C,0.06000*%
%ADD33C,0.05600*%
%ADD34OC8,0.06337*%
%ADD35R,0.04337X0.05912*%
%ADD36R,0.04731X0.04337*%
%ADD37R,0.08400X0.08400*%
%ADD38C,0.08400*%
D10*
X0003000Y0106000D02*
X0003000Y0420961D01*
X0396701Y0420961D01*
X0396701Y0106000D01*
X0003000Y0106000D01*
X0351701Y0191000D02*
X0351703Y0191158D01*
X0351709Y0191316D01*
X0351719Y0191474D01*
X0351733Y0191632D01*
X0351751Y0191789D01*
X0351772Y0191946D01*
X0351798Y0192102D01*
X0351828Y0192258D01*
X0351861Y0192413D01*
X0351899Y0192566D01*
X0351940Y0192719D01*
X0351985Y0192871D01*
X0352034Y0193022D01*
X0352087Y0193171D01*
X0352143Y0193319D01*
X0352203Y0193465D01*
X0352267Y0193610D01*
X0352335Y0193753D01*
X0352406Y0193895D01*
X0352480Y0194035D01*
X0352558Y0194172D01*
X0352640Y0194308D01*
X0352724Y0194442D01*
X0352813Y0194573D01*
X0352904Y0194702D01*
X0352999Y0194829D01*
X0353096Y0194954D01*
X0353197Y0195076D01*
X0353301Y0195195D01*
X0353408Y0195312D01*
X0353518Y0195426D01*
X0353631Y0195537D01*
X0353746Y0195646D01*
X0353864Y0195751D01*
X0353985Y0195853D01*
X0354108Y0195953D01*
X0354234Y0196049D01*
X0354362Y0196142D01*
X0354492Y0196232D01*
X0354625Y0196318D01*
X0354760Y0196402D01*
X0354896Y0196481D01*
X0355035Y0196558D01*
X0355176Y0196630D01*
X0355318Y0196700D01*
X0355462Y0196765D01*
X0355608Y0196827D01*
X0355755Y0196885D01*
X0355904Y0196940D01*
X0356054Y0196991D01*
X0356205Y0197038D01*
X0356357Y0197081D01*
X0356510Y0197120D01*
X0356665Y0197156D01*
X0356820Y0197187D01*
X0356976Y0197215D01*
X0357132Y0197239D01*
X0357289Y0197259D01*
X0357447Y0197275D01*
X0357604Y0197287D01*
X0357763Y0197295D01*
X0357921Y0197299D01*
X0358079Y0197299D01*
X0358237Y0197295D01*
X0358396Y0197287D01*
X0358553Y0197275D01*
X0358711Y0197259D01*
X0358868Y0197239D01*
X0359024Y0197215D01*
X0359180Y0197187D01*
X0359335Y0197156D01*
X0359490Y0197120D01*
X0359643Y0197081D01*
X0359795Y0197038D01*
X0359946Y0196991D01*
X0360096Y0196940D01*
X0360245Y0196885D01*
X0360392Y0196827D01*
X0360538Y0196765D01*
X0360682Y0196700D01*
X0360824Y0196630D01*
X0360965Y0196558D01*
X0361104Y0196481D01*
X0361240Y0196402D01*
X0361375Y0196318D01*
X0361508Y0196232D01*
X0361638Y0196142D01*
X0361766Y0196049D01*
X0361892Y0195953D01*
X0362015Y0195853D01*
X0362136Y0195751D01*
X0362254Y0195646D01*
X0362369Y0195537D01*
X0362482Y0195426D01*
X0362592Y0195312D01*
X0362699Y0195195D01*
X0362803Y0195076D01*
X0362904Y0194954D01*
X0363001Y0194829D01*
X0363096Y0194702D01*
X0363187Y0194573D01*
X0363276Y0194442D01*
X0363360Y0194308D01*
X0363442Y0194172D01*
X0363520Y0194035D01*
X0363594Y0193895D01*
X0363665Y0193753D01*
X0363733Y0193610D01*
X0363797Y0193465D01*
X0363857Y0193319D01*
X0363913Y0193171D01*
X0363966Y0193022D01*
X0364015Y0192871D01*
X0364060Y0192719D01*
X0364101Y0192566D01*
X0364139Y0192413D01*
X0364172Y0192258D01*
X0364202Y0192102D01*
X0364228Y0191946D01*
X0364249Y0191789D01*
X0364267Y0191632D01*
X0364281Y0191474D01*
X0364291Y0191316D01*
X0364297Y0191158D01*
X0364299Y0191000D01*
X0364297Y0190842D01*
X0364291Y0190684D01*
X0364281Y0190526D01*
X0364267Y0190368D01*
X0364249Y0190211D01*
X0364228Y0190054D01*
X0364202Y0189898D01*
X0364172Y0189742D01*
X0364139Y0189587D01*
X0364101Y0189434D01*
X0364060Y0189281D01*
X0364015Y0189129D01*
X0363966Y0188978D01*
X0363913Y0188829D01*
X0363857Y0188681D01*
X0363797Y0188535D01*
X0363733Y0188390D01*
X0363665Y0188247D01*
X0363594Y0188105D01*
X0363520Y0187965D01*
X0363442Y0187828D01*
X0363360Y0187692D01*
X0363276Y0187558D01*
X0363187Y0187427D01*
X0363096Y0187298D01*
X0363001Y0187171D01*
X0362904Y0187046D01*
X0362803Y0186924D01*
X0362699Y0186805D01*
X0362592Y0186688D01*
X0362482Y0186574D01*
X0362369Y0186463D01*
X0362254Y0186354D01*
X0362136Y0186249D01*
X0362015Y0186147D01*
X0361892Y0186047D01*
X0361766Y0185951D01*
X0361638Y0185858D01*
X0361508Y0185768D01*
X0361375Y0185682D01*
X0361240Y0185598D01*
X0361104Y0185519D01*
X0360965Y0185442D01*
X0360824Y0185370D01*
X0360682Y0185300D01*
X0360538Y0185235D01*
X0360392Y0185173D01*
X0360245Y0185115D01*
X0360096Y0185060D01*
X0359946Y0185009D01*
X0359795Y0184962D01*
X0359643Y0184919D01*
X0359490Y0184880D01*
X0359335Y0184844D01*
X0359180Y0184813D01*
X0359024Y0184785D01*
X0358868Y0184761D01*
X0358711Y0184741D01*
X0358553Y0184725D01*
X0358396Y0184713D01*
X0358237Y0184705D01*
X0358079Y0184701D01*
X0357921Y0184701D01*
X0357763Y0184705D01*
X0357604Y0184713D01*
X0357447Y0184725D01*
X0357289Y0184741D01*
X0357132Y0184761D01*
X0356976Y0184785D01*
X0356820Y0184813D01*
X0356665Y0184844D01*
X0356510Y0184880D01*
X0356357Y0184919D01*
X0356205Y0184962D01*
X0356054Y0185009D01*
X0355904Y0185060D01*
X0355755Y0185115D01*
X0355608Y0185173D01*
X0355462Y0185235D01*
X0355318Y0185300D01*
X0355176Y0185370D01*
X0355035Y0185442D01*
X0354896Y0185519D01*
X0354760Y0185598D01*
X0354625Y0185682D01*
X0354492Y0185768D01*
X0354362Y0185858D01*
X0354234Y0185951D01*
X0354108Y0186047D01*
X0353985Y0186147D01*
X0353864Y0186249D01*
X0353746Y0186354D01*
X0353631Y0186463D01*
X0353518Y0186574D01*
X0353408Y0186688D01*
X0353301Y0186805D01*
X0353197Y0186924D01*
X0353096Y0187046D01*
X0352999Y0187171D01*
X0352904Y0187298D01*
X0352813Y0187427D01*
X0352724Y0187558D01*
X0352640Y0187692D01*
X0352558Y0187828D01*
X0352480Y0187965D01*
X0352406Y0188105D01*
X0352335Y0188247D01*
X0352267Y0188390D01*
X0352203Y0188535D01*
X0352143Y0188681D01*
X0352087Y0188829D01*
X0352034Y0188978D01*
X0351985Y0189129D01*
X0351940Y0189281D01*
X0351899Y0189434D01*
X0351861Y0189587D01*
X0351828Y0189742D01*
X0351798Y0189898D01*
X0351772Y0190054D01*
X0351751Y0190211D01*
X0351733Y0190368D01*
X0351719Y0190526D01*
X0351709Y0190684D01*
X0351703Y0190842D01*
X0351701Y0191000D01*
X0351701Y0241000D02*
X0351703Y0241158D01*
X0351709Y0241316D01*
X0351719Y0241474D01*
X0351733Y0241632D01*
X0351751Y0241789D01*
X0351772Y0241946D01*
X0351798Y0242102D01*
X0351828Y0242258D01*
X0351861Y0242413D01*
X0351899Y0242566D01*
X0351940Y0242719D01*
X0351985Y0242871D01*
X0352034Y0243022D01*
X0352087Y0243171D01*
X0352143Y0243319D01*
X0352203Y0243465D01*
X0352267Y0243610D01*
X0352335Y0243753D01*
X0352406Y0243895D01*
X0352480Y0244035D01*
X0352558Y0244172D01*
X0352640Y0244308D01*
X0352724Y0244442D01*
X0352813Y0244573D01*
X0352904Y0244702D01*
X0352999Y0244829D01*
X0353096Y0244954D01*
X0353197Y0245076D01*
X0353301Y0245195D01*
X0353408Y0245312D01*
X0353518Y0245426D01*
X0353631Y0245537D01*
X0353746Y0245646D01*
X0353864Y0245751D01*
X0353985Y0245853D01*
X0354108Y0245953D01*
X0354234Y0246049D01*
X0354362Y0246142D01*
X0354492Y0246232D01*
X0354625Y0246318D01*
X0354760Y0246402D01*
X0354896Y0246481D01*
X0355035Y0246558D01*
X0355176Y0246630D01*
X0355318Y0246700D01*
X0355462Y0246765D01*
X0355608Y0246827D01*
X0355755Y0246885D01*
X0355904Y0246940D01*
X0356054Y0246991D01*
X0356205Y0247038D01*
X0356357Y0247081D01*
X0356510Y0247120D01*
X0356665Y0247156D01*
X0356820Y0247187D01*
X0356976Y0247215D01*
X0357132Y0247239D01*
X0357289Y0247259D01*
X0357447Y0247275D01*
X0357604Y0247287D01*
X0357763Y0247295D01*
X0357921Y0247299D01*
X0358079Y0247299D01*
X0358237Y0247295D01*
X0358396Y0247287D01*
X0358553Y0247275D01*
X0358711Y0247259D01*
X0358868Y0247239D01*
X0359024Y0247215D01*
X0359180Y0247187D01*
X0359335Y0247156D01*
X0359490Y0247120D01*
X0359643Y0247081D01*
X0359795Y0247038D01*
X0359946Y0246991D01*
X0360096Y0246940D01*
X0360245Y0246885D01*
X0360392Y0246827D01*
X0360538Y0246765D01*
X0360682Y0246700D01*
X0360824Y0246630D01*
X0360965Y0246558D01*
X0361104Y0246481D01*
X0361240Y0246402D01*
X0361375Y0246318D01*
X0361508Y0246232D01*
X0361638Y0246142D01*
X0361766Y0246049D01*
X0361892Y0245953D01*
X0362015Y0245853D01*
X0362136Y0245751D01*
X0362254Y0245646D01*
X0362369Y0245537D01*
X0362482Y0245426D01*
X0362592Y0245312D01*
X0362699Y0245195D01*
X0362803Y0245076D01*
X0362904Y0244954D01*
X0363001Y0244829D01*
X0363096Y0244702D01*
X0363187Y0244573D01*
X0363276Y0244442D01*
X0363360Y0244308D01*
X0363442Y0244172D01*
X0363520Y0244035D01*
X0363594Y0243895D01*
X0363665Y0243753D01*
X0363733Y0243610D01*
X0363797Y0243465D01*
X0363857Y0243319D01*
X0363913Y0243171D01*
X0363966Y0243022D01*
X0364015Y0242871D01*
X0364060Y0242719D01*
X0364101Y0242566D01*
X0364139Y0242413D01*
X0364172Y0242258D01*
X0364202Y0242102D01*
X0364228Y0241946D01*
X0364249Y0241789D01*
X0364267Y0241632D01*
X0364281Y0241474D01*
X0364291Y0241316D01*
X0364297Y0241158D01*
X0364299Y0241000D01*
X0364297Y0240842D01*
X0364291Y0240684D01*
X0364281Y0240526D01*
X0364267Y0240368D01*
X0364249Y0240211D01*
X0364228Y0240054D01*
X0364202Y0239898D01*
X0364172Y0239742D01*
X0364139Y0239587D01*
X0364101Y0239434D01*
X0364060Y0239281D01*
X0364015Y0239129D01*
X0363966Y0238978D01*
X0363913Y0238829D01*
X0363857Y0238681D01*
X0363797Y0238535D01*
X0363733Y0238390D01*
X0363665Y0238247D01*
X0363594Y0238105D01*
X0363520Y0237965D01*
X0363442Y0237828D01*
X0363360Y0237692D01*
X0363276Y0237558D01*
X0363187Y0237427D01*
X0363096Y0237298D01*
X0363001Y0237171D01*
X0362904Y0237046D01*
X0362803Y0236924D01*
X0362699Y0236805D01*
X0362592Y0236688D01*
X0362482Y0236574D01*
X0362369Y0236463D01*
X0362254Y0236354D01*
X0362136Y0236249D01*
X0362015Y0236147D01*
X0361892Y0236047D01*
X0361766Y0235951D01*
X0361638Y0235858D01*
X0361508Y0235768D01*
X0361375Y0235682D01*
X0361240Y0235598D01*
X0361104Y0235519D01*
X0360965Y0235442D01*
X0360824Y0235370D01*
X0360682Y0235300D01*
X0360538Y0235235D01*
X0360392Y0235173D01*
X0360245Y0235115D01*
X0360096Y0235060D01*
X0359946Y0235009D01*
X0359795Y0234962D01*
X0359643Y0234919D01*
X0359490Y0234880D01*
X0359335Y0234844D01*
X0359180Y0234813D01*
X0359024Y0234785D01*
X0358868Y0234761D01*
X0358711Y0234741D01*
X0358553Y0234725D01*
X0358396Y0234713D01*
X0358237Y0234705D01*
X0358079Y0234701D01*
X0357921Y0234701D01*
X0357763Y0234705D01*
X0357604Y0234713D01*
X0357447Y0234725D01*
X0357289Y0234741D01*
X0357132Y0234761D01*
X0356976Y0234785D01*
X0356820Y0234813D01*
X0356665Y0234844D01*
X0356510Y0234880D01*
X0356357Y0234919D01*
X0356205Y0234962D01*
X0356054Y0235009D01*
X0355904Y0235060D01*
X0355755Y0235115D01*
X0355608Y0235173D01*
X0355462Y0235235D01*
X0355318Y0235300D01*
X0355176Y0235370D01*
X0355035Y0235442D01*
X0354896Y0235519D01*
X0354760Y0235598D01*
X0354625Y0235682D01*
X0354492Y0235768D01*
X0354362Y0235858D01*
X0354234Y0235951D01*
X0354108Y0236047D01*
X0353985Y0236147D01*
X0353864Y0236249D01*
X0353746Y0236354D01*
X0353631Y0236463D01*
X0353518Y0236574D01*
X0353408Y0236688D01*
X0353301Y0236805D01*
X0353197Y0236924D01*
X0353096Y0237046D01*
X0352999Y0237171D01*
X0352904Y0237298D01*
X0352813Y0237427D01*
X0352724Y0237558D01*
X0352640Y0237692D01*
X0352558Y0237828D01*
X0352480Y0237965D01*
X0352406Y0238105D01*
X0352335Y0238247D01*
X0352267Y0238390D01*
X0352203Y0238535D01*
X0352143Y0238681D01*
X0352087Y0238829D01*
X0352034Y0238978D01*
X0351985Y0239129D01*
X0351940Y0239281D01*
X0351899Y0239434D01*
X0351861Y0239587D01*
X0351828Y0239742D01*
X0351798Y0239898D01*
X0351772Y0240054D01*
X0351751Y0240211D01*
X0351733Y0240368D01*
X0351719Y0240526D01*
X0351709Y0240684D01*
X0351703Y0240842D01*
X0351701Y0241000D01*
X0351701Y0261000D02*
X0351703Y0261158D01*
X0351709Y0261316D01*
X0351719Y0261474D01*
X0351733Y0261632D01*
X0351751Y0261789D01*
X0351772Y0261946D01*
X0351798Y0262102D01*
X0351828Y0262258D01*
X0351861Y0262413D01*
X0351899Y0262566D01*
X0351940Y0262719D01*
X0351985Y0262871D01*
X0352034Y0263022D01*
X0352087Y0263171D01*
X0352143Y0263319D01*
X0352203Y0263465D01*
X0352267Y0263610D01*
X0352335Y0263753D01*
X0352406Y0263895D01*
X0352480Y0264035D01*
X0352558Y0264172D01*
X0352640Y0264308D01*
X0352724Y0264442D01*
X0352813Y0264573D01*
X0352904Y0264702D01*
X0352999Y0264829D01*
X0353096Y0264954D01*
X0353197Y0265076D01*
X0353301Y0265195D01*
X0353408Y0265312D01*
X0353518Y0265426D01*
X0353631Y0265537D01*
X0353746Y0265646D01*
X0353864Y0265751D01*
X0353985Y0265853D01*
X0354108Y0265953D01*
X0354234Y0266049D01*
X0354362Y0266142D01*
X0354492Y0266232D01*
X0354625Y0266318D01*
X0354760Y0266402D01*
X0354896Y0266481D01*
X0355035Y0266558D01*
X0355176Y0266630D01*
X0355318Y0266700D01*
X0355462Y0266765D01*
X0355608Y0266827D01*
X0355755Y0266885D01*
X0355904Y0266940D01*
X0356054Y0266991D01*
X0356205Y0267038D01*
X0356357Y0267081D01*
X0356510Y0267120D01*
X0356665Y0267156D01*
X0356820Y0267187D01*
X0356976Y0267215D01*
X0357132Y0267239D01*
X0357289Y0267259D01*
X0357447Y0267275D01*
X0357604Y0267287D01*
X0357763Y0267295D01*
X0357921Y0267299D01*
X0358079Y0267299D01*
X0358237Y0267295D01*
X0358396Y0267287D01*
X0358553Y0267275D01*
X0358711Y0267259D01*
X0358868Y0267239D01*
X0359024Y0267215D01*
X0359180Y0267187D01*
X0359335Y0267156D01*
X0359490Y0267120D01*
X0359643Y0267081D01*
X0359795Y0267038D01*
X0359946Y0266991D01*
X0360096Y0266940D01*
X0360245Y0266885D01*
X0360392Y0266827D01*
X0360538Y0266765D01*
X0360682Y0266700D01*
X0360824Y0266630D01*
X0360965Y0266558D01*
X0361104Y0266481D01*
X0361240Y0266402D01*
X0361375Y0266318D01*
X0361508Y0266232D01*
X0361638Y0266142D01*
X0361766Y0266049D01*
X0361892Y0265953D01*
X0362015Y0265853D01*
X0362136Y0265751D01*
X0362254Y0265646D01*
X0362369Y0265537D01*
X0362482Y0265426D01*
X0362592Y0265312D01*
X0362699Y0265195D01*
X0362803Y0265076D01*
X0362904Y0264954D01*
X0363001Y0264829D01*
X0363096Y0264702D01*
X0363187Y0264573D01*
X0363276Y0264442D01*
X0363360Y0264308D01*
X0363442Y0264172D01*
X0363520Y0264035D01*
X0363594Y0263895D01*
X0363665Y0263753D01*
X0363733Y0263610D01*
X0363797Y0263465D01*
X0363857Y0263319D01*
X0363913Y0263171D01*
X0363966Y0263022D01*
X0364015Y0262871D01*
X0364060Y0262719D01*
X0364101Y0262566D01*
X0364139Y0262413D01*
X0364172Y0262258D01*
X0364202Y0262102D01*
X0364228Y0261946D01*
X0364249Y0261789D01*
X0364267Y0261632D01*
X0364281Y0261474D01*
X0364291Y0261316D01*
X0364297Y0261158D01*
X0364299Y0261000D01*
X0364297Y0260842D01*
X0364291Y0260684D01*
X0364281Y0260526D01*
X0364267Y0260368D01*
X0364249Y0260211D01*
X0364228Y0260054D01*
X0364202Y0259898D01*
X0364172Y0259742D01*
X0364139Y0259587D01*
X0364101Y0259434D01*
X0364060Y0259281D01*
X0364015Y0259129D01*
X0363966Y0258978D01*
X0363913Y0258829D01*
X0363857Y0258681D01*
X0363797Y0258535D01*
X0363733Y0258390D01*
X0363665Y0258247D01*
X0363594Y0258105D01*
X0363520Y0257965D01*
X0363442Y0257828D01*
X0363360Y0257692D01*
X0363276Y0257558D01*
X0363187Y0257427D01*
X0363096Y0257298D01*
X0363001Y0257171D01*
X0362904Y0257046D01*
X0362803Y0256924D01*
X0362699Y0256805D01*
X0362592Y0256688D01*
X0362482Y0256574D01*
X0362369Y0256463D01*
X0362254Y0256354D01*
X0362136Y0256249D01*
X0362015Y0256147D01*
X0361892Y0256047D01*
X0361766Y0255951D01*
X0361638Y0255858D01*
X0361508Y0255768D01*
X0361375Y0255682D01*
X0361240Y0255598D01*
X0361104Y0255519D01*
X0360965Y0255442D01*
X0360824Y0255370D01*
X0360682Y0255300D01*
X0360538Y0255235D01*
X0360392Y0255173D01*
X0360245Y0255115D01*
X0360096Y0255060D01*
X0359946Y0255009D01*
X0359795Y0254962D01*
X0359643Y0254919D01*
X0359490Y0254880D01*
X0359335Y0254844D01*
X0359180Y0254813D01*
X0359024Y0254785D01*
X0358868Y0254761D01*
X0358711Y0254741D01*
X0358553Y0254725D01*
X0358396Y0254713D01*
X0358237Y0254705D01*
X0358079Y0254701D01*
X0357921Y0254701D01*
X0357763Y0254705D01*
X0357604Y0254713D01*
X0357447Y0254725D01*
X0357289Y0254741D01*
X0357132Y0254761D01*
X0356976Y0254785D01*
X0356820Y0254813D01*
X0356665Y0254844D01*
X0356510Y0254880D01*
X0356357Y0254919D01*
X0356205Y0254962D01*
X0356054Y0255009D01*
X0355904Y0255060D01*
X0355755Y0255115D01*
X0355608Y0255173D01*
X0355462Y0255235D01*
X0355318Y0255300D01*
X0355176Y0255370D01*
X0355035Y0255442D01*
X0354896Y0255519D01*
X0354760Y0255598D01*
X0354625Y0255682D01*
X0354492Y0255768D01*
X0354362Y0255858D01*
X0354234Y0255951D01*
X0354108Y0256047D01*
X0353985Y0256147D01*
X0353864Y0256249D01*
X0353746Y0256354D01*
X0353631Y0256463D01*
X0353518Y0256574D01*
X0353408Y0256688D01*
X0353301Y0256805D01*
X0353197Y0256924D01*
X0353096Y0257046D01*
X0352999Y0257171D01*
X0352904Y0257298D01*
X0352813Y0257427D01*
X0352724Y0257558D01*
X0352640Y0257692D01*
X0352558Y0257828D01*
X0352480Y0257965D01*
X0352406Y0258105D01*
X0352335Y0258247D01*
X0352267Y0258390D01*
X0352203Y0258535D01*
X0352143Y0258681D01*
X0352087Y0258829D01*
X0352034Y0258978D01*
X0351985Y0259129D01*
X0351940Y0259281D01*
X0351899Y0259434D01*
X0351861Y0259587D01*
X0351828Y0259742D01*
X0351798Y0259898D01*
X0351772Y0260054D01*
X0351751Y0260211D01*
X0351733Y0260368D01*
X0351719Y0260526D01*
X0351709Y0260684D01*
X0351703Y0260842D01*
X0351701Y0261000D01*
X0351701Y0311000D02*
X0351703Y0311158D01*
X0351709Y0311316D01*
X0351719Y0311474D01*
X0351733Y0311632D01*
X0351751Y0311789D01*
X0351772Y0311946D01*
X0351798Y0312102D01*
X0351828Y0312258D01*
X0351861Y0312413D01*
X0351899Y0312566D01*
X0351940Y0312719D01*
X0351985Y0312871D01*
X0352034Y0313022D01*
X0352087Y0313171D01*
X0352143Y0313319D01*
X0352203Y0313465D01*
X0352267Y0313610D01*
X0352335Y0313753D01*
X0352406Y0313895D01*
X0352480Y0314035D01*
X0352558Y0314172D01*
X0352640Y0314308D01*
X0352724Y0314442D01*
X0352813Y0314573D01*
X0352904Y0314702D01*
X0352999Y0314829D01*
X0353096Y0314954D01*
X0353197Y0315076D01*
X0353301Y0315195D01*
X0353408Y0315312D01*
X0353518Y0315426D01*
X0353631Y0315537D01*
X0353746Y0315646D01*
X0353864Y0315751D01*
X0353985Y0315853D01*
X0354108Y0315953D01*
X0354234Y0316049D01*
X0354362Y0316142D01*
X0354492Y0316232D01*
X0354625Y0316318D01*
X0354760Y0316402D01*
X0354896Y0316481D01*
X0355035Y0316558D01*
X0355176Y0316630D01*
X0355318Y0316700D01*
X0355462Y0316765D01*
X0355608Y0316827D01*
X0355755Y0316885D01*
X0355904Y0316940D01*
X0356054Y0316991D01*
X0356205Y0317038D01*
X0356357Y0317081D01*
X0356510Y0317120D01*
X0356665Y0317156D01*
X0356820Y0317187D01*
X0356976Y0317215D01*
X0357132Y0317239D01*
X0357289Y0317259D01*
X0357447Y0317275D01*
X0357604Y0317287D01*
X0357763Y0317295D01*
X0357921Y0317299D01*
X0358079Y0317299D01*
X0358237Y0317295D01*
X0358396Y0317287D01*
X0358553Y0317275D01*
X0358711Y0317259D01*
X0358868Y0317239D01*
X0359024Y0317215D01*
X0359180Y0317187D01*
X0359335Y0317156D01*
X0359490Y0317120D01*
X0359643Y0317081D01*
X0359795Y0317038D01*
X0359946Y0316991D01*
X0360096Y0316940D01*
X0360245Y0316885D01*
X0360392Y0316827D01*
X0360538Y0316765D01*
X0360682Y0316700D01*
X0360824Y0316630D01*
X0360965Y0316558D01*
X0361104Y0316481D01*
X0361240Y0316402D01*
X0361375Y0316318D01*
X0361508Y0316232D01*
X0361638Y0316142D01*
X0361766Y0316049D01*
X0361892Y0315953D01*
X0362015Y0315853D01*
X0362136Y0315751D01*
X0362254Y0315646D01*
X0362369Y0315537D01*
X0362482Y0315426D01*
X0362592Y0315312D01*
X0362699Y0315195D01*
X0362803Y0315076D01*
X0362904Y0314954D01*
X0363001Y0314829D01*
X0363096Y0314702D01*
X0363187Y0314573D01*
X0363276Y0314442D01*
X0363360Y0314308D01*
X0363442Y0314172D01*
X0363520Y0314035D01*
X0363594Y0313895D01*
X0363665Y0313753D01*
X0363733Y0313610D01*
X0363797Y0313465D01*
X0363857Y0313319D01*
X0363913Y0313171D01*
X0363966Y0313022D01*
X0364015Y0312871D01*
X0364060Y0312719D01*
X0364101Y0312566D01*
X0364139Y0312413D01*
X0364172Y0312258D01*
X0364202Y0312102D01*
X0364228Y0311946D01*
X0364249Y0311789D01*
X0364267Y0311632D01*
X0364281Y0311474D01*
X0364291Y0311316D01*
X0364297Y0311158D01*
X0364299Y0311000D01*
X0364297Y0310842D01*
X0364291Y0310684D01*
X0364281Y0310526D01*
X0364267Y0310368D01*
X0364249Y0310211D01*
X0364228Y0310054D01*
X0364202Y0309898D01*
X0364172Y0309742D01*
X0364139Y0309587D01*
X0364101Y0309434D01*
X0364060Y0309281D01*
X0364015Y0309129D01*
X0363966Y0308978D01*
X0363913Y0308829D01*
X0363857Y0308681D01*
X0363797Y0308535D01*
X0363733Y0308390D01*
X0363665Y0308247D01*
X0363594Y0308105D01*
X0363520Y0307965D01*
X0363442Y0307828D01*
X0363360Y0307692D01*
X0363276Y0307558D01*
X0363187Y0307427D01*
X0363096Y0307298D01*
X0363001Y0307171D01*
X0362904Y0307046D01*
X0362803Y0306924D01*
X0362699Y0306805D01*
X0362592Y0306688D01*
X0362482Y0306574D01*
X0362369Y0306463D01*
X0362254Y0306354D01*
X0362136Y0306249D01*
X0362015Y0306147D01*
X0361892Y0306047D01*
X0361766Y0305951D01*
X0361638Y0305858D01*
X0361508Y0305768D01*
X0361375Y0305682D01*
X0361240Y0305598D01*
X0361104Y0305519D01*
X0360965Y0305442D01*
X0360824Y0305370D01*
X0360682Y0305300D01*
X0360538Y0305235D01*
X0360392Y0305173D01*
X0360245Y0305115D01*
X0360096Y0305060D01*
X0359946Y0305009D01*
X0359795Y0304962D01*
X0359643Y0304919D01*
X0359490Y0304880D01*
X0359335Y0304844D01*
X0359180Y0304813D01*
X0359024Y0304785D01*
X0358868Y0304761D01*
X0358711Y0304741D01*
X0358553Y0304725D01*
X0358396Y0304713D01*
X0358237Y0304705D01*
X0358079Y0304701D01*
X0357921Y0304701D01*
X0357763Y0304705D01*
X0357604Y0304713D01*
X0357447Y0304725D01*
X0357289Y0304741D01*
X0357132Y0304761D01*
X0356976Y0304785D01*
X0356820Y0304813D01*
X0356665Y0304844D01*
X0356510Y0304880D01*
X0356357Y0304919D01*
X0356205Y0304962D01*
X0356054Y0305009D01*
X0355904Y0305060D01*
X0355755Y0305115D01*
X0355608Y0305173D01*
X0355462Y0305235D01*
X0355318Y0305300D01*
X0355176Y0305370D01*
X0355035Y0305442D01*
X0354896Y0305519D01*
X0354760Y0305598D01*
X0354625Y0305682D01*
X0354492Y0305768D01*
X0354362Y0305858D01*
X0354234Y0305951D01*
X0354108Y0306047D01*
X0353985Y0306147D01*
X0353864Y0306249D01*
X0353746Y0306354D01*
X0353631Y0306463D01*
X0353518Y0306574D01*
X0353408Y0306688D01*
X0353301Y0306805D01*
X0353197Y0306924D01*
X0353096Y0307046D01*
X0352999Y0307171D01*
X0352904Y0307298D01*
X0352813Y0307427D01*
X0352724Y0307558D01*
X0352640Y0307692D01*
X0352558Y0307828D01*
X0352480Y0307965D01*
X0352406Y0308105D01*
X0352335Y0308247D01*
X0352267Y0308390D01*
X0352203Y0308535D01*
X0352143Y0308681D01*
X0352087Y0308829D01*
X0352034Y0308978D01*
X0351985Y0309129D01*
X0351940Y0309281D01*
X0351899Y0309434D01*
X0351861Y0309587D01*
X0351828Y0309742D01*
X0351798Y0309898D01*
X0351772Y0310054D01*
X0351751Y0310211D01*
X0351733Y0310368D01*
X0351719Y0310526D01*
X0351709Y0310684D01*
X0351703Y0310842D01*
X0351701Y0311000D01*
D11*
X0323000Y0311000D03*
X0323000Y0301000D03*
X0323000Y0291000D03*
X0323000Y0281000D03*
X0323000Y0271000D03*
X0323000Y0261000D03*
X0323000Y0251000D03*
X0323000Y0241000D03*
X0323000Y0231000D03*
X0323000Y0221000D03*
X0323000Y0211000D03*
X0313000Y0211000D03*
X0313000Y0221000D03*
X0313000Y0231000D03*
X0313000Y0241000D03*
X0313000Y0251000D03*
X0313000Y0261000D03*
X0313000Y0271000D03*
X0313000Y0281000D03*
X0313000Y0291000D03*
X0313000Y0301000D03*
X0313000Y0311000D03*
X0313000Y0321000D03*
X0313000Y0331000D03*
X0313000Y0341000D03*
X0313000Y0351000D03*
X0313000Y0361000D03*
X0313000Y0371000D03*
X0313000Y0381000D03*
X0313000Y0391000D03*
X0323000Y0391000D03*
X0323000Y0381000D03*
X0323000Y0371000D03*
X0323000Y0361000D03*
X0323000Y0351000D03*
X0323000Y0341000D03*
X0323000Y0331000D03*
X0323000Y0321000D03*
X0083000Y0321000D03*
X0083000Y0311000D03*
X0083000Y0301000D03*
X0083000Y0291000D03*
X0083000Y0281000D03*
X0083000Y0271000D03*
X0083000Y0261000D03*
X0083000Y0251000D03*
X0083000Y0241000D03*
X0083000Y0231000D03*
X0083000Y0221000D03*
X0083000Y0211000D03*
X0073000Y0211000D03*
X0073000Y0221000D03*
X0073000Y0231000D03*
X0073000Y0241000D03*
X0073000Y0251000D03*
X0073000Y0261000D03*
X0073000Y0271000D03*
X0073000Y0281000D03*
X0073000Y0291000D03*
X0073000Y0301000D03*
X0073000Y0311000D03*
X0073000Y0321000D03*
X0073000Y0331000D03*
X0073000Y0341000D03*
X0073000Y0351000D03*
X0073000Y0361000D03*
X0073000Y0371000D03*
X0073000Y0381000D03*
X0073000Y0391000D03*
X0083000Y0391000D03*
X0083000Y0381000D03*
X0083000Y0371000D03*
X0083000Y0361000D03*
X0083000Y0351000D03*
X0083000Y0341000D03*
X0083000Y0331000D03*
D12*
X0018000Y0406000D03*
X0018000Y0121000D03*
X0381000Y0121000D03*
X0381500Y0406000D03*
D13*
X0359437Y0174898D02*
X0351563Y0174898D01*
X0343295Y0159937D02*
X0343295Y0152063D01*
X0367311Y0152063D02*
X0367311Y0159937D01*
D14*
X0368000Y0202004D03*
X0368000Y0210035D03*
X0375008Y0206020D03*
X0375008Y0214051D03*
X0375008Y0221965D03*
X0368000Y0225980D03*
X0368000Y0217949D03*
X0375008Y0229996D03*
X0368000Y0272004D03*
X0375008Y0276020D03*
X0375008Y0284051D03*
X0368000Y0287949D03*
X0368000Y0280035D03*
X0375008Y0291965D03*
X0368000Y0295980D03*
X0375008Y0299996D03*
D15*
X0358000Y0311000D03*
X0358000Y0261000D03*
X0358000Y0241000D03*
X0358000Y0191000D03*
D16*
X0223000Y0136000D03*
X0128000Y0136000D03*
X0193000Y0410000D03*
D17*
X0183000Y0410000D03*
X0173000Y0410000D03*
X0163000Y0410000D03*
X0163000Y0380000D03*
X0173000Y0380000D03*
X0183000Y0380000D03*
X0193000Y0380000D03*
X0188000Y0166000D03*
X0198000Y0166000D03*
X0208000Y0166000D03*
X0223000Y0166000D03*
X0233000Y0166000D03*
X0243000Y0166000D03*
X0253000Y0166000D03*
X0263000Y0166000D03*
X0273000Y0166000D03*
X0283000Y0166000D03*
X0293000Y0166000D03*
X0303000Y0166000D03*
X0303000Y0136000D03*
X0293000Y0136000D03*
X0283000Y0136000D03*
X0273000Y0136000D03*
X0263000Y0136000D03*
X0253000Y0136000D03*
X0243000Y0136000D03*
X0233000Y0136000D03*
X0208000Y0136000D03*
X0198000Y0136000D03*
X0188000Y0136000D03*
X0178000Y0136000D03*
X0168000Y0136000D03*
X0158000Y0136000D03*
X0148000Y0136000D03*
X0138000Y0136000D03*
X0138000Y0166000D03*
X0128000Y0166000D03*
X0148000Y0166000D03*
X0158000Y0166000D03*
X0168000Y0166000D03*
X0178000Y0166000D03*
D18*
X0180600Y0191000D02*
X0175400Y0191000D01*
X0175400Y0201000D02*
X0180600Y0201000D01*
X0190400Y0201000D02*
X0195600Y0201000D01*
X0195600Y0211000D02*
X0190400Y0211000D01*
X0180600Y0211000D02*
X0175400Y0211000D01*
X0165600Y0211000D02*
X0160400Y0211000D01*
X0160400Y0201000D02*
X0165600Y0201000D01*
X0165600Y0221000D02*
X0160400Y0221000D01*
X0160400Y0231000D02*
X0165600Y0231000D01*
X0165600Y0241000D02*
X0160400Y0241000D01*
X0160400Y0251000D02*
X0165600Y0251000D01*
X0175400Y0251000D02*
X0180600Y0251000D01*
X0190400Y0251000D02*
X0195600Y0251000D01*
X0195600Y0241000D02*
X0190400Y0241000D01*
X0180600Y0241000D02*
X0175400Y0241000D01*
X0190400Y0231000D02*
X0195600Y0231000D01*
X0195600Y0221000D02*
X0190400Y0221000D01*
X0180600Y0221000D02*
X0175400Y0221000D01*
X0145600Y0221000D02*
X0140400Y0221000D01*
X0140400Y0211000D02*
X0145600Y0211000D01*
X0145600Y0201000D02*
X0140400Y0201000D01*
X0140400Y0191000D02*
X0145600Y0191000D01*
X0130600Y0201000D02*
X0125400Y0201000D01*
X0125400Y0211000D02*
X0130600Y0211000D01*
X0130600Y0221000D02*
X0125400Y0221000D01*
X0125400Y0231000D02*
X0130600Y0231000D01*
X0130600Y0241000D02*
X0125400Y0241000D01*
X0125400Y0251000D02*
X0130600Y0251000D01*
X0130600Y0261000D02*
X0125400Y0261000D01*
X0115600Y0261000D02*
X0110400Y0261000D01*
X0100600Y0261000D02*
X0095400Y0261000D01*
X0095400Y0251000D02*
X0100600Y0251000D01*
X0110400Y0251000D02*
X0115600Y0251000D01*
X0115600Y0241000D02*
X0110400Y0241000D01*
X0100600Y0241000D02*
X0095400Y0241000D01*
X0095400Y0231000D02*
X0100600Y0231000D01*
X0100600Y0221000D02*
X0095400Y0221000D01*
X0095400Y0211000D02*
X0100600Y0211000D01*
X0110400Y0211000D02*
X0115600Y0211000D01*
X0115600Y0201000D02*
X0110400Y0201000D01*
X0100600Y0201000D02*
X0095400Y0201000D01*
X0110400Y0191000D02*
X0115600Y0191000D01*
X0115600Y0221000D02*
X0110400Y0221000D01*
X0140400Y0241000D02*
X0145600Y0241000D01*
X0145600Y0251000D02*
X0140400Y0251000D01*
X0140400Y0261000D02*
X0145600Y0261000D01*
X0145600Y0271000D02*
X0140400Y0271000D01*
X0160400Y0261000D02*
X0165600Y0261000D01*
X0175400Y0261000D02*
X0180600Y0261000D01*
X0190400Y0261000D02*
X0195600Y0261000D01*
X0205400Y0261000D02*
X0210600Y0261000D01*
X0210600Y0251000D02*
X0205400Y0251000D01*
X0205400Y0241000D02*
X0210600Y0241000D01*
X0210600Y0221000D02*
X0205400Y0221000D01*
X0205400Y0211000D02*
X0210600Y0211000D01*
X0210600Y0201000D02*
X0205400Y0201000D01*
X0205400Y0191000D02*
X0210600Y0191000D01*
X0228000Y0183600D02*
X0228000Y0178400D01*
X0238000Y0178400D02*
X0238000Y0183600D01*
X0248000Y0183600D02*
X0248000Y0178400D01*
X0258000Y0178400D02*
X0258000Y0183600D01*
X0268000Y0183600D02*
X0268000Y0178400D01*
X0278000Y0178400D02*
X0278000Y0183600D01*
X0288000Y0183600D02*
X0288000Y0178400D01*
X0298000Y0178400D02*
X0298000Y0183600D01*
X0298000Y0208400D02*
X0298000Y0213600D01*
X0298000Y0223400D02*
X0298000Y0228600D01*
X0288000Y0228600D02*
X0288000Y0223400D01*
X0288000Y0213600D02*
X0288000Y0208400D01*
X0278000Y0208400D02*
X0278000Y0213600D01*
X0278000Y0223400D02*
X0278000Y0228600D01*
X0268000Y0228600D02*
X0268000Y0223400D01*
X0268000Y0213600D02*
X0268000Y0208400D01*
X0258000Y0208400D02*
X0258000Y0213600D01*
X0258000Y0223400D02*
X0258000Y0228600D01*
X0248000Y0228600D02*
X0248000Y0223400D01*
X0248000Y0213600D02*
X0248000Y0208400D01*
X0238000Y0208400D02*
X0238000Y0213600D01*
X0238000Y0223400D02*
X0238000Y0228600D01*
X0228000Y0228600D02*
X0228000Y0223400D01*
X0228000Y0213600D02*
X0228000Y0208400D01*
X0228000Y0253400D02*
X0228000Y0258600D01*
X0238000Y0258600D02*
X0238000Y0253400D01*
X0248000Y0253400D02*
X0248000Y0258600D01*
X0258000Y0258600D02*
X0258000Y0253400D01*
X0268000Y0253400D02*
X0268000Y0258600D01*
X0278000Y0258600D02*
X0278000Y0253400D01*
X0288000Y0253400D02*
X0288000Y0258600D01*
X0298000Y0258600D02*
X0298000Y0253400D01*
X0295400Y0296000D02*
X0300600Y0296000D01*
X0300600Y0306000D02*
X0295400Y0306000D01*
X0295400Y0316000D02*
X0300600Y0316000D01*
X0300600Y0326000D02*
X0295400Y0326000D01*
X0295400Y0336000D02*
X0300600Y0336000D01*
X0300600Y0346000D02*
X0295400Y0346000D01*
X0295400Y0356000D02*
X0300600Y0356000D01*
X0300600Y0366000D02*
X0295400Y0366000D01*
X0270600Y0366000D02*
X0265400Y0366000D01*
X0265400Y0356000D02*
X0270600Y0356000D01*
X0270600Y0346000D02*
X0265400Y0346000D01*
X0265400Y0336000D02*
X0270600Y0336000D01*
X0270600Y0326000D02*
X0265400Y0326000D01*
X0265400Y0316000D02*
X0270600Y0316000D01*
X0270600Y0306000D02*
X0265400Y0306000D01*
X0265400Y0296000D02*
X0270600Y0296000D01*
X0255600Y0296000D02*
X0250400Y0296000D01*
X0250400Y0306000D02*
X0255600Y0306000D01*
X0255600Y0316000D02*
X0250400Y0316000D01*
X0250400Y0326000D02*
X0255600Y0326000D01*
X0255600Y0336000D02*
X0250400Y0336000D01*
X0250400Y0346000D02*
X0255600Y0346000D01*
X0255600Y0356000D02*
X0250400Y0356000D01*
X0250400Y0366000D02*
X0255600Y0366000D01*
X0225600Y0366000D02*
X0220400Y0366000D01*
X0220400Y0356000D02*
X0225600Y0356000D01*
X0225600Y0346000D02*
X0220400Y0346000D01*
X0220400Y0336000D02*
X0225600Y0336000D01*
X0225600Y0326000D02*
X0220400Y0326000D01*
X0220400Y0316000D02*
X0225600Y0316000D01*
X0225600Y0306000D02*
X0220400Y0306000D01*
X0220400Y0296000D02*
X0225600Y0296000D01*
X0210600Y0296000D02*
X0205400Y0296000D01*
X0205400Y0286000D02*
X0210600Y0286000D01*
X0210600Y0271000D02*
X0205400Y0271000D01*
X0190600Y0296000D02*
X0185400Y0296000D01*
X0185400Y0306000D02*
X0190600Y0306000D01*
X0190600Y0316000D02*
X0185400Y0316000D01*
X0185400Y0326000D02*
X0190600Y0326000D01*
X0190600Y0336000D02*
X0185400Y0336000D01*
X0185400Y0346000D02*
X0190600Y0346000D01*
X0190600Y0356000D02*
X0185400Y0356000D01*
X0185400Y0366000D02*
X0190600Y0366000D01*
X0205400Y0366000D02*
X0210600Y0366000D01*
X0210600Y0356000D02*
X0205400Y0356000D01*
X0205400Y0346000D02*
X0210600Y0346000D01*
X0210600Y0336000D02*
X0205400Y0336000D01*
X0205400Y0326000D02*
X0210600Y0326000D01*
X0210600Y0316000D02*
X0205400Y0316000D01*
X0205400Y0306000D02*
X0210600Y0306000D01*
X0180600Y0271000D02*
X0175400Y0271000D01*
X0160600Y0296000D02*
X0155400Y0296000D01*
X0145600Y0296000D02*
X0140400Y0296000D01*
X0140400Y0306000D02*
X0145600Y0306000D01*
X0155400Y0306000D02*
X0160600Y0306000D01*
X0160600Y0316000D02*
X0155400Y0316000D01*
X0145600Y0316000D02*
X0140400Y0316000D01*
X0140400Y0326000D02*
X0145600Y0326000D01*
X0155400Y0326000D02*
X0160600Y0326000D01*
X0160600Y0336000D02*
X0155400Y0336000D01*
X0155400Y0346000D02*
X0160600Y0346000D01*
X0160600Y0356000D02*
X0155400Y0356000D01*
X0145600Y0356000D02*
X0140400Y0356000D01*
X0140400Y0346000D02*
X0145600Y0346000D01*
X0145600Y0336000D02*
X0140400Y0336000D01*
X0140400Y0366000D02*
X0145600Y0366000D01*
X0155400Y0366000D02*
X0160600Y0366000D01*
X0115600Y0366000D02*
X0110400Y0366000D01*
X0100600Y0366000D02*
X0095400Y0366000D01*
X0095400Y0356000D02*
X0100600Y0356000D01*
X0110400Y0356000D02*
X0115600Y0356000D01*
X0115600Y0346000D02*
X0110400Y0346000D01*
X0110400Y0336000D02*
X0115600Y0336000D01*
X0115600Y0326000D02*
X0110400Y0326000D01*
X0100600Y0326000D02*
X0095400Y0326000D01*
X0095400Y0316000D02*
X0100600Y0316000D01*
X0110400Y0316000D02*
X0115600Y0316000D01*
X0115600Y0306000D02*
X0110400Y0306000D01*
X0100600Y0306000D02*
X0095400Y0306000D01*
X0095400Y0296000D02*
X0100600Y0296000D01*
X0110400Y0296000D02*
X0115600Y0296000D01*
X0100600Y0286000D02*
X0095400Y0286000D01*
X0110400Y0271000D02*
X0115600Y0271000D01*
X0100600Y0336000D02*
X0095400Y0336000D01*
X0095400Y0346000D02*
X0100600Y0346000D01*
D19*
X0018705Y0343000D02*
X0012705Y0343000D01*
X0011705Y0333000D02*
X0017705Y0333000D01*
X0018705Y0323000D02*
X0012705Y0323000D01*
X0011705Y0313000D02*
X0017705Y0313000D01*
X0018705Y0299000D02*
X0012705Y0299000D01*
X0011705Y0289000D02*
X0017705Y0289000D01*
X0018705Y0279000D02*
X0012705Y0279000D01*
X0011705Y0269000D02*
X0017705Y0269000D01*
X0018705Y0259000D02*
X0012705Y0259000D01*
X0011705Y0249000D02*
X0017705Y0249000D01*
X0018705Y0239000D02*
X0012705Y0239000D01*
X0011705Y0229000D02*
X0017705Y0229000D01*
X0018705Y0214600D02*
X0012705Y0214600D01*
X0011705Y0204600D02*
X0017705Y0204600D01*
X0018705Y0194600D02*
X0012705Y0194600D01*
X0011705Y0184600D02*
X0017705Y0184600D01*
X0018705Y0174600D02*
X0012705Y0174600D01*
X0011705Y0164600D02*
X0017705Y0164600D01*
X0018705Y0154600D02*
X0012705Y0154600D01*
X0011705Y0144600D02*
X0017705Y0144600D01*
X0128000Y0121705D02*
X0128000Y0115705D01*
X0138000Y0114705D02*
X0138000Y0120705D01*
X0148000Y0121705D02*
X0148000Y0115705D01*
X0158000Y0114705D02*
X0158000Y0120705D01*
X0168000Y0121705D02*
X0168000Y0115705D01*
X0178000Y0114705D02*
X0178000Y0120705D01*
X0188000Y0121705D02*
X0188000Y0115705D01*
X0198000Y0114705D02*
X0198000Y0120705D01*
X0223000Y0121705D02*
X0223000Y0115705D01*
X0233000Y0114705D02*
X0233000Y0120705D01*
X0243000Y0121705D02*
X0243000Y0115705D01*
X0253000Y0114705D02*
X0253000Y0120705D01*
X0263000Y0121705D02*
X0263000Y0115705D01*
X0273000Y0114705D02*
X0273000Y0120705D01*
X0283000Y0121705D02*
X0283000Y0115705D01*
X0293000Y0114705D02*
X0293000Y0120705D01*
X0017705Y0353000D02*
X0011705Y0353000D01*
X0012705Y0363000D02*
X0018705Y0363000D01*
X0017705Y0373000D02*
X0011705Y0373000D01*
X0012705Y0383000D02*
X0018705Y0383000D01*
D20*
X0358000Y0391000D03*
D21*
X0358000Y0371000D03*
D22*
X0343500Y0356000D03*
X0343500Y0326000D03*
X0333000Y0146000D03*
X0333000Y0116000D03*
D23*
X0388000Y0371000D03*
D24*
X0388000Y0381000D03*
D25*
X0356000Y0125000D03*
X0356000Y0115000D03*
X0346000Y0115000D03*
X0346000Y0125000D03*
X0114500Y0144000D03*
X0114500Y0154000D03*
X0104500Y0154000D03*
X0104500Y0144000D03*
X0094500Y0144000D03*
X0094500Y0154000D03*
X0083000Y0132000D03*
X0083000Y0122000D03*
X0083000Y0112000D03*
X0073000Y0112000D03*
X0073000Y0122000D03*
X0073000Y0132000D03*
X0050000Y0132000D03*
X0050000Y0122000D03*
X0050000Y0112000D03*
X0040000Y0112000D03*
X0040000Y0122000D03*
X0040000Y0132000D03*
X0040000Y0396000D03*
X0040000Y0406000D03*
X0040000Y0416000D03*
X0050000Y0416000D03*
X0050000Y0406000D03*
X0050000Y0396000D03*
D26*
X0097500Y0273500D03*
X0108500Y0164000D03*
X0102500Y0131000D03*
X0220000Y0146500D03*
X0313000Y0166500D03*
X0313000Y0179000D03*
X0313000Y0191500D03*
X0317000Y0137500D03*
X0317000Y0125500D03*
D27*
X0322000Y0125500D03*
X0322000Y0137500D03*
X0318000Y0166500D03*
X0318000Y0179000D03*
X0318000Y0191500D03*
X0225000Y0146500D03*
X0103500Y0164000D03*
X0097500Y0131000D03*
X0102500Y0273500D03*
D28*
X0103450Y0273500D02*
X0101328Y0273500D01*
X0101264Y0272899D01*
X0101073Y0272325D01*
X0100764Y0271805D01*
X0100352Y0271362D01*
X0099856Y0271018D01*
X0099297Y0270786D01*
X0098702Y0270679D01*
X0098097Y0270700D01*
X0097512Y0270850D01*
X0096971Y0271121D01*
X0096500Y0271500D01*
X0095000Y0270000D01*
X0095688Y0269426D01*
X0096469Y0268986D01*
X0097315Y0268694D01*
X0098201Y0268559D01*
X0099097Y0268586D01*
X0099973Y0268774D01*
X0100800Y0269117D01*
X0101553Y0269604D01*
X0102205Y0270218D01*
X0102736Y0270939D01*
X0103128Y0271745D01*
X0103369Y0272608D01*
X0103450Y0273500D01*
X0103369Y0274392D01*
X0103128Y0275255D01*
X0102736Y0276061D01*
X0102205Y0276782D01*
X0101553Y0277396D01*
X0100800Y0277883D01*
X0099973Y0278226D01*
X0099097Y0278414D01*
X0098201Y0278441D01*
X0097315Y0278306D01*
X0096469Y0278014D01*
X0095688Y0277574D01*
X0095000Y0277000D01*
X0096500Y0275500D01*
X0096971Y0275879D01*
X0097512Y0276150D01*
X0098097Y0276300D01*
X0098702Y0276321D01*
X0099297Y0276214D01*
X0099856Y0275982D01*
X0100352Y0275638D01*
X0100764Y0275195D01*
X0101073Y0274675D01*
X0101264Y0274101D01*
X0101328Y0273500D01*
X0101275Y0273998D02*
X0103404Y0273998D01*
X0103340Y0274497D02*
X0101132Y0274497D01*
X0100883Y0274995D02*
X0103201Y0274995D01*
X0103012Y0275494D02*
X0100486Y0275494D01*
X0099832Y0275992D02*
X0102769Y0275992D01*
X0102419Y0276491D02*
X0095509Y0276491D01*
X0095011Y0276989D02*
X0101985Y0276989D01*
X0101411Y0277488D02*
X0095585Y0277488D01*
X0096420Y0277986D02*
X0100550Y0277986D01*
X0099149Y0275068D02*
X0098765Y0275176D01*
X0098367Y0275192D01*
X0097976Y0275114D01*
X0097613Y0274947D01*
X0097300Y0274700D01*
X0097300Y0274500D01*
X0097300Y0272500D01*
X0097300Y0272300D01*
X0097613Y0272053D01*
X0097976Y0271886D01*
X0098367Y0271808D01*
X0098765Y0271824D01*
X0099149Y0271932D01*
X0099498Y0272127D01*
X0099790Y0272398D01*
X0100012Y0272730D01*
X0100150Y0273104D01*
X0100197Y0273500D01*
X0100150Y0273896D01*
X0100012Y0274270D01*
X0099790Y0274602D01*
X0099498Y0274873D01*
X0099149Y0275068D01*
X0099279Y0274995D02*
X0097718Y0274995D01*
X0097300Y0274497D02*
X0099861Y0274497D01*
X0100112Y0273998D02*
X0097300Y0273998D01*
X0097300Y0273500D02*
X0100197Y0273500D01*
X0100112Y0273001D02*
X0097300Y0273001D01*
X0097300Y0272503D02*
X0099861Y0272503D01*
X0099278Y0272004D02*
X0097719Y0272004D01*
X0097197Y0271007D02*
X0096007Y0271007D01*
X0095509Y0270509D02*
X0102419Y0270509D01*
X0102769Y0271007D02*
X0099831Y0271007D01*
X0100486Y0271506D02*
X0103012Y0271506D01*
X0103200Y0272004D02*
X0100883Y0272004D01*
X0101132Y0272503D02*
X0103339Y0272503D01*
X0103404Y0273001D02*
X0101275Y0273001D01*
X0101985Y0270010D02*
X0095010Y0270010D01*
X0095586Y0269512D02*
X0101410Y0269512D01*
X0100549Y0269013D02*
X0096421Y0269013D01*
X0096008Y0275992D02*
X0097196Y0275992D01*
X0171104Y0327947D02*
X0171718Y0327295D01*
X0172439Y0326764D01*
X0173245Y0326372D01*
X0174108Y0326131D01*
X0175000Y0326050D01*
X0175892Y0326131D01*
X0176755Y0326372D01*
X0177561Y0326764D01*
X0178282Y0327295D01*
X0178896Y0327947D01*
X0179383Y0328700D01*
X0179726Y0329527D01*
X0179914Y0330403D01*
X0179941Y0331299D01*
X0179806Y0332185D01*
X0179514Y0333031D01*
X0179074Y0333812D01*
X0178500Y0334500D01*
X0177000Y0333000D01*
X0177379Y0332529D01*
X0177650Y0331988D01*
X0177800Y0331403D01*
X0177821Y0330798D01*
X0177714Y0330203D01*
X0177482Y0329644D01*
X0177138Y0329148D01*
X0176695Y0328736D01*
X0176175Y0328427D01*
X0175601Y0328236D01*
X0175000Y0328172D01*
X0174399Y0328236D01*
X0173825Y0328427D01*
X0173305Y0328736D01*
X0172862Y0329148D01*
X0172518Y0329644D01*
X0172286Y0330203D01*
X0172179Y0330798D01*
X0172200Y0331403D01*
X0172350Y0331988D01*
X0172621Y0332529D01*
X0173000Y0333000D01*
X0171500Y0334500D01*
X0170926Y0333812D01*
X0170486Y0333031D01*
X0170194Y0332185D01*
X0170059Y0331299D01*
X0170086Y0330403D01*
X0170274Y0329527D01*
X0170617Y0328700D01*
X0171104Y0327947D01*
X0171207Y0327838D02*
X0178793Y0327838D01*
X0179148Y0328336D02*
X0175901Y0328336D01*
X0176801Y0328835D02*
X0179439Y0328835D01*
X0179645Y0329333D02*
X0177266Y0329333D01*
X0177560Y0329832D02*
X0179791Y0329832D01*
X0179898Y0330330D02*
X0177737Y0330330D01*
X0177820Y0330829D02*
X0179927Y0330829D01*
X0179936Y0331327D02*
X0177802Y0331327D01*
X0177692Y0331826D02*
X0179861Y0331826D01*
X0179758Y0332324D02*
X0177482Y0332324D01*
X0177143Y0332823D02*
X0179586Y0332823D01*
X0179350Y0333321D02*
X0177321Y0333321D01*
X0177820Y0333820D02*
X0179067Y0333820D01*
X0178652Y0334318D02*
X0178318Y0334318D01*
X0176200Y0332200D02*
X0176000Y0332200D01*
X0174000Y0332200D01*
X0173800Y0332200D01*
X0173553Y0331887D01*
X0173386Y0331524D01*
X0173308Y0331133D01*
X0173324Y0330735D01*
X0173432Y0330351D01*
X0173627Y0330002D01*
X0173898Y0329710D01*
X0174230Y0329488D01*
X0174604Y0329350D01*
X0175000Y0329303D01*
X0175396Y0329350D01*
X0175770Y0329488D01*
X0176102Y0329710D01*
X0176373Y0330002D01*
X0176568Y0330351D01*
X0176676Y0330735D01*
X0176692Y0331133D01*
X0176614Y0331524D01*
X0176447Y0331887D01*
X0176200Y0332200D01*
X0176475Y0331826D02*
X0173525Y0331826D01*
X0173347Y0331327D02*
X0176653Y0331327D01*
X0176680Y0330829D02*
X0173320Y0330829D01*
X0173444Y0330330D02*
X0176556Y0330330D01*
X0176215Y0329832D02*
X0173785Y0329832D01*
X0174745Y0329333D02*
X0175255Y0329333D01*
X0174099Y0328336D02*
X0170852Y0328336D01*
X0170561Y0328835D02*
X0173199Y0328835D01*
X0172734Y0329333D02*
X0170355Y0329333D01*
X0170209Y0329832D02*
X0172440Y0329832D01*
X0172263Y0330330D02*
X0170102Y0330330D01*
X0170073Y0330829D02*
X0172180Y0330829D01*
X0172198Y0331327D02*
X0170064Y0331327D01*
X0170139Y0331826D02*
X0172308Y0331826D01*
X0172518Y0332324D02*
X0170242Y0332324D01*
X0170414Y0332823D02*
X0172857Y0332823D01*
X0172679Y0333321D02*
X0170650Y0333321D01*
X0170933Y0333820D02*
X0172180Y0333820D01*
X0171682Y0334318D02*
X0171348Y0334318D01*
X0171676Y0327339D02*
X0178324Y0327339D01*
X0177665Y0326841D02*
X0172335Y0326841D01*
X0173352Y0326342D02*
X0176648Y0326342D01*
X0282086Y0321597D02*
X0282059Y0320701D01*
X0282194Y0319815D01*
X0282486Y0318969D01*
X0282926Y0318188D01*
X0283500Y0317500D01*
X0285000Y0319000D01*
X0284621Y0319471D01*
X0284350Y0320012D01*
X0284200Y0320597D01*
X0284179Y0321202D01*
X0284286Y0321797D01*
X0284518Y0322356D01*
X0284862Y0322852D01*
X0285305Y0323264D01*
X0285825Y0323573D01*
X0286399Y0323764D01*
X0287000Y0323828D01*
X0287601Y0323764D01*
X0288175Y0323573D01*
X0288695Y0323264D01*
X0289138Y0322852D01*
X0289482Y0322356D01*
X0289714Y0321797D01*
X0289821Y0321202D01*
X0289800Y0320597D01*
X0289650Y0320012D01*
X0289379Y0319471D01*
X0289000Y0319000D01*
X0290500Y0317500D01*
X0291074Y0318188D01*
X0291514Y0318969D01*
X0291806Y0319815D01*
X0291941Y0320701D01*
X0291914Y0321597D01*
X0291726Y0322473D01*
X0291383Y0323300D01*
X0290896Y0324053D01*
X0290282Y0324705D01*
X0289561Y0325236D01*
X0288755Y0325628D01*
X0287892Y0325869D01*
X0287000Y0325950D01*
X0286108Y0325869D01*
X0285245Y0325628D01*
X0284439Y0325236D01*
X0283718Y0324705D01*
X0283104Y0324053D01*
X0282617Y0323300D01*
X0282274Y0322473D01*
X0282086Y0321597D01*
X0282079Y0321357D02*
X0284207Y0321357D01*
X0284191Y0320858D02*
X0282064Y0320858D01*
X0282111Y0320360D02*
X0284261Y0320360D01*
X0284425Y0319861D02*
X0282187Y0319861D01*
X0282350Y0319363D02*
X0284708Y0319363D01*
X0284864Y0318864D02*
X0282545Y0318864D01*
X0282826Y0318366D02*
X0284366Y0318366D01*
X0283867Y0317867D02*
X0283194Y0317867D01*
X0285752Y0319861D02*
X0288248Y0319861D01*
X0288200Y0319800D02*
X0288447Y0320113D01*
X0288614Y0320476D01*
X0288692Y0320867D01*
X0288676Y0321265D01*
X0288568Y0321649D01*
X0288373Y0321998D01*
X0288102Y0322290D01*
X0287770Y0322512D01*
X0287396Y0322650D01*
X0287000Y0322697D01*
X0286604Y0322650D01*
X0286230Y0322512D01*
X0285898Y0322290D01*
X0285627Y0321998D01*
X0285432Y0321649D01*
X0285324Y0321265D01*
X0285308Y0320867D01*
X0285386Y0320476D01*
X0285553Y0320113D01*
X0285800Y0319800D01*
X0286000Y0319800D01*
X0288000Y0319800D01*
X0288200Y0319800D01*
X0288561Y0320360D02*
X0285439Y0320360D01*
X0285310Y0320858D02*
X0288690Y0320858D01*
X0288650Y0321357D02*
X0285350Y0321357D01*
X0285547Y0321855D02*
X0288453Y0321855D01*
X0288007Y0322354D02*
X0285993Y0322354D01*
X0285451Y0323351D02*
X0282650Y0323351D01*
X0282432Y0322852D02*
X0284863Y0322852D01*
X0284517Y0322354D02*
X0282249Y0322354D01*
X0282142Y0321855D02*
X0284310Y0321855D01*
X0282972Y0323849D02*
X0291028Y0323849D01*
X0291350Y0323351D02*
X0288549Y0323351D01*
X0289137Y0322852D02*
X0291568Y0322852D01*
X0291751Y0322354D02*
X0289483Y0322354D01*
X0289690Y0321855D02*
X0291858Y0321855D01*
X0291921Y0321357D02*
X0289793Y0321357D01*
X0289809Y0320858D02*
X0291936Y0320858D01*
X0291889Y0320360D02*
X0289739Y0320360D01*
X0289575Y0319861D02*
X0291813Y0319861D01*
X0291650Y0319363D02*
X0289292Y0319363D01*
X0289136Y0318864D02*
X0291455Y0318864D01*
X0291174Y0318366D02*
X0289634Y0318366D01*
X0290133Y0317867D02*
X0290806Y0317867D01*
X0290618Y0324348D02*
X0283382Y0324348D01*
X0283910Y0324846D02*
X0290090Y0324846D01*
X0289337Y0325345D02*
X0284663Y0325345D01*
X0286017Y0325843D02*
X0287983Y0325843D01*
X0292000Y0275950D02*
X0291108Y0275869D01*
X0290245Y0275628D01*
X0289439Y0275236D01*
X0288718Y0274705D01*
X0288104Y0274053D01*
X0287617Y0273300D01*
X0287274Y0272473D01*
X0287086Y0271597D01*
X0287059Y0270701D01*
X0287194Y0269815D01*
X0287486Y0268969D01*
X0287926Y0268188D01*
X0288500Y0267500D01*
X0290000Y0269000D01*
X0289621Y0269471D01*
X0289350Y0270012D01*
X0289200Y0270597D01*
X0289179Y0271202D01*
X0289286Y0271797D01*
X0289518Y0272356D01*
X0289862Y0272852D01*
X0290305Y0273264D01*
X0290825Y0273573D01*
X0291399Y0273764D01*
X0292000Y0273828D01*
X0292601Y0273764D01*
X0293175Y0273573D01*
X0293695Y0273264D01*
X0294138Y0272852D01*
X0294482Y0272356D01*
X0294714Y0271797D01*
X0294821Y0271202D01*
X0294800Y0270597D01*
X0294650Y0270012D01*
X0294379Y0269471D01*
X0294000Y0269000D01*
X0295500Y0267500D01*
X0296074Y0268188D01*
X0296514Y0268969D01*
X0296806Y0269815D01*
X0296941Y0270701D01*
X0296914Y0271597D01*
X0296726Y0272473D01*
X0296383Y0273300D01*
X0295896Y0274053D01*
X0295282Y0274705D01*
X0294561Y0275236D01*
X0293755Y0275628D01*
X0292892Y0275869D01*
X0292000Y0275950D01*
X0289969Y0275494D02*
X0294031Y0275494D01*
X0294888Y0274995D02*
X0289112Y0274995D01*
X0288522Y0274497D02*
X0295478Y0274497D01*
X0295931Y0273998D02*
X0288069Y0273998D01*
X0287746Y0273500D02*
X0290702Y0273500D01*
X0290023Y0273001D02*
X0287493Y0273001D01*
X0287287Y0272503D02*
X0289620Y0272503D01*
X0289372Y0272004D02*
X0287174Y0272004D01*
X0287084Y0271506D02*
X0289234Y0271506D01*
X0289186Y0271007D02*
X0287069Y0271007D01*
X0287089Y0270509D02*
X0289223Y0270509D01*
X0289351Y0270010D02*
X0287164Y0270010D01*
X0287299Y0269512D02*
X0289600Y0269512D01*
X0289989Y0269013D02*
X0287471Y0269013D01*
X0287742Y0268515D02*
X0289515Y0268515D01*
X0289016Y0268016D02*
X0288070Y0268016D01*
X0288485Y0267518D02*
X0288518Y0267518D01*
X0290800Y0269800D02*
X0291000Y0269800D01*
X0293000Y0269800D01*
X0293200Y0269800D01*
X0293447Y0270113D01*
X0293614Y0270476D01*
X0293692Y0270867D01*
X0293676Y0271265D01*
X0293568Y0271649D01*
X0293373Y0271998D01*
X0293102Y0272290D01*
X0292770Y0272512D01*
X0292396Y0272650D01*
X0292000Y0272697D01*
X0291604Y0272650D01*
X0291230Y0272512D01*
X0290898Y0272290D01*
X0290627Y0271998D01*
X0290432Y0271649D01*
X0290324Y0271265D01*
X0290308Y0270867D01*
X0290386Y0270476D01*
X0290553Y0270113D01*
X0290800Y0269800D01*
X0290634Y0270010D02*
X0293366Y0270010D01*
X0293621Y0270509D02*
X0290379Y0270509D01*
X0290314Y0271007D02*
X0293686Y0271007D01*
X0293608Y0271506D02*
X0290392Y0271506D01*
X0290633Y0272004D02*
X0293367Y0272004D01*
X0292784Y0272503D02*
X0291216Y0272503D01*
X0293298Y0273500D02*
X0296254Y0273500D01*
X0296507Y0273001D02*
X0293977Y0273001D01*
X0294380Y0272503D02*
X0296713Y0272503D01*
X0296826Y0272004D02*
X0294628Y0272004D01*
X0294766Y0271506D02*
X0296916Y0271506D01*
X0296931Y0271007D02*
X0294814Y0271007D01*
X0294777Y0270509D02*
X0296911Y0270509D01*
X0296836Y0270010D02*
X0294649Y0270010D01*
X0294400Y0269512D02*
X0296701Y0269512D01*
X0296529Y0269013D02*
X0294011Y0269013D01*
X0294485Y0268515D02*
X0296258Y0268515D01*
X0295930Y0268016D02*
X0294984Y0268016D01*
X0295482Y0267518D02*
X0295515Y0267518D01*
X0312815Y0196306D02*
X0313701Y0196441D01*
X0314597Y0196414D01*
X0315473Y0196226D01*
X0316300Y0195883D01*
X0317053Y0195396D01*
X0317705Y0194782D01*
X0318236Y0194061D01*
X0318628Y0193255D01*
X0318869Y0192392D01*
X0318950Y0191500D01*
X0318869Y0190608D01*
X0318628Y0189745D01*
X0318236Y0188939D01*
X0317705Y0188218D01*
X0317053Y0187604D01*
X0316300Y0187117D01*
X0315473Y0186774D01*
X0314597Y0186586D01*
X0313701Y0186559D01*
X0312815Y0186694D01*
X0311969Y0186986D01*
X0311188Y0187426D01*
X0310500Y0188000D01*
X0312000Y0189500D01*
X0312471Y0189121D01*
X0313012Y0188850D01*
X0313597Y0188700D01*
X0314202Y0188679D01*
X0314797Y0188786D01*
X0315356Y0189018D01*
X0315852Y0189362D01*
X0316264Y0189805D01*
X0316573Y0190325D01*
X0316764Y0190899D01*
X0316828Y0191500D01*
X0316764Y0192101D01*
X0316573Y0192675D01*
X0316264Y0193195D01*
X0315852Y0193638D01*
X0315356Y0193982D01*
X0314797Y0194214D01*
X0314202Y0194321D01*
X0313597Y0194300D01*
X0313012Y0194150D01*
X0312471Y0193879D01*
X0312000Y0193500D01*
X0310500Y0195000D01*
X0311188Y0195574D01*
X0311969Y0196014D01*
X0312815Y0196306D01*
X0312597Y0196231D02*
X0315450Y0196231D01*
X0316533Y0195732D02*
X0311469Y0195732D01*
X0310780Y0195234D02*
X0317226Y0195234D01*
X0317740Y0194735D02*
X0310765Y0194735D01*
X0311263Y0194237D02*
X0313350Y0194237D01*
X0313476Y0193114D02*
X0313113Y0192947D01*
X0312800Y0192700D01*
X0312800Y0192500D01*
X0312800Y0190500D01*
X0312800Y0190300D01*
X0313113Y0190053D01*
X0313476Y0189886D01*
X0313867Y0189808D01*
X0314265Y0189824D01*
X0314649Y0189932D01*
X0314998Y0190127D01*
X0315290Y0190398D01*
X0315512Y0190730D01*
X0315650Y0191104D01*
X0315697Y0191500D01*
X0315650Y0191896D01*
X0315512Y0192270D01*
X0315290Y0192602D01*
X0314998Y0192873D01*
X0314649Y0193068D01*
X0314265Y0193176D01*
X0313867Y0193192D01*
X0313476Y0193114D01*
X0312852Y0192741D02*
X0315140Y0192741D01*
X0315522Y0192242D02*
X0312800Y0192242D01*
X0312800Y0191744D02*
X0315668Y0191744D01*
X0315667Y0191245D02*
X0312800Y0191245D01*
X0312800Y0190747D02*
X0315518Y0190747D01*
X0315129Y0190248D02*
X0312865Y0190248D01*
X0312309Y0189251D02*
X0311751Y0189251D01*
X0311253Y0188753D02*
X0313392Y0188753D01*
X0314612Y0188753D02*
X0318099Y0188753D01*
X0318388Y0189251D02*
X0315692Y0189251D01*
X0316213Y0189750D02*
X0318630Y0189750D01*
X0318768Y0190248D02*
X0316527Y0190248D01*
X0316713Y0190747D02*
X0318881Y0190747D01*
X0318927Y0191245D02*
X0316801Y0191245D01*
X0316802Y0191744D02*
X0318928Y0191744D01*
X0318882Y0192242D02*
X0316717Y0192242D01*
X0316534Y0192741D02*
X0318771Y0192741D01*
X0318632Y0193239D02*
X0316223Y0193239D01*
X0315708Y0193738D02*
X0318393Y0193738D01*
X0318107Y0194237D02*
X0314671Y0194237D01*
X0312295Y0193738D02*
X0311762Y0193738D01*
X0310754Y0188254D02*
X0317732Y0188254D01*
X0317214Y0187756D02*
X0310793Y0187756D01*
X0311488Y0187257D02*
X0316517Y0187257D01*
X0315400Y0186759D02*
X0312628Y0186759D01*
X0312815Y0183806D02*
X0311969Y0183514D01*
X0311188Y0183074D01*
X0310500Y0182500D01*
X0312000Y0181000D01*
X0312471Y0181379D01*
X0313012Y0181650D01*
X0313597Y0181800D01*
X0314202Y0181821D01*
X0314797Y0181714D01*
X0315356Y0181482D01*
X0315852Y0181138D01*
X0316264Y0180695D01*
X0316573Y0180175D01*
X0316764Y0179601D01*
X0316828Y0179000D01*
X0316764Y0178399D01*
X0316573Y0177825D01*
X0316264Y0177305D01*
X0315852Y0176862D01*
X0315356Y0176518D01*
X0314797Y0176286D01*
X0314202Y0176179D01*
X0313597Y0176200D01*
X0313012Y0176350D01*
X0312471Y0176621D01*
X0312000Y0177000D01*
X0310500Y0175500D01*
X0311188Y0174926D01*
X0311969Y0174486D01*
X0312815Y0174194D01*
X0313701Y0174059D01*
X0314597Y0174086D01*
X0315473Y0174274D01*
X0316300Y0174617D01*
X0317053Y0175104D01*
X0317705Y0175718D01*
X0318236Y0176439D01*
X0318628Y0177245D01*
X0318869Y0178108D01*
X0318950Y0179000D01*
X0318869Y0179892D01*
X0318628Y0180755D01*
X0318236Y0181561D01*
X0317705Y0182282D01*
X0317053Y0182896D01*
X0316300Y0183383D01*
X0315473Y0183726D01*
X0314597Y0183914D01*
X0313701Y0183941D01*
X0312815Y0183806D01*
X0312705Y0183768D02*
X0315276Y0183768D01*
X0316476Y0183269D02*
X0311535Y0183269D01*
X0310825Y0182771D02*
X0317186Y0182771D01*
X0317712Y0182272D02*
X0310728Y0182272D01*
X0311226Y0181774D02*
X0313496Y0181774D01*
X0314465Y0181774D02*
X0318079Y0181774D01*
X0318375Y0181275D02*
X0315654Y0181275D01*
X0316188Y0180777D02*
X0318618Y0180777D01*
X0318761Y0180278D02*
X0316512Y0180278D01*
X0316704Y0179780D02*
X0318879Y0179780D01*
X0318924Y0179281D02*
X0316798Y0179281D01*
X0316805Y0178783D02*
X0318930Y0178783D01*
X0318885Y0178284D02*
X0316726Y0178284D01*
X0316549Y0177786D02*
X0318779Y0177786D01*
X0318640Y0177287D02*
X0316248Y0177287D01*
X0315746Y0176789D02*
X0318406Y0176789D01*
X0318126Y0176290D02*
X0314806Y0176290D01*
X0314649Y0177432D02*
X0314998Y0177627D01*
X0315290Y0177898D01*
X0315512Y0178230D01*
X0315650Y0178604D01*
X0315697Y0179000D01*
X0315650Y0179396D01*
X0315512Y0179770D01*
X0315290Y0180102D01*
X0314998Y0180373D01*
X0314649Y0180568D01*
X0314265Y0180676D01*
X0313867Y0180692D01*
X0313476Y0180614D01*
X0313113Y0180447D01*
X0312800Y0180200D01*
X0312800Y0180000D01*
X0312800Y0178000D01*
X0312800Y0177800D01*
X0313113Y0177553D01*
X0313476Y0177386D01*
X0313867Y0177308D01*
X0314265Y0177324D01*
X0314649Y0177432D01*
X0315169Y0177786D02*
X0312818Y0177786D01*
X0312800Y0178284D02*
X0315532Y0178284D01*
X0315671Y0178783D02*
X0312800Y0178783D01*
X0312800Y0179281D02*
X0315664Y0179281D01*
X0315506Y0179780D02*
X0312800Y0179780D01*
X0312899Y0180278D02*
X0315100Y0180278D01*
X0312342Y0181275D02*
X0311725Y0181275D01*
X0311789Y0176789D02*
X0312262Y0176789D01*
X0311290Y0176290D02*
X0313246Y0176290D01*
X0312520Y0174296D02*
X0315525Y0174296D01*
X0316575Y0174795D02*
X0311422Y0174795D01*
X0310748Y0175293D02*
X0317254Y0175293D01*
X0317759Y0175792D02*
X0310792Y0175792D01*
X0311969Y0171014D02*
X0311188Y0170574D01*
X0310500Y0170000D01*
X0312000Y0168500D01*
X0312471Y0168879D01*
X0313012Y0169150D01*
X0313597Y0169300D01*
X0314202Y0169321D01*
X0314797Y0169214D01*
X0315356Y0168982D01*
X0315852Y0168638D01*
X0316264Y0168195D01*
X0316573Y0167675D01*
X0316764Y0167101D01*
X0316828Y0166500D01*
X0316764Y0165899D01*
X0316573Y0165325D01*
X0316264Y0164805D01*
X0315852Y0164362D01*
X0315356Y0164018D01*
X0314797Y0163786D01*
X0314202Y0163679D01*
X0313597Y0163700D01*
X0313012Y0163850D01*
X0312471Y0164121D01*
X0312000Y0164500D01*
X0310500Y0163000D01*
X0311188Y0162426D01*
X0311969Y0161986D01*
X0312815Y0161694D01*
X0313701Y0161559D01*
X0314597Y0161586D01*
X0315473Y0161774D01*
X0316300Y0162117D01*
X0317053Y0162604D01*
X0317705Y0163218D01*
X0318236Y0163939D01*
X0318628Y0164745D01*
X0318869Y0165608D01*
X0318950Y0166500D01*
X0318869Y0167392D01*
X0318628Y0168255D01*
X0318236Y0169061D01*
X0317705Y0169782D01*
X0317053Y0170396D01*
X0316300Y0170883D01*
X0315473Y0171226D01*
X0314597Y0171414D01*
X0313701Y0171441D01*
X0312815Y0171306D01*
X0311969Y0171014D01*
X0311601Y0170806D02*
X0316418Y0170806D01*
X0317147Y0170308D02*
X0310870Y0170308D01*
X0310691Y0169809D02*
X0317676Y0169809D01*
X0318052Y0169311D02*
X0314259Y0169311D01*
X0313914Y0169311D02*
X0311189Y0169311D01*
X0311688Y0168812D02*
X0312388Y0168812D01*
X0313113Y0167947D02*
X0312800Y0167700D01*
X0312800Y0167500D01*
X0312800Y0165500D01*
X0312800Y0165300D01*
X0313113Y0165053D01*
X0313476Y0164886D01*
X0313867Y0164808D01*
X0314265Y0164824D01*
X0314649Y0164932D01*
X0314998Y0165127D01*
X0315290Y0165398D01*
X0315512Y0165730D01*
X0315650Y0166104D01*
X0315697Y0166500D01*
X0315650Y0166896D01*
X0315512Y0167270D01*
X0315290Y0167602D01*
X0314998Y0167873D01*
X0314649Y0168068D01*
X0314265Y0168176D01*
X0313867Y0168192D01*
X0313476Y0168114D01*
X0313113Y0167947D01*
X0312946Y0167815D02*
X0315060Y0167815D01*
X0315481Y0167317D02*
X0312800Y0167317D01*
X0312800Y0166818D02*
X0315659Y0166818D01*
X0315676Y0166320D02*
X0312800Y0166320D01*
X0312800Y0165821D02*
X0315546Y0165821D01*
X0315209Y0165323D02*
X0312800Y0165323D01*
X0313786Y0164824D02*
X0314267Y0164824D01*
X0314896Y0163827D02*
X0318153Y0163827D01*
X0318424Y0164326D02*
X0315800Y0164326D01*
X0316276Y0164824D02*
X0318650Y0164824D01*
X0318789Y0165323D02*
X0316572Y0165323D01*
X0316738Y0165821D02*
X0318888Y0165821D01*
X0318933Y0166320D02*
X0316809Y0166320D01*
X0316794Y0166818D02*
X0318921Y0166818D01*
X0318876Y0167317D02*
X0316692Y0167317D01*
X0316489Y0167815D02*
X0318751Y0167815D01*
X0318600Y0168314D02*
X0316154Y0168314D01*
X0315600Y0168812D02*
X0318357Y0168812D01*
X0315103Y0171305D02*
X0312813Y0171305D01*
X0312216Y0164326D02*
X0311826Y0164326D01*
X0311327Y0163827D02*
X0313100Y0163827D01*
X0312412Y0161833D02*
X0315615Y0161833D01*
X0316632Y0162332D02*
X0311356Y0162332D01*
X0310704Y0162830D02*
X0317293Y0162830D01*
X0317787Y0163329D02*
X0310829Y0163329D01*
X0316815Y0142306D02*
X0315969Y0142014D01*
X0315188Y0141574D01*
X0314500Y0141000D01*
X0316000Y0139500D01*
X0316471Y0139879D01*
X0317012Y0140150D01*
X0317597Y0140300D01*
X0318202Y0140321D01*
X0318797Y0140214D01*
X0319356Y0139982D01*
X0319852Y0139638D01*
X0320264Y0139195D01*
X0320573Y0138675D01*
X0320764Y0138101D01*
X0320828Y0137500D01*
X0320764Y0136899D01*
X0320573Y0136325D01*
X0320264Y0135805D01*
X0319852Y0135362D01*
X0319356Y0135018D01*
X0318797Y0134786D01*
X0318202Y0134679D01*
X0317597Y0134700D01*
X0317012Y0134850D01*
X0316471Y0135121D01*
X0316000Y0135500D01*
X0314500Y0134000D01*
X0315188Y0133426D01*
X0315969Y0132986D01*
X0316815Y0132694D01*
X0317701Y0132559D01*
X0318597Y0132586D01*
X0319473Y0132774D01*
X0320300Y0133117D01*
X0321053Y0133604D01*
X0321705Y0134218D01*
X0322236Y0134939D01*
X0322628Y0135745D01*
X0322869Y0136608D01*
X0322950Y0137500D01*
X0322869Y0138392D01*
X0322628Y0139255D01*
X0322236Y0140061D01*
X0321705Y0140782D01*
X0321053Y0141396D01*
X0320300Y0141883D01*
X0319473Y0142226D01*
X0318597Y0142414D01*
X0317701Y0142441D01*
X0316815Y0142306D01*
X0317377Y0142391D02*
X0318701Y0142391D01*
X0320276Y0141893D02*
X0315754Y0141893D01*
X0314973Y0141394D02*
X0321055Y0141394D01*
X0321584Y0140896D02*
X0314604Y0140896D01*
X0315103Y0140397D02*
X0321988Y0140397D01*
X0322315Y0139899D02*
X0319476Y0139899D01*
X0320073Y0139400D02*
X0322557Y0139400D01*
X0322727Y0138902D02*
X0320438Y0138902D01*
X0320663Y0138403D02*
X0322866Y0138403D01*
X0322913Y0137905D02*
X0320785Y0137905D01*
X0320818Y0137406D02*
X0322941Y0137406D01*
X0322896Y0136908D02*
X0320765Y0136908D01*
X0320601Y0136409D02*
X0322813Y0136409D01*
X0322674Y0135911D02*
X0320327Y0135911D01*
X0319899Y0135412D02*
X0322466Y0135412D01*
X0322217Y0134914D02*
X0319105Y0134914D01*
X0318649Y0135932D02*
X0318998Y0136127D01*
X0319290Y0136398D01*
X0319512Y0136730D01*
X0319650Y0137104D01*
X0319697Y0137500D01*
X0319650Y0137896D01*
X0319512Y0138270D01*
X0319290Y0138602D01*
X0318998Y0138873D01*
X0318649Y0139068D01*
X0318265Y0139176D01*
X0317867Y0139192D01*
X0317476Y0139114D01*
X0317113Y0138947D01*
X0316800Y0138700D01*
X0316800Y0138500D01*
X0316800Y0136500D01*
X0316800Y0136300D01*
X0317113Y0136053D01*
X0317476Y0135886D01*
X0317867Y0135808D01*
X0318265Y0135824D01*
X0318649Y0135932D01*
X0318573Y0135911D02*
X0317422Y0135911D01*
X0316800Y0136409D02*
X0319298Y0136409D01*
X0319578Y0136908D02*
X0316800Y0136908D01*
X0316800Y0137406D02*
X0319686Y0137406D01*
X0319647Y0137905D02*
X0316800Y0137905D01*
X0316800Y0138403D02*
X0319423Y0138403D01*
X0318946Y0138902D02*
X0317056Y0138902D01*
X0316509Y0139899D02*
X0315601Y0139899D01*
X0315912Y0135412D02*
X0316109Y0135412D01*
X0315414Y0134914D02*
X0316884Y0134914D01*
X0314915Y0134415D02*
X0321850Y0134415D01*
X0321385Y0133917D02*
X0314600Y0133917D01*
X0315203Y0133418D02*
X0320766Y0133418D01*
X0319823Y0132920D02*
X0316162Y0132920D01*
X0316815Y0130306D02*
X0315969Y0130014D01*
X0315188Y0129574D01*
X0314500Y0129000D01*
X0316000Y0127500D01*
X0316471Y0127879D01*
X0317012Y0128150D01*
X0317597Y0128300D01*
X0318202Y0128321D01*
X0318797Y0128214D01*
X0319356Y0127982D01*
X0319852Y0127638D01*
X0320264Y0127195D01*
X0320573Y0126675D01*
X0320764Y0126101D01*
X0320828Y0125500D01*
X0320764Y0124899D01*
X0320573Y0124325D01*
X0320264Y0123805D01*
X0319852Y0123362D01*
X0319356Y0123018D01*
X0318797Y0122786D01*
X0318202Y0122679D01*
X0317597Y0122700D01*
X0317012Y0122850D01*
X0316471Y0123121D01*
X0316000Y0123500D01*
X0314500Y0122000D01*
X0315188Y0121426D01*
X0315969Y0120986D01*
X0316815Y0120694D01*
X0317701Y0120559D01*
X0318597Y0120586D01*
X0319473Y0120774D01*
X0320300Y0121117D01*
X0321053Y0121604D01*
X0321705Y0122218D01*
X0322236Y0122939D01*
X0322628Y0123745D01*
X0322869Y0124608D01*
X0322950Y0125500D01*
X0322869Y0126392D01*
X0322628Y0127255D01*
X0322236Y0128061D01*
X0321705Y0128782D01*
X0321053Y0129396D01*
X0320300Y0129883D01*
X0319473Y0130226D01*
X0318597Y0130414D01*
X0317701Y0130441D01*
X0316815Y0130306D01*
X0317611Y0130427D02*
X0318153Y0130427D01*
X0320190Y0129929D02*
X0315818Y0129929D01*
X0315016Y0129430D02*
X0321001Y0129430D01*
X0321546Y0128932D02*
X0314568Y0128932D01*
X0315067Y0128433D02*
X0321962Y0128433D01*
X0322297Y0127934D02*
X0319425Y0127934D01*
X0320040Y0127436D02*
X0322540Y0127436D01*
X0322717Y0126937D02*
X0320417Y0126937D01*
X0320651Y0126439D02*
X0322856Y0126439D01*
X0322910Y0125940D02*
X0320781Y0125940D01*
X0320822Y0125442D02*
X0322944Y0125442D01*
X0322899Y0124943D02*
X0320769Y0124943D01*
X0320613Y0124445D02*
X0322823Y0124445D01*
X0322684Y0123946D02*
X0320348Y0123946D01*
X0319932Y0123448D02*
X0322484Y0123448D01*
X0322241Y0122949D02*
X0319191Y0122949D01*
X0318649Y0123932D02*
X0318998Y0124127D01*
X0319290Y0124398D01*
X0319512Y0124730D01*
X0319650Y0125104D01*
X0319697Y0125500D01*
X0319650Y0125896D01*
X0319512Y0126270D01*
X0319290Y0126602D01*
X0318998Y0126873D01*
X0318649Y0127068D01*
X0318265Y0127176D01*
X0317867Y0127192D01*
X0317476Y0127114D01*
X0317113Y0126947D01*
X0316800Y0126700D01*
X0316800Y0126500D01*
X0316800Y0124500D01*
X0316800Y0124300D01*
X0317113Y0124053D01*
X0317476Y0123886D01*
X0317867Y0123808D01*
X0318265Y0123824D01*
X0318649Y0123932D01*
X0318675Y0123946D02*
X0317345Y0123946D01*
X0316800Y0124445D02*
X0319322Y0124445D01*
X0319591Y0124943D02*
X0316800Y0124943D01*
X0316800Y0125442D02*
X0319690Y0125442D01*
X0319634Y0125940D02*
X0316800Y0125940D01*
X0316800Y0126439D02*
X0319399Y0126439D01*
X0318882Y0126937D02*
X0317101Y0126937D01*
X0316581Y0127934D02*
X0315566Y0127934D01*
X0315948Y0123448D02*
X0316065Y0123448D01*
X0315449Y0122949D02*
X0316813Y0122949D01*
X0314951Y0122451D02*
X0321877Y0122451D01*
X0321423Y0121952D02*
X0314557Y0121952D01*
X0315155Y0121454D02*
X0320821Y0121454D01*
X0319909Y0120955D02*
X0316058Y0120955D01*
X0225869Y0145608D02*
X0225950Y0146500D01*
X0225869Y0147392D01*
X0225628Y0148255D01*
X0225236Y0149061D01*
X0224705Y0149782D01*
X0224053Y0150396D01*
X0223300Y0150883D01*
X0222473Y0151226D01*
X0221597Y0151414D01*
X0220701Y0151441D01*
X0219815Y0151306D01*
X0218969Y0151014D01*
X0218188Y0150574D01*
X0217500Y0150000D01*
X0219000Y0148500D01*
X0219471Y0148879D01*
X0220012Y0149150D01*
X0220597Y0149300D01*
X0221202Y0149321D01*
X0221797Y0149214D01*
X0222356Y0148982D01*
X0222852Y0148638D01*
X0223264Y0148195D01*
X0223573Y0147675D01*
X0223764Y0147101D01*
X0223828Y0146500D01*
X0223764Y0145899D01*
X0223573Y0145325D01*
X0223264Y0144805D01*
X0222852Y0144362D01*
X0222356Y0144018D01*
X0221797Y0143786D01*
X0221202Y0143679D01*
X0220597Y0143700D01*
X0220012Y0143850D01*
X0219471Y0144121D01*
X0219000Y0144500D01*
X0217500Y0143000D01*
X0218188Y0142426D01*
X0218969Y0141986D01*
X0219815Y0141694D01*
X0220701Y0141559D01*
X0221597Y0141586D01*
X0222473Y0141774D01*
X0223300Y0142117D01*
X0224053Y0142604D01*
X0224705Y0143218D01*
X0225236Y0143939D01*
X0225628Y0144745D01*
X0225869Y0145608D01*
X0225806Y0145382D02*
X0223592Y0145382D01*
X0223758Y0145881D02*
X0225893Y0145881D01*
X0225939Y0146379D02*
X0223815Y0146379D01*
X0223788Y0146878D02*
X0225915Y0146878D01*
X0225870Y0147376D02*
X0223672Y0147376D01*
X0223454Y0147875D02*
X0225734Y0147875D01*
X0225571Y0148373D02*
X0223098Y0148373D01*
X0222515Y0148872D02*
X0225328Y0148872D01*
X0225008Y0149370D02*
X0218130Y0149370D01*
X0218628Y0148872D02*
X0219462Y0148872D01*
X0220113Y0147947D02*
X0219800Y0147700D01*
X0219800Y0147500D01*
X0219800Y0145500D01*
X0219800Y0145300D01*
X0220113Y0145053D01*
X0220476Y0144886D01*
X0220867Y0144808D01*
X0221265Y0144824D01*
X0221649Y0144932D01*
X0221998Y0145127D01*
X0222290Y0145398D01*
X0222512Y0145730D01*
X0222650Y0146104D01*
X0222697Y0146500D01*
X0222650Y0146896D01*
X0222512Y0147270D01*
X0222290Y0147602D01*
X0221998Y0147873D01*
X0221649Y0148068D01*
X0221265Y0148176D01*
X0220867Y0148192D01*
X0220476Y0148114D01*
X0220113Y0147947D01*
X0220022Y0147875D02*
X0221994Y0147875D01*
X0222441Y0147376D02*
X0219800Y0147376D01*
X0219800Y0146878D02*
X0222652Y0146878D01*
X0222683Y0146379D02*
X0219800Y0146379D01*
X0219800Y0145881D02*
X0222568Y0145881D01*
X0222274Y0145382D02*
X0219800Y0145382D01*
X0220486Y0144884D02*
X0221478Y0144884D01*
X0222040Y0143887D02*
X0225197Y0143887D01*
X0225453Y0144385D02*
X0222874Y0144385D01*
X0223311Y0144884D02*
X0225667Y0144884D01*
X0224830Y0143388D02*
X0217888Y0143388D01*
X0217632Y0142890D02*
X0224357Y0142890D01*
X0223724Y0142391D02*
X0218250Y0142391D01*
X0219240Y0141893D02*
X0222759Y0141893D01*
X0219938Y0143887D02*
X0218387Y0143887D01*
X0218885Y0144385D02*
X0219142Y0144385D01*
X0217631Y0149869D02*
X0224613Y0149869D01*
X0224083Y0150368D02*
X0217941Y0150368D01*
X0218707Y0150866D02*
X0223326Y0150866D01*
X0221825Y0151365D02*
X0220201Y0151365D01*
X0167514Y0177969D02*
X0167806Y0178815D01*
X0167941Y0179701D01*
X0167914Y0180597D01*
X0167726Y0181473D01*
X0167383Y0182300D01*
X0166896Y0183053D01*
X0166282Y0183705D01*
X0165561Y0184236D01*
X0164755Y0184628D01*
X0163892Y0184869D01*
X0163000Y0184950D01*
X0162108Y0184869D01*
X0161245Y0184628D01*
X0160439Y0184236D01*
X0159718Y0183705D01*
X0159104Y0183053D01*
X0158617Y0182300D01*
X0158274Y0181473D01*
X0158086Y0180597D01*
X0158059Y0179701D01*
X0158194Y0178815D01*
X0158486Y0177969D01*
X0158926Y0177188D01*
X0159500Y0176500D01*
X0161000Y0178000D01*
X0160621Y0178471D01*
X0160350Y0179012D01*
X0160200Y0179597D01*
X0160179Y0180202D01*
X0160286Y0180797D01*
X0160518Y0181356D01*
X0160862Y0181852D01*
X0161305Y0182264D01*
X0161825Y0182573D01*
X0162399Y0182764D01*
X0163000Y0182828D01*
X0163601Y0182764D01*
X0164175Y0182573D01*
X0164695Y0182264D01*
X0165138Y0181852D01*
X0165482Y0181356D01*
X0165714Y0180797D01*
X0165821Y0180202D01*
X0165800Y0179597D01*
X0165650Y0179012D01*
X0165379Y0178471D01*
X0165000Y0178000D01*
X0166500Y0176500D01*
X0167074Y0177188D01*
X0167514Y0177969D01*
X0167410Y0177786D02*
X0165214Y0177786D01*
X0165229Y0178284D02*
X0167623Y0178284D01*
X0167795Y0178783D02*
X0165536Y0178783D01*
X0165719Y0179281D02*
X0167877Y0179281D01*
X0167938Y0179780D02*
X0165806Y0179780D01*
X0165807Y0180278D02*
X0167923Y0180278D01*
X0167875Y0180777D02*
X0165717Y0180777D01*
X0165516Y0181275D02*
X0167768Y0181275D01*
X0167601Y0181774D02*
X0165192Y0181774D01*
X0164682Y0182272D02*
X0167394Y0182272D01*
X0167079Y0182771D02*
X0163537Y0182771D01*
X0162463Y0182771D02*
X0158921Y0182771D01*
X0158606Y0182272D02*
X0161318Y0182272D01*
X0160808Y0181774D02*
X0158399Y0181774D01*
X0158232Y0181275D02*
X0160484Y0181275D01*
X0160283Y0180777D02*
X0158125Y0180777D01*
X0158077Y0180278D02*
X0160193Y0180278D01*
X0160194Y0179780D02*
X0158062Y0179780D01*
X0158123Y0179281D02*
X0160281Y0179281D01*
X0160464Y0178783D02*
X0158205Y0178783D01*
X0158377Y0178284D02*
X0160771Y0178284D01*
X0160786Y0177786D02*
X0158590Y0177786D01*
X0158871Y0177287D02*
X0160287Y0177287D01*
X0159789Y0176789D02*
X0159259Y0176789D01*
X0161800Y0178800D02*
X0162000Y0178800D01*
X0164000Y0178800D01*
X0164200Y0178800D01*
X0164447Y0179113D01*
X0164614Y0179476D01*
X0164692Y0179867D01*
X0164676Y0180265D01*
X0164568Y0180649D01*
X0164373Y0180998D01*
X0164102Y0181290D01*
X0163770Y0181512D01*
X0163396Y0181650D01*
X0163000Y0181697D01*
X0162604Y0181650D01*
X0162230Y0181512D01*
X0161898Y0181290D01*
X0161627Y0180998D01*
X0161432Y0180649D01*
X0161324Y0180265D01*
X0161308Y0179867D01*
X0161386Y0179476D01*
X0161553Y0179113D01*
X0161800Y0178800D01*
X0161476Y0179281D02*
X0164524Y0179281D01*
X0164674Y0179780D02*
X0161326Y0179780D01*
X0161327Y0180278D02*
X0164673Y0180278D01*
X0164497Y0180777D02*
X0161503Y0180777D01*
X0161884Y0181275D02*
X0164116Y0181275D01*
X0166197Y0183768D02*
X0159803Y0183768D01*
X0159308Y0183269D02*
X0166692Y0183269D01*
X0165498Y0184266D02*
X0160502Y0184266D01*
X0161735Y0184765D02*
X0164265Y0184765D01*
X0165713Y0177287D02*
X0167129Y0177287D01*
X0166741Y0176789D02*
X0166211Y0176789D01*
X0129441Y0179201D02*
X0129414Y0180097D01*
X0129226Y0180973D01*
X0128883Y0181800D01*
X0128396Y0182553D01*
X0127782Y0183205D01*
X0127061Y0183736D01*
X0126255Y0184128D01*
X0125392Y0184369D01*
X0124500Y0184450D01*
X0123608Y0184369D01*
X0122745Y0184128D01*
X0121939Y0183736D01*
X0121218Y0183205D01*
X0120604Y0182553D01*
X0120117Y0181800D01*
X0119774Y0180973D01*
X0119586Y0180097D01*
X0119559Y0179201D01*
X0119694Y0178315D01*
X0119986Y0177469D01*
X0120426Y0176688D01*
X0121000Y0176000D01*
X0122500Y0177500D01*
X0122121Y0177971D01*
X0121850Y0178512D01*
X0121700Y0179097D01*
X0121679Y0179702D01*
X0121786Y0180297D01*
X0122018Y0180856D01*
X0122362Y0181352D01*
X0122805Y0181764D01*
X0123325Y0182073D01*
X0123899Y0182264D01*
X0124500Y0182328D01*
X0125101Y0182264D01*
X0125675Y0182073D01*
X0126195Y0181764D01*
X0126638Y0181352D01*
X0126982Y0180856D01*
X0127214Y0180297D01*
X0127321Y0179702D01*
X0127300Y0179097D01*
X0127150Y0178512D01*
X0126879Y0177971D01*
X0126500Y0177500D01*
X0128000Y0176000D01*
X0128574Y0176688D01*
X0129014Y0177469D01*
X0129306Y0178315D01*
X0129441Y0179201D01*
X0129438Y0179281D02*
X0127306Y0179281D01*
X0127307Y0179780D02*
X0129423Y0179780D01*
X0129375Y0180278D02*
X0127217Y0180278D01*
X0127015Y0180777D02*
X0129268Y0180777D01*
X0129100Y0181275D02*
X0126691Y0181275D01*
X0126179Y0181774D02*
X0128894Y0181774D01*
X0128578Y0182272D02*
X0125023Y0182272D01*
X0123977Y0182272D02*
X0120422Y0182272D01*
X0120106Y0181774D02*
X0122821Y0181774D01*
X0122309Y0181275D02*
X0119900Y0181275D01*
X0119732Y0180777D02*
X0121985Y0180777D01*
X0121783Y0180278D02*
X0119625Y0180278D01*
X0119577Y0179780D02*
X0121693Y0179780D01*
X0121694Y0179281D02*
X0119562Y0179281D01*
X0119623Y0178783D02*
X0121781Y0178783D01*
X0121964Y0178284D02*
X0119705Y0178284D01*
X0119877Y0177786D02*
X0122270Y0177786D01*
X0122287Y0177287D02*
X0120089Y0177287D01*
X0120370Y0176789D02*
X0121789Y0176789D01*
X0121290Y0176290D02*
X0120758Y0176290D01*
X0123300Y0178300D02*
X0123500Y0178300D01*
X0125500Y0178300D01*
X0125700Y0178300D01*
X0125947Y0178613D01*
X0126114Y0178976D01*
X0126192Y0179367D01*
X0126176Y0179765D01*
X0126068Y0180149D01*
X0125873Y0180498D01*
X0125602Y0180790D01*
X0125270Y0181012D01*
X0124896Y0181150D01*
X0124500Y0181197D01*
X0124104Y0181150D01*
X0123730Y0181012D01*
X0123398Y0180790D01*
X0123127Y0180498D01*
X0122932Y0180149D01*
X0122824Y0179765D01*
X0122808Y0179367D01*
X0122886Y0178976D01*
X0123053Y0178613D01*
X0123300Y0178300D01*
X0122975Y0178783D02*
X0126025Y0178783D01*
X0126175Y0179281D02*
X0122825Y0179281D01*
X0122828Y0179780D02*
X0126172Y0179780D01*
X0125996Y0180278D02*
X0123004Y0180278D01*
X0123385Y0180777D02*
X0125615Y0180777D01*
X0127219Y0178783D02*
X0129377Y0178783D01*
X0129295Y0178284D02*
X0127036Y0178284D01*
X0126730Y0177786D02*
X0129123Y0177786D01*
X0128911Y0177287D02*
X0126713Y0177287D01*
X0127211Y0176789D02*
X0128630Y0176789D01*
X0128242Y0176290D02*
X0127710Y0176290D01*
X0128191Y0182771D02*
X0120809Y0182771D01*
X0121305Y0183269D02*
X0127695Y0183269D01*
X0126995Y0183768D02*
X0122005Y0183768D01*
X0123240Y0184266D02*
X0125760Y0184266D01*
X0111000Y0167500D02*
X0110312Y0168074D01*
X0109531Y0168514D01*
X0108685Y0168806D01*
X0107799Y0168941D01*
X0106903Y0168914D01*
X0106027Y0168726D01*
X0105200Y0168383D01*
X0104447Y0167896D01*
X0103795Y0167282D01*
X0103264Y0166561D01*
X0102872Y0165755D01*
X0102631Y0164892D01*
X0102550Y0164000D01*
X0102631Y0163108D01*
X0102872Y0162245D01*
X0103264Y0161439D01*
X0103795Y0160718D01*
X0104447Y0160104D01*
X0105200Y0159617D01*
X0106027Y0159274D01*
X0106903Y0159086D01*
X0107799Y0159059D01*
X0108685Y0159194D01*
X0109531Y0159486D01*
X0110312Y0159926D01*
X0111000Y0160500D01*
X0109500Y0162000D01*
X0109029Y0161621D01*
X0108488Y0161350D01*
X0107903Y0161200D01*
X0107298Y0161179D01*
X0106703Y0161286D01*
X0106144Y0161518D01*
X0105648Y0161862D01*
X0105236Y0162305D01*
X0104927Y0162825D01*
X0104736Y0163399D01*
X0104672Y0164000D01*
X0104736Y0164601D01*
X0104927Y0165175D01*
X0105236Y0165695D01*
X0105648Y0166138D01*
X0106144Y0166482D01*
X0106703Y0166714D01*
X0107298Y0166821D01*
X0107903Y0166800D01*
X0108488Y0166650D01*
X0109029Y0166379D01*
X0109500Y0166000D01*
X0111000Y0167500D01*
X0110817Y0167317D02*
X0103832Y0167317D01*
X0103454Y0166818D02*
X0107282Y0166818D01*
X0107378Y0166818D02*
X0110318Y0166818D01*
X0109820Y0166320D02*
X0109103Y0166320D01*
X0108387Y0165447D02*
X0108024Y0165614D01*
X0107633Y0165692D01*
X0107235Y0165676D01*
X0106851Y0165568D01*
X0106502Y0165373D01*
X0106210Y0165102D01*
X0105988Y0164770D01*
X0105850Y0164396D01*
X0105803Y0164000D01*
X0105850Y0163604D01*
X0105988Y0163230D01*
X0106210Y0162898D01*
X0106502Y0162627D01*
X0106851Y0162432D01*
X0107235Y0162324D01*
X0107633Y0162308D01*
X0108024Y0162386D01*
X0108387Y0162553D01*
X0108700Y0162800D01*
X0108700Y0163000D01*
X0108700Y0165000D01*
X0108700Y0165200D01*
X0108387Y0165447D01*
X0108544Y0165323D02*
X0106448Y0165323D01*
X0106024Y0164824D02*
X0108700Y0164824D01*
X0108700Y0164326D02*
X0105842Y0164326D01*
X0105823Y0163827D02*
X0108700Y0163827D01*
X0108700Y0163329D02*
X0105951Y0163329D01*
X0106283Y0162830D02*
X0108700Y0162830D01*
X0107752Y0162332D02*
X0107206Y0162332D01*
X0106586Y0161335D02*
X0103341Y0161335D01*
X0103072Y0161833D02*
X0105690Y0161833D01*
X0105220Y0162332D02*
X0102848Y0162332D01*
X0102709Y0162830D02*
X0104925Y0162830D01*
X0104759Y0163329D02*
X0102611Y0163329D01*
X0102566Y0163827D02*
X0104690Y0163827D01*
X0104707Y0164326D02*
X0102580Y0164326D01*
X0102625Y0164824D02*
X0104810Y0164824D01*
X0105015Y0165323D02*
X0102751Y0165323D01*
X0102904Y0165821D02*
X0105353Y0165821D01*
X0105910Y0166320D02*
X0103147Y0166320D01*
X0104361Y0167815D02*
X0110622Y0167815D01*
X0109886Y0168314D02*
X0105093Y0168314D01*
X0106432Y0168812D02*
X0108642Y0168812D01*
X0109293Y0161833D02*
X0109667Y0161833D01*
X0110165Y0161335D02*
X0108429Y0161335D01*
X0109109Y0159341D02*
X0105867Y0159341D01*
X0104856Y0159839D02*
X0110157Y0159839D01*
X0110805Y0160338D02*
X0104199Y0160338D01*
X0103708Y0160836D02*
X0110664Y0160836D01*
X0102685Y0135806D02*
X0101799Y0135941D01*
X0100903Y0135914D01*
X0100027Y0135726D01*
X0099200Y0135383D01*
X0098447Y0134896D01*
X0097795Y0134282D01*
X0097264Y0133561D01*
X0096872Y0132755D01*
X0096631Y0131892D01*
X0096550Y0131000D01*
X0096631Y0130108D01*
X0096872Y0129245D01*
X0097264Y0128439D01*
X0097795Y0127718D01*
X0098447Y0127104D01*
X0099200Y0126617D01*
X0100027Y0126274D01*
X0100903Y0126086D01*
X0101799Y0126059D01*
X0102685Y0126194D01*
X0103531Y0126486D01*
X0104312Y0126926D01*
X0105000Y0127500D01*
X0103500Y0129000D01*
X0103029Y0128621D01*
X0102488Y0128350D01*
X0101903Y0128200D01*
X0101298Y0128179D01*
X0100703Y0128286D01*
X0100144Y0128518D01*
X0099648Y0128862D01*
X0099236Y0129305D01*
X0098927Y0129825D01*
X0098736Y0130399D01*
X0098672Y0131000D01*
X0098736Y0131601D01*
X0098927Y0132175D01*
X0099236Y0132695D01*
X0099648Y0133138D01*
X0100144Y0133482D01*
X0100703Y0133714D01*
X0101298Y0133821D01*
X0101903Y0133800D01*
X0102488Y0133650D01*
X0103029Y0133379D01*
X0103500Y0133000D01*
X0105000Y0134500D01*
X0104312Y0135074D01*
X0103531Y0135514D01*
X0102685Y0135806D01*
X0101996Y0135911D02*
X0100890Y0135911D01*
X0099271Y0135412D02*
X0103711Y0135412D01*
X0104504Y0134914D02*
X0098474Y0134914D01*
X0097936Y0134415D02*
X0104915Y0134415D01*
X0104417Y0133917D02*
X0097526Y0133917D01*
X0097195Y0133418D02*
X0100052Y0133418D01*
X0099445Y0132920D02*
X0096952Y0132920D01*
X0096779Y0132421D02*
X0099073Y0132421D01*
X0098843Y0131923D02*
X0096640Y0131923D01*
X0096589Y0131424D02*
X0098717Y0131424D01*
X0098680Y0130926D02*
X0096557Y0130926D01*
X0096602Y0130427D02*
X0098733Y0130427D01*
X0098893Y0129929D02*
X0096681Y0129929D01*
X0096820Y0129430D02*
X0099162Y0129430D01*
X0099583Y0128932D02*
X0097024Y0128932D01*
X0097269Y0128433D02*
X0100349Y0128433D01*
X0100851Y0129432D02*
X0101235Y0129324D01*
X0101633Y0129308D01*
X0102024Y0129386D01*
X0102387Y0129553D01*
X0102700Y0129800D01*
X0102700Y0130000D01*
X0102700Y0132000D01*
X0102700Y0132200D01*
X0102387Y0132447D01*
X0102024Y0132614D01*
X0101633Y0132692D01*
X0101235Y0132676D01*
X0100851Y0132568D01*
X0100502Y0132373D01*
X0100210Y0132102D01*
X0099988Y0131770D01*
X0099850Y0131396D01*
X0099803Y0131000D01*
X0099850Y0130604D01*
X0099988Y0130230D01*
X0100210Y0129898D01*
X0100502Y0129627D01*
X0100851Y0129432D01*
X0100858Y0129430D02*
X0102120Y0129430D01*
X0102700Y0129929D02*
X0100189Y0129929D01*
X0099915Y0130427D02*
X0102700Y0130427D01*
X0102700Y0130926D02*
X0099812Y0130926D01*
X0099860Y0131424D02*
X0102700Y0131424D01*
X0102700Y0131923D02*
X0100090Y0131923D01*
X0100588Y0132421D02*
X0102420Y0132421D01*
X0102952Y0133418D02*
X0103918Y0133418D01*
X0103568Y0128932D02*
X0103415Y0128932D01*
X0104067Y0128433D02*
X0102654Y0128433D01*
X0104566Y0127934D02*
X0097636Y0127934D01*
X0098094Y0127436D02*
X0104923Y0127436D01*
X0104325Y0126937D02*
X0098704Y0126937D01*
X0099630Y0126439D02*
X0103394Y0126439D01*
D29*
X0210500Y0127500D03*
X0210500Y0117500D03*
X0305500Y0115500D03*
X0305500Y0125500D03*
X0278500Y0266500D03*
X0278500Y0276500D03*
D30*
X0292000Y0270000D03*
X0287000Y0320000D03*
X0175000Y0332000D03*
X0163000Y0179000D03*
X0124500Y0178500D03*
D31*
X0124500Y0183500D03*
X0163000Y0184000D03*
X0175000Y0327000D03*
X0287000Y0325000D03*
X0292000Y0275000D03*
D32*
X0288000Y0378200D02*
X0288000Y0383800D01*
X0298000Y0383800D02*
X0298000Y0378200D01*
X0278000Y0378200D02*
X0278000Y0383800D01*
X0268000Y0383800D02*
X0268000Y0378200D01*
X0258000Y0378200D02*
X0258000Y0383800D01*
X0248000Y0383800D02*
X0248000Y0378200D01*
X0238000Y0378200D02*
X0238000Y0383800D01*
X0228000Y0383800D02*
X0228000Y0378200D01*
X0128000Y0378200D02*
X0128000Y0383800D01*
X0118000Y0383800D02*
X0118000Y0378200D01*
X0108000Y0378200D02*
X0108000Y0383800D01*
X0098000Y0383800D02*
X0098000Y0378200D01*
D33*
X0355000Y0355200D03*
X0365000Y0355200D03*
X0375000Y0355200D03*
X0385000Y0355200D03*
X0385000Y0325200D03*
X0375000Y0325200D03*
X0365000Y0325200D03*
X0355000Y0325200D03*
D34*
X0050000Y0328000D03*
X0050000Y0338000D03*
X0050000Y0348000D03*
X0050000Y0358000D03*
X0050000Y0368000D03*
X0040000Y0368000D03*
X0040000Y0358000D03*
X0040000Y0348000D03*
X0040000Y0338000D03*
X0040000Y0328000D03*
X0040000Y0284000D03*
X0040000Y0274000D03*
X0040000Y0264000D03*
X0040000Y0254000D03*
X0040000Y0244000D03*
X0050000Y0244000D03*
X0050000Y0254000D03*
X0050000Y0264000D03*
X0050000Y0274000D03*
X0050000Y0284000D03*
X0050000Y0200000D03*
X0050000Y0190000D03*
X0050000Y0180000D03*
X0050000Y0170000D03*
X0050000Y0160000D03*
X0040000Y0160000D03*
X0040000Y0170000D03*
X0040000Y0180000D03*
X0040000Y0190000D03*
X0040000Y0200000D03*
D35*
X0134260Y0153669D03*
X0141740Y0153669D03*
X0138000Y0162331D03*
X0154260Y0153669D03*
X0161740Y0153669D03*
X0158000Y0162331D03*
X0174260Y0153669D03*
X0181740Y0153669D03*
X0178000Y0162331D03*
X0194260Y0153669D03*
X0201740Y0153669D03*
X0198000Y0162331D03*
X0229260Y0153669D03*
X0236740Y0153669D03*
X0233000Y0162331D03*
X0249260Y0153669D03*
X0256740Y0153669D03*
X0253000Y0162331D03*
X0269260Y0153669D03*
X0276740Y0153669D03*
X0273000Y0162331D03*
X0289260Y0153669D03*
X0296740Y0153669D03*
X0293000Y0162331D03*
D36*
X0293000Y0146346D03*
X0293000Y0139654D03*
X0273000Y0139654D03*
X0273000Y0146346D03*
X0253000Y0146346D03*
X0253000Y0139654D03*
X0233000Y0139654D03*
X0233000Y0146346D03*
X0198000Y0146346D03*
X0198000Y0139654D03*
X0178000Y0139654D03*
X0178000Y0146346D03*
X0158000Y0146346D03*
X0158000Y0139654D03*
X0138000Y0139654D03*
X0138000Y0146346D03*
D37*
X0096800Y0120500D03*
D38*
X0111980Y0120500D03*
M02*
