<?xml version="1.0" encoding="UTF-8" standalone="no"?>
<!-- Created with Inkscape (http://www.inkscape.org/) -->

<svg
   xmlns:dc="http://purl.org/dc/elements/1.1/"
   xmlns:cc="http://creativecommons.org/ns#"
   xmlns:rdf="http://www.w3.org/1999/02/22-rdf-syntax-ns#"
   xmlns:svg="http://www.w3.org/2000/svg"
   xmlns="http://www.w3.org/2000/svg"
   xmlns:sodipodi="http://sodipodi.sourceforge.net/DTD/sodipodi-0.dtd"
   xmlns:inkscape="http://www.inkscape.org/namespaces/inkscape"
   width="1771.6534"
   height="885.82672"
   id="svg2"
   version="1.1"
   inkscape:version="0.48.4 r9939"
   sodipodi:docname="bridge-a-1.svg">
  <defs
     id="defs4" />
  <sodipodi:namedview
     id="base"
     pagecolor="#ffffff"
     bordercolor="#666666"
     borderopacity="1.0"
     inkscape:pageopacity="0.0"
     inkscape:pageshadow="2"
     inkscape:zoom="0.49497475"
     inkscape:cx="-15.434627"
     inkscape:cy="716.22476"
     inkscape:document-units="cm"
     inkscape:current-layer="layer1"
     showgrid="true"
     units="mm"
     inkscape:window-width="2495"
     inkscape:window-height="1416"
     inkscape:window-x="65"
     inkscape:window-y="24"
     inkscape:window-maximized="1"
     inkscape:snap-global="true">
    <inkscape:grid
       type="xygrid"
       id="grid3006"
       units="cm"
       empspacing="10"
       visible="true"
       enabled="true"
       snapvisiblegridlinesonly="true"
       spacingx="0.1cm"
       spacingy="0.1cm"
       dotted="true" />
  </sodipodi:namedview>
  <metadata
     id="metadata7">
    <rdf:RDF>
      <cc:Work
         rdf:about="">
        <dc:format>image/svg+xml</dc:format>
        <dc:type
           rdf:resource="http://purl.org/dc/dcmitype/StillImage" />
        <dc:title></dc:title>
      </cc:Work>
    </rdf:RDF>
  </metadata>
  <g
     inkscape:label="Layer 1"
     inkscape:groupmode="layer"
     id="layer1"
     transform="translate(0,-166.5354)">
    <path
       style="fill:none;stroke:#000000;stroke-width:1px;stroke-linecap:butt;stroke-linejoin:miter;stroke-opacity:1"
       d="m 17.716535,255.11803 70.86614,0 0,-23.03149 28.346465,0 0,21.25984 49.60629,0 0,-21.25984 28.34646,0 0,23.03149 177.16535,0 0,283.46456 -67.32283,0 0,35.43307 -19.48819,0 0.0204,-35.43307 -136.43772,0 0,248.03151 81.49606,-70.86616 141.73228,0 35.43307,-35.43307 35.43308,-35.43307 35.43306,-35.43307 141.73229,-212.59842 10e-6,0 177.16535,-70.86615 0,-53.1496 -70.86614,0 -35.43307,0 0,-10.62992 -53.14961,0 0,10.62992 -33.66141,0 0,38.97638 -21.25985,0 0,-38.97638 -15.94488,0 0,-10.62992 -53.14961,0 0,10.62992 -106.29921,0 0,-53.14961 -70.86614,0 0,-35.43306 -318.897635,0 z"
       id="path3008"
       inkscape:connector-curvature="0"
       sodipodi:nodetypes="ccccccccccccccccccccccccccccccccccccccccccccc" />
    <path
       style="fill:none;stroke:#000000;stroke-width:1px;stroke-linecap:butt;stroke-linejoin:miter;stroke-opacity:1"
       d="m 460.62992,255.11803 0,-70.86614"
       id="path3010"
       inkscape:connector-curvature="0" />
    <text
       xml:space="preserve"
       style="font-size:40px;font-style:normal;font-weight:normal;line-height:125%;letter-spacing:0px;word-spacing:0px;fill:#000000;fill-opacity:1;stroke:none;font-family:Sans"
       x="465.23343"
       y="194.62601"
       id="text3012"
       sodipodi:linespacing="125%"><tspan
         sodipodi:role="line"
         id="tspan3014"
         x="465.23343"
         y="194.62601"
         style="font-size:12px;font-style:normal;font-variant:normal;font-weight:normal;font-stretch:normal;text-align:start;line-height:125%;writing-mode:lr-tb;text-anchor:start;font-family:Sans;-inkscape-font-specification:Sans">wall edge</tspan></text>
    <path
       style="fill:none;stroke:#000000;stroke-width:1px;stroke-linecap:butt;stroke-linejoin:miter;stroke-opacity:1"
       d="m 726.37796,184.25189 0,70.86614"
       id="path3016"
       inkscape:connector-curvature="0" />
    <text
       xml:space="preserve"
       style="font-size:40px;font-style:normal;font-weight:normal;line-height:125%;letter-spacing:0px;word-spacing:0px;fill:#000000;fill-opacity:1;stroke:none;font-family:Sans"
       x="820.2439"
       y="100.43312"
       id="text3018"
       sodipodi:linespacing="125%"
       transform="translate(0,166.5354)"><tspan
         sodipodi:role="line"
         id="tspan3020"
         x="820.2439"
         y="100.43312" /></text>
    <text
       sodipodi:linespacing="125%"
       id="text3022"
       y="198.42511"
       x="729.92126"
       style="font-size:12px;font-style:normal;font-variant:normal;font-weight:normal;font-stretch:normal;text-align:start;line-height:125%;letter-spacing:0px;word-spacing:0px;writing-mode:lr-tb;text-anchor:start;fill:#000000;fill-opacity:1;stroke:none;font-family:Sans;-inkscape-font-specification:Sans"
       xml:space="preserve"><tspan
         sodipodi:role="line"
         id="tspan3026"
         x="729.92126"
         y="198.42511">smallest single-track</tspan></text>
    <g
       id="g3038"
       transform="translate(-124.01574,-53.149605)">
      <path
         sodipodi:nodetypes="ccccc"
         inkscape:connector-curvature="0"
         id="path3028"
         d="m 177.16535,343.7007 0,72.6378 106.29922,0 0,-72.6378 z"
         style="fill:none;stroke:#000000;stroke-width:1px;stroke-linecap:butt;stroke-linejoin:miter;stroke-opacity:1" />
      <path
         sodipodi:nodetypes="ccccc"
         inkscape:connector-curvature="0"
         id="path3030"
         d="m 203.74016,370.27551 0,19.48819 53.1496,0 0,-19.48819 z"
         style="fill:none;stroke:#000000;stroke-width:1px;stroke-linecap:butt;stroke-linejoin:miter;stroke-opacity:1" />
    </g>
    <path
       inkscape:connector-curvature="0"
       id="path3034"
       d="m 304.72442,644.88179 0,35.43308 -19.48819,0 0,-35.43308 z"
       style="fill:none;stroke:#000000;stroke-width:1px;stroke-linecap:butt;stroke-linejoin:miter;stroke-opacity:1"
       sodipodi:nodetypes="ccccc" />
    <path
       sodipodi:nodetypes="ccccc"
       style="fill:none;stroke:#000000;stroke-width:1px;stroke-linecap:butt;stroke-linejoin:miter;stroke-opacity:1"
       d="m 304.72442,591.7322 0,35.43307 -19.48819,0 0,-35.43307 z"
       id="path3036"
       inkscape:connector-curvature="0" />
    <path
       style="fill:none;stroke:#000000;stroke-width:1px;stroke-linecap:butt;stroke-linejoin:miter;stroke-opacity:1"
       d="m 162.99214,255.11802 106.29921,0 0,159.44882 35.43307,0 0,33.66142 -17.71654,0 0,-15.94488 -17.71653,0 0,35.43307 35.43307,0 0,33.66143 -17.71654,0 0,-15.94489 -17.71653,0 0,35.43308 35.43307,0 0,33.66141 -17.71654,0 0,-15.94488 -17.71653,0 0,0 -106.29921,0 z"
       id="path3042"
       inkscape:connector-curvature="0"
       sodipodi:nodetypes="ccccccccccccccccccccccc" />
    <path
       style="fill:none;stroke:#000000;stroke-width:1px;stroke-linecap:butt;stroke-linejoin:miter;stroke-opacity:1"
       d="m 35.433071,850.39365 173.622049,0 0,-35.43307 21.25984,0 0,35.43307 283.34761,0 0.11696,-88.58268 814.96067,-3.5433 201.9685,0 -0.3516,92.12598 11.0715,0 -0.09,-35.43307 17.7165,0 0.2416,35.43307 176.9238,0 0,-177.16535 -155.9055,-265.74804 -56.693,0 -1098.42515,124.01575 0,141.73229 -389.763779,0 z"
       id="path3044"
       inkscape:connector-curvature="0"
       transform="translate(0,166.5354)"
       sodipodi:nodetypes="cccccccccccccccccccccc" />
    <path
       style="fill:none;stroke:#000000;stroke-width:1px;stroke-linecap:butt;stroke-linejoin:miter;stroke-opacity:1"
       d="m 1559.0551,690.94483 -17.7165,0 0,-53.1496 17.7165,0 z"
       id="path3046"
       inkscape:connector-curvature="0"
       transform="translate(0,166.5354)" />
    <path
       style="fill:none;stroke:#000000;stroke-width:1px;stroke-linecap:butt;stroke-linejoin:miter;stroke-opacity:1"
       d="m 1559.0551,566.92908 -17.7165,0 0,-53.1496 17.7165,0 z"
       id="path3048"
       inkscape:connector-curvature="0"
       transform="translate(0,166.5354)" />
  </g>
</svg>
