<?xml version="1.0" encoding="UTF-8" standalone="no"?>
<!-- Created with Inkscape (http://www.inkscape.org/) -->

<svg
   xmlns:dc="http://purl.org/dc/elements/1.1/"
   xmlns:cc="http://creativecommons.org/ns#"
   xmlns:rdf="http://www.w3.org/1999/02/22-rdf-syntax-ns#"
   xmlns:svg="http://www.w3.org/2000/svg"
   xmlns="http://www.w3.org/2000/svg"
   xmlns:xlink="http://www.w3.org/1999/xlink"
   xmlns:sodipodi="http://sodipodi.sourceforge.net/DTD/sodipodi-0.dtd"
   xmlns:inkscape="http://www.inkscape.org/namespaces/inkscape"
   width="1771.6534"
   height="885.82672"
   id="svg2"
   version="1.1"
   inkscape:version="0.48.4 r9939"
   sodipodi:docname="bridge-a-2.svg">
  <defs
     id="defs4" />
  <sodipodi:namedview
     id="base"
     pagecolor="#ffffff"
     bordercolor="#666666"
     borderopacity="1.0"
     inkscape:pageopacity="0.0"
     inkscape:pageshadow="2"
     inkscape:zoom="0.7"
     inkscape:cx="437.87564"
     inkscape:cy="511.24467"
     inkscape:document-units="cm"
     inkscape:current-layer="layer1"
     showgrid="true"
     units="mm"
     inkscape:window-width="2495"
     inkscape:window-height="1416"
     inkscape:window-x="65"
     inkscape:window-y="24"
     inkscape:window-maximized="1"
     inkscape:snap-global="true"
     inkscape:snap-grids="true">
    <inkscape:grid
       type="xygrid"
       id="grid3006"
       units="cm"
       empspacing="10"
       visible="true"
       enabled="true"
       snapvisiblegridlinesonly="true"
       spacingx="0.1cm"
       spacingy="0.1cm"
       dotted="true" />
  </sodipodi:namedview>
  <metadata
     id="metadata7">
    <rdf:RDF>
      <cc:Work
         rdf:about="">
        <dc:format>image/svg+xml</dc:format>
        <dc:type
           rdf:resource="http://purl.org/dc/dcmitype/StillImage" />
        <dc:title />
      </cc:Work>
    </rdf:RDF>
  </metadata>
  <g
     inkscape:label="Layer 1"
     inkscape:groupmode="layer"
     id="layer1"
     transform="translate(0,-166.5354)"
     style="display:inline">
    <path
       style="fill:none;stroke:#000000;stroke-width:1px;stroke-linecap:butt;stroke-linejoin:miter;stroke-opacity:1"
       d="m 418.11024,255.11803 0,-70.86614"
       id="path3010"
       inkscape:connector-curvature="0" />
    <text
       xml:space="preserve"
       style="font-size:40px;font-style:normal;font-weight:normal;line-height:125%;letter-spacing:0px;word-spacing:0px;fill:#000000;fill-opacity:1;stroke:none;font-family:Sans"
       x="422.71375"
       y="194.62601"
       id="text3012"
       sodipodi:linespacing="125%"><tspan
         sodipodi:role="line"
         id="tspan3014"
         x="422.71375"
         y="194.62601"
         style="font-size:12px;font-style:normal;font-variant:normal;font-weight:normal;font-stretch:normal;text-align:start;line-height:125%;writing-mode:lr-tb;text-anchor:start;font-family:Sans;-inkscape-font-specification:Sans">wall edge</tspan></text>
    <path
       style="fill:none;stroke:#000000;stroke-width:1px;stroke-linecap:butt;stroke-linejoin:miter;stroke-opacity:1"
       d="m 683.85828,184.25189 0,70.86614"
       id="path3016"
       inkscape:connector-curvature="0" />
    <text
       xml:space="preserve"
       style="font-size:40px;font-style:normal;font-weight:normal;line-height:125%;letter-spacing:0px;word-spacing:0px;fill:#000000;fill-opacity:1;stroke:none;font-family:Sans"
       x="820.2439"
       y="100.43312"
       id="text3018"
       sodipodi:linespacing="125%"
       transform="translate(0,166.5354)"><tspan
         sodipodi:role="line"
         id="tspan3020"
         x="820.2439"
         y="100.43312" /></text>
    <text
       sodipodi:linespacing="125%"
       id="text3022"
       y="198.42511"
       x="729.92126"
       style="font-size:12px;font-style:normal;font-variant:normal;font-weight:normal;font-stretch:normal;text-align:start;line-height:125%;letter-spacing:0px;word-spacing:0px;writing-mode:lr-tb;text-anchor:start;fill:#000000;fill-opacity:1;stroke:none;font-family:Sans;-inkscape-font-specification:Sans"
       xml:space="preserve"><tspan
         sodipodi:role="line"
         id="tspan3026"
         x="729.92126"
         y="198.42511">smallest single-track</tspan></text>
    <path
       style="fill:none;stroke:#000000;stroke-width:1px;stroke-linecap:butt;stroke-linejoin:miter;stroke-opacity:1"
       d="m 31.889764,255.11803 106.299216,0 2e-5,170.07873 35.43307,0 0,33.66142 -17.71655,0 0,-15.94488 -17.71652,0 0,35.43307 35.43307,0 0,33.66143 -17.71655,0 0,-15.94489 -17.71652,0 0,35.43308 35.43307,0 0,33.66141 -17.71655,0 0,-15.94488 -17.71652,0 0,0 -106.299219,0 z"
       id="path3042"
       inkscape:connector-curvature="0"
       sodipodi:nodetypes="ccccccccccccccccccccccc" />
    <path
       style="fill:none;stroke:#000000;stroke-width:1px;stroke-linecap:butt;stroke-linejoin:miter;stroke-opacity:1"
       d="m 17.716535,1034.6456 191.338585,0 0,-35.43309 21.25984,0 0,35.43309 283.34761,0 0.11696,-92.126 1016.92917,0 -0.3516,92.126 11.0715,0 -0.09,-35.43309 17.7165,0 0.2416,35.43309 194.6403,0 0,-248.03152 -81.4961,-70.86614 -85.0393,0 -28.3465,-124.01575 -35.4331,0 -1098.42515,0 -148.8189,0 -63.77952,0 -28.34646,124.01575 -85.039372,0 -81.496063,70.86614 z"
       id="path3044"
       inkscape:connector-curvature="0"
       sodipodi:nodetypes="cccccccccccccccccccccccccc" />
    <path
       style="fill:none;stroke:#000000;stroke-width:1px;stroke-linecap:butt;stroke-linejoin:miter;stroke-opacity:1"
       d="m 1559.0551,875.19676 -17.7165,0 0,-53.1496 17.7165,0 z"
       id="path3046"
       inkscape:connector-curvature="0" />
    <path
       style="fill:none;stroke:#000000;stroke-width:1px;stroke-linecap:butt;stroke-linejoin:miter;stroke-opacity:1"
       d="m 1559.0551,751.18101 -17.7165,0 0,-53.1496 17.7165,0 z"
       id="path3048"
       inkscape:connector-curvature="0" />
    <path
       inkscape:connector-curvature="0"
       id="path3074"
       d="m 230.31497,875.19677 -17.7165,0 0,-53.1496 17.7165,0 z"
       style="fill:none;stroke:#000000;stroke-width:1px;stroke-linecap:butt;stroke-linejoin:miter;stroke-opacity:1" />
    <path
       inkscape:connector-curvature="0"
       id="path3076"
       d="m 230.31497,751.18101 -17.7165,0 0,-53.14959 17.7165,0 z"
       style="fill:none;stroke:#000000;stroke-width:1px;stroke-linecap:butt;stroke-linejoin:miter;stroke-opacity:1" />
    <use
       x="0"
       y="0"
       xlink:href="#path3042"
       id="use3093"
       transform="matrix(-1,0,0,1,1771.6535,0)"
       width="1771.6534"
       height="885.82672" />
    <path
       style="fill:none;stroke:#000000;stroke-width:1px;stroke-linecap:butt;stroke-linejoin:miter;stroke-opacity:1"
       d="m 336.61421,795.47235 0,-17.7165 53.14959,0 0,17.7165 z"
       id="path3037"
       inkscape:connector-curvature="0" />
    <path
       inkscape:connector-curvature="0"
       id="path3039"
       d="m 1381.8898,795.47235 0,-17.7165 53.1496,0 0,17.7165 z"
       style="fill:none;stroke:#000000;stroke-width:1px;stroke-linecap:butt;stroke-linejoin:miter;stroke-opacity:1" />
    <path
       inkscape:connector-curvature="0"
       id="path3041"
       d="m 372.04728,627.16527 0,-17.7165 53.14959,0 0,17.7165 z"
       style="fill:none;stroke:#000000;stroke-width:1px;stroke-linecap:butt;stroke-linejoin:miter;stroke-opacity:1" />
    <path
       style="fill:none;stroke:#000000;stroke-width:1px;stroke-linecap:butt;stroke-linejoin:miter;stroke-opacity:1"
       d="m 460.62995,627.16527 0,-17.7165 53.14959,0 0,17.7165 z"
       id="path3043"
       inkscape:connector-curvature="0" />
    <path
       inkscape:connector-curvature="0"
       id="path3045"
       d="m 549.21263,627.16527 0,-17.7165 53.14959,0 0,17.7165 z"
       style="fill:none;stroke:#000000;stroke-width:1px;stroke-linecap:butt;stroke-linejoin:miter;stroke-opacity:1" />
    <path
       style="fill:none;stroke:#000000;stroke-width:1px;stroke-linecap:butt;stroke-linejoin:miter;stroke-opacity:1"
       d="m 637.7953,627.16527 0,-17.7165 53.14959,0 0,17.7165 z"
       id="path3047"
       inkscape:connector-curvature="0" />
    <path
       inkscape:connector-curvature="0"
       id="path3049"
       d="m 726.37797,627.16527 0,-17.7165 53.14959,0 0,17.7165 z"
       style="fill:none;stroke:#000000;stroke-width:1px;stroke-linecap:butt;stroke-linejoin:miter;stroke-opacity:1" />
    <path
       style="fill:none;stroke:#000000;stroke-width:1px;stroke-linecap:butt;stroke-linejoin:miter;stroke-opacity:1"
       d="m 814.96064,627.16527 0,-17.7165 53.14959,0 0,17.7165 z"
       id="path3051"
       inkscape:connector-curvature="0" />
    <path
       inkscape:connector-curvature="0"
       id="path3053"
       d="m 903.54331,627.16527 0,-17.7165 53.14959,0 0,17.7165 z"
       style="fill:none;stroke:#000000;stroke-width:1px;stroke-linecap:butt;stroke-linejoin:miter;stroke-opacity:1" />
    <path
       style="fill:none;stroke:#000000;stroke-width:1px;stroke-linecap:butt;stroke-linejoin:miter;stroke-opacity:1"
       d="m 992.12598,627.16527 0,-17.7165 53.14962,0 0,17.7165 z"
       id="path3055"
       inkscape:connector-curvature="0" />
    <path
       inkscape:connector-curvature="0"
       id="path3057"
       d="m 1080.7087,627.16527 0,-17.7165 53.1496,0 0,17.7165 z"
       style="fill:none;stroke:#000000;stroke-width:1px;stroke-linecap:butt;stroke-linejoin:miter;stroke-opacity:1" />
    <path
       style="fill:none;stroke:#000000;stroke-width:1px;stroke-linecap:butt;stroke-linejoin:miter;stroke-opacity:1"
       d="m 1169.2914,627.16527 0,-17.7165 53.1496,0 0,17.7165 z"
       id="path3059"
       inkscape:connector-curvature="0" />
    <path
       inkscape:connector-curvature="0"
       id="path3061"
       d="m 1257.8741,627.16527 0,-17.7165 53.1496,0 0,17.7165 z"
       style="fill:none;stroke:#000000;stroke-width:1px;stroke-linecap:butt;stroke-linejoin:miter;stroke-opacity:1" />
    <path
       style="fill:none;stroke:#000000;stroke-width:1px;stroke-linecap:butt;stroke-linejoin:miter;stroke-opacity:1"
       d="m 1346.4568,627.16527 0,-17.7165 53.1496,0 0,17.7165 z"
       id="path3063"
       inkscape:connector-curvature="0" />
    <path
       inkscape:connector-curvature="0"
       id="path3065"
       d="m 1435.0395,627.16527 0,-17.7165 53.1496,0 0,17.7165 z"
       style="fill:none;stroke:#000000;stroke-width:1px;stroke-linecap:butt;stroke-linejoin:miter;stroke-opacity:1" />
    <path
       style="fill:none;stroke:#000000;stroke-width:1px;stroke-linecap:butt;stroke-linejoin:miter;stroke-opacity:1"
       d="m 283.46461,627.16527 0,-17.7165 53.14958,0 0,17.7165 z"
       id="path3069"
       inkscape:connector-curvature="0" />
    <path
       style="fill:none;stroke:#000000;stroke-width:1px;stroke-linecap:butt;stroke-linejoin:miter;stroke-opacity:1"
       d="m 428.74016,421.65346 170.07874,0 0,141.73228 -14.17323,0 0,28.34646 -53.14961,0 0,-28.34646 -35.43307,0 0,28.34646 -53.14961,0 0,-28.34646 -14.17322,0 0,-141.73228"
       id="path3071"
       inkscape:connector-curvature="0"
       sodipodi:nodetypes="ccccccccccccc" />
    <use
       x="0"
       y="0"
       xlink:href="#path3071"
       id="use3073"
       transform="translate(170.07874,0)"
       width="1771.6534"
       height="885.82672" />
    <use
       x="0"
       y="0"
       xlink:href="#use3073"
       id="use3077"
       transform="translate(170.07874,0)"
       width="1771.6534"
       height="885.82672" />
    <use
       x="0"
       y="0"
       xlink:href="#use3077"
       id="use3079"
       transform="translate(340.15748,0)"
       width="1771.6534"
       height="885.82672" />
    <use
       x="0"
       y="0"
       xlink:href="#use3079"
       id="use3081"
       transform="translate(-170.07874,0)"
       width="1771.6534"
       height="885.82672" />
    <use
       x="0"
       y="0"
       xlink:href="#use3077"
       id="use3083"
       transform="matrix(1,0,0,-1,-60.236219,843.30696)"
       width="1771.6534"
       height="885.82672" />
    <use
       x="0"
       y="0"
       xlink:href="#use3081"
       id="use3085"
       transform="matrix(1,0,0,-1,-60.236219,843.30696)"
       width="1771.6534"
       height="885.82672" />
  </g>
  <g
     inkscape:groupmode="layer"
     id="layer2"
     inkscape:label="Stow"
     style="display:inline">
    <path
       style="fill:none;stroke:#000000;stroke-width:1px;stroke-linecap:butt;stroke-linejoin:miter;stroke-opacity:1"
       d="m 21.25984,88.58263 38.97637,0 0,-23.03149 28.34647,0 -1e-5,23.03149 49.6063,0 0,-23.03149 28.34646,0 0,23.03149 74.40945,0 0,294.09448 -67.32283,0 0,24.80315 -19.48819,0 0,-24.80315 -136.417325,0 5e-6,237.40159 81.49606,-70.86616 85.03937,10e-6 28.34646,-124.01575 63.77952,0 42.51969,0 106.29921,-177.16535 0,0 240.94489,-88.58269 0,-53.1496 -70.86614,0 -35.43307,0 0,-10.62992 -53.14961,0 0,10.62992 -24.80315,0 0,38.97638 -21.25985,0 0,-38.97638 -24.80314,0 0,-10.62992 -53.14961,0 0,10.62992 -106.29921,0 -10e-6,-21.25984 7.08662,0 0,-31.88976 -77.95275,-1e-5 0,-35.43306 -184.25197,0 z"
       id="path3008"
       inkscape:connector-curvature="0"
       sodipodi:nodetypes="ccccccccccccccccccccccccccccccccccccccccccccccc" />
    <path
       inkscape:connector-curvature="0"
       id="path3034"
       d="m 173.62206,478.34639 0,35.43308 -19.48819,0 0,-35.43308 z"
       style="fill:none;stroke:#000000;stroke-width:1px;stroke-linecap:butt;stroke-linejoin:miter;stroke-opacity:1"
       sodipodi:nodetypes="ccccc" />
    <path
       sodipodi:nodetypes="ccccc"
       style="fill:none;stroke:#000000;stroke-width:1px;stroke-linecap:butt;stroke-linejoin:miter;stroke-opacity:1"
       d="m 173.62206,425.1968 0,35.43307 -19.48819,0 0,-35.43307 z"
       id="path3036"
       inkscape:connector-curvature="0" />
    <use
       height="885.82672"
       width="1771.6534"
       transform="matrix(-1,0,0,1,1771.6535,0)"
       id="use3091"
       xlink:href="#path3008"
       y="0"
       x="0" />
    <path
       style="fill:none;stroke:#000000;stroke-width:1px;stroke-linecap:butt;stroke-linejoin:miter;stroke-opacity:1"
       d="m 240.94488,88.582627 -72.63779,0 0,106.299213 72.63779,0 z"
       id="path3028"
       inkscape:connector-curvature="0"
       sodipodi:nodetypes="ccccc" />
    <path
       style="fill:none;stroke:#000000;stroke-width:1px;stroke-linecap:butt;stroke-linejoin:miter;stroke-opacity:1"
       d="m 214.45727,115.32897 -19.48819,0 0,53.1496 19.48819,0 z"
       id="path3030"
       inkscape:connector-curvature="0"
       sodipodi:nodetypes="ccccc" />
    <path
       sodipodi:nodetypes="ccccc"
       style="fill:none;stroke:#000000;stroke-width:1px;stroke-linecap:butt;stroke-linejoin:miter;stroke-opacity:1"
       d="m 1617.5197,478.34639 0,35.43308 -19.4882,0 0,-35.43308 z"
       id="path3023"
       inkscape:connector-curvature="0" />
    <path
       inkscape:connector-curvature="0"
       id="path3025"
       d="m 1617.5197,425.1968 0,35.43307 -19.4882,0 0,-35.43307 z"
       style="fill:none;stroke:#000000;stroke-width:1px;stroke-linecap:butt;stroke-linejoin:miter;stroke-opacity:1"
       sodipodi:nodetypes="ccccc" />
    <path
       sodipodi:nodetypes="ccccc"
       inkscape:connector-curvature="0"
       id="path3027"
       d="m 1603.3465,88.582627 -72.6378,0 0,106.299213 72.6378,0 z"
       style="fill:none;stroke:#000000;stroke-width:1px;stroke-linecap:butt;stroke-linejoin:miter;stroke-opacity:1" />
    <path
       sodipodi:nodetypes="ccccc"
       inkscape:connector-curvature="0"
       id="path3029"
       d="m 1576.5045,115.32897 -19.4882,0 0,53.1496 19.4882,0 z"
       style="fill:none;stroke:#000000;stroke-width:1px;stroke-linecap:butt;stroke-linejoin:miter;stroke-opacity:1" />
  </g>
</svg>
