%
M48
M72
T01C0.01378
T02C0.03200
T03C0.03543
T04C0.03600
T05C0.03937
T06C0.04000
T07C0.04331
T08C0.04724
T09C0.12598
T10C0.12992
%
T01
X6000Y134500
X9700Y146400
X9700Y155500
X10000Y166200
X9700Y175800
X9900Y186600
X9900Y195700
X9900Y206400
X11000Y218500
X18500Y218500
X9800Y231200
X9700Y240600
X9800Y251200
X9800Y261000
X9800Y271200
X9800Y280800
X9800Y291200
X24200Y311400
X31700Y313500
X22500Y321500
X24000Y331000
X24000Y340500
X23500Y351500
X24000Y361000
X23500Y371000
X35500Y378000
X39000Y375000
X42500Y378000
X46000Y379500
X40600Y381500
X38000Y384500
X30811Y390500
X24500Y386500
X6000Y392000
X50000Y401000
X52000Y390000
X52000Y385000
X63500Y387500
X64500Y395000
X65000Y376000
X62500Y372000
X66500Y369000
X67000Y363000
X67000Y353511
X60000Y348000
X67000Y339500
X67000Y333000
X61500Y327000
X64000Y321000
X65500Y306000
X55500Y301000
X45500Y295500
X44000Y316000
X47500Y316000
X51000Y316000
X64500Y293000
X67000Y290000
X67500Y278500
X67000Y271000
X67000Y261000
X65000Y249500
X65000Y230000
X56000Y222500
X46000Y222500
X42500Y231000
X31000Y222500
X41000Y210000
X53400Y211200
X66500Y206000
X83500Y196000
X87000Y204000
X91500Y190000
X104500Y196000
X126000Y193500
X134500Y185500
X118000Y166000
X123500Y159000
X131800Y157200
X117500Y136500
X108500Y138000
X110000Y149000
X99500Y149000
X97000Y159500
X91000Y166000
X86000Y166000
X69500Y159000
X68000Y162500
X66500Y153000
X64500Y140000
X61000Y140000
X73000Y139000
X83000Y139000
X93200Y137300
X87200Y117000
X93000Y111500
X97000Y111500
X128000Y126500
X148000Y126500
X158000Y126500
X177500Y126000
X197500Y126000
X208000Y113000
X215000Y133000
X228500Y131000
X228000Y124000
X238000Y124500
X248500Y128000
X257500Y124000
X265500Y128500
X271500Y128500
X284500Y130000
X291500Y130000
X299500Y125500
X306000Y148000
X306000Y157000
X322000Y179000
X325500Y184500
X332000Y196000
X343000Y189500
X349000Y199000
X355000Y213000
X338500Y236000
X330500Y236000
X338500Y245500
X353500Y247000
X358000Y253000
X350000Y272000
X347000Y276000
X336500Y267000
X330000Y275500
X333000Y279000
X328600Y310000
X318000Y326000
X309500Y336000
X307500Y345000
X303000Y351000
X298500Y341000
X283500Y334000
X278500Y334500
X275500Y337000
X277000Y348000
X273500Y351500
X283500Y348000
X286000Y360500
X292500Y361000
X302500Y375000
X305500Y378000
X317500Y397000
X314500Y402500
X309000Y402500
X303011Y402500
X293000Y400500
X280500Y400500
X255000Y401500
X244000Y389500
X238500Y389500
X241000Y401500
X234500Y409500
X231500Y413500
X223500Y413500
X224000Y407500
X226811Y405000
X222000Y399200
X218000Y396900
X212500Y403000
X209000Y401000
X211100Y397089
X214500Y384000
X222000Y378000
X209500Y373000
X198000Y377500
X198500Y386500
X180500Y387000
X181000Y395700
X175500Y403000
X154000Y411000
X148500Y407500
X144000Y409000
X138000Y400000
X139500Y396500
X135400Y402800
X133500Y411000
X135500Y389500
X136500Y377500
X148800Y374400
X157000Y375500
X150000Y351500
X147500Y341000
X158500Y331000
X164011Y339200
X164000Y342500
X171500Y342500
X171500Y338500
X182600Y331000
X191500Y331000
X203500Y331000
X201500Y340000
X199500Y352000
X200000Y361000
X215500Y361000
X233500Y356000
X233500Y346000
X233500Y336000
X233500Y326000
X233500Y316000
X233500Y306000
X233500Y296000
X246000Y299800
X252000Y301000
X247000Y311000
X260500Y293500
X262000Y278000
X249000Y277000
X231000Y277000
X219000Y286000
X203500Y301000
X215500Y310500
X203500Y321000
X180000Y317000
X173500Y312000
X178000Y306500
X174000Y302000
X178500Y298500
X180000Y295200
X174000Y295000
X170500Y295000
X167000Y295000
X167000Y283200
X170500Y282500
X174000Y282000
X187500Y273500
X188000Y281111
X196500Y274000
X200500Y257000
X206000Y256000
X214500Y264500
X217000Y262000
X219500Y259000
X221500Y254000
X225000Y248000
X232200Y245600
X227000Y236500
X238500Y236500
X248000Y236500
X261400Y235600
X272000Y241000
X278000Y240800
X285000Y245600
X293000Y248500
X299500Y244500
X304000Y235000
X291800Y235600
X305500Y218500
X302500Y202000
X299000Y198500
X293000Y187000
X281500Y189000
X275000Y201000
X268000Y201000
X254500Y199000
X248600Y188400
X245400Y190400
X240600Y191600
X243500Y201000
X228650Y188800
X221400Y195600
X224200Y198400
X216211Y199500
X219411Y191390
X217000Y181800
X210000Y184400
X205000Y178389
X207800Y176400
X214600Y169600
X215389Y159600
X207000Y154500
X203000Y162500
X191665Y157265
X183000Y160500
X171800Y157200
X151800Y157200
X153000Y190000
X168500Y192500
X161000Y216000
X149750Y227250
X142000Y231000
X146000Y216000
X132500Y246000
X135500Y253500
X125500Y267500
X127600Y272700
X136000Y275000
X146500Y266000
X153000Y274500
X166000Y267500
X163000Y247000
X178000Y230000
X202000Y227500
X213000Y226500
X200000Y216000
X206500Y206000
X207500Y196000
X193000Y192000
X227000Y157000
X247000Y158000
X253500Y173500
X263000Y175500
X267000Y158000
X285965Y156965
X324000Y166500
X332000Y167000
X328500Y150000
X343500Y145000
X355000Y143000
X356000Y136000
X355500Y155500
X355500Y161500
X358500Y185000
X391000Y198500
X391000Y220000
X382000Y231000
X387500Y251000
X382500Y272000
X391000Y283500
X390000Y311500
X372500Y334000
X372500Y338000
X373500Y343000
X368500Y334000
X352500Y338000
X348500Y343000
X351000Y345500
X353400Y347900
X332800Y342200
X330800Y338600
X327300Y336000
X327200Y356000
X331000Y365812
X350000Y381500
X366500Y373500
X377500Y373500
X377500Y364500
X391500Y352000
X391500Y348000
X391500Y344000
X391500Y340000
X391500Y336000
X391500Y332000
X391500Y328000
X387500Y332000
X387500Y336000
X387500Y340000
X387500Y344000
X387500Y348000
X370000Y388000
X348000Y402500
X341000Y408000
X341000Y416000
X354000Y417500
X369000Y416500
X331000Y401000
X328600Y396400
X309000Y417900
X252500Y341000
X261500Y330000
X275500Y309500
X281000Y313500
X283000Y307500
X290500Y303500
X298000Y311000
X304500Y303000
X307500Y307000
X304000Y284200
X307300Y282200
X302500Y274600
X305200Y271200
X303000Y262500
X285000Y292000
X273000Y250500
X243000Y249000
X171100Y322800
X166500Y318500
X167500Y352000
X177500Y360000
X199500Y410000
X233500Y366000
X128500Y361000
X123500Y356000
X123500Y346000
X123500Y336000
X123500Y326000
X123500Y316000
X123482Y305982
X127500Y301000
X123500Y296000
X105500Y301000
X104500Y313000
X104500Y323000
X106000Y331000
X105500Y341000
X105500Y351000
X106500Y362000
X123500Y366000
X113500Y394500
X111500Y400000
X114800Y402800
X102000Y407000
X96800Y415800
X93500Y418500
X86000Y400500
X93500Y390500
X90000Y385500
X91500Y299500
X89000Y289000
X89000Y282500
X88500Y273500
X90500Y266500
X89500Y255500
X89500Y226000
X118000Y230000
X120500Y243500
X114000Y276500
X62000Y180000
X42500Y144500
X47000Y141500
X38500Y127000
X23500Y135289
X25800Y145400
X28011Y149000
X30989Y146500
X21500Y176000
X59500Y127500
X62000Y111000
X55500Y111000
X327500Y130500
X332000Y216500
X355500Y313500
T02
X98000Y366000
X98000Y356000
X98000Y346000
X98000Y336000
X98000Y326000
X98000Y316000
X98000Y306000
X98000Y296000
X98000Y286000
X113000Y296000
X113000Y306000
X113000Y316000
X113000Y326000
X113000Y336000
X113000Y346000
X113000Y356000
X113000Y366000
X143000Y366000
X143000Y356000
X143000Y346000
X143000Y336000
X143000Y326000
X143000Y316000
X143000Y306000
X143000Y296000
X158000Y296000
X158000Y306000
X158000Y316000
X158000Y326000
X158000Y336000
X158000Y346000
X158000Y356000
X158000Y366000
X163000Y380000
X173000Y380000
X183000Y380000
X193000Y380000
X188000Y366000
X188000Y356000
X188000Y346000
X188000Y336000
X188000Y326000
X188000Y316000
X188000Y306000
X188000Y296000
X208000Y296000
X208000Y286000
X208000Y271000
X208000Y261000
X208000Y251000
X208000Y241000
X193000Y241000
X193000Y231000
X193000Y221000
X193000Y211000
X193000Y201000
X178000Y201000
X178000Y191000
X163000Y201000
X163000Y211000
X163000Y221000
X163000Y231000
X163000Y241000
X163000Y251000
X163000Y261000
X178000Y261000
X178000Y251000
X178000Y241000
X193000Y251000
X193000Y261000
X178000Y271000
X208000Y306000
X208000Y316000
X208000Y326000
X208000Y336000
X208000Y346000
X208000Y356000
X208000Y366000
X223000Y366000
X223000Y356000
X223000Y346000
X223000Y336000
X223000Y326000
X223000Y316000
X223000Y306000
X223000Y296000
X253000Y296000
X253000Y306000
X253000Y316000
X253000Y326000
X253000Y336000
X253000Y346000
X253000Y356000
X253000Y366000
X268000Y366000
X268000Y356000
X268000Y346000
X268000Y336000
X268000Y326000
X268000Y316000
X268000Y306000
X268000Y296000
X298000Y296000
X298000Y306000
X298000Y316000
X298000Y326000
X298000Y336000
X298000Y346000
X298000Y356000
X298000Y366000
X355000Y355200
X365000Y355200
X375000Y355200
X385000Y355200
X388000Y371000
X388000Y381000
X385000Y325200
X375000Y325200
X365000Y325200
X355000Y325200
X303000Y166000
X293000Y166000
X283000Y166000
X273000Y166000
X263000Y166000
X253000Y166000
X243000Y166000
X233000Y166000
X223000Y166000
X208000Y166000
X198000Y166000
X188000Y166000
X178000Y166000
X168000Y166000
X158000Y166000
X148000Y166000
X138000Y166000
X128000Y166000
X113000Y191000
X113000Y201000
X113000Y211000
X113000Y221000
X98000Y221000
X98000Y211000
X98000Y201000
X98000Y231000
X98000Y241000
X98000Y251000
X98000Y261000
X113000Y261000
X113000Y251000
X113000Y241000
X128000Y241000
X128000Y231000
X128000Y221000
X128000Y211000
X128000Y201000
X143000Y201000
X143000Y191000
X143000Y211000
X143000Y221000
X143000Y241000
X143000Y251000
X143000Y261000
X143000Y271000
X128000Y261000
X128000Y251000
X113000Y271000
X178000Y221000
X178000Y211000
X208000Y211000
X208000Y201000
X208000Y191000
X228000Y181000
X238000Y181000
X248000Y181000
X258000Y181000
X268000Y181000
X278000Y181000
X288000Y181000
X298000Y181000
X298000Y211000
X288000Y211000
X278000Y211000
X268000Y211000
X258000Y211000
X248000Y211000
X238000Y211000
X228000Y211000
X228000Y226000
X238000Y226000
X248000Y226000
X258000Y226000
X268000Y226000
X278000Y226000
X288000Y226000
X298000Y226000
X298000Y256000
X288000Y256000
X278000Y256000
X268000Y256000
X258000Y256000
X248000Y256000
X238000Y256000
X228000Y256000
X208000Y221000
X208000Y136000
X198000Y136000
X188000Y136000
X178000Y136000
X168000Y136000
X158000Y136000
X148000Y136000
X138000Y136000
X128000Y136000
X223000Y136000
X233000Y136000
X243000Y136000
X253000Y136000
X263000Y136000
X273000Y136000
X283000Y136000
X293000Y136000
X303000Y136000
X193000Y410000
X183000Y410000
X173000Y410000
X163000Y410000
T03
X360992Y295980
X360992Y287949
X360992Y280035
X360992Y272004
X368000Y276020
X368000Y284051
X368000Y291965
X368000Y299996
X368000Y229996
X368000Y221965
X368000Y214051
X360992Y217949
X360992Y225980
X360992Y210035
X360992Y202004
X368000Y206020
T04
X38500Y112000
X38500Y122000
X38500Y132000
X48500Y132000
X48500Y122000
X48500Y112000
X70000Y112000
X70000Y122000
X70000Y132000
X80000Y132000
X80000Y122000
X80000Y112000
X94500Y144000
X94500Y154000
X104500Y154000
X104500Y144000
X114500Y144000
X114500Y154000
X118000Y381000
X108000Y381000
X98000Y381000
X128000Y381000
X50000Y396000
X50000Y406000
X50000Y416000
X40000Y416000
X40000Y406000
X40000Y396000
X228000Y381000
X238000Y381000
X248000Y381000
X258000Y381000
X268000Y381000
X278000Y381000
X288000Y381000
X298000Y381000
X356000Y125000
X356000Y115000
X346000Y115000
X346000Y125000
T05
X40000Y160000
X40000Y170000
X40000Y180000
X40000Y190000
X40000Y200000
X50000Y200000
X50000Y190000
X50000Y180000
X50000Y170000
X50000Y160000
X73000Y211000
X73000Y221000
X73000Y231000
X73000Y241000
X73000Y251000
X73000Y261000
X73000Y271000
X73000Y281000
X73000Y291000
X73000Y301000
X73000Y311000
X73000Y321000
X73000Y331000
X73000Y341000
X73000Y351000
X73000Y361000
X73000Y371000
X73000Y381000
X73000Y391000
X83000Y391000
X83000Y381000
X83000Y371000
X83000Y361000
X83000Y351000
X83000Y341000
X83000Y331000
X83000Y321000
X83000Y311000
X83000Y301000
X83000Y291000
X83000Y281000
X83000Y271000
X83000Y261000
X83000Y251000
X83000Y241000
X83000Y231000
X83000Y221000
X83000Y211000
X50000Y244000
X50000Y254000
X50000Y264000
X50000Y274000
X50000Y284000
X40000Y284000
X40000Y274000
X40000Y264000
X40000Y254000
X40000Y244000
X40000Y328000
X40000Y338000
X40000Y348000
X40000Y358000
X40000Y368000
X50000Y368000
X50000Y358000
X50000Y348000
X50000Y338000
X50000Y328000
X313000Y331000
X313000Y341000
X313000Y351000
X313000Y361000
X313000Y371000
X313000Y381000
X313000Y391000
X323000Y391000
X323000Y381000
X323000Y371000
X323000Y361000
X323000Y351000
X323000Y341000
X323000Y331000
X323000Y321000
X323000Y311000
X323000Y301000
X323000Y291000
X323000Y281000
X323000Y271000
X323000Y261000
X323000Y251000
X323000Y241000
X323000Y231000
X323000Y221000
X323000Y211000
X313000Y211000
X313000Y221000
X313000Y231000
X313000Y241000
X313000Y251000
X313000Y261000
X313000Y271000
X313000Y281000
X313000Y291000
X313000Y301000
X313000Y311000
X313000Y321000
X355500Y174898
X367311Y156000
X343295Y156000
T06
X14705Y141000
X15705Y151000
X14705Y161000
X15705Y171000
X14705Y181000
X15705Y191000
X14705Y201000
X15705Y211000
X14705Y226000
X15705Y236000
X14705Y246000
X15705Y256000
X14705Y266000
X15705Y276000
X14705Y286000
X15705Y296000
X15705Y306000
X14705Y316000
X15705Y326000
X14705Y336000
X15705Y346000
X14705Y356000
X15705Y366000
X14705Y376000
X15705Y386000
X123000Y118705
X133000Y117705
X143000Y118705
X153000Y117705
X163000Y118705
X173000Y117705
X183000Y118705
X193000Y117705
X203000Y118705
X223000Y118705
X233000Y117705
X243000Y118705
X253000Y117705
X263000Y118705
X273000Y117705
X283000Y118705
X293000Y117705
X303000Y118705
X358000Y371000
X358000Y391000
T07
X332500Y185500
X332500Y155500
X332500Y146000
X332500Y116000
X343500Y326000
X343500Y356000
T08
X93800Y120500
X108980Y120500
X382000Y163480
X382000Y148300
T09
X378000Y311000
X378000Y261000
X378000Y241000
X378000Y191000
T10
X18000Y121000
X18000Y406000
X381000Y121000
X381500Y406000
M30
