G75*
%MOIN*%
%OFA0B0*%
%FSLAX25Y25*%
%IPPOS*%
%LPD*%
%AMOC8*
5,1,8,0,0,1.08239X$1,22.5*
%
%ADD10C,0.00100*%
%ADD11C,0.00300*%
%ADD12C,0.00500*%
%ADD13C,0.00600*%
%ADD14C,0.00700*%
%ADD15C,0.00800*%
D10*
X0024791Y0037936D02*
X0221641Y0037936D01*
X0221641Y0116676D01*
X0024791Y0116676D01*
X0024791Y0037936D01*
D11*
X0049154Y0064897D02*
X0050605Y0064897D01*
X0051089Y0065381D01*
X0051089Y0065864D01*
X0050605Y0066348D01*
X0049154Y0066348D01*
X0050605Y0066348D02*
X0051089Y0066832D01*
X0051089Y0067316D01*
X0050605Y0067799D01*
X0049154Y0067799D01*
X0049154Y0064897D01*
X0052100Y0064897D02*
X0052100Y0066832D01*
X0053068Y0067799D01*
X0054035Y0066832D01*
X0054035Y0064897D01*
X0054035Y0066348D02*
X0052100Y0066348D01*
X0055047Y0067799D02*
X0056982Y0067799D01*
X0056014Y0067799D02*
X0056014Y0064897D01*
X0039326Y0076877D02*
X0038842Y0076393D01*
X0036907Y0076393D01*
X0036424Y0076877D01*
X0036424Y0077844D01*
X0036907Y0078328D01*
X0036424Y0079340D02*
X0037875Y0079340D01*
X0037391Y0080307D01*
X0037391Y0080791D01*
X0037875Y0081275D01*
X0038842Y0081275D01*
X0039326Y0080791D01*
X0039326Y0079823D01*
X0038842Y0079340D01*
X0038842Y0078328D02*
X0039326Y0077844D01*
X0039326Y0076877D01*
X0036424Y0079340D02*
X0036424Y0081275D01*
X0049092Y0082421D02*
X0049576Y0081937D01*
X0051511Y0081937D01*
X0051995Y0082421D01*
X0051995Y0083388D01*
X0051511Y0083872D01*
X0050543Y0084884D02*
X0050543Y0086818D01*
X0049092Y0086335D02*
X0050543Y0084884D01*
X0049576Y0083872D02*
X0049092Y0083388D01*
X0049092Y0082421D01*
X0049092Y0086335D02*
X0051995Y0086335D01*
X0059998Y0084929D02*
X0059998Y0082994D01*
X0061449Y0082994D01*
X0060965Y0083961D01*
X0060965Y0084445D01*
X0061449Y0084929D01*
X0062416Y0084929D01*
X0062900Y0084445D01*
X0062900Y0083477D01*
X0062416Y0082994D01*
X0062416Y0081982D02*
X0062900Y0081498D01*
X0062900Y0080531D01*
X0062416Y0080047D01*
X0060481Y0080047D01*
X0059998Y0080531D01*
X0059998Y0081498D01*
X0060481Y0081982D01*
X0062416Y0081982D01*
X0062900Y0081982D02*
X0061933Y0081015D01*
X0074704Y0089473D02*
X0074704Y0092375D01*
X0076155Y0092375D01*
X0076639Y0091891D01*
X0076639Y0090924D01*
X0076155Y0090440D01*
X0074704Y0090440D01*
X0075671Y0090440D02*
X0076639Y0089473D01*
X0077650Y0089473D02*
X0079585Y0089473D01*
X0078618Y0089473D02*
X0078618Y0092375D01*
X0077650Y0091408D01*
X0080597Y0090924D02*
X0082048Y0090924D01*
X0082532Y0090440D01*
X0082532Y0089956D01*
X0082048Y0089473D01*
X0081081Y0089473D01*
X0080597Y0089956D01*
X0080597Y0090924D01*
X0081564Y0091891D01*
X0082532Y0092375D01*
X0082856Y0095783D02*
X0081889Y0095783D01*
X0081405Y0096267D01*
X0080393Y0096267D02*
X0080393Y0096750D01*
X0079910Y0097234D01*
X0078942Y0097234D01*
X0078458Y0097718D01*
X0078458Y0098202D01*
X0078942Y0098685D01*
X0079910Y0098685D01*
X0080393Y0098202D01*
X0081405Y0098202D02*
X0081405Y0097718D01*
X0081889Y0097234D01*
X0083340Y0097234D01*
X0083340Y0098202D02*
X0082856Y0098685D01*
X0081889Y0098685D01*
X0081405Y0098202D01*
X0083340Y0098202D02*
X0083340Y0096267D01*
X0082856Y0095783D01*
X0080393Y0096267D02*
X0079910Y0095783D01*
X0078942Y0095783D01*
X0078458Y0096267D01*
X0077447Y0096267D02*
X0076963Y0095783D01*
X0075996Y0095783D01*
X0075512Y0096267D01*
X0075512Y0098685D01*
X0077447Y0098685D02*
X0077447Y0096267D01*
X0079426Y0095299D02*
X0079426Y0099169D01*
X0090630Y0099062D02*
X0091114Y0098578D01*
X0092081Y0098578D01*
X0092565Y0099062D01*
X0092565Y0100997D01*
X0092081Y0101481D01*
X0091114Y0101481D01*
X0090630Y0100997D01*
X0090630Y0099062D01*
X0091598Y0099546D02*
X0092565Y0098578D01*
X0093577Y0099062D02*
X0094060Y0098578D01*
X0095028Y0098578D01*
X0095512Y0099062D01*
X0095512Y0099546D01*
X0095028Y0100029D01*
X0094544Y0100029D01*
X0095028Y0100029D02*
X0095512Y0100513D01*
X0095512Y0100997D01*
X0095028Y0101481D01*
X0094060Y0101481D01*
X0093577Y0100997D01*
X0092842Y0105999D02*
X0092842Y0108902D01*
X0091830Y0108418D02*
X0091830Y0107451D01*
X0091347Y0106967D01*
X0089895Y0106967D01*
X0089895Y0105999D02*
X0089895Y0108902D01*
X0091347Y0108902D01*
X0091830Y0108418D01*
X0090863Y0106967D02*
X0091830Y0105999D01*
X0092842Y0106967D02*
X0094777Y0108902D01*
X0093326Y0107451D02*
X0094777Y0105999D01*
X0097776Y0105999D02*
X0099711Y0105999D01*
X0100722Y0105999D02*
X0101690Y0105999D01*
X0101206Y0105999D02*
X0101206Y0108902D01*
X0100722Y0108902D02*
X0101690Y0108902D01*
X0102687Y0108418D02*
X0102687Y0106483D01*
X0103170Y0105999D01*
X0104138Y0105999D01*
X0104622Y0106483D01*
X0104622Y0107451D01*
X0103654Y0107451D01*
X0102687Y0108418D02*
X0103170Y0108902D01*
X0104138Y0108902D01*
X0104622Y0108418D01*
X0106634Y0108902D02*
X0106634Y0106967D01*
X0107601Y0105999D01*
X0108569Y0106967D01*
X0108569Y0108902D01*
X0109580Y0107451D02*
X0111515Y0107451D01*
X0110548Y0108418D02*
X0110548Y0106483D01*
X0112539Y0105999D02*
X0112539Y0108902D01*
X0113507Y0107934D01*
X0114474Y0108902D01*
X0114474Y0105999D01*
X0115486Y0106483D02*
X0115970Y0105999D01*
X0116937Y0105999D01*
X0117421Y0106483D01*
X0117421Y0108418D01*
X0116937Y0108902D01*
X0115970Y0108902D01*
X0115486Y0108418D01*
X0115486Y0106483D01*
X0118433Y0108902D02*
X0120367Y0108902D01*
X0119400Y0108902D02*
X0119400Y0105999D01*
X0108295Y0101481D02*
X0106844Y0100029D01*
X0108779Y0100029D01*
X0108295Y0098578D02*
X0108295Y0101481D01*
X0105833Y0100997D02*
X0105833Y0099062D01*
X0105349Y0098578D01*
X0104381Y0098578D01*
X0103898Y0099062D01*
X0103898Y0100997D01*
X0104381Y0101481D01*
X0105349Y0101481D01*
X0105833Y0100997D01*
X0104865Y0099546D02*
X0105833Y0098578D01*
X0097776Y0105999D02*
X0097776Y0108902D01*
X0088884Y0108902D02*
X0086949Y0108902D01*
X0087916Y0108902D02*
X0087916Y0105999D01*
X0101181Y0086795D02*
X0102632Y0086795D01*
X0103116Y0086312D01*
X0103116Y0085344D01*
X0102632Y0084860D01*
X0101181Y0084860D01*
X0101181Y0083893D02*
X0101181Y0086795D01*
X0104128Y0086795D02*
X0106063Y0086795D01*
X0106063Y0086312D01*
X0104128Y0084377D01*
X0104128Y0083893D01*
X0103116Y0083893D02*
X0102149Y0084860D01*
X0111413Y0078925D02*
X0111413Y0076507D01*
X0111897Y0076023D01*
X0112865Y0076023D01*
X0113348Y0076507D01*
X0113348Y0078925D01*
X0114360Y0078442D02*
X0114844Y0078925D01*
X0115811Y0078925D01*
X0116295Y0078442D01*
X0115811Y0077474D02*
X0114844Y0077474D01*
X0114360Y0077958D01*
X0114360Y0078442D01*
X0115327Y0079409D02*
X0115327Y0075539D01*
X0114844Y0076023D02*
X0115811Y0076023D01*
X0116295Y0076507D01*
X0116295Y0076990D01*
X0115811Y0077474D01*
X0117307Y0077958D02*
X0118274Y0078925D01*
X0118274Y0076023D01*
X0117307Y0076023D02*
X0119241Y0076023D01*
X0120253Y0076023D02*
X0122188Y0077958D01*
X0122188Y0078442D01*
X0121704Y0078925D01*
X0120737Y0078925D01*
X0120253Y0078442D01*
X0120253Y0076023D02*
X0122188Y0076023D01*
X0128038Y0076955D02*
X0128522Y0076472D01*
X0130457Y0076472D01*
X0130940Y0076955D01*
X0130940Y0077923D01*
X0130457Y0078407D01*
X0130940Y0079418D02*
X0129005Y0081353D01*
X0128522Y0081353D01*
X0128038Y0080870D01*
X0128038Y0079902D01*
X0128522Y0079418D01*
X0128522Y0078407D02*
X0128038Y0077923D01*
X0128038Y0076955D01*
X0130940Y0079418D02*
X0130940Y0081353D01*
X0117874Y0084377D02*
X0117390Y0083893D01*
X0116422Y0083893D01*
X0115939Y0084377D01*
X0115939Y0084860D01*
X0116422Y0085344D01*
X0117390Y0085344D01*
X0117874Y0084860D01*
X0117874Y0084377D01*
X0117390Y0085344D02*
X0117874Y0085828D01*
X0117874Y0086312D01*
X0117390Y0086795D01*
X0116422Y0086795D01*
X0115939Y0086312D01*
X0115939Y0085828D01*
X0116422Y0085344D01*
X0114927Y0085344D02*
X0114443Y0084860D01*
X0112992Y0084860D01*
X0112992Y0083893D02*
X0112992Y0086795D01*
X0114443Y0086795D01*
X0114927Y0086312D01*
X0114927Y0085344D01*
X0113960Y0084860D02*
X0114927Y0083893D01*
X0114360Y0076507D02*
X0114844Y0076023D01*
X0103201Y0072206D02*
X0103201Y0070271D01*
X0102717Y0069788D01*
X0101750Y0069788D01*
X0101266Y0070271D01*
X0101750Y0071239D02*
X0103201Y0071239D01*
X0103201Y0072206D02*
X0102717Y0072690D01*
X0101750Y0072690D01*
X0101266Y0072206D01*
X0101266Y0071722D01*
X0101750Y0071239D01*
X0100255Y0069788D02*
X0098320Y0069788D01*
X0099287Y0069788D02*
X0099287Y0072690D01*
X0098320Y0071722D01*
X0097308Y0071239D02*
X0096824Y0070755D01*
X0095373Y0070755D01*
X0095373Y0069788D02*
X0095373Y0072690D01*
X0096824Y0072690D01*
X0097308Y0072206D01*
X0097308Y0071239D01*
X0096341Y0070755D02*
X0097308Y0069788D01*
X0089017Y0079551D02*
X0088049Y0079551D01*
X0087565Y0080035D01*
X0087565Y0080519D01*
X0088049Y0081003D01*
X0089017Y0081003D01*
X0089500Y0080519D01*
X0089500Y0080035D01*
X0089017Y0079551D01*
X0089017Y0081003D02*
X0089500Y0081486D01*
X0089500Y0081970D01*
X0089017Y0082454D01*
X0088049Y0082454D01*
X0087565Y0081970D01*
X0087565Y0081486D01*
X0088049Y0081003D01*
X0086554Y0080519D02*
X0086554Y0080035D01*
X0086070Y0079551D01*
X0085103Y0079551D01*
X0084619Y0080035D01*
X0083607Y0080035D02*
X0083607Y0082454D01*
X0084619Y0081970D02*
X0085103Y0082454D01*
X0086070Y0082454D01*
X0086554Y0081970D01*
X0086070Y0081003D02*
X0085103Y0081003D01*
X0084619Y0081486D01*
X0084619Y0081970D01*
X0085586Y0082938D02*
X0085586Y0079068D01*
X0086554Y0080519D02*
X0086070Y0081003D01*
X0083607Y0080035D02*
X0083124Y0079551D01*
X0082156Y0079551D01*
X0081672Y0080035D01*
X0081672Y0082454D01*
X0121942Y0066301D02*
X0121942Y0064366D01*
X0122425Y0063882D01*
X0123393Y0063882D01*
X0123877Y0064366D01*
X0124888Y0064366D02*
X0125372Y0063882D01*
X0126339Y0063882D01*
X0126823Y0064366D01*
X0126823Y0064849D01*
X0126339Y0065333D01*
X0124888Y0065333D01*
X0124888Y0064366D01*
X0124888Y0065333D02*
X0125856Y0066301D01*
X0126823Y0066784D01*
X0123877Y0066301D02*
X0123393Y0066784D01*
X0122425Y0066784D01*
X0121942Y0066301D01*
X0132225Y0066629D02*
X0132225Y0069532D01*
X0133676Y0069532D01*
X0134159Y0069048D01*
X0134159Y0068080D01*
X0133676Y0067597D01*
X0132225Y0067597D01*
X0133192Y0067597D02*
X0134159Y0066629D01*
X0135171Y0066629D02*
X0137106Y0068564D01*
X0137106Y0069048D01*
X0136622Y0069532D01*
X0135655Y0069532D01*
X0135171Y0069048D01*
X0138118Y0069048D02*
X0138118Y0067113D01*
X0140053Y0069048D01*
X0140053Y0067113D01*
X0139569Y0066629D01*
X0138601Y0066629D01*
X0138118Y0067113D01*
X0137106Y0066629D02*
X0135171Y0066629D01*
X0138118Y0069048D02*
X0138601Y0069532D01*
X0139569Y0069532D01*
X0140053Y0069048D01*
X0157874Y0063173D02*
X0157874Y0060271D01*
X0157874Y0061238D02*
X0159325Y0061238D01*
X0159809Y0061722D01*
X0159809Y0062690D01*
X0159325Y0063173D01*
X0157874Y0063173D01*
X0158842Y0061238D02*
X0159809Y0060271D01*
X0160821Y0060271D02*
X0162756Y0060271D01*
X0161788Y0060271D02*
X0161788Y0063173D01*
X0160821Y0062206D01*
X0163767Y0062690D02*
X0163767Y0060755D01*
X0165702Y0062690D01*
X0165702Y0060755D01*
X0165218Y0060271D01*
X0164251Y0060271D01*
X0163767Y0060755D01*
X0163767Y0062690D02*
X0164251Y0063173D01*
X0165218Y0063173D01*
X0165702Y0062690D01*
X0166142Y0054906D02*
X0167593Y0054906D01*
X0168077Y0054422D01*
X0168077Y0053454D01*
X0167593Y0052971D01*
X0166142Y0052971D01*
X0167109Y0052971D02*
X0168077Y0052003D01*
X0169088Y0052003D02*
X0171023Y0052003D01*
X0170056Y0052003D02*
X0170056Y0054906D01*
X0169088Y0053938D01*
X0166142Y0054906D02*
X0166142Y0052003D01*
X0172035Y0052487D02*
X0172519Y0052003D01*
X0173486Y0052003D01*
X0173970Y0052487D01*
X0173970Y0053454D01*
X0173486Y0053938D01*
X0173002Y0053938D01*
X0172035Y0053454D01*
X0172035Y0054906D01*
X0173970Y0054906D01*
X0179625Y0054973D02*
X0179625Y0052071D01*
X0179625Y0053038D02*
X0181076Y0053038D01*
X0181560Y0053522D01*
X0181560Y0054490D01*
X0181076Y0054973D01*
X0179625Y0054973D01*
X0182572Y0054006D02*
X0183539Y0054973D01*
X0183539Y0052071D01*
X0182572Y0052071D02*
X0184507Y0052071D01*
X0185518Y0052071D02*
X0187453Y0054006D01*
X0187453Y0054490D01*
X0186969Y0054973D01*
X0186002Y0054973D01*
X0185518Y0054490D01*
X0185518Y0052071D02*
X0187453Y0052071D01*
X0181560Y0052071D02*
X0180593Y0053038D01*
X0160288Y0053522D02*
X0158353Y0053522D01*
X0159804Y0054973D01*
X0159804Y0052071D01*
X0157341Y0052071D02*
X0155406Y0052071D01*
X0156374Y0052071D02*
X0156374Y0054973D01*
X0155406Y0054006D01*
X0154395Y0054490D02*
X0154395Y0053522D01*
X0153911Y0053038D01*
X0152460Y0053038D01*
X0152460Y0052071D02*
X0152460Y0054973D01*
X0153911Y0054973D01*
X0154395Y0054490D01*
X0153427Y0053038D02*
X0154395Y0052071D01*
X0139068Y0051865D02*
X0137133Y0051865D01*
X0138101Y0051865D02*
X0138101Y0054768D01*
X0137133Y0053800D01*
X0136122Y0053800D02*
X0136122Y0054284D01*
X0135638Y0054768D01*
X0134671Y0054768D01*
X0134187Y0054284D01*
X0133175Y0054284D02*
X0133175Y0053317D01*
X0132691Y0052833D01*
X0131240Y0052833D01*
X0131240Y0051865D02*
X0131240Y0054768D01*
X0132691Y0054768D01*
X0133175Y0054284D01*
X0132208Y0052833D02*
X0133175Y0051865D01*
X0134187Y0051865D02*
X0136122Y0053800D01*
X0136122Y0051865D02*
X0134187Y0051865D01*
X0130704Y0047901D02*
X0131188Y0047417D01*
X0131188Y0046450D01*
X0130704Y0045966D01*
X0130220Y0045966D01*
X0129736Y0046450D01*
X0129736Y0047417D01*
X0130220Y0047901D01*
X0130704Y0047901D01*
X0129736Y0047417D02*
X0129253Y0047901D01*
X0128769Y0047901D01*
X0128285Y0047417D01*
X0128285Y0046450D01*
X0128769Y0045966D01*
X0129253Y0045966D01*
X0129736Y0046450D01*
X0128769Y0044955D02*
X0128285Y0044471D01*
X0128285Y0043503D01*
X0128769Y0043020D01*
X0130704Y0043020D01*
X0131188Y0043503D01*
X0131188Y0044471D01*
X0130704Y0044955D01*
X0123339Y0051118D02*
X0122855Y0050634D01*
X0121888Y0050634D01*
X0121404Y0051118D01*
X0120392Y0050634D02*
X0118457Y0050634D01*
X0120392Y0052569D01*
X0120392Y0053053D01*
X0119909Y0053536D01*
X0118941Y0053536D01*
X0118457Y0053053D01*
X0117446Y0053053D02*
X0117446Y0052085D01*
X0116962Y0051601D01*
X0115511Y0051601D01*
X0115511Y0050634D02*
X0115511Y0053536D01*
X0116962Y0053536D01*
X0117446Y0053053D01*
X0116478Y0051601D02*
X0117446Y0050634D01*
X0116050Y0048511D02*
X0116050Y0046576D01*
X0116050Y0047544D02*
X0113147Y0047544D01*
X0114115Y0046576D01*
X0113631Y0045565D02*
X0113147Y0045081D01*
X0113147Y0044114D01*
X0113631Y0043630D01*
X0114115Y0043630D01*
X0114598Y0044114D01*
X0114598Y0045081D01*
X0115082Y0045565D01*
X0115566Y0045565D01*
X0116050Y0045081D01*
X0116050Y0044114D01*
X0115566Y0043630D01*
X0115566Y0042618D02*
X0113147Y0042618D01*
X0112663Y0044597D02*
X0116533Y0044597D01*
X0115566Y0042618D02*
X0116050Y0042135D01*
X0116050Y0041167D01*
X0115566Y0040683D01*
X0113147Y0040683D01*
X0100223Y0044035D02*
X0099739Y0043551D01*
X0097804Y0043551D01*
X0097320Y0044035D01*
X0097320Y0045002D01*
X0097804Y0045486D01*
X0097320Y0046498D02*
X0097320Y0048433D01*
X0097804Y0048433D01*
X0099739Y0046498D01*
X0100223Y0046498D01*
X0099739Y0045486D02*
X0100223Y0045002D01*
X0100223Y0044035D01*
X0087815Y0049976D02*
X0085880Y0049976D01*
X0086847Y0049976D02*
X0086847Y0052878D01*
X0085880Y0051911D01*
X0084868Y0052394D02*
X0084384Y0052878D01*
X0083417Y0052878D01*
X0082933Y0052394D01*
X0082933Y0050459D01*
X0083417Y0049976D01*
X0084384Y0049976D01*
X0084868Y0050459D01*
X0121404Y0053053D02*
X0121888Y0053536D01*
X0122855Y0053536D01*
X0123339Y0053053D01*
X0123339Y0052569D01*
X0122855Y0052085D01*
X0123339Y0051601D01*
X0123339Y0051118D01*
X0122855Y0052085D02*
X0122371Y0052085D01*
X0158799Y0074110D02*
X0158799Y0077012D01*
X0160251Y0077012D01*
X0160734Y0076528D01*
X0160734Y0075561D01*
X0160251Y0075077D01*
X0158799Y0075077D01*
X0159767Y0075077D02*
X0160734Y0074110D01*
X0161746Y0074593D02*
X0162230Y0074110D01*
X0163197Y0074110D01*
X0163681Y0074593D01*
X0163681Y0076528D01*
X0163197Y0077012D01*
X0162230Y0077012D01*
X0161746Y0076528D01*
X0161746Y0076045D01*
X0162230Y0075561D01*
X0163681Y0075561D01*
X0164855Y0074692D02*
X0166306Y0074692D01*
X0166790Y0075176D01*
X0166790Y0076143D01*
X0166306Y0076627D01*
X0164855Y0076627D01*
X0164855Y0073725D01*
X0165823Y0074692D02*
X0166790Y0073725D01*
X0167802Y0073725D02*
X0169737Y0073725D01*
X0168769Y0073725D02*
X0168769Y0076627D01*
X0167802Y0075659D01*
X0177439Y0074917D02*
X0177439Y0073950D01*
X0177922Y0073466D01*
X0177922Y0072455D02*
X0178890Y0072455D01*
X0179374Y0071971D01*
X0179374Y0070520D01*
X0180341Y0070520D02*
X0177439Y0070520D01*
X0177439Y0071971D01*
X0177922Y0072455D01*
X0179374Y0071487D02*
X0180341Y0072455D01*
X0179857Y0073466D02*
X0180341Y0073950D01*
X0180341Y0074917D01*
X0179857Y0075401D01*
X0179374Y0075401D01*
X0178890Y0074917D01*
X0178890Y0074434D01*
X0178890Y0074917D02*
X0178406Y0075401D01*
X0177922Y0075401D01*
X0177439Y0074917D01*
X0187126Y0073595D02*
X0187126Y0071660D01*
X0187610Y0071176D01*
X0188577Y0071176D01*
X0189061Y0071660D01*
X0189061Y0073595D01*
X0188577Y0074079D01*
X0187610Y0074079D01*
X0187126Y0073595D01*
X0188094Y0072144D02*
X0189061Y0071176D01*
X0190073Y0071176D02*
X0192008Y0071176D01*
X0191040Y0071176D02*
X0191040Y0074079D01*
X0190073Y0073111D01*
X0190302Y0080162D02*
X0192237Y0082096D01*
X0192237Y0082580D01*
X0191753Y0083064D01*
X0190785Y0083064D01*
X0190302Y0082580D01*
X0189290Y0082580D02*
X0189290Y0080645D01*
X0188806Y0080162D01*
X0187839Y0080162D01*
X0187355Y0080645D01*
X0187355Y0082580D01*
X0187839Y0083064D01*
X0188806Y0083064D01*
X0189290Y0082580D01*
X0188323Y0081129D02*
X0189290Y0080162D01*
X0190302Y0080162D02*
X0192237Y0080162D01*
X0205915Y0085268D02*
X0205915Y0086719D01*
X0206399Y0087203D01*
X0207366Y0087203D01*
X0207850Y0086719D01*
X0207850Y0085268D01*
X0207850Y0086235D02*
X0208817Y0087203D01*
X0208334Y0088214D02*
X0207850Y0088698D01*
X0207850Y0090149D01*
X0207366Y0090149D02*
X0208817Y0090149D01*
X0208817Y0088698D01*
X0208334Y0088214D01*
X0206882Y0088698D02*
X0206882Y0089665D01*
X0207366Y0090149D01*
X0207366Y0091161D02*
X0208334Y0091161D01*
X0208817Y0091644D01*
X0208817Y0093096D01*
X0208817Y0094107D02*
X0208817Y0096042D01*
X0206882Y0096042D02*
X0208817Y0094107D01*
X0206882Y0094107D02*
X0206882Y0096042D01*
X0206882Y0093096D02*
X0206882Y0091644D01*
X0207366Y0091161D01*
X0208817Y0085268D02*
X0205915Y0085268D01*
X0213134Y0082805D02*
X0213134Y0082321D01*
X0213617Y0082321D01*
X0213617Y0082805D01*
X0213134Y0082805D01*
X0213134Y0081310D02*
X0212650Y0081310D01*
X0212166Y0080826D01*
X0212166Y0079375D01*
X0213134Y0079375D01*
X0213617Y0079858D01*
X0213617Y0080826D01*
X0213134Y0081310D01*
X0211199Y0080342D02*
X0212166Y0079375D01*
X0211199Y0080342D02*
X0210715Y0081310D01*
X0208817Y0080826D02*
X0208817Y0079375D01*
X0208817Y0078363D02*
X0208817Y0076428D01*
X0206882Y0078363D01*
X0206882Y0076428D01*
X0207366Y0075417D02*
X0208817Y0075417D01*
X0208817Y0073965D01*
X0208334Y0073482D01*
X0207850Y0073965D01*
X0207850Y0075417D01*
X0207366Y0075417D02*
X0206882Y0074933D01*
X0206882Y0073965D01*
X0205915Y0072001D02*
X0208817Y0072001D01*
X0208817Y0071517D02*
X0208817Y0072485D01*
X0208817Y0070506D02*
X0207366Y0070506D01*
X0206882Y0070022D01*
X0206882Y0069054D01*
X0207850Y0069054D02*
X0207850Y0070506D01*
X0208817Y0070506D02*
X0208817Y0069054D01*
X0208334Y0068571D01*
X0207850Y0069054D01*
X0207850Y0067559D02*
X0207366Y0067075D01*
X0207366Y0065624D01*
X0205915Y0065624D02*
X0205915Y0067075D01*
X0206399Y0067559D01*
X0206882Y0067559D01*
X0207366Y0067075D01*
X0207850Y0067559D02*
X0208334Y0067559D01*
X0208817Y0067075D01*
X0208817Y0065624D01*
X0205915Y0065624D01*
X0210715Y0066577D02*
X0211199Y0065609D01*
X0212166Y0064642D01*
X0212166Y0066093D01*
X0212650Y0066577D01*
X0213134Y0066577D01*
X0213617Y0066093D01*
X0213617Y0065126D01*
X0213134Y0064642D01*
X0212166Y0064642D01*
X0213617Y0063630D02*
X0213617Y0061695D01*
X0213617Y0062663D02*
X0210715Y0062663D01*
X0211682Y0061695D01*
X0211199Y0060684D02*
X0213134Y0058749D01*
X0213617Y0059233D01*
X0213617Y0060200D01*
X0213134Y0060684D01*
X0211199Y0060684D01*
X0210715Y0060200D01*
X0210715Y0059233D01*
X0211199Y0058749D01*
X0213134Y0058749D01*
X0213617Y0057737D02*
X0213617Y0055802D01*
X0211682Y0057737D01*
X0211199Y0057737D01*
X0210715Y0057254D01*
X0210715Y0056286D01*
X0211199Y0055802D01*
X0208817Y0056770D02*
X0207850Y0055802D01*
X0206882Y0055802D01*
X0205915Y0056770D01*
X0207366Y0057767D02*
X0208334Y0057767D01*
X0208817Y0058251D01*
X0208817Y0059702D01*
X0208817Y0060713D02*
X0207850Y0061681D01*
X0206882Y0061681D01*
X0205915Y0060713D01*
X0206882Y0059702D02*
X0206882Y0058251D01*
X0207366Y0057767D01*
X0213134Y0067589D02*
X0213134Y0068072D01*
X0213617Y0068072D01*
X0213617Y0067589D01*
X0213134Y0067589D01*
X0213134Y0069062D02*
X0211199Y0069062D01*
X0210715Y0069546D01*
X0210715Y0070513D01*
X0211199Y0070997D01*
X0213134Y0069062D01*
X0213617Y0069546D01*
X0213617Y0070513D01*
X0213134Y0070997D01*
X0211199Y0070997D01*
X0212166Y0072008D02*
X0212166Y0073460D01*
X0212650Y0073943D01*
X0213134Y0073943D01*
X0213617Y0073460D01*
X0213617Y0072492D01*
X0213134Y0072008D01*
X0212166Y0072008D01*
X0211199Y0072976D01*
X0210715Y0073943D01*
X0213134Y0074955D02*
X0213134Y0075439D01*
X0213617Y0075439D01*
X0213617Y0074955D01*
X0213134Y0074955D01*
X0213134Y0076428D02*
X0211199Y0076428D01*
X0210715Y0076912D01*
X0210715Y0077879D01*
X0211199Y0078363D01*
X0213134Y0076428D01*
X0213617Y0076912D01*
X0213617Y0077879D01*
X0213134Y0078363D01*
X0211199Y0078363D01*
X0207850Y0079858D02*
X0207366Y0079375D01*
X0206882Y0079858D01*
X0206882Y0081310D01*
X0207850Y0080826D02*
X0207850Y0079858D01*
X0207850Y0080826D02*
X0208334Y0081310D01*
X0208817Y0080826D01*
X0205915Y0072001D02*
X0205915Y0071517D01*
X0176463Y0088295D02*
X0173561Y0088295D01*
X0173561Y0089746D01*
X0174044Y0090230D01*
X0175012Y0090230D01*
X0175496Y0089746D01*
X0175496Y0088295D01*
X0175496Y0089263D02*
X0176463Y0090230D01*
X0175012Y0091242D02*
X0175012Y0093177D01*
X0176463Y0092693D02*
X0173561Y0092693D01*
X0175012Y0091242D01*
X0166193Y0090907D02*
X0165710Y0091391D01*
X0164742Y0091391D01*
X0164258Y0090907D01*
X0163247Y0090907D02*
X0163247Y0089940D01*
X0162763Y0089456D01*
X0161312Y0089456D01*
X0162279Y0089456D02*
X0163247Y0088488D01*
X0164258Y0088488D02*
X0166193Y0090423D01*
X0166193Y0090907D01*
X0163247Y0090907D02*
X0162763Y0091391D01*
X0161312Y0091391D01*
X0161312Y0088488D01*
X0164258Y0088488D02*
X0166193Y0088488D01*
X0166652Y0099847D02*
X0164717Y0099847D01*
X0165685Y0099847D02*
X0165685Y0102749D01*
X0164717Y0101782D01*
X0163706Y0102265D02*
X0163706Y0101298D01*
X0163222Y0100814D01*
X0161771Y0100814D01*
X0162738Y0100814D02*
X0163706Y0099847D01*
X0161771Y0099847D02*
X0161771Y0102749D01*
X0163222Y0102749D01*
X0163706Y0102265D01*
X0167664Y0102749D02*
X0169599Y0102749D01*
X0169599Y0102265D01*
X0167664Y0100330D01*
X0167664Y0099847D01*
X0157788Y0100330D02*
X0157304Y0099847D01*
X0156337Y0099847D01*
X0155853Y0100330D01*
X0155853Y0100814D01*
X0156337Y0101298D01*
X0157304Y0101298D01*
X0157788Y0100814D01*
X0157788Y0100330D01*
X0157304Y0101298D02*
X0157788Y0101782D01*
X0157788Y0102265D01*
X0157304Y0102749D01*
X0156337Y0102749D01*
X0155853Y0102265D01*
X0155853Y0101782D01*
X0156337Y0101298D01*
X0154841Y0099847D02*
X0152906Y0099847D01*
X0153874Y0099847D02*
X0153874Y0102749D01*
X0152906Y0101782D01*
X0151895Y0102265D02*
X0151895Y0101298D01*
X0151411Y0100814D01*
X0149960Y0100814D01*
X0150927Y0100814D02*
X0151895Y0099847D01*
X0149960Y0099847D02*
X0149960Y0102749D01*
X0151411Y0102749D01*
X0151895Y0102265D01*
X0142040Y0102265D02*
X0142040Y0101782D01*
X0141556Y0101298D01*
X0142040Y0100814D01*
X0142040Y0100330D01*
X0141556Y0099847D01*
X0140588Y0099847D01*
X0140105Y0100330D01*
X0139093Y0099847D02*
X0137158Y0099847D01*
X0138126Y0099847D02*
X0138126Y0102749D01*
X0137158Y0101782D01*
X0136147Y0102265D02*
X0136147Y0101298D01*
X0135663Y0100814D01*
X0134212Y0100814D01*
X0135179Y0100814D02*
X0136147Y0099847D01*
X0134212Y0099847D02*
X0134212Y0102749D01*
X0135663Y0102749D01*
X0136147Y0102265D01*
X0140105Y0102265D02*
X0140588Y0102749D01*
X0141556Y0102749D01*
X0142040Y0102265D01*
X0141556Y0101298D02*
X0141072Y0101298D01*
X0179487Y0100814D02*
X0180939Y0100814D01*
X0181422Y0101298D01*
X0181422Y0102265D01*
X0180939Y0102749D01*
X0179487Y0102749D01*
X0179487Y0099847D01*
X0180455Y0100814D02*
X0181422Y0099847D01*
X0182434Y0099847D02*
X0184369Y0099847D01*
X0183401Y0099847D02*
X0183401Y0102749D01*
X0182434Y0101782D01*
X0185380Y0101782D02*
X0186348Y0102749D01*
X0186348Y0099847D01*
X0187315Y0099847D02*
X0185380Y0099847D01*
X0047992Y0106030D02*
X0047508Y0105547D01*
X0046541Y0105547D01*
X0046057Y0106030D01*
X0045045Y0106030D02*
X0044562Y0105547D01*
X0043594Y0105547D01*
X0043110Y0106030D01*
X0043110Y0107965D01*
X0043594Y0108449D01*
X0044562Y0108449D01*
X0045045Y0107965D01*
X0046057Y0107965D02*
X0046541Y0108449D01*
X0047508Y0108449D01*
X0047992Y0107965D01*
X0047992Y0107482D01*
X0047508Y0106998D01*
X0047992Y0106514D01*
X0047992Y0106030D01*
X0047508Y0106998D02*
X0047024Y0106998D01*
X0031888Y0104637D02*
X0028018Y0104637D01*
X0028502Y0105120D02*
X0028985Y0105604D01*
X0028502Y0105120D02*
X0028502Y0104153D01*
X0028985Y0103669D01*
X0029469Y0103669D01*
X0029953Y0104153D01*
X0029953Y0105120D01*
X0030437Y0105604D01*
X0030920Y0105604D01*
X0031404Y0105120D01*
X0031404Y0104153D01*
X0030920Y0103669D01*
X0030920Y0102658D02*
X0028502Y0102658D01*
X0030920Y0102658D02*
X0031404Y0102174D01*
X0031404Y0101206D01*
X0030920Y0100723D01*
X0028502Y0100723D01*
X0029953Y0106616D02*
X0029953Y0108067D01*
X0030437Y0108551D01*
X0030920Y0108551D01*
X0031404Y0108067D01*
X0031404Y0107100D01*
X0030920Y0106616D01*
X0029953Y0106616D01*
X0028985Y0107583D01*
X0028502Y0108551D01*
D12*
X0040145Y0106046D02*
X0040147Y0106085D01*
X0040153Y0106124D01*
X0040163Y0106162D01*
X0040176Y0106199D01*
X0040193Y0106234D01*
X0040213Y0106268D01*
X0040237Y0106299D01*
X0040264Y0106328D01*
X0040293Y0106354D01*
X0040325Y0106377D01*
X0040359Y0106397D01*
X0040395Y0106413D01*
X0040432Y0106425D01*
X0040471Y0106434D01*
X0040510Y0106439D01*
X0040549Y0106440D01*
X0040588Y0106437D01*
X0040627Y0106430D01*
X0040664Y0106419D01*
X0040701Y0106405D01*
X0040736Y0106387D01*
X0040769Y0106366D01*
X0040800Y0106341D01*
X0040828Y0106314D01*
X0040853Y0106284D01*
X0040875Y0106251D01*
X0040894Y0106217D01*
X0040909Y0106181D01*
X0040921Y0106143D01*
X0040929Y0106105D01*
X0040933Y0106066D01*
X0040933Y0106026D01*
X0040929Y0105987D01*
X0040921Y0105949D01*
X0040909Y0105911D01*
X0040894Y0105875D01*
X0040875Y0105841D01*
X0040853Y0105808D01*
X0040828Y0105778D01*
X0040800Y0105751D01*
X0040769Y0105726D01*
X0040736Y0105705D01*
X0040701Y0105687D01*
X0040664Y0105673D01*
X0040627Y0105662D01*
X0040588Y0105655D01*
X0040549Y0105652D01*
X0040510Y0105653D01*
X0040471Y0105658D01*
X0040432Y0105667D01*
X0040395Y0105679D01*
X0040359Y0105695D01*
X0040325Y0105715D01*
X0040293Y0105738D01*
X0040264Y0105764D01*
X0040237Y0105793D01*
X0040213Y0105824D01*
X0040193Y0105858D01*
X0040176Y0105893D01*
X0040163Y0105930D01*
X0040153Y0105968D01*
X0040147Y0106007D01*
X0040145Y0106046D01*
X0048413Y0106834D02*
X0048413Y0094235D01*
X0051563Y0091086D01*
X0061012Y0091086D01*
X0064161Y0094235D01*
X0064161Y0106834D01*
X0048413Y0106834D01*
X0063374Y0109196D02*
X0063374Y0112345D01*
X0063767Y0110771D02*
X0065342Y0112345D01*
X0065342Y0109196D01*
X0063767Y0110771D01*
X0042114Y0090298D02*
X0038964Y0090298D01*
X0040539Y0088723D01*
X0042114Y0090298D01*
X0042114Y0088330D02*
X0038964Y0088330D01*
X0040539Y0073133D02*
X0056287Y0073133D01*
X0056287Y0069786D01*
X0046445Y0069786D01*
X0046445Y0064275D01*
X0026760Y0066243D02*
X0026760Y0048526D01*
X0040539Y0041637D02*
X0056287Y0041637D01*
X0056287Y0044983D01*
X0046445Y0044983D01*
X0046445Y0050495D01*
X0089949Y0052503D02*
X0105303Y0052503D01*
X0105303Y0062739D01*
X0089949Y0062739D01*
X0089949Y0052503D01*
X0103793Y0053881D02*
X0103795Y0053903D01*
X0103801Y0053925D01*
X0103810Y0053945D01*
X0103822Y0053964D01*
X0103838Y0053980D01*
X0103856Y0053993D01*
X0103876Y0054003D01*
X0103897Y0054010D01*
X0103919Y0054013D01*
X0103942Y0054012D01*
X0103964Y0054007D01*
X0103984Y0053999D01*
X0104003Y0053987D01*
X0104020Y0053972D01*
X0104034Y0053955D01*
X0104045Y0053935D01*
X0104053Y0053914D01*
X0104057Y0053892D01*
X0104057Y0053870D01*
X0104053Y0053848D01*
X0104045Y0053827D01*
X0104034Y0053807D01*
X0104020Y0053790D01*
X0104003Y0053775D01*
X0103984Y0053763D01*
X0103964Y0053755D01*
X0103942Y0053750D01*
X0103919Y0053749D01*
X0103897Y0053752D01*
X0103876Y0053759D01*
X0103856Y0053769D01*
X0103838Y0053782D01*
X0103822Y0053798D01*
X0103810Y0053817D01*
X0103801Y0053837D01*
X0103795Y0053859D01*
X0103793Y0053881D01*
X0147626Y0061558D02*
X0147626Y0073369D01*
X0153925Y0073369D01*
X0153925Y0061558D01*
X0147626Y0061558D01*
X0151793Y0063133D02*
X0151795Y0063180D01*
X0151801Y0063226D01*
X0151810Y0063272D01*
X0151824Y0063316D01*
X0151841Y0063360D01*
X0151862Y0063401D01*
X0151886Y0063441D01*
X0151913Y0063479D01*
X0151944Y0063514D01*
X0151977Y0063547D01*
X0152013Y0063577D01*
X0152052Y0063603D01*
X0152092Y0063627D01*
X0152134Y0063646D01*
X0152178Y0063663D01*
X0152223Y0063675D01*
X0152269Y0063684D01*
X0152315Y0063689D01*
X0152362Y0063690D01*
X0152408Y0063687D01*
X0152454Y0063680D01*
X0152500Y0063669D01*
X0152544Y0063655D01*
X0152587Y0063637D01*
X0152628Y0063615D01*
X0152668Y0063590D01*
X0152705Y0063562D01*
X0152740Y0063531D01*
X0152772Y0063497D01*
X0152801Y0063460D01*
X0152826Y0063422D01*
X0152849Y0063381D01*
X0152868Y0063338D01*
X0152883Y0063294D01*
X0152895Y0063249D01*
X0152903Y0063203D01*
X0152907Y0063156D01*
X0152907Y0063110D01*
X0152903Y0063063D01*
X0152895Y0063017D01*
X0152883Y0062972D01*
X0152868Y0062928D01*
X0152849Y0062885D01*
X0152826Y0062844D01*
X0152801Y0062806D01*
X0152772Y0062769D01*
X0152740Y0062735D01*
X0152705Y0062704D01*
X0152668Y0062676D01*
X0152629Y0062651D01*
X0152587Y0062629D01*
X0152544Y0062611D01*
X0152500Y0062597D01*
X0152454Y0062586D01*
X0152408Y0062579D01*
X0152362Y0062576D01*
X0152315Y0062577D01*
X0152269Y0062582D01*
X0152223Y0062591D01*
X0152178Y0062603D01*
X0152134Y0062620D01*
X0152092Y0062639D01*
X0152052Y0062663D01*
X0152013Y0062689D01*
X0151977Y0062719D01*
X0151944Y0062752D01*
X0151913Y0062787D01*
X0151886Y0062825D01*
X0151862Y0062865D01*
X0151841Y0062906D01*
X0151824Y0062950D01*
X0151810Y0062994D01*
X0151801Y0063040D01*
X0151795Y0063086D01*
X0151793Y0063133D01*
X0153925Y0075338D02*
X0147626Y0075338D01*
X0147626Y0087149D01*
X0153925Y0087149D01*
X0153925Y0075338D01*
X0151793Y0076912D02*
X0151795Y0076959D01*
X0151801Y0077005D01*
X0151810Y0077051D01*
X0151824Y0077095D01*
X0151841Y0077139D01*
X0151862Y0077180D01*
X0151886Y0077220D01*
X0151913Y0077258D01*
X0151944Y0077293D01*
X0151977Y0077326D01*
X0152013Y0077356D01*
X0152052Y0077382D01*
X0152092Y0077406D01*
X0152134Y0077425D01*
X0152178Y0077442D01*
X0152223Y0077454D01*
X0152269Y0077463D01*
X0152315Y0077468D01*
X0152362Y0077469D01*
X0152408Y0077466D01*
X0152454Y0077459D01*
X0152500Y0077448D01*
X0152544Y0077434D01*
X0152587Y0077416D01*
X0152628Y0077394D01*
X0152668Y0077369D01*
X0152705Y0077341D01*
X0152740Y0077310D01*
X0152772Y0077276D01*
X0152801Y0077239D01*
X0152826Y0077201D01*
X0152849Y0077160D01*
X0152868Y0077117D01*
X0152883Y0077073D01*
X0152895Y0077028D01*
X0152903Y0076982D01*
X0152907Y0076935D01*
X0152907Y0076889D01*
X0152903Y0076842D01*
X0152895Y0076796D01*
X0152883Y0076751D01*
X0152868Y0076707D01*
X0152849Y0076664D01*
X0152826Y0076623D01*
X0152801Y0076585D01*
X0152772Y0076548D01*
X0152740Y0076514D01*
X0152705Y0076483D01*
X0152668Y0076455D01*
X0152629Y0076430D01*
X0152587Y0076408D01*
X0152544Y0076390D01*
X0152500Y0076376D01*
X0152454Y0076365D01*
X0152408Y0076358D01*
X0152362Y0076355D01*
X0152315Y0076356D01*
X0152269Y0076361D01*
X0152223Y0076370D01*
X0152178Y0076382D01*
X0152134Y0076399D01*
X0152092Y0076418D01*
X0152052Y0076442D01*
X0152013Y0076468D01*
X0151977Y0076498D01*
X0151944Y0076531D01*
X0151913Y0076566D01*
X0151886Y0076604D01*
X0151862Y0076644D01*
X0151841Y0076685D01*
X0151824Y0076729D01*
X0151810Y0076773D01*
X0151801Y0076819D01*
X0151795Y0076865D01*
X0151793Y0076912D01*
D13*
X0117547Y0051408D02*
X0111169Y0051408D01*
X0111169Y0051038D01*
X0111169Y0047865D02*
X0111169Y0047495D01*
X0111169Y0044125D02*
X0111169Y0043755D01*
X0111169Y0040582D02*
X0111169Y0040212D01*
X0117547Y0040212D01*
X0117547Y0040582D01*
X0117547Y0043755D02*
X0117547Y0047865D01*
X0117547Y0051038D02*
X0117547Y0051408D01*
X0089004Y0067771D02*
X0089004Y0068141D01*
X0089004Y0067771D02*
X0082626Y0067771D01*
X0082626Y0068141D01*
X0082626Y0071314D02*
X0082626Y0071684D01*
X0082626Y0075054D02*
X0082626Y0075424D01*
X0082626Y0078597D02*
X0082626Y0078967D01*
X0089004Y0078967D01*
X0089004Y0078597D01*
X0089004Y0075424D02*
X0089004Y0071314D01*
X0042200Y0101676D02*
X0041830Y0101676D01*
X0042200Y0101676D02*
X0042200Y0108054D01*
X0041830Y0108054D01*
X0038657Y0108054D02*
X0038287Y0108054D01*
X0034917Y0108054D02*
X0034547Y0108054D01*
X0031374Y0108054D02*
X0031004Y0108054D01*
X0031004Y0101676D01*
X0031374Y0101676D01*
X0034547Y0101676D02*
X0038657Y0101676D01*
D14*
X0059768Y0070004D02*
X0059768Y0066735D01*
X0058134Y0068369D02*
X0061403Y0068369D01*
X0059768Y0047504D02*
X0059768Y0044235D01*
D15*
X0112783Y0066873D02*
X0112783Y0075928D01*
X0121838Y0075928D01*
X0121838Y0066873D01*
X0112783Y0066873D01*
X0113964Y0073172D02*
X0116720Y0073172D01*
X0116718Y0073245D01*
X0116712Y0073318D01*
X0116702Y0073391D01*
X0116689Y0073463D01*
X0116671Y0073535D01*
X0116650Y0073605D01*
X0116625Y0073674D01*
X0116597Y0073741D01*
X0116565Y0073807D01*
X0116529Y0073872D01*
X0116490Y0073934D01*
X0116448Y0073994D01*
X0116403Y0074052D01*
X0116355Y0074107D01*
X0116303Y0074159D01*
X0116249Y0074209D01*
X0116193Y0074256D01*
X0116134Y0074300D01*
X0116073Y0074340D01*
X0116010Y0074377D01*
X0115945Y0074411D01*
X0115878Y0074442D01*
X0115809Y0074468D01*
X0115740Y0074491D01*
X0115669Y0074511D01*
X0115597Y0074526D01*
X0115525Y0074538D01*
X0115452Y0074546D01*
X0115379Y0074550D01*
X0115305Y0074550D01*
X0115232Y0074546D01*
X0115159Y0074538D01*
X0115087Y0074526D01*
X0115015Y0074511D01*
X0114944Y0074491D01*
X0114875Y0074468D01*
X0114806Y0074442D01*
X0114739Y0074411D01*
X0114674Y0074377D01*
X0114611Y0074340D01*
X0114550Y0074300D01*
X0114491Y0074256D01*
X0114435Y0074209D01*
X0114381Y0074159D01*
X0114329Y0074107D01*
X0114281Y0074052D01*
X0114236Y0073994D01*
X0114194Y0073934D01*
X0114155Y0073872D01*
X0114119Y0073807D01*
X0114087Y0073741D01*
X0114059Y0073674D01*
X0114034Y0073605D01*
X0114013Y0073535D01*
X0113995Y0073463D01*
X0113982Y0073391D01*
X0113972Y0073318D01*
X0113966Y0073245D01*
X0113964Y0073172D01*
M02*
