G75*
%MOIN*%
%OFA0B0*%
%FSLAX25Y25*%
%IPPOS*%
%LPD*%
%AMOC8*
5,1,8,0,0,1.08239X$1,22.5*
%
%ADD10C,0.00100*%
%ADD11R,0.03937X0.05512*%
%ADD12R,0.03937X0.02756*%
%ADD13R,0.03937X0.04331*%
%ADD14R,0.04331X0.03937*%
%ADD15C,0.05150*%
%ADD16R,0.06299X0.07087*%
%ADD17R,0.07087X0.06299*%
%ADD18R,0.04724X0.02165*%
%ADD19R,0.05906X0.01772*%
%ADD20R,0.18110X0.03937*%
%ADD21R,0.13386X0.06299*%
%ADD22R,0.02165X0.04724*%
%ADD23R,0.09449X0.09449*%
%ADD24R,0.03543X0.03150*%
%ADD25R,0.05512X0.03937*%
%ADD26R,0.03937X0.05669*%
%ADD27R,0.04724X0.05669*%
%ADD28R,0.02500X0.05000*%
%ADD29R,0.03150X0.03543*%
%ADD30R,0.03150X0.01181*%
%ADD31C,0.04000*%
%ADD32C,0.01600*%
%ADD33C,0.02400*%
%ADD34C,0.00600*%
%ADD35C,0.02000*%
%ADD36C,0.02400*%
%ADD37C,0.00800*%
D10*
X0024791Y0037936D02*
X0221641Y0037936D01*
X0221641Y0116676D01*
X0024791Y0116676D01*
X0024791Y0037936D01*
D11*
X0095224Y0091519D03*
X0102704Y0091519D03*
X0108492Y0091519D03*
X0115972Y0091519D03*
X0112232Y0100180D03*
X0098964Y0100180D03*
X0180500Y0089511D03*
X0187980Y0089511D03*
X0184240Y0080849D03*
X0184240Y0073763D03*
X0187980Y0065101D03*
X0180500Y0065101D03*
D12*
X0155106Y0063723D03*
X0155106Y0067463D03*
X0155106Y0071204D03*
X0146445Y0071204D03*
X0146445Y0067463D03*
X0146445Y0063723D03*
X0146445Y0077503D03*
X0146445Y0081243D03*
X0146445Y0084983D03*
X0155106Y0084983D03*
X0155106Y0081243D03*
X0155106Y0077503D03*
D13*
X0161208Y0079275D03*
X0167901Y0079275D03*
X0167901Y0085180D03*
X0161208Y0085180D03*
X0163177Y0096991D03*
X0158059Y0096991D03*
X0151366Y0096991D03*
X0142311Y0096991D03*
X0135618Y0096991D03*
X0118689Y0081243D03*
X0111996Y0081243D03*
X0106878Y0081243D03*
X0100185Y0081243D03*
X0083256Y0087149D03*
X0076563Y0087149D03*
X0046445Y0088526D03*
X0046445Y0081834D03*
X0098216Y0067463D03*
X0104909Y0067463D03*
X0117862Y0055574D03*
X0124555Y0055574D03*
X0131681Y0057621D03*
X0138374Y0057621D03*
X0138374Y0063526D03*
X0131681Y0063526D03*
X0153334Y0057621D03*
X0160027Y0057621D03*
X0167114Y0057621D03*
X0173807Y0057621D03*
X0180893Y0057621D03*
X0187586Y0057621D03*
X0167901Y0065495D03*
X0161208Y0065495D03*
X0161208Y0071400D03*
X0167901Y0071400D03*
X0125185Y0049156D03*
X0125185Y0042463D03*
X0102547Y0042463D03*
X0102547Y0049156D03*
X0169870Y0096991D03*
X0180893Y0096991D03*
X0187586Y0096991D03*
D14*
X0174397Y0086558D03*
X0174397Y0079865D03*
X0174397Y0072778D03*
X0174397Y0066086D03*
X0124594Y0061558D03*
X0117901Y0061558D03*
X0051760Y0110771D03*
X0045067Y0110771D03*
D15*
X0069736Y0065125D02*
X0074886Y0065125D01*
X0074886Y0055125D02*
X0069736Y0055125D01*
X0069736Y0045125D02*
X0074886Y0045125D01*
D16*
X0082271Y0045810D03*
X0093295Y0045810D03*
D17*
X0135027Y0071794D03*
X0135027Y0082818D03*
X0032665Y0079668D03*
X0032665Y0090692D03*
D18*
X0080697Y0077109D03*
X0080697Y0073369D03*
X0080697Y0069629D03*
X0090933Y0069629D03*
X0090933Y0077109D03*
X0109240Y0049550D03*
X0109240Y0045810D03*
X0109240Y0042070D03*
X0119476Y0042070D03*
X0119476Y0049550D03*
D19*
X0109043Y0053782D03*
X0109043Y0056341D03*
X0109043Y0058900D03*
X0109043Y0061460D03*
X0086208Y0061460D03*
X0086208Y0058900D03*
X0086208Y0056341D03*
X0086208Y0053782D03*
D20*
X0053137Y0053448D03*
X0053137Y0061322D03*
D21*
X0032665Y0070771D03*
X0032665Y0043999D03*
D22*
X0032862Y0099747D03*
X0036602Y0099747D03*
X0040342Y0099747D03*
X0040342Y0109983D03*
X0036602Y0109983D03*
X0032862Y0109983D03*
D23*
X0048019Y0098960D03*
X0064555Y0098960D03*
D24*
X0040539Y0093251D03*
X0040539Y0084983D03*
D25*
X0065736Y0084983D03*
X0074397Y0081243D03*
X0065736Y0077503D03*
D26*
X0081681Y0102503D03*
X0081681Y0111164D03*
X0074200Y0111164D03*
D27*
X0074988Y0102503D03*
D28*
X0088531Y0112739D03*
X0093531Y0112739D03*
X0098531Y0112739D03*
X0103531Y0112739D03*
X0108531Y0112739D03*
X0113531Y0112739D03*
X0118531Y0112739D03*
D29*
X0068295Y0110771D03*
X0060027Y0110771D03*
D30*
X0111208Y0074353D03*
X0111208Y0072385D03*
X0111208Y0070416D03*
X0111208Y0068448D03*
X0123413Y0068448D03*
X0123413Y0070416D03*
X0123413Y0072385D03*
X0123413Y0074353D03*
D31*
X0064555Y0097385D02*
X0064555Y0098960D01*
X0064555Y0097385D02*
X0056287Y0089117D01*
X0047035Y0089117D01*
X0046445Y0088526D01*
X0040539Y0084983D02*
X0040539Y0079668D01*
X0032665Y0079668D01*
X0040539Y0079668D02*
X0044279Y0079668D01*
X0046445Y0081834D01*
D32*
X0060224Y0078290D02*
X0060224Y0072385D01*
X0067484Y0065125D01*
X0072311Y0065125D01*
X0080697Y0069629D02*
X0080697Y0053782D01*
X0080697Y0045810D01*
X0082271Y0045810D01*
X0080697Y0053782D02*
X0086208Y0053782D01*
X0086208Y0056341D02*
X0096937Y0056341D01*
X0103067Y0050212D01*
X0103728Y0049550D01*
X0109240Y0049550D01*
X0116720Y0049747D02*
X0125591Y0049747D01*
X0128137Y0049747D01*
X0119476Y0049550D02*
X0116720Y0049747D01*
X0091720Y0058900D02*
X0091720Y0069629D01*
X0090933Y0069629D01*
X0091917Y0069629D01*
X0095657Y0073369D01*
X0095657Y0081243D01*
X0089752Y0087149D01*
X0089752Y0091086D01*
X0085815Y0095023D01*
X0068492Y0095023D01*
X0064555Y0098960D01*
X0060224Y0106834D02*
X0060224Y0110574D01*
X0060027Y0110771D01*
X0108531Y0110692D02*
X0112389Y0106834D01*
X0114358Y0104865D01*
X0117114Y0104865D01*
X0125185Y0096794D01*
X0125185Y0089117D01*
X0131484Y0082818D01*
X0135027Y0082818D01*
X0136602Y0082818D01*
X0141917Y0088133D01*
X0142901Y0085180D02*
X0146445Y0085180D01*
X0146445Y0084983D01*
X0146445Y0089511D01*
X0143886Y0092070D01*
X0132075Y0092070D01*
X0131090Y0093054D01*
X0131090Y0100180D01*
X0118531Y0112739D01*
X0113531Y0112739D02*
X0113531Y0110613D01*
X0116326Y0107818D01*
X0118689Y0107818D01*
X0128137Y0098369D01*
X0128137Y0091086D01*
X0130106Y0089117D01*
X0137980Y0089117D01*
X0142901Y0085180D02*
X0142901Y0077503D01*
X0146445Y0077503D01*
X0150185Y0075136D02*
X0150185Y0074353D01*
X0150185Y0068841D01*
X0148807Y0067463D01*
X0146445Y0067463D01*
X0151760Y0066479D02*
X0152744Y0067463D01*
X0155106Y0067463D01*
X0146445Y0063723D02*
X0142901Y0063723D01*
X0142901Y0071400D01*
X0146445Y0071400D01*
X0146445Y0071204D01*
X0150185Y0074353D02*
X0141917Y0074353D01*
X0139358Y0071794D01*
X0135027Y0071794D01*
X0146445Y0081243D02*
X0149200Y0081243D01*
X0150185Y0080259D01*
X0150185Y0075136D01*
X0153138Y0081243D02*
X0155106Y0081243D01*
X0153138Y0081243D02*
X0151169Y0083212D01*
X0108531Y0110692D02*
X0108531Y0112739D01*
X0091720Y0058900D02*
X0086208Y0058900D01*
D33*
X0072311Y0055125D02*
X0070634Y0053448D01*
X0053137Y0053448D01*
X0046208Y0061322D02*
X0040539Y0055652D01*
X0040539Y0050731D01*
X0043492Y0047778D01*
X0069657Y0047778D01*
X0072311Y0045125D01*
X0081586Y0045125D01*
X0082271Y0045810D01*
X0053137Y0061322D02*
X0046208Y0061322D01*
X0032665Y0090692D02*
X0036602Y0094629D01*
X0036602Y0099747D01*
X0036602Y0104865D01*
X0040539Y0104865D01*
X0040539Y0096991D02*
X0046051Y0096991D01*
X0064161Y0110771D02*
X0068295Y0110771D01*
X0073807Y0110771D01*
X0074200Y0111164D01*
X0081681Y0111164D02*
X0086956Y0111164D01*
X0088531Y0112739D01*
X0093531Y0112739D02*
X0093531Y0106676D01*
X0089358Y0102503D01*
X0081681Y0102503D01*
D34*
X0080591Y0096736D02*
X0075191Y0102136D01*
X0074988Y0102503D01*
X0080591Y0096736D02*
X0096191Y0096736D01*
X0100991Y0091936D01*
X0102191Y0091936D01*
X0102704Y0091519D01*
X0102791Y0091336D01*
X0105191Y0088936D01*
X0105191Y0088336D01*
X0105791Y0087736D01*
X0103991Y0085936D01*
X0103991Y0085336D01*
X0103991Y0075136D01*
X0098591Y0069736D01*
X0098591Y0067936D01*
X0098216Y0067463D01*
X0098591Y0067336D01*
X0104591Y0061336D01*
X0104591Y0060736D01*
X0106391Y0058936D01*
X0108791Y0058936D01*
X0109043Y0058900D01*
X0109391Y0058936D01*
X0117791Y0058936D01*
X0117791Y0055936D01*
X0117862Y0055574D01*
X0117791Y0055336D01*
X0114791Y0052336D01*
X0114791Y0048736D01*
X0115991Y0047536D01*
X0115991Y0043936D01*
X0111791Y0039736D01*
X0106391Y0039736D01*
X0104591Y0041536D01*
X0104591Y0042736D01*
X0107591Y0045736D01*
X0108791Y0045736D01*
X0109240Y0045810D01*
X0111191Y0048136D02*
X0111791Y0048136D01*
X0112991Y0046936D01*
X0112991Y0044536D01*
X0110591Y0042136D01*
X0109391Y0042136D01*
X0109240Y0042070D01*
X0104591Y0042736D02*
X0102791Y0042736D01*
X0102547Y0042463D01*
X0102191Y0042736D01*
X0099191Y0045736D01*
X0093791Y0045736D01*
X0093295Y0045810D01*
X0102547Y0049156D02*
X0102791Y0049336D01*
X0102791Y0049936D01*
X0103067Y0050212D01*
X0109240Y0049550D02*
X0109991Y0049336D01*
X0111191Y0048136D01*
X0115991Y0047536D02*
X0120960Y0045567D01*
X0124991Y0042736D02*
X0125185Y0042463D01*
X0125591Y0042736D01*
X0157991Y0042736D01*
X0170591Y0055336D01*
X0170591Y0060736D01*
X0166991Y0064336D01*
X0167901Y0065495D01*
X0167591Y0064936D01*
X0166991Y0064336D01*
X0164591Y0061936D01*
X0157991Y0061936D01*
X0153791Y0057736D01*
X0153334Y0057621D01*
X0150191Y0060136D02*
X0150191Y0053536D01*
X0143886Y0053684D02*
X0146838Y0060180D01*
X0150191Y0060136D02*
X0153191Y0063136D01*
X0154991Y0063136D01*
X0155106Y0063723D01*
X0155591Y0063736D01*
X0159791Y0063736D01*
X0160991Y0064936D01*
X0161208Y0065495D01*
X0156791Y0067936D02*
X0155591Y0067936D01*
X0155106Y0067463D01*
X0156791Y0067936D02*
X0159791Y0070936D01*
X0160991Y0070936D01*
X0161208Y0071400D01*
X0158591Y0074536D02*
X0164591Y0074536D01*
X0167591Y0071536D01*
X0167901Y0071400D01*
X0168191Y0071536D01*
X0169391Y0072736D01*
X0174191Y0072736D01*
X0174397Y0072778D01*
X0174791Y0066136D02*
X0181991Y0073336D01*
X0183791Y0073336D01*
X0184240Y0073763D01*
X0183191Y0079936D02*
X0174791Y0079936D01*
X0174397Y0079865D01*
X0172391Y0083536D02*
X0177191Y0083536D01*
X0180191Y0086536D01*
X0181391Y0085336D01*
X0186191Y0085336D01*
X0187391Y0084136D01*
X0187391Y0065536D01*
X0187980Y0065101D01*
X0187991Y0064936D01*
X0187991Y0057736D01*
X0187586Y0057621D01*
X0180893Y0057621D02*
X0180791Y0057136D01*
X0165791Y0042136D01*
X0160991Y0042136D01*
X0160991Y0051136D02*
X0138191Y0051136D01*
X0134591Y0054736D01*
X0129791Y0049936D01*
X0128591Y0049936D01*
X0128137Y0049747D01*
X0125591Y0049747D02*
X0125591Y0049336D01*
X0125185Y0049156D01*
X0125760Y0043720D02*
X0124991Y0042736D01*
X0124555Y0055574D02*
X0124391Y0055936D01*
X0124391Y0061336D01*
X0124594Y0061558D01*
X0124991Y0061336D01*
X0131591Y0061336D01*
X0131591Y0057736D01*
X0131681Y0057621D01*
X0134591Y0054736D02*
X0134591Y0066136D01*
X0133991Y0066736D01*
X0131591Y0066736D01*
X0130391Y0067936D01*
X0130391Y0069136D01*
X0125591Y0073936D01*
X0123791Y0073936D01*
X0123413Y0074353D01*
X0123191Y0072736D02*
X0120191Y0072736D01*
X0119591Y0073336D01*
X0123191Y0072736D02*
X0123413Y0072385D01*
X0123413Y0070416D02*
X0123191Y0070336D01*
X0119591Y0070336D01*
X0115991Y0070336D02*
X0124391Y0061936D01*
X0124594Y0061558D01*
X0117901Y0061558D02*
X0117791Y0061336D01*
X0117791Y0058936D01*
X0117901Y0061558D02*
X0117791Y0061936D01*
X0111791Y0067936D01*
X0111208Y0068448D01*
X0111208Y0070416D02*
X0111791Y0070336D01*
X0115991Y0070336D01*
X0111208Y0072385D02*
X0111191Y0072736D01*
X0105191Y0072736D01*
X0111208Y0074353D02*
X0111791Y0074536D01*
X0111791Y0081136D01*
X0111996Y0081243D01*
X0111791Y0081136D02*
X0106991Y0081136D01*
X0106878Y0081243D01*
X0100185Y0081243D02*
X0099791Y0081136D01*
X0099791Y0073936D01*
X0090933Y0077109D02*
X0090791Y0077536D01*
X0083591Y0084736D01*
X0083591Y0087136D01*
X0083256Y0087149D01*
X0076563Y0087149D02*
X0076391Y0087136D01*
X0076391Y0083536D01*
X0074591Y0081736D01*
X0074397Y0081243D01*
X0075791Y0076936D02*
X0078791Y0073936D01*
X0080697Y0073369D01*
X0080591Y0073936D01*
X0078791Y0073936D01*
X0078791Y0072736D01*
X0076991Y0070936D01*
X0076991Y0067936D01*
X0078791Y0066136D01*
X0078791Y0061936D01*
X0072791Y0055936D01*
X0072311Y0055125D01*
X0086208Y0061460D02*
X0085991Y0061936D01*
X0085991Y0069136D01*
X0082991Y0072136D01*
X0082391Y0072136D01*
X0081191Y0073336D01*
X0080697Y0073369D01*
X0075791Y0076936D02*
X0066191Y0076936D01*
X0065736Y0077503D01*
X0065591Y0077536D01*
X0061991Y0081136D01*
X0048191Y0081136D01*
X0046445Y0081834D01*
X0032665Y0079668D02*
X0031391Y0081136D01*
X0027791Y0084736D01*
X0027791Y0099736D01*
X0036191Y0108136D01*
X0036191Y0109936D01*
X0036602Y0109983D01*
X0033191Y0110536D02*
X0033191Y0111736D01*
X0035591Y0114136D01*
X0054191Y0114136D01*
X0057191Y0111136D01*
X0057191Y0106336D01*
X0063191Y0100336D01*
X0064555Y0098960D01*
X0051191Y0102736D02*
X0048191Y0099736D01*
X0048019Y0098960D01*
X0051191Y0102736D02*
X0051191Y0110536D01*
X0051760Y0110771D01*
X0045067Y0110771D02*
X0044591Y0110536D01*
X0040391Y0110536D01*
X0040342Y0109983D01*
X0033191Y0110536D02*
X0032862Y0109983D01*
X0065736Y0084983D02*
X0066191Y0085336D01*
X0072791Y0085336D01*
X0087191Y0073336D02*
X0090791Y0076936D01*
X0090933Y0077109D01*
X0087191Y0073336D02*
X0087191Y0068536D01*
X0088991Y0066736D01*
X0088991Y0064936D01*
X0104909Y0067463D02*
X0105191Y0067336D01*
X0105191Y0065536D01*
X0108791Y0061936D01*
X0109043Y0061460D01*
X0109043Y0056341D02*
X0108791Y0055936D01*
X0103991Y0055936D01*
X0123413Y0068448D02*
X0123791Y0068536D01*
X0125591Y0068536D01*
X0126791Y0069736D01*
X0134591Y0072136D02*
X0135027Y0071794D01*
X0134591Y0072136D02*
X0125591Y0081136D01*
X0118991Y0081136D01*
X0118689Y0081243D01*
X0118391Y0081736D01*
X0118391Y0088936D01*
X0115991Y0091336D01*
X0115972Y0091519D01*
X0115391Y0091336D01*
X0111791Y0087736D01*
X0105791Y0087736D01*
X0108492Y0091519D02*
X0108791Y0091936D01*
X0108791Y0096136D01*
X0111791Y0100336D02*
X0112232Y0100180D01*
X0111791Y0100336D02*
X0103991Y0108136D01*
X0103991Y0112336D01*
X0103531Y0112739D01*
X0098591Y0112336D02*
X0098531Y0112739D01*
X0098591Y0112336D02*
X0098591Y0100336D01*
X0098964Y0100180D01*
X0095224Y0091519D02*
X0095591Y0091336D01*
X0099191Y0087736D01*
X0135618Y0096991D02*
X0135791Y0097336D01*
X0136991Y0097336D01*
X0142991Y0103336D01*
X0174791Y0103336D01*
X0180791Y0097336D01*
X0180893Y0096991D01*
X0180791Y0096736D01*
X0180791Y0089536D01*
X0180500Y0089511D01*
X0180191Y0088936D01*
X0180191Y0086536D01*
X0174397Y0086558D02*
X0174191Y0086536D01*
X0167591Y0086536D01*
X0167901Y0085180D01*
X0167591Y0085336D01*
X0167591Y0086536D01*
X0167591Y0089536D01*
X0165791Y0091336D01*
X0161591Y0091336D01*
X0155591Y0085336D01*
X0155106Y0084983D01*
X0156791Y0081736D02*
X0159791Y0084736D01*
X0160991Y0084736D01*
X0161208Y0085180D01*
X0156791Y0081736D02*
X0155591Y0081736D01*
X0155106Y0081243D01*
X0155591Y0077536D02*
X0155106Y0077503D01*
X0155591Y0077536D02*
X0159791Y0077536D01*
X0160991Y0078736D01*
X0161208Y0079275D01*
X0157991Y0075736D02*
X0164591Y0075736D01*
X0167591Y0078736D01*
X0167901Y0079275D01*
X0168191Y0079336D01*
X0172391Y0083536D01*
X0183191Y0079936D02*
X0183791Y0080536D01*
X0184240Y0080849D01*
X0187980Y0089511D02*
X0187991Y0089536D01*
X0187991Y0096736D01*
X0187586Y0096991D01*
X0187391Y0097336D01*
X0184391Y0100336D01*
X0184391Y0100936D01*
X0169870Y0096991D02*
X0169391Y0096736D01*
X0165191Y0092536D01*
X0157391Y0092536D01*
X0154391Y0093136D02*
X0157991Y0096736D01*
X0158059Y0096991D01*
X0158591Y0097336D01*
X0162791Y0097336D01*
X0163177Y0096991D01*
X0151366Y0096991D02*
X0150791Y0097336D01*
X0147191Y0097336D01*
X0145991Y0100936D02*
X0142391Y0097336D01*
X0142311Y0096991D01*
X0129191Y0108736D02*
X0170591Y0108736D01*
X0174191Y0112336D01*
X0157991Y0075736D02*
X0157391Y0075136D01*
X0150185Y0075136D01*
X0155106Y0071204D02*
X0155591Y0071536D01*
X0158591Y0074536D01*
X0174397Y0066086D02*
X0174791Y0066136D01*
X0173807Y0057621D02*
X0173591Y0057136D01*
X0173591Y0053536D01*
X0166991Y0057136D02*
X0167114Y0057621D01*
X0166991Y0057136D02*
X0160991Y0051136D01*
X0160391Y0053536D02*
X0160391Y0057136D01*
X0160027Y0057621D01*
X0142901Y0063723D02*
X0142391Y0063136D01*
X0142391Y0061336D01*
X0138791Y0057736D01*
X0138374Y0057621D01*
X0131591Y0061336D02*
X0131591Y0063136D01*
X0131681Y0063526D01*
D35*
X0125760Y0043720D02*
X0120960Y0045567D01*
X0040539Y0093054D02*
X0040539Y0096991D01*
X0041130Y0098960D02*
X0048019Y0098960D01*
X0046051Y0096991D01*
X0041130Y0098960D02*
X0040342Y0099747D01*
X0040342Y0093448D01*
X0040539Y0093251D01*
D36*
X0055763Y0096163D03*
X0055763Y0099115D03*
X0055763Y0102068D03*
X0060224Y0106834D03*
X0064161Y0110771D03*
X0040539Y0104865D03*
X0072791Y0085336D03*
X0079385Y0081399D03*
X0082338Y0081399D03*
X0099191Y0087736D03*
X0103991Y0085336D03*
X0104975Y0076478D03*
X0107928Y0076478D03*
X0114818Y0076478D03*
X0119591Y0073336D03*
X0119591Y0070336D03*
X0126791Y0069736D03*
X0130566Y0077462D03*
X0133519Y0077462D03*
X0136471Y0077462D03*
X0139949Y0077306D03*
X0142901Y0071400D03*
X0139949Y0066479D03*
X0146838Y0060180D03*
X0143755Y0059352D03*
X0143886Y0053684D03*
X0140408Y0053446D03*
X0150191Y0053536D03*
X0160391Y0053536D03*
X0168952Y0052856D03*
X0173591Y0053536D03*
X0184700Y0052856D03*
X0192574Y0053446D03*
X0175841Y0061911D03*
X0172692Y0061911D03*
X0190605Y0072147D03*
X0190605Y0075100D03*
X0190605Y0078052D03*
X0190605Y0081005D03*
X0190605Y0083958D03*
X0178794Y0083171D03*
X0178794Y0076084D03*
X0164555Y0089117D03*
X0157391Y0092536D03*
X0154391Y0093136D03*
X0151235Y0089273D03*
X0148282Y0092226D03*
X0141917Y0088133D03*
X0137980Y0089117D03*
X0124660Y0084942D03*
X0121708Y0085926D03*
X0121708Y0088879D03*
X0121708Y0091832D03*
X0121708Y0094785D03*
X0108791Y0096136D03*
X0105960Y0099115D03*
X0103007Y0099115D03*
X0103007Y0102068D03*
X0105960Y0102068D03*
X0112389Y0106834D03*
X0129191Y0108736D03*
X0145330Y0111911D03*
X0153204Y0111911D03*
X0145991Y0100936D03*
X0147191Y0097336D03*
X0151169Y0083212D03*
X0171904Y0092029D03*
X0174857Y0092029D03*
X0174857Y0094982D03*
X0174857Y0097934D03*
X0184391Y0100936D03*
X0174191Y0112336D03*
X0124660Y0081989D03*
X0124660Y0079037D03*
X0105191Y0072736D03*
X0099791Y0073936D03*
X0108912Y0065651D03*
X0111865Y0065651D03*
X0103991Y0061714D03*
X0101038Y0061714D03*
X0098086Y0061714D03*
X0095133Y0061714D03*
X0088991Y0064936D03*
X0103991Y0055936D03*
X0097101Y0051871D03*
X0094149Y0051871D03*
X0091196Y0051871D03*
X0088243Y0041045D03*
X0115802Y0045966D03*
X0118755Y0045966D03*
X0128137Y0049747D03*
X0137456Y0042029D03*
X0145330Y0042029D03*
X0153204Y0042029D03*
X0160991Y0042136D03*
X0168952Y0042029D03*
X0176826Y0042029D03*
X0184700Y0042029D03*
X0151760Y0066479D03*
X0095133Y0099115D03*
X0092180Y0099115D03*
X0089227Y0099115D03*
X0086275Y0099115D03*
X0054778Y0084352D03*
X0051826Y0084352D03*
X0051826Y0081399D03*
X0054778Y0081399D03*
X0060224Y0078290D03*
X0042967Y0077462D03*
X0040015Y0077462D03*
X0040015Y0080415D03*
X0042967Y0080415D03*
X0045920Y0066635D03*
X0048873Y0066635D03*
X0051826Y0066635D03*
X0054778Y0066635D03*
X0057731Y0066635D03*
X0057731Y0043013D03*
X0054778Y0043013D03*
X0051826Y0043013D03*
X0048873Y0043013D03*
X0045920Y0043013D03*
D37*
X0042581Y0045578D02*
X0066161Y0045578D01*
X0066161Y0044414D01*
X0066705Y0043100D01*
X0067711Y0042094D01*
X0069025Y0041550D01*
X0075597Y0041550D01*
X0076910Y0042094D01*
X0077741Y0042925D01*
X0078122Y0042925D01*
X0078122Y0041852D01*
X0078708Y0041267D01*
X0085835Y0041267D01*
X0086421Y0041852D01*
X0086421Y0049767D01*
X0085835Y0050353D01*
X0082497Y0050353D01*
X0082497Y0051982D01*
X0082756Y0051982D01*
X0082841Y0051897D01*
X0089575Y0051897D01*
X0090161Y0052482D01*
X0090161Y0054541D01*
X0096191Y0054541D01*
X0099578Y0051154D01*
X0099578Y0046577D01*
X0100164Y0045991D01*
X0100253Y0045991D01*
X0100038Y0045933D01*
X0099719Y0045749D01*
X0099458Y0045488D01*
X0099274Y0045169D01*
X0099178Y0044813D01*
X0099178Y0042863D01*
X0102147Y0042863D01*
X0102147Y0042063D01*
X0099178Y0042063D01*
X0099178Y0040114D01*
X0099274Y0039758D01*
X0099458Y0039439D01*
X0099511Y0039386D01*
X0026241Y0039386D01*
X0026241Y0039849D01*
X0039772Y0039849D01*
X0040358Y0040435D01*
X0040358Y0047563D01*
X0039772Y0048149D01*
X0026241Y0048149D01*
X0026241Y0066621D01*
X0039772Y0066621D01*
X0040358Y0067207D01*
X0040358Y0074334D01*
X0039772Y0074920D01*
X0026241Y0074920D01*
X0026241Y0115226D01*
X0034843Y0115226D01*
X0034291Y0114674D01*
X0032962Y0113345D01*
X0031365Y0113345D01*
X0030779Y0112760D01*
X0030779Y0107207D01*
X0031365Y0106621D01*
X0034359Y0106621D01*
X0034449Y0106711D01*
X0034660Y0106501D01*
X0034956Y0106330D01*
X0034402Y0105776D01*
X0034402Y0103066D01*
X0034359Y0103109D01*
X0031365Y0103109D01*
X0030779Y0102523D01*
X0030779Y0096971D01*
X0031365Y0096385D01*
X0034359Y0096385D01*
X0034402Y0096428D01*
X0034402Y0095540D01*
X0033703Y0094841D01*
X0028708Y0094841D01*
X0028122Y0094256D01*
X0028122Y0087128D01*
X0028708Y0086542D01*
X0036623Y0086542D01*
X0037208Y0087128D01*
X0037208Y0092124D01*
X0037767Y0092683D01*
X0037767Y0091262D01*
X0038353Y0090676D01*
X0042725Y0090676D01*
X0043311Y0091262D01*
X0043311Y0093235D01*
X0053158Y0093235D01*
X0053744Y0093821D01*
X0053744Y0104098D01*
X0053158Y0104684D01*
X0052491Y0104684D01*
X0052491Y0107802D01*
X0054339Y0107802D01*
X0054925Y0108388D01*
X0054925Y0111564D01*
X0055891Y0110597D01*
X0055891Y0105797D01*
X0058830Y0102858D01*
X0058830Y0095903D01*
X0055044Y0092117D01*
X0046438Y0092117D01*
X0045412Y0091692D01*
X0044062Y0091692D01*
X0043476Y0091106D01*
X0043476Y0089199D01*
X0043445Y0089123D01*
X0043445Y0087930D01*
X0043476Y0087854D01*
X0043476Y0087339D01*
X0043431Y0087418D01*
X0043170Y0087678D01*
X0042851Y0087863D01*
X0042495Y0087958D01*
X0040926Y0087958D01*
X0040926Y0085371D01*
X0040152Y0085371D01*
X0040152Y0087958D01*
X0038583Y0087958D01*
X0038227Y0087863D01*
X0037908Y0087678D01*
X0037647Y0087418D01*
X0037463Y0087098D01*
X0037367Y0086742D01*
X0037367Y0085371D01*
X0040152Y0085371D01*
X0040152Y0084596D01*
X0040926Y0084596D01*
X0040926Y0082008D01*
X0042495Y0082008D01*
X0042851Y0082104D01*
X0043076Y0082234D01*
X0043076Y0082234D01*
X0046045Y0082234D01*
X0046045Y0081434D01*
X0046845Y0081434D01*
X0046845Y0082234D01*
X0049813Y0082234D01*
X0049813Y0084183D01*
X0049718Y0084539D01*
X0049533Y0084859D01*
X0049273Y0085119D01*
X0048953Y0085303D01*
X0048738Y0085361D01*
X0048827Y0085361D01*
X0049413Y0085947D01*
X0049413Y0086117D01*
X0056884Y0086117D01*
X0057986Y0086574D01*
X0064648Y0093235D01*
X0067734Y0093235D01*
X0067746Y0093223D01*
X0085069Y0093223D01*
X0087952Y0090340D01*
X0087952Y0086403D01*
X0089006Y0085349D01*
X0093857Y0080497D01*
X0093857Y0079044D01*
X0093709Y0079192D01*
X0090974Y0079192D01*
X0085910Y0084255D01*
X0086224Y0084569D01*
X0086224Y0089728D01*
X0085638Y0090314D01*
X0080873Y0090314D01*
X0080287Y0089728D01*
X0080287Y0084569D01*
X0080873Y0083983D01*
X0082505Y0083983D01*
X0087727Y0078762D01*
X0087571Y0078606D01*
X0087571Y0075612D01*
X0087600Y0075583D01*
X0085891Y0073874D01*
X0085891Y0067997D01*
X0086653Y0067236D01*
X0087416Y0066472D01*
X0086791Y0065847D01*
X0086791Y0064025D01*
X0087070Y0063745D01*
X0086251Y0063745D01*
X0086251Y0061503D01*
X0086165Y0061503D01*
X0086165Y0063745D01*
X0083071Y0063745D01*
X0082715Y0063650D01*
X0082497Y0063524D01*
X0082497Y0067546D01*
X0083473Y0067546D01*
X0084059Y0068132D01*
X0084059Y0071126D01*
X0083968Y0071216D01*
X0084179Y0071427D01*
X0084363Y0071746D01*
X0084459Y0072102D01*
X0084459Y0073228D01*
X0080838Y0073228D01*
X0080838Y0073510D01*
X0084459Y0073510D01*
X0084459Y0074636D01*
X0084363Y0074992D01*
X0084179Y0075311D01*
X0083968Y0075522D01*
X0084059Y0075612D01*
X0084059Y0078606D01*
X0083473Y0079192D01*
X0078153Y0079192D01*
X0078153Y0083626D01*
X0077796Y0083983D01*
X0078945Y0083983D01*
X0079531Y0084569D01*
X0079531Y0089728D01*
X0078945Y0090314D01*
X0074180Y0090314D01*
X0073594Y0089728D01*
X0073594Y0087536D01*
X0071880Y0087536D01*
X0070980Y0086636D01*
X0069492Y0086636D01*
X0069492Y0087366D01*
X0068906Y0087952D01*
X0062566Y0087952D01*
X0061980Y0087366D01*
X0061980Y0082600D01*
X0062566Y0082015D01*
X0068906Y0082015D01*
X0069492Y0082600D01*
X0069492Y0084036D01*
X0070980Y0084036D01*
X0071016Y0084000D01*
X0070641Y0083626D01*
X0070641Y0078860D01*
X0071227Y0078275D01*
X0077334Y0078275D01*
X0077334Y0075612D01*
X0077425Y0075522D01*
X0077214Y0075311D01*
X0077030Y0074992D01*
X0076934Y0074636D01*
X0076934Y0073510D01*
X0080555Y0073510D01*
X0080555Y0073228D01*
X0076934Y0073228D01*
X0076934Y0072102D01*
X0077030Y0071746D01*
X0077214Y0071427D01*
X0077425Y0071216D01*
X0077334Y0071126D01*
X0077334Y0068132D01*
X0077920Y0067546D01*
X0078897Y0067546D01*
X0078897Y0050353D01*
X0078708Y0050353D01*
X0078122Y0049767D01*
X0078122Y0047325D01*
X0077741Y0047325D01*
X0076910Y0048155D01*
X0075597Y0048700D01*
X0071847Y0048700D01*
X0070568Y0049978D01*
X0044403Y0049978D01*
X0044302Y0050079D01*
X0052738Y0050079D01*
X0052738Y0053048D01*
X0053537Y0053048D01*
X0053537Y0050079D01*
X0062377Y0050079D01*
X0062733Y0050175D01*
X0063052Y0050359D01*
X0063313Y0050620D01*
X0063497Y0050939D01*
X0063593Y0051295D01*
X0063593Y0053048D01*
X0053538Y0053048D01*
X0053538Y0053848D01*
X0063593Y0053848D01*
X0063593Y0055601D01*
X0063497Y0055957D01*
X0063313Y0056276D01*
X0063052Y0056537D01*
X0062733Y0056721D01*
X0062377Y0056816D01*
X0053537Y0056816D01*
X0053537Y0053848D01*
X0052738Y0053848D01*
X0052738Y0056816D01*
X0044814Y0056816D01*
X0046351Y0058353D01*
X0062607Y0058353D01*
X0063193Y0058939D01*
X0063193Y0063704D01*
X0062607Y0064290D01*
X0043668Y0064290D01*
X0043082Y0063704D01*
X0043082Y0061307D01*
X0038339Y0056564D01*
X0038339Y0049820D01*
X0039628Y0048531D01*
X0042581Y0045578D01*
X0042238Y0045921D02*
X0040358Y0045921D01*
X0040358Y0045123D02*
X0066161Y0045123D01*
X0066198Y0044324D02*
X0040358Y0044324D01*
X0040358Y0043526D02*
X0066529Y0043526D01*
X0067078Y0042727D02*
X0040358Y0042727D01*
X0040358Y0041928D02*
X0068111Y0041928D01*
X0076510Y0041928D02*
X0078122Y0041928D01*
X0078122Y0042727D02*
X0077543Y0042727D01*
X0077548Y0047518D02*
X0078122Y0047518D01*
X0078122Y0048317D02*
X0076522Y0048317D01*
X0078122Y0049115D02*
X0071432Y0049115D01*
X0070633Y0049914D02*
X0078268Y0049914D01*
X0078897Y0050712D02*
X0063366Y0050712D01*
X0063593Y0051511D02*
X0068075Y0051511D01*
X0067853Y0051602D02*
X0068577Y0051303D01*
X0069344Y0051150D01*
X0071923Y0051150D01*
X0071923Y0054737D01*
X0072698Y0054737D01*
X0072698Y0051150D01*
X0075277Y0051150D01*
X0076045Y0051303D01*
X0076768Y0051602D01*
X0077419Y0052037D01*
X0077973Y0052591D01*
X0078408Y0053242D01*
X0078708Y0053965D01*
X0078860Y0054733D01*
X0078860Y0054737D01*
X0072698Y0054737D01*
X0072698Y0055512D01*
X0078860Y0055512D01*
X0078860Y0055516D01*
X0078708Y0056284D01*
X0078408Y0057008D01*
X0077973Y0057659D01*
X0077419Y0058212D01*
X0076768Y0058647D01*
X0076045Y0058947D01*
X0075277Y0059100D01*
X0072698Y0059100D01*
X0072698Y0055512D01*
X0071923Y0055512D01*
X0071923Y0054737D01*
X0065761Y0054737D01*
X0065761Y0054733D01*
X0065914Y0053965D01*
X0066213Y0053242D01*
X0066648Y0052591D01*
X0067202Y0052037D01*
X0067853Y0051602D01*
X0066930Y0052309D02*
X0063593Y0052309D01*
X0063593Y0053906D02*
X0065938Y0053906D01*
X0065767Y0054705D02*
X0063593Y0054705D01*
X0063593Y0055503D02*
X0071923Y0055503D01*
X0071923Y0055512D02*
X0065761Y0055512D01*
X0065761Y0055516D01*
X0065914Y0056284D01*
X0066213Y0057008D01*
X0066648Y0057659D01*
X0067202Y0058212D01*
X0067853Y0058647D01*
X0068577Y0058947D01*
X0069344Y0059100D01*
X0071923Y0059100D01*
X0071923Y0055512D01*
X0072698Y0055503D02*
X0078897Y0055503D01*
X0078897Y0054705D02*
X0078855Y0054705D01*
X0078897Y0053906D02*
X0078683Y0053906D01*
X0078897Y0053108D02*
X0078318Y0053108D01*
X0078897Y0052309D02*
X0077691Y0052309D01*
X0076547Y0051511D02*
X0078897Y0051511D01*
X0082497Y0051511D02*
X0099222Y0051511D01*
X0099578Y0050712D02*
X0096782Y0050712D01*
X0096629Y0050753D02*
X0093695Y0050753D01*
X0093695Y0046210D01*
X0092895Y0046210D01*
X0092895Y0050753D01*
X0089961Y0050753D01*
X0089605Y0050658D01*
X0089286Y0050474D01*
X0089025Y0050213D01*
X0088841Y0049894D01*
X0088745Y0049538D01*
X0088745Y0046210D01*
X0092895Y0046210D01*
X0092895Y0045410D01*
X0088745Y0045410D01*
X0088745Y0042082D01*
X0088841Y0041726D01*
X0089025Y0041407D01*
X0089286Y0041146D01*
X0089605Y0040962D01*
X0089961Y0040867D01*
X0092895Y0040867D01*
X0092895Y0045410D01*
X0093695Y0045410D01*
X0093695Y0046210D01*
X0097845Y0046210D01*
X0097845Y0049538D01*
X0097749Y0049894D01*
X0097565Y0050213D01*
X0097304Y0050474D01*
X0096985Y0050658D01*
X0096629Y0050753D01*
X0097738Y0049914D02*
X0099578Y0049914D01*
X0099578Y0049115D02*
X0097845Y0049115D01*
X0097845Y0048317D02*
X0099578Y0048317D01*
X0099578Y0047518D02*
X0097845Y0047518D01*
X0097845Y0046720D02*
X0099578Y0046720D01*
X0100017Y0045921D02*
X0093695Y0045921D01*
X0093695Y0045410D02*
X0097845Y0045410D01*
X0097845Y0042082D01*
X0097749Y0041726D01*
X0097565Y0041407D01*
X0097304Y0041146D01*
X0096985Y0040962D01*
X0096629Y0040867D01*
X0093695Y0040867D01*
X0093695Y0045410D01*
X0093695Y0045123D02*
X0092895Y0045123D01*
X0092895Y0045921D02*
X0086421Y0045921D01*
X0086421Y0045123D02*
X0088745Y0045123D01*
X0088745Y0044324D02*
X0086421Y0044324D01*
X0086421Y0043526D02*
X0088745Y0043526D01*
X0088745Y0042727D02*
X0086421Y0042727D01*
X0086421Y0041928D02*
X0088787Y0041928D01*
X0089314Y0041130D02*
X0040358Y0041130D01*
X0040254Y0040331D02*
X0099178Y0040331D01*
X0099178Y0041130D02*
X0097276Y0041130D01*
X0097803Y0041928D02*
X0099178Y0041928D01*
X0097845Y0042727D02*
X0102147Y0042727D01*
X0102947Y0042727D02*
X0105878Y0042727D01*
X0105878Y0042863D02*
X0102947Y0042863D01*
X0102947Y0042063D01*
X0105878Y0042063D01*
X0105878Y0042863D01*
X0105915Y0040535D02*
X0106463Y0039987D01*
X0112016Y0039987D01*
X0112602Y0040573D01*
X0112602Y0042308D01*
X0114291Y0043997D01*
X0114291Y0047474D01*
X0113530Y0048236D01*
X0112602Y0049163D01*
X0112602Y0051047D01*
X0112016Y0051633D01*
X0106463Y0051633D01*
X0106181Y0051350D01*
X0105515Y0051350D01*
X0105515Y0051736D01*
X0104930Y0052322D01*
X0103502Y0052322D01*
X0097682Y0058141D01*
X0093507Y0058141D01*
X0093520Y0058155D01*
X0093520Y0067546D01*
X0093709Y0067546D01*
X0094295Y0068132D01*
X0094295Y0069461D01*
X0094921Y0070088D01*
X0094848Y0069813D01*
X0094848Y0067863D01*
X0097816Y0067863D01*
X0097816Y0067063D01*
X0098616Y0067063D01*
X0098616Y0063898D01*
X0100369Y0063898D01*
X0100725Y0063994D01*
X0101044Y0064178D01*
X0101305Y0064439D01*
X0101489Y0064758D01*
X0101585Y0065114D01*
X0101585Y0067063D01*
X0098616Y0067063D01*
X0098616Y0067863D01*
X0101585Y0067863D01*
X0101585Y0069813D01*
X0101489Y0070169D01*
X0101305Y0070488D01*
X0101044Y0070749D01*
X0100725Y0070933D01*
X0100369Y0071029D01*
X0098616Y0071029D01*
X0098616Y0067864D01*
X0097816Y0067864D01*
X0097816Y0071029D01*
X0096063Y0071029D01*
X0095789Y0070955D01*
X0096403Y0071569D01*
X0097457Y0072623D01*
X0097457Y0078423D01*
X0097802Y0078078D01*
X0098491Y0078078D01*
X0098491Y0075747D01*
X0097591Y0074847D01*
X0097591Y0073025D01*
X0098880Y0071736D01*
X0100702Y0071736D01*
X0101991Y0073025D01*
X0101991Y0074847D01*
X0101091Y0075747D01*
X0101091Y0078078D01*
X0102567Y0078078D01*
X0103153Y0078663D01*
X0103153Y0083823D01*
X0102567Y0084408D01*
X0097802Y0084408D01*
X0097216Y0083823D01*
X0097216Y0082230D01*
X0091552Y0087894D01*
X0091552Y0091831D01*
X0087615Y0095768D01*
X0086560Y0096823D01*
X0070279Y0096823D01*
X0070279Y0104098D01*
X0069693Y0104684D01*
X0061186Y0104684D01*
X0062424Y0105922D01*
X0062424Y0107745D01*
X0062093Y0108076D01*
X0062602Y0108585D01*
X0062602Y0109218D01*
X0063250Y0108571D01*
X0065734Y0108571D01*
X0066306Y0107999D01*
X0070284Y0107999D01*
X0070856Y0108571D01*
X0071232Y0108571D01*
X0071232Y0107915D01*
X0071818Y0107330D01*
X0076583Y0107330D01*
X0077169Y0107915D01*
X0077169Y0114413D01*
X0076583Y0114999D01*
X0071818Y0114999D01*
X0071232Y0114413D01*
X0071232Y0112971D01*
X0070856Y0112971D01*
X0070284Y0113542D01*
X0066306Y0113542D01*
X0065734Y0112971D01*
X0063250Y0112971D01*
X0062602Y0112323D01*
X0062602Y0112956D01*
X0062016Y0113542D01*
X0058038Y0113542D01*
X0057452Y0112956D01*
X0057452Y0112713D01*
X0054939Y0115226D01*
X0086281Y0115226D01*
X0086281Y0113600D01*
X0086045Y0113364D01*
X0084649Y0113364D01*
X0084649Y0114413D01*
X0084064Y0114999D01*
X0079298Y0114999D01*
X0078712Y0114413D01*
X0078712Y0107915D01*
X0079298Y0107330D01*
X0084064Y0107330D01*
X0084649Y0107915D01*
X0084649Y0108964D01*
X0087868Y0108964D01*
X0088142Y0109239D01*
X0090195Y0109239D01*
X0090781Y0109825D01*
X0090781Y0115226D01*
X0091281Y0115226D01*
X0091281Y0109825D01*
X0091331Y0109775D01*
X0091331Y0107587D01*
X0088447Y0104703D01*
X0084649Y0104703D01*
X0084649Y0105752D01*
X0084064Y0106337D01*
X0079298Y0106337D01*
X0078712Y0105752D01*
X0078712Y0105663D01*
X0078655Y0105878D01*
X0078470Y0106197D01*
X0078210Y0106458D01*
X0077890Y0106642D01*
X0077534Y0106737D01*
X0075388Y0106737D01*
X0075388Y0102903D01*
X0074588Y0102903D01*
X0074588Y0106737D01*
X0072441Y0106737D01*
X0072085Y0106642D01*
X0071766Y0106458D01*
X0071505Y0106197D01*
X0071321Y0105878D01*
X0071226Y0105522D01*
X0071226Y0102903D01*
X0074588Y0102903D01*
X0074588Y0102103D01*
X0075388Y0102103D01*
X0075388Y0098268D01*
X0077534Y0098268D01*
X0077890Y0098364D01*
X0078210Y0098548D01*
X0078470Y0098809D01*
X0078655Y0099128D01*
X0078712Y0099343D01*
X0078712Y0099254D01*
X0079298Y0098668D01*
X0084064Y0098668D01*
X0084649Y0099254D01*
X0084649Y0100303D01*
X0090269Y0100303D01*
X0094442Y0104476D01*
X0095731Y0105765D01*
X0095731Y0109775D01*
X0095781Y0109825D01*
X0095781Y0115226D01*
X0096281Y0115226D01*
X0096281Y0109825D01*
X0096867Y0109239D01*
X0097291Y0109239D01*
X0097291Y0103936D01*
X0096582Y0103936D01*
X0095996Y0103350D01*
X0095996Y0097010D01*
X0096582Y0096424D01*
X0101347Y0096424D01*
X0101933Y0097010D01*
X0101933Y0103350D01*
X0101347Y0103936D01*
X0099891Y0103936D01*
X0099891Y0109239D01*
X0100195Y0109239D01*
X0100781Y0109825D01*
X0100781Y0115226D01*
X0101281Y0115226D01*
X0101281Y0109825D01*
X0101867Y0109239D01*
X0102691Y0109239D01*
X0102691Y0107597D01*
X0109263Y0101025D01*
X0109263Y0098336D01*
X0107880Y0098336D01*
X0106591Y0097047D01*
X0106591Y0095274D01*
X0106109Y0095274D01*
X0105857Y0095023D01*
X0105793Y0095134D01*
X0105533Y0095395D01*
X0105213Y0095579D01*
X0104857Y0095674D01*
X0103104Y0095674D01*
X0103104Y0091919D01*
X0102304Y0091919D01*
X0102304Y0091119D01*
X0099336Y0091119D01*
X0099336Y0089936D01*
X0098830Y0089936D01*
X0098193Y0090573D01*
X0098193Y0094689D01*
X0097607Y0095274D01*
X0092841Y0095274D01*
X0092256Y0094689D01*
X0092256Y0088348D01*
X0092841Y0087763D01*
X0096991Y0087763D01*
X0096991Y0086825D01*
X0098280Y0085536D01*
X0100102Y0085536D01*
X0101391Y0086825D01*
X0101391Y0087363D01*
X0102304Y0087363D01*
X0102304Y0091119D01*
X0103104Y0091119D01*
X0103104Y0087363D01*
X0104857Y0087363D01*
X0105213Y0087458D01*
X0105533Y0087642D01*
X0105793Y0087903D01*
X0105857Y0088014D01*
X0106109Y0087763D01*
X0110875Y0087763D01*
X0111460Y0088348D01*
X0111460Y0094689D01*
X0110958Y0095191D01*
X0110991Y0095225D01*
X0110991Y0096424D01*
X0114615Y0096424D01*
X0115200Y0097010D01*
X0115200Y0103065D01*
X0116368Y0103065D01*
X0123385Y0096049D01*
X0123385Y0088371D01*
X0129684Y0082072D01*
X0130484Y0081272D01*
X0130484Y0079254D01*
X0131070Y0078668D01*
X0138199Y0078668D01*
X0137749Y0078217D01*
X0137749Y0076395D01*
X0137799Y0076344D01*
X0135427Y0076344D01*
X0135427Y0072194D01*
X0134627Y0072194D01*
X0134627Y0071394D01*
X0130084Y0071394D01*
X0130084Y0071281D01*
X0126130Y0075236D01*
X0125988Y0075236D01*
X0125988Y0075358D01*
X0125402Y0075944D01*
X0121424Y0075944D01*
X0120838Y0075358D01*
X0120838Y0075200D01*
X0120502Y0075536D01*
X0118680Y0075536D01*
X0117391Y0074247D01*
X0117391Y0072425D01*
X0117980Y0071836D01*
X0117391Y0071247D01*
X0117391Y0070774D01*
X0116530Y0071636D01*
X0113783Y0071636D01*
X0113783Y0075358D01*
X0113197Y0075944D01*
X0113091Y0075944D01*
X0113091Y0078078D01*
X0114378Y0078078D01*
X0114964Y0078663D01*
X0114964Y0083823D01*
X0114378Y0084408D01*
X0109613Y0084408D01*
X0109437Y0084232D01*
X0109260Y0084408D01*
X0104495Y0084408D01*
X0103909Y0083823D01*
X0103909Y0078663D01*
X0104495Y0078078D01*
X0109260Y0078078D01*
X0109437Y0078254D01*
X0109613Y0078078D01*
X0110491Y0078078D01*
X0110491Y0075944D01*
X0109219Y0075944D01*
X0108634Y0075358D01*
X0108634Y0074036D01*
X0107002Y0074036D01*
X0106102Y0074936D01*
X0104280Y0074936D01*
X0102991Y0073647D01*
X0102991Y0071825D01*
X0104187Y0070629D01*
X0102526Y0070629D01*
X0101941Y0070043D01*
X0101941Y0064884D01*
X0102526Y0064298D01*
X0104590Y0064298D01*
X0105610Y0063279D01*
X0105090Y0062760D01*
X0105090Y0060766D01*
X0104970Y0060646D01*
X0104786Y0060327D01*
X0104690Y0059971D01*
X0104690Y0058943D01*
X0109000Y0058943D01*
X0109000Y0058858D01*
X0104690Y0058858D01*
X0104690Y0058136D01*
X0103080Y0058136D01*
X0101791Y0056847D01*
X0101791Y0055025D01*
X0103080Y0053736D01*
X0104902Y0053736D01*
X0105090Y0053924D01*
X0105090Y0052482D01*
X0105676Y0051897D01*
X0112410Y0051897D01*
X0112996Y0052482D01*
X0112996Y0057035D01*
X0113116Y0057155D01*
X0113300Y0057474D01*
X0113396Y0057830D01*
X0113396Y0058858D01*
X0109086Y0058858D01*
X0109086Y0058943D01*
X0113396Y0058943D01*
X0113396Y0059971D01*
X0113300Y0060327D01*
X0113116Y0060646D01*
X0112996Y0060766D01*
X0112996Y0062760D01*
X0112410Y0063345D01*
X0109220Y0063345D01*
X0107780Y0064786D01*
X0107878Y0064884D01*
X0107878Y0070043D01*
X0107292Y0070629D01*
X0106195Y0070629D01*
X0107002Y0071436D01*
X0108634Y0071436D01*
X0108634Y0070018D01*
X0108513Y0069898D01*
X0108329Y0069579D01*
X0108234Y0069223D01*
X0108234Y0068448D01*
X0111208Y0068448D01*
X0111208Y0068448D01*
X0108234Y0068448D01*
X0108234Y0067673D01*
X0108329Y0067317D01*
X0108513Y0066998D01*
X0108774Y0066737D01*
X0109093Y0066553D01*
X0109449Y0066457D01*
X0111208Y0066457D01*
X0111208Y0068448D01*
X0111208Y0068448D01*
X0114183Y0068448D01*
X0114183Y0069036D01*
X0115453Y0069036D01*
X0119562Y0064926D01*
X0118301Y0064926D01*
X0118301Y0061958D01*
X0117501Y0061958D01*
X0117501Y0061158D01*
X0114336Y0061158D01*
X0114336Y0059405D01*
X0114431Y0059049D01*
X0114616Y0058730D01*
X0114764Y0058582D01*
X0114589Y0058279D01*
X0114493Y0057923D01*
X0114493Y0055974D01*
X0117462Y0055974D01*
X0117462Y0058189D01*
X0117501Y0058189D01*
X0117501Y0061158D01*
X0118301Y0061158D01*
X0118301Y0059139D01*
X0118262Y0059139D01*
X0118262Y0055974D01*
X0117462Y0055974D01*
X0117462Y0055174D01*
X0114493Y0055174D01*
X0114493Y0053224D01*
X0114589Y0052868D01*
X0114773Y0052549D01*
X0115034Y0052288D01*
X0115353Y0052104D01*
X0115709Y0052008D01*
X0117462Y0052008D01*
X0117462Y0055174D01*
X0118262Y0055174D01*
X0118262Y0055974D01*
X0121230Y0055974D01*
X0121230Y0057923D01*
X0121135Y0058279D01*
X0120989Y0058532D01*
X0121187Y0058730D01*
X0121371Y0059049D01*
X0121429Y0059264D01*
X0121429Y0059175D01*
X0122015Y0058589D01*
X0122023Y0058589D01*
X0121586Y0058153D01*
X0121586Y0052994D01*
X0122172Y0052408D01*
X0126938Y0052408D01*
X0127523Y0052994D01*
X0127523Y0058153D01*
X0127087Y0058589D01*
X0127174Y0058589D01*
X0127760Y0059175D01*
X0127760Y0060036D01*
X0128712Y0060036D01*
X0128712Y0055041D01*
X0129298Y0054456D01*
X0132472Y0054456D01*
X0129506Y0051490D01*
X0129049Y0051947D01*
X0127942Y0051947D01*
X0127567Y0052322D01*
X0122802Y0052322D01*
X0122216Y0051736D01*
X0122216Y0051633D01*
X0116700Y0051633D01*
X0116625Y0051558D01*
X0116105Y0051595D01*
X0116049Y0051547D01*
X0115975Y0051547D01*
X0115493Y0051065D01*
X0114978Y0050619D01*
X0114973Y0050545D01*
X0114920Y0050493D01*
X0114920Y0049811D01*
X0114872Y0049131D01*
X0114920Y0049075D01*
X0114920Y0049001D01*
X0115402Y0048520D01*
X0115848Y0048005D01*
X0115922Y0047999D01*
X0115975Y0047947D01*
X0116220Y0047947D01*
X0116700Y0047467D01*
X0122216Y0047467D01*
X0122216Y0046577D01*
X0122802Y0045991D01*
X0122891Y0045991D01*
X0122676Y0045933D01*
X0122357Y0045749D01*
X0122096Y0045488D01*
X0121912Y0045169D01*
X0121816Y0044813D01*
X0121816Y0044152D01*
X0116700Y0044152D01*
X0116114Y0043567D01*
X0116114Y0040573D01*
X0116700Y0039987D01*
X0121850Y0039987D01*
X0121912Y0039758D01*
X0122096Y0039439D01*
X0122149Y0039386D01*
X0105583Y0039386D01*
X0105636Y0039439D01*
X0105820Y0039758D01*
X0105915Y0040114D01*
X0105915Y0040535D01*
X0105915Y0040331D02*
X0106119Y0040331D01*
X0105690Y0039533D02*
X0122041Y0039533D01*
X0125585Y0042063D02*
X0125585Y0042863D01*
X0128553Y0042863D01*
X0128553Y0044813D01*
X0128458Y0045169D01*
X0128274Y0045488D01*
X0128013Y0045749D01*
X0127694Y0045933D01*
X0127479Y0045991D01*
X0127567Y0045991D01*
X0128153Y0046577D01*
X0128153Y0047547D01*
X0129049Y0047547D01*
X0130138Y0048636D01*
X0130330Y0048636D01*
X0131091Y0049397D01*
X0134591Y0052897D01*
X0137653Y0049836D01*
X0161530Y0049836D01*
X0162291Y0050597D01*
X0166149Y0054456D01*
X0169497Y0054456D01*
X0170082Y0055041D01*
X0170082Y0060201D01*
X0169497Y0060786D01*
X0164731Y0060786D01*
X0164145Y0060201D01*
X0164145Y0056129D01*
X0162527Y0054511D01*
X0162496Y0054542D01*
X0162996Y0055041D01*
X0162996Y0060201D01*
X0162410Y0060786D01*
X0157645Y0060786D01*
X0157059Y0060201D01*
X0157059Y0055041D01*
X0157645Y0054456D01*
X0158199Y0054456D01*
X0158191Y0054447D01*
X0158191Y0052625D01*
X0158380Y0052436D01*
X0152202Y0052436D01*
X0152391Y0052625D01*
X0152391Y0054056D01*
X0152934Y0054056D01*
X0152934Y0057221D01*
X0153734Y0057221D01*
X0153734Y0054056D01*
X0155487Y0054056D01*
X0155843Y0054151D01*
X0156162Y0054335D01*
X0156423Y0054596D01*
X0156607Y0054915D01*
X0156703Y0055271D01*
X0156703Y0057221D01*
X0153734Y0057221D01*
X0153734Y0058021D01*
X0152934Y0058021D01*
X0152934Y0061041D01*
X0153239Y0061345D01*
X0157489Y0061345D01*
X0158074Y0061931D01*
X0158074Y0062436D01*
X0158719Y0062436D01*
X0158826Y0062330D01*
X0163591Y0062330D01*
X0164177Y0062915D01*
X0164177Y0068075D01*
X0163804Y0068448D01*
X0164177Y0068821D01*
X0164177Y0073112D01*
X0164933Y0072356D01*
X0164933Y0068821D01*
X0165023Y0068731D01*
X0164813Y0068520D01*
X0164628Y0068201D01*
X0164533Y0067845D01*
X0164533Y0065895D01*
X0167501Y0065895D01*
X0167501Y0065095D01*
X0164533Y0065095D01*
X0164533Y0063145D01*
X0164628Y0062789D01*
X0164813Y0062470D01*
X0165073Y0062209D01*
X0165392Y0062025D01*
X0165748Y0061930D01*
X0167501Y0061930D01*
X0167501Y0065095D01*
X0168301Y0065095D01*
X0168301Y0061930D01*
X0170054Y0061930D01*
X0170410Y0062025D01*
X0170729Y0062209D01*
X0170990Y0062470D01*
X0171174Y0062789D01*
X0171270Y0063145D01*
X0171270Y0063665D01*
X0171818Y0063117D01*
X0176977Y0063117D01*
X0177531Y0063671D01*
X0177531Y0061931D01*
X0178117Y0061345D01*
X0179100Y0061345D01*
X0179100Y0060786D01*
X0178511Y0060786D01*
X0177925Y0060201D01*
X0177925Y0056108D01*
X0175791Y0053974D01*
X0175791Y0054447D01*
X0175783Y0054456D01*
X0176190Y0054456D01*
X0176775Y0055041D01*
X0176775Y0060201D01*
X0176190Y0060786D01*
X0171424Y0060786D01*
X0170838Y0060201D01*
X0170838Y0055041D01*
X0171412Y0054468D01*
X0171391Y0054447D01*
X0171391Y0052625D01*
X0172680Y0051336D01*
X0173153Y0051336D01*
X0165253Y0043436D01*
X0162802Y0043436D01*
X0161902Y0044336D01*
X0160080Y0044336D01*
X0158791Y0043047D01*
X0158791Y0041225D01*
X0160080Y0039936D01*
X0161902Y0039936D01*
X0162802Y0040836D01*
X0166330Y0040836D01*
X0167091Y0041597D01*
X0179949Y0054456D01*
X0183276Y0054456D01*
X0183862Y0055041D01*
X0183862Y0060201D01*
X0183276Y0060786D01*
X0181900Y0060786D01*
X0181900Y0061345D01*
X0182882Y0061345D01*
X0183468Y0061931D01*
X0183468Y0068271D01*
X0182882Y0068857D01*
X0179351Y0068857D01*
X0181271Y0070778D01*
X0181271Y0070593D01*
X0181857Y0070007D01*
X0186623Y0070007D01*
X0187208Y0070593D01*
X0187208Y0076933D01*
X0186835Y0077306D01*
X0187208Y0077679D01*
X0187208Y0084019D01*
X0186623Y0084605D01*
X0181857Y0084605D01*
X0181271Y0084019D01*
X0181271Y0081236D01*
X0177563Y0081236D01*
X0177563Y0082248D01*
X0176977Y0082834D01*
X0171818Y0082834D01*
X0171232Y0082248D01*
X0171232Y0081765D01*
X0171174Y0081980D01*
X0170990Y0082299D01*
X0170779Y0082510D01*
X0170870Y0082600D01*
X0170870Y0085236D01*
X0171232Y0085236D01*
X0171232Y0084175D01*
X0171818Y0083589D01*
X0176977Y0083589D01*
X0177563Y0084175D01*
X0177563Y0085743D01*
X0177672Y0085635D01*
X0177991Y0085450D01*
X0178347Y0085355D01*
X0180100Y0085355D01*
X0180100Y0089111D01*
X0180900Y0089111D01*
X0180900Y0089911D01*
X0183868Y0089911D01*
X0183868Y0092451D01*
X0183773Y0092807D01*
X0183588Y0093126D01*
X0183328Y0093387D01*
X0183193Y0093465D01*
X0183402Y0093521D01*
X0183722Y0093705D01*
X0183982Y0093966D01*
X0184166Y0094285D01*
X0184262Y0094641D01*
X0184262Y0096591D01*
X0181293Y0096591D01*
X0181293Y0093667D01*
X0180900Y0093667D01*
X0180900Y0089911D01*
X0180100Y0089911D01*
X0180100Y0093426D01*
X0180493Y0093426D01*
X0180493Y0096591D01*
X0177525Y0096591D01*
X0177525Y0094641D01*
X0177620Y0094285D01*
X0177805Y0093966D01*
X0178065Y0093705D01*
X0178200Y0093627D01*
X0177991Y0093571D01*
X0177672Y0093387D01*
X0177411Y0093126D01*
X0177227Y0092807D01*
X0177131Y0092451D01*
X0177131Y0089911D01*
X0180100Y0089911D01*
X0180100Y0089111D01*
X0177393Y0089111D01*
X0176977Y0089526D01*
X0171818Y0089526D01*
X0171232Y0088941D01*
X0171232Y0087836D01*
X0170793Y0087836D01*
X0170284Y0088345D01*
X0168891Y0088345D01*
X0168891Y0090074D01*
X0166730Y0092236D01*
X0168319Y0093826D01*
X0172252Y0093826D01*
X0172838Y0094411D01*
X0172838Y0099571D01*
X0172252Y0100156D01*
X0167487Y0100156D01*
X0166901Y0099571D01*
X0166901Y0096085D01*
X0166145Y0095329D01*
X0166145Y0099571D01*
X0165560Y0100156D01*
X0160794Y0100156D01*
X0160618Y0099980D01*
X0160441Y0100156D01*
X0155676Y0100156D01*
X0155090Y0099571D01*
X0155090Y0095674D01*
X0154753Y0095336D01*
X0154334Y0095336D01*
X0154334Y0099571D01*
X0153749Y0100156D01*
X0148983Y0100156D01*
X0148397Y0099571D01*
X0148397Y0099241D01*
X0148102Y0099536D01*
X0147702Y0099536D01*
X0148191Y0100025D01*
X0148191Y0101847D01*
X0146902Y0103136D01*
X0145080Y0103136D01*
X0143791Y0101847D01*
X0143791Y0100574D01*
X0143373Y0100156D01*
X0139928Y0100156D01*
X0139342Y0099571D01*
X0139342Y0094411D01*
X0139884Y0093870D01*
X0138610Y0093870D01*
X0138707Y0093966D01*
X0138891Y0094285D01*
X0138986Y0094641D01*
X0138986Y0096591D01*
X0136018Y0096591D01*
X0136018Y0097391D01*
X0138986Y0097391D01*
X0138986Y0099341D01*
X0138891Y0099697D01*
X0138707Y0100016D01*
X0138446Y0100277D01*
X0138127Y0100461D01*
X0137771Y0100556D01*
X0136018Y0100556D01*
X0136018Y0097391D01*
X0135218Y0097391D01*
X0135218Y0100556D01*
X0133465Y0100556D01*
X0133109Y0100461D01*
X0132890Y0100335D01*
X0132890Y0100926D01*
X0131836Y0101980D01*
X0120781Y0113035D01*
X0120781Y0115226D01*
X0194082Y0115226D01*
X0194082Y0039386D01*
X0128221Y0039386D01*
X0128274Y0039439D01*
X0128458Y0039758D01*
X0128553Y0040114D01*
X0128553Y0042063D01*
X0125585Y0042063D01*
X0125585Y0042727D02*
X0158791Y0042727D01*
X0158791Y0041928D02*
X0128553Y0041928D01*
X0128553Y0041130D02*
X0158886Y0041130D01*
X0159684Y0040331D02*
X0128553Y0040331D01*
X0128328Y0039533D02*
X0194082Y0039533D01*
X0194082Y0040331D02*
X0162298Y0040331D01*
X0162713Y0043526D02*
X0165342Y0043526D01*
X0166141Y0044324D02*
X0161914Y0044324D01*
X0160068Y0044324D02*
X0128553Y0044324D01*
X0128553Y0043526D02*
X0159269Y0043526D01*
X0166624Y0041130D02*
X0194082Y0041130D01*
X0194082Y0041928D02*
X0167422Y0041928D01*
X0168221Y0042727D02*
X0194082Y0042727D01*
X0194082Y0043526D02*
X0169019Y0043526D01*
X0169818Y0044324D02*
X0194082Y0044324D01*
X0194082Y0045123D02*
X0170616Y0045123D01*
X0171415Y0045921D02*
X0194082Y0045921D01*
X0194082Y0046720D02*
X0172213Y0046720D01*
X0173012Y0047518D02*
X0194082Y0047518D01*
X0194082Y0048317D02*
X0173810Y0048317D01*
X0174609Y0049115D02*
X0194082Y0049115D01*
X0194082Y0049914D02*
X0175407Y0049914D01*
X0176206Y0050712D02*
X0194082Y0050712D01*
X0194082Y0051511D02*
X0177004Y0051511D01*
X0177803Y0052309D02*
X0194082Y0052309D01*
X0194082Y0053108D02*
X0178601Y0053108D01*
X0179400Y0053906D02*
X0194082Y0053906D01*
X0194082Y0054705D02*
X0190738Y0054705D01*
X0190675Y0054596D02*
X0190859Y0054915D01*
X0190955Y0055271D01*
X0190955Y0057221D01*
X0187986Y0057221D01*
X0187986Y0054056D01*
X0189739Y0054056D01*
X0190095Y0054151D01*
X0190414Y0054335D01*
X0190675Y0054596D01*
X0190955Y0055503D02*
X0194082Y0055503D01*
X0194082Y0056302D02*
X0190955Y0056302D01*
X0190955Y0057100D02*
X0194082Y0057100D01*
X0194082Y0057899D02*
X0187986Y0057899D01*
X0187986Y0058021D02*
X0190955Y0058021D01*
X0190955Y0059971D01*
X0190859Y0060327D01*
X0190675Y0060646D01*
X0190414Y0060907D01*
X0190279Y0060985D01*
X0190489Y0061041D01*
X0190808Y0061225D01*
X0191069Y0061486D01*
X0191253Y0061805D01*
X0191349Y0062161D01*
X0191348Y0064701D01*
X0188380Y0064701D01*
X0188380Y0061186D01*
X0187986Y0061186D01*
X0187986Y0058021D01*
X0187186Y0058021D01*
X0187186Y0057221D01*
X0184218Y0057221D01*
X0184218Y0055271D01*
X0184313Y0054915D01*
X0184498Y0054596D01*
X0184758Y0054335D01*
X0185077Y0054151D01*
X0185433Y0054056D01*
X0187186Y0054056D01*
X0187186Y0057221D01*
X0187986Y0057221D01*
X0187986Y0058021D01*
X0187986Y0058697D02*
X0187186Y0058697D01*
X0187186Y0058021D02*
X0187186Y0060945D01*
X0187580Y0060945D01*
X0187580Y0064701D01*
X0188380Y0064701D01*
X0188380Y0065501D01*
X0191349Y0065501D01*
X0191349Y0068041D01*
X0191253Y0068398D01*
X0191069Y0068717D01*
X0190808Y0068977D01*
X0190489Y0069162D01*
X0190133Y0069257D01*
X0188380Y0069257D01*
X0188380Y0065501D01*
X0187580Y0065501D01*
X0187580Y0064701D01*
X0184612Y0064701D01*
X0184612Y0062161D01*
X0184707Y0061805D01*
X0184891Y0061486D01*
X0185152Y0061225D01*
X0185287Y0061147D01*
X0185077Y0061091D01*
X0184758Y0060907D01*
X0184498Y0060646D01*
X0184313Y0060327D01*
X0184218Y0059971D01*
X0184218Y0058021D01*
X0187186Y0058021D01*
X0187186Y0057899D02*
X0183862Y0057899D01*
X0183862Y0058697D02*
X0184218Y0058697D01*
X0184218Y0059496D02*
X0183862Y0059496D01*
X0183768Y0060294D02*
X0184305Y0060294D01*
X0185084Y0061093D02*
X0181900Y0061093D01*
X0183428Y0061891D02*
X0184684Y0061891D01*
X0184612Y0062690D02*
X0183468Y0062690D01*
X0183468Y0063488D02*
X0184612Y0063488D01*
X0184612Y0064287D02*
X0183468Y0064287D01*
X0183468Y0065085D02*
X0187580Y0065085D01*
X0187580Y0065501D02*
X0184612Y0065501D01*
X0184612Y0068041D01*
X0184707Y0068398D01*
X0184891Y0068717D01*
X0185152Y0068977D01*
X0185471Y0069162D01*
X0185827Y0069257D01*
X0187580Y0069257D01*
X0187580Y0065501D01*
X0187580Y0065884D02*
X0188380Y0065884D01*
X0188380Y0066682D02*
X0187580Y0066682D01*
X0187580Y0067481D02*
X0188380Y0067481D01*
X0188380Y0068279D02*
X0187580Y0068279D01*
X0187580Y0069078D02*
X0188380Y0069078D01*
X0190634Y0069078D02*
X0194082Y0069078D01*
X0194082Y0069876D02*
X0180370Y0069876D01*
X0179571Y0069078D02*
X0185326Y0069078D01*
X0184675Y0068279D02*
X0183460Y0068279D01*
X0183468Y0067481D02*
X0184612Y0067481D01*
X0184612Y0066682D02*
X0183468Y0066682D01*
X0183468Y0065884D02*
X0184612Y0065884D01*
X0187580Y0064287D02*
X0188380Y0064287D01*
X0188380Y0065085D02*
X0194082Y0065085D01*
X0194082Y0064287D02*
X0191349Y0064287D01*
X0191349Y0063488D02*
X0194082Y0063488D01*
X0194082Y0062690D02*
X0191349Y0062690D01*
X0191276Y0061891D02*
X0194082Y0061891D01*
X0194082Y0061093D02*
X0190579Y0061093D01*
X0190868Y0060294D02*
X0194082Y0060294D01*
X0194082Y0059496D02*
X0190955Y0059496D01*
X0190955Y0058697D02*
X0194082Y0058697D01*
X0187986Y0059496D02*
X0187186Y0059496D01*
X0187186Y0060294D02*
X0187986Y0060294D01*
X0187986Y0061093D02*
X0187580Y0061093D01*
X0187580Y0061891D02*
X0188380Y0061891D01*
X0188380Y0062690D02*
X0187580Y0062690D01*
X0187580Y0063488D02*
X0188380Y0063488D01*
X0191349Y0065884D02*
X0194082Y0065884D01*
X0194082Y0066682D02*
X0191349Y0066682D01*
X0191349Y0067481D02*
X0194082Y0067481D01*
X0194082Y0068279D02*
X0191285Y0068279D01*
X0194082Y0070675D02*
X0187208Y0070675D01*
X0187208Y0071473D02*
X0194082Y0071473D01*
X0194082Y0072272D02*
X0187208Y0072272D01*
X0187208Y0073070D02*
X0194082Y0073070D01*
X0194082Y0073869D02*
X0187208Y0073869D01*
X0187208Y0074667D02*
X0194082Y0074667D01*
X0194082Y0075466D02*
X0187208Y0075466D01*
X0187208Y0076264D02*
X0194082Y0076264D01*
X0194082Y0077063D02*
X0187078Y0077063D01*
X0187208Y0077861D02*
X0194082Y0077861D01*
X0194082Y0078660D02*
X0187208Y0078660D01*
X0187208Y0079459D02*
X0194082Y0079459D01*
X0194082Y0080257D02*
X0187208Y0080257D01*
X0187208Y0081056D02*
X0194082Y0081056D01*
X0194082Y0081854D02*
X0187208Y0081854D01*
X0187208Y0082653D02*
X0194082Y0082653D01*
X0194082Y0083451D02*
X0187208Y0083451D01*
X0186978Y0084250D02*
X0194082Y0084250D01*
X0194082Y0085048D02*
X0177563Y0085048D01*
X0177563Y0084250D02*
X0181502Y0084250D01*
X0181271Y0083451D02*
X0170870Y0083451D01*
X0170870Y0082653D02*
X0171637Y0082653D01*
X0171232Y0081854D02*
X0171208Y0081854D01*
X0171232Y0084250D02*
X0170870Y0084250D01*
X0170870Y0085048D02*
X0171232Y0085048D01*
X0171232Y0088242D02*
X0170387Y0088242D01*
X0171332Y0089041D02*
X0168891Y0089041D01*
X0168891Y0089839D02*
X0180100Y0089839D01*
X0180100Y0089041D02*
X0180900Y0089041D01*
X0180900Y0089111D02*
X0180900Y0085355D01*
X0182653Y0085355D01*
X0183009Y0085450D01*
X0183328Y0085635D01*
X0183588Y0085895D01*
X0183773Y0086214D01*
X0183868Y0086570D01*
X0183868Y0089111D01*
X0180900Y0089111D01*
X0180900Y0089839D02*
X0185012Y0089839D01*
X0185012Y0089041D02*
X0183868Y0089041D01*
X0183868Y0088242D02*
X0185012Y0088242D01*
X0185012Y0087444D02*
X0183868Y0087444D01*
X0183868Y0086645D02*
X0185012Y0086645D01*
X0185012Y0086341D02*
X0185597Y0085755D01*
X0190363Y0085755D01*
X0190949Y0086341D01*
X0190949Y0092681D01*
X0190363Y0093267D01*
X0189291Y0093267D01*
X0189291Y0093826D01*
X0189969Y0093826D01*
X0190555Y0094411D01*
X0190555Y0099571D01*
X0189969Y0100156D01*
X0186591Y0100156D01*
X0186591Y0101847D01*
X0185302Y0103136D01*
X0183480Y0103136D01*
X0182191Y0101847D01*
X0182191Y0100556D01*
X0181293Y0100556D01*
X0181293Y0097391D01*
X0180493Y0097391D01*
X0180493Y0096591D01*
X0181293Y0096591D01*
X0181293Y0097391D01*
X0184262Y0097391D01*
X0184262Y0098627D01*
X0184618Y0098271D01*
X0184618Y0094411D01*
X0185204Y0093826D01*
X0186691Y0093826D01*
X0186691Y0093267D01*
X0185597Y0093267D01*
X0185012Y0092681D01*
X0185012Y0086341D01*
X0185506Y0085847D02*
X0183540Y0085847D01*
X0180900Y0085847D02*
X0180100Y0085847D01*
X0180100Y0086645D02*
X0180900Y0086645D01*
X0180900Y0087444D02*
X0180100Y0087444D01*
X0180100Y0088242D02*
X0180900Y0088242D01*
X0180900Y0090638D02*
X0180100Y0090638D01*
X0180100Y0091436D02*
X0180900Y0091436D01*
X0180900Y0092235D02*
X0180100Y0092235D01*
X0180100Y0093033D02*
X0180900Y0093033D01*
X0181293Y0093832D02*
X0180493Y0093832D01*
X0180493Y0094630D02*
X0181293Y0094630D01*
X0181293Y0095429D02*
X0180493Y0095429D01*
X0180493Y0096227D02*
X0181293Y0096227D01*
X0181293Y0097026D02*
X0184618Y0097026D01*
X0184618Y0097824D02*
X0184262Y0097824D01*
X0184262Y0098623D02*
X0184266Y0098623D01*
X0186591Y0100220D02*
X0194082Y0100220D01*
X0194082Y0101018D02*
X0186591Y0101018D01*
X0186591Y0101817D02*
X0194082Y0101817D01*
X0194082Y0102615D02*
X0185823Y0102615D01*
X0182959Y0102615D02*
X0147423Y0102615D01*
X0148191Y0101817D02*
X0182191Y0101817D01*
X0182191Y0101018D02*
X0148191Y0101018D01*
X0148191Y0100220D02*
X0178008Y0100220D01*
X0178065Y0100277D02*
X0177805Y0100016D01*
X0177620Y0099697D01*
X0177525Y0099341D01*
X0177525Y0097391D01*
X0180493Y0097391D01*
X0180493Y0100556D01*
X0178741Y0100556D01*
X0178385Y0100461D01*
X0178065Y0100277D01*
X0177547Y0099421D02*
X0172838Y0099421D01*
X0172838Y0098623D02*
X0177525Y0098623D01*
X0177525Y0097824D02*
X0172838Y0097824D01*
X0172838Y0097026D02*
X0180493Y0097026D01*
X0180493Y0097824D02*
X0181293Y0097824D01*
X0181293Y0098623D02*
X0180493Y0098623D01*
X0180493Y0099421D02*
X0181293Y0099421D01*
X0181293Y0100220D02*
X0180493Y0100220D01*
X0177525Y0096227D02*
X0172838Y0096227D01*
X0172838Y0095429D02*
X0177525Y0095429D01*
X0177528Y0094630D02*
X0172838Y0094630D01*
X0172259Y0093832D02*
X0177939Y0093832D01*
X0177357Y0093033D02*
X0167527Y0093033D01*
X0166731Y0092235D02*
X0177131Y0092235D01*
X0177131Y0091436D02*
X0167529Y0091436D01*
X0168328Y0090638D02*
X0177131Y0090638D01*
X0183868Y0090638D02*
X0185012Y0090638D01*
X0185012Y0091436D02*
X0183868Y0091436D01*
X0183868Y0092235D02*
X0185012Y0092235D01*
X0185364Y0093033D02*
X0183642Y0093033D01*
X0183848Y0093832D02*
X0185198Y0093832D01*
X0184618Y0094630D02*
X0184259Y0094630D01*
X0184262Y0095429D02*
X0184618Y0095429D01*
X0184618Y0096227D02*
X0184262Y0096227D01*
X0189975Y0093832D02*
X0194082Y0093832D01*
X0194082Y0094630D02*
X0190555Y0094630D01*
X0190555Y0095429D02*
X0194082Y0095429D01*
X0194082Y0096227D02*
X0190555Y0096227D01*
X0190555Y0097026D02*
X0194082Y0097026D01*
X0194082Y0097824D02*
X0190555Y0097824D01*
X0190555Y0098623D02*
X0194082Y0098623D01*
X0194082Y0099421D02*
X0190555Y0099421D01*
X0194082Y0103414D02*
X0130402Y0103414D01*
X0129603Y0104212D02*
X0194082Y0104212D01*
X0194082Y0105011D02*
X0128805Y0105011D01*
X0128006Y0105809D02*
X0194082Y0105809D01*
X0194082Y0106608D02*
X0130174Y0106608D01*
X0130102Y0106536D02*
X0131002Y0107436D01*
X0170053Y0107436D01*
X0171130Y0107436D01*
X0173830Y0110136D01*
X0175102Y0110136D01*
X0176391Y0111425D01*
X0176391Y0113247D01*
X0175102Y0114536D01*
X0173280Y0114536D01*
X0171991Y0113247D01*
X0171991Y0111974D01*
X0170053Y0110036D01*
X0131002Y0110036D01*
X0130102Y0110936D01*
X0128280Y0110936D01*
X0126991Y0109647D01*
X0126991Y0107825D01*
X0128280Y0106536D01*
X0130102Y0106536D01*
X0130973Y0107406D02*
X0194082Y0107406D01*
X0194082Y0108205D02*
X0171899Y0108205D01*
X0172697Y0109003D02*
X0194082Y0109003D01*
X0194082Y0109802D02*
X0173496Y0109802D01*
X0175567Y0110600D02*
X0194082Y0110600D01*
X0194082Y0111399D02*
X0176365Y0111399D01*
X0176391Y0112197D02*
X0194082Y0112197D01*
X0194082Y0112996D02*
X0176391Y0112996D01*
X0175844Y0113795D02*
X0194082Y0113795D01*
X0194082Y0114593D02*
X0120781Y0114593D01*
X0120781Y0113795D02*
X0172538Y0113795D01*
X0171991Y0112996D02*
X0120820Y0112996D01*
X0121618Y0112197D02*
X0171991Y0112197D01*
X0171416Y0111399D02*
X0122417Y0111399D01*
X0123215Y0110600D02*
X0127944Y0110600D01*
X0127146Y0109802D02*
X0124014Y0109802D01*
X0124812Y0109003D02*
X0126991Y0109003D01*
X0126991Y0108205D02*
X0125611Y0108205D01*
X0126409Y0107406D02*
X0127409Y0107406D01*
X0127208Y0106608D02*
X0128208Y0106608D01*
X0131201Y0102615D02*
X0144559Y0102615D01*
X0143791Y0101817D02*
X0131999Y0101817D01*
X0132798Y0101018D02*
X0143791Y0101018D01*
X0143436Y0100220D02*
X0138503Y0100220D01*
X0138965Y0099421D02*
X0139342Y0099421D01*
X0139342Y0098623D02*
X0138986Y0098623D01*
X0138986Y0097824D02*
X0139342Y0097824D01*
X0139342Y0097026D02*
X0136018Y0097026D01*
X0136018Y0097824D02*
X0135218Y0097824D01*
X0135218Y0098623D02*
X0136018Y0098623D01*
X0136018Y0099421D02*
X0135218Y0099421D01*
X0135218Y0100220D02*
X0136018Y0100220D01*
X0138986Y0096227D02*
X0139342Y0096227D01*
X0139342Y0095429D02*
X0138986Y0095429D01*
X0138983Y0094630D02*
X0139342Y0094630D01*
X0144675Y0093826D02*
X0144693Y0093826D01*
X0145279Y0094411D01*
X0145279Y0096136D01*
X0146280Y0095136D01*
X0148102Y0095136D01*
X0148397Y0095431D01*
X0148397Y0094411D01*
X0148983Y0093826D01*
X0152191Y0093826D01*
X0152191Y0092225D01*
X0153480Y0090936D01*
X0155302Y0090936D01*
X0155591Y0091225D01*
X0156480Y0090336D01*
X0158302Y0090336D01*
X0159202Y0091236D01*
X0159653Y0091236D01*
X0155778Y0087361D01*
X0152723Y0087361D01*
X0152138Y0086775D01*
X0152138Y0085354D01*
X0152080Y0085412D01*
X0150258Y0085412D01*
X0149413Y0084567D01*
X0149413Y0086775D01*
X0148827Y0087361D01*
X0148245Y0087361D01*
X0148245Y0090256D01*
X0147190Y0091311D01*
X0144675Y0093826D01*
X0144699Y0093832D02*
X0148977Y0093832D01*
X0148397Y0094630D02*
X0145279Y0094630D01*
X0145279Y0095429D02*
X0145987Y0095429D01*
X0148395Y0095429D02*
X0148397Y0095429D01*
X0145468Y0093033D02*
X0152191Y0093033D01*
X0152191Y0092235D02*
X0146266Y0092235D01*
X0147065Y0091436D02*
X0152980Y0091436D01*
X0156178Y0090638D02*
X0147863Y0090638D01*
X0148245Y0089839D02*
X0158256Y0089839D01*
X0158604Y0090638D02*
X0159054Y0090638D01*
X0157457Y0089041D02*
X0148245Y0089041D01*
X0148245Y0088242D02*
X0156659Y0088242D01*
X0155860Y0087444D02*
X0148245Y0087444D01*
X0149413Y0086645D02*
X0152138Y0086645D01*
X0152138Y0085847D02*
X0149413Y0085847D01*
X0149413Y0085048D02*
X0149894Y0085048D01*
X0149737Y0081532D02*
X0146734Y0081532D01*
X0146734Y0080954D01*
X0149813Y0080954D01*
X0149813Y0079681D01*
X0149718Y0079325D01*
X0149533Y0079005D01*
X0149413Y0078885D01*
X0149413Y0075711D01*
X0148827Y0075125D01*
X0144062Y0075125D01*
X0143484Y0075703D01*
X0142156Y0075703D01*
X0141953Y0075906D01*
X0141660Y0075906D01*
X0140860Y0075106D01*
X0139971Y0075106D01*
X0139971Y0072194D01*
X0135427Y0072194D01*
X0135427Y0071394D01*
X0135427Y0067245D01*
X0137749Y0067245D01*
X0137749Y0066692D01*
X0135991Y0066692D01*
X0135891Y0066592D01*
X0135891Y0066674D01*
X0135130Y0067436D01*
X0134627Y0067938D01*
X0134627Y0071394D01*
X0135427Y0071394D01*
X0139971Y0071394D01*
X0139971Y0068679D01*
X0140860Y0068679D01*
X0141101Y0068438D01*
X0141101Y0070089D01*
X0140701Y0070489D01*
X0140701Y0072312D01*
X0141990Y0073600D01*
X0143813Y0073600D01*
X0143947Y0073466D01*
X0144062Y0073582D01*
X0148827Y0073582D01*
X0149413Y0072996D01*
X0149413Y0069821D01*
X0149533Y0069701D01*
X0149718Y0069382D01*
X0149813Y0069026D01*
X0149813Y0067752D01*
X0146734Y0067752D01*
X0146734Y0067174D01*
X0149560Y0067174D01*
X0149560Y0067391D01*
X0150848Y0068679D01*
X0151414Y0068679D01*
X0151998Y0069263D01*
X0152145Y0069263D01*
X0152215Y0069334D01*
X0152138Y0069411D01*
X0152138Y0072996D01*
X0152723Y0073582D01*
X0155798Y0073582D01*
X0157291Y0075074D01*
X0157342Y0075125D01*
X0152723Y0075125D01*
X0152138Y0075711D01*
X0152138Y0079295D01*
X0152215Y0079373D01*
X0152138Y0079451D01*
X0152138Y0079697D01*
X0151338Y0080497D01*
X0150823Y0081012D01*
X0150258Y0081012D01*
X0149737Y0081532D01*
X0150214Y0081056D02*
X0146734Y0081056D01*
X0149813Y0080257D02*
X0151578Y0080257D01*
X0152138Y0079459D02*
X0149754Y0079459D01*
X0149413Y0078660D02*
X0152138Y0078660D01*
X0152138Y0077861D02*
X0149413Y0077861D01*
X0149413Y0077063D02*
X0152138Y0077063D01*
X0152138Y0076264D02*
X0149413Y0076264D01*
X0149168Y0075466D02*
X0152382Y0075466D01*
X0152212Y0073070D02*
X0149338Y0073070D01*
X0149413Y0072272D02*
X0152138Y0072272D01*
X0152138Y0071473D02*
X0149413Y0071473D01*
X0149413Y0070675D02*
X0152138Y0070675D01*
X0152138Y0069876D02*
X0149413Y0069876D01*
X0149799Y0069078D02*
X0151813Y0069078D01*
X0150448Y0068279D02*
X0149813Y0068279D01*
X0149650Y0067481D02*
X0146734Y0067481D01*
X0141101Y0069078D02*
X0139971Y0069078D01*
X0139971Y0069876D02*
X0141101Y0069876D01*
X0140701Y0070675D02*
X0139971Y0070675D01*
X0140701Y0071473D02*
X0135427Y0071473D01*
X0135427Y0070675D02*
X0134627Y0070675D01*
X0134627Y0071473D02*
X0129892Y0071473D01*
X0130084Y0072194D02*
X0134627Y0072194D01*
X0134627Y0076344D01*
X0131300Y0076344D01*
X0130944Y0076248D01*
X0130624Y0076064D01*
X0130364Y0075803D01*
X0130179Y0075484D01*
X0130084Y0075128D01*
X0130084Y0072194D01*
X0130084Y0072272D02*
X0129094Y0072272D01*
X0128295Y0073070D02*
X0130084Y0073070D01*
X0130084Y0073869D02*
X0127496Y0073869D01*
X0126698Y0074667D02*
X0130084Y0074667D01*
X0130174Y0075466D02*
X0125880Y0075466D01*
X0120946Y0075466D02*
X0120572Y0075466D01*
X0118610Y0075466D02*
X0113675Y0075466D01*
X0113783Y0074667D02*
X0117811Y0074667D01*
X0117391Y0073869D02*
X0113783Y0073869D01*
X0113783Y0073070D02*
X0117391Y0073070D01*
X0117544Y0072272D02*
X0113783Y0072272D01*
X0116692Y0071473D02*
X0117617Y0071473D01*
X0116209Y0068279D02*
X0114183Y0068279D01*
X0114183Y0068448D02*
X0111208Y0068448D01*
X0111208Y0068448D01*
X0111208Y0066457D01*
X0112967Y0066457D01*
X0113324Y0066553D01*
X0113643Y0066737D01*
X0113903Y0066998D01*
X0114088Y0067317D01*
X0114183Y0067673D01*
X0114183Y0068448D01*
X0114132Y0067481D02*
X0117008Y0067481D01*
X0117806Y0066682D02*
X0113548Y0066682D01*
X0111208Y0066682D02*
X0111208Y0066682D01*
X0111208Y0067481D02*
X0111208Y0067481D01*
X0111208Y0068279D02*
X0111208Y0068279D01*
X0108234Y0068279D02*
X0107878Y0068279D01*
X0107878Y0067481D02*
X0108285Y0067481D01*
X0107878Y0066682D02*
X0108868Y0066682D01*
X0107878Y0065884D02*
X0118605Y0065884D01*
X0119403Y0065085D02*
X0107878Y0065085D01*
X0108279Y0064287D02*
X0114558Y0064287D01*
X0114616Y0064386D02*
X0114431Y0064067D01*
X0114336Y0063711D01*
X0114336Y0061958D01*
X0117501Y0061958D01*
X0117501Y0064926D01*
X0115552Y0064926D01*
X0115196Y0064831D01*
X0114876Y0064647D01*
X0114616Y0064386D01*
X0114336Y0063488D02*
X0109077Y0063488D01*
X0105400Y0063488D02*
X0093520Y0063488D01*
X0093520Y0062690D02*
X0105090Y0062690D01*
X0105090Y0061891D02*
X0093520Y0061891D01*
X0093520Y0061093D02*
X0105090Y0061093D01*
X0104777Y0060294D02*
X0093520Y0060294D01*
X0093520Y0059496D02*
X0104690Y0059496D01*
X0104690Y0058697D02*
X0093520Y0058697D01*
X0097925Y0057899D02*
X0102843Y0057899D01*
X0102044Y0057100D02*
X0098724Y0057100D01*
X0099522Y0056302D02*
X0101791Y0056302D01*
X0101791Y0055503D02*
X0100321Y0055503D01*
X0101119Y0054705D02*
X0102111Y0054705D01*
X0101918Y0053906D02*
X0102910Y0053906D01*
X0102716Y0053108D02*
X0105090Y0053108D01*
X0105073Y0053906D02*
X0105090Y0053906D01*
X0104942Y0052309D02*
X0105263Y0052309D01*
X0105515Y0051511D02*
X0106341Y0051511D01*
X0112138Y0051511D02*
X0115938Y0051511D01*
X0115085Y0050712D02*
X0112602Y0050712D01*
X0112602Y0049914D02*
X0114920Y0049914D01*
X0114886Y0049115D02*
X0112650Y0049115D01*
X0113449Y0048317D02*
X0115578Y0048317D01*
X0116649Y0047518D02*
X0114247Y0047518D01*
X0114291Y0046720D02*
X0122216Y0046720D01*
X0122654Y0045921D02*
X0114291Y0045921D01*
X0114291Y0045123D02*
X0121899Y0045123D01*
X0121816Y0044324D02*
X0114291Y0044324D01*
X0113819Y0043526D02*
X0116114Y0043526D01*
X0116114Y0042727D02*
X0113021Y0042727D01*
X0112602Y0041928D02*
X0116114Y0041928D01*
X0116114Y0041130D02*
X0112602Y0041130D01*
X0112361Y0040331D02*
X0116355Y0040331D01*
X0109098Y0045669D02*
X0105478Y0045669D01*
X0105478Y0045646D01*
X0105375Y0045749D01*
X0105056Y0045933D01*
X0104841Y0045991D01*
X0104930Y0045991D01*
X0105478Y0046539D01*
X0105478Y0045951D01*
X0109098Y0045951D01*
X0109098Y0045669D01*
X0109098Y0045921D02*
X0105077Y0045921D01*
X0099261Y0045123D02*
X0097845Y0045123D01*
X0097845Y0044324D02*
X0099178Y0044324D01*
X0099178Y0043526D02*
X0097845Y0043526D01*
X0093695Y0043526D02*
X0092895Y0043526D01*
X0092895Y0044324D02*
X0093695Y0044324D01*
X0093695Y0042727D02*
X0092895Y0042727D01*
X0092895Y0041928D02*
X0093695Y0041928D01*
X0093695Y0041130D02*
X0092895Y0041130D01*
X0099404Y0039533D02*
X0026241Y0039533D01*
X0026241Y0048317D02*
X0039842Y0048317D01*
X0040358Y0047518D02*
X0040641Y0047518D01*
X0040358Y0046720D02*
X0041439Y0046720D01*
X0039044Y0049115D02*
X0026241Y0049115D01*
X0026241Y0049914D02*
X0038339Y0049914D01*
X0038339Y0050712D02*
X0026241Y0050712D01*
X0026241Y0051511D02*
X0038339Y0051511D01*
X0038339Y0052309D02*
X0026241Y0052309D01*
X0026241Y0053108D02*
X0038339Y0053108D01*
X0038339Y0053906D02*
X0026241Y0053906D01*
X0026241Y0054705D02*
X0038339Y0054705D01*
X0038339Y0055503D02*
X0026241Y0055503D01*
X0026241Y0056302D02*
X0038339Y0056302D01*
X0038876Y0057100D02*
X0026241Y0057100D01*
X0026241Y0057899D02*
X0039674Y0057899D01*
X0040473Y0058697D02*
X0026241Y0058697D01*
X0026241Y0059496D02*
X0041271Y0059496D01*
X0042070Y0060294D02*
X0026241Y0060294D01*
X0026241Y0061093D02*
X0042868Y0061093D01*
X0043082Y0061891D02*
X0026241Y0061891D01*
X0026241Y0062690D02*
X0043082Y0062690D01*
X0043082Y0063488D02*
X0026241Y0063488D01*
X0026241Y0064287D02*
X0043665Y0064287D01*
X0039834Y0066682D02*
X0063381Y0066682D01*
X0064179Y0065884D02*
X0026241Y0065884D01*
X0026241Y0065085D02*
X0064978Y0065085D01*
X0065776Y0064287D02*
X0062610Y0064287D01*
X0063193Y0063488D02*
X0066545Y0063488D01*
X0066523Y0063540D02*
X0066705Y0063100D01*
X0067711Y0062094D01*
X0069025Y0061550D01*
X0075597Y0061550D01*
X0076910Y0062094D01*
X0077916Y0063100D01*
X0078460Y0064414D01*
X0078460Y0065836D01*
X0077916Y0067150D01*
X0076910Y0068155D01*
X0075597Y0068700D01*
X0069025Y0068700D01*
X0067711Y0068155D01*
X0067355Y0067799D01*
X0062024Y0073130D01*
X0062024Y0074510D01*
X0062120Y0074414D01*
X0062440Y0074230D01*
X0062796Y0074134D01*
X0065336Y0074134D01*
X0065336Y0077103D01*
X0066136Y0077103D01*
X0066136Y0077903D01*
X0065336Y0077903D01*
X0065336Y0080871D01*
X0062796Y0080871D01*
X0062440Y0080776D01*
X0062120Y0080592D01*
X0061860Y0080331D01*
X0061675Y0080012D01*
X0061662Y0079963D01*
X0061135Y0080490D01*
X0059313Y0080490D01*
X0058024Y0079202D01*
X0058024Y0077379D01*
X0058424Y0076979D01*
X0058424Y0071639D01*
X0059479Y0070585D01*
X0066523Y0063540D01*
X0067116Y0062690D02*
X0063193Y0062690D01*
X0063193Y0061891D02*
X0068201Y0061891D01*
X0067974Y0058697D02*
X0062951Y0058697D01*
X0063193Y0059496D02*
X0078897Y0059496D01*
X0078897Y0060294D02*
X0063193Y0060294D01*
X0063193Y0061093D02*
X0078897Y0061093D01*
X0078897Y0061891D02*
X0076420Y0061891D01*
X0077506Y0062690D02*
X0078897Y0062690D01*
X0078897Y0063488D02*
X0078077Y0063488D01*
X0078408Y0064287D02*
X0078897Y0064287D01*
X0078897Y0065085D02*
X0078460Y0065085D01*
X0078441Y0065884D02*
X0078897Y0065884D01*
X0078897Y0066682D02*
X0078110Y0066682D01*
X0077585Y0067481D02*
X0078897Y0067481D01*
X0077334Y0068279D02*
X0076611Y0068279D01*
X0077334Y0069078D02*
X0066077Y0069078D01*
X0066875Y0068279D02*
X0068010Y0068279D01*
X0065278Y0069876D02*
X0077334Y0069876D01*
X0077334Y0070675D02*
X0064480Y0070675D01*
X0063681Y0071473D02*
X0077187Y0071473D01*
X0076934Y0072272D02*
X0062883Y0072272D01*
X0062084Y0073070D02*
X0076934Y0073070D01*
X0076934Y0073869D02*
X0062024Y0073869D01*
X0058424Y0073869D02*
X0040358Y0073869D01*
X0040358Y0073070D02*
X0058424Y0073070D01*
X0058424Y0072272D02*
X0040358Y0072272D01*
X0040358Y0071473D02*
X0058590Y0071473D01*
X0059388Y0070675D02*
X0040358Y0070675D01*
X0040358Y0069876D02*
X0060187Y0069876D01*
X0060985Y0069078D02*
X0040358Y0069078D01*
X0040358Y0068279D02*
X0061784Y0068279D01*
X0062582Y0067481D02*
X0040358Y0067481D01*
X0040025Y0074667D02*
X0058424Y0074667D01*
X0058424Y0075466D02*
X0037136Y0075466D01*
X0037068Y0075398D02*
X0037329Y0075659D01*
X0037513Y0075978D01*
X0037608Y0076334D01*
X0037608Y0079268D01*
X0033065Y0079268D01*
X0033065Y0075119D01*
X0036393Y0075119D01*
X0036749Y0075214D01*
X0037068Y0075398D01*
X0037590Y0076264D02*
X0058424Y0076264D01*
X0058340Y0077063D02*
X0037608Y0077063D01*
X0037608Y0077861D02*
X0058024Y0077861D01*
X0058024Y0078660D02*
X0049385Y0078660D01*
X0049273Y0078548D02*
X0049533Y0078809D01*
X0049718Y0079128D01*
X0049813Y0079484D01*
X0049813Y0081434D01*
X0046845Y0081434D01*
X0046845Y0078268D01*
X0048597Y0078268D01*
X0048953Y0078364D01*
X0049273Y0078548D01*
X0049806Y0079459D02*
X0058281Y0079459D01*
X0059080Y0080257D02*
X0049813Y0080257D01*
X0049813Y0081056D02*
X0070641Y0081056D01*
X0070641Y0081854D02*
X0046845Y0081854D01*
X0046845Y0081056D02*
X0046045Y0081056D01*
X0046045Y0081434D02*
X0046045Y0078268D01*
X0044292Y0078268D01*
X0043936Y0078364D01*
X0043616Y0078548D01*
X0043356Y0078809D01*
X0043171Y0079128D01*
X0043076Y0079484D01*
X0043076Y0081434D01*
X0046045Y0081434D01*
X0046045Y0081854D02*
X0037608Y0081854D01*
X0037908Y0082288D02*
X0038227Y0082104D01*
X0038583Y0082008D01*
X0040152Y0082008D01*
X0040152Y0084596D01*
X0037367Y0084596D01*
X0037367Y0083610D01*
X0037329Y0083677D01*
X0037068Y0083938D01*
X0036749Y0084122D01*
X0036393Y0084218D01*
X0033065Y0084218D01*
X0033065Y0080068D01*
X0037608Y0080068D01*
X0037608Y0082616D01*
X0037647Y0082549D01*
X0037908Y0082288D01*
X0037608Y0081056D02*
X0043076Y0081056D01*
X0043076Y0080257D02*
X0037608Y0080257D01*
X0037608Y0078660D02*
X0043504Y0078660D01*
X0043083Y0079459D02*
X0033065Y0079459D01*
X0033065Y0079268D02*
X0033065Y0080068D01*
X0032265Y0080068D01*
X0032265Y0079268D01*
X0033065Y0079268D01*
X0033065Y0078660D02*
X0032265Y0078660D01*
X0032265Y0079268D02*
X0032265Y0075119D01*
X0028937Y0075119D01*
X0028581Y0075214D01*
X0028262Y0075398D01*
X0028001Y0075659D01*
X0027817Y0075978D01*
X0027722Y0076334D01*
X0027722Y0079268D01*
X0032265Y0079268D01*
X0032265Y0079459D02*
X0026241Y0079459D01*
X0026241Y0080257D02*
X0027722Y0080257D01*
X0027722Y0080068D02*
X0032265Y0080068D01*
X0032265Y0084218D01*
X0028937Y0084218D01*
X0028581Y0084122D01*
X0028262Y0083938D01*
X0028001Y0083677D01*
X0027817Y0083358D01*
X0027722Y0083002D01*
X0027722Y0080068D01*
X0027722Y0081056D02*
X0026241Y0081056D01*
X0026241Y0081854D02*
X0027722Y0081854D01*
X0027722Y0082653D02*
X0026241Y0082653D01*
X0026241Y0083451D02*
X0027871Y0083451D01*
X0026241Y0084250D02*
X0037367Y0084250D01*
X0037367Y0085847D02*
X0026241Y0085847D01*
X0026241Y0086645D02*
X0028605Y0086645D01*
X0028122Y0087444D02*
X0026241Y0087444D01*
X0026241Y0088242D02*
X0028122Y0088242D01*
X0028122Y0089041D02*
X0026241Y0089041D01*
X0026241Y0089839D02*
X0028122Y0089839D01*
X0028122Y0090638D02*
X0026241Y0090638D01*
X0026241Y0091436D02*
X0028122Y0091436D01*
X0028122Y0092235D02*
X0026241Y0092235D01*
X0026241Y0093033D02*
X0028122Y0093033D01*
X0028122Y0093832D02*
X0026241Y0093832D01*
X0026241Y0094630D02*
X0028496Y0094630D01*
X0026241Y0095429D02*
X0034291Y0095429D01*
X0034402Y0096227D02*
X0026241Y0096227D01*
X0026241Y0097026D02*
X0030779Y0097026D01*
X0030779Y0097824D02*
X0026241Y0097824D01*
X0026241Y0098623D02*
X0030779Y0098623D01*
X0030779Y0099421D02*
X0026241Y0099421D01*
X0026241Y0100220D02*
X0030779Y0100220D01*
X0030779Y0101018D02*
X0026241Y0101018D01*
X0026241Y0101817D02*
X0030779Y0101817D01*
X0030871Y0102615D02*
X0026241Y0102615D01*
X0026241Y0103414D02*
X0034402Y0103414D01*
X0034402Y0104212D02*
X0026241Y0104212D01*
X0026241Y0105011D02*
X0034402Y0105011D01*
X0034435Y0105809D02*
X0026241Y0105809D01*
X0026241Y0106608D02*
X0034553Y0106608D01*
X0030779Y0107406D02*
X0026241Y0107406D01*
X0026241Y0108205D02*
X0030779Y0108205D01*
X0030779Y0109003D02*
X0026241Y0109003D01*
X0026241Y0109802D02*
X0030779Y0109802D01*
X0030779Y0110600D02*
X0026241Y0110600D01*
X0026241Y0111399D02*
X0030779Y0111399D01*
X0030779Y0112197D02*
X0026241Y0112197D01*
X0026241Y0112996D02*
X0031016Y0112996D01*
X0033411Y0113795D02*
X0026241Y0113795D01*
X0026241Y0114593D02*
X0034210Y0114593D01*
X0034945Y0110125D02*
X0036461Y0110125D01*
X0036461Y0109842D01*
X0034945Y0109842D01*
X0034945Y0110125D01*
X0052491Y0107406D02*
X0055891Y0107406D01*
X0055891Y0106608D02*
X0052491Y0106608D01*
X0052491Y0105809D02*
X0055891Y0105809D01*
X0056678Y0105011D02*
X0052491Y0105011D01*
X0053630Y0104212D02*
X0057476Y0104212D01*
X0058275Y0103414D02*
X0053744Y0103414D01*
X0053744Y0102615D02*
X0058830Y0102615D01*
X0058830Y0101817D02*
X0053744Y0101817D01*
X0053744Y0101018D02*
X0058830Y0101018D01*
X0058830Y0100220D02*
X0053744Y0100220D01*
X0053744Y0099421D02*
X0058830Y0099421D01*
X0058830Y0098623D02*
X0053744Y0098623D01*
X0053744Y0097824D02*
X0058830Y0097824D01*
X0058830Y0097026D02*
X0053744Y0097026D01*
X0053744Y0096227D02*
X0058830Y0096227D01*
X0058356Y0095429D02*
X0053744Y0095429D01*
X0053744Y0094630D02*
X0057558Y0094630D01*
X0056759Y0093832D02*
X0053744Y0093832D01*
X0055961Y0093033D02*
X0043311Y0093033D01*
X0043311Y0092235D02*
X0055162Y0092235D01*
X0059655Y0088242D02*
X0073594Y0088242D01*
X0073594Y0089041D02*
X0060453Y0089041D01*
X0061252Y0089839D02*
X0073705Y0089839D01*
X0071787Y0087444D02*
X0069414Y0087444D01*
X0069492Y0086645D02*
X0070989Y0086645D01*
X0070641Y0083451D02*
X0069492Y0083451D01*
X0069492Y0082653D02*
X0070641Y0082653D01*
X0070641Y0080257D02*
X0069655Y0080257D01*
X0069612Y0080331D02*
X0069351Y0080592D01*
X0069032Y0080776D01*
X0068676Y0080871D01*
X0066136Y0080871D01*
X0066136Y0077903D01*
X0069892Y0077903D01*
X0069892Y0079656D01*
X0069796Y0080012D01*
X0069612Y0080331D01*
X0069892Y0079459D02*
X0070641Y0079459D01*
X0070842Y0078660D02*
X0069892Y0078660D01*
X0069892Y0077103D02*
X0066136Y0077103D01*
X0066136Y0074134D01*
X0068676Y0074134D01*
X0069032Y0074230D01*
X0069351Y0074414D01*
X0069612Y0074675D01*
X0069796Y0074994D01*
X0069892Y0075350D01*
X0069892Y0077103D01*
X0069892Y0077063D02*
X0077334Y0077063D01*
X0077334Y0077861D02*
X0066136Y0077861D01*
X0066136Y0077063D02*
X0065336Y0077063D01*
X0065336Y0076264D02*
X0066136Y0076264D01*
X0066136Y0075466D02*
X0065336Y0075466D01*
X0065336Y0074667D02*
X0066136Y0074667D01*
X0069605Y0074667D02*
X0076943Y0074667D01*
X0077369Y0075466D02*
X0069892Y0075466D01*
X0069892Y0076264D02*
X0077334Y0076264D01*
X0080555Y0075026D02*
X0080555Y0073510D01*
X0080838Y0073510D01*
X0080838Y0075026D01*
X0080555Y0075026D01*
X0080555Y0074667D02*
X0080838Y0074667D01*
X0080838Y0073869D02*
X0080555Y0073869D01*
X0084459Y0073869D02*
X0085891Y0073869D01*
X0085891Y0073070D02*
X0084459Y0073070D01*
X0084459Y0072272D02*
X0085891Y0072272D01*
X0085891Y0071473D02*
X0084206Y0071473D01*
X0084059Y0070675D02*
X0085891Y0070675D01*
X0085891Y0069876D02*
X0084059Y0069876D01*
X0084059Y0069078D02*
X0085891Y0069078D01*
X0085891Y0068279D02*
X0084059Y0068279D01*
X0082497Y0067481D02*
X0086408Y0067481D01*
X0087206Y0066682D02*
X0082497Y0066682D01*
X0082497Y0065884D02*
X0086828Y0065884D01*
X0086791Y0065085D02*
X0082497Y0065085D01*
X0082497Y0064287D02*
X0086791Y0064287D01*
X0086251Y0063488D02*
X0086165Y0063488D01*
X0086165Y0062690D02*
X0086251Y0062690D01*
X0086251Y0061891D02*
X0086165Y0061891D01*
X0093520Y0064287D02*
X0095279Y0064287D01*
X0095388Y0064178D02*
X0095707Y0063994D01*
X0096063Y0063898D01*
X0097816Y0063898D01*
X0097816Y0067063D01*
X0094848Y0067063D01*
X0094848Y0065114D01*
X0094943Y0064758D01*
X0095127Y0064439D01*
X0095388Y0064178D01*
X0094855Y0065085D02*
X0093520Y0065085D01*
X0093520Y0065884D02*
X0094848Y0065884D01*
X0094848Y0066682D02*
X0093520Y0066682D01*
X0093520Y0067481D02*
X0097816Y0067481D01*
X0097816Y0068279D02*
X0098616Y0068279D01*
X0098616Y0067481D02*
X0101941Y0067481D01*
X0101941Y0068279D02*
X0101585Y0068279D01*
X0101585Y0069078D02*
X0101941Y0069078D01*
X0101941Y0069876D02*
X0101568Y0069876D01*
X0101119Y0070675D02*
X0104141Y0070675D01*
X0103342Y0071473D02*
X0096307Y0071473D01*
X0097106Y0072272D02*
X0098344Y0072272D01*
X0097591Y0073070D02*
X0097457Y0073070D01*
X0097457Y0073869D02*
X0097591Y0073869D01*
X0097591Y0074667D02*
X0097457Y0074667D01*
X0097457Y0075466D02*
X0098210Y0075466D01*
X0098491Y0076264D02*
X0097457Y0076264D01*
X0097457Y0077063D02*
X0098491Y0077063D01*
X0098491Y0077861D02*
X0097457Y0077861D01*
X0093857Y0079459D02*
X0090707Y0079459D01*
X0089908Y0080257D02*
X0093857Y0080257D01*
X0093299Y0081056D02*
X0089110Y0081056D01*
X0088311Y0081854D02*
X0092501Y0081854D01*
X0091702Y0082653D02*
X0087513Y0082653D01*
X0086714Y0083451D02*
X0090904Y0083451D01*
X0090105Y0084250D02*
X0085916Y0084250D01*
X0086224Y0085048D02*
X0089307Y0085048D01*
X0088508Y0085847D02*
X0086224Y0085847D01*
X0086224Y0086645D02*
X0087952Y0086645D01*
X0087952Y0087444D02*
X0086224Y0087444D01*
X0086224Y0088242D02*
X0087952Y0088242D01*
X0087952Y0089041D02*
X0086224Y0089041D01*
X0086113Y0089839D02*
X0087952Y0089839D01*
X0087654Y0090638D02*
X0062050Y0090638D01*
X0062849Y0091436D02*
X0086855Y0091436D01*
X0086057Y0092235D02*
X0063647Y0092235D01*
X0064446Y0093033D02*
X0085258Y0093033D01*
X0088753Y0094630D02*
X0092256Y0094630D01*
X0092256Y0093832D02*
X0089551Y0093832D01*
X0090350Y0093033D02*
X0092256Y0093033D01*
X0092256Y0092235D02*
X0091148Y0092235D01*
X0091552Y0091436D02*
X0092256Y0091436D01*
X0092256Y0090638D02*
X0091552Y0090638D01*
X0091552Y0089839D02*
X0092256Y0089839D01*
X0092256Y0089041D02*
X0091552Y0089041D01*
X0091552Y0088242D02*
X0092362Y0088242D01*
X0092002Y0087444D02*
X0096991Y0087444D01*
X0097171Y0086645D02*
X0092801Y0086645D01*
X0093599Y0085847D02*
X0097969Y0085847D01*
X0097643Y0084250D02*
X0095196Y0084250D01*
X0094398Y0085048D02*
X0126708Y0085048D01*
X0127507Y0084250D02*
X0121788Y0084250D01*
X0121777Y0084268D02*
X0121517Y0084529D01*
X0121198Y0084713D01*
X0120841Y0084808D01*
X0119089Y0084808D01*
X0119089Y0081643D01*
X0122057Y0081643D01*
X0122057Y0083593D01*
X0121962Y0083949D01*
X0121777Y0084268D01*
X0122057Y0083451D02*
X0128305Y0083451D01*
X0129104Y0082653D02*
X0122057Y0082653D01*
X0122057Y0081854D02*
X0129902Y0081854D01*
X0130484Y0081056D02*
X0119089Y0081056D01*
X0119089Y0080843D02*
X0119089Y0081643D01*
X0118289Y0081643D01*
X0118289Y0084808D01*
X0116536Y0084808D01*
X0116180Y0084713D01*
X0115861Y0084529D01*
X0115600Y0084268D01*
X0115416Y0083949D01*
X0115320Y0083593D01*
X0115320Y0081643D01*
X0118289Y0081643D01*
X0118289Y0080843D01*
X0119089Y0080843D01*
X0122057Y0080843D01*
X0122057Y0078893D01*
X0121962Y0078537D01*
X0121777Y0078218D01*
X0121517Y0077957D01*
X0121198Y0077773D01*
X0120841Y0077678D01*
X0119089Y0077678D01*
X0119089Y0080843D01*
X0119089Y0080257D02*
X0118289Y0080257D01*
X0118289Y0080843D02*
X0118289Y0077678D01*
X0116536Y0077678D01*
X0116180Y0077773D01*
X0115861Y0077957D01*
X0115600Y0078218D01*
X0115416Y0078537D01*
X0115320Y0078893D01*
X0115320Y0080843D01*
X0118289Y0080843D01*
X0118289Y0081056D02*
X0114964Y0081056D01*
X0114964Y0081854D02*
X0115320Y0081854D01*
X0115320Y0082653D02*
X0114964Y0082653D01*
X0114964Y0083451D02*
X0115320Y0083451D01*
X0115589Y0084250D02*
X0114537Y0084250D01*
X0118289Y0084250D02*
X0119089Y0084250D01*
X0119089Y0083451D02*
X0118289Y0083451D01*
X0118289Y0082653D02*
X0119089Y0082653D01*
X0119089Y0081854D02*
X0118289Y0081854D01*
X0115320Y0080257D02*
X0114964Y0080257D01*
X0114964Y0079459D02*
X0115320Y0079459D01*
X0115383Y0078660D02*
X0114961Y0078660D01*
X0116027Y0077861D02*
X0113091Y0077861D01*
X0113091Y0077063D02*
X0137749Y0077063D01*
X0137749Y0077861D02*
X0121351Y0077861D01*
X0121995Y0078660D02*
X0138191Y0078660D01*
X0139949Y0077306D02*
X0142704Y0077306D01*
X0142901Y0077503D01*
X0143721Y0075466D02*
X0141220Y0075466D01*
X0139971Y0074667D02*
X0156884Y0074667D01*
X0156086Y0073869D02*
X0139971Y0073869D01*
X0139971Y0073070D02*
X0141460Y0073070D01*
X0140701Y0072272D02*
X0139971Y0072272D01*
X0135427Y0072272D02*
X0134627Y0072272D01*
X0134627Y0073070D02*
X0135427Y0073070D01*
X0135427Y0073869D02*
X0134627Y0073869D01*
X0134627Y0074667D02*
X0135427Y0074667D01*
X0135427Y0075466D02*
X0134627Y0075466D01*
X0134627Y0076264D02*
X0135427Y0076264D01*
X0131004Y0076264D02*
X0113091Y0076264D01*
X0110491Y0076264D02*
X0101091Y0076264D01*
X0101091Y0077063D02*
X0110491Y0077063D01*
X0110491Y0077861D02*
X0101091Y0077861D01*
X0103150Y0078660D02*
X0103913Y0078660D01*
X0103909Y0079459D02*
X0103153Y0079459D01*
X0103153Y0080257D02*
X0103909Y0080257D01*
X0103909Y0081056D02*
X0103153Y0081056D01*
X0103153Y0081854D02*
X0103909Y0081854D01*
X0103909Y0082653D02*
X0103153Y0082653D01*
X0103153Y0083451D02*
X0103909Y0083451D01*
X0104336Y0084250D02*
X0102726Y0084250D01*
X0100413Y0085847D02*
X0125910Y0085847D01*
X0125111Y0086645D02*
X0101212Y0086645D01*
X0102304Y0087444D02*
X0103104Y0087444D01*
X0103104Y0088242D02*
X0102304Y0088242D01*
X0102304Y0089041D02*
X0103104Y0089041D01*
X0103104Y0089839D02*
X0102304Y0089839D01*
X0102304Y0090638D02*
X0103104Y0090638D01*
X0102304Y0091436D02*
X0098193Y0091436D01*
X0098193Y0090638D02*
X0099336Y0090638D01*
X0099336Y0091919D02*
X0102304Y0091919D01*
X0102304Y0095674D01*
X0100552Y0095674D01*
X0100196Y0095579D01*
X0099876Y0095395D01*
X0099616Y0095134D01*
X0099431Y0094815D01*
X0099336Y0094459D01*
X0099336Y0091919D01*
X0099336Y0092235D02*
X0098193Y0092235D01*
X0098193Y0093033D02*
X0099336Y0093033D01*
X0099336Y0093832D02*
X0098193Y0093832D01*
X0098193Y0094630D02*
X0099382Y0094630D01*
X0099935Y0095429D02*
X0087954Y0095429D01*
X0087156Y0096227D02*
X0106591Y0096227D01*
X0106591Y0095429D02*
X0105474Y0095429D01*
X0106591Y0097026D02*
X0101933Y0097026D01*
X0101933Y0097824D02*
X0107368Y0097824D01*
X0109263Y0098623D02*
X0101933Y0098623D01*
X0101933Y0099421D02*
X0109263Y0099421D01*
X0109263Y0100220D02*
X0101933Y0100220D01*
X0101933Y0101018D02*
X0109263Y0101018D01*
X0108472Y0101817D02*
X0101933Y0101817D01*
X0101933Y0102615D02*
X0107673Y0102615D01*
X0106875Y0103414D02*
X0101869Y0103414D01*
X0099891Y0104212D02*
X0106076Y0104212D01*
X0105278Y0105011D02*
X0099891Y0105011D01*
X0099891Y0105809D02*
X0104479Y0105809D01*
X0103681Y0106608D02*
X0099891Y0106608D01*
X0099891Y0107406D02*
X0102882Y0107406D01*
X0102691Y0108205D02*
X0099891Y0108205D01*
X0099891Y0109003D02*
X0102691Y0109003D01*
X0101304Y0109802D02*
X0100758Y0109802D01*
X0100781Y0110600D02*
X0101281Y0110600D01*
X0101281Y0111399D02*
X0100781Y0111399D01*
X0100781Y0112197D02*
X0101281Y0112197D01*
X0101281Y0112996D02*
X0100781Y0112996D01*
X0100781Y0113795D02*
X0101281Y0113795D01*
X0101281Y0114593D02*
X0100781Y0114593D01*
X0096281Y0114593D02*
X0095781Y0114593D01*
X0095781Y0113795D02*
X0096281Y0113795D01*
X0096281Y0112996D02*
X0095781Y0112996D01*
X0095781Y0112197D02*
X0096281Y0112197D01*
X0096281Y0111399D02*
X0095781Y0111399D01*
X0095781Y0110600D02*
X0096281Y0110600D01*
X0096304Y0109802D02*
X0095758Y0109802D01*
X0095731Y0109003D02*
X0097291Y0109003D01*
X0097291Y0108205D02*
X0095731Y0108205D01*
X0095731Y0107406D02*
X0097291Y0107406D01*
X0097291Y0106608D02*
X0095731Y0106608D01*
X0095731Y0105809D02*
X0097291Y0105809D01*
X0097291Y0105011D02*
X0094977Y0105011D01*
X0094179Y0104212D02*
X0097291Y0104212D01*
X0096059Y0103414D02*
X0093380Y0103414D01*
X0092582Y0102615D02*
X0095996Y0102615D01*
X0095996Y0101817D02*
X0091783Y0101817D01*
X0090985Y0101018D02*
X0095996Y0101018D01*
X0095996Y0100220D02*
X0084649Y0100220D01*
X0084649Y0099421D02*
X0095996Y0099421D01*
X0095996Y0098623D02*
X0078285Y0098623D01*
X0075388Y0098623D02*
X0074588Y0098623D01*
X0074588Y0098268D02*
X0072441Y0098268D01*
X0072085Y0098364D01*
X0071766Y0098548D01*
X0071505Y0098809D01*
X0071321Y0099128D01*
X0071226Y0099484D01*
X0071226Y0102103D01*
X0074588Y0102103D01*
X0074588Y0098268D01*
X0074588Y0099421D02*
X0075388Y0099421D01*
X0075388Y0100220D02*
X0074588Y0100220D01*
X0074588Y0101018D02*
X0075388Y0101018D01*
X0075388Y0101817D02*
X0074588Y0101817D01*
X0074588Y0102615D02*
X0070279Y0102615D01*
X0070279Y0101817D02*
X0071226Y0101817D01*
X0071226Y0101018D02*
X0070279Y0101018D01*
X0070279Y0100220D02*
X0071226Y0100220D01*
X0071242Y0099421D02*
X0070279Y0099421D01*
X0070279Y0098623D02*
X0071691Y0098623D01*
X0070279Y0097824D02*
X0095996Y0097824D01*
X0095996Y0097026D02*
X0070279Y0097026D01*
X0079420Y0089839D02*
X0080398Y0089839D01*
X0080287Y0089041D02*
X0079531Y0089041D01*
X0079531Y0088242D02*
X0080287Y0088242D01*
X0080287Y0087444D02*
X0079531Y0087444D01*
X0079531Y0086645D02*
X0080287Y0086645D01*
X0080287Y0085847D02*
X0079531Y0085847D01*
X0079531Y0085048D02*
X0080287Y0085048D01*
X0080606Y0084250D02*
X0079212Y0084250D01*
X0078153Y0083451D02*
X0083037Y0083451D01*
X0083836Y0082653D02*
X0078153Y0082653D01*
X0078153Y0081854D02*
X0084634Y0081854D01*
X0085433Y0081056D02*
X0078153Y0081056D01*
X0078153Y0080257D02*
X0086231Y0080257D01*
X0087030Y0079459D02*
X0078153Y0079459D01*
X0084005Y0078660D02*
X0087625Y0078660D01*
X0087571Y0077861D02*
X0084059Y0077861D01*
X0084059Y0077063D02*
X0087571Y0077063D01*
X0087571Y0076264D02*
X0084059Y0076264D01*
X0084024Y0075466D02*
X0087483Y0075466D01*
X0086684Y0074667D02*
X0084450Y0074667D01*
X0094295Y0069078D02*
X0094848Y0069078D01*
X0094865Y0069876D02*
X0094710Y0069876D01*
X0094848Y0068279D02*
X0094295Y0068279D01*
X0097816Y0069078D02*
X0098616Y0069078D01*
X0098616Y0069876D02*
X0097816Y0069876D01*
X0097816Y0070675D02*
X0098616Y0070675D01*
X0101238Y0072272D02*
X0102991Y0072272D01*
X0102991Y0073070D02*
X0101991Y0073070D01*
X0101991Y0073869D02*
X0103213Y0073869D01*
X0104011Y0074667D02*
X0101991Y0074667D01*
X0101372Y0075466D02*
X0108742Y0075466D01*
X0108634Y0074667D02*
X0106371Y0074667D01*
X0106241Y0070675D02*
X0108634Y0070675D01*
X0108501Y0069876D02*
X0107878Y0069876D01*
X0107878Y0069078D02*
X0108234Y0069078D01*
X0101941Y0066682D02*
X0101585Y0066682D01*
X0101585Y0065884D02*
X0101941Y0065884D01*
X0101941Y0065085D02*
X0101577Y0065085D01*
X0101153Y0064287D02*
X0104602Y0064287D01*
X0098616Y0064287D02*
X0097816Y0064287D01*
X0097816Y0065085D02*
X0098616Y0065085D01*
X0098616Y0065884D02*
X0097816Y0065884D01*
X0097816Y0066682D02*
X0098616Y0066682D01*
X0112996Y0062690D02*
X0114336Y0062690D01*
X0112996Y0061891D02*
X0117501Y0061891D01*
X0117501Y0061093D02*
X0118301Y0061093D01*
X0118301Y0060294D02*
X0117501Y0060294D01*
X0117501Y0059496D02*
X0118301Y0059496D01*
X0118262Y0058697D02*
X0117501Y0058697D01*
X0117462Y0057899D02*
X0118262Y0057899D01*
X0118262Y0057100D02*
X0117462Y0057100D01*
X0117462Y0056302D02*
X0118262Y0056302D01*
X0118262Y0055503D02*
X0121586Y0055503D01*
X0121230Y0055174D02*
X0118262Y0055174D01*
X0118262Y0052008D01*
X0120015Y0052008D01*
X0120371Y0052104D01*
X0120690Y0052288D01*
X0120951Y0052549D01*
X0121135Y0052868D01*
X0121230Y0053224D01*
X0121230Y0055174D01*
X0121230Y0054705D02*
X0121586Y0054705D01*
X0121586Y0053906D02*
X0121230Y0053906D01*
X0121199Y0053108D02*
X0121586Y0053108D01*
X0120711Y0052309D02*
X0122789Y0052309D01*
X0127580Y0052309D02*
X0130326Y0052309D01*
X0131124Y0053108D02*
X0127523Y0053108D01*
X0127523Y0053906D02*
X0131923Y0053906D01*
X0134003Y0052309D02*
X0135179Y0052309D01*
X0135978Y0051511D02*
X0133204Y0051511D01*
X0132406Y0050712D02*
X0136776Y0050712D01*
X0137575Y0049914D02*
X0131607Y0049914D01*
X0130809Y0049115D02*
X0170932Y0049115D01*
X0171730Y0049914D02*
X0161607Y0049914D01*
X0162406Y0050712D02*
X0172529Y0050712D01*
X0172505Y0051511D02*
X0163204Y0051511D01*
X0164003Y0052309D02*
X0171707Y0052309D01*
X0171391Y0053108D02*
X0164801Y0053108D01*
X0165600Y0053906D02*
X0171391Y0053906D01*
X0171175Y0054705D02*
X0169746Y0054705D01*
X0170082Y0055503D02*
X0170838Y0055503D01*
X0170838Y0056302D02*
X0170082Y0056302D01*
X0170082Y0057100D02*
X0170838Y0057100D01*
X0170838Y0057899D02*
X0170082Y0057899D01*
X0170082Y0058697D02*
X0170838Y0058697D01*
X0170838Y0059496D02*
X0170082Y0059496D01*
X0169989Y0060294D02*
X0170932Y0060294D01*
X0171117Y0062690D02*
X0177531Y0062690D01*
X0177531Y0063488D02*
X0177348Y0063488D01*
X0180500Y0065101D02*
X0180500Y0058015D01*
X0180893Y0057621D01*
X0183862Y0057100D02*
X0184218Y0057100D01*
X0184218Y0056302D02*
X0183862Y0056302D01*
X0183862Y0055503D02*
X0184218Y0055503D01*
X0184435Y0054705D02*
X0183525Y0054705D01*
X0187186Y0054705D02*
X0187986Y0054705D01*
X0187986Y0055503D02*
X0187186Y0055503D01*
X0187186Y0056302D02*
X0187986Y0056302D01*
X0187986Y0057100D02*
X0187186Y0057100D01*
X0179100Y0061093D02*
X0155836Y0061093D01*
X0155843Y0061091D02*
X0155487Y0061186D01*
X0153734Y0061186D01*
X0153734Y0058021D01*
X0156703Y0058021D01*
X0156703Y0059971D01*
X0156607Y0060327D01*
X0156423Y0060646D01*
X0156162Y0060907D01*
X0155843Y0061091D01*
X0156616Y0060294D02*
X0157152Y0060294D01*
X0157059Y0059496D02*
X0156703Y0059496D01*
X0156703Y0058697D02*
X0157059Y0058697D01*
X0157059Y0057899D02*
X0153734Y0057899D01*
X0153734Y0058697D02*
X0152934Y0058697D01*
X0152934Y0059496D02*
X0153734Y0059496D01*
X0153734Y0060294D02*
X0152934Y0060294D01*
X0152986Y0061093D02*
X0153734Y0061093D01*
X0158035Y0061891D02*
X0177571Y0061891D01*
X0178019Y0060294D02*
X0176682Y0060294D01*
X0176775Y0059496D02*
X0177925Y0059496D01*
X0177925Y0058697D02*
X0176775Y0058697D01*
X0176775Y0057899D02*
X0177925Y0057899D01*
X0177925Y0057100D02*
X0176775Y0057100D01*
X0176775Y0056302D02*
X0177925Y0056302D01*
X0177320Y0055503D02*
X0176775Y0055503D01*
X0176521Y0054705D02*
X0176439Y0054705D01*
X0170133Y0048317D02*
X0129818Y0048317D01*
X0128153Y0047518D02*
X0169335Y0047518D01*
X0168536Y0046720D02*
X0128153Y0046720D01*
X0127715Y0045921D02*
X0167738Y0045921D01*
X0166939Y0045123D02*
X0128470Y0045123D01*
X0129485Y0051511D02*
X0129527Y0051511D01*
X0129049Y0054705D02*
X0127523Y0054705D01*
X0127523Y0055503D02*
X0128712Y0055503D01*
X0128712Y0056302D02*
X0127523Y0056302D01*
X0127523Y0057100D02*
X0128712Y0057100D01*
X0128712Y0057899D02*
X0127523Y0057899D01*
X0127282Y0058697D02*
X0128712Y0058697D01*
X0128712Y0059496D02*
X0127760Y0059496D01*
X0121907Y0058697D02*
X0121154Y0058697D01*
X0121230Y0057899D02*
X0121586Y0057899D01*
X0121586Y0057100D02*
X0121230Y0057100D01*
X0121230Y0056302D02*
X0121586Y0056302D01*
X0118262Y0054705D02*
X0117462Y0054705D01*
X0117462Y0055503D02*
X0112996Y0055503D01*
X0112996Y0054705D02*
X0114493Y0054705D01*
X0114493Y0053906D02*
X0112996Y0053906D01*
X0112996Y0053108D02*
X0114525Y0053108D01*
X0115013Y0052309D02*
X0112823Y0052309D01*
X0117462Y0052309D02*
X0118262Y0052309D01*
X0118262Y0053108D02*
X0117462Y0053108D01*
X0117462Y0053906D02*
X0118262Y0053906D01*
X0114493Y0056302D02*
X0112996Y0056302D01*
X0113061Y0057100D02*
X0114493Y0057100D01*
X0114493Y0057899D02*
X0113396Y0057899D01*
X0113396Y0058697D02*
X0114648Y0058697D01*
X0114336Y0059496D02*
X0113396Y0059496D01*
X0113309Y0060294D02*
X0114336Y0060294D01*
X0114336Y0061093D02*
X0112996Y0061093D01*
X0117501Y0062690D02*
X0118301Y0062690D01*
X0118301Y0063488D02*
X0117501Y0063488D01*
X0117501Y0064287D02*
X0118301Y0064287D01*
X0134627Y0068279D02*
X0135427Y0068279D01*
X0135427Y0067481D02*
X0135085Y0067481D01*
X0135883Y0066682D02*
X0135982Y0066682D01*
X0138374Y0064904D02*
X0139949Y0066479D01*
X0138374Y0064904D02*
X0138374Y0063526D01*
X0143691Y0061716D02*
X0144062Y0061345D01*
X0144892Y0061345D01*
X0144638Y0061091D01*
X0144638Y0059269D01*
X0144884Y0059023D01*
X0143458Y0055884D01*
X0142974Y0055884D01*
X0141686Y0054595D01*
X0141686Y0052773D01*
X0142022Y0052436D01*
X0138730Y0052436D01*
X0136710Y0054456D01*
X0140756Y0054456D01*
X0141342Y0055041D01*
X0141342Y0058449D01*
X0142930Y0060036D01*
X0143691Y0060797D01*
X0143691Y0061716D01*
X0143691Y0061093D02*
X0144640Y0061093D01*
X0144638Y0060294D02*
X0143188Y0060294D01*
X0142389Y0059496D02*
X0144638Y0059496D01*
X0144736Y0058697D02*
X0141591Y0058697D01*
X0141342Y0057899D02*
X0144373Y0057899D01*
X0144010Y0057100D02*
X0141342Y0057100D01*
X0141342Y0056302D02*
X0143647Y0056302D01*
X0142593Y0055503D02*
X0141342Y0055503D01*
X0141005Y0054705D02*
X0141795Y0054705D01*
X0141686Y0053906D02*
X0137259Y0053906D01*
X0138058Y0053108D02*
X0141686Y0053108D01*
X0152391Y0053108D02*
X0158191Y0053108D01*
X0158191Y0053906D02*
X0152391Y0053906D01*
X0152934Y0054705D02*
X0153734Y0054705D01*
X0153734Y0055503D02*
X0152934Y0055503D01*
X0152934Y0056302D02*
X0153734Y0056302D01*
X0153734Y0057100D02*
X0152934Y0057100D01*
X0156703Y0057100D02*
X0157059Y0057100D01*
X0157059Y0056302D02*
X0156703Y0056302D01*
X0156703Y0055503D02*
X0157059Y0055503D01*
X0157395Y0054705D02*
X0156486Y0054705D01*
X0162659Y0054705D02*
X0162721Y0054705D01*
X0162996Y0055503D02*
X0163520Y0055503D01*
X0162996Y0056302D02*
X0164145Y0056302D01*
X0164145Y0057100D02*
X0162996Y0057100D01*
X0162996Y0057899D02*
X0164145Y0057899D01*
X0164145Y0058697D02*
X0162996Y0058697D01*
X0162996Y0059496D02*
X0164145Y0059496D01*
X0164239Y0060294D02*
X0162902Y0060294D01*
X0163951Y0062690D02*
X0164686Y0062690D01*
X0164533Y0063488D02*
X0164177Y0063488D01*
X0164177Y0064287D02*
X0164533Y0064287D01*
X0164533Y0065085D02*
X0164177Y0065085D01*
X0164177Y0065884D02*
X0167501Y0065884D01*
X0167501Y0065085D02*
X0168301Y0065085D01*
X0168301Y0064287D02*
X0167501Y0064287D01*
X0167501Y0063488D02*
X0168301Y0063488D01*
X0168301Y0062690D02*
X0167501Y0062690D01*
X0171270Y0063488D02*
X0171447Y0063488D01*
X0164533Y0066682D02*
X0164177Y0066682D01*
X0164177Y0067481D02*
X0164533Y0067481D01*
X0164674Y0068279D02*
X0163972Y0068279D01*
X0164177Y0069078D02*
X0164933Y0069078D01*
X0164933Y0069876D02*
X0164177Y0069876D01*
X0164177Y0070675D02*
X0164933Y0070675D01*
X0164933Y0071473D02*
X0164177Y0071473D01*
X0164177Y0072272D02*
X0164933Y0072272D01*
X0164218Y0073070D02*
X0164177Y0073070D01*
X0166298Y0074667D02*
X0171232Y0074667D01*
X0171232Y0075161D02*
X0171232Y0074036D01*
X0170814Y0074036D01*
X0170284Y0074566D01*
X0166400Y0074566D01*
X0165130Y0075836D01*
X0158074Y0075836D01*
X0158074Y0076236D01*
X0158699Y0076236D01*
X0158826Y0076109D01*
X0163591Y0076109D01*
X0164177Y0076695D01*
X0164177Y0078885D01*
X0164966Y0079674D01*
X0167501Y0079674D01*
X0167501Y0078875D01*
X0164533Y0078875D01*
X0164533Y0076925D01*
X0164628Y0076569D01*
X0164813Y0076250D01*
X0165073Y0075989D01*
X0165392Y0075805D01*
X0165748Y0075709D01*
X0167501Y0075709D01*
X0167501Y0078874D01*
X0168301Y0078874D01*
X0168301Y0075709D01*
X0170054Y0075709D01*
X0170410Y0075805D01*
X0170729Y0075989D01*
X0170990Y0076250D01*
X0171174Y0076569D01*
X0171270Y0076925D01*
X0171270Y0077445D01*
X0171818Y0076897D01*
X0176977Y0076897D01*
X0177563Y0077482D01*
X0177563Y0078636D01*
X0181271Y0078636D01*
X0181271Y0077679D01*
X0181645Y0077306D01*
X0181271Y0076933D01*
X0181271Y0074455D01*
X0180691Y0073874D01*
X0177563Y0070746D01*
X0177563Y0075161D01*
X0176977Y0075747D01*
X0171818Y0075747D01*
X0171232Y0075161D01*
X0171537Y0075466D02*
X0165499Y0075466D01*
X0164804Y0076264D02*
X0163746Y0076264D01*
X0164177Y0077063D02*
X0164533Y0077063D01*
X0164533Y0077861D02*
X0164177Y0077861D01*
X0164177Y0078660D02*
X0164533Y0078660D01*
X0164750Y0079459D02*
X0167501Y0079459D01*
X0167501Y0078660D02*
X0168301Y0078660D01*
X0168301Y0077861D02*
X0167501Y0077861D01*
X0167501Y0077063D02*
X0168301Y0077063D01*
X0168301Y0076264D02*
X0167501Y0076264D01*
X0170999Y0076264D02*
X0181271Y0076264D01*
X0181271Y0075466D02*
X0177258Y0075466D01*
X0177563Y0074667D02*
X0181271Y0074667D01*
X0180686Y0073869D02*
X0177563Y0073869D01*
X0177563Y0073070D02*
X0179887Y0073070D01*
X0179089Y0072272D02*
X0177563Y0072272D01*
X0177563Y0071473D02*
X0178290Y0071473D01*
X0181168Y0070675D02*
X0181271Y0070675D01*
X0181402Y0077063D02*
X0177143Y0077063D01*
X0177563Y0077861D02*
X0181271Y0077861D01*
X0181271Y0081854D02*
X0177563Y0081854D01*
X0177158Y0082653D02*
X0181271Y0082653D01*
X0190455Y0085847D02*
X0194082Y0085847D01*
X0194082Y0086645D02*
X0190949Y0086645D01*
X0190949Y0087444D02*
X0194082Y0087444D01*
X0194082Y0088242D02*
X0190949Y0088242D01*
X0190949Y0089041D02*
X0194082Y0089041D01*
X0194082Y0089839D02*
X0190949Y0089839D01*
X0190949Y0090638D02*
X0194082Y0090638D01*
X0194082Y0091436D02*
X0190949Y0091436D01*
X0190949Y0092235D02*
X0194082Y0092235D01*
X0194082Y0093033D02*
X0190596Y0093033D01*
X0166901Y0096227D02*
X0166145Y0096227D01*
X0166145Y0095429D02*
X0166245Y0095429D01*
X0166145Y0097026D02*
X0166901Y0097026D01*
X0166901Y0097824D02*
X0166145Y0097824D01*
X0166145Y0098623D02*
X0166901Y0098623D01*
X0166901Y0099421D02*
X0166145Y0099421D01*
X0155090Y0099421D02*
X0154334Y0099421D01*
X0154334Y0098623D02*
X0155090Y0098623D01*
X0155090Y0097824D02*
X0154334Y0097824D01*
X0154334Y0097026D02*
X0155090Y0097026D01*
X0155090Y0096227D02*
X0154334Y0096227D01*
X0154334Y0095429D02*
X0154845Y0095429D01*
X0148397Y0099421D02*
X0148217Y0099421D01*
X0164555Y0089117D02*
X0164555Y0081243D01*
X0162586Y0079275D01*
X0161208Y0079275D01*
X0171270Y0077063D02*
X0171651Y0077063D01*
X0135427Y0069876D02*
X0134627Y0069876D01*
X0134627Y0069078D02*
X0135427Y0069078D01*
X0119089Y0077861D02*
X0118289Y0077861D01*
X0118289Y0078660D02*
X0119089Y0078660D01*
X0119089Y0079459D02*
X0118289Y0079459D01*
X0122057Y0079459D02*
X0130484Y0079459D01*
X0130484Y0080257D02*
X0122057Y0080257D01*
X0118481Y0087458D02*
X0118125Y0087363D01*
X0116372Y0087363D01*
X0116372Y0091119D01*
X0116372Y0091919D01*
X0115572Y0091919D01*
X0115572Y0095674D01*
X0113819Y0095674D01*
X0113463Y0095579D01*
X0113144Y0095395D01*
X0112883Y0095134D01*
X0112699Y0094815D01*
X0112604Y0094459D01*
X0112604Y0091919D01*
X0115572Y0091919D01*
X0115572Y0091119D01*
X0112604Y0091119D01*
X0112604Y0088578D01*
X0112699Y0088222D01*
X0112883Y0087903D01*
X0113144Y0087642D01*
X0113463Y0087458D01*
X0113819Y0087363D01*
X0115572Y0087363D01*
X0115572Y0091119D01*
X0116372Y0091119D01*
X0119341Y0091119D01*
X0119341Y0088578D01*
X0119245Y0088222D01*
X0119061Y0087903D01*
X0118800Y0087642D01*
X0118481Y0087458D01*
X0118427Y0087444D02*
X0124313Y0087444D01*
X0123514Y0088242D02*
X0119251Y0088242D01*
X0119341Y0089041D02*
X0123385Y0089041D01*
X0123385Y0089839D02*
X0119341Y0089839D01*
X0119341Y0090638D02*
X0123385Y0090638D01*
X0123385Y0091436D02*
X0116372Y0091436D01*
X0116372Y0091919D02*
X0119341Y0091919D01*
X0119341Y0094459D01*
X0119245Y0094815D01*
X0119061Y0095134D01*
X0118800Y0095395D01*
X0118481Y0095579D01*
X0118125Y0095674D01*
X0116372Y0095674D01*
X0116372Y0091919D01*
X0116372Y0092235D02*
X0115572Y0092235D01*
X0115572Y0093033D02*
X0116372Y0093033D01*
X0116372Y0093832D02*
X0115572Y0093832D01*
X0115572Y0094630D02*
X0116372Y0094630D01*
X0116372Y0095429D02*
X0115572Y0095429D01*
X0115200Y0097026D02*
X0122408Y0097026D01*
X0123206Y0096227D02*
X0110991Y0096227D01*
X0110991Y0095429D02*
X0113203Y0095429D01*
X0112650Y0094630D02*
X0111460Y0094630D01*
X0111460Y0093832D02*
X0112604Y0093832D01*
X0112604Y0093033D02*
X0111460Y0093033D01*
X0111460Y0092235D02*
X0112604Y0092235D01*
X0111460Y0091436D02*
X0115572Y0091436D01*
X0115572Y0090638D02*
X0116372Y0090638D01*
X0116372Y0089839D02*
X0115572Y0089839D01*
X0115572Y0089041D02*
X0116372Y0089041D01*
X0116372Y0088242D02*
X0115572Y0088242D01*
X0115572Y0087444D02*
X0116372Y0087444D01*
X0113517Y0087444D02*
X0105159Y0087444D01*
X0111354Y0088242D02*
X0112694Y0088242D01*
X0112604Y0089041D02*
X0111460Y0089041D01*
X0111460Y0089839D02*
X0112604Y0089839D01*
X0112604Y0090638D02*
X0111460Y0090638D01*
X0103104Y0092235D02*
X0102304Y0092235D01*
X0102304Y0093033D02*
X0103104Y0093033D01*
X0103104Y0093832D02*
X0102304Y0093832D01*
X0102304Y0094630D02*
X0103104Y0094630D01*
X0103104Y0095429D02*
X0102304Y0095429D01*
X0115200Y0097824D02*
X0121609Y0097824D01*
X0120811Y0098623D02*
X0115200Y0098623D01*
X0115200Y0099421D02*
X0120012Y0099421D01*
X0119214Y0100220D02*
X0115200Y0100220D01*
X0115200Y0101018D02*
X0118415Y0101018D01*
X0117617Y0101817D02*
X0115200Y0101817D01*
X0115200Y0102615D02*
X0116818Y0102615D01*
X0118741Y0095429D02*
X0123385Y0095429D01*
X0123385Y0094630D02*
X0119295Y0094630D01*
X0119341Y0093832D02*
X0123385Y0093832D01*
X0123385Y0093033D02*
X0119341Y0093033D01*
X0119341Y0092235D02*
X0123385Y0092235D01*
X0109454Y0084250D02*
X0109419Y0084250D01*
X0097216Y0083451D02*
X0095995Y0083451D01*
X0096793Y0082653D02*
X0097216Y0082653D01*
X0066136Y0080257D02*
X0065336Y0080257D01*
X0065336Y0079459D02*
X0066136Y0079459D01*
X0066136Y0078660D02*
X0065336Y0078660D01*
X0061817Y0080257D02*
X0061369Y0080257D01*
X0061980Y0082653D02*
X0049813Y0082653D01*
X0049813Y0083451D02*
X0061980Y0083451D01*
X0061980Y0084250D02*
X0049795Y0084250D01*
X0049344Y0085048D02*
X0061980Y0085048D01*
X0061980Y0085847D02*
X0049313Y0085847D01*
X0044151Y0085361D02*
X0043936Y0085303D01*
X0043616Y0085119D01*
X0043356Y0084859D01*
X0043204Y0084596D01*
X0040927Y0084596D01*
X0040927Y0085371D01*
X0043711Y0085371D01*
X0043711Y0085712D01*
X0044062Y0085361D01*
X0044151Y0085361D01*
X0043545Y0085048D02*
X0040927Y0085048D01*
X0040152Y0085048D02*
X0026241Y0085048D01*
X0032265Y0083451D02*
X0033065Y0083451D01*
X0033065Y0082653D02*
X0032265Y0082653D01*
X0032265Y0081854D02*
X0033065Y0081854D01*
X0033065Y0081056D02*
X0032265Y0081056D01*
X0032265Y0080257D02*
X0033065Y0080257D01*
X0033065Y0077861D02*
X0032265Y0077861D01*
X0032265Y0077063D02*
X0033065Y0077063D01*
X0033065Y0076264D02*
X0032265Y0076264D01*
X0032265Y0075466D02*
X0033065Y0075466D01*
X0028195Y0075466D02*
X0026241Y0075466D01*
X0026241Y0076264D02*
X0027740Y0076264D01*
X0027722Y0077063D02*
X0026241Y0077063D01*
X0026241Y0077861D02*
X0027722Y0077861D01*
X0027722Y0078660D02*
X0026241Y0078660D01*
X0040152Y0082653D02*
X0040926Y0082653D01*
X0040926Y0083451D02*
X0040152Y0083451D01*
X0040152Y0084250D02*
X0040926Y0084250D01*
X0040926Y0085847D02*
X0040152Y0085847D01*
X0040152Y0086645D02*
X0040926Y0086645D01*
X0040926Y0087444D02*
X0040152Y0087444D01*
X0037673Y0087444D02*
X0037208Y0087444D01*
X0037208Y0088242D02*
X0043445Y0088242D01*
X0043445Y0089041D02*
X0037208Y0089041D01*
X0037208Y0089839D02*
X0043476Y0089839D01*
X0043476Y0090638D02*
X0037208Y0090638D01*
X0037208Y0091436D02*
X0037767Y0091436D01*
X0037767Y0092235D02*
X0037319Y0092235D01*
X0043311Y0091436D02*
X0043806Y0091436D01*
X0043476Y0087444D02*
X0043405Y0087444D01*
X0037367Y0086645D02*
X0036725Y0086645D01*
X0046045Y0080257D02*
X0046845Y0080257D01*
X0046845Y0079459D02*
X0046045Y0079459D01*
X0046045Y0078660D02*
X0046845Y0078660D01*
X0058058Y0086645D02*
X0061980Y0086645D01*
X0062058Y0087444D02*
X0058856Y0087444D01*
X0070279Y0103414D02*
X0071226Y0103414D01*
X0071226Y0104212D02*
X0070165Y0104212D01*
X0071226Y0105011D02*
X0061513Y0105011D01*
X0062311Y0105809D02*
X0071303Y0105809D01*
X0072026Y0106608D02*
X0062424Y0106608D01*
X0062424Y0107406D02*
X0071741Y0107406D01*
X0071232Y0108205D02*
X0070490Y0108205D01*
X0066100Y0108205D02*
X0062222Y0108205D01*
X0062602Y0109003D02*
X0062817Y0109003D01*
X0055891Y0109003D02*
X0054925Y0109003D01*
X0054925Y0109802D02*
X0055891Y0109802D01*
X0055888Y0110600D02*
X0054925Y0110600D01*
X0054925Y0111399D02*
X0055090Y0111399D01*
X0057169Y0112996D02*
X0057492Y0112996D01*
X0056371Y0113795D02*
X0071232Y0113795D01*
X0071232Y0112996D02*
X0070830Y0112996D01*
X0071412Y0114593D02*
X0055572Y0114593D01*
X0062562Y0112996D02*
X0065760Y0112996D01*
X0055891Y0108205D02*
X0054742Y0108205D01*
X0074588Y0106608D02*
X0075388Y0106608D01*
X0075388Y0105809D02*
X0074588Y0105809D01*
X0074588Y0105011D02*
X0075388Y0105011D01*
X0075388Y0104212D02*
X0074588Y0104212D01*
X0074588Y0103414D02*
X0075388Y0103414D01*
X0078673Y0105809D02*
X0078770Y0105809D01*
X0077950Y0106608D02*
X0090352Y0106608D01*
X0091150Y0107406D02*
X0084140Y0107406D01*
X0084649Y0108205D02*
X0091331Y0108205D01*
X0091331Y0109003D02*
X0087907Y0109003D01*
X0090758Y0109802D02*
X0091304Y0109802D01*
X0091281Y0110600D02*
X0090781Y0110600D01*
X0090781Y0111399D02*
X0091281Y0111399D01*
X0091281Y0112197D02*
X0090781Y0112197D01*
X0090781Y0112996D02*
X0091281Y0112996D01*
X0091281Y0113795D02*
X0090781Y0113795D01*
X0090781Y0114593D02*
X0091281Y0114593D01*
X0086281Y0114593D02*
X0084469Y0114593D01*
X0084649Y0113795D02*
X0086281Y0113795D01*
X0078892Y0114593D02*
X0076989Y0114593D01*
X0077169Y0113795D02*
X0078712Y0113795D01*
X0078712Y0112996D02*
X0077169Y0112996D01*
X0077169Y0112197D02*
X0078712Y0112197D01*
X0078712Y0111399D02*
X0077169Y0111399D01*
X0077169Y0110600D02*
X0078712Y0110600D01*
X0078712Y0109802D02*
X0077169Y0109802D01*
X0077169Y0109003D02*
X0078712Y0109003D01*
X0078712Y0108205D02*
X0077169Y0108205D01*
X0076660Y0107406D02*
X0079221Y0107406D01*
X0084592Y0105809D02*
X0089553Y0105809D01*
X0088755Y0105011D02*
X0084649Y0105011D01*
X0130438Y0110600D02*
X0170617Y0110600D01*
X0078897Y0058697D02*
X0076648Y0058697D01*
X0077733Y0057899D02*
X0078897Y0057899D01*
X0078897Y0057100D02*
X0078346Y0057100D01*
X0078700Y0056302D02*
X0078897Y0056302D01*
X0072698Y0056302D02*
X0071923Y0056302D01*
X0071923Y0057100D02*
X0072698Y0057100D01*
X0072698Y0057899D02*
X0071923Y0057899D01*
X0071923Y0058697D02*
X0072698Y0058697D01*
X0072698Y0054705D02*
X0071923Y0054705D01*
X0071923Y0053906D02*
X0072698Y0053906D01*
X0072698Y0053108D02*
X0071923Y0053108D01*
X0071923Y0052309D02*
X0072698Y0052309D01*
X0072698Y0051511D02*
X0071923Y0051511D01*
X0066303Y0053108D02*
X0053538Y0053108D01*
X0053537Y0053906D02*
X0052738Y0053906D01*
X0052738Y0054705D02*
X0053537Y0054705D01*
X0053537Y0055503D02*
X0052738Y0055503D01*
X0052738Y0056302D02*
X0053537Y0056302D01*
X0053537Y0052309D02*
X0052738Y0052309D01*
X0052738Y0051511D02*
X0053537Y0051511D01*
X0053537Y0050712D02*
X0052738Y0050712D01*
X0063287Y0056302D02*
X0065921Y0056302D01*
X0066275Y0057100D02*
X0045098Y0057100D01*
X0045897Y0057899D02*
X0066889Y0057899D01*
X0082497Y0050712D02*
X0089808Y0050712D01*
X0088852Y0049914D02*
X0086275Y0049914D01*
X0086421Y0049115D02*
X0088745Y0049115D01*
X0088745Y0048317D02*
X0086421Y0048317D01*
X0086421Y0047518D02*
X0088745Y0047518D01*
X0088745Y0046720D02*
X0086421Y0046720D01*
X0092895Y0046720D02*
X0093695Y0046720D01*
X0093695Y0047518D02*
X0092895Y0047518D01*
X0092895Y0048317D02*
X0093695Y0048317D01*
X0093695Y0049115D02*
X0092895Y0049115D01*
X0092895Y0049914D02*
X0093695Y0049914D01*
X0093695Y0050712D02*
X0092895Y0050712D01*
X0089988Y0052309D02*
X0098423Y0052309D01*
X0097625Y0053108D02*
X0090161Y0053108D01*
X0090161Y0053906D02*
X0096826Y0053906D01*
M02*
