%
M48
M72
T01C0.01200
T02C0.03150
%
T01
X45920Y43013
X48873Y43013
X51826Y43013
X54778Y43013
X57731Y43013
X88243Y41045
X91196Y51871
X94149Y51871
X97101Y51871
X103991Y55936
X103991Y61714
X101038Y61714
X98086Y61714
X95133Y61714
X88991Y64936
X99791Y73936
X105191Y72736
X104975Y76478
X107928Y76478
X114818Y76478
X119591Y73336
X119591Y70336
X126791Y69736
X130566Y77462
X133519Y77462
X136471Y77462
X139949Y77306
X142901Y71400
X139949Y66479
X146838Y60180
X143755Y59352
X143886Y53684
X140408Y53446
X150191Y53536
X160391Y53536
X168952Y52856
X173591Y53536
X184700Y52856
X192574Y53446
X175841Y61911
X172692Y61911
X190605Y72147
X190605Y75100
X190605Y78052
X190605Y81005
X190605Y83958
X178794Y83171
X178794Y76084
X164555Y89117
X157391Y92536
X154391Y93136
X151235Y89273
X148282Y92226
X141917Y88133
X137980Y89117
X124660Y84942
X121708Y85926
X121708Y88879
X121708Y91832
X121708Y94785
X108791Y96136
X105960Y99115
X103007Y99115
X103007Y102068
X105960Y102068
X112389Y106834
X129191Y108736
X145330Y111911
X153204Y111911
X145991Y100936
X147191Y97336
X151169Y83212
X171904Y92029
X174857Y92029
X174857Y94982
X174857Y97934
X184391Y100936
X174191Y112336
X124660Y81989
X124660Y79037
X103991Y85336
X99191Y87736
X82338Y81399
X79385Y81399
X72791Y85336
X60224Y78290
X54778Y81399
X51826Y81399
X51826Y84352
X54778Y84352
X42967Y80415
X40015Y80415
X40015Y77462
X42967Y77462
X45920Y66635
X48873Y66635
X51826Y66635
X54778Y66635
X57731Y66635
X108912Y65651
X111865Y65651
X128137Y49747
X118755Y45966
X115802Y45966
X137456Y42029
X145330Y42029
X153204Y42029
X160991Y42136
X168952Y42029
X176826Y42029
X184700Y42029
X151760Y66479
X95133Y99115
X92180Y99115
X89227Y99115
X86275Y99115
X64161Y110771
X60224Y106834
X55763Y102068
X55763Y99115
X55763Y96163
X40539Y104865
T02
X72311Y45125
X72311Y55125
X72311Y65125
M30
