G75*
%MOIN*%
%OFA0B0*%
%FSLAX25Y25*%
%IPPOS*%
%LPD*%
%AMOC8*
5,1,8,0,0,1.08239X$1,22.5*
%
%ADD10C,0.00000*%
%ADD11OC8,0.06000*%
%ADD12OC8,0.05937*%
%ADD13C,0.06000*%
%ADD14OC8,0.05600*%
%ADD15C,0.06000*%
%ADD16C,0.04362*%
%ADD17R,0.06000X0.06000*%
%ADD18C,0.05100*%
%ADD19R,0.04362X0.04362*%
%ADD20C,0.02578*%
%ADD21C,0.01000*%
%ADD22C,0.01600*%
%ADD23C,0.02400*%
D10*
X0001500Y0010087D02*
X0001500Y0240087D01*
X0231500Y0240087D01*
X0231500Y0010087D01*
X0001500Y0010087D01*
D11*
X0021500Y0185087D03*
X0021500Y0195087D03*
X0031500Y0195087D03*
X0041500Y0195087D03*
X0041500Y0185087D03*
X0031500Y0185087D03*
X0051500Y0185087D03*
X0051500Y0195087D03*
X0061500Y0195087D03*
X0071500Y0195087D03*
X0081500Y0195087D03*
X0081500Y0185087D03*
X0071500Y0185087D03*
X0061500Y0185087D03*
X0091500Y0185087D03*
X0091500Y0195087D03*
X0101500Y0195087D03*
X0101500Y0185087D03*
X0111500Y0185087D03*
X0111500Y0217587D03*
X0111500Y0227587D03*
X0101500Y0227587D03*
X0091500Y0227587D03*
X0091500Y0217587D03*
X0101500Y0217587D03*
X0081500Y0217587D03*
X0081500Y0227587D03*
X0071500Y0227587D03*
X0061500Y0227587D03*
X0051500Y0227587D03*
X0051500Y0217587D03*
X0061500Y0217587D03*
X0071500Y0217587D03*
X0041500Y0217587D03*
X0041500Y0227587D03*
X0031500Y0227587D03*
X0021500Y0227587D03*
X0021500Y0217587D03*
X0031500Y0217587D03*
X0196500Y0130087D03*
X0206500Y0130087D03*
X0206500Y0120087D03*
X0196500Y0120087D03*
X0196500Y0110087D03*
X0206500Y0110087D03*
D12*
X0121500Y0035087D03*
X0121500Y0025087D03*
X0111500Y0025087D03*
X0111500Y0035087D03*
X0101500Y0035087D03*
X0091500Y0035087D03*
X0091500Y0025087D03*
X0101500Y0025087D03*
X0081500Y0025087D03*
X0081500Y0035087D03*
D13*
X0186500Y0110087D03*
X0186500Y0120087D03*
X0186500Y0130087D03*
X0151500Y0165087D03*
X0151500Y0175087D03*
X0151500Y0185087D03*
D14*
X0126500Y0145087D03*
X0116500Y0145087D03*
X0116500Y0135087D03*
X0126500Y0135087D03*
X0081500Y0135087D03*
X0081500Y0145087D03*
X0071500Y0145087D03*
X0071500Y0135087D03*
X0051500Y0135087D03*
X0051500Y0145087D03*
X0041500Y0145087D03*
X0031500Y0145087D03*
X0031500Y0135087D03*
X0041500Y0135087D03*
D15*
X0136500Y0222087D02*
X0136500Y0228087D01*
X0146500Y0228087D02*
X0146500Y0222087D01*
X0156500Y0222087D02*
X0156500Y0228087D01*
X0166500Y0228087D02*
X0166500Y0222087D01*
X0176500Y0222087D02*
X0176500Y0228087D01*
X0186500Y0228087D02*
X0186500Y0222087D01*
D16*
X0141500Y0117268D02*
X0141500Y0112906D01*
X0131500Y0112906D02*
X0131500Y0117268D01*
X0121500Y0117268D02*
X0121500Y0112906D01*
X0111500Y0112906D02*
X0111500Y0117268D01*
X0101500Y0117268D02*
X0101500Y0112906D01*
X0091500Y0112906D02*
X0091500Y0117268D01*
X0061500Y0117268D02*
X0061500Y0112906D01*
X0051500Y0112906D02*
X0051500Y0117268D01*
X0041500Y0117268D02*
X0041500Y0112906D01*
X0031500Y0112906D02*
X0031500Y0117268D01*
X0023362Y0070087D02*
X0019000Y0070087D01*
X0014000Y0070087D02*
X0009638Y0070087D01*
X0009638Y0065087D02*
X0014000Y0065087D01*
X0019000Y0065087D02*
X0023362Y0065087D01*
X0023362Y0060087D02*
X0019000Y0060087D01*
X0014000Y0060087D02*
X0009638Y0060087D01*
X0009638Y0055087D02*
X0014000Y0055087D01*
X0019000Y0055087D02*
X0023362Y0055087D01*
X0023362Y0050087D02*
X0019000Y0050087D01*
X0014000Y0050087D02*
X0009638Y0050087D01*
D17*
X0111500Y0195087D03*
D18*
X0205004Y0064929D03*
X0205004Y0055087D03*
X0205004Y0045244D03*
X0217996Y0045244D03*
X0217996Y0055087D03*
X0217996Y0064929D03*
D19*
X0206500Y0028587D03*
X0196500Y0028587D03*
X0196500Y0018587D03*
X0206500Y0018587D03*
X0081500Y0115087D03*
X0081500Y0125087D03*
X0071500Y0125087D03*
X0071500Y0115087D03*
X0036500Y0028587D03*
X0026500Y0028587D03*
X0026500Y0018587D03*
X0036500Y0018587D03*
D20*
X0046500Y0015087D03*
X0046500Y0030087D03*
X0038500Y0044587D03*
X0035500Y0053087D03*
X0052000Y0058087D03*
X0061500Y0075087D03*
X0071500Y0080087D03*
X0071500Y0070087D03*
X0071500Y0060087D03*
X0086500Y0047087D03*
X0111500Y0055087D03*
X0121500Y0055087D03*
X0131500Y0055087D03*
X0141500Y0065087D03*
X0151500Y0075087D03*
X0140000Y0085087D03*
X0161000Y0091587D03*
X0161000Y0098587D03*
X0174000Y0098587D03*
X0174000Y0091587D03*
X0176500Y0075087D03*
X0186500Y0075087D03*
X0197500Y0084087D03*
X0205000Y0096587D03*
X0201500Y0115087D03*
X0180000Y0111587D03*
X0156500Y0115087D03*
X0156500Y0130087D03*
X0156500Y0145087D03*
X0171000Y0158587D03*
X0197500Y0156087D03*
X0201500Y0156087D03*
X0205500Y0156087D03*
X0209500Y0156087D03*
X0213500Y0156087D03*
X0217500Y0156087D03*
X0221500Y0156087D03*
X0221500Y0160087D03*
X0225500Y0160087D03*
X0225500Y0156087D03*
X0221500Y0152087D03*
X0221500Y0164087D03*
X0225500Y0164087D03*
X0214500Y0164087D03*
X0214500Y0168087D03*
X0214500Y0172087D03*
X0214500Y0176087D03*
X0214500Y0180087D03*
X0214500Y0184087D03*
X0210500Y0184087D03*
X0210500Y0180087D03*
X0210500Y0176087D03*
X0210500Y0172087D03*
X0210500Y0168087D03*
X0210500Y0164087D03*
X0221500Y0187087D03*
X0225500Y0187087D03*
X0225500Y0191087D03*
X0221500Y0191087D03*
X0221500Y0195087D03*
X0225500Y0195087D03*
X0217500Y0195087D03*
X0213500Y0195087D03*
X0209500Y0195087D03*
X0205500Y0195087D03*
X0201500Y0195087D03*
X0197500Y0195087D03*
X0193500Y0195087D03*
X0171500Y0195087D03*
X0171500Y0200087D03*
X0166500Y0210087D03*
X0161500Y0205087D03*
X0151500Y0200087D03*
X0159000Y0194587D03*
X0172000Y0189587D03*
X0141500Y0185087D03*
X0141500Y0195087D03*
X0131000Y0193087D03*
X0128000Y0196087D03*
X0121500Y0185087D03*
X0128000Y0180087D03*
X0131000Y0176587D03*
X0131500Y0165087D03*
X0121500Y0165087D03*
X0121500Y0150087D03*
X0141500Y0165087D03*
X0121500Y0125087D03*
X0102500Y0126587D03*
X0096500Y0147087D03*
X0093500Y0150087D03*
X0090500Y0147087D03*
X0099500Y0150087D03*
X0090500Y0157587D03*
X0086500Y0160587D03*
X0093500Y0169587D03*
X0096589Y0166587D03*
X0099500Y0160587D03*
X0086500Y0178587D03*
X0081500Y0172587D03*
X0076500Y0169587D03*
X0071500Y0175587D03*
X0066500Y0178587D03*
X0056500Y0178587D03*
X0051500Y0169587D03*
X0056500Y0163587D03*
X0056500Y0154587D03*
X0046500Y0157587D03*
X0041500Y0163587D03*
X0031500Y0160587D03*
X0046500Y0178587D03*
X0066500Y0166587D03*
X0076500Y0178587D03*
X0121500Y0225087D03*
X0116500Y0235087D03*
X0126500Y0235087D03*
X0106500Y0235087D03*
X0096000Y0233087D03*
X0026500Y0205087D03*
X0011500Y0200087D03*
X0011500Y0215087D03*
X0011500Y0220087D03*
X0011500Y0225087D03*
X0006500Y0235087D03*
X0011500Y0185087D03*
X0011500Y0170087D03*
X0036500Y0125087D03*
X0046500Y0125087D03*
X0056500Y0125087D03*
X0036500Y0105087D03*
X0031500Y0105087D03*
X0049500Y0100587D03*
X0051500Y0090087D03*
X0061500Y0090087D03*
X0091500Y0090087D03*
X0106500Y0094087D03*
X0116500Y0085087D03*
X0116500Y0070087D03*
X0101500Y0075087D03*
X0144500Y0030087D03*
X0151500Y0045087D03*
X0161500Y0045087D03*
X0162000Y0054587D03*
X0186500Y0055087D03*
X0186500Y0045087D03*
X0186500Y0035087D03*
X0186500Y0025087D03*
X0186500Y0015087D03*
X0221500Y0020087D03*
X0221500Y0030087D03*
X0225500Y0086587D03*
X0225500Y0114087D03*
X0221500Y0140087D03*
X0206500Y0225087D03*
X0206500Y0230087D03*
X0206500Y0235087D03*
X0196500Y0235087D03*
X0181500Y0235087D03*
X0011500Y0080087D03*
X0006500Y0040087D03*
X0006500Y0030087D03*
X0016500Y0030087D03*
X0016500Y0040087D03*
X0061500Y0015087D03*
X0076500Y0015087D03*
X0091500Y0015087D03*
D21*
X0091016Y0020618D02*
X0089649Y0020618D01*
X0087031Y0023236D01*
X0087031Y0024602D01*
X0091016Y0024602D01*
X0091984Y0024602D01*
X0091984Y0020618D01*
X0093351Y0020618D01*
X0095968Y0023236D01*
X0095968Y0024602D01*
X0091984Y0024602D01*
X0091984Y0025571D01*
X0091016Y0025571D01*
X0091016Y0029555D01*
X0089649Y0029555D01*
X0087031Y0026938D01*
X0087031Y0025571D01*
X0091016Y0025571D01*
X0091016Y0024602D01*
X0091016Y0020618D01*
X0091016Y0021070D02*
X0091984Y0021070D01*
X0091984Y0022069D02*
X0091016Y0022069D01*
X0091016Y0023067D02*
X0091984Y0023067D01*
X0091984Y0024066D02*
X0091016Y0024066D01*
X0091016Y0025064D02*
X0085768Y0025064D01*
X0085768Y0024066D02*
X0087031Y0024066D01*
X0087200Y0023067D02*
X0085517Y0023067D01*
X0085768Y0023319D02*
X0085768Y0026102D01*
X0087453Y0027787D01*
X0088800Y0029134D01*
X0088800Y0031750D01*
X0089732Y0030818D01*
X0093268Y0030818D01*
X0095768Y0033319D01*
X0095768Y0036855D01*
X0093268Y0039355D01*
X0089732Y0039355D01*
X0088800Y0038423D01*
X0088800Y0045874D01*
X0089089Y0046572D01*
X0089089Y0047602D01*
X0088695Y0048553D01*
X0087967Y0049281D01*
X0087015Y0049676D01*
X0085985Y0049676D01*
X0085033Y0049281D01*
X0084305Y0048553D01*
X0083911Y0047602D01*
X0083911Y0046572D01*
X0084200Y0045874D01*
X0084200Y0038423D01*
X0083268Y0039355D01*
X0079732Y0039355D01*
X0077231Y0036855D01*
X0077231Y0033319D01*
X0079732Y0030818D01*
X0083268Y0030818D01*
X0084200Y0031750D01*
X0084200Y0031039D01*
X0082516Y0029355D01*
X0079732Y0029355D01*
X0077231Y0026855D01*
X0077231Y0023319D01*
X0079732Y0020818D01*
X0083268Y0020818D01*
X0085768Y0023319D01*
X0084519Y0022069D02*
X0088198Y0022069D01*
X0089197Y0021070D02*
X0083520Y0021070D01*
X0079480Y0021070D02*
X0040153Y0021070D01*
X0040181Y0020965D02*
X0040079Y0021347D01*
X0039881Y0021689D01*
X0039602Y0021968D01*
X0039260Y0022165D01*
X0038879Y0022268D01*
X0036591Y0022268D01*
X0036591Y0018677D01*
X0040181Y0018677D01*
X0040181Y0020965D01*
X0040181Y0020072D02*
X0193019Y0020072D01*
X0193019Y0021070D02*
X0123520Y0021070D01*
X0123268Y0020818D02*
X0125768Y0023319D01*
X0125768Y0026855D01*
X0124537Y0028087D01*
X0142839Y0028087D01*
X0143033Y0027892D01*
X0143985Y0027498D01*
X0145015Y0027498D01*
X0145967Y0027892D01*
X0146695Y0028620D01*
X0147089Y0029572D01*
X0147089Y0030602D01*
X0146695Y0031553D01*
X0145967Y0032281D01*
X0145015Y0032676D01*
X0143985Y0032676D01*
X0143033Y0032281D01*
X0142839Y0032087D01*
X0124537Y0032087D01*
X0125768Y0033319D01*
X0125768Y0036855D01*
X0123268Y0039355D01*
X0119732Y0039355D01*
X0117231Y0036855D01*
X0117231Y0033319D01*
X0118463Y0032087D01*
X0115672Y0032087D01*
X0114500Y0030915D01*
X0112940Y0029355D01*
X0109732Y0029355D01*
X0107231Y0026855D01*
X0107231Y0023319D01*
X0109732Y0020818D01*
X0113268Y0020818D01*
X0115768Y0023319D01*
X0115768Y0026527D01*
X0117328Y0028087D01*
X0118463Y0028087D01*
X0117231Y0026855D01*
X0117231Y0023319D01*
X0119732Y0020818D01*
X0123268Y0020818D01*
X0124519Y0022069D02*
X0230000Y0022069D01*
X0230000Y0023067D02*
X0125517Y0023067D01*
X0125768Y0024066D02*
X0230000Y0024066D01*
X0230000Y0025064D02*
X0125768Y0025064D01*
X0125768Y0026063D02*
X0193019Y0026063D01*
X0193019Y0025867D02*
X0193780Y0025106D01*
X0199220Y0025106D01*
X0199981Y0025867D01*
X0199981Y0031306D01*
X0199220Y0032068D01*
X0193780Y0032068D01*
X0193019Y0031306D01*
X0193019Y0025867D01*
X0193019Y0027061D02*
X0125562Y0027061D01*
X0124563Y0028060D02*
X0142865Y0028060D01*
X0144500Y0030087D02*
X0116500Y0030087D01*
X0111500Y0025087D01*
X0107231Y0025064D02*
X0105768Y0025064D01*
X0105768Y0024066D02*
X0107231Y0024066D01*
X0107483Y0023067D02*
X0105517Y0023067D01*
X0105768Y0023319D02*
X0103268Y0020818D01*
X0099732Y0020818D01*
X0097231Y0023319D01*
X0097231Y0026855D01*
X0099732Y0029355D01*
X0103268Y0029355D01*
X0105768Y0026855D01*
X0105768Y0023319D01*
X0104519Y0022069D02*
X0108481Y0022069D01*
X0109480Y0021070D02*
X0103520Y0021070D01*
X0099480Y0021070D02*
X0093803Y0021070D01*
X0094802Y0022069D02*
X0098481Y0022069D01*
X0097483Y0023067D02*
X0095800Y0023067D01*
X0095968Y0024066D02*
X0097231Y0024066D01*
X0097231Y0025064D02*
X0091984Y0025064D01*
X0091984Y0025571D02*
X0095968Y0025571D01*
X0095968Y0026938D01*
X0093351Y0029555D01*
X0091984Y0029555D01*
X0091984Y0025571D01*
X0091984Y0026063D02*
X0091016Y0026063D01*
X0091016Y0027061D02*
X0091984Y0027061D01*
X0091984Y0028060D02*
X0091016Y0028060D01*
X0091016Y0029058D02*
X0091984Y0029058D01*
X0093848Y0029058D02*
X0099435Y0029058D01*
X0098437Y0028060D02*
X0094846Y0028060D01*
X0095845Y0027061D02*
X0097438Y0027061D01*
X0097231Y0026063D02*
X0095968Y0026063D01*
X0093505Y0031055D02*
X0099495Y0031055D01*
X0099732Y0030818D02*
X0103268Y0030818D01*
X0105768Y0033319D01*
X0105768Y0036855D01*
X0103268Y0039355D01*
X0099732Y0039355D01*
X0097231Y0036855D01*
X0097231Y0033319D01*
X0099732Y0030818D01*
X0098496Y0032054D02*
X0094504Y0032054D01*
X0095502Y0033052D02*
X0097498Y0033052D01*
X0097231Y0034051D02*
X0095768Y0034051D01*
X0095768Y0035049D02*
X0097231Y0035049D01*
X0097231Y0036048D02*
X0095768Y0036048D01*
X0095577Y0037046D02*
X0097423Y0037046D01*
X0098422Y0038045D02*
X0094578Y0038045D01*
X0093580Y0039043D02*
X0099420Y0039043D01*
X0103580Y0039043D02*
X0109420Y0039043D01*
X0109732Y0039355D02*
X0107231Y0036855D01*
X0107231Y0033319D01*
X0109732Y0030818D01*
X0113268Y0030818D01*
X0115768Y0033319D01*
X0115768Y0036855D01*
X0113268Y0039355D01*
X0109732Y0039355D01*
X0108422Y0038045D02*
X0104578Y0038045D01*
X0105577Y0037046D02*
X0107423Y0037046D01*
X0107231Y0036048D02*
X0105768Y0036048D01*
X0105768Y0035049D02*
X0107231Y0035049D01*
X0107231Y0034051D02*
X0105768Y0034051D01*
X0105502Y0033052D02*
X0107498Y0033052D01*
X0108496Y0032054D02*
X0104504Y0032054D01*
X0103505Y0031055D02*
X0109495Y0031055D01*
X0109435Y0029058D02*
X0103565Y0029058D01*
X0104563Y0028060D02*
X0108437Y0028060D01*
X0107438Y0027061D02*
X0105562Y0027061D01*
X0105768Y0026063D02*
X0107231Y0026063D01*
X0113642Y0030057D02*
X0088800Y0030057D01*
X0088800Y0031055D02*
X0089495Y0031055D01*
X0089152Y0029058D02*
X0088724Y0029058D01*
X0088154Y0028060D02*
X0087726Y0028060D01*
X0087155Y0027061D02*
X0086727Y0027061D01*
X0087031Y0026063D02*
X0085768Y0026063D01*
X0083218Y0030057D02*
X0039981Y0030057D01*
X0039981Y0031055D02*
X0079495Y0031055D01*
X0078496Y0032054D02*
X0039233Y0032054D01*
X0039220Y0032068D02*
X0033780Y0032068D01*
X0033019Y0031306D01*
X0033019Y0025867D01*
X0033780Y0025106D01*
X0039220Y0025106D01*
X0039981Y0025867D01*
X0039981Y0031306D01*
X0039220Y0032068D01*
X0039981Y0029058D02*
X0079435Y0029058D01*
X0078437Y0028060D02*
X0039981Y0028060D01*
X0039981Y0027061D02*
X0077438Y0027061D01*
X0077231Y0026063D02*
X0039981Y0026063D01*
X0039428Y0022069D02*
X0078481Y0022069D01*
X0077483Y0023067D02*
X0003000Y0023067D01*
X0003000Y0022069D02*
X0033572Y0022069D01*
X0033740Y0022165D02*
X0033398Y0021968D01*
X0033119Y0021689D01*
X0032921Y0021347D01*
X0032819Y0020965D01*
X0032819Y0018677D01*
X0036409Y0018677D01*
X0036409Y0018496D01*
X0032819Y0018496D01*
X0032819Y0016208D01*
X0032921Y0015827D01*
X0033119Y0015484D01*
X0033398Y0015205D01*
X0033740Y0015008D01*
X0034121Y0014906D01*
X0036409Y0014906D01*
X0036409Y0018496D01*
X0036591Y0018496D01*
X0036591Y0018677D01*
X0036409Y0018677D01*
X0036409Y0022268D01*
X0034121Y0022268D01*
X0033740Y0022165D01*
X0033500Y0023087D02*
X0036500Y0020087D01*
X0036500Y0018587D01*
X0036591Y0018496D02*
X0036591Y0014906D01*
X0038879Y0014906D01*
X0039260Y0015008D01*
X0039602Y0015205D01*
X0039881Y0015484D01*
X0040079Y0015827D01*
X0040181Y0016208D01*
X0040181Y0018496D01*
X0036591Y0018496D01*
X0036591Y0018075D02*
X0036409Y0018075D01*
X0036409Y0019073D02*
X0036591Y0019073D01*
X0036591Y0020072D02*
X0036409Y0020072D01*
X0036409Y0021070D02*
X0036591Y0021070D01*
X0036591Y0022069D02*
X0036409Y0022069D01*
X0033500Y0023087D02*
X0026500Y0023087D01*
X0026000Y0023587D01*
X0015500Y0023587D01*
X0014000Y0025087D01*
X0014000Y0050087D01*
X0013909Y0050027D02*
X0003000Y0050027D01*
X0003000Y0049029D02*
X0006095Y0049029D01*
X0006098Y0049013D02*
X0006376Y0048343D01*
X0006778Y0047740D01*
X0007291Y0047227D01*
X0007894Y0046824D01*
X0008564Y0046547D01*
X0009275Y0046406D01*
X0013909Y0046406D01*
X0013909Y0049996D01*
X0005957Y0049996D01*
X0005957Y0049724D01*
X0006098Y0049013D01*
X0006585Y0048030D02*
X0003000Y0048030D01*
X0003000Y0047032D02*
X0007584Y0047032D01*
X0005957Y0050177D02*
X0013909Y0050177D01*
X0013909Y0049996D01*
X0014091Y0049996D01*
X0014091Y0046406D01*
X0014363Y0046406D01*
X0015074Y0046547D01*
X0015744Y0046824D01*
X0016347Y0047227D01*
X0016641Y0047522D01*
X0017028Y0047135D01*
X0018308Y0046606D01*
X0024055Y0046606D01*
X0025334Y0047135D01*
X0026313Y0048115D01*
X0026843Y0049394D01*
X0026843Y0050779D01*
X0026313Y0052058D01*
X0025785Y0052587D01*
X0026313Y0053115D01*
X0026843Y0054394D01*
X0026843Y0055779D01*
X0026313Y0057058D01*
X0025785Y0057587D01*
X0026313Y0058115D01*
X0026843Y0059394D01*
X0026843Y0060779D01*
X0026313Y0062058D01*
X0025785Y0062587D01*
X0026285Y0063087D01*
X0027172Y0063087D01*
X0033500Y0056758D01*
X0033500Y0054748D01*
X0033305Y0054553D01*
X0032911Y0053602D01*
X0032911Y0052572D01*
X0033305Y0051620D01*
X0034033Y0050892D01*
X0034985Y0050498D01*
X0036015Y0050498D01*
X0036967Y0050892D01*
X0037695Y0051620D01*
X0038089Y0052572D01*
X0038089Y0053602D01*
X0037695Y0054553D01*
X0037500Y0054748D01*
X0037500Y0058415D01*
X0030000Y0065915D01*
X0028828Y0067087D01*
X0026285Y0067087D01*
X0025785Y0067587D01*
X0026313Y0068115D01*
X0026843Y0069394D01*
X0026843Y0070779D01*
X0026313Y0072058D01*
X0025334Y0073038D01*
X0024055Y0073568D01*
X0018308Y0073568D01*
X0017028Y0073038D01*
X0016500Y0072510D01*
X0015972Y0073038D01*
X0014692Y0073568D01*
X0008945Y0073568D01*
X0007666Y0073038D01*
X0006687Y0072058D01*
X0006157Y0070779D01*
X0006157Y0069394D01*
X0006687Y0068115D01*
X0007073Y0067728D01*
X0006778Y0067433D01*
X0006376Y0066830D01*
X0006098Y0066160D01*
X0005957Y0065449D01*
X0005957Y0065177D01*
X0013909Y0065177D01*
X0013909Y0064996D01*
X0005957Y0064996D01*
X0005957Y0064724D01*
X0006098Y0064013D01*
X0006376Y0063343D01*
X0006778Y0062740D01*
X0006932Y0062587D01*
X0006778Y0062433D01*
X0006376Y0061830D01*
X0006098Y0061160D01*
X0005957Y0060449D01*
X0005957Y0060177D01*
X0013909Y0060177D01*
X0013909Y0059996D01*
X0005957Y0059996D01*
X0005957Y0059724D01*
X0006098Y0059013D01*
X0006376Y0058343D01*
X0006778Y0057740D01*
X0007073Y0057445D01*
X0006687Y0057058D01*
X0006157Y0055779D01*
X0006157Y0054394D01*
X0006687Y0053115D01*
X0007073Y0052728D01*
X0006778Y0052433D01*
X0006376Y0051830D01*
X0006098Y0051160D01*
X0005957Y0050449D01*
X0005957Y0050177D01*
X0006071Y0051026D02*
X0003000Y0051026D01*
X0003000Y0052024D02*
X0006505Y0052024D01*
X0006779Y0053023D02*
X0003000Y0053023D01*
X0003000Y0054021D02*
X0006311Y0054021D01*
X0006157Y0055020D02*
X0003000Y0055020D01*
X0003000Y0056018D02*
X0006256Y0056018D01*
X0006669Y0057017D02*
X0003000Y0057017D01*
X0003000Y0058015D02*
X0006595Y0058015D01*
X0006098Y0059014D02*
X0003000Y0059014D01*
X0003000Y0060012D02*
X0013909Y0060012D01*
X0013909Y0060177D02*
X0013909Y0061406D01*
X0013909Y0064996D01*
X0014091Y0064996D01*
X0014091Y0060177D01*
X0013909Y0060177D01*
X0013909Y0061011D02*
X0014091Y0061011D01*
X0014091Y0062009D02*
X0013909Y0062009D01*
X0013909Y0063008D02*
X0014091Y0063008D01*
X0014091Y0064006D02*
X0013909Y0064006D01*
X0013909Y0065005D02*
X0003000Y0065005D01*
X0003000Y0066003D02*
X0006067Y0066003D01*
X0005500Y0065587D02*
X0005500Y0081587D01*
X0004500Y0082587D01*
X0004500Y0084587D01*
X0028500Y0108587D01*
X0028500Y0112087D01*
X0031500Y0115087D01*
X0031500Y0115587D01*
X0046500Y0100587D01*
X0049500Y0100587D01*
X0050808Y0109424D02*
X0052192Y0109424D01*
X0053472Y0109954D01*
X0054451Y0110934D01*
X0054981Y0112213D01*
X0054981Y0117960D01*
X0054451Y0119240D01*
X0053472Y0120219D01*
X0052192Y0120749D01*
X0050808Y0120749D01*
X0049528Y0120219D01*
X0048549Y0119240D01*
X0048019Y0117960D01*
X0048019Y0112213D01*
X0048549Y0110934D01*
X0049528Y0109954D01*
X0050808Y0109424D01*
X0049568Y0109938D02*
X0043432Y0109938D01*
X0043472Y0109954D02*
X0044451Y0110934D01*
X0044981Y0112213D01*
X0044981Y0117960D01*
X0044451Y0119240D01*
X0043472Y0120219D01*
X0042192Y0120749D01*
X0040808Y0120749D01*
X0039528Y0120219D01*
X0038549Y0119240D01*
X0038019Y0117960D01*
X0038019Y0112213D01*
X0038549Y0110934D01*
X0039528Y0109954D01*
X0040808Y0109424D01*
X0042192Y0109424D01*
X0043472Y0109954D01*
X0044452Y0110936D02*
X0048548Y0110936D01*
X0048134Y0111935D02*
X0044866Y0111935D01*
X0044981Y0112933D02*
X0048019Y0112933D01*
X0048019Y0113932D02*
X0044981Y0113932D01*
X0044981Y0114930D02*
X0048019Y0114930D01*
X0048019Y0115929D02*
X0044981Y0115929D01*
X0044981Y0116927D02*
X0048019Y0116927D01*
X0048019Y0117926D02*
X0044981Y0117926D01*
X0044582Y0118924D02*
X0048418Y0118924D01*
X0049232Y0119923D02*
X0043768Y0119923D01*
X0039232Y0119923D02*
X0034051Y0119923D01*
X0033847Y0120127D02*
X0033244Y0120530D01*
X0032574Y0120807D01*
X0031863Y0120949D01*
X0031591Y0120949D01*
X0031591Y0115177D01*
X0035181Y0115177D01*
X0035181Y0117630D01*
X0035040Y0118341D01*
X0034762Y0119011D01*
X0034359Y0119614D01*
X0033847Y0120127D01*
X0034798Y0118924D02*
X0038418Y0118924D01*
X0038019Y0117926D02*
X0035122Y0117926D01*
X0035181Y0116927D02*
X0038019Y0116927D01*
X0038019Y0115929D02*
X0035181Y0115929D01*
X0035181Y0114996D02*
X0031591Y0114996D01*
X0031591Y0115177D01*
X0031409Y0115177D01*
X0031409Y0114996D01*
X0027819Y0114996D01*
X0027819Y0112543D01*
X0027960Y0111832D01*
X0028238Y0111162D01*
X0028641Y0110559D01*
X0029153Y0110046D01*
X0029756Y0109643D01*
X0030426Y0109366D01*
X0031137Y0109224D01*
X0031409Y0109224D01*
X0031409Y0114996D01*
X0031591Y0114996D01*
X0031591Y0109224D01*
X0031863Y0109224D01*
X0032574Y0109366D01*
X0033244Y0109643D01*
X0033847Y0110046D01*
X0034359Y0110559D01*
X0034762Y0111162D01*
X0035040Y0111832D01*
X0035181Y0112543D01*
X0035181Y0114996D01*
X0035181Y0114930D02*
X0038019Y0114930D01*
X0038019Y0113932D02*
X0035181Y0113932D01*
X0035181Y0112933D02*
X0038019Y0112933D01*
X0038134Y0111935D02*
X0035060Y0111935D01*
X0034611Y0110936D02*
X0038548Y0110936D01*
X0039568Y0109938D02*
X0033684Y0109938D01*
X0031591Y0109938D02*
X0031409Y0109938D01*
X0031409Y0110936D02*
X0031591Y0110936D01*
X0031591Y0111935D02*
X0031409Y0111935D01*
X0031409Y0112933D02*
X0031591Y0112933D01*
X0031591Y0113932D02*
X0031409Y0113932D01*
X0031409Y0114930D02*
X0031591Y0114930D01*
X0031409Y0115177D02*
X0027819Y0115177D01*
X0027819Y0117630D01*
X0027960Y0118341D01*
X0028238Y0119011D01*
X0028641Y0119614D01*
X0029153Y0120127D01*
X0029756Y0120530D01*
X0030426Y0120807D01*
X0031137Y0120949D01*
X0031409Y0120949D01*
X0031409Y0115177D01*
X0031500Y0115587D02*
X0031500Y0118587D01*
X0020500Y0129587D01*
X0020500Y0184087D01*
X0021500Y0185087D01*
X0019500Y0185087D01*
X0015000Y0189587D01*
X0015000Y0221087D01*
X0021500Y0227587D01*
X0022000Y0227762D02*
X0031000Y0227762D01*
X0031000Y0228087D02*
X0031000Y0227087D01*
X0027000Y0227087D01*
X0027000Y0225723D01*
X0029636Y0223087D01*
X0031000Y0223087D01*
X0031000Y0227087D01*
X0032000Y0227087D01*
X0032000Y0228087D01*
X0031000Y0228087D01*
X0031000Y0232087D01*
X0029636Y0232087D01*
X0027000Y0229451D01*
X0027000Y0228087D01*
X0031000Y0228087D01*
X0031000Y0228761D02*
X0032000Y0228761D01*
X0032000Y0228087D02*
X0032000Y0232087D01*
X0033364Y0232087D01*
X0036000Y0229451D01*
X0036000Y0228087D01*
X0032000Y0228087D01*
X0032000Y0227762D02*
X0041000Y0227762D01*
X0041000Y0228087D02*
X0041000Y0227087D01*
X0037000Y0227087D01*
X0037000Y0225723D01*
X0039636Y0223087D01*
X0041000Y0223087D01*
X0041000Y0227087D01*
X0042000Y0227087D01*
X0042000Y0228087D01*
X0041000Y0228087D01*
X0041000Y0232087D01*
X0039636Y0232087D01*
X0037000Y0229451D01*
X0037000Y0228087D01*
X0041000Y0228087D01*
X0041000Y0228761D02*
X0042000Y0228761D01*
X0042000Y0228087D02*
X0042000Y0232087D01*
X0043364Y0232087D01*
X0046000Y0229451D01*
X0046000Y0228087D01*
X0042000Y0228087D01*
X0042000Y0227762D02*
X0051000Y0227762D01*
X0051000Y0228087D02*
X0051000Y0227087D01*
X0047000Y0227087D01*
X0047000Y0225723D01*
X0049636Y0223087D01*
X0051000Y0223087D01*
X0051000Y0227087D01*
X0052000Y0227087D01*
X0052000Y0228087D01*
X0051000Y0228087D01*
X0051000Y0232087D01*
X0049636Y0232087D01*
X0047000Y0229451D01*
X0047000Y0228087D01*
X0051000Y0228087D01*
X0051000Y0228761D02*
X0052000Y0228761D01*
X0052000Y0228087D02*
X0052000Y0232087D01*
X0053364Y0232087D01*
X0056000Y0229451D01*
X0056000Y0228087D01*
X0052000Y0228087D01*
X0052000Y0227762D02*
X0061000Y0227762D01*
X0061000Y0228087D02*
X0061000Y0227087D01*
X0057000Y0227087D01*
X0057000Y0225723D01*
X0059636Y0223087D01*
X0061000Y0223087D01*
X0061000Y0227087D01*
X0062000Y0227087D01*
X0062000Y0228087D01*
X0061000Y0228087D01*
X0061000Y0232087D01*
X0059636Y0232087D01*
X0057000Y0229451D01*
X0057000Y0228087D01*
X0061000Y0228087D01*
X0061000Y0228761D02*
X0062000Y0228761D01*
X0062000Y0228087D02*
X0062000Y0232087D01*
X0063364Y0232087D01*
X0066000Y0229451D01*
X0066000Y0228087D01*
X0062000Y0228087D01*
X0062000Y0227762D02*
X0071000Y0227762D01*
X0071000Y0228087D02*
X0071000Y0227087D01*
X0067000Y0227087D01*
X0067000Y0225723D01*
X0069636Y0223087D01*
X0071000Y0223087D01*
X0071000Y0227087D01*
X0072000Y0227087D01*
X0072000Y0228087D01*
X0071000Y0228087D01*
X0071000Y0232087D01*
X0069636Y0232087D01*
X0067000Y0229451D01*
X0067000Y0228087D01*
X0071000Y0228087D01*
X0071000Y0228761D02*
X0072000Y0228761D01*
X0072000Y0228087D02*
X0072000Y0232087D01*
X0073364Y0232087D01*
X0076000Y0229451D01*
X0076000Y0228087D01*
X0072000Y0228087D01*
X0072000Y0227762D02*
X0081000Y0227762D01*
X0081000Y0228087D02*
X0081000Y0227087D01*
X0077000Y0227087D01*
X0077000Y0225723D01*
X0079636Y0223087D01*
X0081000Y0223087D01*
X0081000Y0227087D01*
X0082000Y0227087D01*
X0082000Y0228087D01*
X0081000Y0228087D01*
X0081000Y0232087D01*
X0079636Y0232087D01*
X0077000Y0229451D01*
X0077000Y0228087D01*
X0081000Y0228087D01*
X0081000Y0228761D02*
X0082000Y0228761D01*
X0082000Y0228087D02*
X0082000Y0232087D01*
X0083364Y0232087D01*
X0086000Y0229451D01*
X0086000Y0228087D01*
X0082000Y0228087D01*
X0082000Y0227762D02*
X0091000Y0227762D01*
X0091000Y0228087D02*
X0091000Y0227087D01*
X0087000Y0227087D01*
X0087000Y0225723D01*
X0089636Y0223087D01*
X0091000Y0223087D01*
X0091000Y0227087D01*
X0092000Y0227087D01*
X0092000Y0223087D01*
X0093364Y0223087D01*
X0094200Y0223923D01*
X0094200Y0222634D01*
X0095200Y0221634D01*
X0096547Y0220287D01*
X0098119Y0220287D01*
X0097200Y0219368D01*
X0097200Y0215805D01*
X0099719Y0213287D01*
X0103281Y0213287D01*
X0105800Y0215805D01*
X0105800Y0219368D01*
X0104881Y0220287D01*
X0105047Y0220287D01*
X0107200Y0218134D01*
X0107200Y0215805D01*
X0109719Y0213287D01*
X0113281Y0213287D01*
X0115800Y0215805D01*
X0115800Y0219368D01*
X0113281Y0221887D01*
X0109953Y0221887D01*
X0106953Y0224887D01*
X0105164Y0224887D01*
X0106000Y0225723D01*
X0106000Y0227087D01*
X0102000Y0227087D01*
X0102000Y0228087D01*
X0101000Y0228087D01*
X0101000Y0232087D01*
X0099636Y0232087D01*
X0098800Y0231251D01*
X0098800Y0232539D01*
X0098589Y0232750D01*
X0098589Y0233602D01*
X0098195Y0234553D01*
X0097467Y0235281D01*
X0096515Y0235676D01*
X0095485Y0235676D01*
X0094533Y0235281D01*
X0093805Y0234553D01*
X0093411Y0233602D01*
X0093411Y0232572D01*
X0093700Y0231874D01*
X0093700Y0231751D01*
X0093364Y0232087D01*
X0092000Y0232087D01*
X0092000Y0228087D01*
X0091000Y0228087D01*
X0091000Y0232087D01*
X0089636Y0232087D01*
X0087000Y0229451D01*
X0087000Y0228087D01*
X0091000Y0228087D01*
X0091000Y0228761D02*
X0092000Y0228761D01*
X0092000Y0229759D02*
X0091000Y0229759D01*
X0091000Y0230758D02*
X0092000Y0230758D01*
X0092000Y0231756D02*
X0091000Y0231756D01*
X0089306Y0231756D02*
X0083694Y0231756D01*
X0084693Y0230758D02*
X0088307Y0230758D01*
X0087309Y0229759D02*
X0085691Y0229759D01*
X0086000Y0228761D02*
X0087000Y0228761D01*
X0086000Y0227087D02*
X0086000Y0225723D01*
X0083364Y0223087D01*
X0082000Y0223087D01*
X0082000Y0227087D01*
X0086000Y0227087D01*
X0086000Y0226764D02*
X0087000Y0226764D01*
X0087000Y0225765D02*
X0086000Y0225765D01*
X0085044Y0224767D02*
X0087956Y0224767D01*
X0088955Y0223768D02*
X0084045Y0223768D01*
X0083281Y0221887D02*
X0085800Y0219368D01*
X0085800Y0215805D01*
X0083281Y0213287D01*
X0079719Y0213287D01*
X0077200Y0215805D01*
X0077200Y0219368D01*
X0079719Y0221887D01*
X0083281Y0221887D01*
X0083397Y0221771D02*
X0089603Y0221771D01*
X0089719Y0221887D02*
X0087200Y0219368D01*
X0087200Y0215805D01*
X0089719Y0213287D01*
X0093281Y0213287D01*
X0095800Y0215805D01*
X0095800Y0219368D01*
X0093281Y0221887D01*
X0089719Y0221887D01*
X0088605Y0220773D02*
X0084395Y0220773D01*
X0085394Y0219774D02*
X0087606Y0219774D01*
X0087200Y0218775D02*
X0085800Y0218775D01*
X0085800Y0217777D02*
X0087200Y0217777D01*
X0087200Y0216778D02*
X0085800Y0216778D01*
X0085774Y0215780D02*
X0087226Y0215780D01*
X0088224Y0214781D02*
X0084776Y0214781D01*
X0083777Y0213783D02*
X0089223Y0213783D01*
X0093777Y0213783D02*
X0099223Y0213783D01*
X0098224Y0214781D02*
X0094776Y0214781D01*
X0095774Y0215780D02*
X0097226Y0215780D01*
X0097200Y0216778D02*
X0095800Y0216778D01*
X0095800Y0217777D02*
X0097200Y0217777D01*
X0097200Y0218775D02*
X0095800Y0218775D01*
X0095394Y0219774D02*
X0097606Y0219774D01*
X0096061Y0220773D02*
X0094395Y0220773D01*
X0095063Y0221771D02*
X0093397Y0221771D01*
X0094200Y0222770D02*
X0003000Y0222770D01*
X0003000Y0223768D02*
X0018955Y0223768D01*
X0019636Y0223087D02*
X0021000Y0223087D01*
X0021000Y0227087D01*
X0017000Y0227087D01*
X0017000Y0225723D01*
X0019636Y0223087D01*
X0019719Y0221887D02*
X0017200Y0219368D01*
X0017200Y0215805D01*
X0019719Y0213287D01*
X0023281Y0213287D01*
X0025800Y0215805D01*
X0025800Y0219368D01*
X0023281Y0221887D01*
X0019719Y0221887D01*
X0019603Y0221771D02*
X0003000Y0221771D01*
X0003000Y0220773D02*
X0018605Y0220773D01*
X0017606Y0219774D02*
X0003000Y0219774D01*
X0003000Y0218775D02*
X0017200Y0218775D01*
X0017200Y0217777D02*
X0003000Y0217777D01*
X0003000Y0216778D02*
X0017200Y0216778D01*
X0017226Y0215780D02*
X0003000Y0215780D01*
X0003000Y0214781D02*
X0018224Y0214781D01*
X0019223Y0213783D02*
X0003000Y0213783D01*
X0003000Y0212784D02*
X0176869Y0212784D01*
X0176500Y0212415D02*
X0176500Y0134758D01*
X0177672Y0133587D01*
X0183919Y0133587D01*
X0182855Y0132522D01*
X0182200Y0130942D01*
X0182200Y0129231D01*
X0182855Y0127651D01*
X0184064Y0126441D01*
X0185645Y0125787D01*
X0187355Y0125787D01*
X0188936Y0126441D01*
X0190145Y0127651D01*
X0190800Y0129231D01*
X0190800Y0130942D01*
X0190145Y0132522D01*
X0189081Y0133587D01*
X0193919Y0133587D01*
X0192200Y0131868D01*
X0192200Y0128305D01*
X0194719Y0125787D01*
X0198281Y0125787D01*
X0200800Y0128305D01*
X0200800Y0131868D01*
X0199081Y0133587D01*
X0203919Y0133587D01*
X0202200Y0131868D01*
X0202200Y0128305D01*
X0204719Y0125787D01*
X0208281Y0125787D01*
X0210800Y0128305D01*
X0210800Y0131868D01*
X0209081Y0133587D01*
X0230000Y0133587D01*
X0230000Y0011587D01*
X0003000Y0011587D01*
X0003000Y0238587D01*
X0230000Y0238587D01*
X0230000Y0220087D01*
X0193172Y0220087D01*
X0192000Y0218915D01*
X0192000Y0213587D01*
X0177672Y0213587D01*
X0176500Y0212415D01*
X0176500Y0211786D02*
X0003000Y0211786D01*
X0003000Y0210787D02*
X0176500Y0210787D01*
X0176500Y0209789D02*
X0003000Y0209789D01*
X0003000Y0208790D02*
X0176500Y0208790D01*
X0176500Y0207792D02*
X0003000Y0207792D01*
X0003000Y0206793D02*
X0176500Y0206793D01*
X0176500Y0205795D02*
X0003000Y0205795D01*
X0003000Y0204796D02*
X0176500Y0204796D01*
X0176500Y0203798D02*
X0003000Y0203798D01*
X0003000Y0202799D02*
X0176500Y0202799D01*
X0176500Y0201801D02*
X0003000Y0201801D01*
X0003000Y0200802D02*
X0176500Y0200802D01*
X0176500Y0199804D02*
X0003000Y0199804D01*
X0003000Y0198805D02*
X0019138Y0198805D01*
X0019719Y0199387D02*
X0017200Y0196868D01*
X0017200Y0193305D01*
X0019719Y0190787D01*
X0023281Y0190787D01*
X0025800Y0193305D01*
X0025800Y0196868D01*
X0023281Y0199387D01*
X0019719Y0199387D01*
X0018139Y0197807D02*
X0003000Y0197807D01*
X0003000Y0196808D02*
X0017200Y0196808D01*
X0017200Y0195810D02*
X0003000Y0195810D01*
X0003000Y0194811D02*
X0017200Y0194811D01*
X0017200Y0193813D02*
X0003000Y0193813D01*
X0003000Y0192814D02*
X0017691Y0192814D01*
X0018690Y0191816D02*
X0003000Y0191816D01*
X0003000Y0190817D02*
X0019688Y0190817D01*
X0019636Y0189587D02*
X0017000Y0186951D01*
X0017000Y0185587D01*
X0021000Y0185587D01*
X0021000Y0189587D01*
X0019636Y0189587D01*
X0018870Y0188820D02*
X0003000Y0188820D01*
X0003000Y0187822D02*
X0017871Y0187822D01*
X0017000Y0186823D02*
X0003000Y0186823D01*
X0003000Y0185825D02*
X0017000Y0185825D01*
X0017000Y0184587D02*
X0017000Y0183223D01*
X0019636Y0180587D01*
X0021000Y0180587D01*
X0021000Y0184587D01*
X0017000Y0184587D01*
X0017000Y0183828D02*
X0003000Y0183828D01*
X0003000Y0184826D02*
X0021000Y0184826D01*
X0021000Y0184587D02*
X0021000Y0185587D01*
X0022000Y0185587D01*
X0022000Y0189587D01*
X0023364Y0189587D01*
X0026000Y0186951D01*
X0026000Y0185587D01*
X0022000Y0185587D01*
X0022000Y0184587D01*
X0026000Y0184587D01*
X0026000Y0183223D01*
X0023364Y0180587D01*
X0022000Y0180587D01*
X0022000Y0184587D01*
X0021000Y0184587D01*
X0021500Y0185087D02*
X0031500Y0185087D01*
X0041500Y0185087D01*
X0051500Y0185087D01*
X0061500Y0185087D01*
X0071500Y0185087D01*
X0081500Y0185087D01*
X0091500Y0185087D01*
X0101500Y0185087D01*
X0102000Y0184826D02*
X0107200Y0184826D01*
X0107200Y0183828D02*
X0106000Y0183828D01*
X0106000Y0183223D02*
X0106000Y0184587D01*
X0102000Y0184587D01*
X0102000Y0185587D01*
X0101000Y0185587D01*
X0101000Y0189587D01*
X0099636Y0189587D01*
X0097000Y0186951D01*
X0097000Y0185587D01*
X0101000Y0185587D01*
X0101000Y0184587D01*
X0097000Y0184587D01*
X0097000Y0183223D01*
X0099636Y0180587D01*
X0101000Y0180587D01*
X0101000Y0184587D01*
X0102000Y0184587D01*
X0102000Y0180587D01*
X0103364Y0180587D01*
X0106000Y0183223D01*
X0105606Y0182829D02*
X0107676Y0182829D01*
X0107200Y0183305D02*
X0109719Y0180787D01*
X0113281Y0180787D01*
X0115800Y0183305D01*
X0115800Y0186868D01*
X0113281Y0189387D01*
X0109719Y0189387D01*
X0107200Y0186868D01*
X0107200Y0183305D01*
X0108675Y0181831D02*
X0104608Y0181831D01*
X0103609Y0180832D02*
X0109673Y0180832D01*
X0113327Y0180832D02*
X0125506Y0180832D01*
X0125411Y0180602D02*
X0125411Y0179572D01*
X0125805Y0178620D01*
X0126533Y0177892D01*
X0127485Y0177498D01*
X0128515Y0177498D01*
X0128588Y0177528D01*
X0128411Y0177102D01*
X0128411Y0176072D01*
X0128805Y0175120D01*
X0129533Y0174392D01*
X0130485Y0173998D01*
X0131515Y0173998D01*
X0132467Y0174392D01*
X0133195Y0175120D01*
X0133589Y0176072D01*
X0133589Y0177102D01*
X0133195Y0178053D01*
X0133000Y0178248D01*
X0133000Y0191425D01*
X0133195Y0191620D01*
X0133589Y0192572D01*
X0133589Y0193602D01*
X0133195Y0194553D01*
X0132467Y0195281D01*
X0131515Y0195676D01*
X0130589Y0195676D01*
X0130589Y0196602D01*
X0130195Y0197553D01*
X0129467Y0198281D01*
X0128515Y0198676D01*
X0127485Y0198676D01*
X0126533Y0198281D01*
X0125805Y0197553D01*
X0125411Y0196602D01*
X0125411Y0195572D01*
X0125805Y0194620D01*
X0126000Y0194425D01*
X0126000Y0181748D01*
X0125805Y0181553D01*
X0125411Y0180602D01*
X0125411Y0179834D02*
X0088786Y0179834D01*
X0088695Y0180053D02*
X0087967Y0180781D01*
X0087015Y0181176D01*
X0085985Y0181176D01*
X0085033Y0180781D01*
X0084305Y0180053D01*
X0083911Y0179102D01*
X0083911Y0178072D01*
X0084305Y0177120D01*
X0084500Y0176925D01*
X0084500Y0162248D01*
X0084305Y0162053D01*
X0083911Y0161102D01*
X0083911Y0160072D01*
X0084305Y0159120D01*
X0085033Y0158392D01*
X0085985Y0157998D01*
X0087015Y0157998D01*
X0087967Y0158392D01*
X0088077Y0158502D01*
X0087911Y0158102D01*
X0087911Y0157072D01*
X0088305Y0156120D01*
X0088500Y0155925D01*
X0088500Y0148748D01*
X0088305Y0148553D01*
X0087911Y0147602D01*
X0087911Y0146572D01*
X0088305Y0145620D01*
X0089033Y0144892D01*
X0089985Y0144498D01*
X0091015Y0144498D01*
X0091967Y0144892D01*
X0092695Y0145620D01*
X0093089Y0146572D01*
X0093089Y0147498D01*
X0093911Y0147498D01*
X0093911Y0146572D01*
X0094305Y0145620D01*
X0095033Y0144892D01*
X0095985Y0144498D01*
X0097015Y0144498D01*
X0097967Y0144892D01*
X0098695Y0145620D01*
X0099089Y0146572D01*
X0099089Y0147498D01*
X0100015Y0147498D01*
X0100967Y0147892D01*
X0101695Y0148620D01*
X0102089Y0149572D01*
X0102089Y0150602D01*
X0101695Y0151553D01*
X0101500Y0151748D01*
X0101500Y0158925D01*
X0101695Y0159120D01*
X0102089Y0160072D01*
X0102089Y0161102D01*
X0101695Y0162053D01*
X0100967Y0162781D01*
X0100015Y0163176D01*
X0098985Y0163176D01*
X0098500Y0162975D01*
X0098500Y0164836D01*
X0098784Y0165120D01*
X0099178Y0166072D01*
X0099178Y0167102D01*
X0098784Y0168053D01*
X0098056Y0168781D01*
X0097104Y0169176D01*
X0096089Y0169176D01*
X0096089Y0170102D01*
X0095695Y0171053D01*
X0094967Y0171781D01*
X0094015Y0172176D01*
X0092985Y0172176D01*
X0092033Y0171781D01*
X0091305Y0171053D01*
X0090911Y0170102D01*
X0090911Y0169072D01*
X0091305Y0168120D01*
X0091500Y0167925D01*
X0091500Y0159975D01*
X0091015Y0160176D01*
X0089985Y0160176D01*
X0089033Y0159781D01*
X0088923Y0159671D01*
X0089089Y0160072D01*
X0089089Y0161102D01*
X0088695Y0162053D01*
X0088500Y0162248D01*
X0088500Y0176925D01*
X0088695Y0177120D01*
X0089089Y0178072D01*
X0089089Y0179102D01*
X0088695Y0180053D01*
X0089391Y0180832D02*
X0087844Y0180832D01*
X0088392Y0181831D02*
X0084608Y0181831D01*
X0085156Y0180832D02*
X0083609Y0180832D01*
X0083364Y0180587D02*
X0086000Y0183223D01*
X0086000Y0184587D01*
X0082000Y0184587D01*
X0082000Y0185587D01*
X0081000Y0185587D01*
X0081000Y0189587D01*
X0079636Y0189587D01*
X0077000Y0186951D01*
X0077000Y0185587D01*
X0081000Y0185587D01*
X0081000Y0184587D01*
X0077000Y0184587D01*
X0077000Y0183223D01*
X0079636Y0180587D01*
X0081000Y0180587D01*
X0081000Y0184587D01*
X0082000Y0184587D01*
X0082000Y0180587D01*
X0083364Y0180587D01*
X0084214Y0179834D02*
X0078786Y0179834D01*
X0078695Y0180053D02*
X0077967Y0180781D01*
X0077015Y0181176D01*
X0075985Y0181176D01*
X0075033Y0180781D01*
X0074305Y0180053D01*
X0073911Y0179102D01*
X0073911Y0178072D01*
X0074305Y0177120D01*
X0074500Y0176925D01*
X0074500Y0171248D01*
X0074305Y0171053D01*
X0073911Y0170102D01*
X0073911Y0169072D01*
X0074305Y0168120D01*
X0075033Y0167392D01*
X0075985Y0166998D01*
X0077015Y0166998D01*
X0077967Y0167392D01*
X0078695Y0168120D01*
X0079089Y0169072D01*
X0079089Y0170102D01*
X0078695Y0171053D01*
X0078500Y0171248D01*
X0078500Y0176925D01*
X0078695Y0177120D01*
X0079089Y0178072D01*
X0079089Y0179102D01*
X0078695Y0180053D01*
X0079391Y0180832D02*
X0077844Y0180832D01*
X0078392Y0181831D02*
X0074608Y0181831D01*
X0075156Y0180832D02*
X0073609Y0180832D01*
X0073364Y0180587D02*
X0076000Y0183223D01*
X0076000Y0184587D01*
X0072000Y0184587D01*
X0072000Y0185587D01*
X0071000Y0185587D01*
X0071000Y0189587D01*
X0069636Y0189587D01*
X0067000Y0186951D01*
X0067000Y0185587D01*
X0071000Y0185587D01*
X0071000Y0184587D01*
X0067000Y0184587D01*
X0067000Y0183223D01*
X0069636Y0180587D01*
X0071000Y0180587D01*
X0071000Y0184587D01*
X0072000Y0184587D01*
X0072000Y0180587D01*
X0073364Y0180587D01*
X0074214Y0179834D02*
X0068786Y0179834D01*
X0068695Y0180053D02*
X0067967Y0180781D01*
X0067015Y0181176D01*
X0065985Y0181176D01*
X0065033Y0180781D01*
X0064305Y0180053D01*
X0063911Y0179102D01*
X0063911Y0178072D01*
X0064305Y0177120D01*
X0064500Y0176925D01*
X0064500Y0168248D01*
X0064305Y0168053D01*
X0063911Y0167102D01*
X0063911Y0166072D01*
X0064305Y0165120D01*
X0065033Y0164392D01*
X0065985Y0163998D01*
X0067015Y0163998D01*
X0067967Y0164392D01*
X0068695Y0165120D01*
X0069089Y0166072D01*
X0069089Y0167102D01*
X0068695Y0168053D01*
X0068500Y0168248D01*
X0068500Y0176925D01*
X0068695Y0177120D01*
X0069089Y0178072D01*
X0069089Y0179102D01*
X0068695Y0180053D01*
X0069391Y0180832D02*
X0067844Y0180832D01*
X0068392Y0181831D02*
X0064608Y0181831D01*
X0065156Y0180832D02*
X0063609Y0180832D01*
X0063364Y0180587D02*
X0066000Y0183223D01*
X0066000Y0184587D01*
X0062000Y0184587D01*
X0062000Y0185587D01*
X0061000Y0185587D01*
X0061000Y0189587D01*
X0059636Y0189587D01*
X0057000Y0186951D01*
X0057000Y0185587D01*
X0061000Y0185587D01*
X0061000Y0184587D01*
X0057000Y0184587D01*
X0057000Y0183223D01*
X0059636Y0180587D01*
X0061000Y0180587D01*
X0061000Y0184587D01*
X0062000Y0184587D01*
X0062000Y0180587D01*
X0063364Y0180587D01*
X0064214Y0179834D02*
X0058786Y0179834D01*
X0058695Y0180053D02*
X0057967Y0180781D01*
X0057015Y0181176D01*
X0055985Y0181176D01*
X0055033Y0180781D01*
X0054305Y0180053D01*
X0053911Y0179102D01*
X0053911Y0178072D01*
X0054305Y0177120D01*
X0054500Y0176925D01*
X0054500Y0165248D01*
X0054305Y0165053D01*
X0053911Y0164102D01*
X0053911Y0163072D01*
X0054305Y0162120D01*
X0055033Y0161392D01*
X0055985Y0160998D01*
X0057015Y0160998D01*
X0057967Y0161392D01*
X0058695Y0162120D01*
X0059089Y0163072D01*
X0059089Y0164102D01*
X0058695Y0165053D01*
X0058500Y0165248D01*
X0058500Y0176925D01*
X0058695Y0177120D01*
X0059089Y0178072D01*
X0059089Y0179102D01*
X0058695Y0180053D01*
X0059391Y0180832D02*
X0057844Y0180832D01*
X0058392Y0181831D02*
X0054608Y0181831D01*
X0055156Y0180832D02*
X0053609Y0180832D01*
X0053364Y0180587D02*
X0056000Y0183223D01*
X0056000Y0184587D01*
X0052000Y0184587D01*
X0052000Y0185587D01*
X0051000Y0185587D01*
X0051000Y0189587D01*
X0049636Y0189587D01*
X0047000Y0186951D01*
X0047000Y0185587D01*
X0051000Y0185587D01*
X0051000Y0184587D01*
X0047000Y0184587D01*
X0047000Y0183223D01*
X0049636Y0180587D01*
X0051000Y0180587D01*
X0051000Y0184587D01*
X0052000Y0184587D01*
X0052000Y0180587D01*
X0053364Y0180587D01*
X0054214Y0179834D02*
X0048786Y0179834D01*
X0048695Y0180053D02*
X0047967Y0180781D01*
X0047015Y0181176D01*
X0045985Y0181176D01*
X0045033Y0180781D01*
X0044305Y0180053D01*
X0043911Y0179102D01*
X0043911Y0178072D01*
X0044305Y0177120D01*
X0044500Y0176925D01*
X0044500Y0159248D01*
X0044305Y0159053D01*
X0043911Y0158102D01*
X0043911Y0157072D01*
X0044305Y0156120D01*
X0045033Y0155392D01*
X0045985Y0154998D01*
X0047015Y0154998D01*
X0047967Y0155392D01*
X0048695Y0156120D01*
X0049089Y0157072D01*
X0049089Y0158102D01*
X0048695Y0159053D01*
X0048500Y0159248D01*
X0048500Y0176925D01*
X0048695Y0177120D01*
X0049089Y0178072D01*
X0049089Y0179102D01*
X0048695Y0180053D01*
X0049391Y0180832D02*
X0047844Y0180832D01*
X0048392Y0181831D02*
X0044608Y0181831D01*
X0045156Y0180832D02*
X0043609Y0180832D01*
X0043364Y0180587D02*
X0046000Y0183223D01*
X0046000Y0184587D01*
X0042000Y0184587D01*
X0042000Y0185587D01*
X0041000Y0185587D01*
X0041000Y0189587D01*
X0039636Y0189587D01*
X0037000Y0186951D01*
X0037000Y0185587D01*
X0041000Y0185587D01*
X0041000Y0184587D01*
X0037000Y0184587D01*
X0037000Y0183223D01*
X0039636Y0180587D01*
X0041000Y0180587D01*
X0041000Y0184587D01*
X0042000Y0184587D01*
X0042000Y0180587D01*
X0043364Y0180587D01*
X0044214Y0179834D02*
X0003000Y0179834D01*
X0003000Y0180832D02*
X0019391Y0180832D01*
X0018392Y0181831D02*
X0003000Y0181831D01*
X0003000Y0182829D02*
X0017394Y0182829D01*
X0021000Y0182829D02*
X0022000Y0182829D01*
X0022000Y0181831D02*
X0021000Y0181831D01*
X0021000Y0180832D02*
X0022000Y0180832D01*
X0023609Y0180832D02*
X0029391Y0180832D01*
X0029636Y0180587D02*
X0031000Y0180587D01*
X0031000Y0184587D01*
X0027000Y0184587D01*
X0027000Y0183223D01*
X0029636Y0180587D01*
X0031000Y0180832D02*
X0032000Y0180832D01*
X0032000Y0180587D02*
X0033364Y0180587D01*
X0036000Y0183223D01*
X0036000Y0184587D01*
X0032000Y0184587D01*
X0032000Y0185587D01*
X0031000Y0185587D01*
X0031000Y0189587D01*
X0029636Y0189587D01*
X0027000Y0186951D01*
X0027000Y0185587D01*
X0031000Y0185587D01*
X0031000Y0184587D01*
X0032000Y0184587D01*
X0032000Y0180587D01*
X0032000Y0181831D02*
X0031000Y0181831D01*
X0031000Y0182829D02*
X0032000Y0182829D01*
X0032000Y0183828D02*
X0031000Y0183828D01*
X0031000Y0184826D02*
X0022000Y0184826D01*
X0022000Y0183828D02*
X0021000Y0183828D01*
X0021000Y0185825D02*
X0022000Y0185825D01*
X0022000Y0186823D02*
X0021000Y0186823D01*
X0021000Y0187822D02*
X0022000Y0187822D01*
X0022000Y0188820D02*
X0021000Y0188820D01*
X0023312Y0190817D02*
X0029688Y0190817D01*
X0029719Y0190787D02*
X0033281Y0190787D01*
X0035800Y0193305D01*
X0035800Y0196868D01*
X0033281Y0199387D01*
X0029719Y0199387D01*
X0027200Y0196868D01*
X0027200Y0193305D01*
X0029719Y0190787D01*
X0028690Y0191816D02*
X0024310Y0191816D01*
X0025309Y0192814D02*
X0027691Y0192814D01*
X0027200Y0193813D02*
X0025800Y0193813D01*
X0025800Y0194811D02*
X0027200Y0194811D01*
X0027200Y0195810D02*
X0025800Y0195810D01*
X0025800Y0196808D02*
X0027200Y0196808D01*
X0028139Y0197807D02*
X0024861Y0197807D01*
X0023862Y0198805D02*
X0029138Y0198805D01*
X0033862Y0198805D02*
X0039138Y0198805D01*
X0039719Y0199387D02*
X0037200Y0196868D01*
X0037200Y0193305D01*
X0039719Y0190787D01*
X0043281Y0190787D01*
X0045800Y0193305D01*
X0045800Y0196868D01*
X0043281Y0199387D01*
X0039719Y0199387D01*
X0038139Y0197807D02*
X0034861Y0197807D01*
X0035800Y0196808D02*
X0037200Y0196808D01*
X0037200Y0195810D02*
X0035800Y0195810D01*
X0035800Y0194811D02*
X0037200Y0194811D01*
X0037200Y0193813D02*
X0035800Y0193813D01*
X0035309Y0192814D02*
X0037691Y0192814D01*
X0038690Y0191816D02*
X0034310Y0191816D01*
X0033312Y0190817D02*
X0039688Y0190817D01*
X0038870Y0188820D02*
X0034130Y0188820D01*
X0033364Y0189587D02*
X0032000Y0189587D01*
X0032000Y0185587D01*
X0036000Y0185587D01*
X0036000Y0186951D01*
X0033364Y0189587D01*
X0032000Y0188820D02*
X0031000Y0188820D01*
X0031000Y0187822D02*
X0032000Y0187822D01*
X0032000Y0186823D02*
X0031000Y0186823D01*
X0031000Y0185825D02*
X0032000Y0185825D01*
X0032000Y0184826D02*
X0041000Y0184826D01*
X0041000Y0183828D02*
X0042000Y0183828D01*
X0042000Y0184826D02*
X0051000Y0184826D01*
X0051000Y0183828D02*
X0052000Y0183828D01*
X0052000Y0184826D02*
X0061000Y0184826D01*
X0061000Y0183828D02*
X0062000Y0183828D01*
X0062000Y0184826D02*
X0071000Y0184826D01*
X0071000Y0183828D02*
X0072000Y0183828D01*
X0072000Y0184826D02*
X0081000Y0184826D01*
X0081000Y0183828D02*
X0082000Y0183828D01*
X0082000Y0184826D02*
X0091000Y0184826D01*
X0091000Y0184587D02*
X0091000Y0185587D01*
X0091000Y0189587D01*
X0089636Y0189587D01*
X0087000Y0186951D01*
X0087000Y0185587D01*
X0091000Y0185587D01*
X0092000Y0185587D01*
X0092000Y0189587D01*
X0093364Y0189587D01*
X0096000Y0186951D01*
X0096000Y0185587D01*
X0092000Y0185587D01*
X0092000Y0184587D01*
X0096000Y0184587D01*
X0096000Y0183223D01*
X0093364Y0180587D01*
X0092000Y0180587D01*
X0092000Y0184587D01*
X0091000Y0184587D01*
X0087000Y0184587D01*
X0087000Y0183223D01*
X0089636Y0180587D01*
X0091000Y0180587D01*
X0091000Y0184587D01*
X0091000Y0183828D02*
X0092000Y0183828D01*
X0092000Y0184826D02*
X0101000Y0184826D01*
X0101000Y0183828D02*
X0102000Y0183828D01*
X0102000Y0182829D02*
X0101000Y0182829D01*
X0101000Y0181831D02*
X0102000Y0181831D01*
X0102000Y0180832D02*
X0101000Y0180832D01*
X0099391Y0180832D02*
X0093609Y0180832D01*
X0094608Y0181831D02*
X0098392Y0181831D01*
X0097394Y0182829D02*
X0095606Y0182829D01*
X0096000Y0183828D02*
X0097000Y0183828D01*
X0097000Y0185825D02*
X0096000Y0185825D01*
X0096000Y0186823D02*
X0097000Y0186823D01*
X0097871Y0187822D02*
X0095129Y0187822D01*
X0094130Y0188820D02*
X0098870Y0188820D01*
X0101000Y0188820D02*
X0102000Y0188820D01*
X0102000Y0189587D02*
X0103364Y0189587D01*
X0106000Y0186951D01*
X0106000Y0185587D01*
X0102000Y0185587D01*
X0102000Y0189587D01*
X0103281Y0190787D02*
X0099719Y0190787D01*
X0097200Y0193305D01*
X0097200Y0196868D01*
X0099719Y0199387D01*
X0103281Y0199387D01*
X0105800Y0196868D01*
X0105800Y0193305D01*
X0103281Y0190787D01*
X0103312Y0190817D02*
X0107931Y0190817D01*
X0107962Y0190787D02*
X0115038Y0190787D01*
X0115800Y0191548D01*
X0115800Y0198625D01*
X0115038Y0199387D01*
X0107962Y0199387D01*
X0107200Y0198625D01*
X0107200Y0191548D01*
X0107962Y0190787D01*
X0107200Y0191816D02*
X0104310Y0191816D01*
X0105309Y0192814D02*
X0107200Y0192814D01*
X0107200Y0193813D02*
X0105800Y0193813D01*
X0105800Y0194811D02*
X0107200Y0194811D01*
X0107200Y0195810D02*
X0105800Y0195810D01*
X0105800Y0196808D02*
X0107200Y0196808D01*
X0107200Y0197807D02*
X0104861Y0197807D01*
X0103862Y0198805D02*
X0107380Y0198805D01*
X0115620Y0198805D02*
X0176500Y0198805D01*
X0176500Y0197807D02*
X0129941Y0197807D01*
X0130503Y0196808D02*
X0157403Y0196808D01*
X0157471Y0196876D02*
X0156711Y0196116D01*
X0156300Y0195124D01*
X0156300Y0173705D01*
X0151982Y0169387D01*
X0150645Y0169387D01*
X0149064Y0168732D01*
X0147855Y0167522D01*
X0147200Y0165942D01*
X0147200Y0164231D01*
X0147855Y0162651D01*
X0149064Y0161441D01*
X0150645Y0160787D01*
X0152355Y0160787D01*
X0153936Y0161441D01*
X0155145Y0162651D01*
X0155800Y0164231D01*
X0155800Y0165568D01*
X0160529Y0170298D01*
X0161289Y0171057D01*
X0161700Y0172050D01*
X0161700Y0195124D01*
X0161289Y0196116D01*
X0160529Y0196876D01*
X0159537Y0197287D01*
X0158463Y0197287D01*
X0157471Y0196876D01*
X0156584Y0195810D02*
X0130589Y0195810D01*
X0132937Y0194811D02*
X0156300Y0194811D01*
X0156300Y0193813D02*
X0133502Y0193813D01*
X0133589Y0192814D02*
X0156300Y0192814D01*
X0156300Y0191816D02*
X0133276Y0191816D01*
X0133000Y0190817D02*
X0156300Y0190817D01*
X0156300Y0189819D02*
X0133000Y0189819D01*
X0133000Y0188820D02*
X0149277Y0188820D01*
X0149064Y0188732D02*
X0150645Y0189387D01*
X0152355Y0189387D01*
X0153936Y0188732D01*
X0155145Y0187522D01*
X0155800Y0185942D01*
X0155800Y0184231D01*
X0155145Y0182651D01*
X0153936Y0181441D01*
X0152355Y0180787D01*
X0150645Y0180787D01*
X0149064Y0181441D01*
X0147855Y0182651D01*
X0147200Y0184231D01*
X0147200Y0185942D01*
X0147855Y0187522D01*
X0149064Y0188732D01*
X0148154Y0187822D02*
X0133000Y0187822D01*
X0133000Y0186823D02*
X0147565Y0186823D01*
X0147200Y0185825D02*
X0133000Y0185825D01*
X0133000Y0184826D02*
X0147200Y0184826D01*
X0147367Y0183828D02*
X0133000Y0183828D01*
X0133000Y0182829D02*
X0147781Y0182829D01*
X0148675Y0181831D02*
X0133000Y0181831D01*
X0133000Y0180832D02*
X0150535Y0180832D01*
X0150645Y0179387D02*
X0149064Y0178732D01*
X0147855Y0177522D01*
X0147200Y0175942D01*
X0147200Y0174231D01*
X0147855Y0172651D01*
X0149064Y0171441D01*
X0150645Y0170787D01*
X0152355Y0170787D01*
X0153936Y0171441D01*
X0155145Y0172651D01*
X0155800Y0174231D01*
X0155800Y0175942D01*
X0155145Y0177522D01*
X0153936Y0178732D01*
X0152355Y0179387D01*
X0150645Y0179387D01*
X0149313Y0178835D02*
X0133000Y0178835D01*
X0133000Y0179834D02*
X0156300Y0179834D01*
X0156300Y0180832D02*
X0152465Y0180832D01*
X0154325Y0181831D02*
X0156300Y0181831D01*
X0156300Y0182829D02*
X0155219Y0182829D01*
X0155633Y0183828D02*
X0156300Y0183828D01*
X0156300Y0184826D02*
X0155800Y0184826D01*
X0155800Y0185825D02*
X0156300Y0185825D01*
X0156300Y0186823D02*
X0155435Y0186823D01*
X0154846Y0187822D02*
X0156300Y0187822D01*
X0156300Y0188820D02*
X0153723Y0188820D01*
X0160597Y0196808D02*
X0176500Y0196808D01*
X0176500Y0195810D02*
X0161416Y0195810D01*
X0161700Y0194811D02*
X0176500Y0194811D01*
X0176500Y0193813D02*
X0161700Y0193813D01*
X0161700Y0192814D02*
X0176500Y0192814D01*
X0176500Y0191816D02*
X0161700Y0191816D01*
X0161700Y0190817D02*
X0176500Y0190817D01*
X0176500Y0189819D02*
X0161700Y0189819D01*
X0161700Y0188820D02*
X0176500Y0188820D01*
X0176500Y0187822D02*
X0161700Y0187822D01*
X0161700Y0186823D02*
X0176500Y0186823D01*
X0176500Y0185825D02*
X0161700Y0185825D01*
X0161700Y0184826D02*
X0176500Y0184826D01*
X0176500Y0183828D02*
X0161700Y0183828D01*
X0161700Y0182829D02*
X0176500Y0182829D01*
X0176500Y0181831D02*
X0161700Y0181831D01*
X0161700Y0180832D02*
X0176500Y0180832D01*
X0176500Y0179834D02*
X0161700Y0179834D01*
X0161700Y0178835D02*
X0176500Y0178835D01*
X0176500Y0177837D02*
X0161700Y0177837D01*
X0161700Y0176838D02*
X0176500Y0176838D01*
X0176500Y0175839D02*
X0161700Y0175839D01*
X0161700Y0174841D02*
X0176500Y0174841D01*
X0176500Y0173842D02*
X0161700Y0173842D01*
X0161700Y0172844D02*
X0176500Y0172844D01*
X0176500Y0171845D02*
X0161615Y0171845D01*
X0161079Y0170847D02*
X0176500Y0170847D01*
X0176500Y0169848D02*
X0160080Y0169848D01*
X0159082Y0168850D02*
X0176500Y0168850D01*
X0176500Y0167851D02*
X0158083Y0167851D01*
X0157085Y0166853D02*
X0176500Y0166853D01*
X0176500Y0165854D02*
X0156086Y0165854D01*
X0155800Y0164856D02*
X0176500Y0164856D01*
X0176500Y0163857D02*
X0155645Y0163857D01*
X0155231Y0162859D02*
X0176500Y0162859D01*
X0176500Y0161860D02*
X0154355Y0161860D01*
X0152537Y0160862D02*
X0176500Y0160862D01*
X0176500Y0159863D02*
X0102003Y0159863D01*
X0102089Y0160862D02*
X0150463Y0160862D01*
X0148645Y0161860D02*
X0101775Y0161860D01*
X0100780Y0162859D02*
X0147768Y0162859D01*
X0147355Y0163857D02*
X0098500Y0163857D01*
X0098520Y0164856D02*
X0147200Y0164856D01*
X0147200Y0165854D02*
X0099088Y0165854D01*
X0099178Y0166853D02*
X0147577Y0166853D01*
X0148184Y0167851D02*
X0098867Y0167851D01*
X0097890Y0168850D02*
X0149349Y0168850D01*
X0150499Y0170847D02*
X0095780Y0170847D01*
X0096089Y0169848D02*
X0152443Y0169848D01*
X0152501Y0170847D02*
X0153442Y0170847D01*
X0154340Y0171845D02*
X0154440Y0171845D01*
X0155225Y0172844D02*
X0155439Y0172844D01*
X0155639Y0173842D02*
X0156300Y0173842D01*
X0156300Y0174841D02*
X0155800Y0174841D01*
X0155800Y0175839D02*
X0156300Y0175839D01*
X0156300Y0176838D02*
X0155429Y0176838D01*
X0154831Y0177837D02*
X0156300Y0177837D01*
X0156300Y0178835D02*
X0153687Y0178835D01*
X0148169Y0177837D02*
X0133285Y0177837D01*
X0133589Y0176838D02*
X0147571Y0176838D01*
X0147200Y0175839D02*
X0133493Y0175839D01*
X0132916Y0174841D02*
X0147200Y0174841D01*
X0147361Y0173842D02*
X0088500Y0173842D01*
X0088500Y0172844D02*
X0147775Y0172844D01*
X0148660Y0171845D02*
X0094812Y0171845D01*
X0093500Y0169587D02*
X0093500Y0150087D01*
X0093089Y0146883D02*
X0093911Y0146883D01*
X0094196Y0145884D02*
X0092804Y0145884D01*
X0091952Y0144886D02*
X0095048Y0144886D01*
X0096500Y0147087D02*
X0096500Y0166176D01*
X0096589Y0166587D01*
X0091500Y0166853D02*
X0088500Y0166853D01*
X0088500Y0167851D02*
X0091500Y0167851D01*
X0091003Y0168850D02*
X0088500Y0168850D01*
X0088500Y0169848D02*
X0090911Y0169848D01*
X0091220Y0170847D02*
X0088500Y0170847D01*
X0088500Y0171845D02*
X0092188Y0171845D01*
X0088500Y0174841D02*
X0129084Y0174841D01*
X0128507Y0175839D02*
X0088500Y0175839D01*
X0088500Y0176838D02*
X0128411Y0176838D01*
X0126667Y0177837D02*
X0088992Y0177837D01*
X0089089Y0178835D02*
X0125716Y0178835D01*
X0128000Y0180087D02*
X0128000Y0196087D01*
X0126059Y0197807D02*
X0115800Y0197807D01*
X0115800Y0196808D02*
X0125497Y0196808D01*
X0125411Y0195810D02*
X0115800Y0195810D01*
X0115800Y0194811D02*
X0125726Y0194811D01*
X0126000Y0193813D02*
X0115800Y0193813D01*
X0115800Y0192814D02*
X0126000Y0192814D01*
X0126000Y0191816D02*
X0115800Y0191816D01*
X0115069Y0190817D02*
X0126000Y0190817D01*
X0126000Y0189819D02*
X0003000Y0189819D01*
X0003000Y0178835D02*
X0043911Y0178835D01*
X0044008Y0177837D02*
X0003000Y0177837D01*
X0003000Y0176838D02*
X0044500Y0176838D01*
X0044500Y0175839D02*
X0003000Y0175839D01*
X0003000Y0174841D02*
X0044500Y0174841D01*
X0044500Y0173842D02*
X0003000Y0173842D01*
X0003000Y0172844D02*
X0044500Y0172844D01*
X0044500Y0171845D02*
X0003000Y0171845D01*
X0003000Y0170847D02*
X0044500Y0170847D01*
X0044500Y0169848D02*
X0003000Y0169848D01*
X0003000Y0168850D02*
X0044500Y0168850D01*
X0044500Y0167851D02*
X0003000Y0167851D01*
X0003000Y0166853D02*
X0044500Y0166853D01*
X0044500Y0165854D02*
X0042790Y0165854D01*
X0042967Y0165781D02*
X0042015Y0166176D01*
X0040985Y0166176D01*
X0040033Y0165781D01*
X0039305Y0165053D01*
X0038911Y0164102D01*
X0038911Y0163072D01*
X0039305Y0162120D01*
X0039500Y0161925D01*
X0039500Y0148885D01*
X0037400Y0146785D01*
X0037400Y0143388D01*
X0039802Y0140987D01*
X0043198Y0140987D01*
X0045600Y0143388D01*
X0045600Y0146785D01*
X0043500Y0148885D01*
X0043500Y0161925D01*
X0043695Y0162120D01*
X0044089Y0163072D01*
X0044089Y0164102D01*
X0043695Y0165053D01*
X0042967Y0165781D01*
X0043777Y0164856D02*
X0044500Y0164856D01*
X0044500Y0163857D02*
X0044089Y0163857D01*
X0044001Y0162859D02*
X0044500Y0162859D01*
X0044500Y0161860D02*
X0043500Y0161860D01*
X0043500Y0160862D02*
X0044500Y0160862D01*
X0044500Y0159863D02*
X0043500Y0159863D01*
X0043500Y0158865D02*
X0044227Y0158865D01*
X0043911Y0157866D02*
X0043500Y0157866D01*
X0043500Y0156868D02*
X0043995Y0156868D01*
X0043500Y0155869D02*
X0044556Y0155869D01*
X0043500Y0154871D02*
X0049500Y0154871D01*
X0049500Y0155869D02*
X0048444Y0155869D01*
X0049005Y0156868D02*
X0049500Y0156868D01*
X0049500Y0157866D02*
X0049089Y0157866D01*
X0048773Y0158865D02*
X0049500Y0158865D01*
X0049500Y0159863D02*
X0048500Y0159863D01*
X0048500Y0160862D02*
X0049500Y0160862D01*
X0049500Y0161860D02*
X0048500Y0161860D01*
X0048500Y0162859D02*
X0049500Y0162859D01*
X0049500Y0163857D02*
X0048500Y0163857D01*
X0048500Y0164856D02*
X0049500Y0164856D01*
X0049500Y0165854D02*
X0048500Y0165854D01*
X0048500Y0166853D02*
X0049500Y0166853D01*
X0049500Y0167851D02*
X0048500Y0167851D01*
X0049305Y0168120D02*
X0048911Y0169072D01*
X0048911Y0170102D01*
X0049305Y0171053D01*
X0050033Y0171781D01*
X0050985Y0172176D01*
X0052015Y0172176D01*
X0052967Y0171781D01*
X0053695Y0171053D01*
X0054089Y0170102D01*
X0054089Y0169072D01*
X0053695Y0168120D01*
X0053500Y0167925D01*
X0053500Y0148885D01*
X0054500Y0147885D01*
X0054500Y0152925D01*
X0054305Y0153120D01*
X0053911Y0154072D01*
X0053911Y0155102D01*
X0054305Y0156053D01*
X0055033Y0156781D01*
X0055985Y0157176D01*
X0057015Y0157176D01*
X0057967Y0156781D01*
X0058695Y0156053D01*
X0059089Y0155102D01*
X0059089Y0154072D01*
X0058695Y0153120D01*
X0058500Y0152925D01*
X0058500Y0139258D01*
X0057328Y0138087D01*
X0055600Y0136358D01*
X0055600Y0133388D01*
X0053198Y0130987D01*
X0049802Y0130987D01*
X0047400Y0133388D01*
X0047400Y0136785D01*
X0049802Y0139187D01*
X0052772Y0139187D01*
X0054500Y0140915D01*
X0054500Y0142288D01*
X0053198Y0140987D01*
X0049802Y0140987D01*
X0047400Y0143388D01*
X0047400Y0146785D01*
X0049500Y0148885D01*
X0049500Y0167925D01*
X0049305Y0168120D01*
X0049003Y0168850D02*
X0048500Y0168850D01*
X0048500Y0169848D02*
X0048911Y0169848D01*
X0049220Y0170847D02*
X0048500Y0170847D01*
X0048500Y0171845D02*
X0050188Y0171845D01*
X0048500Y0172844D02*
X0054500Y0172844D01*
X0054500Y0173842D02*
X0048500Y0173842D01*
X0048500Y0174841D02*
X0054500Y0174841D01*
X0054500Y0175839D02*
X0048500Y0175839D01*
X0048500Y0176838D02*
X0054500Y0176838D01*
X0054008Y0177837D02*
X0048992Y0177837D01*
X0049089Y0178835D02*
X0053911Y0178835D01*
X0056500Y0178587D02*
X0056500Y0163587D01*
X0058435Y0161860D02*
X0069500Y0161860D01*
X0069500Y0160862D02*
X0053500Y0160862D01*
X0053500Y0161860D02*
X0054565Y0161860D01*
X0053999Y0162859D02*
X0053500Y0162859D01*
X0053500Y0163857D02*
X0053911Y0163857D01*
X0054223Y0164856D02*
X0053500Y0164856D01*
X0053500Y0165854D02*
X0054500Y0165854D01*
X0054500Y0166853D02*
X0053500Y0166853D01*
X0053500Y0167851D02*
X0054500Y0167851D01*
X0054500Y0168850D02*
X0053997Y0168850D01*
X0054089Y0169848D02*
X0054500Y0169848D01*
X0054500Y0170847D02*
X0053780Y0170847D01*
X0054500Y0171845D02*
X0052812Y0171845D01*
X0051500Y0169587D02*
X0051500Y0145087D01*
X0054102Y0141890D02*
X0054500Y0141890D01*
X0054477Y0140892D02*
X0003000Y0140892D01*
X0003000Y0141890D02*
X0028898Y0141890D01*
X0029802Y0140987D02*
X0033198Y0140987D01*
X0035600Y0143388D01*
X0035600Y0146785D01*
X0033500Y0148885D01*
X0033500Y0158925D01*
X0033695Y0159120D01*
X0034089Y0160072D01*
X0034089Y0161102D01*
X0033695Y0162053D01*
X0032967Y0162781D01*
X0032015Y0163176D01*
X0030985Y0163176D01*
X0030033Y0162781D01*
X0029305Y0162053D01*
X0028911Y0161102D01*
X0028911Y0160072D01*
X0029305Y0159120D01*
X0029500Y0158925D01*
X0029500Y0148885D01*
X0027400Y0146785D01*
X0027400Y0143388D01*
X0029802Y0140987D01*
X0029802Y0139187D02*
X0027400Y0136785D01*
X0027400Y0133388D01*
X0029802Y0130987D01*
X0033198Y0130987D01*
X0035600Y0133388D01*
X0035600Y0136785D01*
X0033198Y0139187D01*
X0029802Y0139187D01*
X0029510Y0138895D02*
X0003000Y0138895D01*
X0003000Y0139893D02*
X0053478Y0139893D01*
X0049510Y0138895D02*
X0043490Y0138895D01*
X0043198Y0139187D02*
X0039802Y0139187D01*
X0037400Y0136785D01*
X0037400Y0133388D01*
X0039802Y0130987D01*
X0043198Y0130987D01*
X0045600Y0133388D01*
X0045600Y0136785D01*
X0043198Y0139187D01*
X0044489Y0137896D02*
X0048511Y0137896D01*
X0047513Y0136898D02*
X0045487Y0136898D01*
X0045600Y0135899D02*
X0047400Y0135899D01*
X0047400Y0134901D02*
X0045600Y0134901D01*
X0045600Y0133902D02*
X0047400Y0133902D01*
X0047885Y0132904D02*
X0045115Y0132904D01*
X0044117Y0131905D02*
X0048883Y0131905D01*
X0051500Y0135087D02*
X0056500Y0140087D01*
X0056500Y0154587D01*
X0059089Y0154871D02*
X0069500Y0154871D01*
X0069500Y0155869D02*
X0058771Y0155869D01*
X0057758Y0156868D02*
X0069500Y0156868D01*
X0069500Y0157866D02*
X0053500Y0157866D01*
X0053500Y0156868D02*
X0055242Y0156868D01*
X0054229Y0155869D02*
X0053500Y0155869D01*
X0053500Y0154871D02*
X0053911Y0154871D01*
X0053994Y0153872D02*
X0053500Y0153872D01*
X0053500Y0152874D02*
X0054500Y0152874D01*
X0054500Y0151875D02*
X0053500Y0151875D01*
X0053500Y0150877D02*
X0054500Y0150877D01*
X0054500Y0149878D02*
X0053500Y0149878D01*
X0053505Y0148880D02*
X0054500Y0148880D01*
X0058500Y0148880D02*
X0069495Y0148880D01*
X0069500Y0148885D02*
X0067400Y0146785D01*
X0067400Y0143388D01*
X0069802Y0140987D01*
X0073198Y0140987D01*
X0075600Y0143388D01*
X0075600Y0146785D01*
X0073500Y0148885D01*
X0073500Y0173925D01*
X0073695Y0174120D01*
X0074089Y0175072D01*
X0074089Y0176102D01*
X0073695Y0177053D01*
X0072967Y0177781D01*
X0072015Y0178176D01*
X0070985Y0178176D01*
X0070033Y0177781D01*
X0069305Y0177053D01*
X0068911Y0176102D01*
X0068911Y0175072D01*
X0069305Y0174120D01*
X0069500Y0173925D01*
X0069500Y0148885D01*
X0069500Y0149878D02*
X0058500Y0149878D01*
X0058500Y0150877D02*
X0069500Y0150877D01*
X0069500Y0151875D02*
X0058500Y0151875D01*
X0058500Y0152874D02*
X0069500Y0152874D01*
X0069500Y0153872D02*
X0059006Y0153872D01*
X0058500Y0147881D02*
X0068496Y0147881D01*
X0067498Y0146883D02*
X0058500Y0146883D01*
X0058500Y0145884D02*
X0067400Y0145884D01*
X0067400Y0144886D02*
X0058500Y0144886D01*
X0058500Y0143887D02*
X0067400Y0143887D01*
X0067900Y0142889D02*
X0058500Y0142889D01*
X0058500Y0141890D02*
X0068898Y0141890D01*
X0069802Y0139187D02*
X0067400Y0136785D01*
X0067400Y0133388D01*
X0069802Y0130987D01*
X0073198Y0130987D01*
X0075600Y0133388D01*
X0075600Y0136785D01*
X0073198Y0139187D01*
X0069802Y0139187D01*
X0069510Y0138895D02*
X0058136Y0138895D01*
X0058500Y0139893D02*
X0176500Y0139893D01*
X0176500Y0138895D02*
X0128490Y0138895D01*
X0128198Y0139187D02*
X0124802Y0139187D01*
X0122400Y0136785D01*
X0122400Y0133388D01*
X0124802Y0130987D01*
X0128198Y0130987D01*
X0130600Y0133388D01*
X0130600Y0136785D01*
X0128198Y0139187D01*
X0128198Y0140987D02*
X0130600Y0143388D01*
X0130600Y0146785D01*
X0128198Y0149187D01*
X0124802Y0149187D01*
X0122400Y0146785D01*
X0122400Y0143388D01*
X0124802Y0140987D01*
X0128198Y0140987D01*
X0129102Y0141890D02*
X0176500Y0141890D01*
X0176500Y0140892D02*
X0058500Y0140892D01*
X0057138Y0137896D02*
X0068511Y0137896D01*
X0067513Y0136898D02*
X0056139Y0136898D01*
X0055600Y0135899D02*
X0067400Y0135899D01*
X0067400Y0134901D02*
X0055600Y0134901D01*
X0055600Y0133902D02*
X0067400Y0133902D01*
X0067885Y0132904D02*
X0055115Y0132904D01*
X0054117Y0131905D02*
X0068883Y0131905D01*
X0068780Y0128568D02*
X0068019Y0127806D01*
X0068019Y0122367D01*
X0068780Y0121606D01*
X0074220Y0121606D01*
X0074981Y0122367D01*
X0074981Y0127806D01*
X0074220Y0128568D01*
X0068780Y0128568D01*
X0068124Y0127911D02*
X0003000Y0127911D01*
X0003000Y0128909D02*
X0182333Y0128909D01*
X0182200Y0129908D02*
X0003000Y0129908D01*
X0003000Y0130906D02*
X0182200Y0130906D01*
X0182599Y0131905D02*
X0129117Y0131905D01*
X0130115Y0132904D02*
X0183236Y0132904D01*
X0182747Y0127911D02*
X0084876Y0127911D01*
X0084981Y0127806D02*
X0084220Y0128568D01*
X0078780Y0128568D01*
X0078019Y0127806D01*
X0078019Y0122367D01*
X0078780Y0121606D01*
X0084220Y0121606D01*
X0084981Y0122367D01*
X0084981Y0127806D01*
X0084981Y0126912D02*
X0183593Y0126912D01*
X0185337Y0125914D02*
X0084981Y0125914D01*
X0084981Y0124915D02*
X0230000Y0124915D01*
X0230000Y0123917D02*
X0208751Y0123917D01*
X0208281Y0124387D02*
X0204719Y0124387D01*
X0202200Y0121868D01*
X0202200Y0118305D01*
X0204719Y0115787D01*
X0208281Y0115787D01*
X0210800Y0118305D01*
X0210800Y0121868D01*
X0208281Y0124387D01*
X0208408Y0125914D02*
X0230000Y0125914D01*
X0230000Y0126912D02*
X0209407Y0126912D01*
X0210405Y0127911D02*
X0230000Y0127911D01*
X0230000Y0128909D02*
X0210800Y0128909D01*
X0210800Y0129908D02*
X0230000Y0129908D01*
X0230000Y0130906D02*
X0210800Y0130906D01*
X0210763Y0131905D02*
X0230000Y0131905D01*
X0230000Y0132904D02*
X0209764Y0132904D01*
X0203236Y0132904D02*
X0199764Y0132904D01*
X0200763Y0131905D02*
X0202237Y0131905D01*
X0202200Y0130906D02*
X0200800Y0130906D01*
X0200800Y0129908D02*
X0202200Y0129908D01*
X0202200Y0128909D02*
X0200800Y0128909D01*
X0200405Y0127911D02*
X0202595Y0127911D01*
X0203593Y0126912D02*
X0199407Y0126912D01*
X0198408Y0125914D02*
X0204592Y0125914D01*
X0204249Y0123917D02*
X0198751Y0123917D01*
X0198281Y0124387D02*
X0194719Y0124387D01*
X0192200Y0121868D01*
X0192200Y0118305D01*
X0193419Y0117087D01*
X0189581Y0117087D01*
X0190145Y0117651D01*
X0190800Y0119231D01*
X0190800Y0120942D01*
X0190145Y0122522D01*
X0188936Y0123732D01*
X0187355Y0124387D01*
X0185645Y0124387D01*
X0184064Y0123732D01*
X0182855Y0122522D01*
X0182200Y0120942D01*
X0182200Y0119231D01*
X0182855Y0117651D01*
X0183419Y0117087D01*
X0182672Y0117087D01*
X0181500Y0115915D01*
X0179761Y0114176D01*
X0179485Y0114176D01*
X0178533Y0113781D01*
X0177805Y0113053D01*
X0177411Y0112102D01*
X0177411Y0111072D01*
X0177805Y0110120D01*
X0178533Y0109392D01*
X0179485Y0108998D01*
X0180515Y0108998D01*
X0181467Y0109392D01*
X0182195Y0110120D01*
X0182200Y0110133D01*
X0182200Y0109231D01*
X0182855Y0107651D01*
X0184064Y0106441D01*
X0185645Y0105787D01*
X0187355Y0105787D01*
X0188936Y0106441D01*
X0190145Y0107651D01*
X0190800Y0109231D01*
X0190800Y0110942D01*
X0190145Y0112522D01*
X0189581Y0113087D01*
X0193419Y0113087D01*
X0192200Y0111868D01*
X0192200Y0108305D01*
X0194719Y0105787D01*
X0198281Y0105787D01*
X0200800Y0108305D01*
X0200800Y0111868D01*
X0199581Y0113087D01*
X0199839Y0113087D01*
X0200033Y0112892D01*
X0200985Y0112498D01*
X0202015Y0112498D01*
X0202967Y0112892D01*
X0203695Y0113620D01*
X0204089Y0114572D01*
X0204089Y0115602D01*
X0203695Y0116553D01*
X0202967Y0117281D01*
X0202015Y0117676D01*
X0200985Y0117676D01*
X0200033Y0117281D01*
X0199839Y0117087D01*
X0199581Y0117087D01*
X0200800Y0118305D01*
X0200800Y0121868D01*
X0198281Y0124387D01*
X0199749Y0122918D02*
X0203251Y0122918D01*
X0202252Y0121920D02*
X0200748Y0121920D01*
X0200800Y0120921D02*
X0202200Y0120921D01*
X0202200Y0119923D02*
X0200800Y0119923D01*
X0200800Y0118924D02*
X0202200Y0118924D01*
X0202580Y0117926D02*
X0200420Y0117926D01*
X0201500Y0115087D02*
X0183500Y0115087D01*
X0180000Y0111587D01*
X0178896Y0113932D02*
X0144981Y0113932D01*
X0144981Y0114930D02*
X0180515Y0114930D01*
X0181500Y0115915D02*
X0181500Y0115915D01*
X0181514Y0115929D02*
X0144981Y0115929D01*
X0144981Y0116927D02*
X0182512Y0116927D01*
X0182741Y0117926D02*
X0144981Y0117926D01*
X0144981Y0117960D02*
X0144451Y0119240D01*
X0143472Y0120219D01*
X0142192Y0120749D01*
X0140808Y0120749D01*
X0139528Y0120219D01*
X0138549Y0119240D01*
X0138019Y0117960D01*
X0138019Y0114858D01*
X0137700Y0114539D01*
X0137700Y0086299D01*
X0137411Y0085602D01*
X0137411Y0084572D01*
X0137805Y0083620D01*
X0138533Y0082892D01*
X0139485Y0082498D01*
X0140515Y0082498D01*
X0141467Y0082892D01*
X0142195Y0083620D01*
X0142589Y0084572D01*
X0142589Y0085602D01*
X0142300Y0086299D01*
X0142300Y0109469D01*
X0143472Y0109954D01*
X0144451Y0110934D01*
X0144981Y0112213D01*
X0144981Y0117960D01*
X0144582Y0118924D02*
X0182327Y0118924D01*
X0182200Y0119923D02*
X0143768Y0119923D01*
X0139232Y0119923D02*
X0133768Y0119923D01*
X0133472Y0120219D02*
X0132192Y0120749D01*
X0130808Y0120749D01*
X0129528Y0120219D01*
X0128549Y0119240D01*
X0128019Y0117960D01*
X0128019Y0112213D01*
X0128549Y0110934D01*
X0129528Y0109954D01*
X0130808Y0109424D01*
X0132192Y0109424D01*
X0133472Y0109954D01*
X0134451Y0110934D01*
X0134981Y0112213D01*
X0134981Y0117960D01*
X0134451Y0119240D01*
X0133472Y0120219D01*
X0134582Y0118924D02*
X0138418Y0118924D01*
X0138019Y0117926D02*
X0134981Y0117926D01*
X0134981Y0116927D02*
X0138019Y0116927D01*
X0138019Y0115929D02*
X0134981Y0115929D01*
X0134981Y0114930D02*
X0138019Y0114930D01*
X0137700Y0113932D02*
X0134981Y0113932D01*
X0134981Y0112933D02*
X0137700Y0112933D01*
X0137700Y0111935D02*
X0134866Y0111935D01*
X0134452Y0110936D02*
X0137700Y0110936D01*
X0137700Y0109938D02*
X0133432Y0109938D01*
X0129568Y0109938D02*
X0123432Y0109938D01*
X0123472Y0109954D02*
X0124451Y0110934D01*
X0124981Y0112213D01*
X0124981Y0117960D01*
X0124451Y0119240D01*
X0123472Y0120219D01*
X0122192Y0120749D01*
X0120808Y0120749D01*
X0119528Y0120219D01*
X0118549Y0119240D01*
X0118019Y0117960D01*
X0118019Y0112213D01*
X0118549Y0110934D01*
X0119528Y0109954D01*
X0120808Y0109424D01*
X0122192Y0109424D01*
X0123472Y0109954D01*
X0124452Y0110936D02*
X0128548Y0110936D01*
X0128134Y0111935D02*
X0124866Y0111935D01*
X0124981Y0112933D02*
X0128019Y0112933D01*
X0128019Y0113932D02*
X0124981Y0113932D01*
X0124981Y0114930D02*
X0128019Y0114930D01*
X0128019Y0115929D02*
X0124981Y0115929D01*
X0124981Y0116927D02*
X0128019Y0116927D01*
X0128019Y0117926D02*
X0124981Y0117926D01*
X0124582Y0118924D02*
X0128418Y0118924D01*
X0129232Y0119923D02*
X0123768Y0119923D01*
X0119232Y0119923D02*
X0113768Y0119923D01*
X0113472Y0120219D02*
X0112192Y0120749D01*
X0110808Y0120749D01*
X0109528Y0120219D01*
X0108549Y0119240D01*
X0108019Y0117960D01*
X0108019Y0112213D01*
X0108549Y0110934D01*
X0109528Y0109954D01*
X0110808Y0109424D01*
X0112192Y0109424D01*
X0113472Y0109954D01*
X0114451Y0110934D01*
X0114981Y0112213D01*
X0114981Y0117960D01*
X0114451Y0119240D01*
X0113472Y0120219D01*
X0114582Y0118924D02*
X0118418Y0118924D01*
X0118019Y0117926D02*
X0114981Y0117926D01*
X0114981Y0116927D02*
X0118019Y0116927D01*
X0118019Y0115929D02*
X0114981Y0115929D01*
X0114981Y0114930D02*
X0118019Y0114930D01*
X0118019Y0113932D02*
X0114981Y0113932D01*
X0114981Y0112933D02*
X0118019Y0112933D01*
X0118134Y0111935D02*
X0114866Y0111935D01*
X0114452Y0110936D02*
X0118548Y0110936D01*
X0119568Y0109938D02*
X0113432Y0109938D01*
X0109568Y0109938D02*
X0103432Y0109938D01*
X0103472Y0109954D02*
X0104451Y0110934D01*
X0104981Y0112213D01*
X0104981Y0117960D01*
X0104451Y0119240D01*
X0103472Y0120219D01*
X0102192Y0120749D01*
X0100808Y0120749D01*
X0099528Y0120219D01*
X0098549Y0119240D01*
X0098019Y0117960D01*
X0098019Y0112213D01*
X0098549Y0110934D01*
X0099528Y0109954D01*
X0100808Y0109424D01*
X0102192Y0109424D01*
X0103472Y0109954D01*
X0104452Y0110936D02*
X0108548Y0110936D01*
X0108134Y0111935D02*
X0104866Y0111935D01*
X0104981Y0112933D02*
X0108019Y0112933D01*
X0108019Y0113932D02*
X0104981Y0113932D01*
X0104981Y0114930D02*
X0108019Y0114930D01*
X0108019Y0115929D02*
X0104981Y0115929D01*
X0104981Y0116927D02*
X0108019Y0116927D01*
X0108019Y0117926D02*
X0104981Y0117926D01*
X0104582Y0118924D02*
X0108418Y0118924D01*
X0109232Y0119923D02*
X0103768Y0119923D01*
X0099232Y0119923D02*
X0093768Y0119923D01*
X0093472Y0120219D02*
X0092192Y0120749D01*
X0090808Y0120749D01*
X0089528Y0120219D01*
X0088549Y0119240D01*
X0088019Y0117960D01*
X0088019Y0112213D01*
X0088549Y0110934D01*
X0089528Y0109954D01*
X0090808Y0109424D01*
X0092192Y0109424D01*
X0093472Y0109954D01*
X0093638Y0110120D01*
X0104500Y0099258D01*
X0104500Y0095748D01*
X0104305Y0095553D01*
X0103911Y0094602D01*
X0103911Y0093572D01*
X0104305Y0092620D01*
X0105033Y0091892D01*
X0105985Y0091498D01*
X0107015Y0091498D01*
X0107967Y0091892D01*
X0108695Y0092620D01*
X0109089Y0093572D01*
X0109089Y0094602D01*
X0108695Y0095553D01*
X0108500Y0095748D01*
X0108500Y0100915D01*
X0107328Y0102087D01*
X0094981Y0114434D01*
X0094981Y0117960D01*
X0094451Y0119240D01*
X0093472Y0120219D01*
X0094582Y0118924D02*
X0098418Y0118924D01*
X0098019Y0117926D02*
X0094981Y0117926D01*
X0094981Y0116927D02*
X0098019Y0116927D01*
X0098019Y0115929D02*
X0094981Y0115929D01*
X0094981Y0114930D02*
X0098019Y0114930D01*
X0098019Y0113932D02*
X0095483Y0113932D01*
X0096482Y0112933D02*
X0098019Y0112933D01*
X0098134Y0111935D02*
X0097480Y0111935D01*
X0098479Y0110936D02*
X0098548Y0110936D01*
X0099477Y0109938D02*
X0099568Y0109938D01*
X0100476Y0108939D02*
X0137700Y0108939D01*
X0137700Y0107941D02*
X0101474Y0107941D01*
X0102473Y0106942D02*
X0137700Y0106942D01*
X0137700Y0105944D02*
X0103471Y0105944D01*
X0104470Y0104945D02*
X0137700Y0104945D01*
X0137700Y0103947D02*
X0105468Y0103947D01*
X0106467Y0102948D02*
X0137700Y0102948D01*
X0137700Y0101950D02*
X0107465Y0101950D01*
X0108464Y0100951D02*
X0137700Y0100951D01*
X0137700Y0099953D02*
X0108500Y0099953D01*
X0108500Y0098954D02*
X0137700Y0098954D01*
X0137700Y0097956D02*
X0108500Y0097956D01*
X0108500Y0096957D02*
X0137700Y0096957D01*
X0137700Y0095959D02*
X0108500Y0095959D01*
X0108940Y0094960D02*
X0137700Y0094960D01*
X0137700Y0093962D02*
X0109089Y0093962D01*
X0108837Y0092963D02*
X0137700Y0092963D01*
X0137700Y0091965D02*
X0108039Y0091965D01*
X0106500Y0094087D02*
X0106500Y0100087D01*
X0091500Y0115087D01*
X0088548Y0110936D02*
X0064452Y0110936D01*
X0064451Y0110934D02*
X0064981Y0112213D01*
X0064981Y0117960D01*
X0064451Y0119240D01*
X0063472Y0120219D01*
X0062192Y0120749D01*
X0060808Y0120749D01*
X0059528Y0120219D01*
X0058549Y0119240D01*
X0058019Y0117960D01*
X0058019Y0112213D01*
X0058549Y0110934D01*
X0059528Y0109954D01*
X0060808Y0109424D01*
X0062192Y0109424D01*
X0063472Y0109954D01*
X0064451Y0110934D01*
X0064866Y0111935D02*
X0068451Y0111935D01*
X0068780Y0111606D02*
X0074220Y0111606D01*
X0074981Y0112367D01*
X0074981Y0117806D01*
X0074220Y0118568D01*
X0068780Y0118568D01*
X0068019Y0117806D01*
X0068019Y0112367D01*
X0068780Y0111606D01*
X0068019Y0112933D02*
X0064981Y0112933D01*
X0064981Y0113932D02*
X0068019Y0113932D01*
X0068019Y0114930D02*
X0064981Y0114930D01*
X0064981Y0115929D02*
X0068019Y0115929D01*
X0068019Y0116927D02*
X0064981Y0116927D01*
X0064981Y0117926D02*
X0068139Y0117926D01*
X0064582Y0118924D02*
X0088418Y0118924D01*
X0088019Y0117926D02*
X0084861Y0117926D01*
X0084981Y0117806D02*
X0084220Y0118568D01*
X0078780Y0118568D01*
X0078019Y0117806D01*
X0078019Y0112367D01*
X0078780Y0111606D01*
X0084220Y0111606D01*
X0084981Y0112367D01*
X0084981Y0117806D01*
X0084981Y0116927D02*
X0088019Y0116927D01*
X0088019Y0115929D02*
X0084981Y0115929D01*
X0084981Y0114930D02*
X0088019Y0114930D01*
X0088019Y0113932D02*
X0084981Y0113932D01*
X0084981Y0112933D02*
X0088019Y0112933D01*
X0088134Y0111935D02*
X0084549Y0111935D01*
X0089568Y0109938D02*
X0063432Y0109938D01*
X0059568Y0109938D02*
X0053432Y0109938D01*
X0054452Y0110936D02*
X0058548Y0110936D01*
X0058134Y0111935D02*
X0054866Y0111935D01*
X0054981Y0112933D02*
X0058019Y0112933D01*
X0058019Y0113932D02*
X0054981Y0113932D01*
X0054981Y0114930D02*
X0058019Y0114930D01*
X0058019Y0115929D02*
X0054981Y0115929D01*
X0054981Y0116927D02*
X0058019Y0116927D01*
X0058019Y0117926D02*
X0054981Y0117926D01*
X0054582Y0118924D02*
X0058418Y0118924D01*
X0059232Y0119923D02*
X0053768Y0119923D01*
X0063768Y0119923D02*
X0089232Y0119923D01*
X0084534Y0121920D02*
X0182605Y0121920D01*
X0182200Y0120921D02*
X0032000Y0120921D01*
X0031591Y0120921D02*
X0031409Y0120921D01*
X0031000Y0120921D02*
X0003000Y0120921D01*
X0003000Y0119923D02*
X0028949Y0119923D01*
X0028202Y0118924D02*
X0003000Y0118924D01*
X0003000Y0117926D02*
X0027878Y0117926D01*
X0027819Y0116927D02*
X0003000Y0116927D01*
X0003000Y0115929D02*
X0027819Y0115929D01*
X0027819Y0114930D02*
X0003000Y0114930D01*
X0003000Y0113932D02*
X0027819Y0113932D01*
X0027819Y0112933D02*
X0003000Y0112933D01*
X0003000Y0111935D02*
X0027940Y0111935D01*
X0028389Y0110936D02*
X0003000Y0110936D01*
X0003000Y0109938D02*
X0029316Y0109938D01*
X0031409Y0115929D02*
X0031591Y0115929D01*
X0031591Y0116927D02*
X0031409Y0116927D01*
X0031409Y0117926D02*
X0031591Y0117926D01*
X0031591Y0118924D02*
X0031409Y0118924D01*
X0031409Y0119923D02*
X0031591Y0119923D01*
X0034117Y0131905D02*
X0038883Y0131905D01*
X0037885Y0132904D02*
X0035115Y0132904D01*
X0035600Y0133902D02*
X0037400Y0133902D01*
X0037400Y0134901D02*
X0035600Y0134901D01*
X0035600Y0135899D02*
X0037400Y0135899D01*
X0037513Y0136898D02*
X0035487Y0136898D01*
X0034489Y0137896D02*
X0038511Y0137896D01*
X0039510Y0138895D02*
X0033490Y0138895D01*
X0034102Y0141890D02*
X0038898Y0141890D01*
X0037900Y0142889D02*
X0035100Y0142889D01*
X0035600Y0143887D02*
X0037400Y0143887D01*
X0037400Y0144886D02*
X0035600Y0144886D01*
X0035600Y0145884D02*
X0037400Y0145884D01*
X0037498Y0146883D02*
X0035502Y0146883D01*
X0034504Y0147881D02*
X0038496Y0147881D01*
X0039495Y0148880D02*
X0033505Y0148880D01*
X0033500Y0149878D02*
X0039500Y0149878D01*
X0039500Y0150877D02*
X0033500Y0150877D01*
X0033500Y0151875D02*
X0039500Y0151875D01*
X0039500Y0152874D02*
X0033500Y0152874D01*
X0033500Y0153872D02*
X0039500Y0153872D01*
X0039500Y0154871D02*
X0033500Y0154871D01*
X0033500Y0155869D02*
X0039500Y0155869D01*
X0039500Y0156868D02*
X0033500Y0156868D01*
X0033500Y0157866D02*
X0039500Y0157866D01*
X0039500Y0158865D02*
X0033500Y0158865D01*
X0034003Y0159863D02*
X0039500Y0159863D01*
X0039500Y0160862D02*
X0034089Y0160862D01*
X0033775Y0161860D02*
X0039500Y0161860D01*
X0038999Y0162859D02*
X0032780Y0162859D01*
X0031500Y0160587D02*
X0031500Y0145087D01*
X0028496Y0147881D02*
X0003000Y0147881D01*
X0003000Y0146883D02*
X0027498Y0146883D01*
X0027400Y0145884D02*
X0003000Y0145884D01*
X0003000Y0144886D02*
X0027400Y0144886D01*
X0027400Y0143887D02*
X0003000Y0143887D01*
X0003000Y0142889D02*
X0027900Y0142889D01*
X0029495Y0148880D02*
X0003000Y0148880D01*
X0003000Y0149878D02*
X0029500Y0149878D01*
X0029500Y0150877D02*
X0003000Y0150877D01*
X0003000Y0151875D02*
X0029500Y0151875D01*
X0029500Y0152874D02*
X0003000Y0152874D01*
X0003000Y0153872D02*
X0029500Y0153872D01*
X0029500Y0154871D02*
X0003000Y0154871D01*
X0003000Y0155869D02*
X0029500Y0155869D01*
X0029500Y0156868D02*
X0003000Y0156868D01*
X0003000Y0157866D02*
X0029500Y0157866D01*
X0029500Y0158865D02*
X0003000Y0158865D01*
X0003000Y0159863D02*
X0028997Y0159863D01*
X0028911Y0160862D02*
X0003000Y0160862D01*
X0003000Y0161860D02*
X0029225Y0161860D01*
X0030220Y0162859D02*
X0003000Y0162859D01*
X0003000Y0163857D02*
X0038911Y0163857D01*
X0039223Y0164856D02*
X0003000Y0164856D01*
X0003000Y0165854D02*
X0040210Y0165854D01*
X0041500Y0163587D02*
X0041500Y0145087D01*
X0044102Y0141890D02*
X0048898Y0141890D01*
X0047900Y0142889D02*
X0045100Y0142889D01*
X0045600Y0143887D02*
X0047400Y0143887D01*
X0047400Y0144886D02*
X0045600Y0144886D01*
X0045600Y0145884D02*
X0047400Y0145884D01*
X0047498Y0146883D02*
X0045502Y0146883D01*
X0044504Y0147881D02*
X0048496Y0147881D01*
X0049495Y0148880D02*
X0043505Y0148880D01*
X0043500Y0149878D02*
X0049500Y0149878D01*
X0049500Y0150877D02*
X0043500Y0150877D01*
X0043500Y0151875D02*
X0049500Y0151875D01*
X0049500Y0152874D02*
X0043500Y0152874D01*
X0043500Y0153872D02*
X0049500Y0153872D01*
X0046500Y0157587D02*
X0046500Y0178587D01*
X0042000Y0180832D02*
X0041000Y0180832D01*
X0041000Y0181831D02*
X0042000Y0181831D01*
X0042000Y0182829D02*
X0041000Y0182829D01*
X0039391Y0180832D02*
X0033609Y0180832D01*
X0034608Y0181831D02*
X0038392Y0181831D01*
X0037394Y0182829D02*
X0035606Y0182829D01*
X0036000Y0183828D02*
X0037000Y0183828D01*
X0037000Y0185825D02*
X0036000Y0185825D01*
X0036000Y0186823D02*
X0037000Y0186823D01*
X0037871Y0187822D02*
X0035129Y0187822D01*
X0041000Y0187822D02*
X0042000Y0187822D01*
X0042000Y0188820D02*
X0041000Y0188820D01*
X0042000Y0189587D02*
X0042000Y0185587D01*
X0046000Y0185587D01*
X0046000Y0186951D01*
X0043364Y0189587D01*
X0042000Y0189587D01*
X0043312Y0190817D02*
X0049688Y0190817D01*
X0049719Y0190787D02*
X0053281Y0190787D01*
X0055800Y0193305D01*
X0055800Y0196868D01*
X0053281Y0199387D01*
X0049719Y0199387D01*
X0047200Y0196868D01*
X0047200Y0193305D01*
X0049719Y0190787D01*
X0048690Y0191816D02*
X0044310Y0191816D01*
X0045309Y0192814D02*
X0047691Y0192814D01*
X0047200Y0193813D02*
X0045800Y0193813D01*
X0045800Y0194811D02*
X0047200Y0194811D01*
X0047200Y0195810D02*
X0045800Y0195810D01*
X0045800Y0196808D02*
X0047200Y0196808D01*
X0048139Y0197807D02*
X0044861Y0197807D01*
X0043862Y0198805D02*
X0049138Y0198805D01*
X0053862Y0198805D02*
X0059138Y0198805D01*
X0059719Y0199387D02*
X0057200Y0196868D01*
X0057200Y0193305D01*
X0059719Y0190787D01*
X0063281Y0190787D01*
X0065800Y0193305D01*
X0065800Y0196868D01*
X0063281Y0199387D01*
X0059719Y0199387D01*
X0058139Y0197807D02*
X0054861Y0197807D01*
X0055800Y0196808D02*
X0057200Y0196808D01*
X0057200Y0195810D02*
X0055800Y0195810D01*
X0055800Y0194811D02*
X0057200Y0194811D01*
X0057200Y0193813D02*
X0055800Y0193813D01*
X0055309Y0192814D02*
X0057691Y0192814D01*
X0058690Y0191816D02*
X0054310Y0191816D01*
X0053312Y0190817D02*
X0059688Y0190817D01*
X0058870Y0188820D02*
X0054130Y0188820D01*
X0053364Y0189587D02*
X0056000Y0186951D01*
X0056000Y0185587D01*
X0052000Y0185587D01*
X0052000Y0189587D01*
X0053364Y0189587D01*
X0052000Y0188820D02*
X0051000Y0188820D01*
X0051000Y0187822D02*
X0052000Y0187822D01*
X0052000Y0186823D02*
X0051000Y0186823D01*
X0051000Y0185825D02*
X0052000Y0185825D01*
X0052000Y0182829D02*
X0051000Y0182829D01*
X0051000Y0181831D02*
X0052000Y0181831D01*
X0052000Y0180832D02*
X0051000Y0180832D01*
X0047394Y0182829D02*
X0045606Y0182829D01*
X0046000Y0183828D02*
X0047000Y0183828D01*
X0047000Y0185825D02*
X0046000Y0185825D01*
X0046000Y0186823D02*
X0047000Y0186823D01*
X0047871Y0187822D02*
X0045129Y0187822D01*
X0044130Y0188820D02*
X0048870Y0188820D01*
X0042000Y0186823D02*
X0041000Y0186823D01*
X0041000Y0185825D02*
X0042000Y0185825D01*
X0055129Y0187822D02*
X0057871Y0187822D01*
X0057000Y0186823D02*
X0056000Y0186823D01*
X0056000Y0185825D02*
X0057000Y0185825D01*
X0057000Y0183828D02*
X0056000Y0183828D01*
X0055606Y0182829D02*
X0057394Y0182829D01*
X0061000Y0182829D02*
X0062000Y0182829D01*
X0062000Y0181831D02*
X0061000Y0181831D01*
X0061000Y0180832D02*
X0062000Y0180832D01*
X0063911Y0178835D02*
X0059089Y0178835D01*
X0058992Y0177837D02*
X0064008Y0177837D01*
X0064500Y0176838D02*
X0058500Y0176838D01*
X0058500Y0175839D02*
X0064500Y0175839D01*
X0064500Y0174841D02*
X0058500Y0174841D01*
X0058500Y0173842D02*
X0064500Y0173842D01*
X0064500Y0172844D02*
X0058500Y0172844D01*
X0058500Y0171845D02*
X0064500Y0171845D01*
X0064500Y0170847D02*
X0058500Y0170847D01*
X0058500Y0169848D02*
X0064500Y0169848D01*
X0064500Y0168850D02*
X0058500Y0168850D01*
X0058500Y0167851D02*
X0064222Y0167851D01*
X0063911Y0166853D02*
X0058500Y0166853D01*
X0058500Y0165854D02*
X0064001Y0165854D01*
X0064569Y0164856D02*
X0058777Y0164856D01*
X0059089Y0163857D02*
X0069500Y0163857D01*
X0069500Y0162859D02*
X0059001Y0162859D01*
X0053500Y0159863D02*
X0069500Y0159863D01*
X0069500Y0158865D02*
X0053500Y0158865D01*
X0066500Y0166587D02*
X0066500Y0178587D01*
X0069089Y0178835D02*
X0073911Y0178835D01*
X0074008Y0177837D02*
X0072834Y0177837D01*
X0073784Y0176838D02*
X0074500Y0176838D01*
X0074500Y0175839D02*
X0074089Y0175839D01*
X0073993Y0174841D02*
X0074500Y0174841D01*
X0074500Y0173842D02*
X0073500Y0173842D01*
X0073500Y0172844D02*
X0074500Y0172844D01*
X0074500Y0171845D02*
X0073500Y0171845D01*
X0073500Y0170847D02*
X0074220Y0170847D01*
X0073911Y0169848D02*
X0073500Y0169848D01*
X0073500Y0168850D02*
X0074003Y0168850D01*
X0073500Y0167851D02*
X0074574Y0167851D01*
X0073500Y0166853D02*
X0079500Y0166853D01*
X0079500Y0167851D02*
X0078426Y0167851D01*
X0078997Y0168850D02*
X0079500Y0168850D01*
X0079500Y0169848D02*
X0079089Y0169848D01*
X0078780Y0170847D02*
X0079500Y0170847D01*
X0079500Y0170925D02*
X0079500Y0148885D01*
X0077400Y0146785D01*
X0077400Y0143388D01*
X0079802Y0140987D01*
X0083198Y0140987D01*
X0085600Y0143388D01*
X0085600Y0146785D01*
X0083500Y0148885D01*
X0083500Y0170925D01*
X0083695Y0171120D01*
X0084089Y0172072D01*
X0084089Y0173102D01*
X0083695Y0174053D01*
X0082967Y0174781D01*
X0082015Y0175176D01*
X0080985Y0175176D01*
X0080033Y0174781D01*
X0079305Y0174053D01*
X0078911Y0173102D01*
X0078911Y0172072D01*
X0079305Y0171120D01*
X0079500Y0170925D01*
X0079005Y0171845D02*
X0078500Y0171845D01*
X0078500Y0172844D02*
X0078911Y0172844D01*
X0079218Y0173842D02*
X0078500Y0173842D01*
X0078500Y0174841D02*
X0080177Y0174841D01*
X0078500Y0175839D02*
X0084500Y0175839D01*
X0084500Y0174841D02*
X0082823Y0174841D01*
X0083782Y0173842D02*
X0084500Y0173842D01*
X0084500Y0172844D02*
X0084089Y0172844D01*
X0083995Y0171845D02*
X0084500Y0171845D01*
X0084500Y0170847D02*
X0083500Y0170847D01*
X0083500Y0169848D02*
X0084500Y0169848D01*
X0084500Y0168850D02*
X0083500Y0168850D01*
X0083500Y0167851D02*
X0084500Y0167851D01*
X0084500Y0166853D02*
X0083500Y0166853D01*
X0083500Y0165854D02*
X0084500Y0165854D01*
X0084500Y0164856D02*
X0083500Y0164856D01*
X0083500Y0163857D02*
X0084500Y0163857D01*
X0084500Y0162859D02*
X0083500Y0162859D01*
X0083500Y0161860D02*
X0084225Y0161860D01*
X0083911Y0160862D02*
X0083500Y0160862D01*
X0083500Y0159863D02*
X0083997Y0159863D01*
X0083500Y0158865D02*
X0084560Y0158865D01*
X0083500Y0157866D02*
X0087911Y0157866D01*
X0087995Y0156868D02*
X0083500Y0156868D01*
X0083500Y0155869D02*
X0088500Y0155869D01*
X0088500Y0154871D02*
X0083500Y0154871D01*
X0083500Y0153872D02*
X0088500Y0153872D01*
X0088500Y0152874D02*
X0083500Y0152874D01*
X0083500Y0151875D02*
X0088500Y0151875D01*
X0088500Y0150877D02*
X0083500Y0150877D01*
X0083500Y0149878D02*
X0088500Y0149878D01*
X0088500Y0148880D02*
X0083505Y0148880D01*
X0084504Y0147881D02*
X0088027Y0147881D01*
X0087911Y0146883D02*
X0085502Y0146883D01*
X0085600Y0145884D02*
X0088196Y0145884D01*
X0089048Y0144886D02*
X0085600Y0144886D01*
X0085600Y0143887D02*
X0112400Y0143887D01*
X0112400Y0143388D02*
X0114802Y0140987D01*
X0118198Y0140987D01*
X0120600Y0143388D01*
X0120600Y0146785D01*
X0118198Y0149187D01*
X0114802Y0149187D01*
X0112400Y0146785D01*
X0112400Y0143388D01*
X0112900Y0142889D02*
X0085100Y0142889D01*
X0084102Y0141890D02*
X0113898Y0141890D01*
X0114802Y0139187D02*
X0112400Y0136785D01*
X0112400Y0133388D01*
X0114802Y0130987D01*
X0118198Y0130987D01*
X0120600Y0133388D01*
X0120600Y0136785D01*
X0118198Y0139187D01*
X0114802Y0139187D01*
X0114510Y0138895D02*
X0083490Y0138895D01*
X0083198Y0139187D02*
X0079802Y0139187D01*
X0077400Y0136785D01*
X0077400Y0133388D01*
X0079802Y0130987D01*
X0083198Y0130987D01*
X0085600Y0133388D01*
X0085600Y0136785D01*
X0083198Y0139187D01*
X0084489Y0137896D02*
X0113511Y0137896D01*
X0112513Y0136898D02*
X0085487Y0136898D01*
X0085600Y0135899D02*
X0112400Y0135899D01*
X0112400Y0134901D02*
X0085600Y0134901D01*
X0085600Y0133902D02*
X0112400Y0133902D01*
X0112885Y0132904D02*
X0085115Y0132904D01*
X0084117Y0131905D02*
X0113883Y0131905D01*
X0119117Y0131905D02*
X0123883Y0131905D01*
X0122885Y0132904D02*
X0120115Y0132904D01*
X0120600Y0133902D02*
X0122400Y0133902D01*
X0122400Y0134901D02*
X0120600Y0134901D01*
X0120600Y0135899D02*
X0122400Y0135899D01*
X0122513Y0136898D02*
X0120487Y0136898D01*
X0119489Y0137896D02*
X0123511Y0137896D01*
X0124510Y0138895D02*
X0118490Y0138895D01*
X0119102Y0141890D02*
X0123898Y0141890D01*
X0122900Y0142889D02*
X0120100Y0142889D01*
X0120600Y0143887D02*
X0122400Y0143887D01*
X0122400Y0144886D02*
X0120600Y0144886D01*
X0120600Y0145884D02*
X0122400Y0145884D01*
X0122498Y0146883D02*
X0120502Y0146883D01*
X0119504Y0147881D02*
X0123496Y0147881D01*
X0124495Y0148880D02*
X0118505Y0148880D01*
X0114495Y0148880D02*
X0101802Y0148880D01*
X0102089Y0149878D02*
X0176500Y0149878D01*
X0176500Y0148880D02*
X0128505Y0148880D01*
X0129504Y0147881D02*
X0176500Y0147881D01*
X0176500Y0146883D02*
X0130502Y0146883D01*
X0130600Y0145884D02*
X0176500Y0145884D01*
X0176500Y0144886D02*
X0130600Y0144886D01*
X0130600Y0143887D02*
X0176500Y0143887D01*
X0176500Y0142889D02*
X0130100Y0142889D01*
X0129489Y0137896D02*
X0176500Y0137896D01*
X0176500Y0136898D02*
X0130487Y0136898D01*
X0130600Y0135899D02*
X0176500Y0135899D01*
X0176500Y0134901D02*
X0130600Y0134901D01*
X0130600Y0133902D02*
X0177356Y0133902D01*
X0178500Y0135587D02*
X0230000Y0135587D01*
X0230000Y0218087D01*
X0194000Y0218087D01*
X0194000Y0211587D01*
X0178500Y0211587D01*
X0178500Y0135587D01*
X0178500Y0135899D02*
X0230000Y0135899D01*
X0230000Y0136898D02*
X0178500Y0136898D01*
X0178500Y0137896D02*
X0230000Y0137896D01*
X0230000Y0138895D02*
X0178500Y0138895D01*
X0178500Y0139893D02*
X0230000Y0139893D01*
X0230000Y0140892D02*
X0178500Y0140892D01*
X0178500Y0141890D02*
X0230000Y0141890D01*
X0230000Y0142889D02*
X0178500Y0142889D01*
X0178500Y0143887D02*
X0230000Y0143887D01*
X0230000Y0144886D02*
X0178500Y0144886D01*
X0178500Y0145884D02*
X0230000Y0145884D01*
X0230000Y0146883D02*
X0178500Y0146883D01*
X0178500Y0147881D02*
X0230000Y0147881D01*
X0230000Y0148880D02*
X0178500Y0148880D01*
X0178500Y0149878D02*
X0230000Y0149878D01*
X0230000Y0150877D02*
X0178500Y0150877D01*
X0178500Y0151875D02*
X0230000Y0151875D01*
X0230000Y0152874D02*
X0178500Y0152874D01*
X0178500Y0153872D02*
X0230000Y0153872D01*
X0230000Y0154871D02*
X0178500Y0154871D01*
X0178500Y0155869D02*
X0230000Y0155869D01*
X0230000Y0156868D02*
X0178500Y0156868D01*
X0178500Y0157866D02*
X0230000Y0157866D01*
X0230000Y0158865D02*
X0178500Y0158865D01*
X0178500Y0159863D02*
X0230000Y0159863D01*
X0230000Y0160862D02*
X0178500Y0160862D01*
X0178500Y0161860D02*
X0230000Y0161860D01*
X0230000Y0162859D02*
X0178500Y0162859D01*
X0178500Y0163857D02*
X0230000Y0163857D01*
X0230000Y0164856D02*
X0178500Y0164856D01*
X0178500Y0165854D02*
X0230000Y0165854D01*
X0230000Y0166853D02*
X0178500Y0166853D01*
X0178500Y0167851D02*
X0230000Y0167851D01*
X0230000Y0168850D02*
X0178500Y0168850D01*
X0178500Y0169848D02*
X0230000Y0169848D01*
X0230000Y0170847D02*
X0178500Y0170847D01*
X0178500Y0171845D02*
X0230000Y0171845D01*
X0230000Y0172844D02*
X0178500Y0172844D01*
X0178500Y0173842D02*
X0230000Y0173842D01*
X0230000Y0174841D02*
X0178500Y0174841D01*
X0178500Y0175839D02*
X0230000Y0175839D01*
X0230000Y0176838D02*
X0178500Y0176838D01*
X0178500Y0177837D02*
X0230000Y0177837D01*
X0230000Y0178835D02*
X0178500Y0178835D01*
X0178500Y0179834D02*
X0230000Y0179834D01*
X0230000Y0180832D02*
X0178500Y0180832D01*
X0178500Y0181831D02*
X0230000Y0181831D01*
X0230000Y0182829D02*
X0178500Y0182829D01*
X0178500Y0183828D02*
X0230000Y0183828D01*
X0230000Y0184826D02*
X0178500Y0184826D01*
X0178500Y0185825D02*
X0230000Y0185825D01*
X0230000Y0186823D02*
X0178500Y0186823D01*
X0178500Y0187822D02*
X0230000Y0187822D01*
X0230000Y0188820D02*
X0178500Y0188820D01*
X0178500Y0189819D02*
X0230000Y0189819D01*
X0230000Y0190817D02*
X0178500Y0190817D01*
X0178500Y0191816D02*
X0230000Y0191816D01*
X0230000Y0192814D02*
X0178500Y0192814D01*
X0178500Y0193813D02*
X0230000Y0193813D01*
X0230000Y0194811D02*
X0178500Y0194811D01*
X0178500Y0195810D02*
X0230000Y0195810D01*
X0230000Y0196808D02*
X0178500Y0196808D01*
X0178500Y0197807D02*
X0230000Y0197807D01*
X0230000Y0198805D02*
X0178500Y0198805D01*
X0178500Y0199804D02*
X0230000Y0199804D01*
X0230000Y0200802D02*
X0178500Y0200802D01*
X0178500Y0201801D02*
X0230000Y0201801D01*
X0230000Y0202799D02*
X0178500Y0202799D01*
X0178500Y0203798D02*
X0230000Y0203798D01*
X0230000Y0204796D02*
X0178500Y0204796D01*
X0178500Y0205795D02*
X0230000Y0205795D01*
X0230000Y0206793D02*
X0178500Y0206793D01*
X0178500Y0207792D02*
X0230000Y0207792D01*
X0230000Y0208790D02*
X0178500Y0208790D01*
X0178500Y0209789D02*
X0230000Y0209789D01*
X0230000Y0210787D02*
X0178500Y0210787D01*
X0177355Y0217787D02*
X0175645Y0217787D01*
X0174064Y0218441D01*
X0172855Y0219651D01*
X0172200Y0221231D01*
X0172200Y0228942D01*
X0172855Y0230522D01*
X0174064Y0231732D01*
X0175645Y0232387D01*
X0177355Y0232387D01*
X0178936Y0231732D01*
X0180145Y0230522D01*
X0180800Y0228942D01*
X0180800Y0221231D01*
X0180145Y0219651D01*
X0178936Y0218441D01*
X0177355Y0217787D01*
X0179270Y0218775D02*
X0183730Y0218775D01*
X0184064Y0218441D02*
X0185645Y0217787D01*
X0187355Y0217787D01*
X0188936Y0218441D01*
X0190145Y0219651D01*
X0190800Y0221231D01*
X0190800Y0228942D01*
X0190145Y0230522D01*
X0188936Y0231732D01*
X0187355Y0232387D01*
X0185645Y0232387D01*
X0184064Y0231732D01*
X0182855Y0230522D01*
X0182200Y0228942D01*
X0182200Y0221231D01*
X0182855Y0219651D01*
X0184064Y0218441D01*
X0182804Y0219774D02*
X0180196Y0219774D01*
X0180610Y0220773D02*
X0182390Y0220773D01*
X0182200Y0221771D02*
X0180800Y0221771D01*
X0180800Y0222770D02*
X0182200Y0222770D01*
X0182200Y0223768D02*
X0180800Y0223768D01*
X0180800Y0224767D02*
X0182200Y0224767D01*
X0182200Y0225765D02*
X0180800Y0225765D01*
X0180800Y0226764D02*
X0182200Y0226764D01*
X0182200Y0227762D02*
X0180800Y0227762D01*
X0180800Y0228761D02*
X0182200Y0228761D01*
X0182538Y0229759D02*
X0180462Y0229759D01*
X0179910Y0230758D02*
X0183090Y0230758D01*
X0184123Y0231756D02*
X0178877Y0231756D01*
X0174123Y0231756D02*
X0168877Y0231756D01*
X0168936Y0231732D02*
X0167355Y0232387D01*
X0165645Y0232387D01*
X0164064Y0231732D01*
X0162855Y0230522D01*
X0162200Y0228942D01*
X0162200Y0221231D01*
X0162855Y0219651D01*
X0164064Y0218441D01*
X0165645Y0217787D01*
X0167355Y0217787D01*
X0168936Y0218441D01*
X0170145Y0219651D01*
X0170800Y0221231D01*
X0170800Y0228942D01*
X0170145Y0230522D01*
X0168936Y0231732D01*
X0169910Y0230758D02*
X0173090Y0230758D01*
X0172538Y0229759D02*
X0170462Y0229759D01*
X0170800Y0228761D02*
X0172200Y0228761D01*
X0172200Y0227762D02*
X0170800Y0227762D01*
X0170800Y0226764D02*
X0172200Y0226764D01*
X0172200Y0225765D02*
X0170800Y0225765D01*
X0170800Y0224767D02*
X0172200Y0224767D01*
X0172200Y0223768D02*
X0170800Y0223768D01*
X0170800Y0222770D02*
X0172200Y0222770D01*
X0172200Y0221771D02*
X0170800Y0221771D01*
X0170610Y0220773D02*
X0172390Y0220773D01*
X0172804Y0219774D02*
X0170196Y0219774D01*
X0169270Y0218775D02*
X0173730Y0218775D01*
X0163730Y0218775D02*
X0159270Y0218775D01*
X0158936Y0218441D02*
X0160145Y0219651D01*
X0160800Y0221231D01*
X0160800Y0228942D01*
X0160145Y0230522D01*
X0158936Y0231732D01*
X0157355Y0232387D01*
X0155645Y0232387D01*
X0154064Y0231732D01*
X0152855Y0230522D01*
X0152200Y0228942D01*
X0152200Y0221231D01*
X0152855Y0219651D01*
X0154064Y0218441D01*
X0155645Y0217787D01*
X0157355Y0217787D01*
X0158936Y0218441D01*
X0160196Y0219774D02*
X0162804Y0219774D01*
X0162390Y0220773D02*
X0160610Y0220773D01*
X0160800Y0221771D02*
X0162200Y0221771D01*
X0162200Y0222770D02*
X0160800Y0222770D01*
X0160800Y0223768D02*
X0162200Y0223768D01*
X0162200Y0224767D02*
X0160800Y0224767D01*
X0160800Y0225765D02*
X0162200Y0225765D01*
X0162200Y0226764D02*
X0160800Y0226764D01*
X0160800Y0227762D02*
X0162200Y0227762D01*
X0162200Y0228761D02*
X0160800Y0228761D01*
X0160462Y0229759D02*
X0162538Y0229759D01*
X0163090Y0230758D02*
X0159910Y0230758D01*
X0158877Y0231756D02*
X0164123Y0231756D01*
X0154123Y0231756D02*
X0148877Y0231756D01*
X0148936Y0231732D02*
X0147355Y0232387D01*
X0145645Y0232387D01*
X0144064Y0231732D01*
X0142855Y0230522D01*
X0142200Y0228942D01*
X0142200Y0221231D01*
X0142855Y0219651D01*
X0144064Y0218441D01*
X0145645Y0217787D01*
X0147355Y0217787D01*
X0148936Y0218441D01*
X0150145Y0219651D01*
X0150800Y0221231D01*
X0150800Y0228942D01*
X0150145Y0230522D01*
X0148936Y0231732D01*
X0149910Y0230758D02*
X0153090Y0230758D01*
X0152538Y0229759D02*
X0150462Y0229759D01*
X0150800Y0228761D02*
X0152200Y0228761D01*
X0152200Y0227762D02*
X0150800Y0227762D01*
X0150800Y0226764D02*
X0152200Y0226764D01*
X0152200Y0225765D02*
X0150800Y0225765D01*
X0150800Y0224767D02*
X0152200Y0224767D01*
X0152200Y0223768D02*
X0150800Y0223768D01*
X0150800Y0222770D02*
X0152200Y0222770D01*
X0152200Y0221771D02*
X0150800Y0221771D01*
X0150610Y0220773D02*
X0152390Y0220773D01*
X0152804Y0219774D02*
X0150196Y0219774D01*
X0149270Y0218775D02*
X0153730Y0218775D01*
X0143730Y0218775D02*
X0139553Y0218775D01*
X0139432Y0218654D02*
X0139932Y0219155D01*
X0140349Y0219728D01*
X0140670Y0220359D01*
X0140889Y0221033D01*
X0141000Y0221732D01*
X0141000Y0224587D01*
X0137000Y0224587D01*
X0137000Y0225587D01*
X0136000Y0225587D01*
X0136000Y0232563D01*
X0135446Y0232476D01*
X0134773Y0232257D01*
X0134141Y0231935D01*
X0133568Y0231519D01*
X0133068Y0231018D01*
X0132651Y0230445D01*
X0132330Y0229814D01*
X0132111Y0229140D01*
X0132000Y0228441D01*
X0132000Y0225587D01*
X0136000Y0225587D01*
X0136000Y0224587D01*
X0132000Y0224587D01*
X0132000Y0221732D01*
X0132111Y0221033D01*
X0132330Y0220359D01*
X0132651Y0219728D01*
X0133068Y0219155D01*
X0133568Y0218654D01*
X0134141Y0218238D01*
X0134773Y0217916D01*
X0135446Y0217697D01*
X0136000Y0217610D01*
X0136000Y0224587D01*
X0137000Y0224587D01*
X0137000Y0217610D01*
X0137554Y0217697D01*
X0138227Y0217916D01*
X0138859Y0218238D01*
X0139432Y0218654D01*
X0140372Y0219774D02*
X0142804Y0219774D01*
X0142390Y0220773D02*
X0140805Y0220773D01*
X0141000Y0221771D02*
X0142200Y0221771D01*
X0142200Y0222770D02*
X0141000Y0222770D01*
X0141000Y0223768D02*
X0142200Y0223768D01*
X0142200Y0224767D02*
X0137000Y0224767D01*
X0137000Y0225587D02*
X0141000Y0225587D01*
X0141000Y0228441D01*
X0140889Y0229140D01*
X0140670Y0229814D01*
X0140349Y0230445D01*
X0139932Y0231018D01*
X0139432Y0231519D01*
X0138859Y0231935D01*
X0138227Y0232257D01*
X0137554Y0232476D01*
X0137000Y0232563D01*
X0137000Y0225587D01*
X0137000Y0225765D02*
X0136000Y0225765D01*
X0136000Y0224767D02*
X0114761Y0224767D01*
X0115760Y0225765D02*
X0132000Y0225765D01*
X0132000Y0226764D02*
X0115800Y0226764D01*
X0115800Y0225805D02*
X0113281Y0223287D01*
X0109719Y0223287D01*
X0107200Y0225805D01*
X0107200Y0229368D01*
X0109719Y0231887D01*
X0113281Y0231887D01*
X0115800Y0229368D01*
X0115800Y0225805D01*
X0115800Y0227762D02*
X0132000Y0227762D01*
X0132051Y0228761D02*
X0115800Y0228761D01*
X0115409Y0229759D02*
X0132312Y0229759D01*
X0132878Y0230758D02*
X0114410Y0230758D01*
X0113412Y0231756D02*
X0133895Y0231756D01*
X0136000Y0231756D02*
X0137000Y0231756D01*
X0137000Y0230758D02*
X0136000Y0230758D01*
X0136000Y0229759D02*
X0137000Y0229759D01*
X0137000Y0228761D02*
X0136000Y0228761D01*
X0136000Y0227762D02*
X0137000Y0227762D01*
X0137000Y0226764D02*
X0136000Y0226764D01*
X0136000Y0223768D02*
X0137000Y0223768D01*
X0137000Y0222770D02*
X0136000Y0222770D01*
X0136000Y0221771D02*
X0137000Y0221771D01*
X0137000Y0220773D02*
X0136000Y0220773D01*
X0136000Y0219774D02*
X0137000Y0219774D01*
X0137000Y0218775D02*
X0136000Y0218775D01*
X0136000Y0217777D02*
X0137000Y0217777D01*
X0137799Y0217777D02*
X0192000Y0217777D01*
X0192000Y0218775D02*
X0189270Y0218775D01*
X0190196Y0219774D02*
X0192859Y0219774D01*
X0194000Y0217777D02*
X0230000Y0217777D01*
X0230000Y0216778D02*
X0194000Y0216778D01*
X0194000Y0215780D02*
X0230000Y0215780D01*
X0230000Y0214781D02*
X0194000Y0214781D01*
X0194000Y0213783D02*
X0230000Y0213783D01*
X0230000Y0212784D02*
X0194000Y0212784D01*
X0194000Y0211786D02*
X0230000Y0211786D01*
X0230000Y0220773D02*
X0190610Y0220773D01*
X0190800Y0221771D02*
X0230000Y0221771D01*
X0230000Y0222770D02*
X0190800Y0222770D01*
X0190800Y0223768D02*
X0230000Y0223768D01*
X0230000Y0224767D02*
X0190800Y0224767D01*
X0190800Y0225765D02*
X0230000Y0225765D01*
X0230000Y0226764D02*
X0190800Y0226764D01*
X0190800Y0227762D02*
X0230000Y0227762D01*
X0230000Y0228761D02*
X0190800Y0228761D01*
X0190462Y0229759D02*
X0230000Y0229759D01*
X0230000Y0230758D02*
X0189910Y0230758D01*
X0188877Y0231756D02*
X0230000Y0231756D01*
X0230000Y0232755D02*
X0098589Y0232755D01*
X0098526Y0233753D02*
X0230000Y0233753D01*
X0230000Y0234752D02*
X0097996Y0234752D01*
X0098800Y0231756D02*
X0099306Y0231756D01*
X0101000Y0231756D02*
X0102000Y0231756D01*
X0102000Y0232087D02*
X0102000Y0228087D01*
X0106000Y0228087D01*
X0106000Y0229451D01*
X0103364Y0232087D01*
X0102000Y0232087D01*
X0102000Y0230758D02*
X0101000Y0230758D01*
X0101000Y0229759D02*
X0102000Y0229759D01*
X0102000Y0228761D02*
X0101000Y0228761D01*
X0102000Y0227762D02*
X0107200Y0227762D01*
X0107200Y0226764D02*
X0106000Y0226764D01*
X0106000Y0225765D02*
X0107240Y0225765D01*
X0107073Y0224767D02*
X0108239Y0224767D01*
X0108071Y0223768D02*
X0109237Y0223768D01*
X0109070Y0222770D02*
X0132000Y0222770D01*
X0132000Y0223768D02*
X0113763Y0223768D01*
X0113397Y0221771D02*
X0132000Y0221771D01*
X0132195Y0220773D02*
X0114395Y0220773D01*
X0115394Y0219774D02*
X0132628Y0219774D01*
X0133447Y0218775D02*
X0115800Y0218775D01*
X0115800Y0217777D02*
X0135201Y0217777D01*
X0141000Y0225765D02*
X0142200Y0225765D01*
X0142200Y0226764D02*
X0141000Y0226764D01*
X0141000Y0227762D02*
X0142200Y0227762D01*
X0142200Y0228761D02*
X0140949Y0228761D01*
X0140688Y0229759D02*
X0142538Y0229759D01*
X0143090Y0230758D02*
X0140122Y0230758D01*
X0139105Y0231756D02*
X0144123Y0231756D01*
X0115800Y0216778D02*
X0192000Y0216778D01*
X0192000Y0215780D02*
X0115774Y0215780D01*
X0114776Y0214781D02*
X0192000Y0214781D01*
X0192000Y0213783D02*
X0113777Y0213783D01*
X0109223Y0213783D02*
X0103777Y0213783D01*
X0104776Y0214781D02*
X0108224Y0214781D01*
X0107226Y0215780D02*
X0105774Y0215780D01*
X0105800Y0216778D02*
X0107200Y0216778D01*
X0107200Y0217777D02*
X0105800Y0217777D01*
X0105800Y0218775D02*
X0106558Y0218775D01*
X0105560Y0219774D02*
X0105394Y0219774D01*
X0106000Y0228761D02*
X0107200Y0228761D01*
X0107591Y0229759D02*
X0105691Y0229759D01*
X0104693Y0230758D02*
X0108590Y0230758D01*
X0109588Y0231756D02*
X0103694Y0231756D01*
X0093700Y0231756D02*
X0093694Y0231756D01*
X0093411Y0232755D02*
X0003000Y0232755D01*
X0003000Y0233753D02*
X0093474Y0233753D01*
X0094004Y0234752D02*
X0003000Y0234752D01*
X0003000Y0235750D02*
X0230000Y0235750D01*
X0230000Y0236749D02*
X0003000Y0236749D01*
X0003000Y0237747D02*
X0230000Y0237747D01*
X0172000Y0189587D02*
X0172000Y0159587D01*
X0171000Y0158587D01*
X0175000Y0154587D01*
X0175000Y0126087D01*
X0176000Y0125087D01*
X0210500Y0125087D01*
X0221500Y0114087D01*
X0225500Y0114087D01*
X0230000Y0113932D02*
X0208736Y0113932D01*
X0208281Y0114387D02*
X0204719Y0114387D01*
X0202200Y0111868D01*
X0202200Y0108305D01*
X0204719Y0105787D01*
X0208281Y0105787D01*
X0210800Y0108305D01*
X0210800Y0111868D01*
X0208281Y0114387D01*
X0208423Y0115929D02*
X0230000Y0115929D01*
X0230000Y0116927D02*
X0209422Y0116927D01*
X0210420Y0117926D02*
X0230000Y0117926D01*
X0230000Y0118924D02*
X0210800Y0118924D01*
X0210800Y0119923D02*
X0230000Y0119923D01*
X0230000Y0120921D02*
X0210800Y0120921D01*
X0210748Y0121920D02*
X0230000Y0121920D01*
X0230000Y0122918D02*
X0209749Y0122918D01*
X0203578Y0116927D02*
X0203321Y0116927D01*
X0203953Y0115929D02*
X0204577Y0115929D01*
X0204089Y0114930D02*
X0230000Y0114930D01*
X0230000Y0112933D02*
X0209734Y0112933D01*
X0210733Y0111935D02*
X0230000Y0111935D01*
X0230000Y0110936D02*
X0210800Y0110936D01*
X0210800Y0109938D02*
X0230000Y0109938D01*
X0230000Y0108939D02*
X0210800Y0108939D01*
X0210435Y0107941D02*
X0230000Y0107941D01*
X0230000Y0106942D02*
X0209437Y0106942D01*
X0208438Y0105944D02*
X0230000Y0105944D01*
X0230000Y0104945D02*
X0142300Y0104945D01*
X0142300Y0103947D02*
X0230000Y0103947D01*
X0230000Y0102948D02*
X0142300Y0102948D01*
X0142300Y0101950D02*
X0230000Y0101950D01*
X0230000Y0100951D02*
X0175057Y0100951D01*
X0175467Y0100781D02*
X0174515Y0101176D01*
X0173485Y0101176D01*
X0172533Y0100781D01*
X0172339Y0100587D01*
X0162661Y0100587D01*
X0162467Y0100781D01*
X0161515Y0101176D01*
X0160485Y0101176D01*
X0159533Y0100781D01*
X0158805Y0100053D01*
X0158411Y0099102D01*
X0158411Y0098072D01*
X0158805Y0097120D01*
X0159533Y0096392D01*
X0160485Y0095998D01*
X0161515Y0095998D01*
X0162467Y0096392D01*
X0162661Y0096587D01*
X0172339Y0096587D01*
X0172533Y0096392D01*
X0173485Y0095998D01*
X0174515Y0095998D01*
X0175467Y0096392D01*
X0176195Y0097120D01*
X0176589Y0098072D01*
X0176589Y0099102D01*
X0176195Y0100053D01*
X0175467Y0100781D01*
X0176236Y0099953D02*
X0230000Y0099953D01*
X0230000Y0098954D02*
X0206050Y0098954D01*
X0206467Y0098781D02*
X0205515Y0099176D01*
X0204485Y0099176D01*
X0203533Y0098781D01*
X0202805Y0098053D01*
X0202411Y0097102D01*
X0202411Y0096826D01*
X0195500Y0089915D01*
X0195500Y0085748D01*
X0195305Y0085553D01*
X0194911Y0084602D01*
X0194911Y0083572D01*
X0195305Y0082620D01*
X0196033Y0081892D01*
X0196985Y0081498D01*
X0198015Y0081498D01*
X0198967Y0081892D01*
X0199695Y0082620D01*
X0200089Y0083572D01*
X0200089Y0084602D01*
X0199695Y0085553D01*
X0199500Y0085748D01*
X0199500Y0088258D01*
X0205239Y0093998D01*
X0205515Y0093998D01*
X0206467Y0094392D01*
X0207195Y0095120D01*
X0207589Y0096072D01*
X0207589Y0097102D01*
X0207195Y0098053D01*
X0206467Y0098781D01*
X0207235Y0097956D02*
X0230000Y0097956D01*
X0230000Y0096957D02*
X0207589Y0096957D01*
X0207542Y0095959D02*
X0230000Y0095959D01*
X0230000Y0094960D02*
X0207035Y0094960D01*
X0205203Y0093962D02*
X0230000Y0093962D01*
X0230000Y0092963D02*
X0204205Y0092963D01*
X0203206Y0091965D02*
X0230000Y0091965D01*
X0230000Y0090966D02*
X0202208Y0090966D01*
X0201209Y0089968D02*
X0230000Y0089968D01*
X0230000Y0088969D02*
X0200211Y0088969D01*
X0199500Y0087970D02*
X0230000Y0087970D01*
X0230000Y0086972D02*
X0199500Y0086972D01*
X0199500Y0085973D02*
X0230000Y0085973D01*
X0230000Y0084975D02*
X0199934Y0084975D01*
X0200089Y0083976D02*
X0230000Y0083976D01*
X0230000Y0082978D02*
X0199843Y0082978D01*
X0199054Y0081979D02*
X0230000Y0081979D01*
X0230000Y0080981D02*
X0003000Y0080981D01*
X0003000Y0081979D02*
X0195946Y0081979D01*
X0195157Y0082978D02*
X0141553Y0082978D01*
X0142342Y0083976D02*
X0194911Y0083976D01*
X0195066Y0084975D02*
X0142589Y0084975D01*
X0142435Y0085973D02*
X0195500Y0085973D01*
X0195500Y0086972D02*
X0142300Y0086972D01*
X0142300Y0087970D02*
X0195500Y0087970D01*
X0195500Y0088969D02*
X0142300Y0088969D01*
X0142300Y0089968D02*
X0158958Y0089968D01*
X0158805Y0090120D02*
X0159533Y0089392D01*
X0160485Y0088998D01*
X0161515Y0088998D01*
X0162467Y0089392D01*
X0162661Y0089587D01*
X0172339Y0089587D01*
X0172533Y0089392D01*
X0173485Y0088998D01*
X0174515Y0088998D01*
X0175467Y0089392D01*
X0176195Y0090120D01*
X0176589Y0091072D01*
X0176589Y0092102D01*
X0176195Y0093053D01*
X0175467Y0093781D01*
X0174515Y0094176D01*
X0173485Y0094176D01*
X0172533Y0093781D01*
X0172339Y0093587D01*
X0162661Y0093587D01*
X0162467Y0093781D01*
X0161515Y0094176D01*
X0160485Y0094176D01*
X0159533Y0093781D01*
X0158805Y0093053D01*
X0158411Y0092102D01*
X0158411Y0091072D01*
X0158805Y0090120D01*
X0158455Y0090966D02*
X0142300Y0090966D01*
X0142300Y0091965D02*
X0158411Y0091965D01*
X0158768Y0092963D02*
X0142300Y0092963D01*
X0142300Y0093962D02*
X0159968Y0093962D01*
X0162032Y0093962D02*
X0172968Y0093962D01*
X0175032Y0093962D02*
X0199547Y0093962D01*
X0200545Y0094960D02*
X0142300Y0094960D01*
X0142300Y0095959D02*
X0201544Y0095959D01*
X0202411Y0096957D02*
X0176032Y0096957D01*
X0176541Y0097956D02*
X0202765Y0097956D01*
X0203950Y0098954D02*
X0176589Y0098954D01*
X0174000Y0098587D02*
X0161000Y0098587D01*
X0162057Y0100951D02*
X0172943Y0100951D01*
X0176232Y0092963D02*
X0198548Y0092963D01*
X0197550Y0091965D02*
X0176589Y0091965D01*
X0176545Y0090966D02*
X0196551Y0090966D01*
X0195552Y0089968D02*
X0176042Y0089968D01*
X0174000Y0091587D02*
X0161000Y0091587D01*
X0158968Y0096957D02*
X0142300Y0096957D01*
X0142300Y0097956D02*
X0158459Y0097956D01*
X0158411Y0098954D02*
X0142300Y0098954D01*
X0142300Y0099953D02*
X0158764Y0099953D01*
X0159943Y0100951D02*
X0142300Y0100951D01*
X0142300Y0105944D02*
X0185265Y0105944D01*
X0183563Y0106942D02*
X0142300Y0106942D01*
X0142300Y0107941D02*
X0182735Y0107941D01*
X0182321Y0108939D02*
X0142300Y0108939D01*
X0143432Y0109938D02*
X0177987Y0109938D01*
X0177467Y0110936D02*
X0144452Y0110936D01*
X0144866Y0111935D02*
X0177411Y0111935D01*
X0177756Y0112933D02*
X0144981Y0112933D01*
X0137700Y0090966D02*
X0003000Y0090966D01*
X0003000Y0089968D02*
X0137700Y0089968D01*
X0137700Y0088969D02*
X0003000Y0088969D01*
X0003000Y0087970D02*
X0137700Y0087970D01*
X0137700Y0086972D02*
X0003000Y0086972D01*
X0003000Y0085973D02*
X0137565Y0085973D01*
X0137411Y0084975D02*
X0003000Y0084975D01*
X0003000Y0083976D02*
X0137658Y0083976D01*
X0138447Y0082978D02*
X0003000Y0082978D01*
X0003000Y0079982D02*
X0230000Y0079982D01*
X0230000Y0078984D02*
X0003000Y0078984D01*
X0003000Y0077985D02*
X0230000Y0077985D01*
X0230000Y0076987D02*
X0003000Y0076987D01*
X0003000Y0075988D02*
X0230000Y0075988D01*
X0230000Y0074990D02*
X0003000Y0074990D01*
X0003000Y0073991D02*
X0230000Y0073991D01*
X0230000Y0072993D02*
X0025379Y0072993D01*
X0026340Y0071994D02*
X0230000Y0071994D01*
X0230000Y0070996D02*
X0026754Y0070996D01*
X0026843Y0069997D02*
X0230000Y0069997D01*
X0230000Y0068999D02*
X0026680Y0068999D01*
X0026199Y0068000D02*
X0202630Y0068000D01*
X0202823Y0068193D02*
X0201740Y0067110D01*
X0201154Y0065695D01*
X0201154Y0064163D01*
X0201740Y0062748D01*
X0202823Y0061665D01*
X0204238Y0061079D01*
X0205770Y0061079D01*
X0207185Y0061665D01*
X0208268Y0062748D01*
X0208854Y0064163D01*
X0208854Y0065695D01*
X0208268Y0067110D01*
X0207185Y0068193D01*
X0205770Y0068779D01*
X0204238Y0068779D01*
X0202823Y0068193D01*
X0201695Y0067002D02*
X0028913Y0067002D01*
X0029912Y0066003D02*
X0201282Y0066003D01*
X0201154Y0065005D02*
X0030910Y0065005D01*
X0031909Y0064006D02*
X0201219Y0064006D01*
X0201633Y0063008D02*
X0032907Y0063008D01*
X0033906Y0062009D02*
X0202479Y0062009D01*
X0203823Y0058981D02*
X0204605Y0059137D01*
X0204729Y0059137D01*
X0204729Y0055362D01*
X0205279Y0055362D01*
X0205279Y0059137D01*
X0205403Y0059137D01*
X0206185Y0058981D01*
X0206922Y0058676D01*
X0207586Y0058232D01*
X0208150Y0057668D01*
X0208593Y0057005D01*
X0208898Y0056268D01*
X0209054Y0055486D01*
X0209054Y0055362D01*
X0205279Y0055362D01*
X0205279Y0054812D01*
X0209054Y0054812D01*
X0209054Y0054688D01*
X0208898Y0053905D01*
X0208593Y0053168D01*
X0208150Y0052505D01*
X0207586Y0051941D01*
X0206922Y0051498D01*
X0206185Y0051192D01*
X0205403Y0051037D01*
X0205279Y0051037D01*
X0205279Y0054812D01*
X0204729Y0054812D01*
X0200954Y0054812D01*
X0200954Y0054688D01*
X0201110Y0053905D01*
X0201415Y0053168D01*
X0201858Y0052505D01*
X0202422Y0051941D01*
X0203086Y0051498D01*
X0203823Y0051192D01*
X0204605Y0051037D01*
X0204729Y0051037D01*
X0204729Y0054812D01*
X0204729Y0055362D01*
X0200954Y0055362D01*
X0200954Y0055486D01*
X0201110Y0056268D01*
X0201415Y0057005D01*
X0201858Y0057668D01*
X0202422Y0058232D01*
X0203086Y0058676D01*
X0203823Y0058981D01*
X0203987Y0059014D02*
X0054418Y0059014D01*
X0054589Y0058602D02*
X0054195Y0059553D01*
X0053467Y0060281D01*
X0052515Y0060676D01*
X0051485Y0060676D01*
X0050533Y0060281D01*
X0049805Y0059553D01*
X0049516Y0058855D01*
X0037731Y0047070D01*
X0037033Y0046781D01*
X0036305Y0046053D01*
X0035911Y0045102D01*
X0035911Y0044072D01*
X0036305Y0043120D01*
X0037033Y0042392D01*
X0037985Y0041998D01*
X0039015Y0041998D01*
X0039967Y0042392D01*
X0040695Y0043120D01*
X0040984Y0043818D01*
X0052769Y0055603D01*
X0053467Y0055892D01*
X0054195Y0056620D01*
X0054589Y0057572D01*
X0054589Y0058602D01*
X0054589Y0058015D02*
X0202205Y0058015D01*
X0201423Y0057017D02*
X0054359Y0057017D01*
X0053593Y0056018D02*
X0201060Y0056018D01*
X0201087Y0054021D02*
X0051187Y0054021D01*
X0050189Y0053023D02*
X0201512Y0053023D01*
X0202339Y0052024D02*
X0049190Y0052024D01*
X0048192Y0051026D02*
X0230000Y0051026D01*
X0230000Y0052024D02*
X0220378Y0052024D01*
X0220177Y0051823D02*
X0221260Y0052906D01*
X0221846Y0054321D01*
X0221846Y0055852D01*
X0221260Y0057267D01*
X0220177Y0058350D01*
X0218762Y0058937D01*
X0217230Y0058937D01*
X0215815Y0058350D01*
X0214732Y0057267D01*
X0214146Y0055852D01*
X0214146Y0054321D01*
X0214732Y0052906D01*
X0215815Y0051823D01*
X0217230Y0051237D01*
X0218762Y0051237D01*
X0220177Y0051823D01*
X0221308Y0053023D02*
X0230000Y0053023D01*
X0230000Y0054021D02*
X0221722Y0054021D01*
X0221846Y0055020D02*
X0230000Y0055020D01*
X0230000Y0056018D02*
X0221777Y0056018D01*
X0221364Y0057017D02*
X0230000Y0057017D01*
X0230000Y0058015D02*
X0220512Y0058015D01*
X0218762Y0061079D02*
X0220177Y0061665D01*
X0221260Y0062748D01*
X0221846Y0064163D01*
X0221846Y0065695D01*
X0221260Y0067110D01*
X0220177Y0068193D01*
X0218762Y0068779D01*
X0217230Y0068779D01*
X0215815Y0068193D01*
X0214732Y0067110D01*
X0214146Y0065695D01*
X0214146Y0064163D01*
X0214732Y0062748D01*
X0215815Y0061665D01*
X0217230Y0061079D01*
X0218762Y0061079D01*
X0220521Y0062009D02*
X0230000Y0062009D01*
X0230000Y0061011D02*
X0034904Y0061011D01*
X0035903Y0060012D02*
X0050264Y0060012D01*
X0049582Y0059014D02*
X0036901Y0059014D01*
X0037500Y0058015D02*
X0048676Y0058015D01*
X0047677Y0057017D02*
X0037500Y0057017D01*
X0037500Y0056018D02*
X0046679Y0056018D01*
X0045680Y0055020D02*
X0037500Y0055020D01*
X0037915Y0054021D02*
X0044682Y0054021D01*
X0043683Y0053023D02*
X0038089Y0053023D01*
X0037862Y0052024D02*
X0042685Y0052024D01*
X0041686Y0051026D02*
X0037100Y0051026D01*
X0035500Y0053087D02*
X0035500Y0057587D01*
X0028000Y0065087D01*
X0019000Y0065087D01*
X0014000Y0065087D02*
X0013500Y0065587D01*
X0005500Y0065587D01*
X0006101Y0064006D02*
X0003000Y0064006D01*
X0003000Y0063008D02*
X0006600Y0063008D01*
X0006495Y0062009D02*
X0003000Y0062009D01*
X0003000Y0061011D02*
X0006068Y0061011D01*
X0006490Y0067002D02*
X0003000Y0067002D01*
X0003000Y0068000D02*
X0006801Y0068000D01*
X0006320Y0068999D02*
X0003000Y0068999D01*
X0003000Y0069997D02*
X0006157Y0069997D01*
X0006246Y0070996D02*
X0003000Y0070996D01*
X0003000Y0071994D02*
X0006660Y0071994D01*
X0007621Y0072993D02*
X0003000Y0072993D01*
X0016017Y0072993D02*
X0016983Y0072993D01*
X0026206Y0063008D02*
X0027250Y0063008D01*
X0026334Y0062009D02*
X0028249Y0062009D01*
X0029247Y0061011D02*
X0026747Y0061011D01*
X0026843Y0060012D02*
X0030246Y0060012D01*
X0031245Y0059014D02*
X0026686Y0059014D01*
X0026214Y0058015D02*
X0032243Y0058015D01*
X0033242Y0057017D02*
X0026331Y0057017D01*
X0026744Y0056018D02*
X0033500Y0056018D01*
X0033500Y0055020D02*
X0026843Y0055020D01*
X0026689Y0054021D02*
X0033085Y0054021D01*
X0032911Y0053023D02*
X0026221Y0053023D01*
X0026328Y0052024D02*
X0033138Y0052024D01*
X0033900Y0051026D02*
X0026741Y0051026D01*
X0026843Y0050027D02*
X0040688Y0050027D01*
X0039689Y0049029D02*
X0026692Y0049029D01*
X0026229Y0048030D02*
X0038691Y0048030D01*
X0037637Y0047032D02*
X0025083Y0047032D01*
X0017279Y0047032D02*
X0016054Y0047032D01*
X0014091Y0047032D02*
X0013909Y0047032D01*
X0013909Y0048030D02*
X0014091Y0048030D01*
X0014091Y0049029D02*
X0013909Y0049029D01*
X0003000Y0046033D02*
X0036297Y0046033D01*
X0035911Y0045035D02*
X0003000Y0045035D01*
X0003000Y0044036D02*
X0035926Y0044036D01*
X0036388Y0043037D02*
X0003000Y0043037D01*
X0003000Y0042039D02*
X0037885Y0042039D01*
X0039115Y0042039D02*
X0084200Y0042039D01*
X0084200Y0043037D02*
X0040612Y0043037D01*
X0041202Y0044036D02*
X0084200Y0044036D01*
X0084200Y0045035D02*
X0042201Y0045035D01*
X0043199Y0046033D02*
X0084134Y0046033D01*
X0083911Y0047032D02*
X0044198Y0047032D01*
X0045196Y0048030D02*
X0084088Y0048030D01*
X0084781Y0049029D02*
X0046195Y0049029D01*
X0047193Y0050027D02*
X0230000Y0050027D01*
X0230000Y0049029D02*
X0218920Y0049029D01*
X0218762Y0049094D02*
X0217230Y0049094D01*
X0215815Y0048508D01*
X0214732Y0047425D01*
X0214146Y0046010D01*
X0214146Y0044478D01*
X0214732Y0043063D01*
X0215815Y0041980D01*
X0217230Y0041394D01*
X0218762Y0041394D01*
X0220177Y0041980D01*
X0221260Y0043063D01*
X0221846Y0044478D01*
X0221846Y0046010D01*
X0221260Y0047425D01*
X0220177Y0048508D01*
X0218762Y0049094D01*
X0217072Y0049029D02*
X0205928Y0049029D01*
X0205770Y0049094D02*
X0204238Y0049094D01*
X0202823Y0048508D01*
X0201740Y0047425D01*
X0201154Y0046010D01*
X0201154Y0044478D01*
X0201740Y0043063D01*
X0202823Y0041980D01*
X0204238Y0041394D01*
X0205770Y0041394D01*
X0207185Y0041980D01*
X0208268Y0043063D01*
X0208854Y0044478D01*
X0208854Y0046010D01*
X0208268Y0047425D01*
X0207185Y0048508D01*
X0205770Y0049094D01*
X0204080Y0049029D02*
X0088219Y0049029D01*
X0088912Y0048030D02*
X0202345Y0048030D01*
X0201577Y0047032D02*
X0089089Y0047032D01*
X0088866Y0046033D02*
X0201164Y0046033D01*
X0201154Y0045035D02*
X0088800Y0045035D01*
X0088800Y0044036D02*
X0201337Y0044036D01*
X0201766Y0043037D02*
X0088800Y0043037D01*
X0088800Y0042039D02*
X0202764Y0042039D01*
X0207244Y0042039D02*
X0215756Y0042039D01*
X0214758Y0043037D02*
X0208242Y0043037D01*
X0208671Y0044036D02*
X0214329Y0044036D01*
X0214146Y0045035D02*
X0208854Y0045035D01*
X0208844Y0046033D02*
X0214156Y0046033D01*
X0214569Y0047032D02*
X0208431Y0047032D01*
X0207663Y0048030D02*
X0215337Y0048030D01*
X0215614Y0052024D02*
X0207669Y0052024D01*
X0208496Y0053023D02*
X0214684Y0053023D01*
X0214270Y0054021D02*
X0208921Y0054021D01*
X0208948Y0056018D02*
X0214215Y0056018D01*
X0214146Y0055020D02*
X0205279Y0055020D01*
X0205004Y0055087D02*
X0212000Y0062083D01*
X0212000Y0072087D01*
X0225500Y0085587D01*
X0225500Y0086587D01*
X0230000Y0068000D02*
X0220370Y0068000D01*
X0221305Y0067002D02*
X0230000Y0067002D01*
X0230000Y0066003D02*
X0221718Y0066003D01*
X0221846Y0065005D02*
X0230000Y0065005D01*
X0230000Y0064006D02*
X0221781Y0064006D01*
X0221367Y0063008D02*
X0230000Y0063008D01*
X0230000Y0060012D02*
X0053736Y0060012D01*
X0052186Y0055020D02*
X0204729Y0055020D01*
X0205004Y0055087D02*
X0204504Y0054587D01*
X0162000Y0054587D01*
X0146194Y0032054D02*
X0193767Y0032054D01*
X0193019Y0031055D02*
X0146901Y0031055D01*
X0147089Y0030057D02*
X0193019Y0030057D01*
X0193019Y0029058D02*
X0146876Y0029058D01*
X0146135Y0028060D02*
X0193019Y0028060D01*
X0193780Y0022068D02*
X0193019Y0021306D01*
X0193019Y0015867D01*
X0193780Y0015106D01*
X0199220Y0015106D01*
X0199981Y0015867D01*
X0199981Y0021306D01*
X0199220Y0022068D01*
X0193780Y0022068D01*
X0193019Y0019073D02*
X0040181Y0019073D01*
X0040181Y0018075D02*
X0193019Y0018075D01*
X0193019Y0017076D02*
X0040181Y0017076D01*
X0040146Y0016078D02*
X0193019Y0016078D01*
X0199981Y0016078D02*
X0203019Y0016078D01*
X0203019Y0015867D02*
X0203780Y0015106D01*
X0209220Y0015106D01*
X0209981Y0015867D01*
X0209981Y0021306D01*
X0209220Y0022068D01*
X0203780Y0022068D01*
X0203019Y0021306D01*
X0203019Y0015867D01*
X0203019Y0017076D02*
X0199981Y0017076D01*
X0199981Y0018075D02*
X0203019Y0018075D01*
X0203019Y0019073D02*
X0199981Y0019073D01*
X0199981Y0020072D02*
X0203019Y0020072D01*
X0203019Y0021070D02*
X0199981Y0021070D01*
X0199981Y0026063D02*
X0203019Y0026063D01*
X0203019Y0025867D02*
X0203780Y0025106D01*
X0209220Y0025106D01*
X0209981Y0025867D01*
X0209981Y0031306D01*
X0209220Y0032068D01*
X0203780Y0032068D01*
X0203019Y0031306D01*
X0203019Y0025867D01*
X0203019Y0027061D02*
X0199981Y0027061D01*
X0199981Y0028060D02*
X0203019Y0028060D01*
X0203019Y0029058D02*
X0199981Y0029058D01*
X0199981Y0030057D02*
X0203019Y0030057D01*
X0203019Y0031055D02*
X0199981Y0031055D01*
X0199233Y0032054D02*
X0203767Y0032054D01*
X0209233Y0032054D02*
X0230000Y0032054D01*
X0230000Y0033052D02*
X0125502Y0033052D01*
X0125768Y0034051D02*
X0230000Y0034051D01*
X0230000Y0035049D02*
X0125768Y0035049D01*
X0125768Y0036048D02*
X0230000Y0036048D01*
X0230000Y0037046D02*
X0125577Y0037046D01*
X0124578Y0038045D02*
X0230000Y0038045D01*
X0230000Y0039043D02*
X0123580Y0039043D01*
X0119420Y0039043D02*
X0113580Y0039043D01*
X0114578Y0038045D02*
X0118422Y0038045D01*
X0117423Y0037046D02*
X0115577Y0037046D01*
X0115768Y0036048D02*
X0117231Y0036048D01*
X0117231Y0035049D02*
X0115768Y0035049D01*
X0115768Y0034051D02*
X0117231Y0034051D01*
X0117498Y0033052D02*
X0115502Y0033052D01*
X0115639Y0032054D02*
X0114504Y0032054D01*
X0114640Y0031055D02*
X0113505Y0031055D01*
X0117302Y0028060D02*
X0118437Y0028060D01*
X0117438Y0027061D02*
X0116303Y0027061D01*
X0115768Y0026063D02*
X0117231Y0026063D01*
X0117231Y0025064D02*
X0115768Y0025064D01*
X0115768Y0024066D02*
X0117231Y0024066D01*
X0117483Y0023067D02*
X0115517Y0023067D01*
X0114519Y0022069D02*
X0118481Y0022069D01*
X0119480Y0021070D02*
X0113520Y0021070D01*
X0089420Y0039043D02*
X0088800Y0039043D01*
X0088800Y0040042D02*
X0230000Y0040042D01*
X0230000Y0041040D02*
X0088800Y0041040D01*
X0084200Y0041040D02*
X0003000Y0041040D01*
X0003000Y0040042D02*
X0084200Y0040042D01*
X0084200Y0039043D02*
X0083580Y0039043D01*
X0079420Y0039043D02*
X0003000Y0039043D01*
X0003000Y0038045D02*
X0078422Y0038045D01*
X0077423Y0037046D02*
X0003000Y0037046D01*
X0003000Y0036048D02*
X0077231Y0036048D01*
X0077231Y0035049D02*
X0003000Y0035049D01*
X0003000Y0034051D02*
X0077231Y0034051D01*
X0077498Y0033052D02*
X0003000Y0033052D01*
X0003000Y0032054D02*
X0023767Y0032054D01*
X0023780Y0032068D02*
X0023019Y0031306D01*
X0023019Y0025867D01*
X0023780Y0025106D01*
X0029220Y0025106D01*
X0029981Y0025867D01*
X0029981Y0031306D01*
X0029220Y0032068D01*
X0023780Y0032068D01*
X0023019Y0031055D02*
X0003000Y0031055D01*
X0003000Y0030057D02*
X0023019Y0030057D01*
X0023019Y0029058D02*
X0003000Y0029058D01*
X0003000Y0028060D02*
X0023019Y0028060D01*
X0023019Y0027061D02*
X0003000Y0027061D01*
X0003000Y0026063D02*
X0023019Y0026063D01*
X0023780Y0022068D02*
X0023019Y0021306D01*
X0023019Y0015867D01*
X0023780Y0015106D01*
X0029220Y0015106D01*
X0029981Y0015867D01*
X0029981Y0021306D01*
X0029220Y0022068D01*
X0023780Y0022068D01*
X0023019Y0021070D02*
X0003000Y0021070D01*
X0003000Y0020072D02*
X0023019Y0020072D01*
X0023019Y0019073D02*
X0003000Y0019073D01*
X0003000Y0018075D02*
X0023019Y0018075D01*
X0023019Y0017076D02*
X0003000Y0017076D01*
X0003000Y0016078D02*
X0023019Y0016078D01*
X0029981Y0016078D02*
X0032854Y0016078D01*
X0032819Y0017076D02*
X0029981Y0017076D01*
X0029981Y0018075D02*
X0032819Y0018075D01*
X0032819Y0019073D02*
X0029981Y0019073D01*
X0029981Y0020072D02*
X0032819Y0020072D01*
X0032847Y0021070D02*
X0029981Y0021070D01*
X0029981Y0026063D02*
X0033019Y0026063D01*
X0033019Y0027061D02*
X0029981Y0027061D01*
X0029981Y0028060D02*
X0033019Y0028060D01*
X0033019Y0029058D02*
X0029981Y0029058D01*
X0029981Y0030057D02*
X0033019Y0030057D01*
X0033019Y0031055D02*
X0029981Y0031055D01*
X0029233Y0032054D02*
X0033767Y0032054D01*
X0036409Y0017076D02*
X0036591Y0017076D01*
X0036591Y0016078D02*
X0036409Y0016078D01*
X0036409Y0015079D02*
X0036591Y0015079D01*
X0039384Y0015079D02*
X0230000Y0015079D01*
X0230000Y0014081D02*
X0003000Y0014081D01*
X0003000Y0015079D02*
X0033616Y0015079D01*
X0003000Y0013082D02*
X0230000Y0013082D01*
X0230000Y0012084D02*
X0003000Y0012084D01*
X0003000Y0024066D02*
X0077231Y0024066D01*
X0077231Y0025064D02*
X0003000Y0025064D01*
X0003000Y0091965D02*
X0104961Y0091965D01*
X0104163Y0092963D02*
X0003000Y0092963D01*
X0003000Y0093962D02*
X0103911Y0093962D01*
X0104060Y0094960D02*
X0003000Y0094960D01*
X0003000Y0095959D02*
X0104500Y0095959D01*
X0104500Y0096957D02*
X0003000Y0096957D01*
X0003000Y0097956D02*
X0104500Y0097956D01*
X0104500Y0098954D02*
X0003000Y0098954D01*
X0003000Y0099953D02*
X0103806Y0099953D01*
X0102807Y0100951D02*
X0003000Y0100951D01*
X0003000Y0101950D02*
X0101809Y0101950D01*
X0100810Y0102948D02*
X0003000Y0102948D01*
X0003000Y0103947D02*
X0099812Y0103947D01*
X0098813Y0104945D02*
X0003000Y0104945D01*
X0003000Y0105944D02*
X0097814Y0105944D01*
X0096816Y0106942D02*
X0003000Y0106942D01*
X0003000Y0107941D02*
X0095817Y0107941D01*
X0094819Y0108939D02*
X0003000Y0108939D01*
X0003000Y0121920D02*
X0068466Y0121920D01*
X0068019Y0122918D02*
X0003000Y0122918D01*
X0003000Y0123917D02*
X0068019Y0123917D01*
X0068019Y0124915D02*
X0003000Y0124915D01*
X0003000Y0125914D02*
X0068019Y0125914D01*
X0068019Y0126912D02*
X0003000Y0126912D01*
X0003000Y0131905D02*
X0028883Y0131905D01*
X0027885Y0132904D02*
X0003000Y0132904D01*
X0003000Y0133902D02*
X0027400Y0133902D01*
X0027400Y0134901D02*
X0003000Y0134901D01*
X0003000Y0135899D02*
X0027400Y0135899D01*
X0027513Y0136898D02*
X0003000Y0136898D01*
X0003000Y0137896D02*
X0028511Y0137896D01*
X0068431Y0164856D02*
X0069500Y0164856D01*
X0069500Y0165854D02*
X0068999Y0165854D01*
X0069089Y0166853D02*
X0069500Y0166853D01*
X0069500Y0167851D02*
X0068778Y0167851D01*
X0068500Y0168850D02*
X0069500Y0168850D01*
X0069500Y0169848D02*
X0068500Y0169848D01*
X0068500Y0170847D02*
X0069500Y0170847D01*
X0069500Y0171845D02*
X0068500Y0171845D01*
X0068500Y0172844D02*
X0069500Y0172844D01*
X0069500Y0173842D02*
X0068500Y0173842D01*
X0068500Y0174841D02*
X0069007Y0174841D01*
X0068911Y0175839D02*
X0068500Y0175839D01*
X0068500Y0176838D02*
X0069216Y0176838D01*
X0068992Y0177837D02*
X0070166Y0177837D01*
X0071500Y0175587D02*
X0071500Y0145087D01*
X0074102Y0141890D02*
X0078898Y0141890D01*
X0077900Y0142889D02*
X0075100Y0142889D01*
X0075600Y0143887D02*
X0077400Y0143887D01*
X0077400Y0144886D02*
X0075600Y0144886D01*
X0075600Y0145884D02*
X0077400Y0145884D01*
X0077498Y0146883D02*
X0075502Y0146883D01*
X0074504Y0147881D02*
X0078496Y0147881D01*
X0079495Y0148880D02*
X0073505Y0148880D01*
X0073500Y0149878D02*
X0079500Y0149878D01*
X0079500Y0150877D02*
X0073500Y0150877D01*
X0073500Y0151875D02*
X0079500Y0151875D01*
X0079500Y0152874D02*
X0073500Y0152874D01*
X0073500Y0153872D02*
X0079500Y0153872D01*
X0079500Y0154871D02*
X0073500Y0154871D01*
X0073500Y0155869D02*
X0079500Y0155869D01*
X0079500Y0156868D02*
X0073500Y0156868D01*
X0073500Y0157866D02*
X0079500Y0157866D01*
X0079500Y0158865D02*
X0073500Y0158865D01*
X0073500Y0159863D02*
X0079500Y0159863D01*
X0079500Y0160862D02*
X0073500Y0160862D01*
X0073500Y0161860D02*
X0079500Y0161860D01*
X0079500Y0162859D02*
X0073500Y0162859D01*
X0073500Y0163857D02*
X0079500Y0163857D01*
X0079500Y0164856D02*
X0073500Y0164856D01*
X0073500Y0165854D02*
X0079500Y0165854D01*
X0076500Y0169587D02*
X0076500Y0178587D01*
X0079089Y0178835D02*
X0083911Y0178835D01*
X0084008Y0177837D02*
X0078992Y0177837D01*
X0078500Y0176838D02*
X0084500Y0176838D01*
X0086500Y0178587D02*
X0086500Y0160587D01*
X0089089Y0160862D02*
X0091500Y0160862D01*
X0091500Y0161860D02*
X0088775Y0161860D01*
X0088500Y0162859D02*
X0091500Y0162859D01*
X0091500Y0163857D02*
X0088500Y0163857D01*
X0088500Y0164856D02*
X0091500Y0164856D01*
X0091500Y0165854D02*
X0088500Y0165854D01*
X0089003Y0159863D02*
X0089231Y0159863D01*
X0090500Y0157587D02*
X0090500Y0147087D01*
X0097952Y0144886D02*
X0112400Y0144886D01*
X0112400Y0145884D02*
X0098804Y0145884D01*
X0099089Y0146883D02*
X0112498Y0146883D01*
X0113496Y0147881D02*
X0100941Y0147881D01*
X0099500Y0150087D02*
X0099500Y0160587D01*
X0101500Y0158865D02*
X0176500Y0158865D01*
X0176500Y0157866D02*
X0101500Y0157866D01*
X0101500Y0156868D02*
X0176500Y0156868D01*
X0176500Y0155869D02*
X0101500Y0155869D01*
X0101500Y0154871D02*
X0176500Y0154871D01*
X0176500Y0153872D02*
X0101500Y0153872D01*
X0101500Y0152874D02*
X0176500Y0152874D01*
X0176500Y0151875D02*
X0101500Y0151875D01*
X0101975Y0150877D02*
X0176500Y0150877D01*
X0189764Y0132904D02*
X0193236Y0132904D01*
X0192237Y0131905D02*
X0190401Y0131905D01*
X0190800Y0130906D02*
X0192200Y0130906D01*
X0192200Y0129908D02*
X0190800Y0129908D01*
X0190667Y0128909D02*
X0192200Y0128909D01*
X0192595Y0127911D02*
X0190253Y0127911D01*
X0189407Y0126912D02*
X0193593Y0126912D01*
X0194592Y0125914D02*
X0187663Y0125914D01*
X0188489Y0123917D02*
X0194249Y0123917D01*
X0193251Y0122918D02*
X0189749Y0122918D01*
X0190395Y0121920D02*
X0192252Y0121920D01*
X0192200Y0120921D02*
X0190800Y0120921D01*
X0190800Y0119923D02*
X0192200Y0119923D01*
X0192200Y0118924D02*
X0190673Y0118924D01*
X0190259Y0117926D02*
X0192580Y0117926D01*
X0193266Y0112933D02*
X0189734Y0112933D01*
X0190389Y0111935D02*
X0192267Y0111935D01*
X0192200Y0110936D02*
X0190800Y0110936D01*
X0190800Y0109938D02*
X0192200Y0109938D01*
X0192200Y0108939D02*
X0190679Y0108939D01*
X0190265Y0107941D02*
X0192565Y0107941D01*
X0193563Y0106942D02*
X0189437Y0106942D01*
X0187735Y0105944D02*
X0194562Y0105944D01*
X0198438Y0105944D02*
X0204562Y0105944D01*
X0203563Y0106942D02*
X0199437Y0106942D01*
X0200435Y0107941D02*
X0202565Y0107941D01*
X0202200Y0108939D02*
X0200800Y0108939D01*
X0200800Y0109938D02*
X0202200Y0109938D01*
X0202200Y0110936D02*
X0200800Y0110936D01*
X0200733Y0111935D02*
X0202267Y0111935D01*
X0203008Y0112933D02*
X0203266Y0112933D01*
X0203824Y0113932D02*
X0204264Y0113932D01*
X0199992Y0112933D02*
X0199734Y0112933D01*
X0205000Y0096587D02*
X0197500Y0089087D01*
X0197500Y0084087D01*
X0207378Y0068000D02*
X0215622Y0068000D01*
X0214687Y0067002D02*
X0208313Y0067002D01*
X0208726Y0066003D02*
X0214274Y0066003D01*
X0214146Y0065005D02*
X0208854Y0065005D01*
X0208789Y0064006D02*
X0214211Y0064006D01*
X0214625Y0063008D02*
X0208375Y0063008D01*
X0207529Y0062009D02*
X0215471Y0062009D01*
X0215480Y0058015D02*
X0207803Y0058015D01*
X0208585Y0057017D02*
X0214628Y0057017D01*
X0206021Y0059014D02*
X0230000Y0059014D01*
X0230000Y0048030D02*
X0220655Y0048030D01*
X0221423Y0047032D02*
X0230000Y0047032D01*
X0230000Y0046033D02*
X0221836Y0046033D01*
X0221846Y0045035D02*
X0230000Y0045035D01*
X0230000Y0044036D02*
X0221663Y0044036D01*
X0221234Y0043037D02*
X0230000Y0043037D01*
X0230000Y0042039D02*
X0220236Y0042039D01*
X0230000Y0031055D02*
X0209981Y0031055D01*
X0209981Y0030057D02*
X0230000Y0030057D01*
X0230000Y0029058D02*
X0209981Y0029058D01*
X0209981Y0028060D02*
X0230000Y0028060D01*
X0230000Y0027061D02*
X0209981Y0027061D01*
X0209981Y0026063D02*
X0230000Y0026063D01*
X0230000Y0021070D02*
X0209981Y0021070D01*
X0209981Y0020072D02*
X0230000Y0020072D01*
X0230000Y0019073D02*
X0209981Y0019073D01*
X0209981Y0018075D02*
X0230000Y0018075D01*
X0230000Y0017076D02*
X0209981Y0017076D01*
X0209981Y0016078D02*
X0230000Y0016078D01*
X0205279Y0052024D02*
X0204729Y0052024D01*
X0204729Y0053023D02*
X0205279Y0053023D01*
X0205279Y0054021D02*
X0204729Y0054021D01*
X0204729Y0056018D02*
X0205279Y0056018D01*
X0205279Y0057017D02*
X0204729Y0057017D01*
X0204729Y0058015D02*
X0205279Y0058015D01*
X0205279Y0059014D02*
X0204729Y0059014D01*
X0182200Y0109938D02*
X0182012Y0109938D01*
X0183251Y0122918D02*
X0084981Y0122918D01*
X0084981Y0123917D02*
X0184511Y0123917D01*
X0131000Y0176587D02*
X0131000Y0193087D01*
X0126000Y0188820D02*
X0113848Y0188820D01*
X0114846Y0187822D02*
X0126000Y0187822D01*
X0126000Y0186823D02*
X0115800Y0186823D01*
X0115800Y0185825D02*
X0126000Y0185825D01*
X0126000Y0184826D02*
X0115800Y0184826D01*
X0115800Y0183828D02*
X0126000Y0183828D01*
X0126000Y0182829D02*
X0115324Y0182829D01*
X0114325Y0181831D02*
X0126000Y0181831D01*
X0109152Y0188820D02*
X0104130Y0188820D01*
X0105129Y0187822D02*
X0108154Y0187822D01*
X0107200Y0186823D02*
X0106000Y0186823D01*
X0106000Y0185825D02*
X0107200Y0185825D01*
X0102000Y0185825D02*
X0101000Y0185825D01*
X0101000Y0186823D02*
X0102000Y0186823D01*
X0102000Y0187822D02*
X0101000Y0187822D01*
X0099688Y0190817D02*
X0093312Y0190817D01*
X0093281Y0190787D02*
X0095800Y0193305D01*
X0095800Y0196868D01*
X0093281Y0199387D01*
X0089719Y0199387D01*
X0087200Y0196868D01*
X0087200Y0193305D01*
X0089719Y0190787D01*
X0093281Y0190787D01*
X0094310Y0191816D02*
X0098690Y0191816D01*
X0097691Y0192814D02*
X0095309Y0192814D01*
X0095800Y0193813D02*
X0097200Y0193813D01*
X0097200Y0194811D02*
X0095800Y0194811D01*
X0095800Y0195810D02*
X0097200Y0195810D01*
X0097200Y0196808D02*
X0095800Y0196808D01*
X0094861Y0197807D02*
X0098139Y0197807D01*
X0099138Y0198805D02*
X0093862Y0198805D01*
X0089138Y0198805D02*
X0083862Y0198805D01*
X0083281Y0199387D02*
X0079719Y0199387D01*
X0077200Y0196868D01*
X0077200Y0193305D01*
X0079719Y0190787D01*
X0083281Y0190787D01*
X0085800Y0193305D01*
X0085800Y0196868D01*
X0083281Y0199387D01*
X0084861Y0197807D02*
X0088139Y0197807D01*
X0087200Y0196808D02*
X0085800Y0196808D01*
X0085800Y0195810D02*
X0087200Y0195810D01*
X0087200Y0194811D02*
X0085800Y0194811D01*
X0085800Y0193813D02*
X0087200Y0193813D01*
X0087691Y0192814D02*
X0085309Y0192814D01*
X0084310Y0191816D02*
X0088690Y0191816D01*
X0089688Y0190817D02*
X0083312Y0190817D01*
X0083364Y0189587D02*
X0082000Y0189587D01*
X0082000Y0185587D01*
X0086000Y0185587D01*
X0086000Y0186951D01*
X0083364Y0189587D01*
X0084130Y0188820D02*
X0088870Y0188820D01*
X0087871Y0187822D02*
X0085129Y0187822D01*
X0086000Y0186823D02*
X0087000Y0186823D01*
X0087000Y0185825D02*
X0086000Y0185825D01*
X0086000Y0183828D02*
X0087000Y0183828D01*
X0087394Y0182829D02*
X0085606Y0182829D01*
X0082000Y0182829D02*
X0081000Y0182829D01*
X0081000Y0181831D02*
X0082000Y0181831D01*
X0082000Y0180832D02*
X0081000Y0180832D01*
X0077394Y0182829D02*
X0075606Y0182829D01*
X0076000Y0183828D02*
X0077000Y0183828D01*
X0077000Y0185825D02*
X0076000Y0185825D01*
X0076000Y0185587D02*
X0076000Y0186951D01*
X0073364Y0189587D01*
X0072000Y0189587D01*
X0072000Y0185587D01*
X0076000Y0185587D01*
X0076000Y0186823D02*
X0077000Y0186823D01*
X0077871Y0187822D02*
X0075129Y0187822D01*
X0074130Y0188820D02*
X0078870Y0188820D01*
X0081000Y0188820D02*
X0082000Y0188820D01*
X0082000Y0187822D02*
X0081000Y0187822D01*
X0081000Y0186823D02*
X0082000Y0186823D01*
X0082000Y0185825D02*
X0081000Y0185825D01*
X0079688Y0190817D02*
X0073312Y0190817D01*
X0073281Y0190787D02*
X0075800Y0193305D01*
X0075800Y0196868D01*
X0073281Y0199387D01*
X0069719Y0199387D01*
X0067200Y0196868D01*
X0067200Y0193305D01*
X0069719Y0190787D01*
X0073281Y0190787D01*
X0074310Y0191816D02*
X0078690Y0191816D01*
X0077691Y0192814D02*
X0075309Y0192814D01*
X0075800Y0193813D02*
X0077200Y0193813D01*
X0077200Y0194811D02*
X0075800Y0194811D01*
X0075800Y0195810D02*
X0077200Y0195810D01*
X0077200Y0196808D02*
X0075800Y0196808D01*
X0074861Y0197807D02*
X0078139Y0197807D01*
X0079138Y0198805D02*
X0073862Y0198805D01*
X0069138Y0198805D02*
X0063862Y0198805D01*
X0064861Y0197807D02*
X0068139Y0197807D01*
X0067200Y0196808D02*
X0065800Y0196808D01*
X0065800Y0195810D02*
X0067200Y0195810D01*
X0067200Y0194811D02*
X0065800Y0194811D01*
X0065800Y0193813D02*
X0067200Y0193813D01*
X0067691Y0192814D02*
X0065309Y0192814D01*
X0064310Y0191816D02*
X0068690Y0191816D01*
X0069688Y0190817D02*
X0063312Y0190817D01*
X0063364Y0189587D02*
X0062000Y0189587D01*
X0062000Y0185587D01*
X0066000Y0185587D01*
X0066000Y0186951D01*
X0063364Y0189587D01*
X0064130Y0188820D02*
X0068870Y0188820D01*
X0067871Y0187822D02*
X0065129Y0187822D01*
X0066000Y0186823D02*
X0067000Y0186823D01*
X0067000Y0185825D02*
X0066000Y0185825D01*
X0066000Y0183828D02*
X0067000Y0183828D01*
X0067394Y0182829D02*
X0065606Y0182829D01*
X0062000Y0185825D02*
X0061000Y0185825D01*
X0061000Y0186823D02*
X0062000Y0186823D01*
X0062000Y0187822D02*
X0061000Y0187822D01*
X0061000Y0188820D02*
X0062000Y0188820D01*
X0071000Y0188820D02*
X0072000Y0188820D01*
X0072000Y0187822D02*
X0071000Y0187822D01*
X0071000Y0186823D02*
X0072000Y0186823D01*
X0072000Y0185825D02*
X0071000Y0185825D01*
X0071000Y0182829D02*
X0072000Y0182829D01*
X0072000Y0181831D02*
X0071000Y0181831D01*
X0071000Y0180832D02*
X0072000Y0180832D01*
X0081500Y0172587D02*
X0081500Y0145087D01*
X0079510Y0138895D02*
X0073490Y0138895D01*
X0074489Y0137896D02*
X0078511Y0137896D01*
X0077513Y0136898D02*
X0075487Y0136898D01*
X0075600Y0135899D02*
X0077400Y0135899D01*
X0077400Y0134901D02*
X0075600Y0134901D01*
X0075600Y0133902D02*
X0077400Y0133902D01*
X0077885Y0132904D02*
X0075115Y0132904D01*
X0074117Y0131905D02*
X0078883Y0131905D01*
X0078124Y0127911D02*
X0074876Y0127911D01*
X0074981Y0126912D02*
X0078019Y0126912D01*
X0078019Y0125914D02*
X0074981Y0125914D01*
X0074981Y0124915D02*
X0078019Y0124915D01*
X0078019Y0123917D02*
X0074981Y0123917D01*
X0074981Y0122918D02*
X0078019Y0122918D01*
X0078466Y0121920D02*
X0074534Y0121920D01*
X0074861Y0117926D02*
X0078139Y0117926D01*
X0078019Y0116927D02*
X0074981Y0116927D01*
X0074981Y0115929D02*
X0078019Y0115929D01*
X0078019Y0114930D02*
X0074981Y0114930D01*
X0074981Y0113932D02*
X0078019Y0113932D01*
X0078019Y0112933D02*
X0074981Y0112933D01*
X0074549Y0111935D02*
X0078451Y0111935D01*
X0093432Y0109938D02*
X0093820Y0109938D01*
X0092000Y0180832D02*
X0091000Y0180832D01*
X0091000Y0181831D02*
X0092000Y0181831D01*
X0092000Y0182829D02*
X0091000Y0182829D01*
X0091000Y0185825D02*
X0092000Y0185825D01*
X0092000Y0186823D02*
X0091000Y0186823D01*
X0091000Y0187822D02*
X0092000Y0187822D01*
X0092000Y0188820D02*
X0091000Y0188820D01*
X0079223Y0213783D02*
X0073777Y0213783D01*
X0073281Y0213287D02*
X0075800Y0215805D01*
X0075800Y0219368D01*
X0073281Y0221887D01*
X0069719Y0221887D01*
X0067200Y0219368D01*
X0067200Y0215805D01*
X0069719Y0213287D01*
X0073281Y0213287D01*
X0074776Y0214781D02*
X0078224Y0214781D01*
X0077226Y0215780D02*
X0075774Y0215780D01*
X0075800Y0216778D02*
X0077200Y0216778D01*
X0077200Y0217777D02*
X0075800Y0217777D01*
X0075800Y0218775D02*
X0077200Y0218775D01*
X0077606Y0219774D02*
X0075394Y0219774D01*
X0074395Y0220773D02*
X0078605Y0220773D01*
X0079603Y0221771D02*
X0073397Y0221771D01*
X0073364Y0223087D02*
X0076000Y0225723D01*
X0076000Y0227087D01*
X0072000Y0227087D01*
X0072000Y0223087D01*
X0073364Y0223087D01*
X0074045Y0223768D02*
X0078955Y0223768D01*
X0077956Y0224767D02*
X0075044Y0224767D01*
X0076000Y0225765D02*
X0077000Y0225765D01*
X0077000Y0226764D02*
X0076000Y0226764D01*
X0076000Y0228761D02*
X0077000Y0228761D01*
X0077309Y0229759D02*
X0075691Y0229759D01*
X0074693Y0230758D02*
X0078307Y0230758D01*
X0079306Y0231756D02*
X0073694Y0231756D01*
X0072000Y0231756D02*
X0071000Y0231756D01*
X0071000Y0230758D02*
X0072000Y0230758D01*
X0072000Y0229759D02*
X0071000Y0229759D01*
X0069306Y0231756D02*
X0063694Y0231756D01*
X0064693Y0230758D02*
X0068307Y0230758D01*
X0067309Y0229759D02*
X0065691Y0229759D01*
X0066000Y0228761D02*
X0067000Y0228761D01*
X0066000Y0227087D02*
X0062000Y0227087D01*
X0062000Y0223087D01*
X0063364Y0223087D01*
X0066000Y0225723D01*
X0066000Y0227087D01*
X0066000Y0226764D02*
X0067000Y0226764D01*
X0067000Y0225765D02*
X0066000Y0225765D01*
X0065044Y0224767D02*
X0067956Y0224767D01*
X0068955Y0223768D02*
X0064045Y0223768D01*
X0063281Y0221887D02*
X0059719Y0221887D01*
X0057200Y0219368D01*
X0057200Y0215805D01*
X0059719Y0213287D01*
X0063281Y0213287D01*
X0065800Y0215805D01*
X0065800Y0219368D01*
X0063281Y0221887D01*
X0063397Y0221771D02*
X0069603Y0221771D01*
X0068605Y0220773D02*
X0064395Y0220773D01*
X0065394Y0219774D02*
X0067606Y0219774D01*
X0067200Y0218775D02*
X0065800Y0218775D01*
X0065800Y0217777D02*
X0067200Y0217777D01*
X0067200Y0216778D02*
X0065800Y0216778D01*
X0065774Y0215780D02*
X0067226Y0215780D01*
X0068224Y0214781D02*
X0064776Y0214781D01*
X0063777Y0213783D02*
X0069223Y0213783D01*
X0059223Y0213783D02*
X0053777Y0213783D01*
X0053281Y0213287D02*
X0055800Y0215805D01*
X0055800Y0219368D01*
X0053281Y0221887D01*
X0049719Y0221887D01*
X0047200Y0219368D01*
X0047200Y0215805D01*
X0049719Y0213287D01*
X0053281Y0213287D01*
X0054776Y0214781D02*
X0058224Y0214781D01*
X0057226Y0215780D02*
X0055774Y0215780D01*
X0055800Y0216778D02*
X0057200Y0216778D01*
X0057200Y0217777D02*
X0055800Y0217777D01*
X0055800Y0218775D02*
X0057200Y0218775D01*
X0057606Y0219774D02*
X0055394Y0219774D01*
X0054395Y0220773D02*
X0058605Y0220773D01*
X0059603Y0221771D02*
X0053397Y0221771D01*
X0053364Y0223087D02*
X0056000Y0225723D01*
X0056000Y0227087D01*
X0052000Y0227087D01*
X0052000Y0223087D01*
X0053364Y0223087D01*
X0054045Y0223768D02*
X0058955Y0223768D01*
X0057956Y0224767D02*
X0055044Y0224767D01*
X0056000Y0225765D02*
X0057000Y0225765D01*
X0057000Y0226764D02*
X0056000Y0226764D01*
X0056000Y0228761D02*
X0057000Y0228761D01*
X0057309Y0229759D02*
X0055691Y0229759D01*
X0054693Y0230758D02*
X0058307Y0230758D01*
X0059306Y0231756D02*
X0053694Y0231756D01*
X0052000Y0231756D02*
X0051000Y0231756D01*
X0051000Y0230758D02*
X0052000Y0230758D01*
X0052000Y0229759D02*
X0051000Y0229759D01*
X0049306Y0231756D02*
X0043694Y0231756D01*
X0044693Y0230758D02*
X0048307Y0230758D01*
X0047309Y0229759D02*
X0045691Y0229759D01*
X0046000Y0228761D02*
X0047000Y0228761D01*
X0046000Y0227087D02*
X0046000Y0225723D01*
X0043364Y0223087D01*
X0042000Y0223087D01*
X0042000Y0227087D01*
X0046000Y0227087D01*
X0046000Y0226764D02*
X0047000Y0226764D01*
X0047000Y0225765D02*
X0046000Y0225765D01*
X0045044Y0224767D02*
X0047956Y0224767D01*
X0048955Y0223768D02*
X0044045Y0223768D01*
X0043281Y0221887D02*
X0039719Y0221887D01*
X0037200Y0219368D01*
X0037200Y0215805D01*
X0039719Y0213287D01*
X0043281Y0213287D01*
X0045800Y0215805D01*
X0045800Y0219368D01*
X0043281Y0221887D01*
X0043397Y0221771D02*
X0049603Y0221771D01*
X0048605Y0220773D02*
X0044395Y0220773D01*
X0045394Y0219774D02*
X0047606Y0219774D01*
X0047200Y0218775D02*
X0045800Y0218775D01*
X0045800Y0217777D02*
X0047200Y0217777D01*
X0047200Y0216778D02*
X0045800Y0216778D01*
X0045774Y0215780D02*
X0047226Y0215780D01*
X0048224Y0214781D02*
X0044776Y0214781D01*
X0043777Y0213783D02*
X0049223Y0213783D01*
X0051000Y0223768D02*
X0052000Y0223768D01*
X0052000Y0224767D02*
X0051000Y0224767D01*
X0051000Y0225765D02*
X0052000Y0225765D01*
X0052000Y0226764D02*
X0051000Y0226764D01*
X0042000Y0226764D02*
X0041000Y0226764D01*
X0041000Y0225765D02*
X0042000Y0225765D01*
X0042000Y0224767D02*
X0041000Y0224767D01*
X0041000Y0223768D02*
X0042000Y0223768D01*
X0038955Y0223768D02*
X0034045Y0223768D01*
X0033364Y0223087D02*
X0036000Y0225723D01*
X0036000Y0227087D01*
X0032000Y0227087D01*
X0032000Y0223087D01*
X0033364Y0223087D01*
X0033281Y0221887D02*
X0029719Y0221887D01*
X0027200Y0219368D01*
X0027200Y0215805D01*
X0029719Y0213287D01*
X0033281Y0213287D01*
X0035800Y0215805D01*
X0035800Y0219368D01*
X0033281Y0221887D01*
X0033397Y0221771D02*
X0039603Y0221771D01*
X0038605Y0220773D02*
X0034395Y0220773D01*
X0035394Y0219774D02*
X0037606Y0219774D01*
X0037200Y0218775D02*
X0035800Y0218775D01*
X0035800Y0217777D02*
X0037200Y0217777D01*
X0037200Y0216778D02*
X0035800Y0216778D01*
X0035774Y0215780D02*
X0037226Y0215780D01*
X0038224Y0214781D02*
X0034776Y0214781D01*
X0033777Y0213783D02*
X0039223Y0213783D01*
X0029223Y0213783D02*
X0023777Y0213783D01*
X0024776Y0214781D02*
X0028224Y0214781D01*
X0027226Y0215780D02*
X0025774Y0215780D01*
X0025800Y0216778D02*
X0027200Y0216778D01*
X0027200Y0217777D02*
X0025800Y0217777D01*
X0025800Y0218775D02*
X0027200Y0218775D01*
X0027606Y0219774D02*
X0025394Y0219774D01*
X0024395Y0220773D02*
X0028605Y0220773D01*
X0029603Y0221771D02*
X0023397Y0221771D01*
X0023364Y0223087D02*
X0026000Y0225723D01*
X0026000Y0227087D01*
X0022000Y0227087D01*
X0022000Y0228087D01*
X0021000Y0228087D01*
X0021000Y0232087D01*
X0019636Y0232087D01*
X0017000Y0229451D01*
X0017000Y0228087D01*
X0021000Y0228087D01*
X0021000Y0227087D01*
X0022000Y0227087D01*
X0022000Y0223087D01*
X0023364Y0223087D01*
X0024045Y0223768D02*
X0028955Y0223768D01*
X0027956Y0224767D02*
X0025044Y0224767D01*
X0026000Y0225765D02*
X0027000Y0225765D01*
X0027000Y0226764D02*
X0026000Y0226764D01*
X0026000Y0228087D02*
X0026000Y0229451D01*
X0023364Y0232087D01*
X0022000Y0232087D01*
X0022000Y0228087D01*
X0026000Y0228087D01*
X0026000Y0228761D02*
X0027000Y0228761D01*
X0027309Y0229759D02*
X0025691Y0229759D01*
X0024693Y0230758D02*
X0028307Y0230758D01*
X0029306Y0231756D02*
X0023694Y0231756D01*
X0022000Y0231756D02*
X0021000Y0231756D01*
X0021000Y0230758D02*
X0022000Y0230758D01*
X0022000Y0229759D02*
X0021000Y0229759D01*
X0021000Y0228761D02*
X0022000Y0228761D01*
X0021000Y0227762D02*
X0003000Y0227762D01*
X0003000Y0226764D02*
X0017000Y0226764D01*
X0017000Y0225765D02*
X0003000Y0225765D01*
X0003000Y0224767D02*
X0017956Y0224767D01*
X0017000Y0228761D02*
X0003000Y0228761D01*
X0003000Y0229759D02*
X0017309Y0229759D01*
X0018307Y0230758D02*
X0003000Y0230758D01*
X0003000Y0231756D02*
X0019306Y0231756D01*
X0021000Y0226764D02*
X0022000Y0226764D01*
X0022000Y0225765D02*
X0021000Y0225765D01*
X0021000Y0224767D02*
X0022000Y0224767D01*
X0022000Y0223768D02*
X0021000Y0223768D01*
X0031000Y0223768D02*
X0032000Y0223768D01*
X0032000Y0224767D02*
X0031000Y0224767D01*
X0031000Y0225765D02*
X0032000Y0225765D01*
X0032000Y0226764D02*
X0031000Y0226764D01*
X0031000Y0229759D02*
X0032000Y0229759D01*
X0032000Y0230758D02*
X0031000Y0230758D01*
X0031000Y0231756D02*
X0032000Y0231756D01*
X0033694Y0231756D02*
X0039306Y0231756D01*
X0038307Y0230758D02*
X0034693Y0230758D01*
X0035691Y0229759D02*
X0037309Y0229759D01*
X0037000Y0228761D02*
X0036000Y0228761D01*
X0036000Y0226764D02*
X0037000Y0226764D01*
X0037000Y0225765D02*
X0036000Y0225765D01*
X0035044Y0224767D02*
X0037956Y0224767D01*
X0041000Y0229759D02*
X0042000Y0229759D01*
X0042000Y0230758D02*
X0041000Y0230758D01*
X0041000Y0231756D02*
X0042000Y0231756D01*
X0061000Y0231756D02*
X0062000Y0231756D01*
X0062000Y0230758D02*
X0061000Y0230758D01*
X0061000Y0229759D02*
X0062000Y0229759D01*
X0062000Y0226764D02*
X0061000Y0226764D01*
X0061000Y0225765D02*
X0062000Y0225765D01*
X0062000Y0224767D02*
X0061000Y0224767D01*
X0061000Y0223768D02*
X0062000Y0223768D01*
X0071000Y0223768D02*
X0072000Y0223768D01*
X0072000Y0224767D02*
X0071000Y0224767D01*
X0071000Y0225765D02*
X0072000Y0225765D01*
X0072000Y0226764D02*
X0071000Y0226764D01*
X0081000Y0226764D02*
X0082000Y0226764D01*
X0082000Y0225765D02*
X0081000Y0225765D01*
X0081000Y0224767D02*
X0082000Y0224767D01*
X0082000Y0223768D02*
X0081000Y0223768D01*
X0081000Y0229759D02*
X0082000Y0229759D01*
X0082000Y0230758D02*
X0081000Y0230758D01*
X0081000Y0231756D02*
X0082000Y0231756D01*
X0091000Y0226764D02*
X0092000Y0226764D01*
X0092000Y0225765D02*
X0091000Y0225765D01*
X0091000Y0224767D02*
X0092000Y0224767D01*
X0092000Y0223768D02*
X0091000Y0223768D01*
X0094045Y0223768D02*
X0094200Y0223768D01*
X0028870Y0188820D02*
X0024130Y0188820D01*
X0025129Y0187822D02*
X0027871Y0187822D01*
X0027000Y0186823D02*
X0026000Y0186823D01*
X0026000Y0185825D02*
X0027000Y0185825D01*
X0027000Y0183828D02*
X0026000Y0183828D01*
X0025606Y0182829D02*
X0027394Y0182829D01*
X0028392Y0181831D02*
X0024608Y0181831D01*
X0083505Y0031055D02*
X0084200Y0031055D01*
D22*
X0086500Y0030087D02*
X0086500Y0047087D01*
X0086500Y0030087D02*
X0081500Y0025087D01*
X0052000Y0058087D02*
X0038500Y0044587D01*
X0140000Y0085087D02*
X0140000Y0113587D01*
X0141500Y0115087D01*
X0111500Y0217587D02*
X0111000Y0217587D01*
X0106000Y0222587D01*
X0097500Y0222587D01*
X0096500Y0223587D01*
X0096500Y0231587D01*
X0096000Y0232087D01*
X0096000Y0233087D01*
D23*
X0159000Y0194587D02*
X0159000Y0172587D01*
X0151500Y0165087D01*
M02*
