G75*
%MOIN*%
%OFA0B0*%
%FSLAX25Y25*%
%IPPOS*%
%LPD*%
%AMOC8*
5,1,8,0,0,1.08239X$1,22.5*
%
%ADD10C,0.00000*%
%ADD11R,0.05118X0.05906*%
%ADD12R,0.05906X0.05118*%
%ADD13R,0.06299X0.05512*%
%ADD14R,0.05512X0.03937*%
%ADD15R,0.05512X0.07087*%
%ADD16R,0.07900X0.05900*%
%ADD17R,0.07900X0.15000*%
%ADD18R,0.04252X0.04134*%
%ADD19R,0.07480X0.07087*%
%ADD20R,0.06299X0.08268*%
%ADD21R,0.05315X0.01575*%
D10*
X0001500Y0010087D02*
X0001500Y0240087D01*
X0231500Y0240087D01*
X0231500Y0010087D01*
X0001500Y0010087D01*
D11*
X0150260Y0054587D03*
X0157740Y0054587D03*
X0197760Y0080087D03*
X0205240Y0080087D03*
X0217760Y0080087D03*
X0225240Y0080087D03*
X0225240Y0090087D03*
X0217760Y0090087D03*
X0217760Y0100087D03*
X0225240Y0100087D03*
X0225240Y0110087D03*
X0217760Y0110087D03*
D12*
X0206500Y0141346D03*
X0206500Y0148827D03*
X0196500Y0148827D03*
X0196500Y0141346D03*
X0186500Y0141346D03*
X0186500Y0148827D03*
X0121500Y0103827D03*
X0121500Y0096346D03*
X0086500Y0078827D03*
X0086500Y0071346D03*
X0071500Y0096346D03*
X0071500Y0103827D03*
X0106500Y0136346D03*
X0106500Y0143827D03*
D13*
X0099965Y0083945D03*
X0099965Y0066228D03*
X0133035Y0066228D03*
X0149965Y0066228D03*
X0149965Y0083945D03*
X0133035Y0083945D03*
X0183035Y0083945D03*
X0183035Y0066228D03*
D14*
X0140831Y0100087D03*
X0132169Y0103827D03*
X0132169Y0096346D03*
X0090831Y0100087D03*
X0082169Y0103827D03*
X0082169Y0096346D03*
D15*
X0099807Y0100087D03*
X0113193Y0100087D03*
D16*
X0199100Y0165987D03*
X0199100Y0174987D03*
X0199100Y0183987D03*
D17*
X0223900Y0175087D03*
D18*
X0186500Y0176642D03*
X0181500Y0176642D03*
X0181500Y0183531D03*
X0186500Y0183531D03*
X0186500Y0168531D03*
X0186500Y0161642D03*
D19*
X0225500Y0205126D03*
X0225500Y0235047D03*
D20*
X0215461Y0232291D03*
X0215461Y0207882D03*
D21*
X0214969Y0214969D03*
X0214969Y0217528D03*
X0214969Y0220087D03*
X0214969Y0222646D03*
X0214969Y0225205D03*
M02*
