%
M48
M72
T01C0.01378
T02C0.02362
T03C0.03100
T04C0.03600
T05C0.03937
T06C0.04000
%
T01
X6500Y30087
X6500Y40087
X16500Y40087
X16500Y30087
X38500Y44587
X35500Y53087
X52000Y58087
X61500Y75087
X71500Y80087
X71500Y70087
X71500Y60087
X86500Y47087
X111500Y55087
X121500Y55087
X131500Y55087
X141500Y65087
X151500Y75087
X140000Y85087
X161000Y91587
X161000Y98587
X174000Y98587
X174000Y91587
X176500Y75087
X186500Y75087
X197500Y84087
X205000Y96587
X201500Y115087
X180000Y111587
X156500Y115087
X156500Y130087
X156500Y145087
X171000Y158587
X197500Y156087
X201500Y156087
X205500Y156087
X209500Y156087
X213500Y156087
X217500Y156087
X221500Y156087
X221500Y160087
X225500Y160087
X225500Y156087
X221500Y152087
X221500Y164087
X225500Y164087
X214500Y164087
X214500Y168087
X214500Y172087
X214500Y176087
X214500Y180087
X214500Y184087
X210500Y184087
X210500Y180087
X210500Y176087
X210500Y172087
X210500Y168087
X210500Y164087
X221500Y187087
X225500Y187087
X225500Y191087
X221500Y191087
X221500Y195087
X225500Y195087
X217500Y195087
X213500Y195087
X209500Y195087
X205500Y195087
X201500Y195087
X197500Y195087
X193500Y195087
X171500Y195087
X171500Y200087
X166500Y210087
X161500Y205087
X151500Y200087
X159000Y194587
X172000Y189587
X141500Y185087
X141500Y195087
X131000Y193087
X128000Y196087
X121500Y185087
X128000Y180087
X131000Y176587
X131500Y165087
X121500Y165087
X121500Y150087
X141500Y165087
X121500Y125087
X102500Y126587
X96500Y147087
X93500Y150087
X90500Y147087
X99500Y150087
X90500Y157587
X86500Y160587
X93500Y169587
X96589Y166587
X99500Y160587
X86500Y178587
X81500Y172587
X76500Y169587
X71500Y175587
X66500Y178587
X56500Y178587
X51500Y169587
X56500Y163587
X56500Y154587
X46500Y157587
X41500Y163587
X31500Y160587
X46500Y178587
X66500Y166587
X76500Y178587
X121500Y225087
X116500Y235087
X126500Y235087
X106500Y235087
X96000Y233087
X26500Y205087
X11500Y200087
X11500Y215087
X11500Y220087
X11500Y225087
X6500Y235087
X11500Y185087
X11500Y170087
X36500Y125087
X46500Y125087
X56500Y125087
X36500Y105087
X31500Y105087
X49500Y100587
X51500Y90087
X61500Y90087
X91500Y90087
X106500Y94087
X116500Y85087
X116500Y70087
X101500Y75087
X144500Y30087
X151500Y45087
X161500Y45087
X162000Y54587
X186500Y55087
X186500Y45087
X186500Y35087
X186500Y25087
X186500Y15087
X221500Y20087
X221500Y30087
X225500Y86587
X225500Y114087
X221500Y140087
X206500Y225087
X206500Y230087
X206500Y235087
X196500Y235087
X181500Y235087
X11500Y80087
X46500Y30087
X46500Y15087
X61500Y15087
X76500Y15087
X91500Y15087
T02
X26500Y18587
X26500Y28587
X36500Y28587
X36500Y18587
X19000Y50087
X19000Y55087
X19000Y60087
X19000Y65087
X19000Y70087
X14000Y70087
X14000Y65087
X14000Y60087
X14000Y55087
X14000Y50087
X31500Y115087
X41500Y115087
X51500Y115087
X61500Y115087
X71500Y115087
X71500Y125087
X81500Y125087
X81500Y115087
X91500Y115087
X101500Y115087
X111500Y115087
X121500Y115087
X131500Y115087
X141500Y115087
X196500Y28587
X206500Y28587
X206500Y18587
X196500Y18587
T03
X205004Y45244
X205004Y55087
X205004Y64929
X217996Y64929
X217996Y55087
X217996Y45244
T04
X31500Y135087
X31500Y145087
X41500Y145087
X41500Y135087
X51500Y135087
X51500Y145087
X71500Y145087
X81500Y145087
X81500Y135087
X71500Y135087
X116500Y135087
X116500Y145087
X126500Y145087
X126500Y135087
T05
X81500Y35087
X81500Y25087
X91500Y25087
X91500Y35087
X101500Y35087
X111500Y35087
X111500Y25087
X101500Y25087
X121500Y25087
X121500Y35087
T06
X151500Y165087
X151500Y175087
X151500Y185087
X146500Y225087
X136500Y225087
X156500Y225087
X166500Y225087
X176500Y225087
X186500Y225087
X111500Y227587
X101500Y227587
X91500Y227587
X91500Y217587
X101500Y217587
X111500Y217587
X111500Y195087
X101500Y195087
X91500Y195087
X91500Y185087
X101500Y185087
X111500Y185087
X81500Y185087
X81500Y195087
X71500Y195087
X61500Y195087
X51500Y195087
X51500Y185087
X61500Y185087
X71500Y185087
X41500Y185087
X41500Y195087
X31500Y195087
X21500Y195087
X21500Y185087
X31500Y185087
X31500Y217587
X31500Y227587
X21500Y227587
X21500Y217587
X41500Y217587
X41500Y227587
X51500Y227587
X61500Y227587
X71500Y227587
X81500Y227587
X81500Y217587
X71500Y217587
X61500Y217587
X51500Y217587
X186500Y130087
X196500Y130087
X206500Y130087
X206500Y120087
X196500Y120087
X186500Y120087
X186500Y110087
X196500Y110087
X206500Y110087
M30
