G75*
%MOIN*%
%OFA0B0*%
%FSLAX25Y25*%
%IPPOS*%
%LPD*%
%AMOC8*
5,1,8,0,0,1.08239X$1,22.5*
%
%ADD10C,0.00000*%
%ADD11C,0.06000*%
%ADD12C,0.12998*%
%ADD13C,0.06400*%
D10*
X0001500Y0001500D02*
X0001500Y0141657D01*
X0151106Y0141657D01*
X0151106Y0001500D01*
X0001500Y0001500D01*
X0015201Y0011500D02*
X0015203Y0011658D01*
X0015209Y0011816D01*
X0015219Y0011974D01*
X0015233Y0012132D01*
X0015251Y0012289D01*
X0015272Y0012446D01*
X0015298Y0012602D01*
X0015328Y0012758D01*
X0015361Y0012913D01*
X0015399Y0013066D01*
X0015440Y0013219D01*
X0015485Y0013371D01*
X0015534Y0013522D01*
X0015587Y0013671D01*
X0015643Y0013819D01*
X0015703Y0013965D01*
X0015767Y0014110D01*
X0015835Y0014253D01*
X0015906Y0014395D01*
X0015980Y0014535D01*
X0016058Y0014672D01*
X0016140Y0014808D01*
X0016224Y0014942D01*
X0016313Y0015073D01*
X0016404Y0015202D01*
X0016499Y0015329D01*
X0016596Y0015454D01*
X0016697Y0015576D01*
X0016801Y0015695D01*
X0016908Y0015812D01*
X0017018Y0015926D01*
X0017131Y0016037D01*
X0017246Y0016146D01*
X0017364Y0016251D01*
X0017485Y0016353D01*
X0017608Y0016453D01*
X0017734Y0016549D01*
X0017862Y0016642D01*
X0017992Y0016732D01*
X0018125Y0016818D01*
X0018260Y0016902D01*
X0018396Y0016981D01*
X0018535Y0017058D01*
X0018676Y0017130D01*
X0018818Y0017200D01*
X0018962Y0017265D01*
X0019108Y0017327D01*
X0019255Y0017385D01*
X0019404Y0017440D01*
X0019554Y0017491D01*
X0019705Y0017538D01*
X0019857Y0017581D01*
X0020010Y0017620D01*
X0020165Y0017656D01*
X0020320Y0017687D01*
X0020476Y0017715D01*
X0020632Y0017739D01*
X0020789Y0017759D01*
X0020947Y0017775D01*
X0021104Y0017787D01*
X0021263Y0017795D01*
X0021421Y0017799D01*
X0021579Y0017799D01*
X0021737Y0017795D01*
X0021896Y0017787D01*
X0022053Y0017775D01*
X0022211Y0017759D01*
X0022368Y0017739D01*
X0022524Y0017715D01*
X0022680Y0017687D01*
X0022835Y0017656D01*
X0022990Y0017620D01*
X0023143Y0017581D01*
X0023295Y0017538D01*
X0023446Y0017491D01*
X0023596Y0017440D01*
X0023745Y0017385D01*
X0023892Y0017327D01*
X0024038Y0017265D01*
X0024182Y0017200D01*
X0024324Y0017130D01*
X0024465Y0017058D01*
X0024604Y0016981D01*
X0024740Y0016902D01*
X0024875Y0016818D01*
X0025008Y0016732D01*
X0025138Y0016642D01*
X0025266Y0016549D01*
X0025392Y0016453D01*
X0025515Y0016353D01*
X0025636Y0016251D01*
X0025754Y0016146D01*
X0025869Y0016037D01*
X0025982Y0015926D01*
X0026092Y0015812D01*
X0026199Y0015695D01*
X0026303Y0015576D01*
X0026404Y0015454D01*
X0026501Y0015329D01*
X0026596Y0015202D01*
X0026687Y0015073D01*
X0026776Y0014942D01*
X0026860Y0014808D01*
X0026942Y0014672D01*
X0027020Y0014535D01*
X0027094Y0014395D01*
X0027165Y0014253D01*
X0027233Y0014110D01*
X0027297Y0013965D01*
X0027357Y0013819D01*
X0027413Y0013671D01*
X0027466Y0013522D01*
X0027515Y0013371D01*
X0027560Y0013219D01*
X0027601Y0013066D01*
X0027639Y0012913D01*
X0027672Y0012758D01*
X0027702Y0012602D01*
X0027728Y0012446D01*
X0027749Y0012289D01*
X0027767Y0012132D01*
X0027781Y0011974D01*
X0027791Y0011816D01*
X0027797Y0011658D01*
X0027799Y0011500D01*
X0027797Y0011342D01*
X0027791Y0011184D01*
X0027781Y0011026D01*
X0027767Y0010868D01*
X0027749Y0010711D01*
X0027728Y0010554D01*
X0027702Y0010398D01*
X0027672Y0010242D01*
X0027639Y0010087D01*
X0027601Y0009934D01*
X0027560Y0009781D01*
X0027515Y0009629D01*
X0027466Y0009478D01*
X0027413Y0009329D01*
X0027357Y0009181D01*
X0027297Y0009035D01*
X0027233Y0008890D01*
X0027165Y0008747D01*
X0027094Y0008605D01*
X0027020Y0008465D01*
X0026942Y0008328D01*
X0026860Y0008192D01*
X0026776Y0008058D01*
X0026687Y0007927D01*
X0026596Y0007798D01*
X0026501Y0007671D01*
X0026404Y0007546D01*
X0026303Y0007424D01*
X0026199Y0007305D01*
X0026092Y0007188D01*
X0025982Y0007074D01*
X0025869Y0006963D01*
X0025754Y0006854D01*
X0025636Y0006749D01*
X0025515Y0006647D01*
X0025392Y0006547D01*
X0025266Y0006451D01*
X0025138Y0006358D01*
X0025008Y0006268D01*
X0024875Y0006182D01*
X0024740Y0006098D01*
X0024604Y0006019D01*
X0024465Y0005942D01*
X0024324Y0005870D01*
X0024182Y0005800D01*
X0024038Y0005735D01*
X0023892Y0005673D01*
X0023745Y0005615D01*
X0023596Y0005560D01*
X0023446Y0005509D01*
X0023295Y0005462D01*
X0023143Y0005419D01*
X0022990Y0005380D01*
X0022835Y0005344D01*
X0022680Y0005313D01*
X0022524Y0005285D01*
X0022368Y0005261D01*
X0022211Y0005241D01*
X0022053Y0005225D01*
X0021896Y0005213D01*
X0021737Y0005205D01*
X0021579Y0005201D01*
X0021421Y0005201D01*
X0021263Y0005205D01*
X0021104Y0005213D01*
X0020947Y0005225D01*
X0020789Y0005241D01*
X0020632Y0005261D01*
X0020476Y0005285D01*
X0020320Y0005313D01*
X0020165Y0005344D01*
X0020010Y0005380D01*
X0019857Y0005419D01*
X0019705Y0005462D01*
X0019554Y0005509D01*
X0019404Y0005560D01*
X0019255Y0005615D01*
X0019108Y0005673D01*
X0018962Y0005735D01*
X0018818Y0005800D01*
X0018676Y0005870D01*
X0018535Y0005942D01*
X0018396Y0006019D01*
X0018260Y0006098D01*
X0018125Y0006182D01*
X0017992Y0006268D01*
X0017862Y0006358D01*
X0017734Y0006451D01*
X0017608Y0006547D01*
X0017485Y0006647D01*
X0017364Y0006749D01*
X0017246Y0006854D01*
X0017131Y0006963D01*
X0017018Y0007074D01*
X0016908Y0007188D01*
X0016801Y0007305D01*
X0016697Y0007424D01*
X0016596Y0007546D01*
X0016499Y0007671D01*
X0016404Y0007798D01*
X0016313Y0007927D01*
X0016224Y0008058D01*
X0016140Y0008192D01*
X0016058Y0008328D01*
X0015980Y0008465D01*
X0015906Y0008605D01*
X0015835Y0008747D01*
X0015767Y0008890D01*
X0015703Y0009035D01*
X0015643Y0009181D01*
X0015587Y0009329D01*
X0015534Y0009478D01*
X0015485Y0009629D01*
X0015440Y0009781D01*
X0015399Y0009934D01*
X0015361Y0010087D01*
X0015328Y0010242D01*
X0015298Y0010398D01*
X0015272Y0010554D01*
X0015251Y0010711D01*
X0015233Y0010868D01*
X0015219Y0011026D01*
X0015209Y0011184D01*
X0015203Y0011342D01*
X0015201Y0011500D01*
X0015201Y0061500D02*
X0015203Y0061658D01*
X0015209Y0061816D01*
X0015219Y0061974D01*
X0015233Y0062132D01*
X0015251Y0062289D01*
X0015272Y0062446D01*
X0015298Y0062602D01*
X0015328Y0062758D01*
X0015361Y0062913D01*
X0015399Y0063066D01*
X0015440Y0063219D01*
X0015485Y0063371D01*
X0015534Y0063522D01*
X0015587Y0063671D01*
X0015643Y0063819D01*
X0015703Y0063965D01*
X0015767Y0064110D01*
X0015835Y0064253D01*
X0015906Y0064395D01*
X0015980Y0064535D01*
X0016058Y0064672D01*
X0016140Y0064808D01*
X0016224Y0064942D01*
X0016313Y0065073D01*
X0016404Y0065202D01*
X0016499Y0065329D01*
X0016596Y0065454D01*
X0016697Y0065576D01*
X0016801Y0065695D01*
X0016908Y0065812D01*
X0017018Y0065926D01*
X0017131Y0066037D01*
X0017246Y0066146D01*
X0017364Y0066251D01*
X0017485Y0066353D01*
X0017608Y0066453D01*
X0017734Y0066549D01*
X0017862Y0066642D01*
X0017992Y0066732D01*
X0018125Y0066818D01*
X0018260Y0066902D01*
X0018396Y0066981D01*
X0018535Y0067058D01*
X0018676Y0067130D01*
X0018818Y0067200D01*
X0018962Y0067265D01*
X0019108Y0067327D01*
X0019255Y0067385D01*
X0019404Y0067440D01*
X0019554Y0067491D01*
X0019705Y0067538D01*
X0019857Y0067581D01*
X0020010Y0067620D01*
X0020165Y0067656D01*
X0020320Y0067687D01*
X0020476Y0067715D01*
X0020632Y0067739D01*
X0020789Y0067759D01*
X0020947Y0067775D01*
X0021104Y0067787D01*
X0021263Y0067795D01*
X0021421Y0067799D01*
X0021579Y0067799D01*
X0021737Y0067795D01*
X0021896Y0067787D01*
X0022053Y0067775D01*
X0022211Y0067759D01*
X0022368Y0067739D01*
X0022524Y0067715D01*
X0022680Y0067687D01*
X0022835Y0067656D01*
X0022990Y0067620D01*
X0023143Y0067581D01*
X0023295Y0067538D01*
X0023446Y0067491D01*
X0023596Y0067440D01*
X0023745Y0067385D01*
X0023892Y0067327D01*
X0024038Y0067265D01*
X0024182Y0067200D01*
X0024324Y0067130D01*
X0024465Y0067058D01*
X0024604Y0066981D01*
X0024740Y0066902D01*
X0024875Y0066818D01*
X0025008Y0066732D01*
X0025138Y0066642D01*
X0025266Y0066549D01*
X0025392Y0066453D01*
X0025515Y0066353D01*
X0025636Y0066251D01*
X0025754Y0066146D01*
X0025869Y0066037D01*
X0025982Y0065926D01*
X0026092Y0065812D01*
X0026199Y0065695D01*
X0026303Y0065576D01*
X0026404Y0065454D01*
X0026501Y0065329D01*
X0026596Y0065202D01*
X0026687Y0065073D01*
X0026776Y0064942D01*
X0026860Y0064808D01*
X0026942Y0064672D01*
X0027020Y0064535D01*
X0027094Y0064395D01*
X0027165Y0064253D01*
X0027233Y0064110D01*
X0027297Y0063965D01*
X0027357Y0063819D01*
X0027413Y0063671D01*
X0027466Y0063522D01*
X0027515Y0063371D01*
X0027560Y0063219D01*
X0027601Y0063066D01*
X0027639Y0062913D01*
X0027672Y0062758D01*
X0027702Y0062602D01*
X0027728Y0062446D01*
X0027749Y0062289D01*
X0027767Y0062132D01*
X0027781Y0061974D01*
X0027791Y0061816D01*
X0027797Y0061658D01*
X0027799Y0061500D01*
X0027797Y0061342D01*
X0027791Y0061184D01*
X0027781Y0061026D01*
X0027767Y0060868D01*
X0027749Y0060711D01*
X0027728Y0060554D01*
X0027702Y0060398D01*
X0027672Y0060242D01*
X0027639Y0060087D01*
X0027601Y0059934D01*
X0027560Y0059781D01*
X0027515Y0059629D01*
X0027466Y0059478D01*
X0027413Y0059329D01*
X0027357Y0059181D01*
X0027297Y0059035D01*
X0027233Y0058890D01*
X0027165Y0058747D01*
X0027094Y0058605D01*
X0027020Y0058465D01*
X0026942Y0058328D01*
X0026860Y0058192D01*
X0026776Y0058058D01*
X0026687Y0057927D01*
X0026596Y0057798D01*
X0026501Y0057671D01*
X0026404Y0057546D01*
X0026303Y0057424D01*
X0026199Y0057305D01*
X0026092Y0057188D01*
X0025982Y0057074D01*
X0025869Y0056963D01*
X0025754Y0056854D01*
X0025636Y0056749D01*
X0025515Y0056647D01*
X0025392Y0056547D01*
X0025266Y0056451D01*
X0025138Y0056358D01*
X0025008Y0056268D01*
X0024875Y0056182D01*
X0024740Y0056098D01*
X0024604Y0056019D01*
X0024465Y0055942D01*
X0024324Y0055870D01*
X0024182Y0055800D01*
X0024038Y0055735D01*
X0023892Y0055673D01*
X0023745Y0055615D01*
X0023596Y0055560D01*
X0023446Y0055509D01*
X0023295Y0055462D01*
X0023143Y0055419D01*
X0022990Y0055380D01*
X0022835Y0055344D01*
X0022680Y0055313D01*
X0022524Y0055285D01*
X0022368Y0055261D01*
X0022211Y0055241D01*
X0022053Y0055225D01*
X0021896Y0055213D01*
X0021737Y0055205D01*
X0021579Y0055201D01*
X0021421Y0055201D01*
X0021263Y0055205D01*
X0021104Y0055213D01*
X0020947Y0055225D01*
X0020789Y0055241D01*
X0020632Y0055261D01*
X0020476Y0055285D01*
X0020320Y0055313D01*
X0020165Y0055344D01*
X0020010Y0055380D01*
X0019857Y0055419D01*
X0019705Y0055462D01*
X0019554Y0055509D01*
X0019404Y0055560D01*
X0019255Y0055615D01*
X0019108Y0055673D01*
X0018962Y0055735D01*
X0018818Y0055800D01*
X0018676Y0055870D01*
X0018535Y0055942D01*
X0018396Y0056019D01*
X0018260Y0056098D01*
X0018125Y0056182D01*
X0017992Y0056268D01*
X0017862Y0056358D01*
X0017734Y0056451D01*
X0017608Y0056547D01*
X0017485Y0056647D01*
X0017364Y0056749D01*
X0017246Y0056854D01*
X0017131Y0056963D01*
X0017018Y0057074D01*
X0016908Y0057188D01*
X0016801Y0057305D01*
X0016697Y0057424D01*
X0016596Y0057546D01*
X0016499Y0057671D01*
X0016404Y0057798D01*
X0016313Y0057927D01*
X0016224Y0058058D01*
X0016140Y0058192D01*
X0016058Y0058328D01*
X0015980Y0058465D01*
X0015906Y0058605D01*
X0015835Y0058747D01*
X0015767Y0058890D01*
X0015703Y0059035D01*
X0015643Y0059181D01*
X0015587Y0059329D01*
X0015534Y0059478D01*
X0015485Y0059629D01*
X0015440Y0059781D01*
X0015399Y0059934D01*
X0015361Y0060087D01*
X0015328Y0060242D01*
X0015298Y0060398D01*
X0015272Y0060554D01*
X0015251Y0060711D01*
X0015233Y0060868D01*
X0015219Y0061026D01*
X0015209Y0061184D01*
X0015203Y0061342D01*
X0015201Y0061500D01*
X0015201Y0081500D02*
X0015203Y0081658D01*
X0015209Y0081816D01*
X0015219Y0081974D01*
X0015233Y0082132D01*
X0015251Y0082289D01*
X0015272Y0082446D01*
X0015298Y0082602D01*
X0015328Y0082758D01*
X0015361Y0082913D01*
X0015399Y0083066D01*
X0015440Y0083219D01*
X0015485Y0083371D01*
X0015534Y0083522D01*
X0015587Y0083671D01*
X0015643Y0083819D01*
X0015703Y0083965D01*
X0015767Y0084110D01*
X0015835Y0084253D01*
X0015906Y0084395D01*
X0015980Y0084535D01*
X0016058Y0084672D01*
X0016140Y0084808D01*
X0016224Y0084942D01*
X0016313Y0085073D01*
X0016404Y0085202D01*
X0016499Y0085329D01*
X0016596Y0085454D01*
X0016697Y0085576D01*
X0016801Y0085695D01*
X0016908Y0085812D01*
X0017018Y0085926D01*
X0017131Y0086037D01*
X0017246Y0086146D01*
X0017364Y0086251D01*
X0017485Y0086353D01*
X0017608Y0086453D01*
X0017734Y0086549D01*
X0017862Y0086642D01*
X0017992Y0086732D01*
X0018125Y0086818D01*
X0018260Y0086902D01*
X0018396Y0086981D01*
X0018535Y0087058D01*
X0018676Y0087130D01*
X0018818Y0087200D01*
X0018962Y0087265D01*
X0019108Y0087327D01*
X0019255Y0087385D01*
X0019404Y0087440D01*
X0019554Y0087491D01*
X0019705Y0087538D01*
X0019857Y0087581D01*
X0020010Y0087620D01*
X0020165Y0087656D01*
X0020320Y0087687D01*
X0020476Y0087715D01*
X0020632Y0087739D01*
X0020789Y0087759D01*
X0020947Y0087775D01*
X0021104Y0087787D01*
X0021263Y0087795D01*
X0021421Y0087799D01*
X0021579Y0087799D01*
X0021737Y0087795D01*
X0021896Y0087787D01*
X0022053Y0087775D01*
X0022211Y0087759D01*
X0022368Y0087739D01*
X0022524Y0087715D01*
X0022680Y0087687D01*
X0022835Y0087656D01*
X0022990Y0087620D01*
X0023143Y0087581D01*
X0023295Y0087538D01*
X0023446Y0087491D01*
X0023596Y0087440D01*
X0023745Y0087385D01*
X0023892Y0087327D01*
X0024038Y0087265D01*
X0024182Y0087200D01*
X0024324Y0087130D01*
X0024465Y0087058D01*
X0024604Y0086981D01*
X0024740Y0086902D01*
X0024875Y0086818D01*
X0025008Y0086732D01*
X0025138Y0086642D01*
X0025266Y0086549D01*
X0025392Y0086453D01*
X0025515Y0086353D01*
X0025636Y0086251D01*
X0025754Y0086146D01*
X0025869Y0086037D01*
X0025982Y0085926D01*
X0026092Y0085812D01*
X0026199Y0085695D01*
X0026303Y0085576D01*
X0026404Y0085454D01*
X0026501Y0085329D01*
X0026596Y0085202D01*
X0026687Y0085073D01*
X0026776Y0084942D01*
X0026860Y0084808D01*
X0026942Y0084672D01*
X0027020Y0084535D01*
X0027094Y0084395D01*
X0027165Y0084253D01*
X0027233Y0084110D01*
X0027297Y0083965D01*
X0027357Y0083819D01*
X0027413Y0083671D01*
X0027466Y0083522D01*
X0027515Y0083371D01*
X0027560Y0083219D01*
X0027601Y0083066D01*
X0027639Y0082913D01*
X0027672Y0082758D01*
X0027702Y0082602D01*
X0027728Y0082446D01*
X0027749Y0082289D01*
X0027767Y0082132D01*
X0027781Y0081974D01*
X0027791Y0081816D01*
X0027797Y0081658D01*
X0027799Y0081500D01*
X0027797Y0081342D01*
X0027791Y0081184D01*
X0027781Y0081026D01*
X0027767Y0080868D01*
X0027749Y0080711D01*
X0027728Y0080554D01*
X0027702Y0080398D01*
X0027672Y0080242D01*
X0027639Y0080087D01*
X0027601Y0079934D01*
X0027560Y0079781D01*
X0027515Y0079629D01*
X0027466Y0079478D01*
X0027413Y0079329D01*
X0027357Y0079181D01*
X0027297Y0079035D01*
X0027233Y0078890D01*
X0027165Y0078747D01*
X0027094Y0078605D01*
X0027020Y0078465D01*
X0026942Y0078328D01*
X0026860Y0078192D01*
X0026776Y0078058D01*
X0026687Y0077927D01*
X0026596Y0077798D01*
X0026501Y0077671D01*
X0026404Y0077546D01*
X0026303Y0077424D01*
X0026199Y0077305D01*
X0026092Y0077188D01*
X0025982Y0077074D01*
X0025869Y0076963D01*
X0025754Y0076854D01*
X0025636Y0076749D01*
X0025515Y0076647D01*
X0025392Y0076547D01*
X0025266Y0076451D01*
X0025138Y0076358D01*
X0025008Y0076268D01*
X0024875Y0076182D01*
X0024740Y0076098D01*
X0024604Y0076019D01*
X0024465Y0075942D01*
X0024324Y0075870D01*
X0024182Y0075800D01*
X0024038Y0075735D01*
X0023892Y0075673D01*
X0023745Y0075615D01*
X0023596Y0075560D01*
X0023446Y0075509D01*
X0023295Y0075462D01*
X0023143Y0075419D01*
X0022990Y0075380D01*
X0022835Y0075344D01*
X0022680Y0075313D01*
X0022524Y0075285D01*
X0022368Y0075261D01*
X0022211Y0075241D01*
X0022053Y0075225D01*
X0021896Y0075213D01*
X0021737Y0075205D01*
X0021579Y0075201D01*
X0021421Y0075201D01*
X0021263Y0075205D01*
X0021104Y0075213D01*
X0020947Y0075225D01*
X0020789Y0075241D01*
X0020632Y0075261D01*
X0020476Y0075285D01*
X0020320Y0075313D01*
X0020165Y0075344D01*
X0020010Y0075380D01*
X0019857Y0075419D01*
X0019705Y0075462D01*
X0019554Y0075509D01*
X0019404Y0075560D01*
X0019255Y0075615D01*
X0019108Y0075673D01*
X0018962Y0075735D01*
X0018818Y0075800D01*
X0018676Y0075870D01*
X0018535Y0075942D01*
X0018396Y0076019D01*
X0018260Y0076098D01*
X0018125Y0076182D01*
X0017992Y0076268D01*
X0017862Y0076358D01*
X0017734Y0076451D01*
X0017608Y0076547D01*
X0017485Y0076647D01*
X0017364Y0076749D01*
X0017246Y0076854D01*
X0017131Y0076963D01*
X0017018Y0077074D01*
X0016908Y0077188D01*
X0016801Y0077305D01*
X0016697Y0077424D01*
X0016596Y0077546D01*
X0016499Y0077671D01*
X0016404Y0077798D01*
X0016313Y0077927D01*
X0016224Y0078058D01*
X0016140Y0078192D01*
X0016058Y0078328D01*
X0015980Y0078465D01*
X0015906Y0078605D01*
X0015835Y0078747D01*
X0015767Y0078890D01*
X0015703Y0079035D01*
X0015643Y0079181D01*
X0015587Y0079329D01*
X0015534Y0079478D01*
X0015485Y0079629D01*
X0015440Y0079781D01*
X0015399Y0079934D01*
X0015361Y0080087D01*
X0015328Y0080242D01*
X0015298Y0080398D01*
X0015272Y0080554D01*
X0015251Y0080711D01*
X0015233Y0080868D01*
X0015219Y0081026D01*
X0015209Y0081184D01*
X0015203Y0081342D01*
X0015201Y0081500D01*
X0015201Y0131500D02*
X0015203Y0131658D01*
X0015209Y0131816D01*
X0015219Y0131974D01*
X0015233Y0132132D01*
X0015251Y0132289D01*
X0015272Y0132446D01*
X0015298Y0132602D01*
X0015328Y0132758D01*
X0015361Y0132913D01*
X0015399Y0133066D01*
X0015440Y0133219D01*
X0015485Y0133371D01*
X0015534Y0133522D01*
X0015587Y0133671D01*
X0015643Y0133819D01*
X0015703Y0133965D01*
X0015767Y0134110D01*
X0015835Y0134253D01*
X0015906Y0134395D01*
X0015980Y0134535D01*
X0016058Y0134672D01*
X0016140Y0134808D01*
X0016224Y0134942D01*
X0016313Y0135073D01*
X0016404Y0135202D01*
X0016499Y0135329D01*
X0016596Y0135454D01*
X0016697Y0135576D01*
X0016801Y0135695D01*
X0016908Y0135812D01*
X0017018Y0135926D01*
X0017131Y0136037D01*
X0017246Y0136146D01*
X0017364Y0136251D01*
X0017485Y0136353D01*
X0017608Y0136453D01*
X0017734Y0136549D01*
X0017862Y0136642D01*
X0017992Y0136732D01*
X0018125Y0136818D01*
X0018260Y0136902D01*
X0018396Y0136981D01*
X0018535Y0137058D01*
X0018676Y0137130D01*
X0018818Y0137200D01*
X0018962Y0137265D01*
X0019108Y0137327D01*
X0019255Y0137385D01*
X0019404Y0137440D01*
X0019554Y0137491D01*
X0019705Y0137538D01*
X0019857Y0137581D01*
X0020010Y0137620D01*
X0020165Y0137656D01*
X0020320Y0137687D01*
X0020476Y0137715D01*
X0020632Y0137739D01*
X0020789Y0137759D01*
X0020947Y0137775D01*
X0021104Y0137787D01*
X0021263Y0137795D01*
X0021421Y0137799D01*
X0021579Y0137799D01*
X0021737Y0137795D01*
X0021896Y0137787D01*
X0022053Y0137775D01*
X0022211Y0137759D01*
X0022368Y0137739D01*
X0022524Y0137715D01*
X0022680Y0137687D01*
X0022835Y0137656D01*
X0022990Y0137620D01*
X0023143Y0137581D01*
X0023295Y0137538D01*
X0023446Y0137491D01*
X0023596Y0137440D01*
X0023745Y0137385D01*
X0023892Y0137327D01*
X0024038Y0137265D01*
X0024182Y0137200D01*
X0024324Y0137130D01*
X0024465Y0137058D01*
X0024604Y0136981D01*
X0024740Y0136902D01*
X0024875Y0136818D01*
X0025008Y0136732D01*
X0025138Y0136642D01*
X0025266Y0136549D01*
X0025392Y0136453D01*
X0025515Y0136353D01*
X0025636Y0136251D01*
X0025754Y0136146D01*
X0025869Y0136037D01*
X0025982Y0135926D01*
X0026092Y0135812D01*
X0026199Y0135695D01*
X0026303Y0135576D01*
X0026404Y0135454D01*
X0026501Y0135329D01*
X0026596Y0135202D01*
X0026687Y0135073D01*
X0026776Y0134942D01*
X0026860Y0134808D01*
X0026942Y0134672D01*
X0027020Y0134535D01*
X0027094Y0134395D01*
X0027165Y0134253D01*
X0027233Y0134110D01*
X0027297Y0133965D01*
X0027357Y0133819D01*
X0027413Y0133671D01*
X0027466Y0133522D01*
X0027515Y0133371D01*
X0027560Y0133219D01*
X0027601Y0133066D01*
X0027639Y0132913D01*
X0027672Y0132758D01*
X0027702Y0132602D01*
X0027728Y0132446D01*
X0027749Y0132289D01*
X0027767Y0132132D01*
X0027781Y0131974D01*
X0027791Y0131816D01*
X0027797Y0131658D01*
X0027799Y0131500D01*
X0027797Y0131342D01*
X0027791Y0131184D01*
X0027781Y0131026D01*
X0027767Y0130868D01*
X0027749Y0130711D01*
X0027728Y0130554D01*
X0027702Y0130398D01*
X0027672Y0130242D01*
X0027639Y0130087D01*
X0027601Y0129934D01*
X0027560Y0129781D01*
X0027515Y0129629D01*
X0027466Y0129478D01*
X0027413Y0129329D01*
X0027357Y0129181D01*
X0027297Y0129035D01*
X0027233Y0128890D01*
X0027165Y0128747D01*
X0027094Y0128605D01*
X0027020Y0128465D01*
X0026942Y0128328D01*
X0026860Y0128192D01*
X0026776Y0128058D01*
X0026687Y0127927D01*
X0026596Y0127798D01*
X0026501Y0127671D01*
X0026404Y0127546D01*
X0026303Y0127424D01*
X0026199Y0127305D01*
X0026092Y0127188D01*
X0025982Y0127074D01*
X0025869Y0126963D01*
X0025754Y0126854D01*
X0025636Y0126749D01*
X0025515Y0126647D01*
X0025392Y0126547D01*
X0025266Y0126451D01*
X0025138Y0126358D01*
X0025008Y0126268D01*
X0024875Y0126182D01*
X0024740Y0126098D01*
X0024604Y0126019D01*
X0024465Y0125942D01*
X0024324Y0125870D01*
X0024182Y0125800D01*
X0024038Y0125735D01*
X0023892Y0125673D01*
X0023745Y0125615D01*
X0023596Y0125560D01*
X0023446Y0125509D01*
X0023295Y0125462D01*
X0023143Y0125419D01*
X0022990Y0125380D01*
X0022835Y0125344D01*
X0022680Y0125313D01*
X0022524Y0125285D01*
X0022368Y0125261D01*
X0022211Y0125241D01*
X0022053Y0125225D01*
X0021896Y0125213D01*
X0021737Y0125205D01*
X0021579Y0125201D01*
X0021421Y0125201D01*
X0021263Y0125205D01*
X0021104Y0125213D01*
X0020947Y0125225D01*
X0020789Y0125241D01*
X0020632Y0125261D01*
X0020476Y0125285D01*
X0020320Y0125313D01*
X0020165Y0125344D01*
X0020010Y0125380D01*
X0019857Y0125419D01*
X0019705Y0125462D01*
X0019554Y0125509D01*
X0019404Y0125560D01*
X0019255Y0125615D01*
X0019108Y0125673D01*
X0018962Y0125735D01*
X0018818Y0125800D01*
X0018676Y0125870D01*
X0018535Y0125942D01*
X0018396Y0126019D01*
X0018260Y0126098D01*
X0018125Y0126182D01*
X0017992Y0126268D01*
X0017862Y0126358D01*
X0017734Y0126451D01*
X0017608Y0126547D01*
X0017485Y0126647D01*
X0017364Y0126749D01*
X0017246Y0126854D01*
X0017131Y0126963D01*
X0017018Y0127074D01*
X0016908Y0127188D01*
X0016801Y0127305D01*
X0016697Y0127424D01*
X0016596Y0127546D01*
X0016499Y0127671D01*
X0016404Y0127798D01*
X0016313Y0127927D01*
X0016224Y0128058D01*
X0016140Y0128192D01*
X0016058Y0128328D01*
X0015980Y0128465D01*
X0015906Y0128605D01*
X0015835Y0128747D01*
X0015767Y0128890D01*
X0015703Y0129035D01*
X0015643Y0129181D01*
X0015587Y0129329D01*
X0015534Y0129478D01*
X0015485Y0129629D01*
X0015440Y0129781D01*
X0015399Y0129934D01*
X0015361Y0130087D01*
X0015328Y0130242D01*
X0015298Y0130398D01*
X0015272Y0130554D01*
X0015251Y0130711D01*
X0015233Y0130868D01*
X0015219Y0131026D01*
X0015209Y0131184D01*
X0015203Y0131342D01*
X0015201Y0131500D01*
X0125280Y0128106D02*
X0125282Y0128264D01*
X0125288Y0128422D01*
X0125298Y0128580D01*
X0125312Y0128738D01*
X0125330Y0128895D01*
X0125351Y0129052D01*
X0125377Y0129208D01*
X0125407Y0129364D01*
X0125440Y0129519D01*
X0125478Y0129672D01*
X0125519Y0129825D01*
X0125564Y0129977D01*
X0125613Y0130128D01*
X0125666Y0130277D01*
X0125722Y0130425D01*
X0125782Y0130571D01*
X0125846Y0130716D01*
X0125914Y0130859D01*
X0125985Y0131001D01*
X0126059Y0131141D01*
X0126137Y0131278D01*
X0126219Y0131414D01*
X0126303Y0131548D01*
X0126392Y0131679D01*
X0126483Y0131808D01*
X0126578Y0131935D01*
X0126675Y0132060D01*
X0126776Y0132182D01*
X0126880Y0132301D01*
X0126987Y0132418D01*
X0127097Y0132532D01*
X0127210Y0132643D01*
X0127325Y0132752D01*
X0127443Y0132857D01*
X0127564Y0132959D01*
X0127687Y0133059D01*
X0127813Y0133155D01*
X0127941Y0133248D01*
X0128071Y0133338D01*
X0128204Y0133424D01*
X0128339Y0133508D01*
X0128475Y0133587D01*
X0128614Y0133664D01*
X0128755Y0133736D01*
X0128897Y0133806D01*
X0129041Y0133871D01*
X0129187Y0133933D01*
X0129334Y0133991D01*
X0129483Y0134046D01*
X0129633Y0134097D01*
X0129784Y0134144D01*
X0129936Y0134187D01*
X0130089Y0134226D01*
X0130244Y0134262D01*
X0130399Y0134293D01*
X0130555Y0134321D01*
X0130711Y0134345D01*
X0130868Y0134365D01*
X0131026Y0134381D01*
X0131183Y0134393D01*
X0131342Y0134401D01*
X0131500Y0134405D01*
X0131658Y0134405D01*
X0131816Y0134401D01*
X0131975Y0134393D01*
X0132132Y0134381D01*
X0132290Y0134365D01*
X0132447Y0134345D01*
X0132603Y0134321D01*
X0132759Y0134293D01*
X0132914Y0134262D01*
X0133069Y0134226D01*
X0133222Y0134187D01*
X0133374Y0134144D01*
X0133525Y0134097D01*
X0133675Y0134046D01*
X0133824Y0133991D01*
X0133971Y0133933D01*
X0134117Y0133871D01*
X0134261Y0133806D01*
X0134403Y0133736D01*
X0134544Y0133664D01*
X0134683Y0133587D01*
X0134819Y0133508D01*
X0134954Y0133424D01*
X0135087Y0133338D01*
X0135217Y0133248D01*
X0135345Y0133155D01*
X0135471Y0133059D01*
X0135594Y0132959D01*
X0135715Y0132857D01*
X0135833Y0132752D01*
X0135948Y0132643D01*
X0136061Y0132532D01*
X0136171Y0132418D01*
X0136278Y0132301D01*
X0136382Y0132182D01*
X0136483Y0132060D01*
X0136580Y0131935D01*
X0136675Y0131808D01*
X0136766Y0131679D01*
X0136855Y0131548D01*
X0136939Y0131414D01*
X0137021Y0131278D01*
X0137099Y0131141D01*
X0137173Y0131001D01*
X0137244Y0130859D01*
X0137312Y0130716D01*
X0137376Y0130571D01*
X0137436Y0130425D01*
X0137492Y0130277D01*
X0137545Y0130128D01*
X0137594Y0129977D01*
X0137639Y0129825D01*
X0137680Y0129672D01*
X0137718Y0129519D01*
X0137751Y0129364D01*
X0137781Y0129208D01*
X0137807Y0129052D01*
X0137828Y0128895D01*
X0137846Y0128738D01*
X0137860Y0128580D01*
X0137870Y0128422D01*
X0137876Y0128264D01*
X0137878Y0128106D01*
X0137876Y0127948D01*
X0137870Y0127790D01*
X0137860Y0127632D01*
X0137846Y0127474D01*
X0137828Y0127317D01*
X0137807Y0127160D01*
X0137781Y0127004D01*
X0137751Y0126848D01*
X0137718Y0126693D01*
X0137680Y0126540D01*
X0137639Y0126387D01*
X0137594Y0126235D01*
X0137545Y0126084D01*
X0137492Y0125935D01*
X0137436Y0125787D01*
X0137376Y0125641D01*
X0137312Y0125496D01*
X0137244Y0125353D01*
X0137173Y0125211D01*
X0137099Y0125071D01*
X0137021Y0124934D01*
X0136939Y0124798D01*
X0136855Y0124664D01*
X0136766Y0124533D01*
X0136675Y0124404D01*
X0136580Y0124277D01*
X0136483Y0124152D01*
X0136382Y0124030D01*
X0136278Y0123911D01*
X0136171Y0123794D01*
X0136061Y0123680D01*
X0135948Y0123569D01*
X0135833Y0123460D01*
X0135715Y0123355D01*
X0135594Y0123253D01*
X0135471Y0123153D01*
X0135345Y0123057D01*
X0135217Y0122964D01*
X0135087Y0122874D01*
X0134954Y0122788D01*
X0134819Y0122704D01*
X0134683Y0122625D01*
X0134544Y0122548D01*
X0134403Y0122476D01*
X0134261Y0122406D01*
X0134117Y0122341D01*
X0133971Y0122279D01*
X0133824Y0122221D01*
X0133675Y0122166D01*
X0133525Y0122115D01*
X0133374Y0122068D01*
X0133222Y0122025D01*
X0133069Y0121986D01*
X0132914Y0121950D01*
X0132759Y0121919D01*
X0132603Y0121891D01*
X0132447Y0121867D01*
X0132290Y0121847D01*
X0132132Y0121831D01*
X0131975Y0121819D01*
X0131816Y0121811D01*
X0131658Y0121807D01*
X0131500Y0121807D01*
X0131342Y0121811D01*
X0131183Y0121819D01*
X0131026Y0121831D01*
X0130868Y0121847D01*
X0130711Y0121867D01*
X0130555Y0121891D01*
X0130399Y0121919D01*
X0130244Y0121950D01*
X0130089Y0121986D01*
X0129936Y0122025D01*
X0129784Y0122068D01*
X0129633Y0122115D01*
X0129483Y0122166D01*
X0129334Y0122221D01*
X0129187Y0122279D01*
X0129041Y0122341D01*
X0128897Y0122406D01*
X0128755Y0122476D01*
X0128614Y0122548D01*
X0128475Y0122625D01*
X0128339Y0122704D01*
X0128204Y0122788D01*
X0128071Y0122874D01*
X0127941Y0122964D01*
X0127813Y0123057D01*
X0127687Y0123153D01*
X0127564Y0123253D01*
X0127443Y0123355D01*
X0127325Y0123460D01*
X0127210Y0123569D01*
X0127097Y0123680D01*
X0126987Y0123794D01*
X0126880Y0123911D01*
X0126776Y0124030D01*
X0126675Y0124152D01*
X0126578Y0124277D01*
X0126483Y0124404D01*
X0126392Y0124533D01*
X0126303Y0124664D01*
X0126219Y0124798D01*
X0126137Y0124934D01*
X0126059Y0125071D01*
X0125985Y0125211D01*
X0125914Y0125353D01*
X0125846Y0125496D01*
X0125782Y0125641D01*
X0125722Y0125787D01*
X0125666Y0125935D01*
X0125613Y0126084D01*
X0125564Y0126235D01*
X0125519Y0126387D01*
X0125478Y0126540D01*
X0125440Y0126693D01*
X0125407Y0126848D01*
X0125377Y0127004D01*
X0125351Y0127160D01*
X0125330Y0127317D01*
X0125312Y0127474D01*
X0125298Y0127632D01*
X0125288Y0127790D01*
X0125282Y0127948D01*
X0125280Y0128106D01*
X0125280Y0078106D02*
X0125282Y0078264D01*
X0125288Y0078422D01*
X0125298Y0078580D01*
X0125312Y0078738D01*
X0125330Y0078895D01*
X0125351Y0079052D01*
X0125377Y0079208D01*
X0125407Y0079364D01*
X0125440Y0079519D01*
X0125478Y0079672D01*
X0125519Y0079825D01*
X0125564Y0079977D01*
X0125613Y0080128D01*
X0125666Y0080277D01*
X0125722Y0080425D01*
X0125782Y0080571D01*
X0125846Y0080716D01*
X0125914Y0080859D01*
X0125985Y0081001D01*
X0126059Y0081141D01*
X0126137Y0081278D01*
X0126219Y0081414D01*
X0126303Y0081548D01*
X0126392Y0081679D01*
X0126483Y0081808D01*
X0126578Y0081935D01*
X0126675Y0082060D01*
X0126776Y0082182D01*
X0126880Y0082301D01*
X0126987Y0082418D01*
X0127097Y0082532D01*
X0127210Y0082643D01*
X0127325Y0082752D01*
X0127443Y0082857D01*
X0127564Y0082959D01*
X0127687Y0083059D01*
X0127813Y0083155D01*
X0127941Y0083248D01*
X0128071Y0083338D01*
X0128204Y0083424D01*
X0128339Y0083508D01*
X0128475Y0083587D01*
X0128614Y0083664D01*
X0128755Y0083736D01*
X0128897Y0083806D01*
X0129041Y0083871D01*
X0129187Y0083933D01*
X0129334Y0083991D01*
X0129483Y0084046D01*
X0129633Y0084097D01*
X0129784Y0084144D01*
X0129936Y0084187D01*
X0130089Y0084226D01*
X0130244Y0084262D01*
X0130399Y0084293D01*
X0130555Y0084321D01*
X0130711Y0084345D01*
X0130868Y0084365D01*
X0131026Y0084381D01*
X0131183Y0084393D01*
X0131342Y0084401D01*
X0131500Y0084405D01*
X0131658Y0084405D01*
X0131816Y0084401D01*
X0131975Y0084393D01*
X0132132Y0084381D01*
X0132290Y0084365D01*
X0132447Y0084345D01*
X0132603Y0084321D01*
X0132759Y0084293D01*
X0132914Y0084262D01*
X0133069Y0084226D01*
X0133222Y0084187D01*
X0133374Y0084144D01*
X0133525Y0084097D01*
X0133675Y0084046D01*
X0133824Y0083991D01*
X0133971Y0083933D01*
X0134117Y0083871D01*
X0134261Y0083806D01*
X0134403Y0083736D01*
X0134544Y0083664D01*
X0134683Y0083587D01*
X0134819Y0083508D01*
X0134954Y0083424D01*
X0135087Y0083338D01*
X0135217Y0083248D01*
X0135345Y0083155D01*
X0135471Y0083059D01*
X0135594Y0082959D01*
X0135715Y0082857D01*
X0135833Y0082752D01*
X0135948Y0082643D01*
X0136061Y0082532D01*
X0136171Y0082418D01*
X0136278Y0082301D01*
X0136382Y0082182D01*
X0136483Y0082060D01*
X0136580Y0081935D01*
X0136675Y0081808D01*
X0136766Y0081679D01*
X0136855Y0081548D01*
X0136939Y0081414D01*
X0137021Y0081278D01*
X0137099Y0081141D01*
X0137173Y0081001D01*
X0137244Y0080859D01*
X0137312Y0080716D01*
X0137376Y0080571D01*
X0137436Y0080425D01*
X0137492Y0080277D01*
X0137545Y0080128D01*
X0137594Y0079977D01*
X0137639Y0079825D01*
X0137680Y0079672D01*
X0137718Y0079519D01*
X0137751Y0079364D01*
X0137781Y0079208D01*
X0137807Y0079052D01*
X0137828Y0078895D01*
X0137846Y0078738D01*
X0137860Y0078580D01*
X0137870Y0078422D01*
X0137876Y0078264D01*
X0137878Y0078106D01*
X0137876Y0077948D01*
X0137870Y0077790D01*
X0137860Y0077632D01*
X0137846Y0077474D01*
X0137828Y0077317D01*
X0137807Y0077160D01*
X0137781Y0077004D01*
X0137751Y0076848D01*
X0137718Y0076693D01*
X0137680Y0076540D01*
X0137639Y0076387D01*
X0137594Y0076235D01*
X0137545Y0076084D01*
X0137492Y0075935D01*
X0137436Y0075787D01*
X0137376Y0075641D01*
X0137312Y0075496D01*
X0137244Y0075353D01*
X0137173Y0075211D01*
X0137099Y0075071D01*
X0137021Y0074934D01*
X0136939Y0074798D01*
X0136855Y0074664D01*
X0136766Y0074533D01*
X0136675Y0074404D01*
X0136580Y0074277D01*
X0136483Y0074152D01*
X0136382Y0074030D01*
X0136278Y0073911D01*
X0136171Y0073794D01*
X0136061Y0073680D01*
X0135948Y0073569D01*
X0135833Y0073460D01*
X0135715Y0073355D01*
X0135594Y0073253D01*
X0135471Y0073153D01*
X0135345Y0073057D01*
X0135217Y0072964D01*
X0135087Y0072874D01*
X0134954Y0072788D01*
X0134819Y0072704D01*
X0134683Y0072625D01*
X0134544Y0072548D01*
X0134403Y0072476D01*
X0134261Y0072406D01*
X0134117Y0072341D01*
X0133971Y0072279D01*
X0133824Y0072221D01*
X0133675Y0072166D01*
X0133525Y0072115D01*
X0133374Y0072068D01*
X0133222Y0072025D01*
X0133069Y0071986D01*
X0132914Y0071950D01*
X0132759Y0071919D01*
X0132603Y0071891D01*
X0132447Y0071867D01*
X0132290Y0071847D01*
X0132132Y0071831D01*
X0131975Y0071819D01*
X0131816Y0071811D01*
X0131658Y0071807D01*
X0131500Y0071807D01*
X0131342Y0071811D01*
X0131183Y0071819D01*
X0131026Y0071831D01*
X0130868Y0071847D01*
X0130711Y0071867D01*
X0130555Y0071891D01*
X0130399Y0071919D01*
X0130244Y0071950D01*
X0130089Y0071986D01*
X0129936Y0072025D01*
X0129784Y0072068D01*
X0129633Y0072115D01*
X0129483Y0072166D01*
X0129334Y0072221D01*
X0129187Y0072279D01*
X0129041Y0072341D01*
X0128897Y0072406D01*
X0128755Y0072476D01*
X0128614Y0072548D01*
X0128475Y0072625D01*
X0128339Y0072704D01*
X0128204Y0072788D01*
X0128071Y0072874D01*
X0127941Y0072964D01*
X0127813Y0073057D01*
X0127687Y0073153D01*
X0127564Y0073253D01*
X0127443Y0073355D01*
X0127325Y0073460D01*
X0127210Y0073569D01*
X0127097Y0073680D01*
X0126987Y0073794D01*
X0126880Y0073911D01*
X0126776Y0074030D01*
X0126675Y0074152D01*
X0126578Y0074277D01*
X0126483Y0074404D01*
X0126392Y0074533D01*
X0126303Y0074664D01*
X0126219Y0074798D01*
X0126137Y0074934D01*
X0126059Y0075071D01*
X0125985Y0075211D01*
X0125914Y0075353D01*
X0125846Y0075496D01*
X0125782Y0075641D01*
X0125722Y0075787D01*
X0125666Y0075935D01*
X0125613Y0076084D01*
X0125564Y0076235D01*
X0125519Y0076387D01*
X0125478Y0076540D01*
X0125440Y0076693D01*
X0125407Y0076848D01*
X0125377Y0077004D01*
X0125351Y0077160D01*
X0125330Y0077317D01*
X0125312Y0077474D01*
X0125298Y0077632D01*
X0125288Y0077790D01*
X0125282Y0077948D01*
X0125280Y0078106D01*
X0125280Y0065902D02*
X0125282Y0066060D01*
X0125288Y0066218D01*
X0125298Y0066376D01*
X0125312Y0066534D01*
X0125330Y0066691D01*
X0125351Y0066848D01*
X0125377Y0067004D01*
X0125407Y0067160D01*
X0125440Y0067315D01*
X0125478Y0067468D01*
X0125519Y0067621D01*
X0125564Y0067773D01*
X0125613Y0067924D01*
X0125666Y0068073D01*
X0125722Y0068221D01*
X0125782Y0068367D01*
X0125846Y0068512D01*
X0125914Y0068655D01*
X0125985Y0068797D01*
X0126059Y0068937D01*
X0126137Y0069074D01*
X0126219Y0069210D01*
X0126303Y0069344D01*
X0126392Y0069475D01*
X0126483Y0069604D01*
X0126578Y0069731D01*
X0126675Y0069856D01*
X0126776Y0069978D01*
X0126880Y0070097D01*
X0126987Y0070214D01*
X0127097Y0070328D01*
X0127210Y0070439D01*
X0127325Y0070548D01*
X0127443Y0070653D01*
X0127564Y0070755D01*
X0127687Y0070855D01*
X0127813Y0070951D01*
X0127941Y0071044D01*
X0128071Y0071134D01*
X0128204Y0071220D01*
X0128339Y0071304D01*
X0128475Y0071383D01*
X0128614Y0071460D01*
X0128755Y0071532D01*
X0128897Y0071602D01*
X0129041Y0071667D01*
X0129187Y0071729D01*
X0129334Y0071787D01*
X0129483Y0071842D01*
X0129633Y0071893D01*
X0129784Y0071940D01*
X0129936Y0071983D01*
X0130089Y0072022D01*
X0130244Y0072058D01*
X0130399Y0072089D01*
X0130555Y0072117D01*
X0130711Y0072141D01*
X0130868Y0072161D01*
X0131026Y0072177D01*
X0131183Y0072189D01*
X0131342Y0072197D01*
X0131500Y0072201D01*
X0131658Y0072201D01*
X0131816Y0072197D01*
X0131975Y0072189D01*
X0132132Y0072177D01*
X0132290Y0072161D01*
X0132447Y0072141D01*
X0132603Y0072117D01*
X0132759Y0072089D01*
X0132914Y0072058D01*
X0133069Y0072022D01*
X0133222Y0071983D01*
X0133374Y0071940D01*
X0133525Y0071893D01*
X0133675Y0071842D01*
X0133824Y0071787D01*
X0133971Y0071729D01*
X0134117Y0071667D01*
X0134261Y0071602D01*
X0134403Y0071532D01*
X0134544Y0071460D01*
X0134683Y0071383D01*
X0134819Y0071304D01*
X0134954Y0071220D01*
X0135087Y0071134D01*
X0135217Y0071044D01*
X0135345Y0070951D01*
X0135471Y0070855D01*
X0135594Y0070755D01*
X0135715Y0070653D01*
X0135833Y0070548D01*
X0135948Y0070439D01*
X0136061Y0070328D01*
X0136171Y0070214D01*
X0136278Y0070097D01*
X0136382Y0069978D01*
X0136483Y0069856D01*
X0136580Y0069731D01*
X0136675Y0069604D01*
X0136766Y0069475D01*
X0136855Y0069344D01*
X0136939Y0069210D01*
X0137021Y0069074D01*
X0137099Y0068937D01*
X0137173Y0068797D01*
X0137244Y0068655D01*
X0137312Y0068512D01*
X0137376Y0068367D01*
X0137436Y0068221D01*
X0137492Y0068073D01*
X0137545Y0067924D01*
X0137594Y0067773D01*
X0137639Y0067621D01*
X0137680Y0067468D01*
X0137718Y0067315D01*
X0137751Y0067160D01*
X0137781Y0067004D01*
X0137807Y0066848D01*
X0137828Y0066691D01*
X0137846Y0066534D01*
X0137860Y0066376D01*
X0137870Y0066218D01*
X0137876Y0066060D01*
X0137878Y0065902D01*
X0137876Y0065744D01*
X0137870Y0065586D01*
X0137860Y0065428D01*
X0137846Y0065270D01*
X0137828Y0065113D01*
X0137807Y0064956D01*
X0137781Y0064800D01*
X0137751Y0064644D01*
X0137718Y0064489D01*
X0137680Y0064336D01*
X0137639Y0064183D01*
X0137594Y0064031D01*
X0137545Y0063880D01*
X0137492Y0063731D01*
X0137436Y0063583D01*
X0137376Y0063437D01*
X0137312Y0063292D01*
X0137244Y0063149D01*
X0137173Y0063007D01*
X0137099Y0062867D01*
X0137021Y0062730D01*
X0136939Y0062594D01*
X0136855Y0062460D01*
X0136766Y0062329D01*
X0136675Y0062200D01*
X0136580Y0062073D01*
X0136483Y0061948D01*
X0136382Y0061826D01*
X0136278Y0061707D01*
X0136171Y0061590D01*
X0136061Y0061476D01*
X0135948Y0061365D01*
X0135833Y0061256D01*
X0135715Y0061151D01*
X0135594Y0061049D01*
X0135471Y0060949D01*
X0135345Y0060853D01*
X0135217Y0060760D01*
X0135087Y0060670D01*
X0134954Y0060584D01*
X0134819Y0060500D01*
X0134683Y0060421D01*
X0134544Y0060344D01*
X0134403Y0060272D01*
X0134261Y0060202D01*
X0134117Y0060137D01*
X0133971Y0060075D01*
X0133824Y0060017D01*
X0133675Y0059962D01*
X0133525Y0059911D01*
X0133374Y0059864D01*
X0133222Y0059821D01*
X0133069Y0059782D01*
X0132914Y0059746D01*
X0132759Y0059715D01*
X0132603Y0059687D01*
X0132447Y0059663D01*
X0132290Y0059643D01*
X0132132Y0059627D01*
X0131975Y0059615D01*
X0131816Y0059607D01*
X0131658Y0059603D01*
X0131500Y0059603D01*
X0131342Y0059607D01*
X0131183Y0059615D01*
X0131026Y0059627D01*
X0130868Y0059643D01*
X0130711Y0059663D01*
X0130555Y0059687D01*
X0130399Y0059715D01*
X0130244Y0059746D01*
X0130089Y0059782D01*
X0129936Y0059821D01*
X0129784Y0059864D01*
X0129633Y0059911D01*
X0129483Y0059962D01*
X0129334Y0060017D01*
X0129187Y0060075D01*
X0129041Y0060137D01*
X0128897Y0060202D01*
X0128755Y0060272D01*
X0128614Y0060344D01*
X0128475Y0060421D01*
X0128339Y0060500D01*
X0128204Y0060584D01*
X0128071Y0060670D01*
X0127941Y0060760D01*
X0127813Y0060853D01*
X0127687Y0060949D01*
X0127564Y0061049D01*
X0127443Y0061151D01*
X0127325Y0061256D01*
X0127210Y0061365D01*
X0127097Y0061476D01*
X0126987Y0061590D01*
X0126880Y0061707D01*
X0126776Y0061826D01*
X0126675Y0061948D01*
X0126578Y0062073D01*
X0126483Y0062200D01*
X0126392Y0062329D01*
X0126303Y0062460D01*
X0126219Y0062594D01*
X0126137Y0062730D01*
X0126059Y0062867D01*
X0125985Y0063007D01*
X0125914Y0063149D01*
X0125846Y0063292D01*
X0125782Y0063437D01*
X0125722Y0063583D01*
X0125666Y0063731D01*
X0125613Y0063880D01*
X0125564Y0064031D01*
X0125519Y0064183D01*
X0125478Y0064336D01*
X0125440Y0064489D01*
X0125407Y0064644D01*
X0125377Y0064800D01*
X0125351Y0064956D01*
X0125330Y0065113D01*
X0125312Y0065270D01*
X0125298Y0065428D01*
X0125288Y0065586D01*
X0125282Y0065744D01*
X0125280Y0065902D01*
X0125280Y0015902D02*
X0125282Y0016060D01*
X0125288Y0016218D01*
X0125298Y0016376D01*
X0125312Y0016534D01*
X0125330Y0016691D01*
X0125351Y0016848D01*
X0125377Y0017004D01*
X0125407Y0017160D01*
X0125440Y0017315D01*
X0125478Y0017468D01*
X0125519Y0017621D01*
X0125564Y0017773D01*
X0125613Y0017924D01*
X0125666Y0018073D01*
X0125722Y0018221D01*
X0125782Y0018367D01*
X0125846Y0018512D01*
X0125914Y0018655D01*
X0125985Y0018797D01*
X0126059Y0018937D01*
X0126137Y0019074D01*
X0126219Y0019210D01*
X0126303Y0019344D01*
X0126392Y0019475D01*
X0126483Y0019604D01*
X0126578Y0019731D01*
X0126675Y0019856D01*
X0126776Y0019978D01*
X0126880Y0020097D01*
X0126987Y0020214D01*
X0127097Y0020328D01*
X0127210Y0020439D01*
X0127325Y0020548D01*
X0127443Y0020653D01*
X0127564Y0020755D01*
X0127687Y0020855D01*
X0127813Y0020951D01*
X0127941Y0021044D01*
X0128071Y0021134D01*
X0128204Y0021220D01*
X0128339Y0021304D01*
X0128475Y0021383D01*
X0128614Y0021460D01*
X0128755Y0021532D01*
X0128897Y0021602D01*
X0129041Y0021667D01*
X0129187Y0021729D01*
X0129334Y0021787D01*
X0129483Y0021842D01*
X0129633Y0021893D01*
X0129784Y0021940D01*
X0129936Y0021983D01*
X0130089Y0022022D01*
X0130244Y0022058D01*
X0130399Y0022089D01*
X0130555Y0022117D01*
X0130711Y0022141D01*
X0130868Y0022161D01*
X0131026Y0022177D01*
X0131183Y0022189D01*
X0131342Y0022197D01*
X0131500Y0022201D01*
X0131658Y0022201D01*
X0131816Y0022197D01*
X0131975Y0022189D01*
X0132132Y0022177D01*
X0132290Y0022161D01*
X0132447Y0022141D01*
X0132603Y0022117D01*
X0132759Y0022089D01*
X0132914Y0022058D01*
X0133069Y0022022D01*
X0133222Y0021983D01*
X0133374Y0021940D01*
X0133525Y0021893D01*
X0133675Y0021842D01*
X0133824Y0021787D01*
X0133971Y0021729D01*
X0134117Y0021667D01*
X0134261Y0021602D01*
X0134403Y0021532D01*
X0134544Y0021460D01*
X0134683Y0021383D01*
X0134819Y0021304D01*
X0134954Y0021220D01*
X0135087Y0021134D01*
X0135217Y0021044D01*
X0135345Y0020951D01*
X0135471Y0020855D01*
X0135594Y0020755D01*
X0135715Y0020653D01*
X0135833Y0020548D01*
X0135948Y0020439D01*
X0136061Y0020328D01*
X0136171Y0020214D01*
X0136278Y0020097D01*
X0136382Y0019978D01*
X0136483Y0019856D01*
X0136580Y0019731D01*
X0136675Y0019604D01*
X0136766Y0019475D01*
X0136855Y0019344D01*
X0136939Y0019210D01*
X0137021Y0019074D01*
X0137099Y0018937D01*
X0137173Y0018797D01*
X0137244Y0018655D01*
X0137312Y0018512D01*
X0137376Y0018367D01*
X0137436Y0018221D01*
X0137492Y0018073D01*
X0137545Y0017924D01*
X0137594Y0017773D01*
X0137639Y0017621D01*
X0137680Y0017468D01*
X0137718Y0017315D01*
X0137751Y0017160D01*
X0137781Y0017004D01*
X0137807Y0016848D01*
X0137828Y0016691D01*
X0137846Y0016534D01*
X0137860Y0016376D01*
X0137870Y0016218D01*
X0137876Y0016060D01*
X0137878Y0015902D01*
X0137876Y0015744D01*
X0137870Y0015586D01*
X0137860Y0015428D01*
X0137846Y0015270D01*
X0137828Y0015113D01*
X0137807Y0014956D01*
X0137781Y0014800D01*
X0137751Y0014644D01*
X0137718Y0014489D01*
X0137680Y0014336D01*
X0137639Y0014183D01*
X0137594Y0014031D01*
X0137545Y0013880D01*
X0137492Y0013731D01*
X0137436Y0013583D01*
X0137376Y0013437D01*
X0137312Y0013292D01*
X0137244Y0013149D01*
X0137173Y0013007D01*
X0137099Y0012867D01*
X0137021Y0012730D01*
X0136939Y0012594D01*
X0136855Y0012460D01*
X0136766Y0012329D01*
X0136675Y0012200D01*
X0136580Y0012073D01*
X0136483Y0011948D01*
X0136382Y0011826D01*
X0136278Y0011707D01*
X0136171Y0011590D01*
X0136061Y0011476D01*
X0135948Y0011365D01*
X0135833Y0011256D01*
X0135715Y0011151D01*
X0135594Y0011049D01*
X0135471Y0010949D01*
X0135345Y0010853D01*
X0135217Y0010760D01*
X0135087Y0010670D01*
X0134954Y0010584D01*
X0134819Y0010500D01*
X0134683Y0010421D01*
X0134544Y0010344D01*
X0134403Y0010272D01*
X0134261Y0010202D01*
X0134117Y0010137D01*
X0133971Y0010075D01*
X0133824Y0010017D01*
X0133675Y0009962D01*
X0133525Y0009911D01*
X0133374Y0009864D01*
X0133222Y0009821D01*
X0133069Y0009782D01*
X0132914Y0009746D01*
X0132759Y0009715D01*
X0132603Y0009687D01*
X0132447Y0009663D01*
X0132290Y0009643D01*
X0132132Y0009627D01*
X0131975Y0009615D01*
X0131816Y0009607D01*
X0131658Y0009603D01*
X0131500Y0009603D01*
X0131342Y0009607D01*
X0131183Y0009615D01*
X0131026Y0009627D01*
X0130868Y0009643D01*
X0130711Y0009663D01*
X0130555Y0009687D01*
X0130399Y0009715D01*
X0130244Y0009746D01*
X0130089Y0009782D01*
X0129936Y0009821D01*
X0129784Y0009864D01*
X0129633Y0009911D01*
X0129483Y0009962D01*
X0129334Y0010017D01*
X0129187Y0010075D01*
X0129041Y0010137D01*
X0128897Y0010202D01*
X0128755Y0010272D01*
X0128614Y0010344D01*
X0128475Y0010421D01*
X0128339Y0010500D01*
X0128204Y0010584D01*
X0128071Y0010670D01*
X0127941Y0010760D01*
X0127813Y0010853D01*
X0127687Y0010949D01*
X0127564Y0011049D01*
X0127443Y0011151D01*
X0127325Y0011256D01*
X0127210Y0011365D01*
X0127097Y0011476D01*
X0126987Y0011590D01*
X0126880Y0011707D01*
X0126776Y0011826D01*
X0126675Y0011948D01*
X0126578Y0012073D01*
X0126483Y0012200D01*
X0126392Y0012329D01*
X0126303Y0012460D01*
X0126219Y0012594D01*
X0126137Y0012730D01*
X0126059Y0012867D01*
X0125985Y0013007D01*
X0125914Y0013149D01*
X0125846Y0013292D01*
X0125782Y0013437D01*
X0125722Y0013583D01*
X0125666Y0013731D01*
X0125613Y0013880D01*
X0125564Y0014031D01*
X0125519Y0014183D01*
X0125478Y0014336D01*
X0125440Y0014489D01*
X0125407Y0014644D01*
X0125377Y0014800D01*
X0125351Y0014956D01*
X0125330Y0015113D01*
X0125312Y0015270D01*
X0125298Y0015428D01*
X0125288Y0015586D01*
X0125282Y0015744D01*
X0125280Y0015902D01*
D11*
X0114571Y0026906D03*
X0121579Y0030921D03*
X0114571Y0034937D03*
X0114571Y0042850D03*
X0121579Y0038953D03*
X0121579Y0046866D03*
X0114571Y0050882D03*
X0121579Y0054898D03*
X0114571Y0089110D03*
X0114571Y0097142D03*
X0121579Y0101157D03*
X0114571Y0105055D03*
X0121579Y0109071D03*
X0121579Y0117102D03*
X0114571Y0113087D03*
X0121579Y0093126D03*
X0038508Y0096520D03*
X0031500Y0100535D03*
X0031500Y0108449D03*
X0038508Y0104551D03*
X0038508Y0112465D03*
X0031500Y0116480D03*
X0038508Y0120496D03*
X0031500Y0092504D03*
X0038508Y0050496D03*
X0031500Y0046480D03*
X0038508Y0042465D03*
X0038508Y0034551D03*
X0031500Y0038449D03*
X0031500Y0030535D03*
X0038508Y0026520D03*
X0031500Y0022504D03*
D12*
X0021500Y0011500D03*
X0021500Y0061500D03*
X0021500Y0081500D03*
X0021500Y0131500D03*
X0131579Y0128106D03*
X0131579Y0078106D03*
X0131579Y0065902D03*
X0131579Y0015902D03*
D13*
X0079531Y0046500D02*
X0073531Y0046500D01*
X0073531Y0056500D02*
X0079531Y0056500D01*
X0079531Y0066500D02*
X0073531Y0066500D01*
X0073531Y0076500D02*
X0079531Y0076500D01*
X0079531Y0086500D02*
X0073531Y0086500D01*
X0073531Y0096500D02*
X0079531Y0096500D01*
M02*
