%
M48
M72
T01C0.02165
T02C0.03543
T03C0.04000
T04C0.12598
%
T01
X66500Y11500
X66500Y21500
X81500Y21500
X81500Y11500
X105000Y40500
X107000Y52500
X104500Y61000
X112000Y61000
X114000Y74500
X108000Y74500
X103000Y74500
X96500Y79000
X89000Y76500
X86500Y66500
X66500Y66500
X65500Y96500
X71500Y106500
X76500Y106500
X83500Y102500
X89000Y111000
X95500Y116000
X103000Y113000
X108000Y119500
X111500Y131500
X101500Y131500
X91500Y131500
X81500Y131500
X71500Y131500
X66500Y121500
X126500Y41500
X128500Y34000
X141500Y26500
X141500Y41500
X141500Y51500
X136500Y101500
X146500Y101500
X146500Y111500
X136500Y111500
T02
X31500Y116480
X38508Y112465
X38508Y104551
X31500Y108449
X31500Y100535
X38508Y96520
X31500Y92504
X31500Y46480
X38508Y42465
X38508Y34551
X31500Y38449
X31500Y30535
X38508Y26520
X31500Y22504
X38508Y50496
X38508Y120496
X114571Y113087
X121579Y117102
X121579Y109071
X114571Y105055
X121579Y101157
X121579Y93126
X114571Y97142
X114571Y89110
X121579Y54898
X114571Y50882
X121579Y46866
X121579Y38953
X114571Y42850
X114571Y34937
X121579Y30921
X114571Y26906
T03
X76531Y46500
X76531Y56500
X76531Y66500
X76531Y76500
X76531Y86500
X76531Y96500
T04
X21500Y131500
X21500Y81500
X21500Y61500
X21500Y11500
X131579Y15902
X131579Y65902
X131579Y78106
X131579Y128106
M30
