G75*
%MOIN*%
%OFA0B0*%
%FSLAX25Y25*%
%IPPOS*%
%LPD*%
%AMOC8*
5,1,8,0,0,1.08239X$1,22.5*
%
%ADD10C,0.00000*%
%ADD11C,0.05600*%
%ADD12C,0.06000*%
%ADD13C,0.03200*%
%ADD14C,0.03365*%
%ADD15C,0.01000*%
%ADD16C,0.02000*%
D10*
X0001500Y0001500D02*
X0001500Y0141657D01*
X0151106Y0141657D01*
X0151106Y0001500D01*
X0001500Y0001500D01*
X0015201Y0011500D02*
X0015203Y0011658D01*
X0015209Y0011816D01*
X0015219Y0011974D01*
X0015233Y0012132D01*
X0015251Y0012289D01*
X0015272Y0012446D01*
X0015298Y0012602D01*
X0015328Y0012758D01*
X0015361Y0012913D01*
X0015399Y0013066D01*
X0015440Y0013219D01*
X0015485Y0013371D01*
X0015534Y0013522D01*
X0015587Y0013671D01*
X0015643Y0013819D01*
X0015703Y0013965D01*
X0015767Y0014110D01*
X0015835Y0014253D01*
X0015906Y0014395D01*
X0015980Y0014535D01*
X0016058Y0014672D01*
X0016140Y0014808D01*
X0016224Y0014942D01*
X0016313Y0015073D01*
X0016404Y0015202D01*
X0016499Y0015329D01*
X0016596Y0015454D01*
X0016697Y0015576D01*
X0016801Y0015695D01*
X0016908Y0015812D01*
X0017018Y0015926D01*
X0017131Y0016037D01*
X0017246Y0016146D01*
X0017364Y0016251D01*
X0017485Y0016353D01*
X0017608Y0016453D01*
X0017734Y0016549D01*
X0017862Y0016642D01*
X0017992Y0016732D01*
X0018125Y0016818D01*
X0018260Y0016902D01*
X0018396Y0016981D01*
X0018535Y0017058D01*
X0018676Y0017130D01*
X0018818Y0017200D01*
X0018962Y0017265D01*
X0019108Y0017327D01*
X0019255Y0017385D01*
X0019404Y0017440D01*
X0019554Y0017491D01*
X0019705Y0017538D01*
X0019857Y0017581D01*
X0020010Y0017620D01*
X0020165Y0017656D01*
X0020320Y0017687D01*
X0020476Y0017715D01*
X0020632Y0017739D01*
X0020789Y0017759D01*
X0020947Y0017775D01*
X0021104Y0017787D01*
X0021263Y0017795D01*
X0021421Y0017799D01*
X0021579Y0017799D01*
X0021737Y0017795D01*
X0021896Y0017787D01*
X0022053Y0017775D01*
X0022211Y0017759D01*
X0022368Y0017739D01*
X0022524Y0017715D01*
X0022680Y0017687D01*
X0022835Y0017656D01*
X0022990Y0017620D01*
X0023143Y0017581D01*
X0023295Y0017538D01*
X0023446Y0017491D01*
X0023596Y0017440D01*
X0023745Y0017385D01*
X0023892Y0017327D01*
X0024038Y0017265D01*
X0024182Y0017200D01*
X0024324Y0017130D01*
X0024465Y0017058D01*
X0024604Y0016981D01*
X0024740Y0016902D01*
X0024875Y0016818D01*
X0025008Y0016732D01*
X0025138Y0016642D01*
X0025266Y0016549D01*
X0025392Y0016453D01*
X0025515Y0016353D01*
X0025636Y0016251D01*
X0025754Y0016146D01*
X0025869Y0016037D01*
X0025982Y0015926D01*
X0026092Y0015812D01*
X0026199Y0015695D01*
X0026303Y0015576D01*
X0026404Y0015454D01*
X0026501Y0015329D01*
X0026596Y0015202D01*
X0026687Y0015073D01*
X0026776Y0014942D01*
X0026860Y0014808D01*
X0026942Y0014672D01*
X0027020Y0014535D01*
X0027094Y0014395D01*
X0027165Y0014253D01*
X0027233Y0014110D01*
X0027297Y0013965D01*
X0027357Y0013819D01*
X0027413Y0013671D01*
X0027466Y0013522D01*
X0027515Y0013371D01*
X0027560Y0013219D01*
X0027601Y0013066D01*
X0027639Y0012913D01*
X0027672Y0012758D01*
X0027702Y0012602D01*
X0027728Y0012446D01*
X0027749Y0012289D01*
X0027767Y0012132D01*
X0027781Y0011974D01*
X0027791Y0011816D01*
X0027797Y0011658D01*
X0027799Y0011500D01*
X0027797Y0011342D01*
X0027791Y0011184D01*
X0027781Y0011026D01*
X0027767Y0010868D01*
X0027749Y0010711D01*
X0027728Y0010554D01*
X0027702Y0010398D01*
X0027672Y0010242D01*
X0027639Y0010087D01*
X0027601Y0009934D01*
X0027560Y0009781D01*
X0027515Y0009629D01*
X0027466Y0009478D01*
X0027413Y0009329D01*
X0027357Y0009181D01*
X0027297Y0009035D01*
X0027233Y0008890D01*
X0027165Y0008747D01*
X0027094Y0008605D01*
X0027020Y0008465D01*
X0026942Y0008328D01*
X0026860Y0008192D01*
X0026776Y0008058D01*
X0026687Y0007927D01*
X0026596Y0007798D01*
X0026501Y0007671D01*
X0026404Y0007546D01*
X0026303Y0007424D01*
X0026199Y0007305D01*
X0026092Y0007188D01*
X0025982Y0007074D01*
X0025869Y0006963D01*
X0025754Y0006854D01*
X0025636Y0006749D01*
X0025515Y0006647D01*
X0025392Y0006547D01*
X0025266Y0006451D01*
X0025138Y0006358D01*
X0025008Y0006268D01*
X0024875Y0006182D01*
X0024740Y0006098D01*
X0024604Y0006019D01*
X0024465Y0005942D01*
X0024324Y0005870D01*
X0024182Y0005800D01*
X0024038Y0005735D01*
X0023892Y0005673D01*
X0023745Y0005615D01*
X0023596Y0005560D01*
X0023446Y0005509D01*
X0023295Y0005462D01*
X0023143Y0005419D01*
X0022990Y0005380D01*
X0022835Y0005344D01*
X0022680Y0005313D01*
X0022524Y0005285D01*
X0022368Y0005261D01*
X0022211Y0005241D01*
X0022053Y0005225D01*
X0021896Y0005213D01*
X0021737Y0005205D01*
X0021579Y0005201D01*
X0021421Y0005201D01*
X0021263Y0005205D01*
X0021104Y0005213D01*
X0020947Y0005225D01*
X0020789Y0005241D01*
X0020632Y0005261D01*
X0020476Y0005285D01*
X0020320Y0005313D01*
X0020165Y0005344D01*
X0020010Y0005380D01*
X0019857Y0005419D01*
X0019705Y0005462D01*
X0019554Y0005509D01*
X0019404Y0005560D01*
X0019255Y0005615D01*
X0019108Y0005673D01*
X0018962Y0005735D01*
X0018818Y0005800D01*
X0018676Y0005870D01*
X0018535Y0005942D01*
X0018396Y0006019D01*
X0018260Y0006098D01*
X0018125Y0006182D01*
X0017992Y0006268D01*
X0017862Y0006358D01*
X0017734Y0006451D01*
X0017608Y0006547D01*
X0017485Y0006647D01*
X0017364Y0006749D01*
X0017246Y0006854D01*
X0017131Y0006963D01*
X0017018Y0007074D01*
X0016908Y0007188D01*
X0016801Y0007305D01*
X0016697Y0007424D01*
X0016596Y0007546D01*
X0016499Y0007671D01*
X0016404Y0007798D01*
X0016313Y0007927D01*
X0016224Y0008058D01*
X0016140Y0008192D01*
X0016058Y0008328D01*
X0015980Y0008465D01*
X0015906Y0008605D01*
X0015835Y0008747D01*
X0015767Y0008890D01*
X0015703Y0009035D01*
X0015643Y0009181D01*
X0015587Y0009329D01*
X0015534Y0009478D01*
X0015485Y0009629D01*
X0015440Y0009781D01*
X0015399Y0009934D01*
X0015361Y0010087D01*
X0015328Y0010242D01*
X0015298Y0010398D01*
X0015272Y0010554D01*
X0015251Y0010711D01*
X0015233Y0010868D01*
X0015219Y0011026D01*
X0015209Y0011184D01*
X0015203Y0011342D01*
X0015201Y0011500D01*
X0015201Y0061500D02*
X0015203Y0061658D01*
X0015209Y0061816D01*
X0015219Y0061974D01*
X0015233Y0062132D01*
X0015251Y0062289D01*
X0015272Y0062446D01*
X0015298Y0062602D01*
X0015328Y0062758D01*
X0015361Y0062913D01*
X0015399Y0063066D01*
X0015440Y0063219D01*
X0015485Y0063371D01*
X0015534Y0063522D01*
X0015587Y0063671D01*
X0015643Y0063819D01*
X0015703Y0063965D01*
X0015767Y0064110D01*
X0015835Y0064253D01*
X0015906Y0064395D01*
X0015980Y0064535D01*
X0016058Y0064672D01*
X0016140Y0064808D01*
X0016224Y0064942D01*
X0016313Y0065073D01*
X0016404Y0065202D01*
X0016499Y0065329D01*
X0016596Y0065454D01*
X0016697Y0065576D01*
X0016801Y0065695D01*
X0016908Y0065812D01*
X0017018Y0065926D01*
X0017131Y0066037D01*
X0017246Y0066146D01*
X0017364Y0066251D01*
X0017485Y0066353D01*
X0017608Y0066453D01*
X0017734Y0066549D01*
X0017862Y0066642D01*
X0017992Y0066732D01*
X0018125Y0066818D01*
X0018260Y0066902D01*
X0018396Y0066981D01*
X0018535Y0067058D01*
X0018676Y0067130D01*
X0018818Y0067200D01*
X0018962Y0067265D01*
X0019108Y0067327D01*
X0019255Y0067385D01*
X0019404Y0067440D01*
X0019554Y0067491D01*
X0019705Y0067538D01*
X0019857Y0067581D01*
X0020010Y0067620D01*
X0020165Y0067656D01*
X0020320Y0067687D01*
X0020476Y0067715D01*
X0020632Y0067739D01*
X0020789Y0067759D01*
X0020947Y0067775D01*
X0021104Y0067787D01*
X0021263Y0067795D01*
X0021421Y0067799D01*
X0021579Y0067799D01*
X0021737Y0067795D01*
X0021896Y0067787D01*
X0022053Y0067775D01*
X0022211Y0067759D01*
X0022368Y0067739D01*
X0022524Y0067715D01*
X0022680Y0067687D01*
X0022835Y0067656D01*
X0022990Y0067620D01*
X0023143Y0067581D01*
X0023295Y0067538D01*
X0023446Y0067491D01*
X0023596Y0067440D01*
X0023745Y0067385D01*
X0023892Y0067327D01*
X0024038Y0067265D01*
X0024182Y0067200D01*
X0024324Y0067130D01*
X0024465Y0067058D01*
X0024604Y0066981D01*
X0024740Y0066902D01*
X0024875Y0066818D01*
X0025008Y0066732D01*
X0025138Y0066642D01*
X0025266Y0066549D01*
X0025392Y0066453D01*
X0025515Y0066353D01*
X0025636Y0066251D01*
X0025754Y0066146D01*
X0025869Y0066037D01*
X0025982Y0065926D01*
X0026092Y0065812D01*
X0026199Y0065695D01*
X0026303Y0065576D01*
X0026404Y0065454D01*
X0026501Y0065329D01*
X0026596Y0065202D01*
X0026687Y0065073D01*
X0026776Y0064942D01*
X0026860Y0064808D01*
X0026942Y0064672D01*
X0027020Y0064535D01*
X0027094Y0064395D01*
X0027165Y0064253D01*
X0027233Y0064110D01*
X0027297Y0063965D01*
X0027357Y0063819D01*
X0027413Y0063671D01*
X0027466Y0063522D01*
X0027515Y0063371D01*
X0027560Y0063219D01*
X0027601Y0063066D01*
X0027639Y0062913D01*
X0027672Y0062758D01*
X0027702Y0062602D01*
X0027728Y0062446D01*
X0027749Y0062289D01*
X0027767Y0062132D01*
X0027781Y0061974D01*
X0027791Y0061816D01*
X0027797Y0061658D01*
X0027799Y0061500D01*
X0027797Y0061342D01*
X0027791Y0061184D01*
X0027781Y0061026D01*
X0027767Y0060868D01*
X0027749Y0060711D01*
X0027728Y0060554D01*
X0027702Y0060398D01*
X0027672Y0060242D01*
X0027639Y0060087D01*
X0027601Y0059934D01*
X0027560Y0059781D01*
X0027515Y0059629D01*
X0027466Y0059478D01*
X0027413Y0059329D01*
X0027357Y0059181D01*
X0027297Y0059035D01*
X0027233Y0058890D01*
X0027165Y0058747D01*
X0027094Y0058605D01*
X0027020Y0058465D01*
X0026942Y0058328D01*
X0026860Y0058192D01*
X0026776Y0058058D01*
X0026687Y0057927D01*
X0026596Y0057798D01*
X0026501Y0057671D01*
X0026404Y0057546D01*
X0026303Y0057424D01*
X0026199Y0057305D01*
X0026092Y0057188D01*
X0025982Y0057074D01*
X0025869Y0056963D01*
X0025754Y0056854D01*
X0025636Y0056749D01*
X0025515Y0056647D01*
X0025392Y0056547D01*
X0025266Y0056451D01*
X0025138Y0056358D01*
X0025008Y0056268D01*
X0024875Y0056182D01*
X0024740Y0056098D01*
X0024604Y0056019D01*
X0024465Y0055942D01*
X0024324Y0055870D01*
X0024182Y0055800D01*
X0024038Y0055735D01*
X0023892Y0055673D01*
X0023745Y0055615D01*
X0023596Y0055560D01*
X0023446Y0055509D01*
X0023295Y0055462D01*
X0023143Y0055419D01*
X0022990Y0055380D01*
X0022835Y0055344D01*
X0022680Y0055313D01*
X0022524Y0055285D01*
X0022368Y0055261D01*
X0022211Y0055241D01*
X0022053Y0055225D01*
X0021896Y0055213D01*
X0021737Y0055205D01*
X0021579Y0055201D01*
X0021421Y0055201D01*
X0021263Y0055205D01*
X0021104Y0055213D01*
X0020947Y0055225D01*
X0020789Y0055241D01*
X0020632Y0055261D01*
X0020476Y0055285D01*
X0020320Y0055313D01*
X0020165Y0055344D01*
X0020010Y0055380D01*
X0019857Y0055419D01*
X0019705Y0055462D01*
X0019554Y0055509D01*
X0019404Y0055560D01*
X0019255Y0055615D01*
X0019108Y0055673D01*
X0018962Y0055735D01*
X0018818Y0055800D01*
X0018676Y0055870D01*
X0018535Y0055942D01*
X0018396Y0056019D01*
X0018260Y0056098D01*
X0018125Y0056182D01*
X0017992Y0056268D01*
X0017862Y0056358D01*
X0017734Y0056451D01*
X0017608Y0056547D01*
X0017485Y0056647D01*
X0017364Y0056749D01*
X0017246Y0056854D01*
X0017131Y0056963D01*
X0017018Y0057074D01*
X0016908Y0057188D01*
X0016801Y0057305D01*
X0016697Y0057424D01*
X0016596Y0057546D01*
X0016499Y0057671D01*
X0016404Y0057798D01*
X0016313Y0057927D01*
X0016224Y0058058D01*
X0016140Y0058192D01*
X0016058Y0058328D01*
X0015980Y0058465D01*
X0015906Y0058605D01*
X0015835Y0058747D01*
X0015767Y0058890D01*
X0015703Y0059035D01*
X0015643Y0059181D01*
X0015587Y0059329D01*
X0015534Y0059478D01*
X0015485Y0059629D01*
X0015440Y0059781D01*
X0015399Y0059934D01*
X0015361Y0060087D01*
X0015328Y0060242D01*
X0015298Y0060398D01*
X0015272Y0060554D01*
X0015251Y0060711D01*
X0015233Y0060868D01*
X0015219Y0061026D01*
X0015209Y0061184D01*
X0015203Y0061342D01*
X0015201Y0061500D01*
X0015201Y0081500D02*
X0015203Y0081658D01*
X0015209Y0081816D01*
X0015219Y0081974D01*
X0015233Y0082132D01*
X0015251Y0082289D01*
X0015272Y0082446D01*
X0015298Y0082602D01*
X0015328Y0082758D01*
X0015361Y0082913D01*
X0015399Y0083066D01*
X0015440Y0083219D01*
X0015485Y0083371D01*
X0015534Y0083522D01*
X0015587Y0083671D01*
X0015643Y0083819D01*
X0015703Y0083965D01*
X0015767Y0084110D01*
X0015835Y0084253D01*
X0015906Y0084395D01*
X0015980Y0084535D01*
X0016058Y0084672D01*
X0016140Y0084808D01*
X0016224Y0084942D01*
X0016313Y0085073D01*
X0016404Y0085202D01*
X0016499Y0085329D01*
X0016596Y0085454D01*
X0016697Y0085576D01*
X0016801Y0085695D01*
X0016908Y0085812D01*
X0017018Y0085926D01*
X0017131Y0086037D01*
X0017246Y0086146D01*
X0017364Y0086251D01*
X0017485Y0086353D01*
X0017608Y0086453D01*
X0017734Y0086549D01*
X0017862Y0086642D01*
X0017992Y0086732D01*
X0018125Y0086818D01*
X0018260Y0086902D01*
X0018396Y0086981D01*
X0018535Y0087058D01*
X0018676Y0087130D01*
X0018818Y0087200D01*
X0018962Y0087265D01*
X0019108Y0087327D01*
X0019255Y0087385D01*
X0019404Y0087440D01*
X0019554Y0087491D01*
X0019705Y0087538D01*
X0019857Y0087581D01*
X0020010Y0087620D01*
X0020165Y0087656D01*
X0020320Y0087687D01*
X0020476Y0087715D01*
X0020632Y0087739D01*
X0020789Y0087759D01*
X0020947Y0087775D01*
X0021104Y0087787D01*
X0021263Y0087795D01*
X0021421Y0087799D01*
X0021579Y0087799D01*
X0021737Y0087795D01*
X0021896Y0087787D01*
X0022053Y0087775D01*
X0022211Y0087759D01*
X0022368Y0087739D01*
X0022524Y0087715D01*
X0022680Y0087687D01*
X0022835Y0087656D01*
X0022990Y0087620D01*
X0023143Y0087581D01*
X0023295Y0087538D01*
X0023446Y0087491D01*
X0023596Y0087440D01*
X0023745Y0087385D01*
X0023892Y0087327D01*
X0024038Y0087265D01*
X0024182Y0087200D01*
X0024324Y0087130D01*
X0024465Y0087058D01*
X0024604Y0086981D01*
X0024740Y0086902D01*
X0024875Y0086818D01*
X0025008Y0086732D01*
X0025138Y0086642D01*
X0025266Y0086549D01*
X0025392Y0086453D01*
X0025515Y0086353D01*
X0025636Y0086251D01*
X0025754Y0086146D01*
X0025869Y0086037D01*
X0025982Y0085926D01*
X0026092Y0085812D01*
X0026199Y0085695D01*
X0026303Y0085576D01*
X0026404Y0085454D01*
X0026501Y0085329D01*
X0026596Y0085202D01*
X0026687Y0085073D01*
X0026776Y0084942D01*
X0026860Y0084808D01*
X0026942Y0084672D01*
X0027020Y0084535D01*
X0027094Y0084395D01*
X0027165Y0084253D01*
X0027233Y0084110D01*
X0027297Y0083965D01*
X0027357Y0083819D01*
X0027413Y0083671D01*
X0027466Y0083522D01*
X0027515Y0083371D01*
X0027560Y0083219D01*
X0027601Y0083066D01*
X0027639Y0082913D01*
X0027672Y0082758D01*
X0027702Y0082602D01*
X0027728Y0082446D01*
X0027749Y0082289D01*
X0027767Y0082132D01*
X0027781Y0081974D01*
X0027791Y0081816D01*
X0027797Y0081658D01*
X0027799Y0081500D01*
X0027797Y0081342D01*
X0027791Y0081184D01*
X0027781Y0081026D01*
X0027767Y0080868D01*
X0027749Y0080711D01*
X0027728Y0080554D01*
X0027702Y0080398D01*
X0027672Y0080242D01*
X0027639Y0080087D01*
X0027601Y0079934D01*
X0027560Y0079781D01*
X0027515Y0079629D01*
X0027466Y0079478D01*
X0027413Y0079329D01*
X0027357Y0079181D01*
X0027297Y0079035D01*
X0027233Y0078890D01*
X0027165Y0078747D01*
X0027094Y0078605D01*
X0027020Y0078465D01*
X0026942Y0078328D01*
X0026860Y0078192D01*
X0026776Y0078058D01*
X0026687Y0077927D01*
X0026596Y0077798D01*
X0026501Y0077671D01*
X0026404Y0077546D01*
X0026303Y0077424D01*
X0026199Y0077305D01*
X0026092Y0077188D01*
X0025982Y0077074D01*
X0025869Y0076963D01*
X0025754Y0076854D01*
X0025636Y0076749D01*
X0025515Y0076647D01*
X0025392Y0076547D01*
X0025266Y0076451D01*
X0025138Y0076358D01*
X0025008Y0076268D01*
X0024875Y0076182D01*
X0024740Y0076098D01*
X0024604Y0076019D01*
X0024465Y0075942D01*
X0024324Y0075870D01*
X0024182Y0075800D01*
X0024038Y0075735D01*
X0023892Y0075673D01*
X0023745Y0075615D01*
X0023596Y0075560D01*
X0023446Y0075509D01*
X0023295Y0075462D01*
X0023143Y0075419D01*
X0022990Y0075380D01*
X0022835Y0075344D01*
X0022680Y0075313D01*
X0022524Y0075285D01*
X0022368Y0075261D01*
X0022211Y0075241D01*
X0022053Y0075225D01*
X0021896Y0075213D01*
X0021737Y0075205D01*
X0021579Y0075201D01*
X0021421Y0075201D01*
X0021263Y0075205D01*
X0021104Y0075213D01*
X0020947Y0075225D01*
X0020789Y0075241D01*
X0020632Y0075261D01*
X0020476Y0075285D01*
X0020320Y0075313D01*
X0020165Y0075344D01*
X0020010Y0075380D01*
X0019857Y0075419D01*
X0019705Y0075462D01*
X0019554Y0075509D01*
X0019404Y0075560D01*
X0019255Y0075615D01*
X0019108Y0075673D01*
X0018962Y0075735D01*
X0018818Y0075800D01*
X0018676Y0075870D01*
X0018535Y0075942D01*
X0018396Y0076019D01*
X0018260Y0076098D01*
X0018125Y0076182D01*
X0017992Y0076268D01*
X0017862Y0076358D01*
X0017734Y0076451D01*
X0017608Y0076547D01*
X0017485Y0076647D01*
X0017364Y0076749D01*
X0017246Y0076854D01*
X0017131Y0076963D01*
X0017018Y0077074D01*
X0016908Y0077188D01*
X0016801Y0077305D01*
X0016697Y0077424D01*
X0016596Y0077546D01*
X0016499Y0077671D01*
X0016404Y0077798D01*
X0016313Y0077927D01*
X0016224Y0078058D01*
X0016140Y0078192D01*
X0016058Y0078328D01*
X0015980Y0078465D01*
X0015906Y0078605D01*
X0015835Y0078747D01*
X0015767Y0078890D01*
X0015703Y0079035D01*
X0015643Y0079181D01*
X0015587Y0079329D01*
X0015534Y0079478D01*
X0015485Y0079629D01*
X0015440Y0079781D01*
X0015399Y0079934D01*
X0015361Y0080087D01*
X0015328Y0080242D01*
X0015298Y0080398D01*
X0015272Y0080554D01*
X0015251Y0080711D01*
X0015233Y0080868D01*
X0015219Y0081026D01*
X0015209Y0081184D01*
X0015203Y0081342D01*
X0015201Y0081500D01*
X0015201Y0131500D02*
X0015203Y0131658D01*
X0015209Y0131816D01*
X0015219Y0131974D01*
X0015233Y0132132D01*
X0015251Y0132289D01*
X0015272Y0132446D01*
X0015298Y0132602D01*
X0015328Y0132758D01*
X0015361Y0132913D01*
X0015399Y0133066D01*
X0015440Y0133219D01*
X0015485Y0133371D01*
X0015534Y0133522D01*
X0015587Y0133671D01*
X0015643Y0133819D01*
X0015703Y0133965D01*
X0015767Y0134110D01*
X0015835Y0134253D01*
X0015906Y0134395D01*
X0015980Y0134535D01*
X0016058Y0134672D01*
X0016140Y0134808D01*
X0016224Y0134942D01*
X0016313Y0135073D01*
X0016404Y0135202D01*
X0016499Y0135329D01*
X0016596Y0135454D01*
X0016697Y0135576D01*
X0016801Y0135695D01*
X0016908Y0135812D01*
X0017018Y0135926D01*
X0017131Y0136037D01*
X0017246Y0136146D01*
X0017364Y0136251D01*
X0017485Y0136353D01*
X0017608Y0136453D01*
X0017734Y0136549D01*
X0017862Y0136642D01*
X0017992Y0136732D01*
X0018125Y0136818D01*
X0018260Y0136902D01*
X0018396Y0136981D01*
X0018535Y0137058D01*
X0018676Y0137130D01*
X0018818Y0137200D01*
X0018962Y0137265D01*
X0019108Y0137327D01*
X0019255Y0137385D01*
X0019404Y0137440D01*
X0019554Y0137491D01*
X0019705Y0137538D01*
X0019857Y0137581D01*
X0020010Y0137620D01*
X0020165Y0137656D01*
X0020320Y0137687D01*
X0020476Y0137715D01*
X0020632Y0137739D01*
X0020789Y0137759D01*
X0020947Y0137775D01*
X0021104Y0137787D01*
X0021263Y0137795D01*
X0021421Y0137799D01*
X0021579Y0137799D01*
X0021737Y0137795D01*
X0021896Y0137787D01*
X0022053Y0137775D01*
X0022211Y0137759D01*
X0022368Y0137739D01*
X0022524Y0137715D01*
X0022680Y0137687D01*
X0022835Y0137656D01*
X0022990Y0137620D01*
X0023143Y0137581D01*
X0023295Y0137538D01*
X0023446Y0137491D01*
X0023596Y0137440D01*
X0023745Y0137385D01*
X0023892Y0137327D01*
X0024038Y0137265D01*
X0024182Y0137200D01*
X0024324Y0137130D01*
X0024465Y0137058D01*
X0024604Y0136981D01*
X0024740Y0136902D01*
X0024875Y0136818D01*
X0025008Y0136732D01*
X0025138Y0136642D01*
X0025266Y0136549D01*
X0025392Y0136453D01*
X0025515Y0136353D01*
X0025636Y0136251D01*
X0025754Y0136146D01*
X0025869Y0136037D01*
X0025982Y0135926D01*
X0026092Y0135812D01*
X0026199Y0135695D01*
X0026303Y0135576D01*
X0026404Y0135454D01*
X0026501Y0135329D01*
X0026596Y0135202D01*
X0026687Y0135073D01*
X0026776Y0134942D01*
X0026860Y0134808D01*
X0026942Y0134672D01*
X0027020Y0134535D01*
X0027094Y0134395D01*
X0027165Y0134253D01*
X0027233Y0134110D01*
X0027297Y0133965D01*
X0027357Y0133819D01*
X0027413Y0133671D01*
X0027466Y0133522D01*
X0027515Y0133371D01*
X0027560Y0133219D01*
X0027601Y0133066D01*
X0027639Y0132913D01*
X0027672Y0132758D01*
X0027702Y0132602D01*
X0027728Y0132446D01*
X0027749Y0132289D01*
X0027767Y0132132D01*
X0027781Y0131974D01*
X0027791Y0131816D01*
X0027797Y0131658D01*
X0027799Y0131500D01*
X0027797Y0131342D01*
X0027791Y0131184D01*
X0027781Y0131026D01*
X0027767Y0130868D01*
X0027749Y0130711D01*
X0027728Y0130554D01*
X0027702Y0130398D01*
X0027672Y0130242D01*
X0027639Y0130087D01*
X0027601Y0129934D01*
X0027560Y0129781D01*
X0027515Y0129629D01*
X0027466Y0129478D01*
X0027413Y0129329D01*
X0027357Y0129181D01*
X0027297Y0129035D01*
X0027233Y0128890D01*
X0027165Y0128747D01*
X0027094Y0128605D01*
X0027020Y0128465D01*
X0026942Y0128328D01*
X0026860Y0128192D01*
X0026776Y0128058D01*
X0026687Y0127927D01*
X0026596Y0127798D01*
X0026501Y0127671D01*
X0026404Y0127546D01*
X0026303Y0127424D01*
X0026199Y0127305D01*
X0026092Y0127188D01*
X0025982Y0127074D01*
X0025869Y0126963D01*
X0025754Y0126854D01*
X0025636Y0126749D01*
X0025515Y0126647D01*
X0025392Y0126547D01*
X0025266Y0126451D01*
X0025138Y0126358D01*
X0025008Y0126268D01*
X0024875Y0126182D01*
X0024740Y0126098D01*
X0024604Y0126019D01*
X0024465Y0125942D01*
X0024324Y0125870D01*
X0024182Y0125800D01*
X0024038Y0125735D01*
X0023892Y0125673D01*
X0023745Y0125615D01*
X0023596Y0125560D01*
X0023446Y0125509D01*
X0023295Y0125462D01*
X0023143Y0125419D01*
X0022990Y0125380D01*
X0022835Y0125344D01*
X0022680Y0125313D01*
X0022524Y0125285D01*
X0022368Y0125261D01*
X0022211Y0125241D01*
X0022053Y0125225D01*
X0021896Y0125213D01*
X0021737Y0125205D01*
X0021579Y0125201D01*
X0021421Y0125201D01*
X0021263Y0125205D01*
X0021104Y0125213D01*
X0020947Y0125225D01*
X0020789Y0125241D01*
X0020632Y0125261D01*
X0020476Y0125285D01*
X0020320Y0125313D01*
X0020165Y0125344D01*
X0020010Y0125380D01*
X0019857Y0125419D01*
X0019705Y0125462D01*
X0019554Y0125509D01*
X0019404Y0125560D01*
X0019255Y0125615D01*
X0019108Y0125673D01*
X0018962Y0125735D01*
X0018818Y0125800D01*
X0018676Y0125870D01*
X0018535Y0125942D01*
X0018396Y0126019D01*
X0018260Y0126098D01*
X0018125Y0126182D01*
X0017992Y0126268D01*
X0017862Y0126358D01*
X0017734Y0126451D01*
X0017608Y0126547D01*
X0017485Y0126647D01*
X0017364Y0126749D01*
X0017246Y0126854D01*
X0017131Y0126963D01*
X0017018Y0127074D01*
X0016908Y0127188D01*
X0016801Y0127305D01*
X0016697Y0127424D01*
X0016596Y0127546D01*
X0016499Y0127671D01*
X0016404Y0127798D01*
X0016313Y0127927D01*
X0016224Y0128058D01*
X0016140Y0128192D01*
X0016058Y0128328D01*
X0015980Y0128465D01*
X0015906Y0128605D01*
X0015835Y0128747D01*
X0015767Y0128890D01*
X0015703Y0129035D01*
X0015643Y0129181D01*
X0015587Y0129329D01*
X0015534Y0129478D01*
X0015485Y0129629D01*
X0015440Y0129781D01*
X0015399Y0129934D01*
X0015361Y0130087D01*
X0015328Y0130242D01*
X0015298Y0130398D01*
X0015272Y0130554D01*
X0015251Y0130711D01*
X0015233Y0130868D01*
X0015219Y0131026D01*
X0015209Y0131184D01*
X0015203Y0131342D01*
X0015201Y0131500D01*
X0125280Y0128106D02*
X0125282Y0128264D01*
X0125288Y0128422D01*
X0125298Y0128580D01*
X0125312Y0128738D01*
X0125330Y0128895D01*
X0125351Y0129052D01*
X0125377Y0129208D01*
X0125407Y0129364D01*
X0125440Y0129519D01*
X0125478Y0129672D01*
X0125519Y0129825D01*
X0125564Y0129977D01*
X0125613Y0130128D01*
X0125666Y0130277D01*
X0125722Y0130425D01*
X0125782Y0130571D01*
X0125846Y0130716D01*
X0125914Y0130859D01*
X0125985Y0131001D01*
X0126059Y0131141D01*
X0126137Y0131278D01*
X0126219Y0131414D01*
X0126303Y0131548D01*
X0126392Y0131679D01*
X0126483Y0131808D01*
X0126578Y0131935D01*
X0126675Y0132060D01*
X0126776Y0132182D01*
X0126880Y0132301D01*
X0126987Y0132418D01*
X0127097Y0132532D01*
X0127210Y0132643D01*
X0127325Y0132752D01*
X0127443Y0132857D01*
X0127564Y0132959D01*
X0127687Y0133059D01*
X0127813Y0133155D01*
X0127941Y0133248D01*
X0128071Y0133338D01*
X0128204Y0133424D01*
X0128339Y0133508D01*
X0128475Y0133587D01*
X0128614Y0133664D01*
X0128755Y0133736D01*
X0128897Y0133806D01*
X0129041Y0133871D01*
X0129187Y0133933D01*
X0129334Y0133991D01*
X0129483Y0134046D01*
X0129633Y0134097D01*
X0129784Y0134144D01*
X0129936Y0134187D01*
X0130089Y0134226D01*
X0130244Y0134262D01*
X0130399Y0134293D01*
X0130555Y0134321D01*
X0130711Y0134345D01*
X0130868Y0134365D01*
X0131026Y0134381D01*
X0131183Y0134393D01*
X0131342Y0134401D01*
X0131500Y0134405D01*
X0131658Y0134405D01*
X0131816Y0134401D01*
X0131975Y0134393D01*
X0132132Y0134381D01*
X0132290Y0134365D01*
X0132447Y0134345D01*
X0132603Y0134321D01*
X0132759Y0134293D01*
X0132914Y0134262D01*
X0133069Y0134226D01*
X0133222Y0134187D01*
X0133374Y0134144D01*
X0133525Y0134097D01*
X0133675Y0134046D01*
X0133824Y0133991D01*
X0133971Y0133933D01*
X0134117Y0133871D01*
X0134261Y0133806D01*
X0134403Y0133736D01*
X0134544Y0133664D01*
X0134683Y0133587D01*
X0134819Y0133508D01*
X0134954Y0133424D01*
X0135087Y0133338D01*
X0135217Y0133248D01*
X0135345Y0133155D01*
X0135471Y0133059D01*
X0135594Y0132959D01*
X0135715Y0132857D01*
X0135833Y0132752D01*
X0135948Y0132643D01*
X0136061Y0132532D01*
X0136171Y0132418D01*
X0136278Y0132301D01*
X0136382Y0132182D01*
X0136483Y0132060D01*
X0136580Y0131935D01*
X0136675Y0131808D01*
X0136766Y0131679D01*
X0136855Y0131548D01*
X0136939Y0131414D01*
X0137021Y0131278D01*
X0137099Y0131141D01*
X0137173Y0131001D01*
X0137244Y0130859D01*
X0137312Y0130716D01*
X0137376Y0130571D01*
X0137436Y0130425D01*
X0137492Y0130277D01*
X0137545Y0130128D01*
X0137594Y0129977D01*
X0137639Y0129825D01*
X0137680Y0129672D01*
X0137718Y0129519D01*
X0137751Y0129364D01*
X0137781Y0129208D01*
X0137807Y0129052D01*
X0137828Y0128895D01*
X0137846Y0128738D01*
X0137860Y0128580D01*
X0137870Y0128422D01*
X0137876Y0128264D01*
X0137878Y0128106D01*
X0137876Y0127948D01*
X0137870Y0127790D01*
X0137860Y0127632D01*
X0137846Y0127474D01*
X0137828Y0127317D01*
X0137807Y0127160D01*
X0137781Y0127004D01*
X0137751Y0126848D01*
X0137718Y0126693D01*
X0137680Y0126540D01*
X0137639Y0126387D01*
X0137594Y0126235D01*
X0137545Y0126084D01*
X0137492Y0125935D01*
X0137436Y0125787D01*
X0137376Y0125641D01*
X0137312Y0125496D01*
X0137244Y0125353D01*
X0137173Y0125211D01*
X0137099Y0125071D01*
X0137021Y0124934D01*
X0136939Y0124798D01*
X0136855Y0124664D01*
X0136766Y0124533D01*
X0136675Y0124404D01*
X0136580Y0124277D01*
X0136483Y0124152D01*
X0136382Y0124030D01*
X0136278Y0123911D01*
X0136171Y0123794D01*
X0136061Y0123680D01*
X0135948Y0123569D01*
X0135833Y0123460D01*
X0135715Y0123355D01*
X0135594Y0123253D01*
X0135471Y0123153D01*
X0135345Y0123057D01*
X0135217Y0122964D01*
X0135087Y0122874D01*
X0134954Y0122788D01*
X0134819Y0122704D01*
X0134683Y0122625D01*
X0134544Y0122548D01*
X0134403Y0122476D01*
X0134261Y0122406D01*
X0134117Y0122341D01*
X0133971Y0122279D01*
X0133824Y0122221D01*
X0133675Y0122166D01*
X0133525Y0122115D01*
X0133374Y0122068D01*
X0133222Y0122025D01*
X0133069Y0121986D01*
X0132914Y0121950D01*
X0132759Y0121919D01*
X0132603Y0121891D01*
X0132447Y0121867D01*
X0132290Y0121847D01*
X0132132Y0121831D01*
X0131975Y0121819D01*
X0131816Y0121811D01*
X0131658Y0121807D01*
X0131500Y0121807D01*
X0131342Y0121811D01*
X0131183Y0121819D01*
X0131026Y0121831D01*
X0130868Y0121847D01*
X0130711Y0121867D01*
X0130555Y0121891D01*
X0130399Y0121919D01*
X0130244Y0121950D01*
X0130089Y0121986D01*
X0129936Y0122025D01*
X0129784Y0122068D01*
X0129633Y0122115D01*
X0129483Y0122166D01*
X0129334Y0122221D01*
X0129187Y0122279D01*
X0129041Y0122341D01*
X0128897Y0122406D01*
X0128755Y0122476D01*
X0128614Y0122548D01*
X0128475Y0122625D01*
X0128339Y0122704D01*
X0128204Y0122788D01*
X0128071Y0122874D01*
X0127941Y0122964D01*
X0127813Y0123057D01*
X0127687Y0123153D01*
X0127564Y0123253D01*
X0127443Y0123355D01*
X0127325Y0123460D01*
X0127210Y0123569D01*
X0127097Y0123680D01*
X0126987Y0123794D01*
X0126880Y0123911D01*
X0126776Y0124030D01*
X0126675Y0124152D01*
X0126578Y0124277D01*
X0126483Y0124404D01*
X0126392Y0124533D01*
X0126303Y0124664D01*
X0126219Y0124798D01*
X0126137Y0124934D01*
X0126059Y0125071D01*
X0125985Y0125211D01*
X0125914Y0125353D01*
X0125846Y0125496D01*
X0125782Y0125641D01*
X0125722Y0125787D01*
X0125666Y0125935D01*
X0125613Y0126084D01*
X0125564Y0126235D01*
X0125519Y0126387D01*
X0125478Y0126540D01*
X0125440Y0126693D01*
X0125407Y0126848D01*
X0125377Y0127004D01*
X0125351Y0127160D01*
X0125330Y0127317D01*
X0125312Y0127474D01*
X0125298Y0127632D01*
X0125288Y0127790D01*
X0125282Y0127948D01*
X0125280Y0128106D01*
X0125280Y0078106D02*
X0125282Y0078264D01*
X0125288Y0078422D01*
X0125298Y0078580D01*
X0125312Y0078738D01*
X0125330Y0078895D01*
X0125351Y0079052D01*
X0125377Y0079208D01*
X0125407Y0079364D01*
X0125440Y0079519D01*
X0125478Y0079672D01*
X0125519Y0079825D01*
X0125564Y0079977D01*
X0125613Y0080128D01*
X0125666Y0080277D01*
X0125722Y0080425D01*
X0125782Y0080571D01*
X0125846Y0080716D01*
X0125914Y0080859D01*
X0125985Y0081001D01*
X0126059Y0081141D01*
X0126137Y0081278D01*
X0126219Y0081414D01*
X0126303Y0081548D01*
X0126392Y0081679D01*
X0126483Y0081808D01*
X0126578Y0081935D01*
X0126675Y0082060D01*
X0126776Y0082182D01*
X0126880Y0082301D01*
X0126987Y0082418D01*
X0127097Y0082532D01*
X0127210Y0082643D01*
X0127325Y0082752D01*
X0127443Y0082857D01*
X0127564Y0082959D01*
X0127687Y0083059D01*
X0127813Y0083155D01*
X0127941Y0083248D01*
X0128071Y0083338D01*
X0128204Y0083424D01*
X0128339Y0083508D01*
X0128475Y0083587D01*
X0128614Y0083664D01*
X0128755Y0083736D01*
X0128897Y0083806D01*
X0129041Y0083871D01*
X0129187Y0083933D01*
X0129334Y0083991D01*
X0129483Y0084046D01*
X0129633Y0084097D01*
X0129784Y0084144D01*
X0129936Y0084187D01*
X0130089Y0084226D01*
X0130244Y0084262D01*
X0130399Y0084293D01*
X0130555Y0084321D01*
X0130711Y0084345D01*
X0130868Y0084365D01*
X0131026Y0084381D01*
X0131183Y0084393D01*
X0131342Y0084401D01*
X0131500Y0084405D01*
X0131658Y0084405D01*
X0131816Y0084401D01*
X0131975Y0084393D01*
X0132132Y0084381D01*
X0132290Y0084365D01*
X0132447Y0084345D01*
X0132603Y0084321D01*
X0132759Y0084293D01*
X0132914Y0084262D01*
X0133069Y0084226D01*
X0133222Y0084187D01*
X0133374Y0084144D01*
X0133525Y0084097D01*
X0133675Y0084046D01*
X0133824Y0083991D01*
X0133971Y0083933D01*
X0134117Y0083871D01*
X0134261Y0083806D01*
X0134403Y0083736D01*
X0134544Y0083664D01*
X0134683Y0083587D01*
X0134819Y0083508D01*
X0134954Y0083424D01*
X0135087Y0083338D01*
X0135217Y0083248D01*
X0135345Y0083155D01*
X0135471Y0083059D01*
X0135594Y0082959D01*
X0135715Y0082857D01*
X0135833Y0082752D01*
X0135948Y0082643D01*
X0136061Y0082532D01*
X0136171Y0082418D01*
X0136278Y0082301D01*
X0136382Y0082182D01*
X0136483Y0082060D01*
X0136580Y0081935D01*
X0136675Y0081808D01*
X0136766Y0081679D01*
X0136855Y0081548D01*
X0136939Y0081414D01*
X0137021Y0081278D01*
X0137099Y0081141D01*
X0137173Y0081001D01*
X0137244Y0080859D01*
X0137312Y0080716D01*
X0137376Y0080571D01*
X0137436Y0080425D01*
X0137492Y0080277D01*
X0137545Y0080128D01*
X0137594Y0079977D01*
X0137639Y0079825D01*
X0137680Y0079672D01*
X0137718Y0079519D01*
X0137751Y0079364D01*
X0137781Y0079208D01*
X0137807Y0079052D01*
X0137828Y0078895D01*
X0137846Y0078738D01*
X0137860Y0078580D01*
X0137870Y0078422D01*
X0137876Y0078264D01*
X0137878Y0078106D01*
X0137876Y0077948D01*
X0137870Y0077790D01*
X0137860Y0077632D01*
X0137846Y0077474D01*
X0137828Y0077317D01*
X0137807Y0077160D01*
X0137781Y0077004D01*
X0137751Y0076848D01*
X0137718Y0076693D01*
X0137680Y0076540D01*
X0137639Y0076387D01*
X0137594Y0076235D01*
X0137545Y0076084D01*
X0137492Y0075935D01*
X0137436Y0075787D01*
X0137376Y0075641D01*
X0137312Y0075496D01*
X0137244Y0075353D01*
X0137173Y0075211D01*
X0137099Y0075071D01*
X0137021Y0074934D01*
X0136939Y0074798D01*
X0136855Y0074664D01*
X0136766Y0074533D01*
X0136675Y0074404D01*
X0136580Y0074277D01*
X0136483Y0074152D01*
X0136382Y0074030D01*
X0136278Y0073911D01*
X0136171Y0073794D01*
X0136061Y0073680D01*
X0135948Y0073569D01*
X0135833Y0073460D01*
X0135715Y0073355D01*
X0135594Y0073253D01*
X0135471Y0073153D01*
X0135345Y0073057D01*
X0135217Y0072964D01*
X0135087Y0072874D01*
X0134954Y0072788D01*
X0134819Y0072704D01*
X0134683Y0072625D01*
X0134544Y0072548D01*
X0134403Y0072476D01*
X0134261Y0072406D01*
X0134117Y0072341D01*
X0133971Y0072279D01*
X0133824Y0072221D01*
X0133675Y0072166D01*
X0133525Y0072115D01*
X0133374Y0072068D01*
X0133222Y0072025D01*
X0133069Y0071986D01*
X0132914Y0071950D01*
X0132759Y0071919D01*
X0132603Y0071891D01*
X0132447Y0071867D01*
X0132290Y0071847D01*
X0132132Y0071831D01*
X0131975Y0071819D01*
X0131816Y0071811D01*
X0131658Y0071807D01*
X0131500Y0071807D01*
X0131342Y0071811D01*
X0131183Y0071819D01*
X0131026Y0071831D01*
X0130868Y0071847D01*
X0130711Y0071867D01*
X0130555Y0071891D01*
X0130399Y0071919D01*
X0130244Y0071950D01*
X0130089Y0071986D01*
X0129936Y0072025D01*
X0129784Y0072068D01*
X0129633Y0072115D01*
X0129483Y0072166D01*
X0129334Y0072221D01*
X0129187Y0072279D01*
X0129041Y0072341D01*
X0128897Y0072406D01*
X0128755Y0072476D01*
X0128614Y0072548D01*
X0128475Y0072625D01*
X0128339Y0072704D01*
X0128204Y0072788D01*
X0128071Y0072874D01*
X0127941Y0072964D01*
X0127813Y0073057D01*
X0127687Y0073153D01*
X0127564Y0073253D01*
X0127443Y0073355D01*
X0127325Y0073460D01*
X0127210Y0073569D01*
X0127097Y0073680D01*
X0126987Y0073794D01*
X0126880Y0073911D01*
X0126776Y0074030D01*
X0126675Y0074152D01*
X0126578Y0074277D01*
X0126483Y0074404D01*
X0126392Y0074533D01*
X0126303Y0074664D01*
X0126219Y0074798D01*
X0126137Y0074934D01*
X0126059Y0075071D01*
X0125985Y0075211D01*
X0125914Y0075353D01*
X0125846Y0075496D01*
X0125782Y0075641D01*
X0125722Y0075787D01*
X0125666Y0075935D01*
X0125613Y0076084D01*
X0125564Y0076235D01*
X0125519Y0076387D01*
X0125478Y0076540D01*
X0125440Y0076693D01*
X0125407Y0076848D01*
X0125377Y0077004D01*
X0125351Y0077160D01*
X0125330Y0077317D01*
X0125312Y0077474D01*
X0125298Y0077632D01*
X0125288Y0077790D01*
X0125282Y0077948D01*
X0125280Y0078106D01*
X0125280Y0065902D02*
X0125282Y0066060D01*
X0125288Y0066218D01*
X0125298Y0066376D01*
X0125312Y0066534D01*
X0125330Y0066691D01*
X0125351Y0066848D01*
X0125377Y0067004D01*
X0125407Y0067160D01*
X0125440Y0067315D01*
X0125478Y0067468D01*
X0125519Y0067621D01*
X0125564Y0067773D01*
X0125613Y0067924D01*
X0125666Y0068073D01*
X0125722Y0068221D01*
X0125782Y0068367D01*
X0125846Y0068512D01*
X0125914Y0068655D01*
X0125985Y0068797D01*
X0126059Y0068937D01*
X0126137Y0069074D01*
X0126219Y0069210D01*
X0126303Y0069344D01*
X0126392Y0069475D01*
X0126483Y0069604D01*
X0126578Y0069731D01*
X0126675Y0069856D01*
X0126776Y0069978D01*
X0126880Y0070097D01*
X0126987Y0070214D01*
X0127097Y0070328D01*
X0127210Y0070439D01*
X0127325Y0070548D01*
X0127443Y0070653D01*
X0127564Y0070755D01*
X0127687Y0070855D01*
X0127813Y0070951D01*
X0127941Y0071044D01*
X0128071Y0071134D01*
X0128204Y0071220D01*
X0128339Y0071304D01*
X0128475Y0071383D01*
X0128614Y0071460D01*
X0128755Y0071532D01*
X0128897Y0071602D01*
X0129041Y0071667D01*
X0129187Y0071729D01*
X0129334Y0071787D01*
X0129483Y0071842D01*
X0129633Y0071893D01*
X0129784Y0071940D01*
X0129936Y0071983D01*
X0130089Y0072022D01*
X0130244Y0072058D01*
X0130399Y0072089D01*
X0130555Y0072117D01*
X0130711Y0072141D01*
X0130868Y0072161D01*
X0131026Y0072177D01*
X0131183Y0072189D01*
X0131342Y0072197D01*
X0131500Y0072201D01*
X0131658Y0072201D01*
X0131816Y0072197D01*
X0131975Y0072189D01*
X0132132Y0072177D01*
X0132290Y0072161D01*
X0132447Y0072141D01*
X0132603Y0072117D01*
X0132759Y0072089D01*
X0132914Y0072058D01*
X0133069Y0072022D01*
X0133222Y0071983D01*
X0133374Y0071940D01*
X0133525Y0071893D01*
X0133675Y0071842D01*
X0133824Y0071787D01*
X0133971Y0071729D01*
X0134117Y0071667D01*
X0134261Y0071602D01*
X0134403Y0071532D01*
X0134544Y0071460D01*
X0134683Y0071383D01*
X0134819Y0071304D01*
X0134954Y0071220D01*
X0135087Y0071134D01*
X0135217Y0071044D01*
X0135345Y0070951D01*
X0135471Y0070855D01*
X0135594Y0070755D01*
X0135715Y0070653D01*
X0135833Y0070548D01*
X0135948Y0070439D01*
X0136061Y0070328D01*
X0136171Y0070214D01*
X0136278Y0070097D01*
X0136382Y0069978D01*
X0136483Y0069856D01*
X0136580Y0069731D01*
X0136675Y0069604D01*
X0136766Y0069475D01*
X0136855Y0069344D01*
X0136939Y0069210D01*
X0137021Y0069074D01*
X0137099Y0068937D01*
X0137173Y0068797D01*
X0137244Y0068655D01*
X0137312Y0068512D01*
X0137376Y0068367D01*
X0137436Y0068221D01*
X0137492Y0068073D01*
X0137545Y0067924D01*
X0137594Y0067773D01*
X0137639Y0067621D01*
X0137680Y0067468D01*
X0137718Y0067315D01*
X0137751Y0067160D01*
X0137781Y0067004D01*
X0137807Y0066848D01*
X0137828Y0066691D01*
X0137846Y0066534D01*
X0137860Y0066376D01*
X0137870Y0066218D01*
X0137876Y0066060D01*
X0137878Y0065902D01*
X0137876Y0065744D01*
X0137870Y0065586D01*
X0137860Y0065428D01*
X0137846Y0065270D01*
X0137828Y0065113D01*
X0137807Y0064956D01*
X0137781Y0064800D01*
X0137751Y0064644D01*
X0137718Y0064489D01*
X0137680Y0064336D01*
X0137639Y0064183D01*
X0137594Y0064031D01*
X0137545Y0063880D01*
X0137492Y0063731D01*
X0137436Y0063583D01*
X0137376Y0063437D01*
X0137312Y0063292D01*
X0137244Y0063149D01*
X0137173Y0063007D01*
X0137099Y0062867D01*
X0137021Y0062730D01*
X0136939Y0062594D01*
X0136855Y0062460D01*
X0136766Y0062329D01*
X0136675Y0062200D01*
X0136580Y0062073D01*
X0136483Y0061948D01*
X0136382Y0061826D01*
X0136278Y0061707D01*
X0136171Y0061590D01*
X0136061Y0061476D01*
X0135948Y0061365D01*
X0135833Y0061256D01*
X0135715Y0061151D01*
X0135594Y0061049D01*
X0135471Y0060949D01*
X0135345Y0060853D01*
X0135217Y0060760D01*
X0135087Y0060670D01*
X0134954Y0060584D01*
X0134819Y0060500D01*
X0134683Y0060421D01*
X0134544Y0060344D01*
X0134403Y0060272D01*
X0134261Y0060202D01*
X0134117Y0060137D01*
X0133971Y0060075D01*
X0133824Y0060017D01*
X0133675Y0059962D01*
X0133525Y0059911D01*
X0133374Y0059864D01*
X0133222Y0059821D01*
X0133069Y0059782D01*
X0132914Y0059746D01*
X0132759Y0059715D01*
X0132603Y0059687D01*
X0132447Y0059663D01*
X0132290Y0059643D01*
X0132132Y0059627D01*
X0131975Y0059615D01*
X0131816Y0059607D01*
X0131658Y0059603D01*
X0131500Y0059603D01*
X0131342Y0059607D01*
X0131183Y0059615D01*
X0131026Y0059627D01*
X0130868Y0059643D01*
X0130711Y0059663D01*
X0130555Y0059687D01*
X0130399Y0059715D01*
X0130244Y0059746D01*
X0130089Y0059782D01*
X0129936Y0059821D01*
X0129784Y0059864D01*
X0129633Y0059911D01*
X0129483Y0059962D01*
X0129334Y0060017D01*
X0129187Y0060075D01*
X0129041Y0060137D01*
X0128897Y0060202D01*
X0128755Y0060272D01*
X0128614Y0060344D01*
X0128475Y0060421D01*
X0128339Y0060500D01*
X0128204Y0060584D01*
X0128071Y0060670D01*
X0127941Y0060760D01*
X0127813Y0060853D01*
X0127687Y0060949D01*
X0127564Y0061049D01*
X0127443Y0061151D01*
X0127325Y0061256D01*
X0127210Y0061365D01*
X0127097Y0061476D01*
X0126987Y0061590D01*
X0126880Y0061707D01*
X0126776Y0061826D01*
X0126675Y0061948D01*
X0126578Y0062073D01*
X0126483Y0062200D01*
X0126392Y0062329D01*
X0126303Y0062460D01*
X0126219Y0062594D01*
X0126137Y0062730D01*
X0126059Y0062867D01*
X0125985Y0063007D01*
X0125914Y0063149D01*
X0125846Y0063292D01*
X0125782Y0063437D01*
X0125722Y0063583D01*
X0125666Y0063731D01*
X0125613Y0063880D01*
X0125564Y0064031D01*
X0125519Y0064183D01*
X0125478Y0064336D01*
X0125440Y0064489D01*
X0125407Y0064644D01*
X0125377Y0064800D01*
X0125351Y0064956D01*
X0125330Y0065113D01*
X0125312Y0065270D01*
X0125298Y0065428D01*
X0125288Y0065586D01*
X0125282Y0065744D01*
X0125280Y0065902D01*
X0125280Y0015902D02*
X0125282Y0016060D01*
X0125288Y0016218D01*
X0125298Y0016376D01*
X0125312Y0016534D01*
X0125330Y0016691D01*
X0125351Y0016848D01*
X0125377Y0017004D01*
X0125407Y0017160D01*
X0125440Y0017315D01*
X0125478Y0017468D01*
X0125519Y0017621D01*
X0125564Y0017773D01*
X0125613Y0017924D01*
X0125666Y0018073D01*
X0125722Y0018221D01*
X0125782Y0018367D01*
X0125846Y0018512D01*
X0125914Y0018655D01*
X0125985Y0018797D01*
X0126059Y0018937D01*
X0126137Y0019074D01*
X0126219Y0019210D01*
X0126303Y0019344D01*
X0126392Y0019475D01*
X0126483Y0019604D01*
X0126578Y0019731D01*
X0126675Y0019856D01*
X0126776Y0019978D01*
X0126880Y0020097D01*
X0126987Y0020214D01*
X0127097Y0020328D01*
X0127210Y0020439D01*
X0127325Y0020548D01*
X0127443Y0020653D01*
X0127564Y0020755D01*
X0127687Y0020855D01*
X0127813Y0020951D01*
X0127941Y0021044D01*
X0128071Y0021134D01*
X0128204Y0021220D01*
X0128339Y0021304D01*
X0128475Y0021383D01*
X0128614Y0021460D01*
X0128755Y0021532D01*
X0128897Y0021602D01*
X0129041Y0021667D01*
X0129187Y0021729D01*
X0129334Y0021787D01*
X0129483Y0021842D01*
X0129633Y0021893D01*
X0129784Y0021940D01*
X0129936Y0021983D01*
X0130089Y0022022D01*
X0130244Y0022058D01*
X0130399Y0022089D01*
X0130555Y0022117D01*
X0130711Y0022141D01*
X0130868Y0022161D01*
X0131026Y0022177D01*
X0131183Y0022189D01*
X0131342Y0022197D01*
X0131500Y0022201D01*
X0131658Y0022201D01*
X0131816Y0022197D01*
X0131975Y0022189D01*
X0132132Y0022177D01*
X0132290Y0022161D01*
X0132447Y0022141D01*
X0132603Y0022117D01*
X0132759Y0022089D01*
X0132914Y0022058D01*
X0133069Y0022022D01*
X0133222Y0021983D01*
X0133374Y0021940D01*
X0133525Y0021893D01*
X0133675Y0021842D01*
X0133824Y0021787D01*
X0133971Y0021729D01*
X0134117Y0021667D01*
X0134261Y0021602D01*
X0134403Y0021532D01*
X0134544Y0021460D01*
X0134683Y0021383D01*
X0134819Y0021304D01*
X0134954Y0021220D01*
X0135087Y0021134D01*
X0135217Y0021044D01*
X0135345Y0020951D01*
X0135471Y0020855D01*
X0135594Y0020755D01*
X0135715Y0020653D01*
X0135833Y0020548D01*
X0135948Y0020439D01*
X0136061Y0020328D01*
X0136171Y0020214D01*
X0136278Y0020097D01*
X0136382Y0019978D01*
X0136483Y0019856D01*
X0136580Y0019731D01*
X0136675Y0019604D01*
X0136766Y0019475D01*
X0136855Y0019344D01*
X0136939Y0019210D01*
X0137021Y0019074D01*
X0137099Y0018937D01*
X0137173Y0018797D01*
X0137244Y0018655D01*
X0137312Y0018512D01*
X0137376Y0018367D01*
X0137436Y0018221D01*
X0137492Y0018073D01*
X0137545Y0017924D01*
X0137594Y0017773D01*
X0137639Y0017621D01*
X0137680Y0017468D01*
X0137718Y0017315D01*
X0137751Y0017160D01*
X0137781Y0017004D01*
X0137807Y0016848D01*
X0137828Y0016691D01*
X0137846Y0016534D01*
X0137860Y0016376D01*
X0137870Y0016218D01*
X0137876Y0016060D01*
X0137878Y0015902D01*
X0137876Y0015744D01*
X0137870Y0015586D01*
X0137860Y0015428D01*
X0137846Y0015270D01*
X0137828Y0015113D01*
X0137807Y0014956D01*
X0137781Y0014800D01*
X0137751Y0014644D01*
X0137718Y0014489D01*
X0137680Y0014336D01*
X0137639Y0014183D01*
X0137594Y0014031D01*
X0137545Y0013880D01*
X0137492Y0013731D01*
X0137436Y0013583D01*
X0137376Y0013437D01*
X0137312Y0013292D01*
X0137244Y0013149D01*
X0137173Y0013007D01*
X0137099Y0012867D01*
X0137021Y0012730D01*
X0136939Y0012594D01*
X0136855Y0012460D01*
X0136766Y0012329D01*
X0136675Y0012200D01*
X0136580Y0012073D01*
X0136483Y0011948D01*
X0136382Y0011826D01*
X0136278Y0011707D01*
X0136171Y0011590D01*
X0136061Y0011476D01*
X0135948Y0011365D01*
X0135833Y0011256D01*
X0135715Y0011151D01*
X0135594Y0011049D01*
X0135471Y0010949D01*
X0135345Y0010853D01*
X0135217Y0010760D01*
X0135087Y0010670D01*
X0134954Y0010584D01*
X0134819Y0010500D01*
X0134683Y0010421D01*
X0134544Y0010344D01*
X0134403Y0010272D01*
X0134261Y0010202D01*
X0134117Y0010137D01*
X0133971Y0010075D01*
X0133824Y0010017D01*
X0133675Y0009962D01*
X0133525Y0009911D01*
X0133374Y0009864D01*
X0133222Y0009821D01*
X0133069Y0009782D01*
X0132914Y0009746D01*
X0132759Y0009715D01*
X0132603Y0009687D01*
X0132447Y0009663D01*
X0132290Y0009643D01*
X0132132Y0009627D01*
X0131975Y0009615D01*
X0131816Y0009607D01*
X0131658Y0009603D01*
X0131500Y0009603D01*
X0131342Y0009607D01*
X0131183Y0009615D01*
X0131026Y0009627D01*
X0130868Y0009643D01*
X0130711Y0009663D01*
X0130555Y0009687D01*
X0130399Y0009715D01*
X0130244Y0009746D01*
X0130089Y0009782D01*
X0129936Y0009821D01*
X0129784Y0009864D01*
X0129633Y0009911D01*
X0129483Y0009962D01*
X0129334Y0010017D01*
X0129187Y0010075D01*
X0129041Y0010137D01*
X0128897Y0010202D01*
X0128755Y0010272D01*
X0128614Y0010344D01*
X0128475Y0010421D01*
X0128339Y0010500D01*
X0128204Y0010584D01*
X0128071Y0010670D01*
X0127941Y0010760D01*
X0127813Y0010853D01*
X0127687Y0010949D01*
X0127564Y0011049D01*
X0127443Y0011151D01*
X0127325Y0011256D01*
X0127210Y0011365D01*
X0127097Y0011476D01*
X0126987Y0011590D01*
X0126880Y0011707D01*
X0126776Y0011826D01*
X0126675Y0011948D01*
X0126578Y0012073D01*
X0126483Y0012200D01*
X0126392Y0012329D01*
X0126303Y0012460D01*
X0126219Y0012594D01*
X0126137Y0012730D01*
X0126059Y0012867D01*
X0125985Y0013007D01*
X0125914Y0013149D01*
X0125846Y0013292D01*
X0125782Y0013437D01*
X0125722Y0013583D01*
X0125666Y0013731D01*
X0125613Y0013880D01*
X0125564Y0014031D01*
X0125519Y0014183D01*
X0125478Y0014336D01*
X0125440Y0014489D01*
X0125407Y0014644D01*
X0125377Y0014800D01*
X0125351Y0014956D01*
X0125330Y0015113D01*
X0125312Y0015270D01*
X0125298Y0015428D01*
X0125288Y0015586D01*
X0125282Y0015744D01*
X0125280Y0015902D01*
D11*
X0114571Y0026906D03*
X0121579Y0030921D03*
X0114571Y0034937D03*
X0114571Y0042850D03*
X0121579Y0038953D03*
X0121579Y0046866D03*
X0114571Y0050882D03*
X0121579Y0054898D03*
X0114571Y0089110D03*
X0114571Y0097142D03*
X0121579Y0101157D03*
X0114571Y0105055D03*
X0121579Y0109071D03*
X0121579Y0117102D03*
X0114571Y0113087D03*
X0121579Y0093126D03*
X0038508Y0096520D03*
X0031500Y0100535D03*
X0031500Y0108449D03*
X0038508Y0104551D03*
X0038508Y0112465D03*
X0031500Y0116480D03*
X0038508Y0120496D03*
X0031500Y0092504D03*
X0038508Y0050496D03*
X0031500Y0046480D03*
X0038508Y0042465D03*
X0038508Y0034551D03*
X0031500Y0038449D03*
X0031500Y0030535D03*
X0038508Y0026520D03*
X0031500Y0022504D03*
D12*
X0073531Y0046500D02*
X0079531Y0046500D01*
X0079531Y0056500D02*
X0073531Y0056500D01*
X0073531Y0066500D02*
X0079531Y0066500D01*
X0079531Y0076500D02*
X0073531Y0076500D01*
X0073531Y0086500D02*
X0079531Y0086500D01*
X0079531Y0096500D02*
X0073531Y0096500D01*
D13*
X0076531Y0096500D02*
X0091500Y0096500D01*
X0098890Y0089110D01*
X0114571Y0089110D01*
X0117500Y0083500D02*
X0098500Y0083500D01*
X0090500Y0091500D01*
X0083500Y0091500D01*
X0089000Y0086500D02*
X0076531Y0086500D01*
X0071500Y0086500D01*
X0055500Y0070500D01*
X0055500Y0043000D01*
X0051000Y0039000D01*
X0045000Y0039000D01*
X0045000Y0044000D02*
X0040043Y0044000D01*
X0038508Y0042465D01*
X0031500Y0046480D01*
X0031500Y0052500D01*
X0042000Y0063000D01*
X0042000Y0080500D01*
X0053861Y0092636D01*
X0063500Y0102500D01*
X0083500Y0102500D01*
X0094000Y0102500D01*
X0099500Y0097000D01*
X0114429Y0097000D01*
X0114571Y0097142D01*
X0121579Y0093126D01*
X0121000Y0092547D01*
X0121000Y0087000D01*
X0117500Y0083500D01*
X0121000Y0079000D02*
X0129000Y0089500D01*
X0129000Y0097000D01*
X0124843Y0101157D01*
X0121579Y0101157D01*
X0114571Y0105055D02*
X0099945Y0105055D01*
X0094000Y0111000D01*
X0089000Y0111000D01*
X0059500Y0111000D01*
X0053000Y0104500D01*
X0038559Y0104500D01*
X0038508Y0104551D01*
X0038508Y0112465D02*
X0031500Y0116480D01*
X0031000Y0116980D01*
X0031000Y0125000D01*
X0036000Y0130000D01*
X0081500Y0131500D01*
X0066500Y0121500D02*
X0039512Y0121500D01*
X0038508Y0120496D01*
X0031500Y0116480D02*
X0027480Y0116480D01*
X0024500Y0113500D01*
X0024500Y0102500D01*
X0026500Y0100500D01*
X0031465Y0100500D01*
X0031500Y0100535D01*
X0046500Y0109500D02*
X0053000Y0116000D01*
X0095500Y0116000D01*
X0076531Y0096500D02*
X0065500Y0096500D01*
X0046500Y0077500D01*
X0046500Y0058488D01*
X0038508Y0050496D01*
X0031500Y0046480D02*
X0031480Y0046500D01*
X0027500Y0046500D01*
X0025000Y0044000D01*
X0025000Y0032500D01*
X0026965Y0030535D01*
X0031500Y0030535D01*
X0038508Y0034551D02*
X0054051Y0034551D01*
X0060000Y0040500D01*
X0060000Y0066500D01*
X0070000Y0076500D01*
X0076531Y0076500D01*
X0089000Y0076500D01*
X0091000Y0076500D01*
X0093500Y0074000D01*
X0093500Y0059500D01*
X0110000Y0043000D01*
X0114421Y0043000D01*
X0114571Y0042850D01*
X0114571Y0034937D02*
X0103563Y0034937D01*
X0089000Y0049500D01*
X0089000Y0066500D01*
X0076531Y0066500D01*
X0076031Y0066000D01*
X0068000Y0066000D01*
X0064500Y0062500D01*
X0064500Y0038500D01*
X0056000Y0030000D01*
X0047000Y0030000D01*
X0045000Y0044000D02*
X0051000Y0050000D01*
X0051000Y0074000D01*
X0068000Y0091000D01*
X0089000Y0086500D02*
X0096500Y0079000D01*
X0096500Y0078000D01*
X0098500Y0076000D01*
X0098500Y0061000D01*
X0100217Y0059283D01*
X0100217Y0059226D01*
X0102726Y0056717D01*
X0102783Y0056717D01*
X0107000Y0052500D01*
X0121579Y0046866D02*
X0121713Y0047000D01*
X0127000Y0047000D01*
X0128500Y0045500D01*
X0128500Y0032000D01*
X0127421Y0030921D01*
X0121579Y0030921D01*
X0114571Y0034937D01*
X0114571Y0026906D02*
X0116094Y0026906D01*
X0119000Y0024000D01*
X0125000Y0024000D01*
X0126500Y0025500D01*
X0130000Y0025500D01*
X0134000Y0029500D01*
X0134000Y0047500D01*
X0128000Y0053500D01*
X0128000Y0056500D01*
X0114000Y0070500D01*
X0114000Y0074500D01*
X0121000Y0079000D02*
X0096500Y0079000D01*
D14*
X0096500Y0079000D03*
X0103000Y0074500D03*
X0108000Y0074500D03*
X0114000Y0074500D03*
X0112000Y0061000D03*
X0104500Y0061000D03*
X0107000Y0052500D03*
X0105000Y0040500D03*
X0126500Y0041500D03*
X0128500Y0034000D03*
X0141500Y0026500D03*
X0141500Y0041500D03*
X0141500Y0051500D03*
X0136500Y0101500D03*
X0146500Y0101500D03*
X0146500Y0111500D03*
X0136500Y0111500D03*
X0111500Y0131500D03*
X0101500Y0131500D03*
X0091500Y0131500D03*
X0081500Y0131500D03*
X0071500Y0131500D03*
X0066500Y0121500D03*
X0071500Y0106500D03*
X0076500Y0106500D03*
X0083500Y0102500D03*
X0089000Y0111000D03*
X0095500Y0116000D03*
X0103000Y0113000D03*
X0108000Y0119500D03*
X0065500Y0096500D03*
X0089000Y0076500D03*
X0086500Y0066500D03*
X0066500Y0066500D03*
X0066500Y0021500D03*
X0066500Y0011500D03*
X0081500Y0011500D03*
X0081500Y0021500D03*
D15*
X0070282Y0032454D02*
X0111060Y0032454D01*
X0110893Y0032683D02*
X0111291Y0032136D01*
X0111770Y0031657D01*
X0112317Y0031259D01*
X0112920Y0030952D01*
X0113023Y0030919D01*
X0112135Y0030551D01*
X0110926Y0029341D01*
X0110271Y0027761D01*
X0110271Y0026050D01*
X0110926Y0024470D01*
X0112135Y0023260D01*
X0113716Y0022606D01*
X0115426Y0022606D01*
X0115839Y0022777D01*
X0116372Y0022244D01*
X0117244Y0021372D01*
X0118383Y0020900D01*
X0125547Y0020900D01*
X0124967Y0020319D01*
X0123780Y0017453D01*
X0123780Y0014350D01*
X0124967Y0011484D01*
X0127161Y0009290D01*
X0130027Y0008102D01*
X0133130Y0008102D01*
X0135997Y0009290D01*
X0138191Y0011484D01*
X0139378Y0014350D01*
X0139378Y0017453D01*
X0138191Y0020319D01*
X0135997Y0022513D01*
X0133130Y0023701D01*
X0132585Y0023701D01*
X0135756Y0026872D01*
X0136628Y0027744D01*
X0137100Y0028883D01*
X0137100Y0048117D01*
X0136628Y0049256D01*
X0131100Y0054784D01*
X0131100Y0057117D01*
X0130692Y0058102D01*
X0133130Y0058102D01*
X0135997Y0059290D01*
X0138191Y0061484D01*
X0139378Y0064350D01*
X0139378Y0067453D01*
X0138191Y0070319D01*
X0136506Y0072004D01*
X0138191Y0073688D01*
X0139378Y0076555D01*
X0139378Y0079658D01*
X0138191Y0082524D01*
X0135997Y0084718D01*
X0133130Y0085905D01*
X0130159Y0085905D01*
X0131339Y0087455D01*
X0131628Y0087744D01*
X0131710Y0087942D01*
X0131840Y0088112D01*
X0131944Y0088506D01*
X0132100Y0088883D01*
X0132100Y0089097D01*
X0132155Y0089304D01*
X0132100Y0089709D01*
X0132100Y0097617D01*
X0131628Y0098756D01*
X0126599Y0103786D01*
X0125459Y0104257D01*
X0124560Y0104257D01*
X0124014Y0104803D01*
X0123275Y0105109D01*
X0123832Y0105393D01*
X0124380Y0105791D01*
X0124859Y0106270D01*
X0125256Y0106817D01*
X0125564Y0107420D01*
X0125773Y0108064D01*
X0125871Y0108685D01*
X0121965Y0108685D01*
X0121965Y0109457D01*
X0125871Y0109457D01*
X0125773Y0110078D01*
X0125564Y0110721D01*
X0125256Y0111325D01*
X0124859Y0111872D01*
X0124380Y0112351D01*
X0123832Y0112749D01*
X0123229Y0113056D01*
X0123127Y0113089D01*
X0124014Y0113457D01*
X0125224Y0114667D01*
X0125879Y0116247D01*
X0125879Y0117958D01*
X0125224Y0119538D01*
X0124014Y0120748D01*
X0122434Y0121402D01*
X0120723Y0121402D01*
X0120288Y0121222D01*
X0120010Y0121500D01*
X0110501Y0121500D01*
X0109803Y0122198D01*
X0108633Y0122683D01*
X0107367Y0122683D01*
X0106197Y0122198D01*
X0105302Y0121303D01*
X0104817Y0120133D01*
X0104817Y0118867D01*
X0105302Y0117697D01*
X0106197Y0116802D01*
X0107367Y0116317D01*
X0108633Y0116317D01*
X0109803Y0116802D01*
X0110501Y0117500D01*
X0117279Y0117500D01*
X0117279Y0116460D01*
X0117007Y0116732D01*
X0115426Y0117387D01*
X0113716Y0117387D01*
X0112135Y0116732D01*
X0110926Y0115522D01*
X0110745Y0115087D01*
X0105414Y0115087D01*
X0104803Y0115698D01*
X0103633Y0116183D01*
X0102367Y0116183D01*
X0101197Y0115698D01*
X0100302Y0114803D01*
X0099817Y0113633D01*
X0099817Y0112367D01*
X0100302Y0111197D01*
X0101197Y0110302D01*
X0102367Y0109817D01*
X0103633Y0109817D01*
X0104803Y0110302D01*
X0105588Y0111087D01*
X0110745Y0111087D01*
X0110926Y0110651D01*
X0112135Y0109441D01*
X0113029Y0109071D01*
X0112135Y0108700D01*
X0111590Y0108155D01*
X0101229Y0108155D01*
X0096440Y0112944D01*
X0097303Y0113302D01*
X0098198Y0114197D01*
X0098683Y0115367D01*
X0098683Y0116633D01*
X0098198Y0117803D01*
X0097303Y0118698D01*
X0096133Y0119183D01*
X0094867Y0119183D01*
X0094667Y0119100D01*
X0068601Y0119100D01*
X0069198Y0119697D01*
X0069683Y0120867D01*
X0069683Y0122133D01*
X0069198Y0123303D01*
X0068303Y0124198D01*
X0067133Y0124683D01*
X0065867Y0124683D01*
X0065667Y0124600D01*
X0039837Y0124600D01*
X0039363Y0124796D01*
X0037653Y0124796D01*
X0036072Y0124141D01*
X0034863Y0122932D01*
X0034208Y0121351D01*
X0034208Y0119828D01*
X0033754Y0120158D01*
X0033151Y0120465D01*
X0032507Y0120674D01*
X0031886Y0120773D01*
X0031886Y0116866D01*
X0035792Y0116866D01*
X0035743Y0117180D01*
X0036072Y0116851D01*
X0036960Y0116483D01*
X0036857Y0116450D01*
X0036254Y0116142D01*
X0035741Y0115769D01*
X0035792Y0116094D01*
X0031886Y0116094D01*
X0031886Y0116866D01*
X0031114Y0116866D01*
X0031114Y0116094D01*
X0027208Y0116094D01*
X0027306Y0115473D01*
X0027515Y0114830D01*
X0027822Y0114227D01*
X0028220Y0113679D01*
X0028699Y0113200D01*
X0029246Y0112803D01*
X0029849Y0112495D01*
X0029952Y0112462D01*
X0029064Y0112094D01*
X0027855Y0110885D01*
X0027200Y0109304D01*
X0027200Y0107593D01*
X0027855Y0106013D01*
X0029064Y0104803D01*
X0029804Y0104497D01*
X0029246Y0104213D01*
X0028699Y0103815D01*
X0028220Y0103337D01*
X0027822Y0102789D01*
X0027515Y0102186D01*
X0027306Y0101542D01*
X0027208Y0100921D01*
X0031114Y0100921D01*
X0031114Y0100150D01*
X0027208Y0100150D01*
X0027306Y0099529D01*
X0027515Y0098885D01*
X0027822Y0098282D01*
X0028220Y0097734D01*
X0028699Y0097256D01*
X0029246Y0096858D01*
X0029849Y0096550D01*
X0029952Y0096517D01*
X0029064Y0096149D01*
X0027855Y0094940D01*
X0027200Y0093359D01*
X0027200Y0091649D01*
X0027855Y0090068D01*
X0029064Y0088859D01*
X0030645Y0088204D01*
X0032355Y0088204D01*
X0032500Y0088264D01*
X0032500Y0063541D01*
X0029299Y0060340D01*
X0029299Y0063051D01*
X0028112Y0065918D01*
X0025918Y0068112D01*
X0023051Y0069299D01*
X0019949Y0069299D01*
X0017082Y0068112D01*
X0014888Y0065918D01*
X0013701Y0063051D01*
X0013701Y0059949D01*
X0014888Y0057082D01*
X0017082Y0054888D01*
X0019949Y0053701D01*
X0022660Y0053701D01*
X0016500Y0047541D01*
X0016500Y0026672D01*
X0017672Y0025500D01*
X0022672Y0020500D01*
X0024328Y0020500D01*
X0024332Y0020504D01*
X0027674Y0020504D01*
X0027855Y0020068D01*
X0029064Y0018859D01*
X0030645Y0018204D01*
X0032355Y0018204D01*
X0033936Y0018859D01*
X0034577Y0019500D01*
X0057328Y0019500D01*
X0075828Y0038000D01*
X0077000Y0039172D01*
X0077000Y0042000D01*
X0080427Y0042000D01*
X0082081Y0042685D01*
X0083346Y0043951D01*
X0084031Y0045605D01*
X0084031Y0047395D01*
X0083346Y0049049D01*
X0082081Y0050315D01*
X0080427Y0051000D01*
X0072636Y0051000D01*
X0071000Y0050322D01*
X0071000Y0052678D01*
X0072636Y0052000D01*
X0080427Y0052000D01*
X0082081Y0052685D01*
X0083346Y0053951D01*
X0084031Y0055605D01*
X0084031Y0057395D01*
X0083346Y0059049D01*
X0082081Y0060315D01*
X0080427Y0061000D01*
X0072636Y0061000D01*
X0070982Y0060315D01*
X0069717Y0059049D01*
X0069031Y0057395D01*
X0069031Y0056860D01*
X0067000Y0054828D01*
X0067000Y0038828D01*
X0056672Y0028500D01*
X0042342Y0028500D01*
X0042153Y0028955D01*
X0040944Y0030165D01*
X0040049Y0030535D01*
X0040944Y0030906D01*
X0041489Y0031451D01*
X0054668Y0031451D01*
X0055807Y0031923D01*
X0061756Y0037872D01*
X0062628Y0038744D01*
X0063100Y0039883D01*
X0063100Y0065216D01*
X0070776Y0072892D01*
X0070982Y0072685D01*
X0072636Y0072000D01*
X0080427Y0072000D01*
X0082081Y0072685D01*
X0082795Y0073400D01*
X0088167Y0073400D01*
X0088367Y0073317D01*
X0089633Y0073317D01*
X0089750Y0073366D01*
X0090400Y0072716D01*
X0090400Y0058883D01*
X0090872Y0057744D01*
X0104933Y0043683D01*
X0104367Y0043683D01*
X0103197Y0043198D01*
X0102302Y0042303D01*
X0101817Y0041133D01*
X0101817Y0039867D01*
X0102302Y0038697D01*
X0103197Y0037802D01*
X0104367Y0037317D01*
X0105354Y0037317D01*
X0105719Y0036953D01*
X0110772Y0036953D01*
X0110586Y0036588D01*
X0110377Y0035944D01*
X0110278Y0035323D01*
X0114185Y0035323D01*
X0114185Y0034551D01*
X0110278Y0034551D01*
X0110377Y0033930D01*
X0110586Y0033286D01*
X0110893Y0032683D01*
X0110532Y0033452D02*
X0071281Y0033452D01*
X0072279Y0034451D02*
X0110294Y0034451D01*
X0110298Y0035449D02*
X0073278Y0035449D01*
X0074276Y0036448D02*
X0110541Y0036448D01*
X0114957Y0035323D02*
X0118863Y0035323D01*
X0118814Y0035637D01*
X0119143Y0035307D01*
X0120031Y0034940D01*
X0119928Y0034906D01*
X0119325Y0034599D01*
X0118812Y0034226D01*
X0118863Y0034551D01*
X0114957Y0034551D01*
X0114957Y0035323D01*
X0118843Y0035449D02*
X0119001Y0035449D01*
X0119121Y0034451D02*
X0118847Y0034451D01*
X0117338Y0031632D02*
X0117286Y0031307D01*
X0121193Y0031307D01*
X0121193Y0030535D01*
X0117286Y0030535D01*
X0117336Y0030221D01*
X0117007Y0030551D01*
X0116119Y0030919D01*
X0116221Y0030952D01*
X0116825Y0031259D01*
X0117338Y0031632D01*
X0117310Y0031455D02*
X0117094Y0031455D01*
X0117101Y0030457D02*
X0117299Y0030457D01*
X0121965Y0030535D02*
X0121965Y0031307D01*
X0125871Y0031307D01*
X0125773Y0031928D01*
X0125564Y0032572D01*
X0125256Y0033175D01*
X0124859Y0033723D01*
X0124380Y0034201D01*
X0123832Y0034599D01*
X0123229Y0034906D01*
X0123127Y0034940D01*
X0124014Y0035307D01*
X0125224Y0036517D01*
X0125879Y0038097D01*
X0125879Y0039808D01*
X0125224Y0041389D01*
X0124014Y0042598D01*
X0123275Y0042904D01*
X0123832Y0043188D01*
X0124380Y0043586D01*
X0124859Y0044065D01*
X0125256Y0044612D01*
X0125564Y0045216D01*
X0125773Y0045859D01*
X0125871Y0046480D01*
X0121965Y0046480D01*
X0121965Y0047252D01*
X0125871Y0047252D01*
X0125773Y0047873D01*
X0125564Y0048517D01*
X0125256Y0049120D01*
X0124859Y0049667D01*
X0124380Y0050146D01*
X0123832Y0050544D01*
X0123229Y0050851D01*
X0123127Y0050884D01*
X0124014Y0051252D01*
X0125118Y0052356D01*
X0125372Y0051744D01*
X0126244Y0050872D01*
X0130900Y0046216D01*
X0130900Y0030784D01*
X0128716Y0028600D01*
X0125883Y0028600D01*
X0124916Y0028199D01*
X0125256Y0028668D01*
X0125564Y0029271D01*
X0125773Y0029914D01*
X0125871Y0030535D01*
X0121965Y0030535D01*
X0125105Y0028460D02*
X0125545Y0028460D01*
X0125625Y0029458D02*
X0129574Y0029458D01*
X0130573Y0030457D02*
X0125859Y0030457D01*
X0125848Y0031455D02*
X0130900Y0031455D01*
X0130900Y0032454D02*
X0125602Y0032454D01*
X0125055Y0033452D02*
X0130900Y0033452D01*
X0130900Y0034451D02*
X0124036Y0034451D01*
X0124156Y0035449D02*
X0130900Y0035449D01*
X0130900Y0036448D02*
X0125155Y0036448D01*
X0125609Y0037446D02*
X0130900Y0037446D01*
X0130900Y0038445D02*
X0125879Y0038445D01*
X0125879Y0039443D02*
X0130900Y0039443D01*
X0130900Y0040442D02*
X0125616Y0040442D01*
X0125172Y0041440D02*
X0130900Y0041440D01*
X0130900Y0042439D02*
X0124174Y0042439D01*
X0124175Y0043437D02*
X0130900Y0043437D01*
X0130900Y0044436D02*
X0125128Y0044436D01*
X0125635Y0045434D02*
X0130900Y0045434D01*
X0130683Y0046433D02*
X0125864Y0046433D01*
X0125843Y0047432D02*
X0129684Y0047432D01*
X0128686Y0048430D02*
X0125592Y0048430D01*
X0125032Y0049429D02*
X0127687Y0049429D01*
X0126689Y0050427D02*
X0123993Y0050427D01*
X0124188Y0051426D02*
X0125690Y0051426D01*
X0121579Y0054898D02*
X0121579Y0054921D01*
X0118079Y0054921D01*
X0112000Y0061000D01*
X0108000Y0065000D01*
X0108000Y0074500D01*
X0104500Y0073000D02*
X0103000Y0074500D01*
X0104500Y0073000D02*
X0104500Y0061000D01*
X0114571Y0050929D01*
X0114571Y0050882D01*
X0116112Y0046866D02*
X0117007Y0047237D01*
X0117336Y0047566D01*
X0117286Y0047252D01*
X0121193Y0047252D01*
X0121193Y0046480D01*
X0117286Y0046480D01*
X0117336Y0046166D01*
X0117007Y0046496D01*
X0116112Y0046866D01*
X0117069Y0046433D02*
X0117294Y0046433D01*
X0117315Y0047432D02*
X0117202Y0047432D01*
X0116189Y0038953D02*
X0106547Y0038953D01*
X0105000Y0040500D01*
X0103775Y0043437D02*
X0082833Y0043437D01*
X0083547Y0044436D02*
X0104180Y0044436D01*
X0103181Y0045434D02*
X0083961Y0045434D01*
X0084031Y0046433D02*
X0102183Y0046433D01*
X0101184Y0047432D02*
X0084016Y0047432D01*
X0083603Y0048430D02*
X0100186Y0048430D01*
X0099187Y0049429D02*
X0082967Y0049429D01*
X0081810Y0050427D02*
X0098189Y0050427D01*
X0097190Y0051426D02*
X0071000Y0051426D01*
X0071000Y0052424D02*
X0071613Y0052424D01*
X0071253Y0050427D02*
X0071000Y0050427D01*
X0069000Y0054000D02*
X0071500Y0056500D01*
X0076531Y0056500D01*
X0081450Y0052424D02*
X0096192Y0052424D01*
X0095193Y0053423D02*
X0082818Y0053423D01*
X0083541Y0054421D02*
X0094195Y0054421D01*
X0093196Y0055420D02*
X0083955Y0055420D01*
X0084031Y0056418D02*
X0092198Y0056418D01*
X0091199Y0057417D02*
X0084023Y0057417D01*
X0083609Y0058415D02*
X0090594Y0058415D01*
X0090400Y0059414D02*
X0082982Y0059414D01*
X0081846Y0060412D02*
X0090400Y0060412D01*
X0090400Y0061411D02*
X0063100Y0061411D01*
X0063100Y0062409D02*
X0071648Y0062409D01*
X0071804Y0062330D02*
X0072478Y0062111D01*
X0073177Y0062000D01*
X0076031Y0062000D01*
X0076031Y0066000D01*
X0069055Y0066000D01*
X0069142Y0065446D01*
X0069361Y0064773D01*
X0069683Y0064141D01*
X0070099Y0063568D01*
X0070600Y0063068D01*
X0071173Y0062651D01*
X0071804Y0062330D01*
X0070260Y0063408D02*
X0063100Y0063408D01*
X0063100Y0064406D02*
X0069548Y0064406D01*
X0069156Y0065405D02*
X0063289Y0065405D01*
X0064287Y0066403D02*
X0076031Y0066403D01*
X0076031Y0066000D02*
X0076031Y0067000D01*
X0069055Y0067000D01*
X0069142Y0067554D01*
X0069361Y0068227D01*
X0069683Y0068859D01*
X0070099Y0069432D01*
X0070600Y0069932D01*
X0071173Y0070349D01*
X0071804Y0070670D01*
X0072478Y0070889D01*
X0073177Y0071000D01*
X0076031Y0071000D01*
X0076031Y0067000D01*
X0077031Y0067000D01*
X0077031Y0071000D01*
X0079886Y0071000D01*
X0080585Y0070889D01*
X0081259Y0070670D01*
X0081890Y0070349D01*
X0082463Y0069932D01*
X0082964Y0069432D01*
X0083380Y0068859D01*
X0083702Y0068227D01*
X0083921Y0067554D01*
X0084008Y0067000D01*
X0077032Y0067000D01*
X0077032Y0066000D01*
X0084008Y0066000D01*
X0083921Y0065446D01*
X0083702Y0064773D01*
X0083380Y0064141D01*
X0082964Y0063568D01*
X0082463Y0063068D01*
X0081890Y0062651D01*
X0081259Y0062330D01*
X0080585Y0062111D01*
X0079886Y0062000D01*
X0077031Y0062000D01*
X0077031Y0066000D01*
X0076031Y0066000D01*
X0076031Y0065405D02*
X0077031Y0065405D01*
X0077032Y0066403D02*
X0090400Y0066403D01*
X0090400Y0065405D02*
X0083907Y0065405D01*
X0083515Y0064406D02*
X0090400Y0064406D01*
X0090400Y0063408D02*
X0082803Y0063408D01*
X0081415Y0062409D02*
X0090400Y0062409D01*
X0090400Y0067402D02*
X0083945Y0067402D01*
X0083614Y0068400D02*
X0090400Y0068400D01*
X0090400Y0069399D02*
X0082988Y0069399D01*
X0081795Y0070397D02*
X0090400Y0070397D01*
X0090400Y0071396D02*
X0069280Y0071396D01*
X0070278Y0072394D02*
X0071684Y0072394D01*
X0071268Y0070397D02*
X0068281Y0070397D01*
X0067283Y0069399D02*
X0070075Y0069399D01*
X0069449Y0068400D02*
X0066284Y0068400D01*
X0065286Y0067402D02*
X0069118Y0067402D01*
X0076031Y0067402D02*
X0077031Y0067402D01*
X0077031Y0068400D02*
X0076031Y0068400D01*
X0076031Y0069399D02*
X0077031Y0069399D01*
X0077031Y0070397D02*
X0076031Y0070397D01*
X0081379Y0072394D02*
X0090400Y0072394D01*
X0088185Y0073393D02*
X0082788Y0073393D01*
X0077031Y0064406D02*
X0076031Y0064406D01*
X0076031Y0063408D02*
X0077031Y0063408D01*
X0077031Y0062409D02*
X0076031Y0062409D01*
X0071217Y0060412D02*
X0063100Y0060412D01*
X0063100Y0059414D02*
X0070081Y0059414D01*
X0069454Y0058415D02*
X0063100Y0058415D01*
X0063100Y0057417D02*
X0069040Y0057417D01*
X0068590Y0056418D02*
X0063100Y0056418D01*
X0063100Y0055420D02*
X0067591Y0055420D01*
X0067000Y0054421D02*
X0063100Y0054421D01*
X0063100Y0053423D02*
X0067000Y0053423D01*
X0067000Y0052424D02*
X0063100Y0052424D01*
X0063100Y0051426D02*
X0067000Y0051426D01*
X0067000Y0050427D02*
X0063100Y0050427D01*
X0063100Y0049429D02*
X0067000Y0049429D01*
X0067000Y0048430D02*
X0063100Y0048430D01*
X0063100Y0047432D02*
X0067000Y0047432D01*
X0067000Y0046433D02*
X0063100Y0046433D01*
X0063100Y0045434D02*
X0067000Y0045434D01*
X0067000Y0044436D02*
X0063100Y0044436D01*
X0063100Y0043437D02*
X0067000Y0043437D01*
X0067000Y0042439D02*
X0063100Y0042439D01*
X0063100Y0041440D02*
X0067000Y0041440D01*
X0067000Y0040442D02*
X0063100Y0040442D01*
X0062918Y0039443D02*
X0067000Y0039443D01*
X0066616Y0038445D02*
X0062329Y0038445D01*
X0061330Y0037446D02*
X0065618Y0037446D01*
X0064619Y0036448D02*
X0060332Y0036448D01*
X0059333Y0035449D02*
X0063621Y0035449D01*
X0062622Y0034451D02*
X0058335Y0034451D01*
X0057336Y0033452D02*
X0061624Y0033452D01*
X0060625Y0032454D02*
X0056338Y0032454D01*
X0054678Y0031455D02*
X0059627Y0031455D01*
X0058628Y0030457D02*
X0040239Y0030457D01*
X0041650Y0029458D02*
X0057630Y0029458D01*
X0057500Y0026500D02*
X0069000Y0038000D01*
X0069000Y0054000D01*
X0075000Y0046500D02*
X0075000Y0040000D01*
X0056500Y0021500D01*
X0032504Y0021500D01*
X0031500Y0022504D01*
X0023504Y0022504D01*
X0023500Y0022500D01*
X0018500Y0027500D01*
X0018500Y0046713D01*
X0034500Y0062713D01*
X0034500Y0089504D01*
X0031500Y0092504D01*
X0028554Y0089369D02*
X0003000Y0089369D01*
X0003000Y0088370D02*
X0017707Y0088370D01*
X0017082Y0088112D02*
X0014888Y0085918D01*
X0013701Y0083051D01*
X0013701Y0079949D01*
X0014888Y0077082D01*
X0017082Y0074888D01*
X0019949Y0073701D01*
X0023051Y0073701D01*
X0025918Y0074888D01*
X0028112Y0077082D01*
X0029299Y0079949D01*
X0029299Y0083051D01*
X0028112Y0085918D01*
X0025918Y0088112D01*
X0023051Y0089299D01*
X0019949Y0089299D01*
X0017082Y0088112D01*
X0016342Y0087372D02*
X0003000Y0087372D01*
X0003000Y0086373D02*
X0015344Y0086373D01*
X0014663Y0085375D02*
X0003000Y0085375D01*
X0003000Y0084376D02*
X0014250Y0084376D01*
X0013836Y0083378D02*
X0003000Y0083378D01*
X0003000Y0082379D02*
X0013701Y0082379D01*
X0013701Y0081381D02*
X0003000Y0081381D01*
X0003000Y0080382D02*
X0013701Y0080382D01*
X0013935Y0079384D02*
X0003000Y0079384D01*
X0003000Y0078385D02*
X0014348Y0078385D01*
X0014762Y0077387D02*
X0003000Y0077387D01*
X0003000Y0076388D02*
X0015582Y0076388D01*
X0016580Y0075390D02*
X0003000Y0075390D01*
X0003000Y0074391D02*
X0018282Y0074391D01*
X0017778Y0068400D02*
X0003000Y0068400D01*
X0003000Y0067402D02*
X0016372Y0067402D01*
X0015373Y0066403D02*
X0003000Y0066403D01*
X0003000Y0065405D02*
X0014676Y0065405D01*
X0014262Y0064406D02*
X0003000Y0064406D01*
X0003000Y0063408D02*
X0013848Y0063408D01*
X0013701Y0062409D02*
X0003000Y0062409D01*
X0003000Y0061411D02*
X0013701Y0061411D01*
X0013701Y0060412D02*
X0003000Y0060412D01*
X0003000Y0059414D02*
X0013922Y0059414D01*
X0014336Y0058415D02*
X0003000Y0058415D01*
X0003000Y0057417D02*
X0014750Y0057417D01*
X0015552Y0056418D02*
X0003000Y0056418D01*
X0003000Y0055420D02*
X0016551Y0055420D01*
X0018210Y0054421D02*
X0003000Y0054421D01*
X0003000Y0053423D02*
X0022382Y0053423D01*
X0021383Y0052424D02*
X0003000Y0052424D01*
X0003000Y0051426D02*
X0020385Y0051426D01*
X0019386Y0050427D02*
X0003000Y0050427D01*
X0003000Y0049429D02*
X0018388Y0049429D01*
X0017389Y0048430D02*
X0003000Y0048430D01*
X0003000Y0047432D02*
X0016500Y0047432D01*
X0016500Y0046433D02*
X0003000Y0046433D01*
X0003000Y0045434D02*
X0016500Y0045434D01*
X0016500Y0044436D02*
X0003000Y0044436D01*
X0003000Y0043437D02*
X0016500Y0043437D01*
X0016500Y0042439D02*
X0003000Y0042439D01*
X0003000Y0041440D02*
X0016500Y0041440D01*
X0016500Y0040442D02*
X0003000Y0040442D01*
X0003000Y0039443D02*
X0016500Y0039443D01*
X0016500Y0038445D02*
X0003000Y0038445D01*
X0003000Y0037446D02*
X0016500Y0037446D01*
X0016500Y0036448D02*
X0003000Y0036448D01*
X0003000Y0035449D02*
X0016500Y0035449D01*
X0016500Y0034451D02*
X0003000Y0034451D01*
X0003000Y0033452D02*
X0016500Y0033452D01*
X0016500Y0032454D02*
X0003000Y0032454D01*
X0003000Y0031455D02*
X0016500Y0031455D01*
X0016500Y0030457D02*
X0003000Y0030457D01*
X0003000Y0029458D02*
X0016500Y0029458D01*
X0016500Y0028460D02*
X0003000Y0028460D01*
X0003000Y0027461D02*
X0016500Y0027461D01*
X0016709Y0026463D02*
X0003000Y0026463D01*
X0003000Y0025464D02*
X0017707Y0025464D01*
X0017672Y0025500D02*
X0017672Y0025500D01*
X0018706Y0024466D02*
X0003000Y0024466D01*
X0003000Y0023467D02*
X0019704Y0023467D01*
X0020703Y0022469D02*
X0003000Y0022469D01*
X0003000Y0021470D02*
X0021701Y0021470D01*
X0023051Y0019299D02*
X0019949Y0019299D01*
X0017082Y0018112D01*
X0014888Y0015918D01*
X0013701Y0013051D01*
X0013701Y0009949D01*
X0014888Y0007082D01*
X0017082Y0004888D01*
X0019949Y0003701D01*
X0023051Y0003701D01*
X0025918Y0004888D01*
X0028112Y0007082D01*
X0029299Y0009949D01*
X0029299Y0013051D01*
X0028112Y0015918D01*
X0025918Y0018112D01*
X0023051Y0019299D01*
X0025042Y0018475D02*
X0029991Y0018475D01*
X0028450Y0019473D02*
X0003000Y0019473D01*
X0003000Y0018475D02*
X0017958Y0018475D01*
X0016446Y0017476D02*
X0003000Y0017476D01*
X0003000Y0016478D02*
X0015448Y0016478D01*
X0014706Y0015479D02*
X0003000Y0015479D01*
X0003000Y0014481D02*
X0014293Y0014481D01*
X0013879Y0013482D02*
X0003000Y0013482D01*
X0003000Y0012484D02*
X0013701Y0012484D01*
X0013701Y0011485D02*
X0003000Y0011485D01*
X0003000Y0010487D02*
X0013701Y0010487D01*
X0013892Y0009488D02*
X0003000Y0009488D01*
X0003000Y0008490D02*
X0014305Y0008490D01*
X0014719Y0007491D02*
X0003000Y0007491D01*
X0003000Y0006493D02*
X0015478Y0006493D01*
X0016476Y0005494D02*
X0003000Y0005494D01*
X0003000Y0004496D02*
X0018030Y0004496D01*
X0024970Y0004496D02*
X0149606Y0004496D01*
X0149606Y0005494D02*
X0026524Y0005494D01*
X0027522Y0006493D02*
X0149606Y0006493D01*
X0149606Y0007491D02*
X0028281Y0007491D01*
X0028695Y0008490D02*
X0129093Y0008490D01*
X0126962Y0009488D02*
X0029108Y0009488D01*
X0029299Y0010487D02*
X0125964Y0010487D01*
X0124966Y0011485D02*
X0029299Y0011485D01*
X0029299Y0012484D02*
X0124553Y0012484D01*
X0124139Y0013482D02*
X0029121Y0013482D01*
X0028707Y0014481D02*
X0123780Y0014481D01*
X0123780Y0015479D02*
X0028294Y0015479D01*
X0027552Y0016478D02*
X0123780Y0016478D01*
X0123789Y0017476D02*
X0026554Y0017476D01*
X0027687Y0020472D02*
X0003000Y0020472D01*
X0003000Y0003497D02*
X0149606Y0003497D01*
X0149606Y0003000D02*
X0003000Y0003000D01*
X0003000Y0140157D01*
X0149606Y0140157D01*
X0149606Y0003000D01*
X0149606Y0008490D02*
X0134065Y0008490D01*
X0136195Y0009488D02*
X0149606Y0009488D01*
X0149606Y0010487D02*
X0137194Y0010487D01*
X0138191Y0011485D02*
X0149606Y0011485D01*
X0149606Y0012484D02*
X0138605Y0012484D01*
X0139018Y0013482D02*
X0149606Y0013482D01*
X0149606Y0014481D02*
X0139378Y0014481D01*
X0139378Y0015479D02*
X0149606Y0015479D01*
X0149606Y0016478D02*
X0139378Y0016478D01*
X0139368Y0017476D02*
X0149606Y0017476D01*
X0149606Y0018475D02*
X0138955Y0018475D01*
X0138541Y0019473D02*
X0149606Y0019473D01*
X0149606Y0020472D02*
X0138038Y0020472D01*
X0137040Y0021470D02*
X0149606Y0021470D01*
X0149606Y0022469D02*
X0136041Y0022469D01*
X0133694Y0023467D02*
X0149606Y0023467D01*
X0149606Y0024466D02*
X0133350Y0024466D01*
X0134348Y0025464D02*
X0149606Y0025464D01*
X0149606Y0026463D02*
X0135347Y0026463D01*
X0136345Y0027461D02*
X0149606Y0027461D01*
X0149606Y0028460D02*
X0136925Y0028460D01*
X0137100Y0029458D02*
X0149606Y0029458D01*
X0149606Y0030457D02*
X0137100Y0030457D01*
X0137100Y0031455D02*
X0149606Y0031455D01*
X0149606Y0032454D02*
X0137100Y0032454D01*
X0137100Y0033452D02*
X0149606Y0033452D01*
X0149606Y0034451D02*
X0137100Y0034451D01*
X0137100Y0035449D02*
X0149606Y0035449D01*
X0149606Y0036448D02*
X0137100Y0036448D01*
X0137100Y0037446D02*
X0149606Y0037446D01*
X0149606Y0038445D02*
X0137100Y0038445D01*
X0137100Y0039443D02*
X0149606Y0039443D01*
X0149606Y0040442D02*
X0137100Y0040442D01*
X0137100Y0041440D02*
X0149606Y0041440D01*
X0149606Y0042439D02*
X0137100Y0042439D01*
X0137100Y0043437D02*
X0149606Y0043437D01*
X0149606Y0044436D02*
X0137100Y0044436D01*
X0137100Y0045434D02*
X0149606Y0045434D01*
X0149606Y0046433D02*
X0137100Y0046433D01*
X0137100Y0047432D02*
X0149606Y0047432D01*
X0149606Y0048430D02*
X0136970Y0048430D01*
X0136455Y0049429D02*
X0149606Y0049429D01*
X0149606Y0050427D02*
X0135457Y0050427D01*
X0134458Y0051426D02*
X0149606Y0051426D01*
X0149606Y0052424D02*
X0133460Y0052424D01*
X0132461Y0053423D02*
X0149606Y0053423D01*
X0149606Y0054421D02*
X0131463Y0054421D01*
X0131100Y0055420D02*
X0149606Y0055420D01*
X0149606Y0056418D02*
X0131100Y0056418D01*
X0130976Y0057417D02*
X0149606Y0057417D01*
X0149606Y0058415D02*
X0133885Y0058415D01*
X0136121Y0059414D02*
X0149606Y0059414D01*
X0149606Y0060412D02*
X0137119Y0060412D01*
X0138118Y0061411D02*
X0149606Y0061411D01*
X0149606Y0062409D02*
X0138574Y0062409D01*
X0138988Y0063408D02*
X0149606Y0063408D01*
X0149606Y0064406D02*
X0139378Y0064406D01*
X0139378Y0065405D02*
X0149606Y0065405D01*
X0149606Y0066403D02*
X0139378Y0066403D01*
X0139378Y0067402D02*
X0149606Y0067402D01*
X0149606Y0068400D02*
X0138986Y0068400D01*
X0138572Y0069399D02*
X0149606Y0069399D01*
X0149606Y0070397D02*
X0138113Y0070397D01*
X0137114Y0071396D02*
X0149606Y0071396D01*
X0149606Y0072394D02*
X0136896Y0072394D01*
X0137895Y0073393D02*
X0149606Y0073393D01*
X0149606Y0074391D02*
X0138482Y0074391D01*
X0138895Y0075390D02*
X0149606Y0075390D01*
X0149606Y0076388D02*
X0139309Y0076388D01*
X0139378Y0077387D02*
X0149606Y0077387D01*
X0149606Y0078385D02*
X0139378Y0078385D01*
X0139378Y0079384D02*
X0149606Y0079384D01*
X0149606Y0080382D02*
X0139078Y0080382D01*
X0138664Y0081381D02*
X0149606Y0081381D01*
X0149606Y0082379D02*
X0138251Y0082379D01*
X0137337Y0083378D02*
X0149606Y0083378D01*
X0149606Y0084376D02*
X0136338Y0084376D01*
X0134411Y0085375D02*
X0149606Y0085375D01*
X0149606Y0086373D02*
X0130515Y0086373D01*
X0131276Y0087372D02*
X0149606Y0087372D01*
X0149606Y0088370D02*
X0131908Y0088370D01*
X0132146Y0089369D02*
X0149606Y0089369D01*
X0149606Y0090368D02*
X0132100Y0090368D01*
X0132100Y0091366D02*
X0149606Y0091366D01*
X0149606Y0092365D02*
X0132100Y0092365D01*
X0132100Y0093363D02*
X0149606Y0093363D01*
X0149606Y0094362D02*
X0132100Y0094362D01*
X0132100Y0095360D02*
X0149606Y0095360D01*
X0149606Y0096359D02*
X0132100Y0096359D01*
X0132100Y0097357D02*
X0149606Y0097357D01*
X0149606Y0098356D02*
X0131794Y0098356D01*
X0131030Y0099354D02*
X0149606Y0099354D01*
X0149606Y0100353D02*
X0130031Y0100353D01*
X0129033Y0101351D02*
X0149606Y0101351D01*
X0149606Y0102350D02*
X0128034Y0102350D01*
X0127036Y0103348D02*
X0149606Y0103348D01*
X0149606Y0104347D02*
X0124471Y0104347D01*
X0123738Y0105345D02*
X0149606Y0105345D01*
X0149606Y0106344D02*
X0124912Y0106344D01*
X0125524Y0107342D02*
X0149606Y0107342D01*
X0149606Y0108341D02*
X0125817Y0108341D01*
X0125688Y0110338D02*
X0149606Y0110338D01*
X0149606Y0111336D02*
X0125248Y0111336D01*
X0124396Y0112335D02*
X0149606Y0112335D01*
X0149606Y0113333D02*
X0123716Y0113333D01*
X0124889Y0114332D02*
X0149606Y0114332D01*
X0149606Y0115330D02*
X0125499Y0115330D01*
X0125879Y0116329D02*
X0149606Y0116329D01*
X0149606Y0117327D02*
X0125879Y0117327D01*
X0125726Y0118326D02*
X0149606Y0118326D01*
X0149606Y0119324D02*
X0125313Y0119324D01*
X0124439Y0120323D02*
X0129989Y0120323D01*
X0130027Y0120307D02*
X0133130Y0120307D01*
X0135997Y0121494D01*
X0138191Y0123688D01*
X0139378Y0126555D01*
X0139378Y0129658D01*
X0138191Y0132524D01*
X0135997Y0134718D01*
X0133130Y0135905D01*
X0130027Y0135905D01*
X0127161Y0134718D01*
X0124967Y0132524D01*
X0123780Y0129658D01*
X0123780Y0126555D01*
X0124967Y0123688D01*
X0127161Y0121494D01*
X0130027Y0120307D01*
X0127579Y0121321D02*
X0122630Y0121321D01*
X0120528Y0121321D02*
X0120188Y0121321D01*
X0119181Y0119500D02*
X0121579Y0117102D01*
X0119181Y0119500D02*
X0108000Y0119500D01*
X0105672Y0117327D02*
X0098395Y0117327D01*
X0098683Y0116329D02*
X0107339Y0116329D01*
X0108661Y0116329D02*
X0111732Y0116329D01*
X0110846Y0115330D02*
X0105171Y0115330D01*
X0103087Y0113087D02*
X0114571Y0113087D01*
X0111239Y0110338D02*
X0104839Y0110338D01*
X0103000Y0113000D02*
X0103087Y0113087D01*
X0100829Y0115330D02*
X0098667Y0115330D01*
X0098254Y0114332D02*
X0100107Y0114332D01*
X0099817Y0113333D02*
X0097334Y0113333D01*
X0097049Y0112335D02*
X0099831Y0112335D01*
X0100244Y0111336D02*
X0098048Y0111336D01*
X0099046Y0110338D02*
X0101161Y0110338D01*
X0100045Y0109339D02*
X0112381Y0109339D01*
X0111775Y0108341D02*
X0101043Y0108341D01*
X0097268Y0103348D02*
X0056232Y0103348D01*
X0055234Y0102350D02*
X0098376Y0102350D01*
X0098189Y0102427D02*
X0099328Y0101955D01*
X0111590Y0101955D01*
X0112135Y0101410D01*
X0112875Y0101103D01*
X0112317Y0100819D01*
X0111770Y0100422D01*
X0111291Y0099943D01*
X0110893Y0099395D01*
X0110586Y0098792D01*
X0110377Y0098149D01*
X0110278Y0097528D01*
X0114185Y0097528D01*
X0114185Y0096756D01*
X0110278Y0096756D01*
X0110377Y0096135D01*
X0110586Y0095491D01*
X0110893Y0094888D01*
X0111291Y0094340D01*
X0111770Y0093862D01*
X0112317Y0093464D01*
X0112920Y0093157D01*
X0113023Y0093123D01*
X0112135Y0092756D01*
X0111590Y0092210D01*
X0100174Y0092210D01*
X0093256Y0099128D01*
X0092117Y0099600D01*
X0082795Y0099600D01*
X0082081Y0100315D01*
X0080427Y0101000D01*
X0072636Y0101000D01*
X0070982Y0100315D01*
X0070268Y0099600D01*
X0066333Y0099600D01*
X0066133Y0099683D01*
X0064867Y0099683D01*
X0063697Y0099198D01*
X0062802Y0098303D01*
X0062719Y0098103D01*
X0044744Y0080128D01*
X0043872Y0079256D01*
X0043400Y0078117D01*
X0043400Y0059772D01*
X0038424Y0054796D01*
X0037653Y0054796D01*
X0036072Y0054141D01*
X0034863Y0052932D01*
X0034208Y0051351D01*
X0034208Y0049828D01*
X0033754Y0050158D01*
X0033151Y0050465D01*
X0032507Y0050674D01*
X0031886Y0050773D01*
X0031886Y0046866D01*
X0035792Y0046866D01*
X0035743Y0047180D01*
X0036072Y0046851D01*
X0036960Y0046483D01*
X0036857Y0046450D01*
X0036254Y0046142D01*
X0035741Y0045769D01*
X0035792Y0046094D01*
X0031886Y0046094D01*
X0031886Y0046866D01*
X0031114Y0046866D01*
X0031114Y0046094D01*
X0027208Y0046094D01*
X0027306Y0045473D01*
X0027515Y0044830D01*
X0027822Y0044227D01*
X0028220Y0043679D01*
X0028699Y0043200D01*
X0029246Y0042803D01*
X0029849Y0042495D01*
X0029952Y0042462D01*
X0029064Y0042094D01*
X0027855Y0040885D01*
X0027200Y0039304D01*
X0027200Y0037593D01*
X0027855Y0036013D01*
X0029064Y0034803D01*
X0029804Y0034497D01*
X0029246Y0034213D01*
X0028699Y0033815D01*
X0028220Y0033337D01*
X0027822Y0032789D01*
X0027515Y0032186D01*
X0027306Y0031542D01*
X0027208Y0030921D01*
X0031114Y0030921D01*
X0031114Y0030150D01*
X0027208Y0030150D01*
X0027306Y0029529D01*
X0027515Y0028885D01*
X0027711Y0028500D01*
X0023828Y0028500D01*
X0023000Y0029328D01*
X0023000Y0045172D01*
X0030400Y0052572D01*
X0030400Y0052956D01*
X0039386Y0061942D01*
X0040558Y0063114D01*
X0040558Y0092715D01*
X0040944Y0092874D01*
X0042153Y0094084D01*
X0042808Y0095664D01*
X0042808Y0097375D01*
X0042153Y0098955D01*
X0040944Y0100165D01*
X0040049Y0100535D01*
X0040944Y0100906D01*
X0041438Y0101400D01*
X0053617Y0101400D01*
X0054756Y0101872D01*
X0060784Y0107900D01*
X0088167Y0107900D01*
X0088367Y0107817D01*
X0089633Y0107817D01*
X0089833Y0107900D01*
X0092716Y0107900D01*
X0097317Y0103299D01*
X0098189Y0102427D01*
X0096269Y0104347D02*
X0057231Y0104347D01*
X0058229Y0105345D02*
X0095271Y0105345D01*
X0094272Y0106344D02*
X0059228Y0106344D01*
X0060226Y0107342D02*
X0093274Y0107342D01*
X0092710Y0099354D02*
X0110872Y0099354D01*
X0110444Y0098356D02*
X0094028Y0098356D01*
X0095027Y0097357D02*
X0114185Y0097357D01*
X0114957Y0097357D02*
X0119517Y0097357D01*
X0119143Y0097512D02*
X0120031Y0097144D01*
X0119928Y0097111D01*
X0119325Y0096804D01*
X0118812Y0096431D01*
X0118863Y0096756D01*
X0114957Y0096756D01*
X0114957Y0097528D01*
X0118863Y0097528D01*
X0118814Y0097841D01*
X0119143Y0097512D01*
X0123127Y0097144D02*
X0124014Y0097512D01*
X0124059Y0097557D01*
X0125900Y0095716D01*
X0125900Y0090546D01*
X0119465Y0082100D01*
X0097784Y0082100D01*
X0091628Y0088256D01*
X0090756Y0089128D01*
X0089617Y0089600D01*
X0082795Y0089600D01*
X0082081Y0090315D01*
X0080427Y0091000D01*
X0072636Y0091000D01*
X0070982Y0090315D01*
X0069832Y0089165D01*
X0069744Y0089128D01*
X0053744Y0073128D01*
X0052872Y0072256D01*
X0052400Y0071117D01*
X0052400Y0044392D01*
X0049821Y0042100D01*
X0044383Y0042100D01*
X0043244Y0041628D01*
X0042523Y0040907D01*
X0042702Y0041458D01*
X0042800Y0042079D01*
X0038894Y0042079D01*
X0038894Y0042850D01*
X0042800Y0042850D01*
X0042702Y0043471D01*
X0042493Y0044115D01*
X0042186Y0044718D01*
X0041788Y0045266D01*
X0041309Y0045744D01*
X0040762Y0046142D01*
X0040159Y0046450D01*
X0040056Y0046483D01*
X0040944Y0046851D01*
X0042153Y0048060D01*
X0042808Y0049641D01*
X0042808Y0050412D01*
X0048256Y0055860D01*
X0049128Y0056732D01*
X0049600Y0057872D01*
X0049600Y0076216D01*
X0066784Y0093400D01*
X0070268Y0093400D01*
X0070982Y0092685D01*
X0072636Y0092000D01*
X0080427Y0092000D01*
X0082081Y0092685D01*
X0082795Y0093400D01*
X0090216Y0093400D01*
X0096262Y0087354D01*
X0097134Y0086482D01*
X0098273Y0086010D01*
X0111590Y0086010D01*
X0112135Y0085465D01*
X0113716Y0084810D01*
X0115426Y0084810D01*
X0117007Y0085465D01*
X0118216Y0086674D01*
X0118871Y0088255D01*
X0118871Y0089778D01*
X0119325Y0089448D01*
X0119928Y0089141D01*
X0120572Y0088932D01*
X0121193Y0088833D01*
X0121193Y0092740D01*
X0121965Y0092740D01*
X0121965Y0093512D01*
X0125871Y0093512D01*
X0125773Y0094133D01*
X0125564Y0094777D01*
X0125256Y0095380D01*
X0124859Y0095927D01*
X0124380Y0096406D01*
X0123832Y0096804D01*
X0123229Y0097111D01*
X0123127Y0097144D01*
X0123640Y0097357D02*
X0124259Y0097357D01*
X0124427Y0096359D02*
X0125257Y0096359D01*
X0125266Y0095360D02*
X0125900Y0095360D01*
X0125900Y0094362D02*
X0125699Y0094362D01*
X0125900Y0093363D02*
X0121965Y0093363D01*
X0121965Y0092740D02*
X0125871Y0092740D01*
X0125773Y0092119D01*
X0125564Y0091475D01*
X0125256Y0090872D01*
X0124859Y0090325D01*
X0124380Y0089846D01*
X0123832Y0089448D01*
X0123229Y0089141D01*
X0122586Y0088932D01*
X0121965Y0088833D01*
X0121965Y0092740D01*
X0121965Y0092365D02*
X0121193Y0092365D01*
X0121193Y0092740D02*
X0117286Y0092740D01*
X0117336Y0092426D01*
X0117007Y0092756D01*
X0116119Y0093123D01*
X0116221Y0093157D01*
X0116825Y0093464D01*
X0117338Y0093837D01*
X0117286Y0093512D01*
X0121193Y0093512D01*
X0121193Y0092740D01*
X0121193Y0093363D02*
X0116626Y0093363D01*
X0112515Y0093363D02*
X0099021Y0093363D01*
X0100020Y0092365D02*
X0111744Y0092365D01*
X0111276Y0094362D02*
X0098022Y0094362D01*
X0097024Y0095360D02*
X0110653Y0095360D01*
X0110341Y0096359D02*
X0096025Y0096359D01*
X0091251Y0092365D02*
X0081307Y0092365D01*
X0082759Y0093363D02*
X0090253Y0093363D01*
X0092250Y0091366D02*
X0064750Y0091366D01*
X0063752Y0090368D02*
X0071109Y0090368D01*
X0070037Y0089369D02*
X0062753Y0089369D01*
X0061755Y0088370D02*
X0068986Y0088370D01*
X0067988Y0087372D02*
X0060756Y0087372D01*
X0059758Y0086373D02*
X0066989Y0086373D01*
X0065991Y0085375D02*
X0058759Y0085375D01*
X0057760Y0084376D02*
X0064992Y0084376D01*
X0063994Y0083378D02*
X0056762Y0083378D01*
X0055763Y0082379D02*
X0062995Y0082379D01*
X0061997Y0081381D02*
X0054765Y0081381D01*
X0053766Y0080382D02*
X0060998Y0080382D01*
X0060000Y0079384D02*
X0052768Y0079384D01*
X0051769Y0078385D02*
X0059001Y0078385D01*
X0058003Y0077387D02*
X0050771Y0077387D01*
X0049772Y0076388D02*
X0057004Y0076388D01*
X0056006Y0075390D02*
X0049600Y0075390D01*
X0049600Y0074391D02*
X0055007Y0074391D01*
X0054009Y0073393D02*
X0049600Y0073393D01*
X0049600Y0072394D02*
X0053010Y0072394D01*
X0052516Y0071396D02*
X0049600Y0071396D01*
X0049600Y0070397D02*
X0052400Y0070397D01*
X0052400Y0069399D02*
X0049600Y0069399D01*
X0049600Y0068400D02*
X0052400Y0068400D01*
X0052400Y0067402D02*
X0049600Y0067402D01*
X0049600Y0066403D02*
X0052400Y0066403D01*
X0052400Y0065405D02*
X0049600Y0065405D01*
X0049600Y0064406D02*
X0052400Y0064406D01*
X0052400Y0063408D02*
X0049600Y0063408D01*
X0049600Y0062409D02*
X0052400Y0062409D01*
X0052400Y0061411D02*
X0049600Y0061411D01*
X0049600Y0060412D02*
X0052400Y0060412D01*
X0052400Y0059414D02*
X0049600Y0059414D01*
X0049600Y0058415D02*
X0052400Y0058415D01*
X0052400Y0057417D02*
X0049412Y0057417D01*
X0048814Y0056418D02*
X0052400Y0056418D01*
X0052400Y0055420D02*
X0047815Y0055420D01*
X0046817Y0054421D02*
X0052400Y0054421D01*
X0052400Y0053423D02*
X0045818Y0053423D01*
X0044820Y0052424D02*
X0052400Y0052424D01*
X0052400Y0051426D02*
X0043821Y0051426D01*
X0042823Y0050427D02*
X0052400Y0050427D01*
X0052400Y0049429D02*
X0042720Y0049429D01*
X0042306Y0048430D02*
X0052400Y0048430D01*
X0052400Y0047432D02*
X0041524Y0047432D01*
X0040191Y0046433D02*
X0052400Y0046433D01*
X0052400Y0045434D02*
X0041619Y0045434D01*
X0042329Y0044436D02*
X0052400Y0044436D01*
X0051326Y0043437D02*
X0042707Y0043437D01*
X0042696Y0041440D02*
X0043056Y0041440D01*
X0043500Y0039000D02*
X0045000Y0039000D01*
X0043500Y0039000D02*
X0043000Y0038500D01*
X0031551Y0038500D01*
X0031500Y0038449D01*
X0028411Y0041440D02*
X0023000Y0041440D01*
X0023000Y0040442D02*
X0027671Y0040442D01*
X0027258Y0039443D02*
X0023000Y0039443D01*
X0023000Y0038445D02*
X0027200Y0038445D01*
X0027261Y0037446D02*
X0023000Y0037446D01*
X0023000Y0036448D02*
X0027675Y0036448D01*
X0028418Y0035449D02*
X0023000Y0035449D01*
X0023000Y0034451D02*
X0029713Y0034451D01*
X0028336Y0033452D02*
X0023000Y0033452D01*
X0023000Y0032454D02*
X0027651Y0032454D01*
X0027292Y0031455D02*
X0023000Y0031455D01*
X0023000Y0030457D02*
X0031114Y0030457D01*
X0031500Y0030535D02*
X0044465Y0030535D01*
X0045000Y0030000D01*
X0047000Y0030000D01*
X0038528Y0026500D02*
X0057500Y0026500D01*
X0061296Y0023467D02*
X0111928Y0023467D01*
X0110929Y0024466D02*
X0062294Y0024466D01*
X0063293Y0025464D02*
X0110514Y0025464D01*
X0110271Y0026463D02*
X0064291Y0026463D01*
X0065290Y0027461D02*
X0110271Y0027461D01*
X0110560Y0028460D02*
X0066288Y0028460D01*
X0067287Y0029458D02*
X0111043Y0029458D01*
X0112041Y0030457D02*
X0068285Y0030457D01*
X0069284Y0031455D02*
X0112047Y0031455D01*
X0116186Y0038950D02*
X0116189Y0038953D01*
X0121579Y0038953D01*
X0116147Y0022469D02*
X0060297Y0022469D01*
X0059299Y0021470D02*
X0117146Y0021470D01*
X0116372Y0022244D02*
X0116372Y0022244D01*
X0124203Y0018475D02*
X0033009Y0018475D01*
X0034550Y0019473D02*
X0124616Y0019473D01*
X0125119Y0020472D02*
X0058300Y0020472D01*
X0075275Y0037446D02*
X0104055Y0037446D01*
X0102554Y0038445D02*
X0076273Y0038445D01*
X0077000Y0039443D02*
X0101993Y0039443D01*
X0101817Y0040442D02*
X0077000Y0040442D01*
X0077000Y0041440D02*
X0101945Y0041440D01*
X0102438Y0042439D02*
X0081486Y0042439D01*
X0076531Y0046500D02*
X0075000Y0046500D01*
X0050203Y0042439D02*
X0038894Y0042439D01*
X0038122Y0042439D02*
X0033103Y0042439D01*
X0033048Y0042462D02*
X0033151Y0042495D01*
X0033754Y0042803D01*
X0034267Y0043175D01*
X0034215Y0042850D01*
X0038122Y0042850D01*
X0038122Y0042079D01*
X0034215Y0042079D01*
X0034265Y0041765D01*
X0033936Y0042094D01*
X0033048Y0042462D01*
X0029897Y0042439D02*
X0023000Y0042439D01*
X0023000Y0043437D02*
X0028462Y0043437D01*
X0027716Y0044436D02*
X0023000Y0044436D01*
X0023263Y0045434D02*
X0027319Y0045434D01*
X0027208Y0046866D02*
X0031114Y0046866D01*
X0031114Y0050773D01*
X0030493Y0050674D01*
X0029849Y0050465D01*
X0029246Y0050158D01*
X0028699Y0049760D01*
X0028220Y0049282D01*
X0027822Y0048734D01*
X0027515Y0048131D01*
X0027306Y0047487D01*
X0027208Y0046866D01*
X0027297Y0047432D02*
X0025260Y0047432D01*
X0026258Y0048430D02*
X0027667Y0048430D01*
X0027257Y0049429D02*
X0028367Y0049429D01*
X0028255Y0050427D02*
X0029774Y0050427D01*
X0029254Y0051426D02*
X0034239Y0051426D01*
X0034208Y0050427D02*
X0033226Y0050427D01*
X0031886Y0050427D02*
X0031114Y0050427D01*
X0031114Y0049429D02*
X0031886Y0049429D01*
X0031886Y0048430D02*
X0031114Y0048430D01*
X0031114Y0047432D02*
X0031886Y0047432D01*
X0031886Y0046433D02*
X0036825Y0046433D01*
X0031114Y0046433D02*
X0024261Y0046433D01*
X0021000Y0046000D02*
X0028400Y0053400D01*
X0028400Y0053784D01*
X0038558Y0063942D01*
X0038558Y0095970D01*
X0038508Y0096520D01*
X0042808Y0096359D02*
X0060975Y0096359D01*
X0061973Y0097357D02*
X0042808Y0097357D01*
X0042402Y0098356D02*
X0062855Y0098356D01*
X0064074Y0099354D02*
X0041755Y0099354D01*
X0040491Y0100353D02*
X0071073Y0100353D01*
X0070304Y0093363D02*
X0066747Y0093363D01*
X0065749Y0092365D02*
X0071756Y0092365D01*
X0081954Y0090368D02*
X0093248Y0090368D01*
X0094247Y0089369D02*
X0090174Y0089369D01*
X0091514Y0088370D02*
X0095245Y0088370D01*
X0096244Y0087372D02*
X0092512Y0087372D01*
X0091628Y0088256D02*
X0091628Y0088256D01*
X0093511Y0086373D02*
X0097396Y0086373D01*
X0095508Y0084376D02*
X0121199Y0084376D01*
X0120438Y0083378D02*
X0096506Y0083378D01*
X0097505Y0082379D02*
X0119678Y0082379D01*
X0121960Y0085375D02*
X0116790Y0085375D01*
X0117915Y0086373D02*
X0122721Y0086373D01*
X0123481Y0087372D02*
X0118505Y0087372D01*
X0118871Y0088370D02*
X0124242Y0088370D01*
X0123677Y0089369D02*
X0125003Y0089369D01*
X0124890Y0090368D02*
X0125764Y0090368D01*
X0125900Y0091366D02*
X0125508Y0091366D01*
X0125812Y0092365D02*
X0125900Y0092365D01*
X0121965Y0091366D02*
X0121193Y0091366D01*
X0121193Y0090368D02*
X0121965Y0090368D01*
X0121965Y0089369D02*
X0121193Y0089369D01*
X0119481Y0089369D02*
X0118871Y0089369D01*
X0112352Y0085375D02*
X0094509Y0085375D01*
X0081990Y0100353D02*
X0111701Y0100353D01*
X0112277Y0101351D02*
X0041389Y0101351D01*
X0045465Y0100535D02*
X0046000Y0100000D01*
X0046497Y0100000D01*
X0053861Y0092636D01*
X0055982Y0091366D02*
X0040558Y0091366D01*
X0040558Y0090368D02*
X0054983Y0090368D01*
X0053985Y0089369D02*
X0040558Y0089369D01*
X0040558Y0088370D02*
X0052986Y0088370D01*
X0051988Y0087372D02*
X0040558Y0087372D01*
X0040558Y0086373D02*
X0050989Y0086373D01*
X0049991Y0085375D02*
X0040558Y0085375D01*
X0040558Y0084376D02*
X0048992Y0084376D01*
X0047994Y0083378D02*
X0040558Y0083378D01*
X0040558Y0082379D02*
X0046995Y0082379D01*
X0045997Y0081381D02*
X0040558Y0081381D01*
X0040558Y0080382D02*
X0044998Y0080382D01*
X0044000Y0079384D02*
X0040558Y0079384D01*
X0040558Y0078385D02*
X0043511Y0078385D01*
X0043400Y0077387D02*
X0040558Y0077387D01*
X0040558Y0076388D02*
X0043400Y0076388D01*
X0043400Y0075390D02*
X0040558Y0075390D01*
X0040558Y0074391D02*
X0043400Y0074391D01*
X0043400Y0073393D02*
X0040558Y0073393D01*
X0040558Y0072394D02*
X0043400Y0072394D01*
X0043400Y0071396D02*
X0040558Y0071396D01*
X0040558Y0070397D02*
X0043400Y0070397D01*
X0043400Y0069399D02*
X0040558Y0069399D01*
X0040558Y0068400D02*
X0043400Y0068400D01*
X0043400Y0067402D02*
X0040558Y0067402D01*
X0040558Y0066403D02*
X0043400Y0066403D01*
X0043400Y0065405D02*
X0040558Y0065405D01*
X0040558Y0064406D02*
X0043400Y0064406D01*
X0043400Y0063408D02*
X0040558Y0063408D01*
X0039854Y0062409D02*
X0043400Y0062409D01*
X0043400Y0061411D02*
X0038855Y0061411D01*
X0037857Y0060412D02*
X0043400Y0060412D01*
X0043041Y0059414D02*
X0036858Y0059414D01*
X0035859Y0058415D02*
X0042043Y0058415D01*
X0041044Y0057417D02*
X0034861Y0057417D01*
X0033862Y0056418D02*
X0040046Y0056418D01*
X0039047Y0055420D02*
X0032864Y0055420D01*
X0031865Y0054421D02*
X0036747Y0054421D01*
X0035353Y0053423D02*
X0030867Y0053423D01*
X0030252Y0052424D02*
X0034652Y0052424D01*
X0029371Y0060412D02*
X0029299Y0060412D01*
X0029299Y0061411D02*
X0030370Y0061411D01*
X0031368Y0062409D02*
X0029299Y0062409D01*
X0029152Y0063408D02*
X0032367Y0063408D01*
X0032500Y0064406D02*
X0028738Y0064406D01*
X0028324Y0065405D02*
X0032500Y0065405D01*
X0032500Y0066403D02*
X0027627Y0066403D01*
X0026628Y0067402D02*
X0032500Y0067402D01*
X0032500Y0068400D02*
X0025222Y0068400D01*
X0024718Y0074391D02*
X0032500Y0074391D01*
X0032500Y0073393D02*
X0003000Y0073393D01*
X0003000Y0072394D02*
X0032500Y0072394D01*
X0032500Y0071396D02*
X0003000Y0071396D01*
X0003000Y0070397D02*
X0032500Y0070397D01*
X0032500Y0069399D02*
X0003000Y0069399D01*
X0003000Y0090368D02*
X0027731Y0090368D01*
X0027317Y0091366D02*
X0003000Y0091366D01*
X0003000Y0092365D02*
X0027200Y0092365D01*
X0027202Y0093363D02*
X0003000Y0093363D01*
X0003000Y0094362D02*
X0027615Y0094362D01*
X0028275Y0095360D02*
X0003000Y0095360D01*
X0003000Y0096359D02*
X0029570Y0096359D01*
X0028597Y0097357D02*
X0003000Y0097357D01*
X0003000Y0098356D02*
X0027785Y0098356D01*
X0027363Y0099354D02*
X0003000Y0099354D01*
X0003000Y0100353D02*
X0031114Y0100353D01*
X0031500Y0100535D02*
X0045465Y0100535D01*
X0042682Y0095360D02*
X0059976Y0095360D01*
X0058978Y0094362D02*
X0042268Y0094362D01*
X0041432Y0093363D02*
X0057979Y0093363D01*
X0056980Y0092365D02*
X0040558Y0092365D01*
X0035743Y0099836D02*
X0035792Y0100150D01*
X0031886Y0100150D01*
X0031886Y0100921D01*
X0035792Y0100921D01*
X0035743Y0101235D01*
X0036072Y0100906D01*
X0036966Y0100535D01*
X0036072Y0100165D01*
X0035743Y0099836D01*
X0036525Y0100353D02*
X0031886Y0100353D01*
X0029508Y0104347D02*
X0003000Y0104347D01*
X0003000Y0105345D02*
X0028523Y0105345D01*
X0027718Y0106344D02*
X0003000Y0106344D01*
X0003000Y0107342D02*
X0027304Y0107342D01*
X0027200Y0108341D02*
X0003000Y0108341D01*
X0003000Y0109339D02*
X0027215Y0109339D01*
X0027628Y0110338D02*
X0003000Y0110338D01*
X0003000Y0111336D02*
X0028306Y0111336D01*
X0029645Y0112335D02*
X0003000Y0112335D01*
X0003000Y0113333D02*
X0028566Y0113333D01*
X0027769Y0114332D02*
X0003000Y0114332D01*
X0003000Y0115330D02*
X0027352Y0115330D01*
X0027208Y0116866D02*
X0031114Y0116866D01*
X0031114Y0120773D01*
X0030493Y0120674D01*
X0029849Y0120465D01*
X0029246Y0120158D01*
X0028699Y0119760D01*
X0028220Y0119282D01*
X0027822Y0118734D01*
X0027515Y0118131D01*
X0027306Y0117487D01*
X0027208Y0116866D01*
X0027281Y0117327D02*
X0003000Y0117327D01*
X0003000Y0116329D02*
X0031114Y0116329D01*
X0031886Y0116329D02*
X0036620Y0116329D01*
X0034267Y0113175D02*
X0034215Y0112850D01*
X0038122Y0112850D01*
X0038122Y0112079D01*
X0034215Y0112079D01*
X0034265Y0111765D01*
X0033936Y0112094D01*
X0033048Y0112462D01*
X0033151Y0112495D01*
X0033754Y0112803D01*
X0034267Y0113175D01*
X0033355Y0112335D02*
X0038122Y0112335D01*
X0038894Y0112335D02*
X0044951Y0112335D01*
X0045949Y0113333D02*
X0042724Y0113333D01*
X0042702Y0113471D02*
X0042493Y0114115D01*
X0042186Y0114718D01*
X0041788Y0115266D01*
X0041309Y0115744D01*
X0040762Y0116142D01*
X0040159Y0116450D01*
X0040056Y0116483D01*
X0040944Y0116851D01*
X0042153Y0118060D01*
X0042294Y0118400D01*
X0051016Y0118400D01*
X0043872Y0111256D01*
X0043559Y0110500D01*
X0042333Y0110500D01*
X0042493Y0110814D01*
X0042702Y0111458D01*
X0042800Y0112079D01*
X0038894Y0112079D01*
X0038894Y0112850D01*
X0042800Y0112850D01*
X0042702Y0113471D01*
X0042382Y0114332D02*
X0046948Y0114332D01*
X0047946Y0115330D02*
X0041723Y0115330D01*
X0040395Y0116329D02*
X0048945Y0116329D01*
X0049943Y0117327D02*
X0041420Y0117327D01*
X0042263Y0118326D02*
X0050942Y0118326D01*
X0043952Y0111336D02*
X0042663Y0111336D01*
X0045500Y0108500D02*
X0046500Y0109500D01*
X0047000Y0110000D01*
X0045500Y0108500D02*
X0031551Y0108500D01*
X0031500Y0108449D01*
X0028232Y0103348D02*
X0003000Y0103348D01*
X0003000Y0102350D02*
X0027598Y0102350D01*
X0027276Y0101351D02*
X0003000Y0101351D01*
X0003000Y0118326D02*
X0027614Y0118326D01*
X0028263Y0119324D02*
X0003000Y0119324D01*
X0003000Y0120323D02*
X0029570Y0120323D01*
X0031114Y0120323D02*
X0031886Y0120323D01*
X0031886Y0119324D02*
X0031114Y0119324D01*
X0031114Y0118326D02*
X0031886Y0118326D01*
X0031886Y0117327D02*
X0031114Y0117327D01*
X0033430Y0120323D02*
X0034208Y0120323D01*
X0034208Y0121321D02*
X0003000Y0121321D01*
X0003000Y0122320D02*
X0034609Y0122320D01*
X0035249Y0123318D02*
X0003000Y0123318D01*
X0003000Y0124317D02*
X0018461Y0124317D01*
X0017082Y0124888D02*
X0019949Y0123701D01*
X0023051Y0123701D01*
X0025918Y0124888D01*
X0028112Y0127082D01*
X0029299Y0129949D01*
X0029299Y0133051D01*
X0028112Y0135918D01*
X0025918Y0138112D01*
X0023051Y0139299D01*
X0019949Y0139299D01*
X0017082Y0138112D01*
X0014888Y0135918D01*
X0013701Y0133051D01*
X0013701Y0129949D01*
X0014888Y0127082D01*
X0017082Y0124888D01*
X0016655Y0125315D02*
X0003000Y0125315D01*
X0003000Y0126314D02*
X0015656Y0126314D01*
X0014793Y0127312D02*
X0003000Y0127312D01*
X0003000Y0128311D02*
X0014379Y0128311D01*
X0013966Y0129309D02*
X0003000Y0129309D01*
X0003000Y0130308D02*
X0013701Y0130308D01*
X0013701Y0131306D02*
X0003000Y0131306D01*
X0003000Y0132305D02*
X0013701Y0132305D01*
X0013805Y0133303D02*
X0003000Y0133303D01*
X0003000Y0134302D02*
X0014219Y0134302D01*
X0014632Y0135301D02*
X0003000Y0135301D01*
X0003000Y0136299D02*
X0015269Y0136299D01*
X0016268Y0137298D02*
X0003000Y0137298D01*
X0003000Y0138296D02*
X0017527Y0138296D01*
X0019937Y0139295D02*
X0003000Y0139295D01*
X0023063Y0139295D02*
X0149606Y0139295D01*
X0149606Y0138296D02*
X0025473Y0138296D01*
X0026732Y0137298D02*
X0149606Y0137298D01*
X0149606Y0136299D02*
X0027731Y0136299D01*
X0028368Y0135301D02*
X0128567Y0135301D01*
X0126745Y0134302D02*
X0028781Y0134302D01*
X0029195Y0133303D02*
X0125746Y0133303D01*
X0124876Y0132305D02*
X0029299Y0132305D01*
X0029299Y0131306D02*
X0124462Y0131306D01*
X0124049Y0130308D02*
X0029299Y0130308D01*
X0029034Y0129309D02*
X0123780Y0129309D01*
X0123780Y0128311D02*
X0028621Y0128311D01*
X0028207Y0127312D02*
X0123780Y0127312D01*
X0123879Y0126314D02*
X0027344Y0126314D01*
X0026345Y0125315D02*
X0124293Y0125315D01*
X0124707Y0124317D02*
X0068016Y0124317D01*
X0069183Y0123318D02*
X0125337Y0123318D01*
X0126335Y0122320D02*
X0109509Y0122320D01*
X0106491Y0122320D02*
X0069605Y0122320D01*
X0069683Y0121321D02*
X0105320Y0121321D01*
X0104896Y0120323D02*
X0069457Y0120323D01*
X0068825Y0119324D02*
X0104817Y0119324D01*
X0105041Y0118326D02*
X0097675Y0118326D01*
X0110328Y0117327D02*
X0113572Y0117327D01*
X0115569Y0117327D02*
X0117279Y0117327D01*
X0117336Y0109771D02*
X0117286Y0109457D01*
X0121193Y0109457D01*
X0121193Y0108685D01*
X0117286Y0108685D01*
X0117336Y0108371D01*
X0117007Y0108700D01*
X0116112Y0109071D01*
X0117007Y0109441D01*
X0117336Y0109771D01*
X0116760Y0109339D02*
X0121193Y0109339D01*
X0121965Y0109339D02*
X0149606Y0109339D01*
X0149606Y0120323D02*
X0133168Y0120323D01*
X0135579Y0121321D02*
X0149606Y0121321D01*
X0149606Y0122320D02*
X0136822Y0122320D01*
X0137821Y0123318D02*
X0149606Y0123318D01*
X0149606Y0124317D02*
X0138451Y0124317D01*
X0138865Y0125315D02*
X0149606Y0125315D01*
X0149606Y0126314D02*
X0139278Y0126314D01*
X0139378Y0127312D02*
X0149606Y0127312D01*
X0149606Y0128311D02*
X0139378Y0128311D01*
X0139378Y0129309D02*
X0149606Y0129309D01*
X0149606Y0130308D02*
X0139109Y0130308D01*
X0138695Y0131306D02*
X0149606Y0131306D01*
X0149606Y0132305D02*
X0138281Y0132305D01*
X0137411Y0133303D02*
X0149606Y0133303D01*
X0149606Y0134302D02*
X0136413Y0134302D01*
X0134591Y0135301D02*
X0149606Y0135301D01*
X0036966Y0030535D02*
X0036072Y0030165D01*
X0035743Y0029836D01*
X0035792Y0030150D01*
X0031886Y0030150D01*
X0031886Y0030921D01*
X0035792Y0030921D01*
X0035743Y0031235D01*
X0036072Y0030906D01*
X0036966Y0030535D01*
X0036777Y0030457D02*
X0031886Y0030457D01*
X0027329Y0029458D02*
X0023000Y0029458D01*
X0021000Y0028500D02*
X0023000Y0026500D01*
X0038488Y0026500D01*
X0038508Y0026520D01*
X0038528Y0026500D01*
X0021000Y0028500D02*
X0021000Y0046000D01*
X0026420Y0075390D02*
X0032500Y0075390D01*
X0032500Y0076388D02*
X0027418Y0076388D01*
X0028238Y0077387D02*
X0032500Y0077387D01*
X0032500Y0078385D02*
X0028652Y0078385D01*
X0029065Y0079384D02*
X0032500Y0079384D01*
X0032500Y0080382D02*
X0029299Y0080382D01*
X0029299Y0081381D02*
X0032500Y0081381D01*
X0032500Y0082379D02*
X0029299Y0082379D01*
X0029164Y0083378D02*
X0032500Y0083378D01*
X0032500Y0084376D02*
X0028750Y0084376D01*
X0028337Y0085375D02*
X0032500Y0085375D01*
X0032500Y0086373D02*
X0027656Y0086373D01*
X0026658Y0087372D02*
X0032500Y0087372D01*
X0030243Y0088370D02*
X0025293Y0088370D01*
X0024539Y0124317D02*
X0036496Y0124317D01*
D16*
X0068500Y0091500D02*
X0068000Y0091000D01*
X0068500Y0091500D02*
X0083500Y0091500D01*
M02*
