G75*
%MOIN*%
%OFA0B0*%
%FSLAX25Y25*%
%IPPOS*%
%LPD*%
%AMOC8*
5,1,8,0,0,1.08239X$1,22.5*
%
%ADD10C,0.00000*%
%ADD11OC8,0.07000*%
%ADD12C,0.23400*%
%ADD13C,0.08274*%
%ADD14C,0.06000*%
%ADD15C,0.12998*%
%ADD16R,0.05600X0.05600*%
%ADD17OC8,0.05600*%
%ADD18C,0.05600*%
%ADD19C,0.06400*%
%ADD20R,0.09061X0.02762*%
%ADD21C,0.10400*%
%ADD22OC8,0.10400*%
%ADD23C,0.07093*%
%ADD24R,0.07487X0.06699*%
%ADD25OC8,0.06700*%
%ADD26C,0.06700*%
%ADD27OC8,0.06000*%
%ADD28R,0.05518X0.06306*%
%ADD29R,0.06306X0.05518*%
%ADD30C,0.06000*%
%ADD31C,0.05600*%
%ADD32OC8,0.06337*%
%ADD33R,0.04337X0.05912*%
%ADD34R,0.04731X0.04337*%
%ADD35R,0.13786X0.07880*%
%ADD36R,0.04337X0.04731*%
%ADD37R,0.04140X0.04731*%
%ADD38R,0.06699X0.07487*%
%ADD39R,0.08400X0.08400*%
%ADD40C,0.08400*%
%ADD41R,0.09061X0.07487*%
D10*
X0003000Y0106000D02*
X0003000Y0420961D01*
X0396701Y0420961D01*
X0396701Y0106000D01*
X0003000Y0106000D01*
X0371701Y0191000D02*
X0371703Y0191158D01*
X0371709Y0191316D01*
X0371719Y0191474D01*
X0371733Y0191632D01*
X0371751Y0191789D01*
X0371772Y0191946D01*
X0371798Y0192102D01*
X0371828Y0192258D01*
X0371861Y0192413D01*
X0371899Y0192566D01*
X0371940Y0192719D01*
X0371985Y0192871D01*
X0372034Y0193022D01*
X0372087Y0193171D01*
X0372143Y0193319D01*
X0372203Y0193465D01*
X0372267Y0193610D01*
X0372335Y0193753D01*
X0372406Y0193895D01*
X0372480Y0194035D01*
X0372558Y0194172D01*
X0372640Y0194308D01*
X0372724Y0194442D01*
X0372813Y0194573D01*
X0372904Y0194702D01*
X0372999Y0194829D01*
X0373096Y0194954D01*
X0373197Y0195076D01*
X0373301Y0195195D01*
X0373408Y0195312D01*
X0373518Y0195426D01*
X0373631Y0195537D01*
X0373746Y0195646D01*
X0373864Y0195751D01*
X0373985Y0195853D01*
X0374108Y0195953D01*
X0374234Y0196049D01*
X0374362Y0196142D01*
X0374492Y0196232D01*
X0374625Y0196318D01*
X0374760Y0196402D01*
X0374896Y0196481D01*
X0375035Y0196558D01*
X0375176Y0196630D01*
X0375318Y0196700D01*
X0375462Y0196765D01*
X0375608Y0196827D01*
X0375755Y0196885D01*
X0375904Y0196940D01*
X0376054Y0196991D01*
X0376205Y0197038D01*
X0376357Y0197081D01*
X0376510Y0197120D01*
X0376665Y0197156D01*
X0376820Y0197187D01*
X0376976Y0197215D01*
X0377132Y0197239D01*
X0377289Y0197259D01*
X0377447Y0197275D01*
X0377604Y0197287D01*
X0377763Y0197295D01*
X0377921Y0197299D01*
X0378079Y0197299D01*
X0378237Y0197295D01*
X0378396Y0197287D01*
X0378553Y0197275D01*
X0378711Y0197259D01*
X0378868Y0197239D01*
X0379024Y0197215D01*
X0379180Y0197187D01*
X0379335Y0197156D01*
X0379490Y0197120D01*
X0379643Y0197081D01*
X0379795Y0197038D01*
X0379946Y0196991D01*
X0380096Y0196940D01*
X0380245Y0196885D01*
X0380392Y0196827D01*
X0380538Y0196765D01*
X0380682Y0196700D01*
X0380824Y0196630D01*
X0380965Y0196558D01*
X0381104Y0196481D01*
X0381240Y0196402D01*
X0381375Y0196318D01*
X0381508Y0196232D01*
X0381638Y0196142D01*
X0381766Y0196049D01*
X0381892Y0195953D01*
X0382015Y0195853D01*
X0382136Y0195751D01*
X0382254Y0195646D01*
X0382369Y0195537D01*
X0382482Y0195426D01*
X0382592Y0195312D01*
X0382699Y0195195D01*
X0382803Y0195076D01*
X0382904Y0194954D01*
X0383001Y0194829D01*
X0383096Y0194702D01*
X0383187Y0194573D01*
X0383276Y0194442D01*
X0383360Y0194308D01*
X0383442Y0194172D01*
X0383520Y0194035D01*
X0383594Y0193895D01*
X0383665Y0193753D01*
X0383733Y0193610D01*
X0383797Y0193465D01*
X0383857Y0193319D01*
X0383913Y0193171D01*
X0383966Y0193022D01*
X0384015Y0192871D01*
X0384060Y0192719D01*
X0384101Y0192566D01*
X0384139Y0192413D01*
X0384172Y0192258D01*
X0384202Y0192102D01*
X0384228Y0191946D01*
X0384249Y0191789D01*
X0384267Y0191632D01*
X0384281Y0191474D01*
X0384291Y0191316D01*
X0384297Y0191158D01*
X0384299Y0191000D01*
X0384297Y0190842D01*
X0384291Y0190684D01*
X0384281Y0190526D01*
X0384267Y0190368D01*
X0384249Y0190211D01*
X0384228Y0190054D01*
X0384202Y0189898D01*
X0384172Y0189742D01*
X0384139Y0189587D01*
X0384101Y0189434D01*
X0384060Y0189281D01*
X0384015Y0189129D01*
X0383966Y0188978D01*
X0383913Y0188829D01*
X0383857Y0188681D01*
X0383797Y0188535D01*
X0383733Y0188390D01*
X0383665Y0188247D01*
X0383594Y0188105D01*
X0383520Y0187965D01*
X0383442Y0187828D01*
X0383360Y0187692D01*
X0383276Y0187558D01*
X0383187Y0187427D01*
X0383096Y0187298D01*
X0383001Y0187171D01*
X0382904Y0187046D01*
X0382803Y0186924D01*
X0382699Y0186805D01*
X0382592Y0186688D01*
X0382482Y0186574D01*
X0382369Y0186463D01*
X0382254Y0186354D01*
X0382136Y0186249D01*
X0382015Y0186147D01*
X0381892Y0186047D01*
X0381766Y0185951D01*
X0381638Y0185858D01*
X0381508Y0185768D01*
X0381375Y0185682D01*
X0381240Y0185598D01*
X0381104Y0185519D01*
X0380965Y0185442D01*
X0380824Y0185370D01*
X0380682Y0185300D01*
X0380538Y0185235D01*
X0380392Y0185173D01*
X0380245Y0185115D01*
X0380096Y0185060D01*
X0379946Y0185009D01*
X0379795Y0184962D01*
X0379643Y0184919D01*
X0379490Y0184880D01*
X0379335Y0184844D01*
X0379180Y0184813D01*
X0379024Y0184785D01*
X0378868Y0184761D01*
X0378711Y0184741D01*
X0378553Y0184725D01*
X0378396Y0184713D01*
X0378237Y0184705D01*
X0378079Y0184701D01*
X0377921Y0184701D01*
X0377763Y0184705D01*
X0377604Y0184713D01*
X0377447Y0184725D01*
X0377289Y0184741D01*
X0377132Y0184761D01*
X0376976Y0184785D01*
X0376820Y0184813D01*
X0376665Y0184844D01*
X0376510Y0184880D01*
X0376357Y0184919D01*
X0376205Y0184962D01*
X0376054Y0185009D01*
X0375904Y0185060D01*
X0375755Y0185115D01*
X0375608Y0185173D01*
X0375462Y0185235D01*
X0375318Y0185300D01*
X0375176Y0185370D01*
X0375035Y0185442D01*
X0374896Y0185519D01*
X0374760Y0185598D01*
X0374625Y0185682D01*
X0374492Y0185768D01*
X0374362Y0185858D01*
X0374234Y0185951D01*
X0374108Y0186047D01*
X0373985Y0186147D01*
X0373864Y0186249D01*
X0373746Y0186354D01*
X0373631Y0186463D01*
X0373518Y0186574D01*
X0373408Y0186688D01*
X0373301Y0186805D01*
X0373197Y0186924D01*
X0373096Y0187046D01*
X0372999Y0187171D01*
X0372904Y0187298D01*
X0372813Y0187427D01*
X0372724Y0187558D01*
X0372640Y0187692D01*
X0372558Y0187828D01*
X0372480Y0187965D01*
X0372406Y0188105D01*
X0372335Y0188247D01*
X0372267Y0188390D01*
X0372203Y0188535D01*
X0372143Y0188681D01*
X0372087Y0188829D01*
X0372034Y0188978D01*
X0371985Y0189129D01*
X0371940Y0189281D01*
X0371899Y0189434D01*
X0371861Y0189587D01*
X0371828Y0189742D01*
X0371798Y0189898D01*
X0371772Y0190054D01*
X0371751Y0190211D01*
X0371733Y0190368D01*
X0371719Y0190526D01*
X0371709Y0190684D01*
X0371703Y0190842D01*
X0371701Y0191000D01*
X0371701Y0241000D02*
X0371703Y0241158D01*
X0371709Y0241316D01*
X0371719Y0241474D01*
X0371733Y0241632D01*
X0371751Y0241789D01*
X0371772Y0241946D01*
X0371798Y0242102D01*
X0371828Y0242258D01*
X0371861Y0242413D01*
X0371899Y0242566D01*
X0371940Y0242719D01*
X0371985Y0242871D01*
X0372034Y0243022D01*
X0372087Y0243171D01*
X0372143Y0243319D01*
X0372203Y0243465D01*
X0372267Y0243610D01*
X0372335Y0243753D01*
X0372406Y0243895D01*
X0372480Y0244035D01*
X0372558Y0244172D01*
X0372640Y0244308D01*
X0372724Y0244442D01*
X0372813Y0244573D01*
X0372904Y0244702D01*
X0372999Y0244829D01*
X0373096Y0244954D01*
X0373197Y0245076D01*
X0373301Y0245195D01*
X0373408Y0245312D01*
X0373518Y0245426D01*
X0373631Y0245537D01*
X0373746Y0245646D01*
X0373864Y0245751D01*
X0373985Y0245853D01*
X0374108Y0245953D01*
X0374234Y0246049D01*
X0374362Y0246142D01*
X0374492Y0246232D01*
X0374625Y0246318D01*
X0374760Y0246402D01*
X0374896Y0246481D01*
X0375035Y0246558D01*
X0375176Y0246630D01*
X0375318Y0246700D01*
X0375462Y0246765D01*
X0375608Y0246827D01*
X0375755Y0246885D01*
X0375904Y0246940D01*
X0376054Y0246991D01*
X0376205Y0247038D01*
X0376357Y0247081D01*
X0376510Y0247120D01*
X0376665Y0247156D01*
X0376820Y0247187D01*
X0376976Y0247215D01*
X0377132Y0247239D01*
X0377289Y0247259D01*
X0377447Y0247275D01*
X0377604Y0247287D01*
X0377763Y0247295D01*
X0377921Y0247299D01*
X0378079Y0247299D01*
X0378237Y0247295D01*
X0378396Y0247287D01*
X0378553Y0247275D01*
X0378711Y0247259D01*
X0378868Y0247239D01*
X0379024Y0247215D01*
X0379180Y0247187D01*
X0379335Y0247156D01*
X0379490Y0247120D01*
X0379643Y0247081D01*
X0379795Y0247038D01*
X0379946Y0246991D01*
X0380096Y0246940D01*
X0380245Y0246885D01*
X0380392Y0246827D01*
X0380538Y0246765D01*
X0380682Y0246700D01*
X0380824Y0246630D01*
X0380965Y0246558D01*
X0381104Y0246481D01*
X0381240Y0246402D01*
X0381375Y0246318D01*
X0381508Y0246232D01*
X0381638Y0246142D01*
X0381766Y0246049D01*
X0381892Y0245953D01*
X0382015Y0245853D01*
X0382136Y0245751D01*
X0382254Y0245646D01*
X0382369Y0245537D01*
X0382482Y0245426D01*
X0382592Y0245312D01*
X0382699Y0245195D01*
X0382803Y0245076D01*
X0382904Y0244954D01*
X0383001Y0244829D01*
X0383096Y0244702D01*
X0383187Y0244573D01*
X0383276Y0244442D01*
X0383360Y0244308D01*
X0383442Y0244172D01*
X0383520Y0244035D01*
X0383594Y0243895D01*
X0383665Y0243753D01*
X0383733Y0243610D01*
X0383797Y0243465D01*
X0383857Y0243319D01*
X0383913Y0243171D01*
X0383966Y0243022D01*
X0384015Y0242871D01*
X0384060Y0242719D01*
X0384101Y0242566D01*
X0384139Y0242413D01*
X0384172Y0242258D01*
X0384202Y0242102D01*
X0384228Y0241946D01*
X0384249Y0241789D01*
X0384267Y0241632D01*
X0384281Y0241474D01*
X0384291Y0241316D01*
X0384297Y0241158D01*
X0384299Y0241000D01*
X0384297Y0240842D01*
X0384291Y0240684D01*
X0384281Y0240526D01*
X0384267Y0240368D01*
X0384249Y0240211D01*
X0384228Y0240054D01*
X0384202Y0239898D01*
X0384172Y0239742D01*
X0384139Y0239587D01*
X0384101Y0239434D01*
X0384060Y0239281D01*
X0384015Y0239129D01*
X0383966Y0238978D01*
X0383913Y0238829D01*
X0383857Y0238681D01*
X0383797Y0238535D01*
X0383733Y0238390D01*
X0383665Y0238247D01*
X0383594Y0238105D01*
X0383520Y0237965D01*
X0383442Y0237828D01*
X0383360Y0237692D01*
X0383276Y0237558D01*
X0383187Y0237427D01*
X0383096Y0237298D01*
X0383001Y0237171D01*
X0382904Y0237046D01*
X0382803Y0236924D01*
X0382699Y0236805D01*
X0382592Y0236688D01*
X0382482Y0236574D01*
X0382369Y0236463D01*
X0382254Y0236354D01*
X0382136Y0236249D01*
X0382015Y0236147D01*
X0381892Y0236047D01*
X0381766Y0235951D01*
X0381638Y0235858D01*
X0381508Y0235768D01*
X0381375Y0235682D01*
X0381240Y0235598D01*
X0381104Y0235519D01*
X0380965Y0235442D01*
X0380824Y0235370D01*
X0380682Y0235300D01*
X0380538Y0235235D01*
X0380392Y0235173D01*
X0380245Y0235115D01*
X0380096Y0235060D01*
X0379946Y0235009D01*
X0379795Y0234962D01*
X0379643Y0234919D01*
X0379490Y0234880D01*
X0379335Y0234844D01*
X0379180Y0234813D01*
X0379024Y0234785D01*
X0378868Y0234761D01*
X0378711Y0234741D01*
X0378553Y0234725D01*
X0378396Y0234713D01*
X0378237Y0234705D01*
X0378079Y0234701D01*
X0377921Y0234701D01*
X0377763Y0234705D01*
X0377604Y0234713D01*
X0377447Y0234725D01*
X0377289Y0234741D01*
X0377132Y0234761D01*
X0376976Y0234785D01*
X0376820Y0234813D01*
X0376665Y0234844D01*
X0376510Y0234880D01*
X0376357Y0234919D01*
X0376205Y0234962D01*
X0376054Y0235009D01*
X0375904Y0235060D01*
X0375755Y0235115D01*
X0375608Y0235173D01*
X0375462Y0235235D01*
X0375318Y0235300D01*
X0375176Y0235370D01*
X0375035Y0235442D01*
X0374896Y0235519D01*
X0374760Y0235598D01*
X0374625Y0235682D01*
X0374492Y0235768D01*
X0374362Y0235858D01*
X0374234Y0235951D01*
X0374108Y0236047D01*
X0373985Y0236147D01*
X0373864Y0236249D01*
X0373746Y0236354D01*
X0373631Y0236463D01*
X0373518Y0236574D01*
X0373408Y0236688D01*
X0373301Y0236805D01*
X0373197Y0236924D01*
X0373096Y0237046D01*
X0372999Y0237171D01*
X0372904Y0237298D01*
X0372813Y0237427D01*
X0372724Y0237558D01*
X0372640Y0237692D01*
X0372558Y0237828D01*
X0372480Y0237965D01*
X0372406Y0238105D01*
X0372335Y0238247D01*
X0372267Y0238390D01*
X0372203Y0238535D01*
X0372143Y0238681D01*
X0372087Y0238829D01*
X0372034Y0238978D01*
X0371985Y0239129D01*
X0371940Y0239281D01*
X0371899Y0239434D01*
X0371861Y0239587D01*
X0371828Y0239742D01*
X0371798Y0239898D01*
X0371772Y0240054D01*
X0371751Y0240211D01*
X0371733Y0240368D01*
X0371719Y0240526D01*
X0371709Y0240684D01*
X0371703Y0240842D01*
X0371701Y0241000D01*
X0371701Y0261000D02*
X0371703Y0261158D01*
X0371709Y0261316D01*
X0371719Y0261474D01*
X0371733Y0261632D01*
X0371751Y0261789D01*
X0371772Y0261946D01*
X0371798Y0262102D01*
X0371828Y0262258D01*
X0371861Y0262413D01*
X0371899Y0262566D01*
X0371940Y0262719D01*
X0371985Y0262871D01*
X0372034Y0263022D01*
X0372087Y0263171D01*
X0372143Y0263319D01*
X0372203Y0263465D01*
X0372267Y0263610D01*
X0372335Y0263753D01*
X0372406Y0263895D01*
X0372480Y0264035D01*
X0372558Y0264172D01*
X0372640Y0264308D01*
X0372724Y0264442D01*
X0372813Y0264573D01*
X0372904Y0264702D01*
X0372999Y0264829D01*
X0373096Y0264954D01*
X0373197Y0265076D01*
X0373301Y0265195D01*
X0373408Y0265312D01*
X0373518Y0265426D01*
X0373631Y0265537D01*
X0373746Y0265646D01*
X0373864Y0265751D01*
X0373985Y0265853D01*
X0374108Y0265953D01*
X0374234Y0266049D01*
X0374362Y0266142D01*
X0374492Y0266232D01*
X0374625Y0266318D01*
X0374760Y0266402D01*
X0374896Y0266481D01*
X0375035Y0266558D01*
X0375176Y0266630D01*
X0375318Y0266700D01*
X0375462Y0266765D01*
X0375608Y0266827D01*
X0375755Y0266885D01*
X0375904Y0266940D01*
X0376054Y0266991D01*
X0376205Y0267038D01*
X0376357Y0267081D01*
X0376510Y0267120D01*
X0376665Y0267156D01*
X0376820Y0267187D01*
X0376976Y0267215D01*
X0377132Y0267239D01*
X0377289Y0267259D01*
X0377447Y0267275D01*
X0377604Y0267287D01*
X0377763Y0267295D01*
X0377921Y0267299D01*
X0378079Y0267299D01*
X0378237Y0267295D01*
X0378396Y0267287D01*
X0378553Y0267275D01*
X0378711Y0267259D01*
X0378868Y0267239D01*
X0379024Y0267215D01*
X0379180Y0267187D01*
X0379335Y0267156D01*
X0379490Y0267120D01*
X0379643Y0267081D01*
X0379795Y0267038D01*
X0379946Y0266991D01*
X0380096Y0266940D01*
X0380245Y0266885D01*
X0380392Y0266827D01*
X0380538Y0266765D01*
X0380682Y0266700D01*
X0380824Y0266630D01*
X0380965Y0266558D01*
X0381104Y0266481D01*
X0381240Y0266402D01*
X0381375Y0266318D01*
X0381508Y0266232D01*
X0381638Y0266142D01*
X0381766Y0266049D01*
X0381892Y0265953D01*
X0382015Y0265853D01*
X0382136Y0265751D01*
X0382254Y0265646D01*
X0382369Y0265537D01*
X0382482Y0265426D01*
X0382592Y0265312D01*
X0382699Y0265195D01*
X0382803Y0265076D01*
X0382904Y0264954D01*
X0383001Y0264829D01*
X0383096Y0264702D01*
X0383187Y0264573D01*
X0383276Y0264442D01*
X0383360Y0264308D01*
X0383442Y0264172D01*
X0383520Y0264035D01*
X0383594Y0263895D01*
X0383665Y0263753D01*
X0383733Y0263610D01*
X0383797Y0263465D01*
X0383857Y0263319D01*
X0383913Y0263171D01*
X0383966Y0263022D01*
X0384015Y0262871D01*
X0384060Y0262719D01*
X0384101Y0262566D01*
X0384139Y0262413D01*
X0384172Y0262258D01*
X0384202Y0262102D01*
X0384228Y0261946D01*
X0384249Y0261789D01*
X0384267Y0261632D01*
X0384281Y0261474D01*
X0384291Y0261316D01*
X0384297Y0261158D01*
X0384299Y0261000D01*
X0384297Y0260842D01*
X0384291Y0260684D01*
X0384281Y0260526D01*
X0384267Y0260368D01*
X0384249Y0260211D01*
X0384228Y0260054D01*
X0384202Y0259898D01*
X0384172Y0259742D01*
X0384139Y0259587D01*
X0384101Y0259434D01*
X0384060Y0259281D01*
X0384015Y0259129D01*
X0383966Y0258978D01*
X0383913Y0258829D01*
X0383857Y0258681D01*
X0383797Y0258535D01*
X0383733Y0258390D01*
X0383665Y0258247D01*
X0383594Y0258105D01*
X0383520Y0257965D01*
X0383442Y0257828D01*
X0383360Y0257692D01*
X0383276Y0257558D01*
X0383187Y0257427D01*
X0383096Y0257298D01*
X0383001Y0257171D01*
X0382904Y0257046D01*
X0382803Y0256924D01*
X0382699Y0256805D01*
X0382592Y0256688D01*
X0382482Y0256574D01*
X0382369Y0256463D01*
X0382254Y0256354D01*
X0382136Y0256249D01*
X0382015Y0256147D01*
X0381892Y0256047D01*
X0381766Y0255951D01*
X0381638Y0255858D01*
X0381508Y0255768D01*
X0381375Y0255682D01*
X0381240Y0255598D01*
X0381104Y0255519D01*
X0380965Y0255442D01*
X0380824Y0255370D01*
X0380682Y0255300D01*
X0380538Y0255235D01*
X0380392Y0255173D01*
X0380245Y0255115D01*
X0380096Y0255060D01*
X0379946Y0255009D01*
X0379795Y0254962D01*
X0379643Y0254919D01*
X0379490Y0254880D01*
X0379335Y0254844D01*
X0379180Y0254813D01*
X0379024Y0254785D01*
X0378868Y0254761D01*
X0378711Y0254741D01*
X0378553Y0254725D01*
X0378396Y0254713D01*
X0378237Y0254705D01*
X0378079Y0254701D01*
X0377921Y0254701D01*
X0377763Y0254705D01*
X0377604Y0254713D01*
X0377447Y0254725D01*
X0377289Y0254741D01*
X0377132Y0254761D01*
X0376976Y0254785D01*
X0376820Y0254813D01*
X0376665Y0254844D01*
X0376510Y0254880D01*
X0376357Y0254919D01*
X0376205Y0254962D01*
X0376054Y0255009D01*
X0375904Y0255060D01*
X0375755Y0255115D01*
X0375608Y0255173D01*
X0375462Y0255235D01*
X0375318Y0255300D01*
X0375176Y0255370D01*
X0375035Y0255442D01*
X0374896Y0255519D01*
X0374760Y0255598D01*
X0374625Y0255682D01*
X0374492Y0255768D01*
X0374362Y0255858D01*
X0374234Y0255951D01*
X0374108Y0256047D01*
X0373985Y0256147D01*
X0373864Y0256249D01*
X0373746Y0256354D01*
X0373631Y0256463D01*
X0373518Y0256574D01*
X0373408Y0256688D01*
X0373301Y0256805D01*
X0373197Y0256924D01*
X0373096Y0257046D01*
X0372999Y0257171D01*
X0372904Y0257298D01*
X0372813Y0257427D01*
X0372724Y0257558D01*
X0372640Y0257692D01*
X0372558Y0257828D01*
X0372480Y0257965D01*
X0372406Y0258105D01*
X0372335Y0258247D01*
X0372267Y0258390D01*
X0372203Y0258535D01*
X0372143Y0258681D01*
X0372087Y0258829D01*
X0372034Y0258978D01*
X0371985Y0259129D01*
X0371940Y0259281D01*
X0371899Y0259434D01*
X0371861Y0259587D01*
X0371828Y0259742D01*
X0371798Y0259898D01*
X0371772Y0260054D01*
X0371751Y0260211D01*
X0371733Y0260368D01*
X0371719Y0260526D01*
X0371709Y0260684D01*
X0371703Y0260842D01*
X0371701Y0261000D01*
X0371701Y0311000D02*
X0371703Y0311158D01*
X0371709Y0311316D01*
X0371719Y0311474D01*
X0371733Y0311632D01*
X0371751Y0311789D01*
X0371772Y0311946D01*
X0371798Y0312102D01*
X0371828Y0312258D01*
X0371861Y0312413D01*
X0371899Y0312566D01*
X0371940Y0312719D01*
X0371985Y0312871D01*
X0372034Y0313022D01*
X0372087Y0313171D01*
X0372143Y0313319D01*
X0372203Y0313465D01*
X0372267Y0313610D01*
X0372335Y0313753D01*
X0372406Y0313895D01*
X0372480Y0314035D01*
X0372558Y0314172D01*
X0372640Y0314308D01*
X0372724Y0314442D01*
X0372813Y0314573D01*
X0372904Y0314702D01*
X0372999Y0314829D01*
X0373096Y0314954D01*
X0373197Y0315076D01*
X0373301Y0315195D01*
X0373408Y0315312D01*
X0373518Y0315426D01*
X0373631Y0315537D01*
X0373746Y0315646D01*
X0373864Y0315751D01*
X0373985Y0315853D01*
X0374108Y0315953D01*
X0374234Y0316049D01*
X0374362Y0316142D01*
X0374492Y0316232D01*
X0374625Y0316318D01*
X0374760Y0316402D01*
X0374896Y0316481D01*
X0375035Y0316558D01*
X0375176Y0316630D01*
X0375318Y0316700D01*
X0375462Y0316765D01*
X0375608Y0316827D01*
X0375755Y0316885D01*
X0375904Y0316940D01*
X0376054Y0316991D01*
X0376205Y0317038D01*
X0376357Y0317081D01*
X0376510Y0317120D01*
X0376665Y0317156D01*
X0376820Y0317187D01*
X0376976Y0317215D01*
X0377132Y0317239D01*
X0377289Y0317259D01*
X0377447Y0317275D01*
X0377604Y0317287D01*
X0377763Y0317295D01*
X0377921Y0317299D01*
X0378079Y0317299D01*
X0378237Y0317295D01*
X0378396Y0317287D01*
X0378553Y0317275D01*
X0378711Y0317259D01*
X0378868Y0317239D01*
X0379024Y0317215D01*
X0379180Y0317187D01*
X0379335Y0317156D01*
X0379490Y0317120D01*
X0379643Y0317081D01*
X0379795Y0317038D01*
X0379946Y0316991D01*
X0380096Y0316940D01*
X0380245Y0316885D01*
X0380392Y0316827D01*
X0380538Y0316765D01*
X0380682Y0316700D01*
X0380824Y0316630D01*
X0380965Y0316558D01*
X0381104Y0316481D01*
X0381240Y0316402D01*
X0381375Y0316318D01*
X0381508Y0316232D01*
X0381638Y0316142D01*
X0381766Y0316049D01*
X0381892Y0315953D01*
X0382015Y0315853D01*
X0382136Y0315751D01*
X0382254Y0315646D01*
X0382369Y0315537D01*
X0382482Y0315426D01*
X0382592Y0315312D01*
X0382699Y0315195D01*
X0382803Y0315076D01*
X0382904Y0314954D01*
X0383001Y0314829D01*
X0383096Y0314702D01*
X0383187Y0314573D01*
X0383276Y0314442D01*
X0383360Y0314308D01*
X0383442Y0314172D01*
X0383520Y0314035D01*
X0383594Y0313895D01*
X0383665Y0313753D01*
X0383733Y0313610D01*
X0383797Y0313465D01*
X0383857Y0313319D01*
X0383913Y0313171D01*
X0383966Y0313022D01*
X0384015Y0312871D01*
X0384060Y0312719D01*
X0384101Y0312566D01*
X0384139Y0312413D01*
X0384172Y0312258D01*
X0384202Y0312102D01*
X0384228Y0311946D01*
X0384249Y0311789D01*
X0384267Y0311632D01*
X0384281Y0311474D01*
X0384291Y0311316D01*
X0384297Y0311158D01*
X0384299Y0311000D01*
X0384297Y0310842D01*
X0384291Y0310684D01*
X0384281Y0310526D01*
X0384267Y0310368D01*
X0384249Y0310211D01*
X0384228Y0310054D01*
X0384202Y0309898D01*
X0384172Y0309742D01*
X0384139Y0309587D01*
X0384101Y0309434D01*
X0384060Y0309281D01*
X0384015Y0309129D01*
X0383966Y0308978D01*
X0383913Y0308829D01*
X0383857Y0308681D01*
X0383797Y0308535D01*
X0383733Y0308390D01*
X0383665Y0308247D01*
X0383594Y0308105D01*
X0383520Y0307965D01*
X0383442Y0307828D01*
X0383360Y0307692D01*
X0383276Y0307558D01*
X0383187Y0307427D01*
X0383096Y0307298D01*
X0383001Y0307171D01*
X0382904Y0307046D01*
X0382803Y0306924D01*
X0382699Y0306805D01*
X0382592Y0306688D01*
X0382482Y0306574D01*
X0382369Y0306463D01*
X0382254Y0306354D01*
X0382136Y0306249D01*
X0382015Y0306147D01*
X0381892Y0306047D01*
X0381766Y0305951D01*
X0381638Y0305858D01*
X0381508Y0305768D01*
X0381375Y0305682D01*
X0381240Y0305598D01*
X0381104Y0305519D01*
X0380965Y0305442D01*
X0380824Y0305370D01*
X0380682Y0305300D01*
X0380538Y0305235D01*
X0380392Y0305173D01*
X0380245Y0305115D01*
X0380096Y0305060D01*
X0379946Y0305009D01*
X0379795Y0304962D01*
X0379643Y0304919D01*
X0379490Y0304880D01*
X0379335Y0304844D01*
X0379180Y0304813D01*
X0379024Y0304785D01*
X0378868Y0304761D01*
X0378711Y0304741D01*
X0378553Y0304725D01*
X0378396Y0304713D01*
X0378237Y0304705D01*
X0378079Y0304701D01*
X0377921Y0304701D01*
X0377763Y0304705D01*
X0377604Y0304713D01*
X0377447Y0304725D01*
X0377289Y0304741D01*
X0377132Y0304761D01*
X0376976Y0304785D01*
X0376820Y0304813D01*
X0376665Y0304844D01*
X0376510Y0304880D01*
X0376357Y0304919D01*
X0376205Y0304962D01*
X0376054Y0305009D01*
X0375904Y0305060D01*
X0375755Y0305115D01*
X0375608Y0305173D01*
X0375462Y0305235D01*
X0375318Y0305300D01*
X0375176Y0305370D01*
X0375035Y0305442D01*
X0374896Y0305519D01*
X0374760Y0305598D01*
X0374625Y0305682D01*
X0374492Y0305768D01*
X0374362Y0305858D01*
X0374234Y0305951D01*
X0374108Y0306047D01*
X0373985Y0306147D01*
X0373864Y0306249D01*
X0373746Y0306354D01*
X0373631Y0306463D01*
X0373518Y0306574D01*
X0373408Y0306688D01*
X0373301Y0306805D01*
X0373197Y0306924D01*
X0373096Y0307046D01*
X0372999Y0307171D01*
X0372904Y0307298D01*
X0372813Y0307427D01*
X0372724Y0307558D01*
X0372640Y0307692D01*
X0372558Y0307828D01*
X0372480Y0307965D01*
X0372406Y0308105D01*
X0372335Y0308247D01*
X0372267Y0308390D01*
X0372203Y0308535D01*
X0372143Y0308681D01*
X0372087Y0308829D01*
X0372034Y0308978D01*
X0371985Y0309129D01*
X0371940Y0309281D01*
X0371899Y0309434D01*
X0371861Y0309587D01*
X0371828Y0309742D01*
X0371798Y0309898D01*
X0371772Y0310054D01*
X0371751Y0310211D01*
X0371733Y0310368D01*
X0371719Y0310526D01*
X0371709Y0310684D01*
X0371703Y0310842D01*
X0371701Y0311000D01*
D11*
X0323000Y0311000D03*
X0323000Y0301000D03*
X0323000Y0291000D03*
X0323000Y0281000D03*
X0323000Y0271000D03*
X0323000Y0261000D03*
X0323000Y0251000D03*
X0323000Y0241000D03*
X0323000Y0231000D03*
X0323000Y0221000D03*
X0323000Y0211000D03*
X0313000Y0211000D03*
X0313000Y0221000D03*
X0313000Y0231000D03*
X0313000Y0241000D03*
X0313000Y0251000D03*
X0313000Y0261000D03*
X0313000Y0271000D03*
X0313000Y0281000D03*
X0313000Y0291000D03*
X0313000Y0301000D03*
X0313000Y0311000D03*
X0313000Y0321000D03*
X0313000Y0331000D03*
X0313000Y0341000D03*
X0313000Y0351000D03*
X0313000Y0361000D03*
X0313000Y0371000D03*
X0313000Y0381000D03*
X0313000Y0391000D03*
X0323000Y0391000D03*
X0323000Y0381000D03*
X0323000Y0371000D03*
X0323000Y0361000D03*
X0323000Y0351000D03*
X0323000Y0341000D03*
X0323000Y0331000D03*
X0323000Y0321000D03*
X0083000Y0321000D03*
X0083000Y0311000D03*
X0083000Y0301000D03*
X0083000Y0291000D03*
X0083000Y0281000D03*
X0083000Y0271000D03*
X0083000Y0261000D03*
X0083000Y0251000D03*
X0083000Y0241000D03*
X0083000Y0231000D03*
X0083000Y0221000D03*
X0083000Y0211000D03*
X0073000Y0211000D03*
X0073000Y0221000D03*
X0073000Y0231000D03*
X0073000Y0241000D03*
X0073000Y0251000D03*
X0073000Y0261000D03*
X0073000Y0271000D03*
X0073000Y0281000D03*
X0073000Y0291000D03*
X0073000Y0301000D03*
X0073000Y0311000D03*
X0073000Y0321000D03*
X0073000Y0331000D03*
X0073000Y0341000D03*
X0073000Y0351000D03*
X0073000Y0361000D03*
X0073000Y0371000D03*
X0073000Y0381000D03*
X0073000Y0391000D03*
X0083000Y0391000D03*
X0083000Y0381000D03*
X0083000Y0371000D03*
X0083000Y0361000D03*
X0083000Y0351000D03*
X0083000Y0341000D03*
X0083000Y0331000D03*
D12*
X0018000Y0406000D03*
X0018000Y0121000D03*
X0381000Y0121000D03*
X0381500Y0406000D03*
D13*
X0359437Y0174898D02*
X0351563Y0174898D01*
X0343295Y0159937D02*
X0343295Y0152063D01*
X0367311Y0152063D02*
X0367311Y0159937D01*
D14*
X0360992Y0202004D03*
X0360992Y0210035D03*
X0360992Y0217949D03*
X0360992Y0225980D03*
X0368000Y0221965D03*
X0368000Y0214051D03*
X0368000Y0206020D03*
X0368000Y0229996D03*
X0360992Y0272004D03*
X0360992Y0280035D03*
X0360992Y0287949D03*
X0368000Y0284051D03*
X0368000Y0276020D03*
X0368000Y0291965D03*
X0368000Y0299996D03*
X0360992Y0295980D03*
D15*
X0378000Y0311000D03*
X0378000Y0261000D03*
X0378000Y0241000D03*
X0378000Y0191000D03*
D16*
X0223000Y0136000D03*
X0128000Y0136000D03*
X0193000Y0410000D03*
D17*
X0183000Y0410000D03*
X0173000Y0410000D03*
X0163000Y0410000D03*
X0163000Y0380000D03*
X0173000Y0380000D03*
X0183000Y0380000D03*
X0193000Y0380000D03*
X0188000Y0166000D03*
X0198000Y0166000D03*
X0208000Y0166000D03*
X0223000Y0166000D03*
X0233000Y0166000D03*
X0243000Y0166000D03*
X0253000Y0166000D03*
X0263000Y0166000D03*
X0273000Y0166000D03*
X0283000Y0166000D03*
X0293000Y0166000D03*
X0303000Y0166000D03*
X0303000Y0136000D03*
X0293000Y0136000D03*
X0283000Y0136000D03*
X0273000Y0136000D03*
X0263000Y0136000D03*
X0253000Y0136000D03*
X0243000Y0136000D03*
X0233000Y0136000D03*
X0208000Y0136000D03*
X0198000Y0136000D03*
X0188000Y0136000D03*
X0178000Y0136000D03*
X0168000Y0136000D03*
X0158000Y0136000D03*
X0148000Y0136000D03*
X0138000Y0136000D03*
X0138000Y0166000D03*
X0128000Y0166000D03*
X0148000Y0166000D03*
X0158000Y0166000D03*
X0168000Y0166000D03*
X0178000Y0166000D03*
D18*
X0180600Y0191000D02*
X0175400Y0191000D01*
X0175400Y0201000D02*
X0180600Y0201000D01*
X0190400Y0201000D02*
X0195600Y0201000D01*
X0195600Y0211000D02*
X0190400Y0211000D01*
X0180600Y0211000D02*
X0175400Y0211000D01*
X0165600Y0211000D02*
X0160400Y0211000D01*
X0160400Y0201000D02*
X0165600Y0201000D01*
X0165600Y0221000D02*
X0160400Y0221000D01*
X0160400Y0231000D02*
X0165600Y0231000D01*
X0165600Y0241000D02*
X0160400Y0241000D01*
X0160400Y0251000D02*
X0165600Y0251000D01*
X0175400Y0251000D02*
X0180600Y0251000D01*
X0190400Y0251000D02*
X0195600Y0251000D01*
X0195600Y0241000D02*
X0190400Y0241000D01*
X0180600Y0241000D02*
X0175400Y0241000D01*
X0190400Y0231000D02*
X0195600Y0231000D01*
X0195600Y0221000D02*
X0190400Y0221000D01*
X0180600Y0221000D02*
X0175400Y0221000D01*
X0145600Y0221000D02*
X0140400Y0221000D01*
X0140400Y0211000D02*
X0145600Y0211000D01*
X0145600Y0201000D02*
X0140400Y0201000D01*
X0140400Y0191000D02*
X0145600Y0191000D01*
X0130600Y0201000D02*
X0125400Y0201000D01*
X0125400Y0211000D02*
X0130600Y0211000D01*
X0130600Y0221000D02*
X0125400Y0221000D01*
X0125400Y0231000D02*
X0130600Y0231000D01*
X0130600Y0241000D02*
X0125400Y0241000D01*
X0125400Y0251000D02*
X0130600Y0251000D01*
X0130600Y0261000D02*
X0125400Y0261000D01*
X0115600Y0261000D02*
X0110400Y0261000D01*
X0100600Y0261000D02*
X0095400Y0261000D01*
X0095400Y0251000D02*
X0100600Y0251000D01*
X0110400Y0251000D02*
X0115600Y0251000D01*
X0115600Y0241000D02*
X0110400Y0241000D01*
X0100600Y0241000D02*
X0095400Y0241000D01*
X0095400Y0231000D02*
X0100600Y0231000D01*
X0100600Y0221000D02*
X0095400Y0221000D01*
X0095400Y0211000D02*
X0100600Y0211000D01*
X0110400Y0211000D02*
X0115600Y0211000D01*
X0115600Y0201000D02*
X0110400Y0201000D01*
X0100600Y0201000D02*
X0095400Y0201000D01*
X0110400Y0191000D02*
X0115600Y0191000D01*
X0115600Y0221000D02*
X0110400Y0221000D01*
X0140400Y0241000D02*
X0145600Y0241000D01*
X0145600Y0251000D02*
X0140400Y0251000D01*
X0140400Y0261000D02*
X0145600Y0261000D01*
X0145600Y0271000D02*
X0140400Y0271000D01*
X0160400Y0261000D02*
X0165600Y0261000D01*
X0175400Y0261000D02*
X0180600Y0261000D01*
X0190400Y0261000D02*
X0195600Y0261000D01*
X0205400Y0261000D02*
X0210600Y0261000D01*
X0210600Y0251000D02*
X0205400Y0251000D01*
X0205400Y0241000D02*
X0210600Y0241000D01*
X0210600Y0221000D02*
X0205400Y0221000D01*
X0205400Y0211000D02*
X0210600Y0211000D01*
X0210600Y0201000D02*
X0205400Y0201000D01*
X0205400Y0191000D02*
X0210600Y0191000D01*
X0228000Y0183600D02*
X0228000Y0178400D01*
X0238000Y0178400D02*
X0238000Y0183600D01*
X0248000Y0183600D02*
X0248000Y0178400D01*
X0258000Y0178400D02*
X0258000Y0183600D01*
X0268000Y0183600D02*
X0268000Y0178400D01*
X0278000Y0178400D02*
X0278000Y0183600D01*
X0288000Y0183600D02*
X0288000Y0178400D01*
X0298000Y0178400D02*
X0298000Y0183600D01*
X0298000Y0208400D02*
X0298000Y0213600D01*
X0298000Y0223400D02*
X0298000Y0228600D01*
X0288000Y0228600D02*
X0288000Y0223400D01*
X0288000Y0213600D02*
X0288000Y0208400D01*
X0278000Y0208400D02*
X0278000Y0213600D01*
X0278000Y0223400D02*
X0278000Y0228600D01*
X0268000Y0228600D02*
X0268000Y0223400D01*
X0268000Y0213600D02*
X0268000Y0208400D01*
X0258000Y0208400D02*
X0258000Y0213600D01*
X0258000Y0223400D02*
X0258000Y0228600D01*
X0248000Y0228600D02*
X0248000Y0223400D01*
X0248000Y0213600D02*
X0248000Y0208400D01*
X0238000Y0208400D02*
X0238000Y0213600D01*
X0238000Y0223400D02*
X0238000Y0228600D01*
X0228000Y0228600D02*
X0228000Y0223400D01*
X0228000Y0213600D02*
X0228000Y0208400D01*
X0228000Y0253400D02*
X0228000Y0258600D01*
X0238000Y0258600D02*
X0238000Y0253400D01*
X0248000Y0253400D02*
X0248000Y0258600D01*
X0258000Y0258600D02*
X0258000Y0253400D01*
X0268000Y0253400D02*
X0268000Y0258600D01*
X0278000Y0258600D02*
X0278000Y0253400D01*
X0288000Y0253400D02*
X0288000Y0258600D01*
X0298000Y0258600D02*
X0298000Y0253400D01*
X0295400Y0296000D02*
X0300600Y0296000D01*
X0300600Y0306000D02*
X0295400Y0306000D01*
X0295400Y0316000D02*
X0300600Y0316000D01*
X0300600Y0326000D02*
X0295400Y0326000D01*
X0295400Y0336000D02*
X0300600Y0336000D01*
X0300600Y0346000D02*
X0295400Y0346000D01*
X0295400Y0356000D02*
X0300600Y0356000D01*
X0300600Y0366000D02*
X0295400Y0366000D01*
X0270600Y0366000D02*
X0265400Y0366000D01*
X0265400Y0356000D02*
X0270600Y0356000D01*
X0270600Y0346000D02*
X0265400Y0346000D01*
X0265400Y0336000D02*
X0270600Y0336000D01*
X0270600Y0326000D02*
X0265400Y0326000D01*
X0265400Y0316000D02*
X0270600Y0316000D01*
X0270600Y0306000D02*
X0265400Y0306000D01*
X0265400Y0296000D02*
X0270600Y0296000D01*
X0255600Y0296000D02*
X0250400Y0296000D01*
X0250400Y0306000D02*
X0255600Y0306000D01*
X0255600Y0316000D02*
X0250400Y0316000D01*
X0250400Y0326000D02*
X0255600Y0326000D01*
X0255600Y0336000D02*
X0250400Y0336000D01*
X0250400Y0346000D02*
X0255600Y0346000D01*
X0255600Y0356000D02*
X0250400Y0356000D01*
X0250400Y0366000D02*
X0255600Y0366000D01*
X0225600Y0366000D02*
X0220400Y0366000D01*
X0220400Y0356000D02*
X0225600Y0356000D01*
X0225600Y0346000D02*
X0220400Y0346000D01*
X0220400Y0336000D02*
X0225600Y0336000D01*
X0225600Y0326000D02*
X0220400Y0326000D01*
X0220400Y0316000D02*
X0225600Y0316000D01*
X0225600Y0306000D02*
X0220400Y0306000D01*
X0220400Y0296000D02*
X0225600Y0296000D01*
X0210600Y0296000D02*
X0205400Y0296000D01*
X0205400Y0286000D02*
X0210600Y0286000D01*
X0210600Y0271000D02*
X0205400Y0271000D01*
X0190600Y0296000D02*
X0185400Y0296000D01*
X0185400Y0306000D02*
X0190600Y0306000D01*
X0190600Y0316000D02*
X0185400Y0316000D01*
X0185400Y0326000D02*
X0190600Y0326000D01*
X0190600Y0336000D02*
X0185400Y0336000D01*
X0185400Y0346000D02*
X0190600Y0346000D01*
X0190600Y0356000D02*
X0185400Y0356000D01*
X0185400Y0366000D02*
X0190600Y0366000D01*
X0205400Y0366000D02*
X0210600Y0366000D01*
X0210600Y0356000D02*
X0205400Y0356000D01*
X0205400Y0346000D02*
X0210600Y0346000D01*
X0210600Y0336000D02*
X0205400Y0336000D01*
X0205400Y0326000D02*
X0210600Y0326000D01*
X0210600Y0316000D02*
X0205400Y0316000D01*
X0205400Y0306000D02*
X0210600Y0306000D01*
X0180600Y0271000D02*
X0175400Y0271000D01*
X0160600Y0296000D02*
X0155400Y0296000D01*
X0145600Y0296000D02*
X0140400Y0296000D01*
X0140400Y0306000D02*
X0145600Y0306000D01*
X0155400Y0306000D02*
X0160600Y0306000D01*
X0160600Y0316000D02*
X0155400Y0316000D01*
X0145600Y0316000D02*
X0140400Y0316000D01*
X0140400Y0326000D02*
X0145600Y0326000D01*
X0155400Y0326000D02*
X0160600Y0326000D01*
X0160600Y0336000D02*
X0155400Y0336000D01*
X0155400Y0346000D02*
X0160600Y0346000D01*
X0160600Y0356000D02*
X0155400Y0356000D01*
X0145600Y0356000D02*
X0140400Y0356000D01*
X0140400Y0346000D02*
X0145600Y0346000D01*
X0145600Y0336000D02*
X0140400Y0336000D01*
X0140400Y0366000D02*
X0145600Y0366000D01*
X0155400Y0366000D02*
X0160600Y0366000D01*
X0115600Y0366000D02*
X0110400Y0366000D01*
X0100600Y0366000D02*
X0095400Y0366000D01*
X0095400Y0356000D02*
X0100600Y0356000D01*
X0110400Y0356000D02*
X0115600Y0356000D01*
X0115600Y0346000D02*
X0110400Y0346000D01*
X0110400Y0336000D02*
X0115600Y0336000D01*
X0115600Y0326000D02*
X0110400Y0326000D01*
X0100600Y0326000D02*
X0095400Y0326000D01*
X0095400Y0316000D02*
X0100600Y0316000D01*
X0110400Y0316000D02*
X0115600Y0316000D01*
X0115600Y0306000D02*
X0110400Y0306000D01*
X0100600Y0306000D02*
X0095400Y0306000D01*
X0095400Y0296000D02*
X0100600Y0296000D01*
X0110400Y0296000D02*
X0115600Y0296000D01*
X0100600Y0286000D02*
X0095400Y0286000D01*
X0110400Y0271000D02*
X0115600Y0271000D01*
X0100600Y0336000D02*
X0095400Y0336000D01*
X0095400Y0346000D02*
X0100600Y0346000D01*
D19*
X0018705Y0346000D02*
X0012705Y0346000D01*
X0011705Y0336000D02*
X0017705Y0336000D01*
X0018705Y0326000D02*
X0012705Y0326000D01*
X0011705Y0316000D02*
X0017705Y0316000D01*
X0018705Y0306000D02*
X0012705Y0306000D01*
X0012705Y0296000D02*
X0018705Y0296000D01*
X0017705Y0286000D02*
X0011705Y0286000D01*
X0012705Y0276000D02*
X0018705Y0276000D01*
X0017705Y0266000D02*
X0011705Y0266000D01*
X0012705Y0256000D02*
X0018705Y0256000D01*
X0017705Y0246000D02*
X0011705Y0246000D01*
X0012705Y0236000D02*
X0018705Y0236000D01*
X0017705Y0226000D02*
X0011705Y0226000D01*
X0012705Y0211000D02*
X0018705Y0211000D01*
X0017705Y0201000D02*
X0011705Y0201000D01*
X0012705Y0191000D02*
X0018705Y0191000D01*
X0017705Y0181000D02*
X0011705Y0181000D01*
X0012705Y0171000D02*
X0018705Y0171000D01*
X0017705Y0161000D02*
X0011705Y0161000D01*
X0012705Y0151000D02*
X0018705Y0151000D01*
X0017705Y0141000D02*
X0011705Y0141000D01*
X0123000Y0121705D02*
X0123000Y0115705D01*
X0133000Y0114705D02*
X0133000Y0120705D01*
X0143000Y0121705D02*
X0143000Y0115705D01*
X0153000Y0114705D02*
X0153000Y0120705D01*
X0163000Y0121705D02*
X0163000Y0115705D01*
X0173000Y0114705D02*
X0173000Y0120705D01*
X0183000Y0121705D02*
X0183000Y0115705D01*
X0193000Y0114705D02*
X0193000Y0120705D01*
X0203000Y0121705D02*
X0203000Y0115705D01*
X0223000Y0115705D02*
X0223000Y0121705D01*
X0233000Y0120705D02*
X0233000Y0114705D01*
X0243000Y0115705D02*
X0243000Y0121705D01*
X0253000Y0120705D02*
X0253000Y0114705D01*
X0263000Y0115705D02*
X0263000Y0121705D01*
X0273000Y0120705D02*
X0273000Y0114705D01*
X0283000Y0115705D02*
X0283000Y0121705D01*
X0293000Y0120705D02*
X0293000Y0114705D01*
X0303000Y0115705D02*
X0303000Y0121705D01*
X0017705Y0356000D02*
X0011705Y0356000D01*
X0012705Y0366000D02*
X0018705Y0366000D01*
X0017705Y0376000D02*
X0011705Y0376000D01*
X0012705Y0386000D02*
X0018705Y0386000D01*
D20*
X0167764Y0387500D03*
X0167764Y0392500D03*
X0167764Y0397500D03*
X0167764Y0402500D03*
X0188236Y0402500D03*
X0188236Y0397500D03*
X0188236Y0392500D03*
X0188236Y0387500D03*
X0359364Y0347900D03*
X0359364Y0342900D03*
X0359364Y0337900D03*
X0359364Y0332900D03*
X0379836Y0332900D03*
X0379836Y0337900D03*
X0379836Y0342900D03*
X0379836Y0347900D03*
D21*
X0358000Y0391000D03*
D22*
X0358000Y0371000D03*
D23*
X0343500Y0356000D03*
X0343500Y0326000D03*
X0332500Y0185500D03*
X0332500Y0155500D03*
X0332500Y0146000D03*
X0332500Y0116000D03*
D24*
X0334000Y0351988D03*
X0334000Y0363012D03*
X0360200Y0403588D03*
X0360200Y0414612D03*
X0062500Y0416000D03*
X0062500Y0404976D03*
X0059500Y0133000D03*
X0059500Y0121976D03*
D25*
X0388000Y0371000D03*
D26*
X0388000Y0381000D03*
D27*
X0356000Y0125000D03*
X0356000Y0115000D03*
X0346000Y0115000D03*
X0346000Y0125000D03*
X0114500Y0144000D03*
X0114500Y0154000D03*
X0104500Y0154000D03*
X0104500Y0144000D03*
X0094500Y0144000D03*
X0094500Y0154000D03*
X0080000Y0132000D03*
X0080000Y0122000D03*
X0080000Y0112000D03*
X0070000Y0112000D03*
X0070000Y0122000D03*
X0070000Y0132000D03*
X0048500Y0132000D03*
X0048500Y0122000D03*
X0048500Y0112000D03*
X0038500Y0112000D03*
X0038500Y0122000D03*
X0038500Y0132000D03*
X0040000Y0396000D03*
X0040000Y0406000D03*
X0040000Y0416000D03*
X0050000Y0416000D03*
X0050000Y0406000D03*
X0050000Y0396000D03*
D28*
X0072260Y0404500D03*
X0079740Y0404500D03*
X0079740Y0412000D03*
X0072260Y0412000D03*
X0160260Y0271500D03*
X0167740Y0271500D03*
X0115240Y0166000D03*
X0107760Y0166000D03*
X0101240Y0166000D03*
X0093760Y0166000D03*
X0082240Y0166000D03*
X0074760Y0166000D03*
X0074760Y0157500D03*
X0082240Y0157500D03*
D29*
X0083000Y0149240D03*
X0083000Y0141760D03*
X0073000Y0141760D03*
X0073000Y0149240D03*
X0153000Y0263760D03*
X0153000Y0271240D03*
X0223000Y0273260D03*
X0223000Y0280740D03*
X0248000Y0274740D03*
X0248000Y0267260D03*
X0268000Y0267260D03*
X0268000Y0274740D03*
X0278000Y0274740D03*
X0278000Y0267260D03*
X0293000Y0267260D03*
X0293000Y0274740D03*
X0334000Y0371760D03*
X0334000Y0379240D03*
X0334000Y0388260D03*
X0334000Y0395740D03*
X0216500Y0401760D03*
X0216500Y0409240D03*
X0205500Y0409240D03*
X0205500Y0401760D03*
X0204000Y0389740D03*
X0204000Y0382260D03*
X0153000Y0395260D03*
X0153000Y0402740D03*
X0144000Y0402740D03*
X0144000Y0395260D03*
D30*
X0128000Y0383800D02*
X0128000Y0378200D01*
X0118000Y0378200D02*
X0118000Y0383800D01*
X0108000Y0383800D02*
X0108000Y0378200D01*
X0098000Y0378200D02*
X0098000Y0383800D01*
X0228000Y0383800D02*
X0228000Y0378200D01*
X0238000Y0378200D02*
X0238000Y0383800D01*
X0248000Y0383800D02*
X0248000Y0378200D01*
X0258000Y0378200D02*
X0258000Y0383800D01*
X0268000Y0383800D02*
X0268000Y0378200D01*
X0278000Y0378200D02*
X0278000Y0383800D01*
X0288000Y0383800D02*
X0288000Y0378200D01*
X0298000Y0378200D02*
X0298000Y0383800D01*
D31*
X0355000Y0355200D03*
X0365000Y0355200D03*
X0375000Y0355200D03*
X0385000Y0355200D03*
X0385000Y0325200D03*
X0375000Y0325200D03*
X0365000Y0325200D03*
X0355000Y0325200D03*
D32*
X0050000Y0328000D03*
X0050000Y0338000D03*
X0050000Y0348000D03*
X0050000Y0358000D03*
X0050000Y0368000D03*
X0040000Y0368000D03*
X0040000Y0358000D03*
X0040000Y0348000D03*
X0040000Y0338000D03*
X0040000Y0328000D03*
X0040000Y0284000D03*
X0040000Y0274000D03*
X0040000Y0264000D03*
X0040000Y0254000D03*
X0040000Y0244000D03*
X0050000Y0244000D03*
X0050000Y0254000D03*
X0050000Y0264000D03*
X0050000Y0274000D03*
X0050000Y0284000D03*
X0050000Y0200000D03*
X0050000Y0190000D03*
X0050000Y0180000D03*
X0050000Y0170000D03*
X0050000Y0160000D03*
X0040000Y0160000D03*
X0040000Y0170000D03*
X0040000Y0180000D03*
X0040000Y0190000D03*
X0040000Y0200000D03*
D33*
X0124260Y0153669D03*
X0131740Y0153669D03*
X0128000Y0162331D03*
X0144260Y0153669D03*
X0151740Y0153669D03*
X0148000Y0162331D03*
X0164260Y0153669D03*
X0171740Y0153669D03*
X0168000Y0162331D03*
X0184260Y0153669D03*
X0191740Y0153669D03*
X0188000Y0162331D03*
X0219260Y0153669D03*
X0226740Y0153669D03*
X0223000Y0162331D03*
X0239260Y0153669D03*
X0246740Y0153669D03*
X0243000Y0162331D03*
X0259260Y0153669D03*
X0266740Y0153669D03*
X0263000Y0162331D03*
X0279260Y0153669D03*
X0286740Y0153669D03*
X0283000Y0162331D03*
D34*
X0283000Y0146346D03*
X0283000Y0139654D03*
X0263000Y0139654D03*
X0263000Y0146346D03*
X0243000Y0146346D03*
X0243000Y0139654D03*
X0223000Y0139654D03*
X0223000Y0146346D03*
X0188000Y0146346D03*
X0188000Y0139654D03*
X0168000Y0139654D03*
X0168000Y0146346D03*
X0148000Y0146346D03*
X0148000Y0139654D03*
X0128000Y0139654D03*
X0128000Y0146346D03*
D35*
X0318500Y0133677D03*
X0318500Y0118323D03*
D36*
X0249346Y0296000D03*
X0242654Y0296000D03*
X0238346Y0296000D03*
X0238346Y0306000D03*
X0242654Y0306000D03*
X0249346Y0306000D03*
X0249346Y0316000D03*
X0242654Y0316000D03*
X0238346Y0316000D03*
X0238346Y0326000D03*
X0242654Y0326000D03*
X0249346Y0326000D03*
X0249346Y0336000D03*
X0249346Y0346000D03*
X0242654Y0346000D03*
X0238346Y0346000D03*
X0238346Y0336000D03*
X0242654Y0336000D03*
X0242654Y0356000D03*
X0238346Y0356000D03*
X0238346Y0366000D03*
X0242654Y0366000D03*
X0249346Y0366000D03*
X0249346Y0356000D03*
X0139346Y0356000D03*
X0132654Y0356000D03*
X0128346Y0356000D03*
X0128346Y0346000D03*
X0132654Y0346000D03*
X0139346Y0346000D03*
X0139346Y0336000D03*
X0132654Y0336000D03*
X0128346Y0336000D03*
X0128346Y0326000D03*
X0132654Y0326000D03*
X0139346Y0326000D03*
X0139346Y0316000D03*
X0132654Y0316000D03*
X0128346Y0316000D03*
X0128346Y0306000D03*
X0132654Y0306000D03*
X0139346Y0306000D03*
X0139346Y0296000D03*
X0132654Y0296000D03*
X0128346Y0296000D03*
X0128346Y0366000D03*
X0132654Y0366000D03*
X0139346Y0366000D03*
D37*
X0121752Y0366000D03*
X0121752Y0356000D03*
X0121752Y0346000D03*
X0121752Y0336000D03*
X0121752Y0326000D03*
X0121752Y0316000D03*
X0121752Y0306000D03*
X0121752Y0296000D03*
X0231752Y0296000D03*
X0231752Y0306000D03*
X0231752Y0316000D03*
X0231752Y0326000D03*
X0231752Y0336000D03*
X0231752Y0346000D03*
X0231752Y0356000D03*
X0231752Y0366000D03*
D38*
X0147512Y0230000D03*
X0136488Y0230000D03*
X0110512Y0230000D03*
X0099488Y0230000D03*
D39*
X0093800Y0120500D03*
X0382000Y0148300D03*
D40*
X0382000Y0163480D03*
X0108980Y0120500D03*
D41*
X0334000Y0119961D03*
X0334000Y0140039D03*
X0332500Y0160461D03*
X0332500Y0180539D03*
X0344000Y0330961D03*
X0344000Y0351039D03*
M02*
